# metres; Y up; ground-centred pivot
mtllib 02_Banco_Respaldo.mtl
v -0.9250000 0.6142439 0.1968705
v -0.9250000 0.6142439 0.1968705
v -0.9250000 0.6142439 0.2345705
v -0.9250000 0.6142439 0.2345705
v -0.9250000 0.6142439 0.2345705
v -0.9250000 0.7169439 0.1968705
v -0.9250000 0.7169439 0.1968705
v -0.9250000 0.7169439 0.1968705
v -0.9250000 0.7169439 0.2345705
v -0.9250000 0.7169439 0.2345705
v -0.9250000 0.7169439 0.2345705
v -0.9250000 0.7842439 0.2138705
v -0.9250000 0.7842439 0.2138705
v -0.9250000 0.7842439 0.2515705
v -0.9250000 0.7842439 0.2515705
v -0.9250000 0.7842439 0.2515705
v -0.9250000 0.8869439 0.2138705
v -0.9250000 0.8869439 0.2138705
v -0.9250000 0.8869439 0.2138705
v -0.9250000 0.8869439 0.2515705
v -0.9250000 0.8869439 0.2515705
v -0.9250000 0.8869439 0.2515705
v -0.9113500 0.6005939 0.1968705
v -0.9113500 0.6005939 0.2345705
v -0.9113500 0.6142439 0.1832205
v -0.9113500 0.6142439 0.1832205
v -0.9113500 0.6142439 0.2482205
v -0.9113500 0.6142439 0.2482205
v -0.9113500 0.7169439 0.1832205
v -0.9113500 0.7169439 0.1832205
v -0.9113500 0.7169439 0.2482205
v -0.9113500 0.7169439 0.2482205
v -0.9113500 0.7305939 0.1968705
v -0.9113500 0.7305939 0.2345705
v -0.9113500 0.7705939 0.2138705
v -0.9113500 0.7705939 0.2515705
v -0.9113500 0.7842439 0.2002205
v -0.9113500 0.7842439 0.2002205
v -0.9113500 0.7842439 0.2652205
v -0.9113500 0.7842439 0.2652205
v -0.9113500 0.8869439 0.2002205
v -0.9113500 0.8869439 0.2002205
v -0.9113500 0.8869439 0.2652205
v -0.9113500 0.8869439 0.2652205
v -0.9113500 0.9005939 0.2138705
v -0.9113500 0.9005939 0.2515705
v -0.9000000 0.4167439 -0.2581295
v -0.9000000 0.4167439 -0.2581295
v -0.9000000 0.4167439 -0.1804295
v -0.9000000 0.4167439 -0.1804295
v -0.9000000 0.4167439 -0.1804295
v -0.9000000 0.4167439 -0.1347962
v -0.9000000 0.4167439 -0.1347962
v -0.9000000 0.4167439 -0.0570962
v -0.9000000 0.4167439 -0.0570962
v -0.9000000 0.4167439 -0.0570962
v -0.9000000 0.4167439 -0.0114629
v -0.9000000 0.4167439 -0.0114629
v -0.9000000 0.4167439 0.0662371
v -0.9000000 0.4167439 0.0662371
v -0.9000000 0.4167439 0.0662371
v -0.9000000 0.4167439 0.1118705
v -0.9000000 0.4167439 0.1118705
v -0.9000000 0.4167439 0.1895705
v -0.9000000 0.4167439 0.1895705
v -0.9000000 0.4167439 0.1895705
v -0.9000000 0.4544439 -0.2581295
v -0.9000000 0.4544439 -0.2581295
v -0.9000000 0.4544439 -0.2581295
v -0.9000000 0.4544439 -0.1804295
v -0.9000000 0.4544439 -0.1804295
v -0.9000000 0.4544439 -0.1804295
v -0.9000000 0.4544439 -0.1347962
v -0.9000000 0.4544439 -0.1347962
v -0.9000000 0.4544439 -0.1347962
v -0.9000000 0.4544439 -0.0570962
v -0.9000000 0.4544439 -0.0570962
v -0.9000000 0.4544439 -0.0570962
v -0.9000000 0.4544439 -0.0114629
v -0.9000000 0.4544439 -0.0114629
v -0.9000000 0.4544439 -0.0114629
v -0.9000000 0.4544439 0.0662371
v -0.9000000 0.4544439 0.0662371
v -0.9000000 0.4544439 0.0662371
v -0.9000000 0.4544439 0.1118705
v -0.9000000 0.4544439 0.1118705
v -0.9000000 0.4544439 0.1118705
v -0.9000000 0.4544439 0.1895705
v -0.9000000 0.4544439 0.1895705
v -0.9000000 0.4544439 0.1895705
v -0.8863500 0.4030939 -0.2581295
v -0.8863500 0.4030939 -0.1804295
v -0.8863500 0.4030939 -0.1347962
v -0.8863500 0.4030939 -0.0570962
v -0.8863500 0.4030939 -0.0114629
v -0.8863500 0.4030939 0.0662371
v -0.8863500 0.4030939 0.1118705
v -0.8863500 0.4030939 0.1895705
v -0.8863500 0.4167439 -0.2717795
v -0.8863500 0.4167439 -0.2717795
v -0.8863500 0.4167439 -0.1667795
v -0.8863500 0.4167439 -0.1667795
v -0.8863500 0.4167439 -0.1484462
v -0.8863500 0.4167439 -0.1484462
v -0.8863500 0.4167439 -0.0434462
v -0.8863500 0.4167439 -0.0434462
v -0.8863500 0.4167439 -0.0251129
v -0.8863500 0.4167439 -0.0251129
v -0.8863500 0.4167439 0.0798871
v -0.8863500 0.4167439 0.0798871
v -0.8863500 0.4167439 0.0982205
v -0.8863500 0.4167439 0.0982205
v -0.8863500 0.4167439 0.2032205
v -0.8863500 0.4167439 0.2032205
v -0.8863500 0.4544439 -0.2717795
v -0.8863500 0.4544439 -0.2717795
v -0.8863500 0.4544439 -0.1667795
v -0.8863500 0.4544439 -0.1667795
v -0.8863500 0.4544439 -0.1484462
v -0.8863500 0.4544439 -0.1484462
v -0.8863500 0.4544439 -0.0434462
v -0.8863500 0.4544439 -0.0434462
v -0.8863500 0.4544439 -0.0251129
v -0.8863500 0.4544439 -0.0251129
v -0.8863500 0.4544439 0.0798871
v -0.8863500 0.4544439 0.0798871
v -0.8863500 0.4544439 0.0982205
v -0.8863500 0.4544439 0.0982205
v -0.8863500 0.4544439 0.2032205
v -0.8863500 0.4544439 0.2032205
v -0.8863500 0.4680939 -0.2581295
v -0.8863500 0.4680939 -0.1804295
v -0.8863500 0.4680939 -0.1347962
v -0.8863500 0.4680939 -0.0570962
v -0.8863500 0.4680939 -0.0114629
v -0.8863500 0.4680939 0.0662371
v -0.8863500 0.4680939 0.1118705
v -0.8863500 0.4680939 0.1895705
v -0.7900000 0.3601507 0.1897686
v -0.7900000 0.3601507 0.1897686
v -0.7900000 0.3601507 0.1897686
v -0.7900000 0.3664907 0.1438038
v -0.7900000 0.3664907 0.1438038
v -0.7900000 0.9246971 0.2676371
v -0.7900000 0.9246971 0.2676371
v -0.7900000 0.9246971 0.2676371
v -0.7900000 0.9310370 0.2216723
v -0.7900000 0.9310370 0.2216723
v -0.7900000 0.9310370 0.2216723
v -0.7897232 0.3887208 -0.1891884
v -0.7897232 0.3887208 -0.1891884
v -0.7897232 0.3887208 0.1206294
v -0.7897232 0.3887208 0.1206294
v -0.7891258 0.3861322 -0.2384168
v -0.7891258 0.3861322 -0.2384168
v -0.7891258 0.3861322 0.1698577
v -0.7891258 0.3861322 0.1698577
v -0.7850000 0.2194939 -0.2653795
v -0.7850000 0.2194939 0.1968205
v -0.7850000 0.2916939 -0.2653795
v -0.7850000 0.2916939 0.1968205
v -0.7763382 0.4101022 -0.1901503
v -0.7763382 0.4101022 -0.1901503
v -0.7763382 0.4101022 -0.1901503
v -0.7763382 0.4101022 0.1215913
v -0.7763382 0.4101022 0.1215913
v -0.7757408 0.4075136 -0.2393787
v -0.7757408 0.4075136 -0.2393787
v -0.7757408 0.4075136 0.1708196
v -0.7757408 0.4075136 0.1708196
v -0.7757408 0.4075136 0.1708196
v -0.7732000 0.3435083 0.1874731
v -0.7732000 0.3498483 0.1415083
v -0.7732000 0.3578552 0.2064111
v -0.7732000 0.3578552 0.2064111
v -0.7732000 0.3687862 0.1271614
v -0.7732000 0.3687862 0.1271614
v -0.7732000 0.9224015 0.2842795
v -0.7732000 0.9224015 0.2842795
v -0.7732000 0.9333325 0.2050298
v -0.7732000 0.9333325 0.2050298
v -0.7732000 0.9413395 0.2699326
v -0.7732000 0.9476795 0.2239678
v -0.7725466 0.3936718 -0.1713644
v -0.7725466 0.3936718 0.1028053
v -0.7715166 0.3892087 -0.2562409
v -0.7715166 0.3892087 0.1876818
v -0.7661000 0.2005939 -0.2653795
v -0.7661000 0.2005939 -0.2653795
v -0.7661000 0.2005939 0.1968205
v -0.7661000 0.2005939 0.1968205
v -0.7661000 0.2194939 -0.2842795
v -0.7661000 0.2194939 -0.2842795
v -0.7661000 0.2194939 0.2157205
v -0.7661000 0.2194939 0.2157205
v -0.7661000 0.2916939 -0.2842795
v -0.7661000 0.2916939 -0.2842795
v -0.7661000 0.2916939 -0.2842795
v -0.7661000 0.2916939 0.2157205
v -0.7661000 0.2916939 0.2157205
v -0.7661000 0.2916939 0.2157205
v -0.7661000 0.3105939 -0.2653795
v -0.7661000 0.3105939 -0.2653795
v -0.7661000 0.3105939 0.1968205
v -0.7661000 0.3105939 0.1968205
v -0.7590000 0.1338439 -0.0560295
v -0.7590000 0.1338439 -0.0560295
v -0.7590000 0.1338439 -0.0125295
v -0.7590000 0.1338439 -0.0125295
v -0.7590000 0.1338439 -0.0125295
v -0.7590000 0.1773439 -0.0560295
v -0.7590000 0.1773439 -0.0560295
v -0.7590000 0.1773439 -0.0560295
v -0.7590000 0.1773439 -0.0125295
v -0.7590000 0.1773439 -0.0125295
v -0.7432500 0.1180939 -0.0560295
v -0.7432500 0.1180939 -0.0125295
v -0.7432500 0.1338439 -0.0717795
v -0.7432500 0.1338439 -0.0717795
v -0.7432500 0.1338439 0.0032205
v -0.7432500 0.1338439 0.0032205
v -0.7432500 0.1773439 -0.0717795
v -0.7432500 0.1773439 -0.0717795
v -0.7432500 0.1773439 0.0032205
v -0.7432500 0.1773439 0.0032205
v -0.7432500 0.1930939 -0.0560295
v -0.7432500 0.1930939 -0.0125295
v -0.7283007 0.4211878 -0.1901503
v -0.7283007 0.4211878 -0.1901503
v -0.7283007 0.4211878 0.1215913
v -0.7283007 0.4211878 0.1215913
v -0.7283007 0.4211878 0.1215913
v -0.7277034 0.4185991 -0.2393787
v -0.7277034 0.4185991 -0.2393787
v -0.7277034 0.4185991 -0.2393787
v -0.7277034 0.4185991 0.1708196
v -0.7277034 0.4185991 0.1708196
v -0.7268000 0.3435083 0.1874731
v -0.7268000 0.3498483 0.1415083
v -0.7268000 0.3578552 0.2064111
v -0.7268000 0.3578552 0.2064111
v -0.7268000 0.3687862 0.1271614
v -0.7268000 0.3687862 0.1271614
v -0.7268000 0.9224015 0.2842795
v -0.7268000 0.9224015 0.2842795
v -0.7268000 0.9333325 0.2050298
v -0.7268000 0.9333325 0.2050298
v -0.7268000 0.9413395 0.2699326
v -0.7268000 0.9476795 0.2239678
v -0.7245091 0.4047574 -0.1713644
v -0.7245091 0.4047574 0.1028053
v -0.7234792 0.4002943 -0.2562409
v -0.7234792 0.4002943 0.1876818
v -0.7139000 0.2005939 -0.2653795
v -0.7139000 0.2005939 -0.2653795
v -0.7139000 0.2005939 0.1968205
v -0.7139000 0.2005939 0.1968205
v -0.7139000 0.2194939 -0.2842795
v -0.7139000 0.2194939 -0.2842795
v -0.7139000 0.2194939 -0.2842795
v -0.7139000 0.2194939 0.2157205
v -0.7139000 0.2194939 0.2157205
v -0.7139000 0.2194939 0.2157205
v -0.7139000 0.2916939 -0.2842795
v -0.7139000 0.2916939 -0.2842795
v -0.7139000 0.2916939 -0.2842795
v -0.7139000 0.2916939 0.2157205
v -0.7139000 0.2916939 0.2157205
v -0.7139000 0.2916939 0.2157205
v -0.7139000 0.3105939 -0.2653795
v -0.7139000 0.3105939 -0.2653795
v -0.7139000 0.3105939 0.1968205
v -0.7139000 0.3105939 0.1968205
v -0.7100000 0.3601507 0.1897686
v -0.7100000 0.3601507 0.1897686
v -0.7100000 0.3601507 0.1897686
v -0.7100000 0.3664907 0.1438038
v -0.7100000 0.3664907 0.1438038
v -0.7100000 0.9246971 0.2676371
v -0.7100000 0.9246971 0.2676371
v -0.7100000 0.9246971 0.2676371
v -0.7100000 0.9310370 0.2216723
v -0.7100000 0.9310370 0.2216723
v -0.7100000 0.9310370 0.2216723
v -0.7068999 0.4078339 -0.1891884
v -0.7068999 0.4078339 -0.1891884
v -0.7068999 0.4078339 0.1206294
v -0.7068999 0.4078339 0.1206294
v -0.7063026 0.4052453 -0.2384168
v -0.7063026 0.4052453 -0.2384168
v -0.7063026 0.4052453 0.1698577
v -0.7063026 0.4052453 0.1698577
v -0.7036974 0.0159425 -0.1685423
v -0.7036974 0.0159425 -0.1685423
v -0.7036974 0.0159425 0.0999832
v -0.7036974 0.0159425 0.0999832
v -0.7031001 0.0133539 -0.2177706
v -0.7031001 0.0133539 -0.2177706
v -0.7031001 0.0133539 0.1492116
v -0.7031001 0.0133539 0.1492116
v -0.6950000 0.2194939 -0.2653795
v -0.6950000 0.2194939 0.1968205
v -0.6950000 0.2916939 -0.2653795
v -0.6950000 0.2916939 0.1968205
v -0.6865208 0.0208935 -0.1507182
v -0.6865208 0.0208935 0.0821591
v -0.6854909 0.0164303 -0.2355947
v -0.6854909 0.0164303 0.1670356
v -0.6822966 0.0025886 -0.1675804
v -0.6822966 0.0025886 -0.1675804
v -0.6822966 0.0025886 -0.1675804
v -0.6822966 0.0025886 0.0990213
v -0.6822966 0.0025886 0.0990213
v -0.6816993 0.0000000 -0.2168087
v -0.6816993 0.0000000 -0.2168087
v -0.6816993 0.0000000 0.1482497
v -0.6816993 0.0000000 0.1482497
v -0.6816993 0.0000000 0.1482497
v -0.6384834 0.0319791 -0.1507182
v -0.6384834 0.0319791 0.0821591
v -0.6374534 0.0275159 -0.2355947
v -0.6374534 0.0275159 0.1670356
v -0.6342592 0.0136742 -0.1675804
v -0.6342592 0.0136742 -0.1675804
v -0.6342592 0.0136742 0.0990213
v -0.6342592 0.0136742 0.0990213
v -0.6342592 0.0136742 0.0990213
v -0.6336618 0.0110856 -0.2168087
v -0.6336618 0.0110856 -0.2168087
v -0.6336618 0.0110856 -0.2168087
v -0.6336618 0.0110856 0.1482497
v -0.6336618 0.0110856 0.1482497
v -0.6208742 0.0350556 -0.1685423
v -0.6208742 0.0350556 -0.1685423
v -0.6208742 0.0350556 0.0999832
v -0.6208742 0.0350556 0.0999832
v -0.6202768 0.0324669 -0.2177706
v -0.6202768 0.0324669 -0.2177706
v -0.6202768 0.0324669 0.1492116
v -0.6202768 0.0324669 0.1492116
v 0.6202768 0.0324669 -0.2177706
v 0.6202768 0.0324669 -0.2177706
v 0.6202768 0.0324669 0.1492116
v 0.6202768 0.0324669 0.1492116
v 0.6208742 0.0350556 -0.1685423
v 0.6208742 0.0350556 -0.1685423
v 0.6208742 0.0350556 0.0999832
v 0.6208742 0.0350556 0.0999832
v 0.6336618 0.0110856 -0.2168087
v 0.6336618 0.0110856 -0.2168087
v 0.6336618 0.0110856 0.1482497
v 0.6336618 0.0110856 0.1482497
v 0.6336618 0.0110856 0.1482497
v 0.6342592 0.0136742 -0.1675804
v 0.6342592 0.0136742 -0.1675804
v 0.6342592 0.0136742 -0.1675804
v 0.6342592 0.0136742 0.0990213
v 0.6342592 0.0136742 0.0990213
v 0.6374534 0.0275159 -0.2355947
v 0.6374534 0.0275159 0.1670356
v 0.6384834 0.0319791 -0.1507182
v 0.6384834 0.0319791 0.0821591
v 0.6816993 0.0000000 -0.2168087
v 0.6816993 0.0000000 -0.2168087
v 0.6816993 0.0000000 -0.2168087
v 0.6816993 0.0000000 0.1482497
v 0.6816993 0.0000000 0.1482497
v 0.6822966 0.0025886 -0.1675804
v 0.6822966 0.0025886 -0.1675804
v 0.6822966 0.0025886 0.0990213
v 0.6822966 0.0025886 0.0990213
v 0.6822966 0.0025886 0.0990213
v 0.6854909 0.0164303 -0.2355947
v 0.6854909 0.0164303 0.1670356
v 0.6865208 0.0208935 -0.1507182
v 0.6865208 0.0208935 0.0821591
v 0.6950000 0.2194939 -0.2653795
v 0.6950000 0.2194939 0.1968205
v 0.6950000 0.2916939 -0.2653795
v 0.6950000 0.2916939 0.1968205
v 0.7031001 0.0133539 -0.2177706
v 0.7031001 0.0133539 -0.2177706
v 0.7031001 0.0133539 0.1492116
v 0.7031001 0.0133539 0.1492116
v 0.7036974 0.0159425 -0.1685423
v 0.7036974 0.0159425 -0.1685423
v 0.7036974 0.0159425 0.0999832
v 0.7036974 0.0159425 0.0999832
v 0.7063026 0.4052453 -0.2384168
v 0.7063026 0.4052453 -0.2384168
v 0.7063026 0.4052453 0.1698577
v 0.7063026 0.4052453 0.1698577
v 0.7068999 0.4078339 -0.1891884
v 0.7068999 0.4078339 -0.1891884
v 0.7068999 0.4078339 0.1206294
v 0.7068999 0.4078339 0.1206294
v 0.7100000 0.3601507 0.1897686
v 0.7100000 0.3601507 0.1897686
v 0.7100000 0.3601507 0.1897686
v 0.7100000 0.3664907 0.1438038
v 0.7100000 0.3664907 0.1438038
v 0.7100000 0.9246971 0.2676371
v 0.7100000 0.9246971 0.2676371
v 0.7100000 0.9246971 0.2676371
v 0.7100000 0.9310370 0.2216723
v 0.7100000 0.9310370 0.2216723
v 0.7100000 0.9310370 0.2216723
v 0.7139000 0.2005939 -0.2653795
v 0.7139000 0.2005939 -0.2653795
v 0.7139000 0.2005939 0.1968205
v 0.7139000 0.2005939 0.1968205
v 0.7139000 0.2194939 -0.2842795
v 0.7139000 0.2194939 -0.2842795
v 0.7139000 0.2194939 0.2157205
v 0.7139000 0.2194939 0.2157205
v 0.7139000 0.2916939 -0.2842795
v 0.7139000 0.2916939 -0.2842795
v 0.7139000 0.2916939 -0.2842795
v 0.7139000 0.2916939 0.2157205
v 0.7139000 0.2916939 0.2157205
v 0.7139000 0.2916939 0.2157205
v 0.7139000 0.3105939 -0.2653795
v 0.7139000 0.3105939 -0.2653795
v 0.7139000 0.3105939 0.1968205
v 0.7139000 0.3105939 0.1968205
v 0.7234792 0.4002943 -0.2562409
v 0.7234792 0.4002943 0.1876818
v 0.7245091 0.4047574 -0.1713644
v 0.7245091 0.4047574 0.1028053
v 0.7268000 0.3435083 0.1874731
v 0.7268000 0.3498483 0.1415083
v 0.7268000 0.3578552 0.2064111
v 0.7268000 0.3578552 0.2064111
v 0.7268000 0.3687862 0.1271614
v 0.7268000 0.3687862 0.1271614
v 0.7268000 0.9224015 0.2842795
v 0.7268000 0.9224015 0.2842795
v 0.7268000 0.9333325 0.2050298
v 0.7268000 0.9333325 0.2050298
v 0.7268000 0.9413395 0.2699326
v 0.7268000 0.9476795 0.2239678
v 0.7277034 0.4185991 -0.2393787
v 0.7277034 0.4185991 -0.2393787
v 0.7277034 0.4185991 0.1708196
v 0.7277034 0.4185991 0.1708196
v 0.7277034 0.4185991 0.1708196
v 0.7283007 0.4211878 -0.1901503
v 0.7283007 0.4211878 -0.1901503
v 0.7283007 0.4211878 -0.1901503
v 0.7283007 0.4211878 0.1215913
v 0.7283007 0.4211878 0.1215913
v 0.7432500 0.1180939 -0.0560295
v 0.7432500 0.1180939 -0.0125295
v 0.7432500 0.1338439 -0.0717795
v 0.7432500 0.1338439 -0.0717795
v 0.7432500 0.1338439 0.0032205
v 0.7432500 0.1338439 0.0032205
v 0.7432500 0.1773439 -0.0717795
v 0.7432500 0.1773439 -0.0717795
v 0.7432500 0.1773439 0.0032205
v 0.7432500 0.1773439 0.0032205
v 0.7432500 0.1930939 -0.0560295
v 0.7432500 0.1930939 -0.0125295
v 0.7590000 0.1338439 -0.0560295
v 0.7590000 0.1338439 -0.0560295
v 0.7590000 0.1338439 -0.0125295
v 0.7590000 0.1338439 -0.0125295
v 0.7590000 0.1338439 -0.0125295
v 0.7590000 0.1773439 -0.0560295
v 0.7590000 0.1773439 -0.0560295
v 0.7590000 0.1773439 -0.0560295
v 0.7590000 0.1773439 -0.0125295
v 0.7590000 0.1773439 -0.0125295
v 0.7661000 0.2005939 -0.2653795
v 0.7661000 0.2005939 -0.2653795
v 0.7661000 0.2005939 0.1968205
v 0.7661000 0.2005939 0.1968205
v 0.7661000 0.2194939 -0.2842795
v 0.7661000 0.2194939 -0.2842795
v 0.7661000 0.2194939 -0.2842795
v 0.7661000 0.2194939 0.2157205
v 0.7661000 0.2194939 0.2157205
v 0.7661000 0.2194939 0.2157205
v 0.7661000 0.2916939 -0.2842795
v 0.7661000 0.2916939 -0.2842795
v 0.7661000 0.2916939 -0.2842795
v 0.7661000 0.2916939 0.2157205
v 0.7661000 0.2916939 0.2157205
v 0.7661000 0.2916939 0.2157205
v 0.7661000 0.3105939 -0.2653795
v 0.7661000 0.3105939 -0.2653795
v 0.7661000 0.3105939 0.1968205
v 0.7661000 0.3105939 0.1968205
v 0.7715166 0.3892087 -0.2562409
v 0.7715166 0.3892087 0.1876818
v 0.7725466 0.3936718 -0.1713644
v 0.7725466 0.3936718 0.1028053
v 0.7732000 0.3435083 0.1874731
v 0.7732000 0.3498483 0.1415083
v 0.7732000 0.3578552 0.2064111
v 0.7732000 0.3578552 0.2064111
v 0.7732000 0.3687862 0.1271614
v 0.7732000 0.3687862 0.1271614
v 0.7732000 0.9224015 0.2842795
v 0.7732000 0.9224015 0.2842795
v 0.7732000 0.9333325 0.2050298
v 0.7732000 0.9333325 0.2050298
v 0.7732000 0.9413395 0.2699326
v 0.7732000 0.9476795 0.2239678
v 0.7757408 0.4075136 -0.2393787
v 0.7757408 0.4075136 -0.2393787
v 0.7757408 0.4075136 -0.2393787
v 0.7757408 0.4075136 0.1708196
v 0.7757408 0.4075136 0.1708196
v 0.7763382 0.4101022 -0.1901503
v 0.7763382 0.4101022 -0.1901503
v 0.7763382 0.4101022 0.1215913
v 0.7763382 0.4101022 0.1215913
v 0.7763382 0.4101022 0.1215913
v 0.7850000 0.2194939 -0.2653795
v 0.7850000 0.2194939 0.1968205
v 0.7850000 0.2916939 -0.2653795
v 0.7850000 0.2916939 0.1968205
v 0.7891258 0.3861322 -0.2384168
v 0.7891258 0.3861322 -0.2384168
v 0.7891258 0.3861322 0.1698577
v 0.7891258 0.3861322 0.1698577
v 0.7897232 0.3887208 -0.1891884
v 0.7897232 0.3887208 -0.1891884
v 0.7897232 0.3887208 0.1206294
v 0.7897232 0.3887208 0.1206294
v 0.7900000 0.3601507 0.1897686
v 0.7900000 0.3601507 0.1897686
v 0.7900000 0.3601507 0.1897686
v 0.7900000 0.3664907 0.1438038
v 0.7900000 0.3664907 0.1438038
v 0.7900000 0.9246971 0.2676371
v 0.7900000 0.9246971 0.2676371
v 0.7900000 0.9246971 0.2676371
v 0.7900000 0.9310370 0.2216723
v 0.7900000 0.9310370 0.2216723
v 0.7900000 0.9310370 0.2216723
v 0.8863500 0.4030939 -0.2581295
v 0.8863500 0.4030939 -0.1804295
v 0.8863500 0.4030939 -0.1347962
v 0.8863500 0.4030939 -0.0570962
v 0.8863500 0.4030939 -0.0114629
v 0.8863500 0.4030939 0.0662371
v 0.8863500 0.4030939 0.1118705
v 0.8863500 0.4030939 0.1895705
v 0.8863500 0.4167439 -0.2717795
v 0.8863500 0.4167439 -0.2717795
v 0.8863500 0.4167439 -0.1667795
v 0.8863500 0.4167439 -0.1667795
v 0.8863500 0.4167439 -0.1484462
v 0.8863500 0.4167439 -0.1484462
v 0.8863500 0.4167439 -0.0434462
v 0.8863500 0.4167439 -0.0434462
v 0.8863500 0.4167439 -0.0251129
v 0.8863500 0.4167439 -0.0251129
v 0.8863500 0.4167439 0.0798871
v 0.8863500 0.4167439 0.0798871
v 0.8863500 0.4167439 0.0982205
v 0.8863500 0.4167439 0.0982205
v 0.8863500 0.4167439 0.2032205
v 0.8863500 0.4167439 0.2032205
v 0.8863500 0.4544439 -0.2717795
v 0.8863500 0.4544439 -0.2717795
v 0.8863500 0.4544439 -0.1667795
v 0.8863500 0.4544439 -0.1667795
v 0.8863500 0.4544439 -0.1484462
v 0.8863500 0.4544439 -0.1484462
v 0.8863500 0.4544439 -0.0434462
v 0.8863500 0.4544439 -0.0434462
v 0.8863500 0.4544439 -0.0251129
v 0.8863500 0.4544439 -0.0251129
v 0.8863500 0.4544439 0.0798871
v 0.8863500 0.4544439 0.0798871
v 0.8863500 0.4544439 0.0982205
v 0.8863500 0.4544439 0.0982205
v 0.8863500 0.4544439 0.2032205
v 0.8863500 0.4544439 0.2032205
v 0.8863500 0.4680939 -0.2581295
v 0.8863500 0.4680939 -0.1804295
v 0.8863500 0.4680939 -0.1347962
v 0.8863500 0.4680939 -0.0570962
v 0.8863500 0.4680939 -0.0114629
v 0.8863500 0.4680939 0.0662371
v 0.8863500 0.4680939 0.1118705
v 0.8863500 0.4680939 0.1895705
v 0.9000000 0.4167439 -0.2581295
v 0.9000000 0.4167439 -0.2581295
v 0.9000000 0.4167439 -0.1804295
v 0.9000000 0.4167439 -0.1804295
v 0.9000000 0.4167439 -0.1804295
v 0.9000000 0.4167439 -0.1347962
v 0.9000000 0.4167439 -0.1347962
v 0.9000000 0.4167439 -0.0570962
v 0.9000000 0.4167439 -0.0570962
v 0.9000000 0.4167439 -0.0570962
v 0.9000000 0.4167439 -0.0114629
v 0.9000000 0.4167439 -0.0114629
v 0.9000000 0.4167439 0.0662371
v 0.9000000 0.4167439 0.0662371
v 0.9000000 0.4167439 0.0662371
v 0.9000000 0.4167439 0.1118705
v 0.9000000 0.4167439 0.1118705
v 0.9000000 0.4167439 0.1895705
v 0.9000000 0.4167439 0.1895705
v 0.9000000 0.4167439 0.1895705
v 0.9000000 0.4544439 -0.2581295
v 0.9000000 0.4544439 -0.2581295
v 0.9000000 0.4544439 -0.2581295
v 0.9000000 0.4544439 -0.1804295
v 0.9000000 0.4544439 -0.1804295
v 0.9000000 0.4544439 -0.1804295
v 0.9000000 0.4544439 -0.1347962
v 0.9000000 0.4544439 -0.1347962
v 0.9000000 0.4544439 -0.1347962
v 0.9000000 0.4544439 -0.0570962
v 0.9000000 0.4544439 -0.0570962
v 0.9000000 0.4544439 -0.0570962
v 0.9000000 0.4544439 -0.0114629
v 0.9000000 0.4544439 -0.0114629
v 0.9000000 0.4544439 -0.0114629
v 0.9000000 0.4544439 0.0662371
v 0.9000000 0.4544439 0.0662371
v 0.9000000 0.4544439 0.0662371
v 0.9000000 0.4544439 0.1118705
v 0.9000000 0.4544439 0.1118705
v 0.9000000 0.4544439 0.1118705
v 0.9000000 0.4544439 0.1895705
v 0.9000000 0.4544439 0.1895705
v 0.9000000 0.4544439 0.1895705
v 0.9113500 0.6005939 0.1968705
v 0.9113500 0.6005939 0.2345705
v 0.9113500 0.6142439 0.1832205
v 0.9113500 0.6142439 0.1832205
v 0.9113500 0.6142439 0.2482205
v 0.9113500 0.6142439 0.2482205
v 0.9113500 0.7169439 0.1832205
v 0.9113500 0.7169439 0.1832205
v 0.9113500 0.7169439 0.2482205
v 0.9113500 0.7169439 0.2482205
v 0.9113500 0.7305939 0.1968705
v 0.9113500 0.7305939 0.2345705
v 0.9113500 0.7705939 0.2138705
v 0.9113500 0.7705939 0.2515705
v 0.9113500 0.7842439 0.2002205
v 0.9113500 0.7842439 0.2002205
v 0.9113500 0.7842439 0.2652205
v 0.9113500 0.7842439 0.2652205
v 0.9113500 0.8869439 0.2002205
v 0.9113500 0.8869439 0.2002205
v 0.9113500 0.8869439 0.2652205
v 0.9113500 0.8869439 0.2652205
v 0.9113500 0.9005939 0.2138705
v 0.9113500 0.9005939 0.2515705
v 0.9250000 0.6142439 0.1968705
v 0.9250000 0.6142439 0.1968705
v 0.9250000 0.6142439 0.2345705
v 0.9250000 0.6142439 0.2345705
v 0.9250000 0.6142439 0.2345705
v 0.9250000 0.7169439 0.1968705
v 0.9250000 0.7169439 0.1968705
v 0.9250000 0.7169439 0.1968705
v 0.9250000 0.7169439 0.2345705
v 0.9250000 0.7169439 0.2345705
v 0.9250000 0.7169439 0.2345705
v 0.9250000 0.7842439 0.2138705
v 0.9250000 0.7842439 0.2138705
v 0.9250000 0.7842439 0.2515705
v 0.9250000 0.7842439 0.2515705
v 0.9250000 0.7842439 0.2515705
v 0.9250000 0.8869439 0.2138705
v 0.9250000 0.8869439 0.2138705
v 0.9250000 0.8869439 0.2138705
v 0.9250000 0.8869439 0.2515705
v 0.9250000 0.8869439 0.2515705
v 0.9250000 0.8869439 0.2515705
vt 0.1213238 0.0485862
vt 0.1213238 0.0526009
vt 0.1213238 0.0485862
vt 0.1751809 0.0485862
vt 0.1751809 0.0526009
vt 0.1213238 0.0485862
vt 0.1213238 0.0828067
vt 0.2680381 0.0485862
vt 0.1751809 0.0485862
vt 0.1751809 0.0828067
vt 0.2680381 0.0485862
vt 0.1409005 0.0459288
vt 0.1409005 0.0499435
vt 0.1409005 0.0459288
vt 0.1947577 0.0459288
vt 0.1947577 0.0499435
vt 0.1409005 0.0459288
vt 0.1409005 0.0801494
vt 0.2876148 0.0459288
vt 0.1947577 0.0459288
vt 0.1947577 0.0801494
vt 0.2876148 0.0459288
vt 0.1213238 0.0526009
vt 0.1751809 0.0526009
vt 0.1018238 0.0526009
vt 0.1213238 0.0526009
vt 0.1213238 0.0526009
vt 0.1946809 0.0526009
vt 0.1018238 0.0526009
vt 0.2680381 0.0526009
vt 0.1946809 0.0526009
vt 0.2680381 0.0526009
vt 0.1213238 0.0526009
vt 0.1751809 0.0526009
vt 0.1409005 0.0499435
vt 0.1947577 0.0499435
vt 0.1214005 0.0499435
vt 0.1409005 0.0499435
vt 0.1409005 0.0499435
vt 0.2142577 0.0499435
vt 0.1214005 0.0499435
vt 0.2876148 0.0499435
vt 0.2142577 0.0499435
vt 0.2876148 0.0499435
vt 0.1409005 0.0499435
vt 0.1947577 0.0499435
vt 0.0590001 0.1247614
vt 0.0590001 0.1287761
vt 0.0590001 0.1247614
vt 0.0590001 0.1516291
vt 0.1700001 0.1247614
vt 0.0435056 0.0455811
vt 0.0435056 0.0495958
vt 0.0435056 0.0455811
vt 0.0435056 0.0724487
vt 0.1545056 0.0455811
vt 0.0612458 0.0482755
vt 0.0612458 0.0522902
vt 0.0612458 0.0482755
vt 0.0612458 0.0751431
vt 0.1722458 0.0482755
vt 0.1368450 0.0741412
vt 0.1368450 0.0781559
vt 0.1368450 0.0741412
vt 0.1368450 0.1010089
vt 0.2478450 0.0741412
vt 0.0590001 0.1247614
vt 0.1128573 0.1247614
vt 0.1128573 0.1287761
vt 0.1128573 0.1247614
vt 0.1128573 0.1516291
vt 0.1700001 0.1247614
vt 0.0435056 0.0455811
vt 0.0973627 0.0455811
vt 0.0973627 0.0495958
vt 0.0973627 0.0455811
vt 0.0973627 0.0724487
vt 0.1545056 0.0455811
vt 0.0612458 0.0482755
vt 0.1151030 0.0482755
vt 0.1151030 0.0522902
vt 0.1151030 0.0482755
vt 0.1151030 0.0751431
vt 0.1722458 0.0482755
vt 0.1368450 0.0741412
vt 0.1907022 0.0741412
vt 0.1907022 0.0781559
vt 0.1907022 0.0741412
vt 0.1907022 0.1010089
vt 0.2478450 0.0741412
vt 0.0590001 0.1287761
vt 0.1700001 0.1287761
vt 0.0435056 0.0495958
vt 0.1545056 0.0495958
vt 0.0612458 0.0522902
vt 0.1722458 0.0522902
vt 0.1368450 0.0781559
vt 0.2478450 0.0781559
vt 0.0395001 0.1287761
vt 0.0590001 0.1287761
vt 0.0590001 0.1287761
vt 0.1895001 0.1287761
vt 0.0240056 0.0495958
vt 0.0435056 0.0495958
vt 0.0435056 0.0495958
vt 0.1740056 0.0495958
vt 0.0417458 0.0522902
vt 0.0612458 0.0522902
vt 0.0612458 0.0522902
vt 0.1917458 0.0522902
vt 0.1173450 0.0781559
vt 0.1368450 0.0781559
vt 0.1368450 0.0781559
vt 0.2673450 0.0781559
vt 0.0395001 0.1287761
vt 0.1128573 0.1287761
vt 0.1128573 0.1287761
vt 0.1895001 0.1287761
vt 0.0240056 0.0495958
vt 0.0973627 0.0495958
vt 0.0973627 0.0495958
vt 0.1740056 0.0495958
vt 0.0417458 0.0522902
vt 0.1151030 0.0522902
vt 0.1151030 0.0522902
vt 0.1917458 0.0522902
vt 0.1173450 0.0781559
vt 0.1907022 0.0781559
vt 0.1907022 0.0781559
vt 0.2673450 0.0781559
vt 0.0590001 0.1287761
vt 0.1700001 0.1287761
vt 0.0435056 0.0495958
vt 0.1545056 0.0495958
vt 0.0612458 0.0522902
vt 0.1722458 0.0522902
vt 0.1368450 0.0781559
vt 0.2478450 0.0781559
vt 0.0325450 0.0609434
vt 0.0325450 0.0745905
vt 0.1228307 0.0609434
vt 0.0325450 0.0609434
vt 0.0565450 0.0609434
vt 0.0325450 0.0745905
vt 0.0325450 0.2285585
vt 0.1228307 0.2285585
vt 0.0325450 0.0609434
vt 0.0325450 0.2285585
vt 0.0565450 0.2285585
vt 0.0326023 0.1968068
vt 0.1285309 0.1968068
vt 0.1004767 0.1678917
vt 0.1259767 0.1678917
vt 0.0326023 0.1968068
vt 0.0581023 0.1968068
vt 0.1004767 0.1678917
vt 0.1964053 0.1678917
vt 0.1388839 0.0548221
vt 0.1388839 0.1907632
vt 0.2420267 0.0548221
vt 0.2420267 0.1907632
vt 0.0581023 0.0986208
vt 0.0581023 0.2020568
vt 0.1285309 0.2020568
vt 0.1259767 0.0552058
vt 0.1259767 0.1731417
vt 0.0581023 0.0841208
vt 0.0581023 0.2020568
vt 0.1259767 0.0697058
vt 0.1259767 0.1731417
vt 0.1964053 0.1731417
vt 0.0565450 0.0745905
vt 0.0565450 0.0609434
vt 0.0565450 0.0609434
vt 0.0565450 0.0795317
vt 0.0565450 0.0560023
vt 0.0565450 0.0609434
vt 0.0565450 0.0795317
vt 0.0565450 0.2285585
vt 0.0565450 0.0560023
vt 0.0565450 0.2285585
vt 0.0565450 0.0745905
vt 0.0565450 0.0609434
vt 0.0581023 0.1968068
vt 0.1259767 0.1678917
vt 0.0581023 0.1968068
vt 0.1259767 0.1678917
vt 0.1118839 0.0548221
vt 0.1388839 0.0548221
vt 0.1118839 0.1907632
vt 0.1388839 0.1907632
vt 0.1388839 0.0492632
vt 0.1388839 0.0548221
vt 0.1388839 0.0548221
vt 0.1388839 0.1963221
vt 0.1388839 0.0492632
vt 0.1388839 0.0760574
vt 0.2420267 0.0492632
vt 0.1388839 0.0760574
vt 0.1388839 0.1963221
vt 0.2420267 0.1963221
vt 0.1388839 0.0548221
vt 0.2690267 0.0548221
vt 0.1388839 0.1907632
vt 0.2690267 0.1907632
vt 0.0926024 0.1117814
vt 0.0926024 0.1164138
vt 0.0926024 0.1117814
vt 0.1547453 0.1117814
vt 0.1547453 0.1164138
vt 0.0926024 0.1117814
vt 0.0926024 0.1292079
vt 0.1547453 0.1117814
vt 0.1547453 0.1117814
vt 0.1547453 0.1292079
vt 0.0926024 0.1164138
vt 0.1547453 0.1164138
vt 0.0701024 0.1164138
vt 0.0926024 0.1164138
vt 0.0926024 0.1164138
vt 0.1772453 0.1164138
vt 0.0701024 0.1164138
vt 0.1547453 0.1164138
vt 0.1547453 0.1164138
vt 0.1772453 0.1164138
vt 0.0926024 0.1164138
vt 0.1547453 0.1164138
vt 0.1285309 0.0986208
vt 0.1285309 0.2020568
vt 0.1259767 0.1731417
vt 0.1964053 0.0552058
vt 0.1964053 0.1731417
vt 0.0581023 0.2020568
vt 0.1285309 0.0841208
vt 0.1285309 0.2020568
vt 0.1964053 0.0697058
vt 0.1964053 0.1731417
vt 0.1228307 0.0745905
vt 0.1228307 0.0609434
vt 0.1228307 0.0609434
vt 0.1228307 0.0795317
vt 0.1228307 0.0560023
vt 0.1228307 0.0609434
vt 0.1228307 0.0795317
vt 0.1228307 0.2285585
vt 0.1228307 0.0560023
vt 0.1228307 0.2285585
vt 0.1228307 0.0745905
vt 0.1228307 0.0609434
vt 0.1285309 0.1968068
vt 0.1964053 0.1678917
vt 0.1285309 0.1968068
vt 0.1964053 0.1678917
vt 0.1118839 0.0548221
vt 0.2134553 0.0548221
vt 0.1118839 0.1907632
vt 0.2134553 0.1907632
vt 0.1388839 0.0492632
vt 0.2134553 0.0492632
vt 0.2134553 0.0548221
vt 0.1388839 0.1963221
vt 0.2134553 0.0548221
vt 0.2134553 0.1963221
vt 0.2134553 0.0492632
vt 0.2134553 0.0760574
vt 0.2420267 0.0492632
vt 0.2134553 0.0760574
vt 0.2134553 0.1963221
vt 0.2420267 0.1963221
vt 0.2134553 0.0548221
vt 0.2690267 0.0548221
vt 0.2134553 0.1907632
vt 0.2690267 0.1907632
vt 0.1228307 0.0609434
vt 0.1468307 0.0609434
vt 0.1468307 0.0745905
vt 0.0565450 0.0609434
vt 0.1468307 0.0609434
vt 0.1228307 0.2285585
vt 0.1468307 0.0745905
vt 0.1468307 0.2285585
vt 0.0565450 0.2285585
vt 0.1468307 0.0609434
vt 0.1468307 0.2285585
vt 0.1285309 0.1968068
vt 0.1540309 0.1968068
vt 0.1259767 0.1678917
vt 0.2219053 0.1678917
vt 0.0581023 0.1968068
vt 0.1540309 0.1968068
vt 0.1964053 0.1678917
vt 0.2219053 0.1678917
vt 0.0326023 0.0841208
vt 0.1285309 0.0841208
vt 0.1004767 0.0552058
vt 0.1259767 0.0552058
vt 0.0326023 0.0841208
vt 0.0581023 0.0841208
vt 0.1004767 0.0552058
vt 0.1964053 0.0552058
vt 0.1388839 0.0548221
vt 0.1388839 0.1907632
vt 0.2420267 0.0548221
vt 0.2420267 0.1907632
vt 0.0581023 0.0841208
vt 0.1259767 0.0552058
vt 0.0581023 0.0841208
vt 0.1259767 0.0552058
vt 0.0581023 0.0788708
vt 0.0581023 0.0986208
vt 0.1285309 0.0788708
vt 0.1259767 0.0499558
vt 0.1259767 0.0552058
vt 0.0581023 0.0788708
vt 0.0581023 0.0841208
vt 0.1259767 0.0499558
vt 0.1259767 0.0697058
vt 0.1964053 0.0499558
vt 0.1285309 0.0841208
vt 0.1964053 0.0552058
vt 0.1285309 0.0841208
vt 0.1964053 0.0552058
vt 0.1285309 0.0788708
vt 0.1285309 0.0986208
vt 0.1259767 0.0499558
vt 0.1964053 0.0499558
vt 0.1964053 0.0552058
vt 0.0581023 0.0788708
vt 0.1285309 0.0788708
vt 0.1285309 0.0841208
vt 0.1964053 0.0499558
vt 0.1964053 0.0697058
vt 0.1285309 0.0841208
vt 0.1540309 0.0841208
vt 0.1259767 0.0552058
vt 0.2219053 0.0552058
vt 0.0581023 0.0841208
vt 0.1540309 0.0841208
vt 0.1964053 0.0552058
vt 0.2219053 0.0552058
vt 0.0700857 0.1288830
vt 0.0955857 0.1288830
vt 0.1178122 0.0961296
vt 0.2137407 0.0961296
vt 0.0700857 0.1288830
vt 0.1660143 0.1288830
vt 0.1178122 0.0961296
vt 0.1433122 0.0961296
vt 0.0955857 0.1236330
vt 0.0955857 0.1288830
vt 0.1433122 0.0908796
vt 0.1433122 0.1106296
vt 0.2137407 0.0908796
vt 0.0955857 0.1236330
vt 0.0955857 0.1433830
vt 0.1660143 0.1236330
vt 0.1433122 0.0908796
vt 0.1433122 0.0961296
vt 0.0955857 0.1288830
vt 0.1433122 0.0961296
vt 0.0955857 0.1288830
vt 0.1433122 0.0961296
vt 0.0955857 0.1236330
vt 0.1660143 0.1236330
vt 0.1660143 0.1288830
vt 0.2137407 0.0908796
vt 0.2137407 0.1106296
vt 0.1660143 0.1236330
vt 0.1660143 0.1433830
vt 0.1433122 0.0908796
vt 0.2137407 0.0908796
vt 0.2137407 0.0961296
vt 0.1660143 0.1288830
vt 0.2137407 0.0961296
vt 0.1660143 0.1288830
vt 0.2137407 0.0961296
vt 0.0889881 0.1182306
vt 0.0889881 0.2541718
vt 0.1921310 0.1182306
vt 0.1921310 0.2541718
vt 0.0955857 0.1288830
vt 0.1915143 0.1288830
vt 0.2137407 0.0961296
vt 0.2392407 0.0961296
vt 0.1660143 0.1288830
vt 0.1915143 0.1288830
vt 0.1433122 0.0961296
vt 0.2392407 0.0961296
vt 0.0700857 0.2415689
vt 0.0955857 0.2415689
vt 0.1178122 0.2088155
vt 0.2137407 0.2088155
vt 0.0700857 0.2415689
vt 0.1660143 0.2415689
vt 0.1178122 0.2088155
vt 0.1433122 0.2088155
vt 0.1127321 0.0880248
vt 0.1127321 0.1016718
vt 0.2030179 0.0880248
vt 0.1127321 0.0880248
vt 0.1367321 0.0880248
vt 0.1127321 0.1016718
vt 0.1127321 0.2556398
vt 0.2030179 0.2556398
vt 0.1127321 0.0880248
vt 0.1127321 0.2556398
vt 0.1367321 0.2556398
vt 0.0619881 0.1182306
vt 0.0889881 0.1182306
vt 0.0619881 0.2541718
vt 0.0889881 0.2541718
vt 0.0889881 0.1126718
vt 0.0889881 0.1182306
vt 0.0889881 0.1182306
vt 0.0889881 0.2597306
vt 0.0889881 0.1126718
vt 0.0889881 0.1394659
vt 0.1921310 0.1126718
vt 0.0889881 0.1394659
vt 0.0889881 0.2597306
vt 0.1921310 0.2597306
vt 0.0889881 0.1182306
vt 0.2191310 0.1182306
vt 0.0889881 0.2541718
vt 0.2191310 0.2541718
vt 0.0955857 0.2415689
vt 0.1433122 0.2088155
vt 0.0955857 0.2415689
vt 0.1433122 0.2088155
vt 0.1367321 0.1016718
vt 0.1367321 0.0880248
vt 0.1367321 0.0880248
vt 0.1367321 0.1066130
vt 0.1367321 0.0830836
vt 0.1367321 0.0880248
vt 0.1367321 0.1066130
vt 0.1367321 0.2556398
vt 0.1367321 0.0830836
vt 0.1367321 0.2556398
vt 0.1367321 0.1016718
vt 0.1367321 0.0880248
vt 0.0955857 0.1288830
vt 0.0955857 0.2468189
vt 0.1433122 0.1106296
vt 0.1433122 0.2140655
vt 0.2137407 0.2140655
vt 0.0955857 0.1433830
vt 0.0955857 0.2468189
vt 0.1660143 0.2468189
vt 0.1433122 0.0961296
vt 0.1433122 0.2140655
vt 0.0926024 0.5536196
vt 0.1547453 0.5536196
vt 0.0701024 0.5536196
vt 0.0926024 0.5536196
vt 0.0926024 0.5536196
vt 0.1772453 0.5536196
vt 0.0701024 0.5536196
vt 0.1547453 0.5536196
vt 0.1547453 0.5536196
vt 0.1772453 0.5536196
vt 0.0926024 0.5536196
vt 0.1547453 0.5536196
vt 0.0926024 0.1164138
vt 0.0926024 0.5582520
vt 0.0926024 0.5582520
vt 0.1547453 0.1164138
vt 0.1547453 0.5582520
vt 0.0926024 0.1292079
vt 0.0926024 0.5582520
vt 0.1547453 0.5582520
vt 0.1547453 0.1292079
vt 0.1547453 0.5582520
vt 0.0619881 0.1182306
vt 0.1635596 0.1182306
vt 0.0619881 0.2541718
vt 0.1635596 0.2541718
vt 0.0889881 0.1126718
vt 0.1635596 0.1126718
vt 0.1635596 0.1182306
vt 0.0889881 0.2597306
vt 0.1635596 0.1182306
vt 0.1635596 0.2597306
vt 0.1635596 0.1126718
vt 0.1635596 0.1394659
vt 0.1921310 0.1126718
vt 0.1635596 0.1394659
vt 0.1635596 0.2597306
vt 0.1921310 0.2597306
vt 0.1635596 0.1182306
vt 0.2191310 0.1182306
vt 0.1635596 0.2541718
vt 0.2191310 0.2541718
vt 0.1660143 0.2415689
vt 0.2137407 0.2088155
vt 0.1660143 0.2415689
vt 0.2137407 0.2088155
vt 0.2030179 0.1016718
vt 0.2030179 0.0880248
vt 0.2030179 0.0880248
vt 0.2030179 0.1066130
vt 0.2030179 0.0830836
vt 0.2030179 0.0880248
vt 0.2030179 0.1066130
vt 0.2030179 0.2556398
vt 0.2030179 0.0830836
vt 0.2030179 0.2556398
vt 0.2030179 0.1016718
vt 0.2030179 0.0880248
vt 0.0955857 0.2468189
vt 0.1660143 0.1288830
vt 0.1660143 0.2468189
vt 0.2137407 0.1106296
vt 0.2137407 0.2140655
vt 0.1660143 0.1433830
vt 0.1660143 0.2468189
vt 0.1433122 0.2140655
vt 0.2137407 0.0961296
vt 0.2137407 0.2140655
vt 0.0889881 0.1182306
vt 0.0889881 0.2541718
vt 0.1921310 0.1182306
vt 0.1921310 0.2541718
vt 0.0955857 0.2415689
vt 0.1915143 0.2415689
vt 0.2137407 0.2088155
vt 0.2392407 0.2088155
vt 0.1660143 0.2415689
vt 0.1915143 0.2415689
vt 0.1433122 0.2088155
vt 0.2392407 0.2088155
vt 0.2030179 0.0880248
vt 0.2270179 0.0880248
vt 0.2270179 0.1016718
vt 0.1367321 0.0880248
vt 0.2270179 0.0880248
vt 0.2030179 0.2556398
vt 0.2270179 0.1016718
vt 0.2270179 0.2556398
vt 0.1367321 0.2556398
vt 0.2270179 0.0880248
vt 0.2270179 0.2556398
vt 0.0590001 0.6501585
vt 0.1700001 0.6501585
vt 0.0435056 0.5709782
vt 0.1545056 0.5709782
vt 0.0612458 0.5736726
vt 0.1722458 0.5736726
vt 0.1368450 0.5995383
vt 0.2478450 0.5995383
vt 0.0395001 0.6501585
vt 0.0590001 0.6501585
vt 0.0590001 0.6501585
vt 0.1895001 0.6501585
vt 0.0240056 0.5709782
vt 0.0435056 0.5709782
vt 0.0435056 0.5709782
vt 0.1740056 0.5709782
vt 0.0417458 0.5736726
vt 0.0612458 0.5736726
vt 0.0612458 0.5736726
vt 0.1917458 0.5736726
vt 0.1173450 0.5995383
vt 0.1368450 0.5995383
vt 0.1368450 0.5995383
vt 0.2673450 0.5995383
vt 0.0395001 0.6501585
vt 0.1128573 0.6501585
vt 0.1128573 0.6501585
vt 0.1895001 0.6501585
vt 0.0240056 0.5709782
vt 0.0973627 0.5709782
vt 0.0973627 0.5709782
vt 0.1740056 0.5709782
vt 0.0417458 0.5736726
vt 0.1151030 0.5736726
vt 0.1151030 0.5736726
vt 0.1917458 0.5736726
vt 0.1173450 0.5995383
vt 0.1907022 0.5995383
vt 0.1907022 0.5995383
vt 0.2673450 0.5995383
vt 0.0590001 0.6501585
vt 0.1700001 0.6501585
vt 0.0435056 0.5709782
vt 0.1545056 0.5709782
vt 0.0612458 0.5736726
vt 0.1722458 0.5736726
vt 0.1368450 0.5995383
vt 0.2478450 0.5995383
vt 0.0590001 0.1287761
vt 0.0590001 0.6541732
vt 0.0590001 0.1516291
vt 0.0590001 0.6541732
vt 0.1700001 0.6541732
vt 0.0435056 0.0495958
vt 0.0435056 0.5749929
vt 0.0435056 0.0724487
vt 0.0435056 0.5749929
vt 0.1545056 0.5749929
vt 0.0612458 0.0522902
vt 0.0612458 0.5776873
vt 0.0612458 0.0751431
vt 0.0612458 0.5776873
vt 0.1722458 0.5776873
vt 0.1368450 0.0781559
vt 0.1368450 0.6035530
vt 0.1368450 0.1010089
vt 0.1368450 0.6035530
vt 0.2478450 0.6035530
vt 0.0590001 0.6541732
vt 0.1128573 0.1287761
vt 0.1128573 0.6541732
vt 0.1128573 0.1516291
vt 0.1128573 0.6541732
vt 0.1700001 0.6541732
vt 0.0435056 0.5749929
vt 0.0973627 0.0495958
vt 0.0973627 0.5749929
vt 0.0973627 0.0724487
vt 0.0973627 0.5749929
vt 0.1545056 0.5749929
vt 0.0612458 0.5776873
vt 0.1151030 0.0522902
vt 0.1151030 0.5776873
vt 0.1151030 0.0751431
vt 0.1151030 0.5776873
vt 0.1722458 0.5776873
vt 0.1368450 0.6035530
vt 0.1907022 0.0781559
vt 0.1907022 0.6035530
vt 0.1907022 0.1010089
vt 0.1907022 0.6035530
vt 0.2478450 0.6035530
vt 0.1213238 0.5886891
vt 0.1751809 0.5886891
vt 0.1018238 0.5886891
vt 0.1213238 0.5886891
vt 0.1213238 0.5886891
vt 0.1946809 0.5886891
vt 0.1018238 0.5886891
vt 0.2680381 0.5886891
vt 0.1946809 0.5886891
vt 0.2680381 0.5886891
vt 0.1213238 0.5886891
vt 0.1751809 0.5886891
vt 0.1409005 0.5860318
vt 0.1947577 0.5860318
vt 0.1214005 0.5860318
vt 0.1409005 0.5860318
vt 0.1409005 0.5860318
vt 0.2142577 0.5860318
vt 0.1214005 0.5860318
vt 0.2876148 0.5860318
vt 0.2142577 0.5860318
vt 0.2876148 0.5860318
vt 0.1409005 0.5860318
vt 0.1947577 0.5860318
vt 0.1213238 0.0526009
vt 0.1213238 0.5927038
vt 0.1213238 0.5927038
vt 0.1751809 0.0526009
vt 0.1751809 0.5927038
vt 0.1213238 0.0828067
vt 0.1213238 0.5927038
vt 0.2680381 0.5927038
vt 0.1751809 0.0828067
vt 0.1751809 0.5927038
vt 0.2680381 0.5927038
vt 0.1409005 0.0499435
vt 0.1409005 0.5900465
vt 0.1409005 0.5900465
vt 0.1947577 0.0499435
vt 0.1947577 0.5900465
vt 0.1409005 0.0801494
vt 0.1409005 0.5900465
vt 0.2876148 0.5900465
vt 0.1947577 0.0801494
vt 0.1947577 0.5900465
vt 0.2876148 0.5900465
vn -0.9255669 -0.1425741 -0.3507114
vn -0.9255669 -0.1425741 -0.3507114
vn -0.9646899 -0.0601142 0.2564366
vn -0.9646899 -0.0601142 0.2564366
vn -0.9646899 -0.0601142 0.2564366
vn -0.9818751 0.1151920 -0.1505064
vn -0.9818751 0.1151920 -0.1505064
vn -0.9818751 0.1151920 -0.1505064
vn -0.9602850 0.1126591 0.2552656
vn -0.9602850 0.1126591 0.2552656
vn -0.9602850 0.1126591 0.2552656
vn -0.9255669 -0.1425741 -0.3507114
vn -0.9255669 -0.1425741 -0.3507114
vn -0.9646899 -0.0601142 0.2564366
vn -0.9646899 -0.0601142 0.2564366
vn -0.9646899 -0.0601142 0.2564366
vn -0.9818751 0.1151920 -0.1505064
vn -0.9818751 0.1151920 -0.1505064
vn -0.9818751 0.1151920 -0.1505064
vn -0.9602850 0.1126591 0.2552656
vn -0.9602850 0.1126591 0.2552656
vn -0.9602850 0.1126591 0.2552656
vn -0.0042499 -0.9883743 -0.1519809
vn -0.0123938 -0.9667089 0.2555785
vn -0.0065165 -0.2049344 -0.9787540
vn -0.0065165 -0.2049344 -0.9787540
vn -0.0065165 -0.2049344 0.9787540
vn -0.0065165 -0.2049344 0.9787540
vn -0.0069527 0.1161393 -0.9932086
vn -0.0069527 0.1161393 -0.9932086
vn -0.0069527 0.1161393 0.9932086
vn -0.0069527 0.1161393 0.9932086
vn -0.0042499 0.9883743 -0.1519809
vn -0.0123938 0.9667089 0.2555785
vn -0.0042499 -0.9883743 -0.1519809
vn -0.0123938 -0.9667089 0.2555785
vn -0.0065165 -0.2049344 -0.9787540
vn -0.0065165 -0.2049344 -0.9787540
vn -0.0065165 -0.2049344 0.9787540
vn -0.0065165 -0.2049344 0.9787540
vn -0.0069527 0.1161393 -0.9932086
vn -0.0069527 0.1161393 -0.9932086
vn -0.0069527 0.1161393 0.9932086
vn -0.0069527 0.1161393 0.9932086
vn -0.0042499 0.9883743 -0.1519809
vn -0.0123938 0.9667089 0.2555785
vn -0.9232201 -0.3399855 -0.1790932
vn -0.9232201 -0.3399855 -0.1790932
vn -0.9778465 -0.1498889 0.1461150
vn -0.9778465 -0.1498889 0.1461150
vn -0.9778465 -0.1498889 0.1461150
vn -0.9232201 -0.3399855 -0.1790932
vn -0.9232201 -0.3399855 -0.1790932
vn -0.9778465 -0.1498889 0.1461150
vn -0.9778465 -0.1498889 0.1461150
vn -0.9778465 -0.1498889 0.1461150
vn -0.9232201 -0.3399855 -0.1790932
vn -0.9232201 -0.3399855 -0.1790932
vn -0.9778465 -0.1498889 0.1461150
vn -0.9778465 -0.1498889 0.1461150
vn -0.9778465 -0.1498889 0.1461150
vn -0.9232201 -0.3399855 -0.1790932
vn -0.9232201 -0.3399855 -0.1790932
vn -0.9778465 -0.1498889 0.1461150
vn -0.9778465 -0.1498889 0.1461150
vn -0.9778465 -0.1498889 0.1461150
vn -0.9635085 0.2561225 -0.0777988
vn -0.9635085 0.2561225 -0.0777988
vn -0.9635085 0.2561225 -0.0777988
vn -0.9565154 0.2542636 0.1429276
vn -0.9565154 0.2542636 0.1429276
vn -0.9565154 0.2542636 0.1429276
vn -0.9635085 0.2561225 -0.0777988
vn -0.9635085 0.2561225 -0.0777988
vn -0.9635085 0.2561225 -0.0777988
vn -0.9565154 0.2542636 0.1429276
vn -0.9565154 0.2542636 0.1429276
vn -0.9565154 0.2542636 0.1429276
vn -0.9635085 0.2561225 -0.0777988
vn -0.9635085 0.2561225 -0.0777988
vn -0.9635085 0.2561225 -0.0777988
vn -0.9565154 0.2542636 0.1429276
vn -0.9565154 0.2542636 0.1429276
vn -0.9565154 0.2542636 0.1429276
vn -0.9635085 0.2561225 -0.0777988
vn -0.9635085 0.2561225 -0.0777988
vn -0.9635085 0.2561225 -0.0777988
vn -0.9565154 0.2542636 0.1429276
vn -0.9565154 0.2542636 0.1429276
vn -0.9565154 0.2542636 0.1429276
vn -0.0041301 -0.9967247 -0.0807645
vn -0.0138958 -0.9890631 0.1468367
vn -0.0041301 -0.9967247 -0.0807645
vn -0.0138958 -0.9890631 0.1468367
vn -0.0041301 -0.9967247 -0.0807645
vn -0.0138958 -0.9890631 0.1468367
vn -0.0041301 -0.9967247 -0.0807645
vn -0.0138958 -0.9890631 0.1468367
vn -0.0055764 -0.3864955 -0.9222744
vn -0.0055764 -0.3864955 -0.9222744
vn -0.0037065 -0.2568994 0.9664310
vn -0.0037065 -0.2568994 0.9664310
vn -0.0055764 -0.3864955 -0.9222744
vn -0.0055764 -0.3864955 -0.9222744
vn -0.0037065 -0.2568994 0.9664310
vn -0.0037065 -0.2568994 0.9664310
vn -0.0055764 -0.3864955 -0.9222744
vn -0.0055764 -0.3864955 -0.9222744
vn -0.0037065 -0.2568994 0.9664310
vn -0.0037065 -0.2568994 0.9664310
vn -0.0055764 -0.3864955 -0.9222744
vn -0.0055764 -0.3864955 -0.9222744
vn -0.0037065 -0.2568994 0.9664310
vn -0.0037065 -0.2568994 0.9664310
vn -0.0064109 0.2562220 -0.9665967
vn -0.0064109 0.2562220 -0.9665967
vn -0.0127388 0.2555411 0.9667143
vn -0.0127388 0.2555411 0.9667143
vn -0.0064109 0.2562220 -0.9665967
vn -0.0064109 0.2562220 -0.9665967
vn -0.0127388 0.2555411 0.9667143
vn -0.0127388 0.2555411 0.9667143
vn -0.0064109 0.2562220 -0.9665967
vn -0.0064109 0.2562220 -0.9665967
vn -0.0127388 0.2555411 0.9667143
vn -0.0127388 0.2555411 0.9667143
vn -0.0064109 0.2562220 -0.9665967
vn -0.0064109 0.2562220 -0.9665967
vn -0.0127388 0.2555411 0.9667143
vn -0.0127388 0.2555411 0.9667143
vn -0.0075572 0.9889913 -0.1477803
vn -0.0069971 0.9890655 0.1473108
vn -0.0075572 0.9889913 -0.1477803
vn -0.0069971 0.9890655 0.1473108
vn -0.0075572 0.9889913 -0.1477803
vn -0.0069971 0.9890655 0.1473108
vn -0.0075572 0.9889913 -0.1477803
vn -0.0069971 0.9890655 0.1473108
vn -0.9668270 -0.0586172 0.2486152
vn -0.9668270 -0.0586172 0.2486152
vn -0.9668270 -0.0586172 0.2486152
vn -0.9229308 0.0317147 -0.3836573
vn -0.9229308 0.0317147 -0.3836573
vn -0.9660678 -0.0076848 0.2581742
vn -0.9660678 -0.0076848 0.2581742
vn -0.9660678 -0.0076848 0.2581742
vn -0.9880592 0.0487222 -0.1461680
vn -0.9880592 0.0487222 -0.1461680
vn -0.9880592 0.0487222 -0.1461680
vn -0.9535790 -0.1618147 0.2539746
vn -0.9535790 -0.1618147 0.2539746
vn -0.9739152 -0.1713294 -0.1487797
vn -0.9739152 -0.1713294 -0.1487797
vn -0.9702469 -0.1872255 -0.1535175
vn -0.9702469 -0.1872255 -0.1535175
vn -0.9473589 -0.1887684 0.2586070
vn -0.9473589 -0.1887684 0.2586070
vn -0.9480622 -0.3134232 -0.0542585
vn -0.9926134 -0.1148830 0.0389948
vn -0.9789616 0.2030996 -0.0196145
vn -0.9784264 0.2029886 0.0384375
vn -0.4360232 0.8827605 0.1749791
vn -0.4360232 0.8827605 0.1749791
vn -0.4360232 0.8827605 0.1749791
vn -0.4073723 0.8616664 -0.3026199
vn -0.4073723 0.8616664 -0.3026199
vn -0.3988330 0.8246630 -0.4010774
vn -0.3988330 0.8246630 -0.4010774
vn -0.4305375 0.8589891 0.2770833
vn -0.4305375 0.8589891 0.2770833
vn -0.4305375 0.8589891 0.2770833
vn -0.1465409 -0.9817617 0.1211184
vn -0.3002017 -0.8558944 -0.4210983
vn -0.2568028 -0.1594051 0.9532273
vn -0.2568028 -0.1594051 0.9532273
vn -0.1533100 0.1186432 -0.9810300
vn -0.1533100 0.1186432 -0.9810300
vn -0.2568758 -0.1181335 0.9591972
vn -0.2568758 -0.1181335 0.9591972
vn -0.3843925 0.1469145 -0.9114047
vn -0.3843925 0.1469145 -0.9114047
vn -0.2263601 0.9075619 0.3536842
vn -0.2031861 0.9531188 -0.2242320
vn -0.2669080 0.0143814 0.9636147
vn -0.3914704 -0.0056898 -0.9201731
vn -0.3690952 -0.1026488 -0.9237056
vn -0.2434926 -0.0870852 0.9659853
vn -0.1539774 -0.9878123 -0.0227557
vn -0.1539774 -0.9878123 -0.0227557
vn -0.3832814 -0.9231797 0.0288893
vn -0.3832814 -0.9231797 0.0288893
vn -0.2150502 -0.2910613 -0.9322214
vn -0.2150502 -0.2910613 -0.9322214
vn -0.1484262 -0.2008886 0.9683044
vn -0.1484262 -0.2008886 0.9683044
vn -0.2342155 0.1768449 -0.9559650
vn -0.2342155 0.1768449 -0.9559650
vn -0.2342155 0.1768449 -0.9559650
vn -0.3202200 0.2417828 0.9159695
vn -0.3202200 0.2417828 0.9159695
vn -0.3202200 0.2417828 0.9159695
vn -0.1539774 0.9878123 -0.0227557
vn -0.1539774 0.9878123 -0.0227557
vn -0.3832814 0.9231797 0.0288893
vn -0.3832814 0.9231797 0.0288893
vn -0.9054048 -0.3002017 -0.3002017
vn -0.9054048 -0.3002017 -0.3002017
vn -0.9560046 -0.1465409 0.2541278
vn -0.9560046 -0.1465409 0.2541278
vn -0.9560046 -0.1465409 0.2541278
vn -0.9560046 0.2541278 -0.1465409
vn -0.9560046 0.2541278 -0.1465409
vn -0.9560046 0.2541278 -0.1465409
vn -0.9360426 0.2488215 0.2488215
vn -0.9360426 0.2488215 0.2488215
vn -0.0060018 -0.9883358 -0.1521722
vn -0.0174433 -0.9667763 0.2550281
vn -0.0076565 -0.3862175 -0.9223760
vn -0.0076565 -0.3862175 -0.9223760
vn -0.0050928 -0.2568978 0.9664252
vn -0.0050928 -0.2568978 0.9664252
vn -0.0087998 0.2559661 -0.9666457
vn -0.0087998 0.2559661 -0.9666457
vn -0.0174433 0.2550281 0.9667763
vn -0.0174433 0.2550281 0.9667763
vn -0.0101319 0.9663881 -0.2568880
vn -0.0087998 0.9666457 0.2559661
vn 0.0292622 0.9797614 0.1980186
vn 0.0292622 0.9797614 0.1980186
vn 0.0311899 0.9950066 -0.0948109
vn 0.0311899 0.9950066 -0.0948109
vn 0.0311899 0.9950066 -0.0948109
vn 0.0347412 0.9796175 -0.1978450
vn 0.0347412 0.9796175 -0.1978450
vn 0.0347412 0.9796175 -0.1978450
vn 0.0352922 0.9536312 0.2989013
vn 0.0352922 0.9536312 0.2989013
vn 0.2488215 -0.9612619 0.1185894
vn 0.2541278 -0.9270154 -0.2757924
vn 0.2542928 -0.1559760 0.9544667
vn 0.2542928 -0.1559760 0.9544667
vn 0.2516719 0.0855093 -0.9640277
vn 0.2516719 0.0855093 -0.9640277
vn 0.2516719 -0.0855093 0.9640277
vn 0.2516719 -0.0855093 0.9640277
vn 0.2542928 0.1559760 -0.9544667
vn 0.2542928 0.1559760 -0.9544667
vn 0.2488215 0.8932653 0.3743862
vn 0.2541278 0.9670613 -0.0145405
vn 0.2143492 0.1768796 0.9606082
vn 0.2261552 0.1441277 -0.9633696
vn 0.2495849 0.0425988 -0.9674155
vn 0.2377572 0.0754446 0.9683902
vn 0.2496435 -0.9662218 -0.0639806
vn 0.2496435 -0.9662218 -0.0639806
vn 0.2532788 -0.9668267 0.0331064
vn 0.2532788 -0.9668267 0.0331064
vn 0.1643517 -0.1282701 -0.9780262
vn 0.1643517 -0.1282701 -0.9780262
vn 0.1643517 -0.1282701 -0.9780262
vn 0.2518880 -0.1965888 0.9475786
vn 0.2518880 -0.1965888 0.9475786
vn 0.2518880 -0.1965888 0.9475786
vn 0.3616657 0.1574675 -0.9189134
vn 0.3616657 0.1574675 -0.9189134
vn 0.3616657 0.1574675 -0.9189134
vn 0.2553090 0.1111603 0.9604482
vn 0.2553090 0.1111603 0.9604482
vn 0.2553090 0.1111603 0.9604482
vn 0.2496435 0.9662218 -0.0639806
vn 0.2496435 0.9662218 -0.0639806
vn 0.2532788 0.9668267 0.0331064
vn 0.2532788 0.9668267 0.0331064
vn 0.9666700 -0.0809618 0.2428875
vn 0.9666700 -0.0809618 0.2428875
vn 0.9666700 -0.0809618 0.2428875
vn 0.9663425 0.0211938 -0.2563846
vn 0.9663425 0.0211938 -0.2563846
vn 0.9668270 -0.0108746 0.2552004
vn 0.9668270 -0.0108746 0.2552004
vn 0.9668270 -0.0108746 0.2552004
vn 0.9660678 0.0624929 -0.2506144
vn 0.9660678 0.0624929 -0.2506144
vn 0.9660678 0.0624929 -0.2506144
vn 0.9305470 0.2671912 0.2503819
vn 0.9305470 0.2671912 0.2503819
vn 0.9280572 0.2724090 -0.2539746
vn 0.9280572 0.2724090 -0.2539746
vn 0.9342773 0.2454553 -0.2586070
vn 0.9342773 0.2454553 -0.2586070
vn 0.9366728 0.2406461 0.2544278
vn 0.9366728 0.2406461 0.2544278
vn -0.9366728 -0.2406461 0.2544278
vn -0.9366728 -0.2406461 0.2544278
vn -0.8969151 -0.2194024 -0.3839348
vn -0.8969151 -0.2194024 -0.3839348
vn -0.8876400 -0.2595946 -0.3804024
vn -0.8876400 -0.2595946 -0.3804024
vn -0.9305470 -0.2671912 0.2503819
vn -0.9305470 -0.2671912 0.2503819
vn 0.9480622 -0.3134232 -0.0542585
vn 0.9926134 -0.1148830 0.0389948
vn 0.9789616 0.2030996 -0.0196145
vn 0.9784264 0.2029886 0.0384375
vn -0.2521397 -0.0488349 0.9664578
vn -0.1565194 -0.0079779 -0.9876427
vn -0.1325835 -0.1117004 -0.9848577
vn -0.2287404 -0.1502323 0.9618254
vn 0.0687869 -0.9497764 0.3052756
vn 0.0687869 -0.9497764 0.3052756
vn 0.0687869 -0.9497764 0.3052756
vn -0.0928584 -0.9326769 -0.3485558
vn -0.0928584 -0.9326769 -0.3485558
vn -0.0855832 -0.9642028 -0.2509751
vn -0.0855832 -0.9642028 -0.2509751
vn 0.0749456 -0.9764638 0.2022415
vn 0.0749456 -0.9764638 0.2022415
vn 0.0749456 -0.9764638 0.2022415
vn 0.2430129 0.0710776 0.9674155
vn 0.2467744 0.0363704 -0.9683902
vn 0.2701825 -0.0650646 -0.9606082
vn 0.2664427 -0.0304513 0.9633696
vn 0.4496067 -0.8417315 0.2989013
vn 0.4496067 -0.8417315 0.2989013
vn 0.4604986 -0.8653314 -0.1978450
vn 0.4604986 -0.8653314 -0.1978450
vn 0.4604986 -0.8653314 -0.1978450
vn 0.4640499 -0.8807205 -0.0948109
vn 0.4640499 -0.8807205 -0.0948109
vn 0.4640499 -0.8807205 -0.0948109
vn 0.4556367 -0.8678616 0.1980186
vn 0.4556367 -0.8678616 0.1980186
vn 0.9543669 0.1599930 0.2521628
vn 0.9543669 0.1599930 0.2521628
vn 0.9432870 0.2093454 -0.2576511
vn 0.9432870 0.2093454 -0.2576511
vn 0.9495114 0.1823733 -0.2552805
vn 0.9495114 0.1823733 -0.2552805
vn 0.9603924 0.1338826 0.2443807
vn 0.9603924 0.1338826 0.2443807
vn -0.9116335 0.1556224 -0.3804024
vn -0.9116335 0.1556224 -0.3804024
vn -0.9535305 0.1675960 0.2503819
vn -0.9535305 0.1675960 0.2503819
vn -0.9474048 0.1941410 0.2544278
vn -0.9474048 0.1941410 0.2544278
vn -0.9023584 0.1958145 -0.3839348
vn -0.9023584 0.1958145 -0.3839348
vn -0.4994445 -0.8291964 -0.2509751
vn -0.4994445 -0.8291964 -0.2509751
vn -0.3605218 -0.9105616 0.2022415
vn -0.3605218 -0.9105616 0.2022415
vn -0.3605218 -0.9105616 0.2022415
vn -0.3543632 -0.8838742 0.3052756
vn -0.3543632 -0.8838742 0.3052756
vn -0.3543632 -0.8838742 0.3052756
vn -0.4921693 -0.7976705 -0.3485558
vn -0.4921693 -0.7976705 -0.3485558
vn -0.1681235 -0.0423065 -0.9848577
vn -0.2714414 -0.0348057 0.9618254
vn -0.2480420 0.0665917 0.9664578
vn -0.1441875 0.0614160 -0.9876427
vn 0.0311899 -0.9950066 -0.0948109
vn 0.0311899 -0.9950066 -0.0948109
vn 0.0311899 -0.9950066 -0.0948109
vn 0.0292622 -0.9797614 0.1980186
vn 0.0292622 -0.9797614 0.1980186
vn 0.0352922 -0.9536312 0.2989013
vn 0.0352922 -0.9536312 0.2989013
vn 0.0347412 -0.9796175 -0.1978450
vn 0.0347412 -0.9796175 -0.1978450
vn 0.0347412 -0.9796175 -0.1978450
vn 0.2143492 -0.1768796 -0.9606082
vn 0.2261552 -0.1441277 0.9633696
vn 0.2495849 -0.0425988 0.9674155
vn 0.2377572 -0.0754446 -0.9683902
vn -0.9480622 -0.3134232 -0.0542585
vn -0.9926134 -0.1148830 0.0389948
vn -0.9789616 0.2030996 -0.0196145
vn -0.9784264 0.2029886 0.0384375
vn 0.9334097 -0.2521470 -0.2552805
vn 0.9334097 -0.2521470 -0.2552805
vn 0.9219417 -0.3005022 0.2443807
vn 0.9219417 -0.3005022 0.2443807
vn 0.9279672 -0.2743918 0.2521628
vn 0.9279672 -0.2743918 0.2521628
vn 0.9396341 -0.2251748 -0.2576511
vn 0.9396341 -0.2251748 -0.2576511
vn -0.9541746 0.2568718 -0.1535175
vn -0.9541746 0.2568718 -0.1535175
vn -0.9342773 0.2454553 0.2586070
vn -0.9342773 0.2454553 0.2586070
vn -0.9280572 0.2724090 0.2539746
vn -0.9280572 0.2724090 0.2539746
vn -0.9505063 0.2727679 -0.1487797
vn -0.9505063 0.2727679 -0.1487797
vn -0.9668270 -0.0586172 0.2486152
vn -0.9668270 -0.0586172 0.2486152
vn -0.9668270 -0.0586172 0.2486152
vn -0.9229308 0.0317147 -0.3836573
vn -0.9229308 0.0317147 -0.3836573
vn -0.9660678 -0.0076848 0.2581742
vn -0.9660678 -0.0076848 0.2581742
vn -0.9660678 -0.0076848 0.2581742
vn -0.9880592 0.0487222 -0.1461680
vn -0.9880592 0.0487222 -0.1461680
vn -0.9880592 0.0487222 -0.1461680
vn -0.1539774 -0.9878123 -0.0227557
vn -0.1539774 -0.9878123 -0.0227557
vn -0.3832814 -0.9231797 0.0288893
vn -0.3832814 -0.9231797 0.0288893
vn -0.2150502 -0.2910613 -0.9322214
vn -0.2150502 -0.2910613 -0.9322214
vn -0.1484262 -0.2008886 0.9683044
vn -0.1484262 -0.2008886 0.9683044
vn -0.2342155 0.1768449 -0.9559650
vn -0.2342155 0.1768449 -0.9559650
vn -0.2342155 0.1768449 -0.9559650
vn -0.3202200 0.2417828 0.9159695
vn -0.3202200 0.2417828 0.9159695
vn -0.3202200 0.2417828 0.9159695
vn -0.1539774 0.9878123 -0.0227557
vn -0.1539774 0.9878123 -0.0227557
vn -0.3832814 0.9231797 0.0288893
vn -0.3832814 0.9231797 0.0288893
vn -0.3767519 0.0694698 -0.9237056
vn -0.2570307 0.0284202 0.9659853
vn -0.2336153 0.1298868 0.9636147
vn -0.3543768 0.1664288 -0.9201731
vn -0.1465409 -0.9817617 0.1211184
vn -0.3002017 -0.8558944 -0.4210983
vn -0.2568028 -0.1594051 0.9532273
vn -0.2568028 -0.1594051 0.9532273
vn -0.1533100 0.1186432 -0.9810300
vn -0.1533100 0.1186432 -0.9810300
vn -0.2568758 -0.1181335 0.9591972
vn -0.2568758 -0.1181335 0.9591972
vn -0.3843925 0.1469145 -0.9114047
vn -0.3843925 0.1469145 -0.9114047
vn -0.2263601 0.9075619 0.3536842
vn -0.2031861 0.9531188 -0.2242320
vn 0.0028676 0.9160397 -0.4010774
vn 0.0028676 0.9160397 -0.4010774
vn -0.0105891 0.9607875 0.2770833
vn -0.0105891 0.9607875 0.2770833
vn -0.0105891 0.9607875 0.2770833
vn -0.0051034 0.9845589 0.1749791
vn -0.0051034 0.9845589 0.1749791
vn -0.0051034 0.9845589 0.1749791
vn 0.0114069 0.9530431 -0.3026199
vn 0.0114069 0.9530431 -0.3026199
vn 0.0076565 -0.9223760 -0.3862175
vn 0.0087998 -0.9666457 0.2559661
vn 0.0103627 -0.1515069 -0.9884019
vn 0.0103627 -0.1515069 -0.9884019
vn 0.0101319 -0.2568880 0.9663881
vn 0.0101319 -0.2568880 0.9663881
vn 0.0101319 0.2568880 -0.9663881
vn 0.0101319 0.2568880 -0.9663881
vn 0.0087998 0.2559661 0.9666457
vn 0.0087998 0.2559661 0.9666457
vn 0.0050928 0.9664252 -0.2568978
vn 0.0174433 0.9667763 0.2550281
vn 0.9135411 -0.3523606 -0.2031861
vn 0.9135411 -0.3523606 -0.2031861
vn 0.9560046 -0.1465409 0.2541278
vn 0.9560046 -0.1465409 0.2541278
vn 0.9560046 -0.1465409 0.2541278
vn 0.9473765 0.2263601 -0.2263601
vn 0.9473765 0.2263601 -0.2263601
vn 0.9473765 0.2263601 -0.2263601
vn 0.9360426 0.2488215 0.2488215
vn 0.9360426 0.2488215 0.2488215
vn 0.2496435 -0.9662218 -0.0639806
vn 0.2496435 -0.9662218 -0.0639806
vn 0.2532788 -0.9668267 0.0331064
vn 0.2532788 -0.9668267 0.0331064
vn 0.1643517 -0.1282701 -0.9780262
vn 0.1643517 -0.1282701 -0.9780262
vn 0.1643517 -0.1282701 -0.9780262
vn 0.2518880 -0.1965888 0.9475786
vn 0.2518880 -0.1965888 0.9475786
vn 0.2518880 -0.1965888 0.9475786
vn 0.3616657 0.1574675 -0.9189134
vn 0.3616657 0.1574675 -0.9189134
vn 0.3616657 0.1574675 -0.9189134
vn 0.2553090 0.1111603 0.9604482
vn 0.2553090 0.1111603 0.9604482
vn 0.2553090 0.1111603 0.9604482
vn 0.2496435 0.9662218 -0.0639806
vn 0.2496435 0.9662218 -0.0639806
vn 0.2532788 0.9668267 0.0331064
vn 0.2532788 0.9668267 0.0331064
vn 0.2430129 -0.0710776 -0.9674155
vn 0.2467744 -0.0363704 0.9683902
vn 0.2701825 0.0650646 0.9606082
vn 0.2664427 0.0304513 -0.9633696
vn 0.2488215 -0.9612619 0.1185894
vn 0.2541278 -0.9270154 -0.2757924
vn 0.2542928 -0.1559760 0.9544667
vn 0.2542928 -0.1559760 0.9544667
vn 0.2516719 0.0855093 -0.9640277
vn 0.2516719 0.0855093 -0.9640277
vn 0.2516719 -0.0855093 0.9640277
vn 0.2516719 -0.0855093 0.9640277
vn 0.2542928 0.1559760 -0.9544667
vn 0.2542928 0.1559760 -0.9544667
vn 0.2488215 0.8932653 0.3743862
vn 0.2541278 0.9670613 -0.0145405
vn 0.4604986 0.8653314 -0.1978450
vn 0.4604986 0.8653314 -0.1978450
vn 0.4604986 0.8653314 -0.1978450
vn 0.4496067 0.8417315 0.2989013
vn 0.4496067 0.8417315 0.2989013
vn 0.4556367 0.8678616 0.1980186
vn 0.4556367 0.8678616 0.1980186
vn 0.4640499 0.8807205 -0.0948109
vn 0.4640499 0.8807205 -0.0948109
vn 0.4640499 0.8807205 -0.0948109
vn 0.9480622 -0.3134232 -0.0542585
vn 0.9926134 -0.1148830 0.0389948
vn 0.9789616 0.2030996 -0.0196145
vn 0.9784264 0.2029886 0.0384375
vn 0.9473589 -0.1887684 -0.2586070
vn 0.9473589 -0.1887684 -0.2586070
vn 0.9474048 -0.1941410 0.2544278
vn 0.9474048 -0.1941410 0.2544278
vn 0.9535305 -0.1675960 0.2503819
vn 0.9535305 -0.1675960 0.2503819
vn 0.9535790 -0.1618147 -0.2539746
vn 0.9535790 -0.1618147 -0.2539746
vn 0.9666700 -0.0809618 0.2428875
vn 0.9666700 -0.0809618 0.2428875
vn 0.9666700 -0.0809618 0.2428875
vn 0.9663425 0.0211938 -0.2563846
vn 0.9663425 0.0211938 -0.2563846
vn 0.9668270 -0.0108746 0.2552004
vn 0.9668270 -0.0108746 0.2552004
vn 0.9668270 -0.0108746 0.2552004
vn 0.9660678 0.0624929 -0.2506144
vn 0.9660678 0.0624929 -0.2506144
vn 0.9660678 0.0624929 -0.2506144
vn 0.0064414 -0.9679757 -0.2509614
vn 0.0069971 -0.9890655 0.1473108
vn 0.0064414 -0.9679757 -0.2509614
vn 0.0069971 -0.9890655 0.1473108
vn 0.0064414 -0.9679757 -0.2509614
vn 0.0069971 -0.9890655 0.1473108
vn 0.0064414 -0.9679757 -0.2509614
vn 0.0069971 -0.9890655 0.1473108
vn 0.0075528 -0.1515107 -0.9884268
vn 0.0075528 -0.1515107 -0.9884268
vn 0.0073846 -0.2568942 0.9664113
vn 0.0073846 -0.2568942 0.9664113
vn 0.0075528 -0.1515107 -0.9884268
vn 0.0075528 -0.1515107 -0.9884268
vn 0.0073846 -0.2568942 0.9664113
vn 0.0073846 -0.2568942 0.9664113
vn 0.0075528 -0.1515107 -0.9884268
vn 0.0075528 -0.1515107 -0.9884268
vn 0.0073846 -0.2568942 0.9664113
vn 0.0073846 -0.2568942 0.9664113
vn 0.0075528 -0.1515107 -0.9884268
vn 0.0075528 -0.1515107 -0.9884268
vn 0.0073846 -0.2568942 0.9664113
vn 0.0073846 -0.2568942 0.9664113
vn 0.0073846 0.2568942 -0.9664113
vn 0.0073846 0.2568942 -0.9664113
vn 0.0064109 0.2562220 0.9665967
vn 0.0064109 0.2562220 0.9665967
vn 0.0073846 0.2568942 -0.9664113
vn 0.0073846 0.2568942 -0.9664113
vn 0.0064109 0.2562220 0.9665967
vn 0.0064109 0.2562220 0.9665967
vn 0.0073846 0.2568942 -0.9664113
vn 0.0073846 0.2568942 -0.9664113
vn 0.0064109 0.2562220 0.9665967
vn 0.0064109 0.2562220 0.9665967
vn 0.0073846 0.2568942 -0.9664113
vn 0.0073846 0.2568942 -0.9664113
vn 0.0064109 0.2562220 0.9665967
vn 0.0064109 0.2562220 0.9665967
vn 0.0037932 0.9890125 -0.1477835
vn 0.0138958 0.9890631 0.1468367
vn 0.0037932 0.9890125 -0.1477835
vn 0.0138958 0.9890631 0.1468367
vn 0.0037932 0.9890125 -0.1477835
vn 0.0138958 0.9890631 0.1468367
vn 0.0037932 0.9890125 -0.1477835
vn 0.0138958 0.9890631 0.1468367
vn 0.9222086 -0.3699997 -0.1123897
vn 0.9222086 -0.3699997 -0.1123897
vn 0.9778465 -0.1498889 0.1461150
vn 0.9778465 -0.1498889 0.1461150
vn 0.9778465 -0.1498889 0.1461150
vn 0.9222086 -0.3699997 -0.1123897
vn 0.9222086 -0.3699997 -0.1123897
vn 0.9778465 -0.1498889 0.1461150
vn 0.9778465 -0.1498889 0.1461150
vn 0.9778465 -0.1498889 0.1461150
vn 0.9222086 -0.3699997 -0.1123897
vn 0.9222086 -0.3699997 -0.1123897
vn 0.9778465 -0.1498889 0.1461150
vn 0.9778465 -0.1498889 0.1461150
vn 0.9778465 -0.1498889 0.1461150
vn 0.9222086 -0.3699997 -0.1123897
vn 0.9222086 -0.3699997 -0.1123897
vn 0.9778465 -0.1498889 0.1461150
vn 0.9778465 -0.1498889 0.1461150
vn 0.9778465 -0.1498889 0.1461150
vn 0.9620508 0.2414231 -0.1271738
vn 0.9620508 0.2414231 -0.1271738
vn 0.9620508 0.2414231 -0.1271738
vn 0.9565154 0.2542636 0.1429276
vn 0.9565154 0.2542636 0.1429276
vn 0.9565154 0.2542636 0.1429276
vn 0.9620508 0.2414231 -0.1271738
vn 0.9620508 0.2414231 -0.1271738
vn 0.9620508 0.2414231 -0.1271738
vn 0.9565154 0.2542636 0.1429276
vn 0.9565154 0.2542636 0.1429276
vn 0.9565154 0.2542636 0.1429276
vn 0.9620508 0.2414231 -0.1271738
vn 0.9620508 0.2414231 -0.1271738
vn 0.9620508 0.2414231 -0.1271738
vn 0.9565154 0.2542636 0.1429276
vn 0.9565154 0.2542636 0.1429276
vn 0.9565154 0.2542636 0.1429276
vn 0.9620508 0.2414231 -0.1271738
vn 0.9620508 0.2414231 -0.1271738
vn 0.9620508 0.2414231 -0.1271738
vn 0.9565154 0.2542636 0.1429276
vn 0.9565154 0.2542636 0.1429276
vn 0.9565154 0.2542636 0.1429276
vn 0.0054242 -0.9222668 -0.3865158
vn 0.0062361 -0.9665929 0.2562406
vn 0.0074186 -0.0621922 -0.9980366
vn 0.0074186 -0.0621922 -0.9980366
vn 0.0039543 -0.0624101 0.9980428
vn 0.0039543 -0.0624101 0.9980428
vn 0.0073824 0.1165161 -0.9931614
vn 0.0073824 0.1165161 -0.9931614
vn 0.0138084 0.1157590 0.9931813
vn 0.0138084 0.1157590 0.9931813
vn 0.0054242 0.9222668 -0.3865158
vn 0.0062361 0.9665929 0.2562406
vn 0.0054242 -0.9222668 -0.3865158
vn 0.0062361 -0.9665929 0.2562406
vn 0.0074186 -0.0621922 -0.9980366
vn 0.0074186 -0.0621922 -0.9980366
vn 0.0039543 -0.0624101 0.9980428
vn 0.0039543 -0.0624101 0.9980428
vn 0.0073824 0.1165161 -0.9931614
vn 0.0073824 0.1165161 -0.9931614
vn 0.0138084 0.1157590 0.9931813
vn 0.0138084 0.1157590 0.9931813
vn 0.0054242 0.9222668 -0.3865158
vn 0.0062361 0.9665929 0.2562406
vn 0.9556429 -0.1790080 -0.2338864
vn 0.9556429 -0.1790080 -0.2338864
vn 0.9646899 -0.0601142 0.2564366
vn 0.9646899 -0.0601142 0.2564366
vn 0.9646899 -0.0601142 0.2564366
vn 0.9643543 0.0996533 -0.2451326
vn 0.9643543 0.0996533 -0.2451326
vn 0.9643543 0.0996533 -0.2451326
vn 0.9602850 0.1126591 0.2552656
vn 0.9602850 0.1126591 0.2552656
vn 0.9602850 0.1126591 0.2552656
vn 0.9556429 -0.1790080 -0.2338864
vn 0.9556429 -0.1790080 -0.2338864
vn 0.9646899 -0.0601142 0.2564366
vn 0.9646899 -0.0601142 0.2564366
vn 0.9646899 -0.0601142 0.2564366
vn 0.9643543 0.0996533 -0.2451326
vn 0.9643543 0.0996533 -0.2451326
vn 0.9643543 0.0996533 -0.2451326
vn 0.9602850 0.1126591 0.2552656
vn 0.9602850 0.1126591 0.2552656
vn 0.9602850 0.1126591 0.2552656
o 02_Banco_Respaldo_Wood
usemtl Wood
s 1
f 91/91/91 47/47/47 99/99/99
f 118/118/118 132/132/132 72/72/72
f 611/611/611 567/567/567 583/583/583
f 115/115/115 67/67/67 131/131/131
f 570/570/570 616/616/616 584/584/584
f 92/92/92 102/102/102 51/51/51
f 543/543/543 551/551/551 592/592/592
f 544/544/544 595/595/595 554/554/554
f 69/69/69 48/48/48 50/50/50
f 69/69/69 50/50/50 71/71/71
f 132/132/132 584/584/584 583/583/583
f 132/132/132 583/583/583 131/131/131
f 132/132/132 67/67/67 72/72/72
f 132/132/132 131/131/131 67/67/67
f 117/117/117 70/70/70 49/49/49
f 117/117/117 49/49/49 101/101/101
f 613/613/613 552/552/552 568/568/568
f 613/613/613 592/592/592 552/552/552
f 611/611/611 583/583/583 584/584/584
f 611/611/611 584/584/584 616/616/616
f 115/115/115 131/131/131 583/583/583
f 115/115/115 583/583/583 567/567/567
f 116/116/116 568/568/568 552/552/552
f 116/116/116 552/552/552 100/100/100
f 116/116/116 47/47/47 68/68/68
f 116/116/116 100/100/100 47/47/47
f 593/593/593 591/591/591 612/612/612
f 593/593/593 612/612/612 614/614/614
f 569/569/569 594/594/594 615/615/615
f 569/569/569 553/553/553 594/594/594
f 570/570/570 584/584/584 132/132/132
f 570/570/570 132/132/132 118/118/118
f 569/569/569 117/117/117 101/101/101
f 569/569/569 101/101/101 553/553/553
f 92/92/92 51/51/51 47/47/47
f 92/92/92 47/47/47 91/91/91
f 543/543/543 99/99/99 551/551/551
f 543/543/543 91/91/91 99/99/99
f 544/544/544 592/592/592 595/595/595
f 544/544/544 543/543/543 592/592/592
f 544/544/544 554/554/554 102/102/102
f 544/544/544 102/102/102 92/92/92
f 544/544/544 92/92/92 91/91/91
f 544/544/544 91/91/91 543/543/543
f 93/93/93 52/52/52 103/103/103
f 122/122/122 134/134/134 78/78/78
f 617/617/617 571/571/571 585/585/585
f 119/119/119 73/73/73 133/133/133
f 574/574/574 622/622/622 586/586/586
f 94/94/94 106/106/106 56/56/56
f 545/545/545 555/555/555 597/597/597
f 546/546/546 600/600/600 558/558/558
f 75/75/75 53/53/53 55/55/55
f 75/75/75 55/55/55 77/77/77
f 134/134/134 586/586/586 585/585/585
f 134/134/134 585/585/585 133/133/133
f 134/134/134 73/73/73 78/78/78
f 134/134/134 133/133/133 73/73/73
f 121/121/121 76/76/76 54/54/54
f 121/121/121 54/54/54 105/105/105
f 619/619/619 556/556/556 572/572/572
f 619/619/619 597/597/597 556/556/556
f 617/617/617 585/585/585 586/586/586
f 617/617/617 586/586/586 622/622/622
f 119/119/119 133/133/133 585/585/585
f 119/119/119 585/585/585 571/571/571
f 120/120/120 572/572/572 556/556/556
f 120/120/120 556/556/556 104/104/104
f 120/120/120 52/52/52 74/74/74
f 120/120/120 104/104/104 52/52/52
f 598/598/598 596/596/596 618/618/618
f 598/598/598 618/618/618 620/620/620
f 573/573/573 599/599/599 621/621/621
f 573/573/573 557/557/557 599/599/599
f 574/574/574 586/586/586 134/134/134
f 574/574/574 134/134/134 122/122/122
f 573/573/573 121/121/121 105/105/105
f 573/573/573 105/105/105 557/557/557
f 94/94/94 56/56/56 52/52/52
f 94/94/94 52/52/52 93/93/93
f 545/545/545 103/103/103 555/555/555
f 545/545/545 93/93/93 103/103/103
f 546/546/546 597/597/597 600/600/600
f 546/546/546 545/545/545 597/597/597
f 546/546/546 558/558/558 106/106/106
f 546/546/546 106/106/106 94/94/94
f 546/546/546 94/94/94 93/93/93
f 546/546/546 93/93/93 545/545/545
f 95/95/95 57/57/57 107/107/107
f 126/126/126 136/136/136 84/84/84
f 623/623/623 575/575/575 587/587/587
f 123/123/123 79/79/79 135/135/135
f 578/578/578 628/628/628 588/588/588
f 96/96/96 110/110/110 61/61/61
f 547/547/547 559/559/559 602/602/602
f 548/548/548 605/605/605 562/562/562
f 81/81/81 58/58/58 60/60/60
f 81/81/81 60/60/60 83/83/83
f 136/136/136 588/588/588 587/587/587
f 136/136/136 587/587/587 135/135/135
f 136/136/136 79/79/79 84/84/84
f 136/136/136 135/135/135 79/79/79
f 125/125/125 82/82/82 59/59/59
f 125/125/125 59/59/59 109/109/109
f 625/625/625 560/560/560 576/576/576
f 625/625/625 602/602/602 560/560/560
f 623/623/623 587/587/587 588/588/588
f 623/623/623 588/588/588 628/628/628
f 123/123/123 135/135/135 587/587/587
f 123/123/123 587/587/587 575/575/575
f 124/124/124 576/576/576 560/560/560
f 124/124/124 560/560/560 108/108/108
f 124/124/124 57/57/57 80/80/80
f 124/124/124 108/108/108 57/57/57
f 603/603/603 601/601/601 624/624/624
f 603/603/603 624/624/624 626/626/626
f 577/577/577 604/604/604 627/627/627
f 577/577/577 561/561/561 604/604/604
f 578/578/578 588/588/588 136/136/136
f 578/578/578 136/136/136 126/126/126
f 577/577/577 125/125/125 109/109/109
f 577/577/577 109/109/109 561/561/561
f 96/96/96 61/61/61 57/57/57
f 96/96/96 57/57/57 95/95/95
f 547/547/547 107/107/107 559/559/559
f 547/547/547 95/95/95 107/107/107
f 548/548/548 602/602/602 605/605/605
f 548/548/548 547/547/547 602/602/602
f 548/548/548 562/562/562 110/110/110
f 548/548/548 110/110/110 96/96/96
f 548/548/548 96/96/96 95/95/95
f 548/548/548 95/95/95 547/547/547
f 97/97/97 62/62/62 111/111/111
f 130/130/130 138/138/138 90/90/90
f 629/629/629 579/579/579 589/589/589
f 127/127/127 85/85/85 137/137/137
f 582/582/582 634/634/634 590/590/590
f 98/98/98 114/114/114 66/66/66
f 549/549/549 563/563/563 607/607/607
f 550/550/550 610/610/610 566/566/566
f 87/87/87 63/63/63 65/65/65
f 87/87/87 65/65/65 89/89/89
f 138/138/138 590/590/590 589/589/589
f 138/138/138 589/589/589 137/137/137
f 138/138/138 85/85/85 90/90/90
f 138/138/138 137/137/137 85/85/85
f 129/129/129 88/88/88 64/64/64
f 129/129/129 64/64/64 113/113/113
f 631/631/631 564/564/564 580/580/580
f 631/631/631 607/607/607 564/564/564
f 629/629/629 589/589/589 590/590/590
f 629/629/629 590/590/590 634/634/634
f 127/127/127 137/137/137 589/589/589
f 127/127/127 589/589/589 579/579/579
f 128/128/128 580/580/580 564/564/564
f 128/128/128 564/564/564 112/112/112
f 128/128/128 62/62/62 86/86/86
f 128/128/128 112/112/112 62/62/62
f 608/608/608 606/606/606 630/630/630
f 608/608/608 630/630/630 632/632/632
f 581/581/581 609/609/609 633/633/633
f 581/581/581 565/565/565 609/609/609
f 582/582/582 590/590/590 138/138/138
f 582/582/582 138/138/138 130/130/130
f 581/581/581 129/129/129 113/113/113
f 581/581/581 113/113/113 565/565/565
f 98/98/98 66/66/66 62/62/62
f 98/98/98 62/62/62 97/97/97
f 549/549/549 111/111/111 563/563/563
f 549/549/549 97/97/97 111/111/111
f 550/550/550 607/607/607 610/610/610
f 550/550/550 549/549/549 607/607/607
f 550/550/550 566/566/566 114/114/114
f 550/550/550 114/114/114 98/98/98
f 550/550/550 98/98/98 97/97/97
f 550/550/550 97/97/97 549/549/549
f 307/307/307 314/314/314 297/297/297
f 334/334/334 319/319/319 323/323/323
f 293/293/293 309/309/309 305/305/305
f 286/286/286 229/229/229 250/250/250
f 163/163/163 150/150/150 184/184/184
f 321/321/321 338/338/338 329/329/329
f 186/186/186 154/154/154 168/168/168
f 252/252/252 235/235/235 290/290/290
f 310/310/310 315/315/315 330/330/330
f 310/310/310 330/330/330 324/324/324
f 319/319/319 250/250/250 184/184/184
f 319/319/319 184/184/184 305/305/305
f 319/319/319 309/309/309 323/323/323
f 319/319/319 305/305/305 309/309/309
f 333/333/333 323/323/323 328/328/328
f 333/333/333 328/328/328 337/337/337
f 293/293/293 305/305/305 184/184/184
f 293/293/293 184/184/184 150/150/150
f 294/294/294 155/155/155 298/298/298
f 294/294/294 151/151/151 155/155/155
f 294/294/294 314/314/314 311/311/311
f 294/294/294 298/298/298 314/314/314
f 285/285/285 233/233/233 229/229/229
f 285/285/285 289/289/289 233/233/233
f 286/286/286 250/250/250 319/319/319
f 286/286/286 319/319/319 334/334/334
f 285/285/285 333/333/333 337/337/337
f 285/285/285 337/337/337 289/289/289
f 164/164/164 155/155/155 151/151/151
f 164/164/164 168/168/168 155/155/155
f 163/163/163 184/184/184 250/250/250
f 163/163/163 250/250/250 229/229/229
f 162/162/162 228/228/228 234/234/234
f 162/162/162 234/234/234 167/167/167
f 321/321/321 329/329/329 314/314/314
f 321/321/321 314/314/314 307/307/307
f 186/186/186 297/297/297 154/154/154
f 186/186/186 307/307/307 297/297/297
f 252/252/252 168/168/168 235/235/235
f 252/252/252 186/186/186 168/168/168
f 252/252/252 290/290/290 338/338/338
f 252/252/252 338/338/338 321/321/321
f 252/252/252 321/321/321 307/307/307
f 252/252/252 307/307/307 186/186/186
f 306/306/306 312/312/312 295/295/295
f 340/340/340 322/322/322 331/331/331
f 299/299/299 316/316/316 308/308/308
f 292/292/292 237/237/237 253/253/253
f 170/170/170 156/156/156 187/187/187
f 320/320/320 336/336/336 326/326/326
f 185/185/185 152/152/152 166/166/166
f 251/251/251 232/232/232 288/288/288
f 317/317/317 313/313/313 327/327/327
f 317/317/317 327/327/327 332/332/332
f 322/322/322 253/253/253 187/187/187
f 322/322/322 187/187/187 308/308/308
f 322/322/322 316/316/316 331/331/331
f 322/322/322 308/308/308 316/316/316
f 339/339/339 331/331/331 325/325/325
f 339/339/339 325/325/325 335/335/335
f 299/299/299 308/308/308 187/187/187
f 299/299/299 187/187/187 156/156/156
f 300/300/300 153/153/153 296/296/296
f 300/300/300 157/157/157 153/153/153
f 300/300/300 312/312/312 318/318/318
f 300/300/300 296/296/296 312/312/312
f 291/291/291 230/230/230 237/237/237
f 291/291/291 287/287/287 230/230/230
f 292/292/292 253/253/253 322/322/322
f 292/292/292 322/322/322 340/340/340
f 291/291/291 339/339/339 335/335/335
f 291/291/291 335/335/335 287/287/287
f 171/171/171 153/153/153 157/157/157
f 171/171/171 166/166/166 153/153/153
f 170/170/170 187/187/187 253/253/253
f 170/170/170 253/253/253 237/237/237
f 169/169/169 236/236/236 231/231/231
f 169/169/169 231/231/231 165/165/165
f 320/320/320 326/326/326 312/312/312
f 320/320/320 312/312/312 306/306/306
f 185/185/185 295/295/295 152/152/152
f 185/185/185 306/306/306 295/295/295
f 251/251/251 166/166/166 232/232/232
f 251/251/251 185/185/185 166/166/166
f 251/251/251 288/288/288 336/336/336
f 251/251/251 336/336/336 320/320/320
f 251/251/251 320/320/320 306/306/306
f 251/251/251 306/306/306 185/185/185
f 359/359/359 349/349/349 341/341/341
f 386/386/386 375/375/375 368/368/368
f 345/345/345 354/354/354 361/361/361
f 529/529/529 516/516/516 496/496/496
f 448/448/448 393/393/393 428/428/428
f 373/373/373 382/382/382 364/364/364
f 426/426/426 389/389/389 443/443/443
f 494/494/494 512/512/512 525/525/525
f 355/355/355 350/350/350 365/365/365
f 355/355/355 365/365/365 369/369/369
f 375/375/375 496/496/496 428/428/428
f 375/375/375 428/428/428 361/361/361
f 375/375/375 354/354/354 368/368/368
f 375/375/375 361/361/361 354/354/354
f 385/385/385 368/368/368 363/363/363
f 385/385/385 363/363/363 381/381/381
f 345/345/345 361/361/361 428/428/428
f 345/345/345 428/428/428 393/393/393
f 346/346/346 390/390/390 342/342/342
f 346/346/346 394/394/394 390/390/390
f 346/346/346 349/349/349 356/356/356
f 346/346/346 342/342/342 349/349/349
f 528/528/528 510/510/510 516/516/516
f 528/528/528 524/524/524 510/510/510
f 529/529/529 496/496/496 375/375/375
f 529/529/529 375/375/375 386/386/386
f 528/528/528 385/385/385 381/381/381
f 528/528/528 381/381/381 524/524/524
f 449/449/449 390/390/390 394/394/394
f 449/449/449 443/443/443 390/390/390
f 448/448/448 428/428/428 496/496/496
f 448/448/448 496/496/496 516/516/516
f 447/447/447 515/515/515 511/511/511
f 447/447/447 511/511/511 442/442/442
f 373/373/373 364/364/364 349/349/349
f 373/373/373 349/349/349 359/359/359
f 426/426/426 341/341/341 389/389/389
f 426/426/426 359/359/359 341/341/341
f 494/494/494 443/443/443 512/512/512
f 494/494/494 426/426/426 443/443/443
f 494/494/494 525/525/525 382/382/382
f 494/494/494 382/382/382 373/373/373
f 494/494/494 373/373/373 359/359/359
f 494/494/494 359/359/359 426/426/426
f 362/362/362 357/357/357 347/347/347
f 384/384/384 374/374/374 366/366/366
f 343/343/343 351/351/351 360/360/360
f 527/527/527 514/514/514 495/495/495
f 445/445/445 391/391/391 427/427/427
f 376/376/376 388/388/388 371/371/371
f 429/429/429 395/395/395 451/451/451
f 497/497/497 519/519/519 531/531/531
f 352/352/352 358/358/358 372/372/372
f 352/352/352 372/372/372 367/367/367
f 374/374/374 495/495/495 427/427/427
f 374/374/374 427/427/427 360/360/360
f 374/374/374 351/351/351 366/366/366
f 374/374/374 360/360/360 351/351/351
f 383/383/383 366/366/366 370/370/370
f 383/383/383 370/370/370 387/387/387
f 343/343/343 360/360/360 427/427/427
f 343/343/343 427/427/427 391/391/391
f 344/344/344 396/396/396 348/348/348
f 344/344/344 392/392/392 396/396/396
f 344/344/344 357/357/357 353/353/353
f 344/344/344 348/348/348 357/357/357
f 526/526/526 517/517/517 514/514/514
f 526/526/526 530/530/530 517/517/517
f 527/527/527 495/495/495 374/374/374
f 527/527/527 374/374/374 384/384/384
f 526/526/526 383/383/383 387/387/387
f 526/526/526 387/387/387 530/530/530
f 446/446/446 396/396/396 392/392/392
f 446/446/446 451/451/451 396/396/396
f 445/445/445 427/427/427 495/495/495
f 445/445/445 495/495/495 514/514/514
f 444/444/444 513/513/513 518/518/518
f 444/444/444 518/518/518 450/450/450
f 376/376/376 371/371/371 357/357/357
f 376/376/376 357/357/357 362/362/362
f 429/429/429 347/347/347 395/395/395
f 429/429/429 362/362/362 347/347/347
f 497/497/497 451/451/451 519/519/519
f 497/497/497 429/429/429 451/451/451
f 497/497/497 531/531/531 388/388/388
f 497/497/497 388/388/388 376/376/376
f 497/497/497 376/376/376 362/362/362
f 497/497/497 362/362/362 429/429/429
f 201/201/201 205/205/205 161/161/161
f 188/188/188 158/158/158 192/192/192
f 266/266/266 271/271/271 303/303/303
f 254/254/254 258/258/258 301/301/301
f 273/273/273 269/269/269 304/304/304
f 198/198/198 160/160/160 203/203/203
f 190/190/190 195/195/195 159/159/159
f 256/256/256 302/302/302 261/261/261
f 302/302/302 301/301/301 303/303/303
f 302/302/302 303/303/303 304/304/304
f 160/160/160 158/158/158 159/159/159
f 160/160/160 159/159/159 161/161/161
f 205/205/205 160/160/160 161/161/161
f 205/205/205 203/203/203 160/160/160
f 201/201/201 159/159/159 195/195/195
f 201/201/201 161/161/161 159/159/159
f 269/269/269 302/302/302 304/304/304
f 269/269/269 261/261/261 302/302/302
f 267/267/267 199/199/199 194/194/194
f 267/267/267 194/194/194 262/262/262
f 266/266/266 303/303/303 301/301/301
f 266/266/266 301/301/301 258/258/258
f 255/255/255 192/192/192 259/259/259
f 255/255/255 189/189/189 192/192/192
f 272/272/272 200/200/200 268/268/268
f 272/272/272 204/204/204 200/200/200
f 273/273/273 304/304/304 303/303/303
f 273/273/273 303/303/303 271/271/271
f 272/272/272 202/202/202 204/204/204
f 272/272/272 270/270/270 202/202/202
f 196/196/196 202/202/202 270/270/270
f 196/196/196 270/270/270 264/264/264
f 198/198/198 158/158/158 160/160/160
f 198/198/198 192/192/192 158/158/158
f 197/197/197 265/265/265 260/260/260
f 197/197/197 260/260/260 193/193/193
f 190/190/190 159/159/159 158/158/158
f 190/190/190 158/158/158 188/188/188
f 257/257/257 263/263/263 195/195/195
f 257/257/257 195/195/195 191/191/191
f 256/256/256 301/301/301 302/302/302
f 256/256/256 254/254/254 301/301/301
f 257/257/257 189/189/189 255/255/255
f 257/257/257 191/191/191 189/189/189
f 421/421/421 425/425/425 380/380/380
f 408/408/408 377/377/377 412/412/412
f 486/486/486 491/491/491 522/522/522
f 474/474/474 478/478/478 520/520/520
f 493/493/493 489/489/489 523/523/523
f 418/418/418 379/379/379 423/423/423
f 410/410/410 415/415/415 378/378/378
f 476/476/476 521/521/521 481/481/481
f 521/521/521 520/520/520 522/522/522
f 521/521/521 522/522/522 523/523/523
f 379/379/379 377/377/377 378/378/378
f 379/379/379 378/378/378 380/380/380
f 425/425/425 379/379/379 380/380/380
f 425/425/425 423/423/423 379/379/379
f 421/421/421 378/378/378 415/415/415
f 421/421/421 380/380/380 378/378/378
f 489/489/489 521/521/521 523/523/523
f 489/489/489 481/481/481 521/521/521
f 487/487/487 419/419/419 414/414/414
f 487/487/487 414/414/414 482/482/482
f 486/486/486 522/522/522 520/520/520
f 486/486/486 520/520/520 478/478/478
f 475/475/475 412/412/412 479/479/479
f 475/475/475 409/409/409 412/412/412
f 492/492/492 420/420/420 488/488/488
f 492/492/492 424/424/424 420/420/420
f 493/493/493 523/523/523 522/522/522
f 493/493/493 522/522/522 491/491/491
f 492/492/492 422/422/422 424/424/424
f 492/492/492 490/490/490 422/422/422
f 416/416/416 422/422/422 490/490/490
f 416/416/416 490/490/490 484/484/484
f 418/418/418 377/377/377 379/379/379
f 418/418/418 412/412/412 377/377/377
f 417/417/417 485/485/485 480/480/480
f 417/417/417 480/480/480 413/413/413
f 410/410/410 378/378/378 377/377/377
f 410/410/410 377/377/377 408/408/408
f 477/477/477 483/483/483 415/415/415
f 477/477/477 415/415/415 411/411/411
f 476/476/476 520/520/520 521/521/521
f 476/476/476 474/474/474 520/520/520
f 477/477/477 409/409/409 475/475/475
f 477/477/477 411/411/411 409/409/409
f 216/216/216 206/206/206 218/218/218
f 225/225/225 227/227/227 214/214/214
f 222/222/222 211/211/211 226/226/226
f 461/461/461 473/473/473 463/463/463
f 470/470/470 458/458/458 462/462/462
f 217/217/217 221/221/221 209/209/209
f 452/452/452 454/454/454 465/465/465
f 453/453/453 468/468/468 457/457/457
f 212/212/212 207/207/207 210/210/210
f 212/212/212 210/210/210 215/215/215
f 227/227/227 463/463/463 462/462/462
f 227/227/227 462/462/462 226/226/226
f 227/227/227 211/211/211 214/214/214
f 227/227/227 226/226/226 211/211/211
f 224/224/224 214/214/214 208/208/208
f 224/224/224 208/208/208 220/220/220
f 222/222/222 226/226/226 462/462/462
f 222/222/222 462/462/462 458/458/458
f 223/223/223 455/455/455 219/219/219
f 223/223/223 459/459/459 455/455/455
f 223/223/223 206/206/206 213/213/213
f 223/223/223 219/219/219 206/206/206
f 460/460/460 466/466/466 473/473/473
f 460/460/460 456/456/456 466/466/466
f 461/461/461 463/463/463 227/227/227
f 461/461/461 227/227/227 225/225/225
f 460/460/460 224/224/224 220/220/220
f 460/460/460 220/220/220 456/456/456
f 471/471/471 455/455/455 459/459/459
f 471/471/471 465/465/465 455/455/455
f 470/470/470 462/462/462 463/463/463
f 470/470/470 463/463/463 473/473/473
f 469/469/469 472/472/472 467/467/467
f 469/469/469 467/467/467 464/464/464
f 217/217/217 209/209/209 206/206/206
f 217/217/217 206/206/206 216/216/216
f 452/452/452 218/218/218 454/454/454
f 452/452/452 216/216/216 218/218/218
f 453/453/453 465/465/465 468/468/468
f 453/453/453 452/452/452 465/465/465
f 453/453/453 457/457/457 221/221/221
f 453/453/453 221/221/221 217/217/217
f 453/453/453 217/217/217 216/216/216
f 453/453/453 216/216/216 452/452/452
f 176/176/176 173/173/173 142/142/142
f 276/276/276 241/241/241 238/238/238
f 140/140/140 172/172/172 175/175/175
f 280/280/280 248/248/248 244/244/244
f 182/182/182 144/144/144 178/178/178
f 242/242/242 278/278/278 239/239/239
f 180/180/180 147/147/147 183/183/183
f 246/246/246 249/249/249 283/283/283
f 172/172/172 173/173/173 239/239/239
f 172/172/172 239/239/239 238/238/238
f 240/240/240 245/245/245 179/179/179
f 240/240/240 179/179/179 174/174/174
f 241/241/241 172/172/172 238/238/238
f 241/241/241 175/175/175 172/172/172
f 276/276/276 238/238/238 239/239/239
f 276/276/276 239/239/239 278/278/278
f 139/139/139 174/174/174 179/179/179
f 139/139/139 179/179/179 145/145/145
f 141/141/141 149/149/149 143/143/143
f 141/141/141 146/146/146 149/149/149
f 140/140/140 173/173/173 172/172/172
f 140/140/140 142/142/142 173/173/173
f 280/280/280 249/249/249 248/248/248
f 280/280/280 283/283/283 249/249/249
f 281/281/281 245/245/245 240/240/240
f 281/281/281 240/240/240 275/275/275
f 279/279/279 274/274/274 277/277/277
f 279/279/279 277/277/277 282/282/282
f 182/182/182 147/147/147 144/144/144
f 182/182/182 183/183/183 147/147/147
f 182/182/182 178/178/178 244/244/244
f 182/182/182 244/244/244 248/248/248
f 182/182/182 248/248/248 249/249/249
f 182/182/182 249/249/249 183/183/183
f 242/242/242 239/239/239 173/173/173
f 242/242/242 173/173/173 176/176/176
f 181/181/181 142/142/142 148/148/148
f 181/181/181 177/177/177 142/142/142
f 246/246/246 183/183/183 249/249/249
f 246/246/246 180/180/180 183/183/183
f 247/247/247 284/284/284 278/278/278
f 247/247/247 278/278/278 243/243/243
f 247/247/247 243/243/243 177/177/177
f 247/247/247 177/177/177 181/181/181
f 434/434/434 431/431/431 400/400/400
f 534/534/534 501/501/501 498/498/498
f 398/398/398 430/430/430 433/433/433
f 538/538/538 508/508/508 504/504/504
f 440/440/440 402/402/402 436/436/436
f 502/502/502 536/536/536 499/499/499
f 438/438/438 405/405/405 441/441/441
f 506/506/506 509/509/509 541/541/541
f 430/430/430 431/431/431 499/499/499
f 430/430/430 499/499/499 498/498/498
f 500/500/500 505/505/505 437/437/437
f 500/500/500 437/437/437 432/432/432
f 501/501/501 430/430/430 498/498/498
f 501/501/501 433/433/433 430/430/430
f 534/534/534 498/498/498 499/499/499
f 534/534/534 499/499/499 536/536/536
f 397/397/397 432/432/432 437/437/437
f 397/397/397 437/437/437 403/403/403
f 399/399/399 407/407/407 401/401/401
f 399/399/399 404/404/404 407/407/407
f 398/398/398 431/431/431 430/430/430
f 398/398/398 400/400/400 431/431/431
f 538/538/538 509/509/509 508/508/508
f 538/538/538 541/541/541 509/509/509
f 539/539/539 505/505/505 500/500/500
f 539/539/539 500/500/500 533/533/533
f 537/537/537 532/532/532 535/535/535
f 537/537/537 535/535/535 540/540/540
f 440/440/440 405/405/405 402/402/402
f 440/440/440 441/441/441 405/405/405
f 440/440/440 436/436/436 504/504/504
f 440/440/440 504/504/504 508/508/508
f 440/440/440 508/508/508 509/509/509
f 440/440/440 509/509/509 441/441/441
f 502/502/502 499/499/499 431/431/431
f 502/502/502 431/431/431 434/434/434
f 439/439/439 400/400/400 406/406/406
f 439/439/439 435/435/435 400/400/400
f 506/506/506 441/441/441 509/509/509
f 506/506/506 438/438/438 441/441/441
f 507/507/507 542/542/542 536/536/536
f 507/507/507 536/536/536 503/503/503
f 507/507/507 503/503/503 435/435/435
f 507/507/507 435/435/435 439/439/439
f 23/23/23 1/1/1 25/25/25
f 646/646/646 643/643/643 668/668/668
f 31/31/31 34/34/34 9/9/9
f 665/665/665 641/641/641 645/645/645
f 29/29/29 6/6/6 33/33/33
f 24/24/24 28/28/28 4/4/4
f 635/635/635 637/637/637 660/660/660
f 636/636/636 663/663/663 640/640/640
f 7/7/7 2/2/2 5/5/5
f 7/7/7 5/5/5 10/10/10
f 34/34/34 6/6/6 9/9/9
f 34/34/34 33/33/33 6/6/6
f 646/646/646 33/33/33 34/34/34
f 646/646/646 645/645/645 33/33/33
f 32/32/32 11/11/11 3/3/3
f 32/32/32 3/3/3 27/27/27
f 32/32/32 27/27/27 639/639/639
f 32/32/32 639/639/639 644/644/644
f 31/31/31 646/646/646 34/34/34
f 31/31/31 643/643/643 646/646/646
f 661/661/661 644/644/644 639/639/639
f 661/661/661 669/669/669 644/644/644
f 664/664/664 667/667/667 662/662/662
f 664/664/664 662/662/662 659/659/659
f 666/666/666 660/660/660 638/638/638
f 666/666/666 638/638/638 642/642/642
f 665/665/665 645/645/645 646/646/646
f 665/665/665 646/646/646 668/668/668
f 29/29/29 33/33/33 645/645/645
f 29/29/29 645/645/645 641/641/641
f 30/30/30 642/642/642 638/638/638
f 30/30/30 638/638/638 26/26/26
f 30/30/30 1/1/1 8/8/8
f 30/30/30 26/26/26 1/1/1
f 24/24/24 4/4/4 1/1/1
f 24/24/24 1/1/1 23/23/23
f 635/635/635 25/25/25 637/637/637
f 635/635/635 23/23/23 25/25/25
f 636/636/636 660/660/660 663/663/663
f 636/636/636 635/635/635 660/660/660
f 636/636/636 640/640/640 28/28/28
f 636/636/636 28/28/28 24/24/24
f 636/636/636 24/24/24 23/23/23
f 636/636/636 23/23/23 635/635/635
f 35/35/35 12/12/12 37/37/37
f 658/658/658 655/655/655 679/679/679
f 43/43/43 46/46/46 20/20/20
f 676/676/676 653/653/653 657/657/657
f 41/41/41 17/17/17 45/45/45
f 36/36/36 40/40/40 15/15/15
f 647/647/647 649/649/649 671/671/671
f 648/648/648 674/674/674 652/652/652
f 18/18/18 13/13/13 16/16/16
f 18/18/18 16/16/16 21/21/21
f 46/46/46 17/17/17 20/20/20
f 46/46/46 45/45/45 17/17/17
f 658/658/658 45/45/45 46/46/46
f 658/658/658 657/657/657 45/45/45
f 44/44/44 22/22/22 14/14/14
f 44/44/44 14/14/14 39/39/39
f 44/44/44 39/39/39 651/651/651
f 44/44/44 651/651/651 656/656/656
f 43/43/43 658/658/658 46/46/46
f 43/43/43 655/655/655 658/658/658
f 672/672/672 656/656/656 651/651/651
f 672/672/672 680/680/680 656/656/656
f 675/675/675 678/678/678 673/673/673
f 675/675/675 673/673/673 670/670/670
f 677/677/677 671/671/671 650/650/650
f 677/677/677 650/650/650 654/654/654
f 676/676/676 657/657/657 658/658/658
f 676/676/676 658/658/658 679/679/679
f 41/41/41 45/45/45 657/657/657
f 41/41/41 657/657/657 653/653/653
f 42/42/42 654/654/654 650/650/650
f 42/42/42 650/650/650 38/38/38
f 42/42/42 12/12/12 19/19/19
f 42/42/42 38/38/38 12/12/12
f 36/36/36 15/15/15 12/12/12
f 36/36/36 12/12/12 35/35/35
f 647/647/647 37/37/37 649/649/649
f 647/647/647 35/35/35 37/37/37
f 648/648/648 671/671/671 674/674/674
f 648/648/648 647/647/647 671/671/671
f 648/648/648 652/652/652 40/40/40
f 648/648/648 40/40/40 36/36/36
f 648/648/648 36/36/36 35/35/35
f 648/648/648 35/35/35 647/647/647
