# metres; Y up; ground-centred pivot
mtllib 03_Banco_Simple.mtl
v -0.9000000 0.4167439 -0.2238500
v -0.9000000 0.4167439 -0.2238500
v -0.9000000 0.4167439 -0.1461500
v -0.9000000 0.4167439 -0.1461500
v -0.9000000 0.4167439 -0.1461500
v -0.9000000 0.4167439 -0.1005167
v -0.9000000 0.4167439 -0.1005167
v -0.9000000 0.4167439 -0.0228167
v -0.9000000 0.4167439 -0.0228167
v -0.9000000 0.4167439 -0.0228167
v -0.9000000 0.4167439 0.0228167
v -0.9000000 0.4167439 0.0228167
v -0.9000000 0.4167439 0.1005167
v -0.9000000 0.4167439 0.1005167
v -0.9000000 0.4167439 0.1005167
v -0.9000000 0.4167439 0.1461500
v -0.9000000 0.4167439 0.1461500
v -0.9000000 0.4167439 0.2238500
v -0.9000000 0.4167439 0.2238500
v -0.9000000 0.4167439 0.2238500
v -0.9000000 0.4544439 -0.2238500
v -0.9000000 0.4544439 -0.2238500
v -0.9000000 0.4544439 -0.2238500
v -0.9000000 0.4544439 -0.1461500
v -0.9000000 0.4544439 -0.1461500
v -0.9000000 0.4544439 -0.1461500
v -0.9000000 0.4544439 -0.1005167
v -0.9000000 0.4544439 -0.1005167
v -0.9000000 0.4544439 -0.1005167
v -0.9000000 0.4544439 -0.0228167
v -0.9000000 0.4544439 -0.0228167
v -0.9000000 0.4544439 -0.0228167
v -0.9000000 0.4544439 0.0228167
v -0.9000000 0.4544439 0.0228167
v -0.9000000 0.4544439 0.0228167
v -0.9000000 0.4544439 0.1005167
v -0.9000000 0.4544439 0.1005167
v -0.9000000 0.4544439 0.1005167
v -0.9000000 0.4544439 0.1461500
v -0.9000000 0.4544439 0.1461500
v -0.9000000 0.4544439 0.1461500
v -0.9000000 0.4544439 0.2238500
v -0.9000000 0.4544439 0.2238500
v -0.9000000 0.4544439 0.2238500
v -0.8863500 0.4030939 -0.2238500
v -0.8863500 0.4030939 -0.1461500
v -0.8863500 0.4030939 -0.1005167
v -0.8863500 0.4030939 -0.0228167
v -0.8863500 0.4030939 0.0228167
v -0.8863500 0.4030939 0.1005167
v -0.8863500 0.4030939 0.1461500
v -0.8863500 0.4030939 0.2238500
v -0.8863500 0.4167439 -0.2375000
v -0.8863500 0.4167439 -0.2375000
v -0.8863500 0.4167439 -0.1325000
v -0.8863500 0.4167439 -0.1325000
v -0.8863500 0.4167439 -0.1141667
v -0.8863500 0.4167439 -0.1141667
v -0.8863500 0.4167439 -0.0091667
v -0.8863500 0.4167439 -0.0091667
v -0.8863500 0.4167439 0.0091667
v -0.8863500 0.4167439 0.0091667
v -0.8863500 0.4167439 0.1141667
v -0.8863500 0.4167439 0.1141667
v -0.8863500 0.4167439 0.1325000
v -0.8863500 0.4167439 0.1325000
v -0.8863500 0.4167439 0.2375000
v -0.8863500 0.4167439 0.2375000
v -0.8863500 0.4544439 -0.2375000
v -0.8863500 0.4544439 -0.2375000
v -0.8863500 0.4544439 -0.1325000
v -0.8863500 0.4544439 -0.1325000
v -0.8863500 0.4544439 -0.1141667
v -0.8863500 0.4544439 -0.1141667
v -0.8863500 0.4544439 -0.0091667
v -0.8863500 0.4544439 -0.0091667
v -0.8863500 0.4544439 0.0091667
v -0.8863500 0.4544439 0.0091667
v -0.8863500 0.4544439 0.1141667
v -0.8863500 0.4544439 0.1141667
v -0.8863500 0.4544439 0.1325000
v -0.8863500 0.4544439 0.1325000
v -0.8863500 0.4544439 0.2375000
v -0.8863500 0.4544439 0.2375000
v -0.8863500 0.4680939 -0.2238500
v -0.8863500 0.4680939 -0.1461500
v -0.8863500 0.4680939 -0.1005167
v -0.8863500 0.4680939 -0.0228167
v -0.8863500 0.4680939 0.0228167
v -0.8863500 0.4680939 0.1005167
v -0.8863500 0.4680939 0.1461500
v -0.8863500 0.4680939 0.2238500
v -0.7897232 0.3887208 -0.1549089
v -0.7897232 0.3887208 -0.1549089
v -0.7897232 0.3887208 0.1549089
v -0.7897232 0.3887208 0.1549089
v -0.7891258 0.3861322 -0.2041373
v -0.7891258 0.3861322 -0.2041373
v -0.7891258 0.3861322 0.2041373
v -0.7891258 0.3861322 0.2041373
v -0.7850000 0.2194939 -0.2311000
v -0.7850000 0.2194939 0.2311000
v -0.7850000 0.2916939 -0.2311000
v -0.7850000 0.2916939 0.2311000
v -0.7763382 0.4101022 -0.1558708
v -0.7763382 0.4101022 -0.1558708
v -0.7763382 0.4101022 -0.1558708
v -0.7763382 0.4101022 0.1558708
v -0.7763382 0.4101022 0.1558708
v -0.7757408 0.4075136 -0.2050992
v -0.7757408 0.4075136 -0.2050992
v -0.7757408 0.4075136 0.2050992
v -0.7757408 0.4075136 0.2050992
v -0.7757408 0.4075136 0.2050992
v -0.7725466 0.3936718 -0.1370848
v -0.7725466 0.3936718 0.1370848
v -0.7715166 0.3892087 -0.2219613
v -0.7715166 0.3892087 0.2219613
v -0.7661000 0.2005939 -0.2311000
v -0.7661000 0.2005939 -0.2311000
v -0.7661000 0.2005939 0.2311000
v -0.7661000 0.2005939 0.2311000
v -0.7661000 0.2194939 -0.2500000
v -0.7661000 0.2194939 -0.2500000
v -0.7661000 0.2194939 0.2500000
v -0.7661000 0.2194939 0.2500000
v -0.7661000 0.2916939 -0.2500000
v -0.7661000 0.2916939 -0.2500000
v -0.7661000 0.2916939 -0.2500000
v -0.7661000 0.2916939 0.2500000
v -0.7661000 0.2916939 0.2500000
v -0.7661000 0.2916939 0.2500000
v -0.7661000 0.3105939 -0.2311000
v -0.7661000 0.3105939 -0.2311000
v -0.7661000 0.3105939 0.2311000
v -0.7661000 0.3105939 0.2311000
v -0.7590000 0.1338439 -0.0217500
v -0.7590000 0.1338439 -0.0217500
v -0.7590000 0.1338439 0.0217500
v -0.7590000 0.1338439 0.0217500
v -0.7590000 0.1338439 0.0217500
v -0.7590000 0.1773439 -0.0217500
v -0.7590000 0.1773439 -0.0217500
v -0.7590000 0.1773439 -0.0217500
v -0.7590000 0.1773439 0.0217500
v -0.7590000 0.1773439 0.0217500
v -0.7432500 0.1180939 -0.0217500
v -0.7432500 0.1180939 0.0217500
v -0.7432500 0.1338439 -0.0375000
v -0.7432500 0.1338439 -0.0375000
v -0.7432500 0.1338439 0.0375000
v -0.7432500 0.1338439 0.0375000
v -0.7432500 0.1773439 -0.0375000
v -0.7432500 0.1773439 -0.0375000
v -0.7432500 0.1773439 0.0375000
v -0.7432500 0.1773439 0.0375000
v -0.7432500 0.1930939 -0.0217500
v -0.7432500 0.1930939 0.0217500
v -0.7283007 0.4211878 -0.1558708
v -0.7283007 0.4211878 -0.1558708
v -0.7283007 0.4211878 0.1558708
v -0.7283007 0.4211878 0.1558708
v -0.7283007 0.4211878 0.1558708
v -0.7277034 0.4185991 -0.2050992
v -0.7277034 0.4185991 -0.2050992
v -0.7277034 0.4185991 -0.2050992
v -0.7277034 0.4185991 0.2050992
v -0.7277034 0.4185991 0.2050992
v -0.7245091 0.4047574 -0.1370848
v -0.7245091 0.4047574 0.1370848
v -0.7234792 0.4002943 -0.2219613
v -0.7234792 0.4002943 0.2219613
v -0.7139000 0.2005939 -0.2311000
v -0.7139000 0.2005939 -0.2311000
v -0.7139000 0.2005939 0.2311000
v -0.7139000 0.2005939 0.2311000
v -0.7139000 0.2194939 -0.2500000
v -0.7139000 0.2194939 -0.2500000
v -0.7139000 0.2194939 -0.2500000
v -0.7139000 0.2194939 0.2500000
v -0.7139000 0.2194939 0.2500000
v -0.7139000 0.2194939 0.2500000
v -0.7139000 0.2916939 -0.2500000
v -0.7139000 0.2916939 -0.2500000
v -0.7139000 0.2916939 -0.2500000
v -0.7139000 0.2916939 0.2500000
v -0.7139000 0.2916939 0.2500000
v -0.7139000 0.2916939 0.2500000
v -0.7139000 0.3105939 -0.2311000
v -0.7139000 0.3105939 -0.2311000
v -0.7139000 0.3105939 0.2311000
v -0.7139000 0.3105939 0.2311000
v -0.7068999 0.4078339 -0.1549089
v -0.7068999 0.4078339 -0.1549089
v -0.7068999 0.4078339 0.1549089
v -0.7068999 0.4078339 0.1549089
v -0.7063026 0.4052453 -0.2041373
v -0.7063026 0.4052453 -0.2041373
v -0.7063026 0.4052453 0.2041373
v -0.7063026 0.4052453 0.2041373
v -0.7036974 0.0159425 -0.1342627
v -0.7036974 0.0159425 -0.1342627
v -0.7036974 0.0159425 0.1342627
v -0.7036974 0.0159425 0.1342627
v -0.7031001 0.0133539 -0.1834911
v -0.7031001 0.0133539 -0.1834911
v -0.7031001 0.0133539 0.1834911
v -0.7031001 0.0133539 0.1834911
v -0.6950000 0.2194939 -0.2311000
v -0.6950000 0.2194939 0.2311000
v -0.6950000 0.2916939 -0.2311000
v -0.6950000 0.2916939 0.2311000
v -0.6865208 0.0208935 -0.1164387
v -0.6865208 0.0208935 0.1164387
v -0.6854909 0.0164303 -0.2013152
v -0.6854909 0.0164303 0.2013152
v -0.6822966 0.0025886 -0.1333008
v -0.6822966 0.0025886 -0.1333008
v -0.6822966 0.0025886 -0.1333008
v -0.6822966 0.0025886 0.1333008
v -0.6822966 0.0025886 0.1333008
v -0.6816993 0.0000000 -0.1825292
v -0.6816993 0.0000000 -0.1825292
v -0.6816993 0.0000000 0.1825292
v -0.6816993 0.0000000 0.1825292
v -0.6816993 0.0000000 0.1825292
v -0.6384834 0.0319791 -0.1164387
v -0.6384834 0.0319791 0.1164387
v -0.6374534 0.0275159 -0.2013152
v -0.6374534 0.0275159 0.2013152
v -0.6342592 0.0136742 -0.1333008
v -0.6342592 0.0136742 -0.1333008
v -0.6342592 0.0136742 0.1333008
v -0.6342592 0.0136742 0.1333008
v -0.6342592 0.0136742 0.1333008
v -0.6336618 0.0110856 -0.1825292
v -0.6336618 0.0110856 -0.1825292
v -0.6336618 0.0110856 -0.1825292
v -0.6336618 0.0110856 0.1825292
v -0.6336618 0.0110856 0.1825292
v -0.6208742 0.0350556 -0.1342627
v -0.6208742 0.0350556 -0.1342627
v -0.6208742 0.0350556 0.1342627
v -0.6208742 0.0350556 0.1342627
v -0.6202768 0.0324669 -0.1834911
v -0.6202768 0.0324669 -0.1834911
v -0.6202768 0.0324669 0.1834911
v -0.6202768 0.0324669 0.1834911
v 0.6202768 0.0324669 -0.1834911
v 0.6202768 0.0324669 -0.1834911
v 0.6202768 0.0324669 0.1834911
v 0.6202768 0.0324669 0.1834911
v 0.6208742 0.0350556 -0.1342627
v 0.6208742 0.0350556 -0.1342627
v 0.6208742 0.0350556 0.1342627
v 0.6208742 0.0350556 0.1342627
v 0.6336618 0.0110856 -0.1825292
v 0.6336618 0.0110856 -0.1825292
v 0.6336618 0.0110856 0.1825292
v 0.6336618 0.0110856 0.1825292
v 0.6336618 0.0110856 0.1825292
v 0.6342592 0.0136742 -0.1333008
v 0.6342592 0.0136742 -0.1333008
v 0.6342592 0.0136742 -0.1333008
v 0.6342592 0.0136742 0.1333008
v 0.6342592 0.0136742 0.1333008
v 0.6374534 0.0275159 -0.2013152
v 0.6374534 0.0275159 0.2013152
v 0.6384834 0.0319791 -0.1164387
v 0.6384834 0.0319791 0.1164387
v 0.6816993 0.0000000 -0.1825292
v 0.6816993 0.0000000 -0.1825292
v 0.6816993 0.0000000 -0.1825292
v 0.6816993 0.0000000 0.1825292
v 0.6816993 0.0000000 0.1825292
v 0.6822966 0.0025886 -0.1333008
v 0.6822966 0.0025886 -0.1333008
v 0.6822966 0.0025886 0.1333008
v 0.6822966 0.0025886 0.1333008
v 0.6822966 0.0025886 0.1333008
v 0.6854909 0.0164303 -0.2013152
v 0.6854909 0.0164303 0.2013152
v 0.6865208 0.0208935 -0.1164387
v 0.6865208 0.0208935 0.1164387
v 0.6950000 0.2194939 -0.2311000
v 0.6950000 0.2194939 0.2311000
v 0.6950000 0.2916939 -0.2311000
v 0.6950000 0.2916939 0.2311000
v 0.7031001 0.0133539 -0.1834911
v 0.7031001 0.0133539 -0.1834911
v 0.7031001 0.0133539 0.1834911
v 0.7031001 0.0133539 0.1834911
v 0.7036974 0.0159425 -0.1342627
v 0.7036974 0.0159425 -0.1342627
v 0.7036974 0.0159425 0.1342627
v 0.7036974 0.0159425 0.1342627
v 0.7063026 0.4052453 -0.2041373
v 0.7063026 0.4052453 -0.2041373
v 0.7063026 0.4052453 0.2041373
v 0.7063026 0.4052453 0.2041373
v 0.7068999 0.4078339 -0.1549089
v 0.7068999 0.4078339 -0.1549089
v 0.7068999 0.4078339 0.1549089
v 0.7068999 0.4078339 0.1549089
v 0.7139000 0.2005939 -0.2311000
v 0.7139000 0.2005939 -0.2311000
v 0.7139000 0.2005939 0.2311000
v 0.7139000 0.2005939 0.2311000
v 0.7139000 0.2194939 -0.2500000
v 0.7139000 0.2194939 -0.2500000
v 0.7139000 0.2194939 0.2500000
v 0.7139000 0.2194939 0.2500000
v 0.7139000 0.2916939 -0.2500000
v 0.7139000 0.2916939 -0.2500000
v 0.7139000 0.2916939 -0.2500000
v 0.7139000 0.2916939 0.2500000
v 0.7139000 0.2916939 0.2500000
v 0.7139000 0.2916939 0.2500000
v 0.7139000 0.3105939 -0.2311000
v 0.7139000 0.3105939 -0.2311000
v 0.7139000 0.3105939 0.2311000
v 0.7139000 0.3105939 0.2311000
v 0.7234792 0.4002943 -0.2219613
v 0.7234792 0.4002943 0.2219613
v 0.7245091 0.4047574 -0.1370848
v 0.7245091 0.4047574 0.1370848
v 0.7277034 0.4185991 -0.2050992
v 0.7277034 0.4185991 -0.2050992
v 0.7277034 0.4185991 0.2050992
v 0.7277034 0.4185991 0.2050992
v 0.7277034 0.4185991 0.2050992
v 0.7283007 0.4211878 -0.1558708
v 0.7283007 0.4211878 -0.1558708
v 0.7283007 0.4211878 -0.1558708
v 0.7283007 0.4211878 0.1558708
v 0.7283007 0.4211878 0.1558708
v 0.7432500 0.1180939 -0.0217500
v 0.7432500 0.1180939 0.0217500
v 0.7432500 0.1338439 -0.0375000
v 0.7432500 0.1338439 -0.0375000
v 0.7432500 0.1338439 0.0375000
v 0.7432500 0.1338439 0.0375000
v 0.7432500 0.1773439 -0.0375000
v 0.7432500 0.1773439 -0.0375000
v 0.7432500 0.1773439 0.0375000
v 0.7432500 0.1773439 0.0375000
v 0.7432500 0.1930939 -0.0217500
v 0.7432500 0.1930939 0.0217500
v 0.7590000 0.1338439 -0.0217500
v 0.7590000 0.1338439 -0.0217500
v 0.7590000 0.1338439 0.0217500
v 0.7590000 0.1338439 0.0217500
v 0.7590000 0.1338439 0.0217500
v 0.7590000 0.1773439 -0.0217500
v 0.7590000 0.1773439 -0.0217500
v 0.7590000 0.1773439 -0.0217500
v 0.7590000 0.1773439 0.0217500
v 0.7590000 0.1773439 0.0217500
v 0.7661000 0.2005939 -0.2311000
v 0.7661000 0.2005939 -0.2311000
v 0.7661000 0.2005939 0.2311000
v 0.7661000 0.2005939 0.2311000
v 0.7661000 0.2194939 -0.2500000
v 0.7661000 0.2194939 -0.2500000
v 0.7661000 0.2194939 -0.2500000
v 0.7661000 0.2194939 0.2500000
v 0.7661000 0.2194939 0.2500000
v 0.7661000 0.2194939 0.2500000
v 0.7661000 0.2916939 -0.2500000
v 0.7661000 0.2916939 -0.2500000
v 0.7661000 0.2916939 -0.2500000
v 0.7661000 0.2916939 0.2500000
v 0.7661000 0.2916939 0.2500000
v 0.7661000 0.2916939 0.2500000
v 0.7661000 0.3105939 -0.2311000
v 0.7661000 0.3105939 -0.2311000
v 0.7661000 0.3105939 0.2311000
v 0.7661000 0.3105939 0.2311000
v 0.7715166 0.3892087 -0.2219613
v 0.7715166 0.3892087 0.2219613
v 0.7725466 0.3936718 -0.1370848
v 0.7725466 0.3936718 0.1370848
v 0.7757408 0.4075136 -0.2050992
v 0.7757408 0.4075136 -0.2050992
v 0.7757408 0.4075136 -0.2050992
v 0.7757408 0.4075136 0.2050992
v 0.7757408 0.4075136 0.2050992
v 0.7763382 0.4101022 -0.1558708
v 0.7763382 0.4101022 -0.1558708
v 0.7763382 0.4101022 0.1558708
v 0.7763382 0.4101022 0.1558708
v 0.7763382 0.4101022 0.1558708
v 0.7850000 0.2194939 -0.2311000
v 0.7850000 0.2194939 0.2311000
v 0.7850000 0.2916939 -0.2311000
v 0.7850000 0.2916939 0.2311000
v 0.7891258 0.3861322 -0.2041373
v 0.7891258 0.3861322 -0.2041373
v 0.7891258 0.3861322 0.2041373
v 0.7891258 0.3861322 0.2041373
v 0.7897232 0.3887208 -0.1549089
v 0.7897232 0.3887208 -0.1549089
v 0.7897232 0.3887208 0.1549089
v 0.7897232 0.3887208 0.1549089
v 0.8863500 0.4030939 -0.2238500
v 0.8863500 0.4030939 -0.1461500
v 0.8863500 0.4030939 -0.1005167
v 0.8863500 0.4030939 -0.0228167
v 0.8863500 0.4030939 0.0228167
v 0.8863500 0.4030939 0.1005167
v 0.8863500 0.4030939 0.1461500
v 0.8863500 0.4030939 0.2238500
v 0.8863500 0.4167439 -0.2375000
v 0.8863500 0.4167439 -0.2375000
v 0.8863500 0.4167439 -0.1325000
v 0.8863500 0.4167439 -0.1325000
v 0.8863500 0.4167439 -0.1141667
v 0.8863500 0.4167439 -0.1141667
v 0.8863500 0.4167439 -0.0091667
v 0.8863500 0.4167439 -0.0091667
v 0.8863500 0.4167439 0.0091667
v 0.8863500 0.4167439 0.0091667
v 0.8863500 0.4167439 0.1141667
v 0.8863500 0.4167439 0.1141667
v 0.8863500 0.4167439 0.1325000
v 0.8863500 0.4167439 0.1325000
v 0.8863500 0.4167439 0.2375000
v 0.8863500 0.4167439 0.2375000
v 0.8863500 0.4544439 -0.2375000
v 0.8863500 0.4544439 -0.2375000
v 0.8863500 0.4544439 -0.1325000
v 0.8863500 0.4544439 -0.1325000
v 0.8863500 0.4544439 -0.1141667
v 0.8863500 0.4544439 -0.1141667
v 0.8863500 0.4544439 -0.0091667
v 0.8863500 0.4544439 -0.0091667
v 0.8863500 0.4544439 0.0091667
v 0.8863500 0.4544439 0.0091667
v 0.8863500 0.4544439 0.1141667
v 0.8863500 0.4544439 0.1141667
v 0.8863500 0.4544439 0.1325000
v 0.8863500 0.4544439 0.1325000
v 0.8863500 0.4544439 0.2375000
v 0.8863500 0.4544439 0.2375000
v 0.8863500 0.4680939 -0.2238500
v 0.8863500 0.4680939 -0.1461500
v 0.8863500 0.4680939 -0.1005167
v 0.8863500 0.4680939 -0.0228167
v 0.8863500 0.4680939 0.0228167
v 0.8863500 0.4680939 0.1005167
v 0.8863500 0.4680939 0.1461500
v 0.8863500 0.4680939 0.2238500
v 0.9000000 0.4167439 -0.2238500
v 0.9000000 0.4167439 -0.2238500
v 0.9000000 0.4167439 -0.1461500
v 0.9000000 0.4167439 -0.1461500
v 0.9000000 0.4167439 -0.1461500
v 0.9000000 0.4167439 -0.1005167
v 0.9000000 0.4167439 -0.1005167
v 0.9000000 0.4167439 -0.0228167
v 0.9000000 0.4167439 -0.0228167
v 0.9000000 0.4167439 -0.0228167
v 0.9000000 0.4167439 0.0228167
v 0.9000000 0.4167439 0.0228167
v 0.9000000 0.4167439 0.1005167
v 0.9000000 0.4167439 0.1005167
v 0.9000000 0.4167439 0.1005167
v 0.9000000 0.4167439 0.1461500
v 0.9000000 0.4167439 0.1461500
v 0.9000000 0.4167439 0.2238500
v 0.9000000 0.4167439 0.2238500
v 0.9000000 0.4167439 0.2238500
v 0.9000000 0.4544439 -0.2238500
v 0.9000000 0.4544439 -0.2238500
v 0.9000000 0.4544439 -0.2238500
v 0.9000000 0.4544439 -0.1461500
v 0.9000000 0.4544439 -0.1461500
v 0.9000000 0.4544439 -0.1461500
v 0.9000000 0.4544439 -0.1005167
v 0.9000000 0.4544439 -0.1005167
v 0.9000000 0.4544439 -0.1005167
v 0.9000000 0.4544439 -0.0228167
v 0.9000000 0.4544439 -0.0228167
v 0.9000000 0.4544439 -0.0228167
v 0.9000000 0.4544439 0.0228167
v 0.9000000 0.4544439 0.0228167
v 0.9000000 0.4544439 0.0228167
v 0.9000000 0.4544439 0.1005167
v 0.9000000 0.4544439 0.1005167
v 0.9000000 0.4544439 0.1005167
v 0.9000000 0.4544439 0.1461500
v 0.9000000 0.4544439 0.1461500
v 0.9000000 0.4544439 0.1461500
v 0.9000000 0.4544439 0.2238500
v 0.9000000 0.4544439 0.2238500
v 0.9000000 0.4544439 0.2238500
vt 0.0945142 0.0495838
vt 0.0945142 0.0535985
vt 0.0945142 0.0495838
vt 0.0945142 0.0764515
vt 0.2055142 0.0495838
vt 0.1455613 0.0887024
vt 0.1455613 0.0927172
vt 0.1455613 0.0887024
vt 0.1455613 0.1155701
vt 0.2565613 0.0887024
vt 0.1233885 0.0487206
vt 0.1233885 0.0527353
vt 0.1233885 0.0487206
vt 0.1233885 0.0755882
vt 0.2343885 0.0487206
vt 0.1247016 0.0930403
vt 0.1247016 0.0970550
vt 0.1247016 0.0930403
vt 0.1247016 0.1199079
vt 0.2357016 0.0930403
vt 0.0945142 0.0495838
vt 0.1483713 0.0495838
vt 0.1483713 0.0535985
vt 0.1483713 0.0495838
vt 0.1483713 0.0764515
vt 0.2055142 0.0495838
vt 0.1455613 0.0887024
vt 0.1994184 0.0887024
vt 0.1994184 0.0927172
vt 0.1994184 0.0887024
vt 0.1994184 0.1155701
vt 0.2565613 0.0887024
vt 0.1233885 0.0487206
vt 0.1772456 0.0487206
vt 0.1772456 0.0527353
vt 0.1772456 0.0487206
vt 0.1772456 0.0755882
vt 0.2343885 0.0487206
vt 0.1247016 0.0930403
vt 0.1785587 0.0930403
vt 0.1785587 0.0970550
vt 0.1785587 0.0930403
vt 0.1785587 0.1199079
vt 0.2357016 0.0930403
vt 0.0945142 0.0535985
vt 0.2055142 0.0535985
vt 0.1455613 0.0927172
vt 0.2565613 0.0927172
vt 0.1233885 0.0527353
vt 0.2343885 0.0527353
vt 0.1247016 0.0970550
vt 0.2357016 0.0970550
vt 0.0750142 0.0535985
vt 0.0945142 0.0535985
vt 0.0945142 0.0535985
vt 0.2250142 0.0535985
vt 0.1260613 0.0927172
vt 0.1455613 0.0927172
vt 0.1455613 0.0927172
vt 0.2760613 0.0927172
vt 0.1038885 0.0527353
vt 0.1233885 0.0527353
vt 0.1233885 0.0527353
vt 0.2538885 0.0527353
vt 0.1052016 0.0970550
vt 0.1247016 0.0970550
vt 0.1247016 0.0970550
vt 0.2552016 0.0970550
vt 0.0750142 0.0535985
vt 0.1483713 0.0535985
vt 0.1483713 0.0535985
vt 0.2250142 0.0535985
vt 0.1260613 0.0927172
vt 0.1994184 0.0927172
vt 0.1994184 0.0927172
vt 0.2760613 0.0927172
vt 0.1038885 0.0527353
vt 0.1772456 0.0527353
vt 0.1772456 0.0527353
vt 0.2538885 0.0527353
vt 0.1052016 0.0970550
vt 0.1785587 0.0970550
vt 0.1785587 0.0970550
vt 0.2552016 0.0970550
vt 0.0945142 0.0535985
vt 0.2055142 0.0535985
vt 0.1455613 0.0927172
vt 0.2565613 0.0927172
vt 0.1233885 0.0527353
vt 0.2343885 0.0527353
vt 0.1247016 0.0970550
vt 0.2357016 0.0970550
vt 0.0569360 0.1502527
vt 0.1528645 0.1502527
vt 0.0859513 0.2305558
vt 0.1114513 0.2305558
vt 0.0569360 0.1502527
vt 0.0824360 0.1502527
vt 0.0859513 0.2305558
vt 0.1818799 0.2305558
vt 0.1048129 0.0503063
vt 0.1048129 0.1862475
vt 0.2079557 0.0503063
vt 0.2079557 0.1862475
vt 0.0824360 0.0520667
vt 0.0824360 0.1555027
vt 0.1528645 0.1555027
vt 0.1114513 0.1178698
vt 0.1114513 0.2358058
vt 0.0824360 0.0375667
vt 0.0824360 0.1555027
vt 0.1114513 0.1323698
vt 0.1114513 0.2358058
vt 0.1818799 0.2358058
vt 0.0824360 0.1502527
vt 0.1114513 0.2305558
vt 0.0824360 0.1502527
vt 0.1114513 0.2305558
vt 0.0778129 0.0503063
vt 0.1048129 0.0503063
vt 0.0778129 0.1862475
vt 0.1048129 0.1862475
vt 0.1048129 0.0447475
vt 0.1048129 0.0503063
vt 0.1048129 0.0503063
vt 0.1048129 0.1918063
vt 0.1048129 0.0447475
vt 0.1048129 0.0715416
vt 0.2079557 0.0447475
vt 0.1048129 0.0715416
vt 0.1048129 0.1918063
vt 0.2079557 0.1918063
vt 0.1048129 0.0503063
vt 0.2349557 0.0503063
vt 0.1048129 0.1862475
vt 0.2349557 0.1862475
vt 0.0830093 0.1277487
vt 0.0830093 0.1323811
vt 0.0830093 0.1277487
vt 0.1451521 0.1277487
vt 0.1451521 0.1323811
vt 0.0830093 0.1277487
vt 0.0830093 0.1451752
vt 0.1451521 0.1277487
vt 0.1451521 0.1277487
vt 0.1451521 0.1451752
vt 0.0830093 0.1323811
vt 0.1451521 0.1323811
vt 0.0605093 0.1323811
vt 0.0830093 0.1323811
vt 0.0830093 0.1323811
vt 0.1676521 0.1323811
vt 0.0605093 0.1323811
vt 0.1451521 0.1323811
vt 0.1451521 0.1323811
vt 0.1676521 0.1323811
vt 0.0830093 0.1323811
vt 0.1451521 0.1323811
vt 0.1528645 0.0520667
vt 0.1528645 0.1555027
vt 0.1114513 0.2358058
vt 0.1818799 0.1178698
vt 0.1818799 0.2358058
vt 0.0824360 0.1555027
vt 0.1528645 0.0375667
vt 0.1528645 0.1555027
vt 0.1818799 0.1323698
vt 0.1818799 0.2358058
vt 0.1528645 0.1502527
vt 0.1818799 0.2305558
vt 0.1528645 0.1502527
vt 0.1818799 0.2305558
vt 0.0778129 0.0503063
vt 0.1793843 0.0503063
vt 0.0778129 0.1862475
vt 0.1793843 0.1862475
vt 0.1048129 0.0447475
vt 0.1793843 0.0447475
vt 0.1793843 0.0503063
vt 0.1048129 0.1918063
vt 0.1793843 0.0503063
vt 0.1793843 0.1918063
vt 0.1793843 0.0447475
vt 0.1793843 0.0715416
vt 0.2079557 0.0447475
vt 0.1793843 0.0715416
vt 0.1793843 0.1918063
vt 0.2079557 0.1918063
vt 0.1793843 0.0503063
vt 0.2349557 0.0503063
vt 0.1793843 0.1862475
vt 0.2349557 0.1862475
vt 0.1528645 0.1502527
vt 0.1783645 0.1502527
vt 0.1114513 0.2305558
vt 0.2073799 0.2305558
vt 0.0824360 0.1502527
vt 0.1783645 0.1502527
vt 0.1818799 0.2305558
vt 0.2073799 0.2305558
vt 0.0569360 0.0375667
vt 0.1528645 0.0375667
vt 0.0859513 0.1178698
vt 0.1114513 0.1178698
vt 0.0569360 0.0375667
vt 0.0824360 0.0375667
vt 0.0859513 0.1178698
vt 0.1818799 0.1178698
vt 0.1048129 0.0503063
vt 0.1048129 0.1862475
vt 0.2079557 0.0503063
vt 0.2079557 0.1862475
vt 0.0824360 0.0375667
vt 0.1114513 0.1178698
vt 0.0824360 0.0375667
vt 0.1114513 0.1178698
vt 0.0824360 0.0323167
vt 0.0824360 0.0520667
vt 0.1528645 0.0323167
vt 0.1114513 0.1126198
vt 0.1114513 0.1178698
vt 0.0824360 0.0323167
vt 0.0824360 0.0375667
vt 0.1114513 0.1126198
vt 0.1114513 0.1323698
vt 0.1818799 0.1126198
vt 0.1528645 0.0375667
vt 0.1818799 0.1178698
vt 0.1528645 0.0375667
vt 0.1818799 0.1178698
vt 0.1528645 0.0323167
vt 0.1528645 0.0520667
vt 0.1114513 0.1126198
vt 0.1818799 0.1126198
vt 0.1818799 0.1178698
vt 0.0824360 0.0323167
vt 0.1528645 0.0323167
vt 0.1528645 0.0375667
vt 0.1818799 0.1126198
vt 0.1818799 0.1323698
vt 0.1528645 0.0375667
vt 0.1783645 0.0375667
vt 0.1114513 0.1178698
vt 0.2073799 0.1178698
vt 0.0824360 0.0375667
vt 0.1783645 0.0375667
vt 0.1818799 0.1178698
vt 0.2073799 0.1178698
vt 0.0754846 0.1123403
vt 0.1009846 0.1123403
vt 0.0624422 0.0878070
vt 0.1583708 0.0878070
vt 0.0754846 0.1123403
vt 0.1714132 0.1123403
vt 0.0624422 0.0878070
vt 0.0879422 0.0878070
vt 0.1009846 0.1070903
vt 0.1009846 0.1123403
vt 0.0879422 0.0825570
vt 0.0879422 0.1023070
vt 0.1583708 0.0825570
vt 0.1009846 0.1070903
vt 0.1009846 0.1268403
vt 0.1714132 0.1070903
vt 0.0879422 0.0825570
vt 0.0879422 0.0878070
vt 0.1009846 0.1123403
vt 0.0879422 0.0878070
vt 0.1009846 0.1123403
vt 0.0879422 0.0878070
vt 0.1009846 0.1070903
vt 0.1714132 0.1070903
vt 0.1714132 0.1123403
vt 0.1583708 0.0825570
vt 0.1583708 0.1023070
vt 0.1714132 0.1070903
vt 0.1714132 0.1268403
vt 0.0879422 0.0825570
vt 0.1583708 0.0825570
vt 0.1583708 0.0878070
vt 0.1714132 0.1123403
vt 0.1583708 0.0878070
vt 0.1714132 0.1123403
vt 0.1583708 0.0878070
vt 0.0697837 0.0507528
vt 0.0697837 0.1866940
vt 0.1729265 0.0507528
vt 0.1729265 0.1866940
vt 0.1009846 0.1123403
vt 0.1969132 0.1123403
vt 0.1583708 0.0878070
vt 0.1838708 0.0878070
vt 0.1714132 0.1123403
vt 0.1969132 0.1123403
vt 0.0879422 0.0878070
vt 0.1838708 0.0878070
vt 0.0754846 0.2250263
vt 0.1009846 0.2250263
vt 0.0624422 0.2004929
vt 0.1583708 0.2004929
vt 0.0754846 0.2250263
vt 0.1714132 0.2250263
vt 0.0624422 0.2004929
vt 0.0879422 0.2004929
vt 0.0427837 0.0507528
vt 0.0697837 0.0507528
vt 0.0427837 0.1866940
vt 0.0697837 0.1866940
vt 0.0697837 0.0451940
vt 0.0697837 0.0507528
vt 0.0697837 0.0507528
vt 0.0697837 0.1922528
vt 0.0697837 0.0451940
vt 0.0697837 0.0719881
vt 0.1729265 0.0451940
vt 0.0697837 0.0719881
vt 0.0697837 0.1922528
vt 0.1729265 0.1922528
vt 0.0697837 0.0507528
vt 0.1999265 0.0507528
vt 0.0697837 0.1866940
vt 0.1999265 0.1866940
vt 0.1009846 0.2250263
vt 0.0879422 0.2004929
vt 0.1009846 0.2250263
vt 0.0879422 0.2004929
vt 0.1009846 0.1123403
vt 0.1009846 0.2302763
vt 0.0879422 0.1023070
vt 0.0879422 0.2057429
vt 0.1583708 0.2057429
vt 0.1009846 0.1268403
vt 0.1009846 0.2302763
vt 0.1714132 0.2302763
vt 0.0879422 0.0878070
vt 0.0879422 0.2057429
vt 0.0830093 0.5695869
vt 0.1451521 0.5695869
vt 0.0605093 0.5695869
vt 0.0830093 0.5695869
vt 0.0830093 0.5695869
vt 0.1676521 0.5695869
vt 0.0605093 0.5695869
vt 0.1451521 0.5695869
vt 0.1451521 0.5695869
vt 0.1676521 0.5695869
vt 0.0830093 0.5695869
vt 0.1451521 0.5695869
vt 0.0830093 0.1323811
vt 0.0830093 0.5742193
vt 0.0830093 0.5742193
vt 0.1451521 0.1323811
vt 0.1451521 0.5742193
vt 0.0830093 0.1451752
vt 0.0830093 0.5742193
vt 0.1451521 0.5742193
vt 0.1451521 0.1451752
vt 0.1451521 0.5742193
vt 0.0427837 0.0507528
vt 0.1443551 0.0507528
vt 0.0427837 0.1866940
vt 0.1443551 0.1866940
vt 0.0697837 0.0451940
vt 0.1443551 0.0451940
vt 0.1443551 0.0507528
vt 0.0697837 0.1922528
vt 0.1443551 0.0507528
vt 0.1443551 0.1922528
vt 0.1443551 0.0451940
vt 0.1443551 0.0719881
vt 0.1729265 0.0451940
vt 0.1443551 0.0719881
vt 0.1443551 0.1922528
vt 0.1729265 0.1922528
vt 0.1443551 0.0507528
vt 0.1999265 0.0507528
vt 0.1443551 0.1866940
vt 0.1999265 0.1866940
vt 0.1714132 0.2250263
vt 0.1583708 0.2004929
vt 0.1714132 0.2250263
vt 0.1583708 0.2004929
vt 0.1009846 0.2302763
vt 0.1714132 0.1123403
vt 0.1714132 0.2302763
vt 0.1583708 0.1023070
vt 0.1583708 0.2057429
vt 0.1714132 0.1268403
vt 0.1714132 0.2302763
vt 0.0879422 0.2057429
vt 0.1583708 0.0878070
vt 0.1583708 0.2057429
vt 0.0697837 0.0507528
vt 0.0697837 0.1866940
vt 0.1729265 0.0507528
vt 0.1729265 0.1866940
vt 0.1009846 0.2250263
vt 0.1969132 0.2250263
vt 0.1583708 0.2004929
vt 0.1838708 0.2004929
vt 0.1714132 0.2250263
vt 0.1969132 0.2250263
vt 0.0879422 0.2004929
vt 0.1838708 0.2004929
vt 0.0945142 0.5749809
vt 0.2055142 0.5749809
vt 0.1455613 0.6140995
vt 0.2565613 0.6140995
vt 0.1233885 0.5741176
vt 0.2343885 0.5741176
vt 0.1247016 0.6184373
vt 0.2357016 0.6184373
vt 0.0750142 0.5749809
vt 0.0945142 0.5749809
vt 0.0945142 0.5749809
vt 0.2250142 0.5749809
vt 0.1260613 0.6140995
vt 0.1455613 0.6140995
vt 0.1455613 0.6140995
vt 0.2760613 0.6140995
vt 0.1038885 0.5741176
vt 0.1233885 0.5741176
vt 0.1233885 0.5741176
vt 0.2538885 0.5741176
vt 0.1052016 0.6184373
vt 0.1247016 0.6184373
vt 0.1247016 0.6184373
vt 0.2552016 0.6184373
vt 0.0750142 0.5749809
vt 0.1483713 0.5749809
vt 0.1483713 0.5749809
vt 0.2250142 0.5749809
vt 0.1260613 0.6140995
vt 0.1994184 0.6140995
vt 0.1994184 0.6140995
vt 0.2760613 0.6140995
vt 0.1038885 0.5741176
vt 0.1772456 0.5741176
vt 0.1772456 0.5741176
vt 0.2538885 0.5741176
vt 0.1052016 0.6184373
vt 0.1785587 0.6184373
vt 0.1785587 0.6184373
vt 0.2552016 0.6184373
vt 0.0945142 0.5749809
vt 0.2055142 0.5749809
vt 0.1455613 0.6140995
vt 0.2565613 0.6140995
vt 0.1233885 0.5741176
vt 0.2343885 0.5741176
vt 0.1247016 0.6184373
vt 0.2357016 0.6184373
vt 0.0945142 0.0535985
vt 0.0945142 0.5789956
vt 0.0945142 0.0764515
vt 0.0945142 0.5789956
vt 0.2055142 0.5789956
vt 0.1455613 0.0927172
vt 0.1455613 0.6181142
vt 0.1455613 0.1155701
vt 0.1455613 0.6181142
vt 0.2565613 0.6181142
vt 0.1233885 0.0527353
vt 0.1233885 0.5781323
vt 0.1233885 0.0755882
vt 0.1233885 0.5781323
vt 0.2343885 0.5781323
vt 0.1247016 0.0970550
vt 0.1247016 0.6224520
vt 0.1247016 0.1199079
vt 0.1247016 0.6224520
vt 0.2357016 0.6224520
vt 0.0945142 0.5789956
vt 0.1483713 0.0535985
vt 0.1483713 0.5789956
vt 0.1483713 0.0764515
vt 0.1483713 0.5789956
vt 0.2055142 0.5789956
vt 0.1455613 0.6181142
vt 0.1994184 0.0927172
vt 0.1994184 0.6181142
vt 0.1994184 0.1155701
vt 0.1994184 0.6181142
vt 0.2565613 0.6181142
vt 0.1233885 0.5781323
vt 0.1772456 0.0527353
vt 0.1772456 0.5781323
vt 0.1772456 0.0755882
vt 0.1772456 0.5781323
vt 0.2343885 0.5781323
vt 0.1247016 0.6224520
vt 0.1785587 0.0970550
vt 0.1785587 0.6224520
vt 0.1785587 0.1199079
vt 0.1785587 0.6224520
vt 0.2357016 0.6224520
vn -0.9232201 -0.3399855 -0.1790932
vn -0.9232201 -0.3399855 -0.1790932
vn -0.9778465 -0.1498889 0.1461150
vn -0.9778465 -0.1498889 0.1461150
vn -0.9778465 -0.1498889 0.1461150
vn -0.9232201 -0.3399855 -0.1790932
vn -0.9232201 -0.3399855 -0.1790932
vn -0.9778465 -0.1498889 0.1461150
vn -0.9778465 -0.1498889 0.1461150
vn -0.9778465 -0.1498889 0.1461150
vn -0.9232201 -0.3399855 -0.1790932
vn -0.9232201 -0.3399855 -0.1790932
vn -0.9778465 -0.1498889 0.1461150
vn -0.9778465 -0.1498889 0.1461150
vn -0.9778465 -0.1498889 0.1461150
vn -0.9232201 -0.3399855 -0.1790932
vn -0.9232201 -0.3399855 -0.1790932
vn -0.9778465 -0.1498889 0.1461150
vn -0.9778465 -0.1498889 0.1461150
vn -0.9778465 -0.1498889 0.1461150
vn -0.9635085 0.2561225 -0.0777988
vn -0.9635085 0.2561225 -0.0777988
vn -0.9635085 0.2561225 -0.0777988
vn -0.9565154 0.2542636 0.1429276
vn -0.9565154 0.2542636 0.1429276
vn -0.9565154 0.2542636 0.1429276
vn -0.9635085 0.2561225 -0.0777988
vn -0.9635085 0.2561225 -0.0777988
vn -0.9635085 0.2561225 -0.0777988
vn -0.9565154 0.2542636 0.1429276
vn -0.9565154 0.2542636 0.1429276
vn -0.9565154 0.2542636 0.1429276
vn -0.9635085 0.2561225 -0.0777988
vn -0.9635085 0.2561225 -0.0777988
vn -0.9635085 0.2561225 -0.0777988
vn -0.9565154 0.2542636 0.1429276
vn -0.9565154 0.2542636 0.1429276
vn -0.9565154 0.2542636 0.1429276
vn -0.9635085 0.2561225 -0.0777988
vn -0.9635085 0.2561225 -0.0777988
vn -0.9635085 0.2561225 -0.0777988
vn -0.9565154 0.2542636 0.1429276
vn -0.9565154 0.2542636 0.1429276
vn -0.9565154 0.2542636 0.1429276
vn -0.0041301 -0.9967247 -0.0807645
vn -0.0138958 -0.9890631 0.1468367
vn -0.0041301 -0.9967247 -0.0807645
vn -0.0138958 -0.9890631 0.1468367
vn -0.0041301 -0.9967247 -0.0807645
vn -0.0138958 -0.9890631 0.1468367
vn -0.0041301 -0.9967247 -0.0807645
vn -0.0138958 -0.9890631 0.1468367
vn -0.0055764 -0.3864955 -0.9222744
vn -0.0055764 -0.3864955 -0.9222744
vn -0.0037065 -0.2568994 0.9664310
vn -0.0037065 -0.2568994 0.9664310
vn -0.0055764 -0.3864955 -0.9222744
vn -0.0055764 -0.3864955 -0.9222744
vn -0.0037065 -0.2568994 0.9664310
vn -0.0037065 -0.2568994 0.9664310
vn -0.0055764 -0.3864955 -0.9222744
vn -0.0055764 -0.3864955 -0.9222744
vn -0.0037065 -0.2568994 0.9664310
vn -0.0037065 -0.2568994 0.9664310
vn -0.0055764 -0.3864955 -0.9222744
vn -0.0055764 -0.3864955 -0.9222744
vn -0.0037065 -0.2568994 0.9664310
vn -0.0037065 -0.2568994 0.9664310
vn -0.0064109 0.2562220 -0.9665967
vn -0.0064109 0.2562220 -0.9665967
vn -0.0127388 0.2555411 0.9667143
vn -0.0127388 0.2555411 0.9667143
vn -0.0064109 0.2562220 -0.9665967
vn -0.0064109 0.2562220 -0.9665967
vn -0.0127388 0.2555411 0.9667143
vn -0.0127388 0.2555411 0.9667143
vn -0.0064109 0.2562220 -0.9665967
vn -0.0064109 0.2562220 -0.9665967
vn -0.0127388 0.2555411 0.9667143
vn -0.0127388 0.2555411 0.9667143
vn -0.0064109 0.2562220 -0.9665967
vn -0.0064109 0.2562220 -0.9665967
vn -0.0127388 0.2555411 0.9667143
vn -0.0127388 0.2555411 0.9667143
vn -0.0075572 0.9889913 -0.1477803
vn -0.0069971 0.9890655 0.1473108
vn -0.0075572 0.9889913 -0.1477803
vn -0.0069971 0.9890655 0.1473108
vn -0.0075572 0.9889913 -0.1477803
vn -0.0069971 0.9890655 0.1473108
vn -0.0075572 0.9889913 -0.1477803
vn -0.0069971 0.9890655 0.1473108
vn -0.9535790 -0.1618147 0.2539746
vn -0.9535790 -0.1618147 0.2539746
vn -0.9739152 -0.1713294 -0.1487797
vn -0.9739152 -0.1713294 -0.1487797
vn -0.9702469 -0.1872255 -0.1535175
vn -0.9702469 -0.1872255 -0.1535175
vn -0.9473589 -0.1887684 0.2586070
vn -0.9473589 -0.1887684 0.2586070
vn -0.9480622 -0.3134232 -0.0542585
vn -0.9926134 -0.1148830 0.0389948
vn -0.9789616 0.2030996 -0.0196145
vn -0.9784264 0.2029886 0.0384375
vn -0.4360232 0.8827605 0.1749791
vn -0.4360232 0.8827605 0.1749791
vn -0.4360232 0.8827605 0.1749791
vn -0.4073723 0.8616664 -0.3026199
vn -0.4073723 0.8616664 -0.3026199
vn -0.3988330 0.8246630 -0.4010774
vn -0.3988330 0.8246630 -0.4010774
vn -0.4305375 0.8589891 0.2770833
vn -0.4305375 0.8589891 0.2770833
vn -0.4305375 0.8589891 0.2770833
vn -0.2669080 0.0143814 0.9636147
vn -0.3914704 -0.0056898 -0.9201731
vn -0.3690952 -0.1026488 -0.9237056
vn -0.2434926 -0.0870852 0.9659853
vn -0.1539774 -0.9878123 -0.0227557
vn -0.1539774 -0.9878123 -0.0227557
vn -0.3832814 -0.9231797 0.0288893
vn -0.3832814 -0.9231797 0.0288893
vn -0.2150502 -0.2910613 -0.9322214
vn -0.2150502 -0.2910613 -0.9322214
vn -0.1484262 -0.2008886 0.9683044
vn -0.1484262 -0.2008886 0.9683044
vn -0.2342155 0.1768449 -0.9559650
vn -0.2342155 0.1768449 -0.9559650
vn -0.2342155 0.1768449 -0.9559650
vn -0.3202200 0.2417828 0.9159695
vn -0.3202200 0.2417828 0.9159695
vn -0.3202200 0.2417828 0.9159695
vn -0.1539774 0.9878123 -0.0227557
vn -0.1539774 0.9878123 -0.0227557
vn -0.3832814 0.9231797 0.0288893
vn -0.3832814 0.9231797 0.0288893
vn -0.9054048 -0.3002017 -0.3002017
vn -0.9054048 -0.3002017 -0.3002017
vn -0.9560046 -0.1465409 0.2541278
vn -0.9560046 -0.1465409 0.2541278
vn -0.9560046 -0.1465409 0.2541278
vn -0.9560046 0.2541278 -0.1465409
vn -0.9560046 0.2541278 -0.1465409
vn -0.9560046 0.2541278 -0.1465409
vn -0.9360426 0.2488215 0.2488215
vn -0.9360426 0.2488215 0.2488215
vn -0.0060018 -0.9883358 -0.1521722
vn -0.0174433 -0.9667763 0.2550281
vn -0.0076565 -0.3862175 -0.9223760
vn -0.0076565 -0.3862175 -0.9223760
vn -0.0050928 -0.2568978 0.9664252
vn -0.0050928 -0.2568978 0.9664252
vn -0.0087998 0.2559661 -0.9666457
vn -0.0087998 0.2559661 -0.9666457
vn -0.0174433 0.2550281 0.9667763
vn -0.0174433 0.2550281 0.9667763
vn -0.0101319 0.9663881 -0.2568880
vn -0.0087998 0.9666457 0.2559661
vn 0.0292622 0.9797614 0.1980186
vn 0.0292622 0.9797614 0.1980186
vn 0.0311899 0.9950066 -0.0948109
vn 0.0311899 0.9950066 -0.0948109
vn 0.0311899 0.9950066 -0.0948109
vn 0.0347412 0.9796175 -0.1978450
vn 0.0347412 0.9796175 -0.1978450
vn 0.0347412 0.9796175 -0.1978450
vn 0.0352922 0.9536312 0.2989013
vn 0.0352922 0.9536312 0.2989013
vn 0.2143492 0.1768796 0.9606082
vn 0.2261552 0.1441277 -0.9633696
vn 0.2495849 0.0425988 -0.9674155
vn 0.2377572 0.0754446 0.9683902
vn 0.2496435 -0.9662218 -0.0639806
vn 0.2496435 -0.9662218 -0.0639806
vn 0.2532788 -0.9668267 0.0331064
vn 0.2532788 -0.9668267 0.0331064
vn 0.1643517 -0.1282701 -0.9780262
vn 0.1643517 -0.1282701 -0.9780262
vn 0.1643517 -0.1282701 -0.9780262
vn 0.2518880 -0.1965888 0.9475786
vn 0.2518880 -0.1965888 0.9475786
vn 0.2518880 -0.1965888 0.9475786
vn 0.3616657 0.1574675 -0.9189134
vn 0.3616657 0.1574675 -0.9189134
vn 0.3616657 0.1574675 -0.9189134
vn 0.2553090 0.1111603 0.9604482
vn 0.2553090 0.1111603 0.9604482
vn 0.2553090 0.1111603 0.9604482
vn 0.2496435 0.9662218 -0.0639806
vn 0.2496435 0.9662218 -0.0639806
vn 0.2532788 0.9668267 0.0331064
vn 0.2532788 0.9668267 0.0331064
vn 0.9305470 0.2671912 0.2503819
vn 0.9305470 0.2671912 0.2503819
vn 0.9280572 0.2724090 -0.2539746
vn 0.9280572 0.2724090 -0.2539746
vn 0.9342773 0.2454553 -0.2586070
vn 0.9342773 0.2454553 -0.2586070
vn 0.9366728 0.2406461 0.2544278
vn 0.9366728 0.2406461 0.2544278
vn -0.9366728 -0.2406461 0.2544278
vn -0.9366728 -0.2406461 0.2544278
vn -0.8969151 -0.2194024 -0.3839348
vn -0.8969151 -0.2194024 -0.3839348
vn -0.8876400 -0.2595946 -0.3804024
vn -0.8876400 -0.2595946 -0.3804024
vn -0.9305470 -0.2671912 0.2503819
vn -0.9305470 -0.2671912 0.2503819
vn 0.9480622 -0.3134232 -0.0542585
vn 0.9926134 -0.1148830 0.0389948
vn 0.9789616 0.2030996 -0.0196145
vn 0.9784264 0.2029886 0.0384375
vn -0.2521397 -0.0488349 0.9664578
vn -0.1565194 -0.0079779 -0.9876427
vn -0.1325835 -0.1117004 -0.9848577
vn -0.2287404 -0.1502323 0.9618254
vn 0.0687869 -0.9497764 0.3052756
vn 0.0687869 -0.9497764 0.3052756
vn 0.0687869 -0.9497764 0.3052756
vn -0.0928584 -0.9326769 -0.3485558
vn -0.0928584 -0.9326769 -0.3485558
vn -0.0855832 -0.9642028 -0.2509751
vn -0.0855832 -0.9642028 -0.2509751
vn 0.0749456 -0.9764638 0.2022415
vn 0.0749456 -0.9764638 0.2022415
vn 0.0749456 -0.9764638 0.2022415
vn 0.2430129 0.0710776 0.9674155
vn 0.2467744 0.0363704 -0.9683902
vn 0.2701825 -0.0650646 -0.9606082
vn 0.2664427 -0.0304513 0.9633696
vn 0.4496067 -0.8417315 0.2989013
vn 0.4496067 -0.8417315 0.2989013
vn 0.4604986 -0.8653314 -0.1978450
vn 0.4604986 -0.8653314 -0.1978450
vn 0.4604986 -0.8653314 -0.1978450
vn 0.4640499 -0.8807205 -0.0948109
vn 0.4640499 -0.8807205 -0.0948109
vn 0.4640499 -0.8807205 -0.0948109
vn 0.4556367 -0.8678616 0.1980186
vn 0.4556367 -0.8678616 0.1980186
vn 0.9543669 0.1599930 0.2521628
vn 0.9543669 0.1599930 0.2521628
vn 0.9432870 0.2093454 -0.2576511
vn 0.9432870 0.2093454 -0.2576511
vn 0.9495114 0.1823733 -0.2552805
vn 0.9495114 0.1823733 -0.2552805
vn 0.9603924 0.1338826 0.2443807
vn 0.9603924 0.1338826 0.2443807
vn -0.9116335 0.1556224 -0.3804024
vn -0.9116335 0.1556224 -0.3804024
vn -0.9535305 0.1675960 0.2503819
vn -0.9535305 0.1675960 0.2503819
vn -0.9474048 0.1941410 0.2544278
vn -0.9474048 0.1941410 0.2544278
vn -0.9023584 0.1958145 -0.3839348
vn -0.9023584 0.1958145 -0.3839348
vn -0.4994445 -0.8291964 -0.2509751
vn -0.4994445 -0.8291964 -0.2509751
vn -0.3605218 -0.9105616 0.2022415
vn -0.3605218 -0.9105616 0.2022415
vn -0.3605218 -0.9105616 0.2022415
vn -0.3543632 -0.8838742 0.3052756
vn -0.3543632 -0.8838742 0.3052756
vn -0.3543632 -0.8838742 0.3052756
vn -0.4921693 -0.7976705 -0.3485558
vn -0.4921693 -0.7976705 -0.3485558
vn -0.1681235 -0.0423065 -0.9848577
vn -0.2714414 -0.0348057 0.9618254
vn -0.2480420 0.0665917 0.9664578
vn -0.1441875 0.0614160 -0.9876427
vn 0.0311899 -0.9950066 -0.0948109
vn 0.0311899 -0.9950066 -0.0948109
vn 0.0311899 -0.9950066 -0.0948109
vn 0.0292622 -0.9797614 0.1980186
vn 0.0292622 -0.9797614 0.1980186
vn 0.0352922 -0.9536312 0.2989013
vn 0.0352922 -0.9536312 0.2989013
vn 0.0347412 -0.9796175 -0.1978450
vn 0.0347412 -0.9796175 -0.1978450
vn 0.0347412 -0.9796175 -0.1978450
vn 0.2143492 -0.1768796 -0.9606082
vn 0.2261552 -0.1441277 0.9633696
vn 0.2495849 -0.0425988 0.9674155
vn 0.2377572 -0.0754446 -0.9683902
vn -0.9480622 -0.3134232 -0.0542585
vn -0.9926134 -0.1148830 0.0389948
vn -0.9789616 0.2030996 -0.0196145
vn -0.9784264 0.2029886 0.0384375
vn 0.9334097 -0.2521470 -0.2552805
vn 0.9334097 -0.2521470 -0.2552805
vn 0.9219417 -0.3005022 0.2443807
vn 0.9219417 -0.3005022 0.2443807
vn 0.9279672 -0.2743918 0.2521628
vn 0.9279672 -0.2743918 0.2521628
vn 0.9396341 -0.2251748 -0.2576511
vn 0.9396341 -0.2251748 -0.2576511
vn -0.9541746 0.2568718 -0.1535175
vn -0.9541746 0.2568718 -0.1535175
vn -0.9342773 0.2454553 0.2586070
vn -0.9342773 0.2454553 0.2586070
vn -0.9280572 0.2724090 0.2539746
vn -0.9280572 0.2724090 0.2539746
vn -0.9505063 0.2727679 -0.1487797
vn -0.9505063 0.2727679 -0.1487797
vn -0.1539774 -0.9878123 -0.0227557
vn -0.1539774 -0.9878123 -0.0227557
vn -0.3832814 -0.9231797 0.0288893
vn -0.3832814 -0.9231797 0.0288893
vn -0.2150502 -0.2910613 -0.9322214
vn -0.2150502 -0.2910613 -0.9322214
vn -0.1484262 -0.2008886 0.9683044
vn -0.1484262 -0.2008886 0.9683044
vn -0.2342155 0.1768449 -0.9559650
vn -0.2342155 0.1768449 -0.9559650
vn -0.2342155 0.1768449 -0.9559650
vn -0.3202200 0.2417828 0.9159695
vn -0.3202200 0.2417828 0.9159695
vn -0.3202200 0.2417828 0.9159695
vn -0.1539774 0.9878123 -0.0227557
vn -0.1539774 0.9878123 -0.0227557
vn -0.3832814 0.9231797 0.0288893
vn -0.3832814 0.9231797 0.0288893
vn -0.3767519 0.0694698 -0.9237056
vn -0.2570307 0.0284202 0.9659853
vn -0.2336153 0.1298868 0.9636147
vn -0.3543768 0.1664288 -0.9201731
vn 0.0028676 0.9160397 -0.4010774
vn 0.0028676 0.9160397 -0.4010774
vn -0.0105891 0.9607875 0.2770833
vn -0.0105891 0.9607875 0.2770833
vn -0.0105891 0.9607875 0.2770833
vn -0.0051034 0.9845589 0.1749791
vn -0.0051034 0.9845589 0.1749791
vn -0.0051034 0.9845589 0.1749791
vn 0.0114069 0.9530431 -0.3026199
vn 0.0114069 0.9530431 -0.3026199
vn 0.0076565 -0.9223760 -0.3862175
vn 0.0087998 -0.9666457 0.2559661
vn 0.0103627 -0.1515069 -0.9884019
vn 0.0103627 -0.1515069 -0.9884019
vn 0.0101319 -0.2568880 0.9663881
vn 0.0101319 -0.2568880 0.9663881
vn 0.0101319 0.2568880 -0.9663881
vn 0.0101319 0.2568880 -0.9663881
vn 0.0087998 0.2559661 0.9666457
vn 0.0087998 0.2559661 0.9666457
vn 0.0050928 0.9664252 -0.2568978
vn 0.0174433 0.9667763 0.2550281
vn 0.9135411 -0.3523606 -0.2031861
vn 0.9135411 -0.3523606 -0.2031861
vn 0.9560046 -0.1465409 0.2541278
vn 0.9560046 -0.1465409 0.2541278
vn 0.9560046 -0.1465409 0.2541278
vn 0.9473765 0.2263601 -0.2263601
vn 0.9473765 0.2263601 -0.2263601
vn 0.9473765 0.2263601 -0.2263601
vn 0.9360426 0.2488215 0.2488215
vn 0.9360426 0.2488215 0.2488215
vn 0.2496435 -0.9662218 -0.0639806
vn 0.2496435 -0.9662218 -0.0639806
vn 0.2532788 -0.9668267 0.0331064
vn 0.2532788 -0.9668267 0.0331064
vn 0.1643517 -0.1282701 -0.9780262
vn 0.1643517 -0.1282701 -0.9780262
vn 0.1643517 -0.1282701 -0.9780262
vn 0.2518880 -0.1965888 0.9475786
vn 0.2518880 -0.1965888 0.9475786
vn 0.2518880 -0.1965888 0.9475786
vn 0.3616657 0.1574675 -0.9189134
vn 0.3616657 0.1574675 -0.9189134
vn 0.3616657 0.1574675 -0.9189134
vn 0.2553090 0.1111603 0.9604482
vn 0.2553090 0.1111603 0.9604482
vn 0.2553090 0.1111603 0.9604482
vn 0.2496435 0.9662218 -0.0639806
vn 0.2496435 0.9662218 -0.0639806
vn 0.2532788 0.9668267 0.0331064
vn 0.2532788 0.9668267 0.0331064
vn 0.2430129 -0.0710776 -0.9674155
vn 0.2467744 -0.0363704 0.9683902
vn 0.2701825 0.0650646 0.9606082
vn 0.2664427 0.0304513 -0.9633696
vn 0.4604986 0.8653314 -0.1978450
vn 0.4604986 0.8653314 -0.1978450
vn 0.4604986 0.8653314 -0.1978450
vn 0.4496067 0.8417315 0.2989013
vn 0.4496067 0.8417315 0.2989013
vn 0.4556367 0.8678616 0.1980186
vn 0.4556367 0.8678616 0.1980186
vn 0.4640499 0.8807205 -0.0948109
vn 0.4640499 0.8807205 -0.0948109
vn 0.4640499 0.8807205 -0.0948109
vn 0.9480622 -0.3134232 -0.0542585
vn 0.9926134 -0.1148830 0.0389948
vn 0.9789616 0.2030996 -0.0196145
vn 0.9784264 0.2029886 0.0384375
vn 0.9473589 -0.1887684 -0.2586070
vn 0.9473589 -0.1887684 -0.2586070
vn 0.9474048 -0.1941410 0.2544278
vn 0.9474048 -0.1941410 0.2544278
vn 0.9535305 -0.1675960 0.2503819
vn 0.9535305 -0.1675960 0.2503819
vn 0.9535790 -0.1618147 -0.2539746
vn 0.9535790 -0.1618147 -0.2539746
vn 0.0064414 -0.9679757 -0.2509614
vn 0.0069971 -0.9890655 0.1473108
vn 0.0064414 -0.9679757 -0.2509614
vn 0.0069971 -0.9890655 0.1473108
vn 0.0064414 -0.9679757 -0.2509614
vn 0.0069971 -0.9890655 0.1473108
vn 0.0064414 -0.9679757 -0.2509614
vn 0.0069971 -0.9890655 0.1473108
vn 0.0075528 -0.1515107 -0.9884268
vn 0.0075528 -0.1515107 -0.9884268
vn 0.0073846 -0.2568942 0.9664113
vn 0.0073846 -0.2568942 0.9664113
vn 0.0075528 -0.1515107 -0.9884268
vn 0.0075528 -0.1515107 -0.9884268
vn 0.0073846 -0.2568942 0.9664113
vn 0.0073846 -0.2568942 0.9664113
vn 0.0075528 -0.1515107 -0.9884268
vn 0.0075528 -0.1515107 -0.9884268
vn 0.0073846 -0.2568942 0.9664113
vn 0.0073846 -0.2568942 0.9664113
vn 0.0075528 -0.1515107 -0.9884268
vn 0.0075528 -0.1515107 -0.9884268
vn 0.0073846 -0.2568942 0.9664113
vn 0.0073846 -0.2568942 0.9664113
vn 0.0073846 0.2568942 -0.9664113
vn 0.0073846 0.2568942 -0.9664113
vn 0.0064109 0.2562220 0.9665967
vn 0.0064109 0.2562220 0.9665967
vn 0.0073846 0.2568942 -0.9664113
vn 0.0073846 0.2568942 -0.9664113
vn 0.0064109 0.2562220 0.9665967
vn 0.0064109 0.2562220 0.9665967
vn 0.0073846 0.2568942 -0.9664113
vn 0.0073846 0.2568942 -0.9664113
vn 0.0064109 0.2562220 0.9665967
vn 0.0064109 0.2562220 0.9665967
vn 0.0073846 0.2568942 -0.9664113
vn 0.0073846 0.2568942 -0.9664113
vn 0.0064109 0.2562220 0.9665967
vn 0.0064109 0.2562220 0.9665967
vn 0.0037932 0.9890125 -0.1477835
vn 0.0138958 0.9890631 0.1468367
vn 0.0037932 0.9890125 -0.1477835
vn 0.0138958 0.9890631 0.1468367
vn 0.0037932 0.9890125 -0.1477835
vn 0.0138958 0.9890631 0.1468367
vn 0.0037932 0.9890125 -0.1477835
vn 0.0138958 0.9890631 0.1468367
vn 0.9222086 -0.3699997 -0.1123897
vn 0.9222086 -0.3699997 -0.1123897
vn 0.9778465 -0.1498889 0.1461150
vn 0.9778465 -0.1498889 0.1461150
vn 0.9778465 -0.1498889 0.1461150
vn 0.9222086 -0.3699997 -0.1123897
vn 0.9222086 -0.3699997 -0.1123897
vn 0.9778465 -0.1498889 0.1461150
vn 0.9778465 -0.1498889 0.1461150
vn 0.9778465 -0.1498889 0.1461150
vn 0.9222086 -0.3699997 -0.1123897
vn 0.9222086 -0.3699997 -0.1123897
vn 0.9778465 -0.1498889 0.1461150
vn 0.9778465 -0.1498889 0.1461150
vn 0.9778465 -0.1498889 0.1461150
vn 0.9222086 -0.3699997 -0.1123897
vn 0.9222086 -0.3699997 -0.1123897
vn 0.9778465 -0.1498889 0.1461150
vn 0.9778465 -0.1498889 0.1461150
vn 0.9778465 -0.1498889 0.1461150
vn 0.9620508 0.2414231 -0.1271738
vn 0.9620508 0.2414231 -0.1271738
vn 0.9620508 0.2414231 -0.1271738
vn 0.9565154 0.2542636 0.1429276
vn 0.9565154 0.2542636 0.1429276
vn 0.9565154 0.2542636 0.1429276
vn 0.9620508 0.2414231 -0.1271738
vn 0.9620508 0.2414231 -0.1271738
vn 0.9620508 0.2414231 -0.1271738
vn 0.9565154 0.2542636 0.1429276
vn 0.9565154 0.2542636 0.1429276
vn 0.9565154 0.2542636 0.1429276
vn 0.9620508 0.2414231 -0.1271738
vn 0.9620508 0.2414231 -0.1271738
vn 0.9620508 0.2414231 -0.1271738
vn 0.9565154 0.2542636 0.1429276
vn 0.9565154 0.2542636 0.1429276
vn 0.9565154 0.2542636 0.1429276
vn 0.9620508 0.2414231 -0.1271738
vn 0.9620508 0.2414231 -0.1271738
vn 0.9620508 0.2414231 -0.1271738
vn 0.9565154 0.2542636 0.1429276
vn 0.9565154 0.2542636 0.1429276
vn 0.9565154 0.2542636 0.1429276
o 03_Banco_Simple_Wood
usemtl Wood
s 1
f 45/45/45 1/1/1 53/53/53
f 72/72/72 86/86/86 26/26/26
f 473/473/473 429/429/429 445/445/445
f 69/69/69 21/21/21 85/85/85
f 432/432/432 478/478/478 446/446/446
f 46/46/46 56/56/56 5/5/5
f 405/405/405 413/413/413 454/454/454
f 406/406/406 457/457/457 416/416/416
f 23/23/23 2/2/2 4/4/4
f 23/23/23 4/4/4 25/25/25
f 86/86/86 446/446/446 445/445/445
f 86/86/86 445/445/445 85/85/85
f 86/86/86 21/21/21 26/26/26
f 86/86/86 85/85/85 21/21/21
f 71/71/71 24/24/24 3/3/3
f 71/71/71 3/3/3 55/55/55
f 475/475/475 414/414/414 430/430/430
f 475/475/475 454/454/454 414/414/414
f 473/473/473 445/445/445 446/446/446
f 473/473/473 446/446/446 478/478/478
f 69/69/69 85/85/85 445/445/445
f 69/69/69 445/445/445 429/429/429
f 70/70/70 430/430/430 414/414/414
f 70/70/70 414/414/414 54/54/54
f 70/70/70 1/1/1 22/22/22
f 70/70/70 54/54/54 1/1/1
f 455/455/455 453/453/453 474/474/474
f 455/455/455 474/474/474 476/476/476
f 431/431/431 456/456/456 477/477/477
f 431/431/431 415/415/415 456/456/456
f 432/432/432 446/446/446 86/86/86
f 432/432/432 86/86/86 72/72/72
f 431/431/431 71/71/71 55/55/55
f 431/431/431 55/55/55 415/415/415
f 46/46/46 5/5/5 1/1/1
f 46/46/46 1/1/1 45/45/45
f 405/405/405 53/53/53 413/413/413
f 405/405/405 45/45/45 53/53/53
f 406/406/406 454/454/454 457/457/457
f 406/406/406 405/405/405 454/454/454
f 406/406/406 416/416/416 56/56/56
f 406/406/406 56/56/56 46/46/46
f 406/406/406 46/46/46 45/45/45
f 406/406/406 45/45/45 405/405/405
f 47/47/47 6/6/6 57/57/57
f 76/76/76 88/88/88 32/32/32
f 479/479/479 433/433/433 447/447/447
f 73/73/73 27/27/27 87/87/87
f 436/436/436 484/484/484 448/448/448
f 48/48/48 60/60/60 10/10/10
f 407/407/407 417/417/417 459/459/459
f 408/408/408 462/462/462 420/420/420
f 29/29/29 7/7/7 9/9/9
f 29/29/29 9/9/9 31/31/31
f 88/88/88 448/448/448 447/447/447
f 88/88/88 447/447/447 87/87/87
f 88/88/88 27/27/27 32/32/32
f 88/88/88 87/87/87 27/27/27
f 75/75/75 30/30/30 8/8/8
f 75/75/75 8/8/8 59/59/59
f 481/481/481 418/418/418 434/434/434
f 481/481/481 459/459/459 418/418/418
f 479/479/479 447/447/447 448/448/448
f 479/479/479 448/448/448 484/484/484
f 73/73/73 87/87/87 447/447/447
f 73/73/73 447/447/447 433/433/433
f 74/74/74 434/434/434 418/418/418
f 74/74/74 418/418/418 58/58/58
f 74/74/74 6/6/6 28/28/28
f 74/74/74 58/58/58 6/6/6
f 460/460/460 458/458/458 480/480/480
f 460/460/460 480/480/480 482/482/482
f 435/435/435 461/461/461 483/483/483
f 435/435/435 419/419/419 461/461/461
f 436/436/436 448/448/448 88/88/88
f 436/436/436 88/88/88 76/76/76
f 435/435/435 75/75/75 59/59/59
f 435/435/435 59/59/59 419/419/419
f 48/48/48 10/10/10 6/6/6
f 48/48/48 6/6/6 47/47/47
f 407/407/407 57/57/57 417/417/417
f 407/407/407 47/47/47 57/57/57
f 408/408/408 459/459/459 462/462/462
f 408/408/408 407/407/407 459/459/459
f 408/408/408 420/420/420 60/60/60
f 408/408/408 60/60/60 48/48/48
f 408/408/408 48/48/48 47/47/47
f 408/408/408 47/47/47 407/407/407
f 49/49/49 11/11/11 61/61/61
f 80/80/80 90/90/90 38/38/38
f 485/485/485 437/437/437 449/449/449
f 77/77/77 33/33/33 89/89/89
f 440/440/440 490/490/490 450/450/450
f 50/50/50 64/64/64 15/15/15
f 409/409/409 421/421/421 464/464/464
f 410/410/410 467/467/467 424/424/424
f 35/35/35 12/12/12 14/14/14
f 35/35/35 14/14/14 37/37/37
f 90/90/90 450/450/450 449/449/449
f 90/90/90 449/449/449 89/89/89
f 90/90/90 33/33/33 38/38/38
f 90/90/90 89/89/89 33/33/33
f 79/79/79 36/36/36 13/13/13
f 79/79/79 13/13/13 63/63/63
f 487/487/487 422/422/422 438/438/438
f 487/487/487 464/464/464 422/422/422
f 485/485/485 449/449/449 450/450/450
f 485/485/485 450/450/450 490/490/490
f 77/77/77 89/89/89 449/449/449
f 77/77/77 449/449/449 437/437/437
f 78/78/78 438/438/438 422/422/422
f 78/78/78 422/422/422 62/62/62
f 78/78/78 11/11/11 34/34/34
f 78/78/78 62/62/62 11/11/11
f 465/465/465 463/463/463 486/486/486
f 465/465/465 486/486/486 488/488/488
f 439/439/439 466/466/466 489/489/489
f 439/439/439 423/423/423 466/466/466
f 440/440/440 450/450/450 90/90/90
f 440/440/440 90/90/90 80/80/80
f 439/439/439 79/79/79 63/63/63
f 439/439/439 63/63/63 423/423/423
f 50/50/50 15/15/15 11/11/11
f 50/50/50 11/11/11 49/49/49
f 409/409/409 61/61/61 421/421/421
f 409/409/409 49/49/49 61/61/61
f 410/410/410 464/464/464 467/467/467
f 410/410/410 409/409/409 464/464/464
f 410/410/410 424/424/424 64/64/64
f 410/410/410 64/64/64 50/50/50
f 410/410/410 50/50/50 49/49/49
f 410/410/410 49/49/49 409/409/409
f 51/51/51 16/16/16 65/65/65
f 84/84/84 92/92/92 44/44/44
f 491/491/491 441/441/441 451/451/451
f 81/81/81 39/39/39 91/91/91
f 444/444/444 496/496/496 452/452/452
f 52/52/52 68/68/68 20/20/20
f 411/411/411 425/425/425 469/469/469
f 412/412/412 472/472/472 428/428/428
f 41/41/41 17/17/17 19/19/19
f 41/41/41 19/19/19 43/43/43
f 92/92/92 452/452/452 451/451/451
f 92/92/92 451/451/451 91/91/91
f 92/92/92 39/39/39 44/44/44
f 92/92/92 91/91/91 39/39/39
f 83/83/83 42/42/42 18/18/18
f 83/83/83 18/18/18 67/67/67
f 493/493/493 426/426/426 442/442/442
f 493/493/493 469/469/469 426/426/426
f 491/491/491 451/451/451 452/452/452
f 491/491/491 452/452/452 496/496/496
f 81/81/81 91/91/91 451/451/451
f 81/81/81 451/451/451 441/441/441
f 82/82/82 442/442/442 426/426/426
f 82/82/82 426/426/426 66/66/66
f 82/82/82 16/16/16 40/40/40
f 82/82/82 66/66/66 16/16/16
f 470/470/470 468/468/468 492/492/492
f 470/470/470 492/492/492 494/494/494
f 443/443/443 471/471/471 495/495/495
f 443/443/443 427/427/427 471/471/471
f 444/444/444 452/452/452 92/92/92
f 444/444/444 92/92/92 84/84/84
f 443/443/443 83/83/83 67/67/67
f 443/443/443 67/67/67 427/427/427
f 52/52/52 20/20/20 16/16/16
f 52/52/52 16/16/16 51/51/51
f 411/411/411 65/65/65 425/425/425
f 411/411/411 51/51/51 65/65/65
f 412/412/412 469/469/469 472/472/472
f 412/412/412 411/411/411 469/469/469
f 412/412/412 428/428/428 68/68/68
f 412/412/412 68/68/68 52/52/52
f 412/412/412 52/52/52 51/51/51
f 412/412/412 51/51/51 411/411/411
f 215/215/215 222/222/222 205/205/205
f 242/242/242 227/227/227 231/231/231
f 201/201/201 217/217/217 213/213/213
f 194/194/194 160/160/160 169/169/169
f 106/106/106 93/93/93 115/115/115
f 229/229/229 246/246/246 237/237/237
f 117/117/117 97/97/97 111/111/111
f 171/171/171 166/166/166 198/198/198
f 218/218/218 223/223/223 238/238/238
f 218/218/218 238/238/238 232/232/232
f 227/227/227 169/169/169 115/115/115
f 227/227/227 115/115/115 213/213/213
f 227/227/227 217/217/217 231/231/231
f 227/227/227 213/213/213 217/217/217
f 241/241/241 231/231/231 236/236/236
f 241/241/241 236/236/236 245/245/245
f 201/201/201 213/213/213 115/115/115
f 201/201/201 115/115/115 93/93/93
f 202/202/202 98/98/98 206/206/206
f 202/202/202 94/94/94 98/98/98
f 202/202/202 222/222/222 219/219/219
f 202/202/202 206/206/206 222/222/222
f 193/193/193 164/164/164 160/160/160
f 193/193/193 197/197/197 164/164/164
f 194/194/194 169/169/169 227/227/227
f 194/194/194 227/227/227 242/242/242
f 193/193/193 241/241/241 245/245/245
f 193/193/193 245/245/245 197/197/197
f 107/107/107 98/98/98 94/94/94
f 107/107/107 111/111/111 98/98/98
f 106/106/106 115/115/115 169/169/169
f 106/106/106 169/169/169 160/160/160
f 105/105/105 159/159/159 165/165/165
f 105/105/105 165/165/165 110/110/110
f 229/229/229 237/237/237 222/222/222
f 229/229/229 222/222/222 215/215/215
f 117/117/117 205/205/205 97/97/97
f 117/117/117 215/215/215 205/205/205
f 171/171/171 111/111/111 166/166/166
f 171/171/171 117/117/117 111/111/111
f 171/171/171 198/198/198 246/246/246
f 171/171/171 246/246/246 229/229/229
f 171/171/171 229/229/229 215/215/215
f 171/171/171 215/215/215 117/117/117
f 214/214/214 220/220/220 203/203/203
f 248/248/248 230/230/230 239/239/239
f 207/207/207 224/224/224 216/216/216
f 200/200/200 168/168/168 172/172/172
f 113/113/113 99/99/99 118/118/118
f 228/228/228 244/244/244 234/234/234
f 116/116/116 95/95/95 109/109/109
f 170/170/170 163/163/163 196/196/196
f 225/225/225 221/221/221 235/235/235
f 225/225/225 235/235/235 240/240/240
f 230/230/230 172/172/172 118/118/118
f 230/230/230 118/118/118 216/216/216
f 230/230/230 224/224/224 239/239/239
f 230/230/230 216/216/216 224/224/224
f 247/247/247 239/239/239 233/233/233
f 247/247/247 233/233/233 243/243/243
f 207/207/207 216/216/216 118/118/118
f 207/207/207 118/118/118 99/99/99
f 208/208/208 96/96/96 204/204/204
f 208/208/208 100/100/100 96/96/96
f 208/208/208 220/220/220 226/226/226
f 208/208/208 204/204/204 220/220/220
f 199/199/199 161/161/161 168/168/168
f 199/199/199 195/195/195 161/161/161
f 200/200/200 172/172/172 230/230/230
f 200/200/200 230/230/230 248/248/248
f 199/199/199 247/247/247 243/243/243
f 199/199/199 243/243/243 195/195/195
f 114/114/114 96/96/96 100/100/100
f 114/114/114 109/109/109 96/96/96
f 113/113/113 118/118/118 172/172/172
f 113/113/113 172/172/172 168/168/168
f 112/112/112 167/167/167 162/162/162
f 112/112/112 162/162/162 108/108/108
f 228/228/228 234/234/234 220/220/220
f 228/228/228 220/220/220 214/214/214
f 116/116/116 203/203/203 95/95/95
f 116/116/116 214/214/214 203/203/203
f 170/170/170 109/109/109 163/163/163
f 170/170/170 116/116/116 109/109/109
f 170/170/170 196/196/196 244/244/244
f 170/170/170 244/244/244 228/228/228
f 170/170/170 228/228/228 214/214/214
f 170/170/170 214/214/214 116/116/116
f 267/267/267 257/257/257 249/249/249
f 294/294/294 283/283/283 276/276/276
f 253/253/253 262/262/262 269/269/269
f 402/402/402 389/389/389 381/381/381
f 333/333/333 301/301/301 325/325/325
f 281/281/281 290/290/290 272/272/272
f 323/323/323 297/297/297 328/328/328
f 379/379/379 385/385/385 398/398/398
f 263/263/263 258/258/258 273/273/273
f 263/263/263 273/273/273 277/277/277
f 283/283/283 381/381/381 325/325/325
f 283/283/283 325/325/325 269/269/269
f 283/283/283 262/262/262 276/276/276
f 283/283/283 269/269/269 262/262/262
f 293/293/293 276/276/276 271/271/271
f 293/293/293 271/271/271 289/289/289
f 253/253/253 269/269/269 325/325/325
f 253/253/253 325/325/325 301/301/301
f 254/254/254 298/298/298 250/250/250
f 254/254/254 302/302/302 298/298/298
f 254/254/254 257/257/257 264/264/264
f 254/254/254 250/250/250 257/257/257
f 401/401/401 383/383/383 389/389/389
f 401/401/401 397/397/397 383/383/383
f 402/402/402 381/381/381 283/283/283
f 402/402/402 283/283/283 294/294/294
f 401/401/401 293/293/293 289/289/289
f 401/401/401 289/289/289 397/397/397
f 334/334/334 298/298/298 302/302/302
f 334/334/334 328/328/328 298/298/298
f 333/333/333 325/325/325 381/381/381
f 333/333/333 381/381/381 389/389/389
f 332/332/332 388/388/388 384/384/384
f 332/332/332 384/384/384 327/327/327
f 281/281/281 272/272/272 257/257/257
f 281/281/281 257/257/257 267/267/267
f 323/323/323 249/249/249 297/297/297
f 323/323/323 267/267/267 249/249/249
f 379/379/379 328/328/328 385/385/385
f 379/379/379 323/323/323 328/328/328
f 379/379/379 398/398/398 290/290/290
f 379/379/379 290/290/290 281/281/281
f 379/379/379 281/281/281 267/267/267
f 379/379/379 267/267/267 323/323/323
f 270/270/270 265/265/265 255/255/255
f 292/292/292 282/282/282 274/274/274
f 251/251/251 259/259/259 268/268/268
f 400/400/400 387/387/387 380/380/380
f 330/330/330 299/299/299 324/324/324
f 284/284/284 296/296/296 279/279/279
f 326/326/326 303/303/303 336/336/336
f 382/382/382 392/392/392 404/404/404
f 260/260/260 266/266/266 280/280/280
f 260/260/260 280/280/280 275/275/275
f 282/282/282 380/380/380 324/324/324
f 282/282/282 324/324/324 268/268/268
f 282/282/282 259/259/259 274/274/274
f 282/282/282 268/268/268 259/259/259
f 291/291/291 274/274/274 278/278/278
f 291/291/291 278/278/278 295/295/295
f 251/251/251 268/268/268 324/324/324
f 251/251/251 324/324/324 299/299/299
f 252/252/252 304/304/304 256/256/256
f 252/252/252 300/300/300 304/304/304
f 252/252/252 265/265/265 261/261/261
f 252/252/252 256/256/256 265/265/265
f 399/399/399 390/390/390 387/387/387
f 399/399/399 403/403/403 390/390/390
f 400/400/400 380/380/380 282/282/282
f 400/400/400 282/282/282 292/292/292
f 399/399/399 291/291/291 295/295/295
f 399/399/399 295/295/295 403/403/403
f 331/331/331 304/304/304 300/300/300
f 331/331/331 336/336/336 304/304/304
f 330/330/330 324/324/324 380/380/380
f 330/330/330 380/380/380 387/387/387
f 329/329/329 386/386/386 391/391/391
f 329/329/329 391/391/391 335/335/335
f 284/284/284 279/279/279 265/265/265
f 284/284/284 265/265/265 270/270/270
f 326/326/326 255/255/255 303/303/303
f 326/326/326 270/270/270 255/255/255
f 382/382/382 336/336/336 392/392/392
f 382/382/382 326/326/326 336/336/336
f 382/382/382 404/404/404 296/296/296
f 382/382/382 296/296/296 284/284/284
f 382/382/382 284/284/284 270/270/270
f 382/382/382 270/270/270 326/326/326
f 132/132/132 136/136/136 104/104/104
f 119/119/119 101/101/101 123/123/123
f 185/185/185 190/190/190 211/211/211
f 173/173/173 177/177/177 209/209/209
f 192/192/192 188/188/188 212/212/212
f 129/129/129 103/103/103 134/134/134
f 121/121/121 126/126/126 102/102/102
f 175/175/175 210/210/210 180/180/180
f 210/210/210 209/209/209 211/211/211
f 210/210/210 211/211/211 212/212/212
f 103/103/103 101/101/101 102/102/102
f 103/103/103 102/102/102 104/104/104
f 136/136/136 103/103/103 104/104/104
f 136/136/136 134/134/134 103/103/103
f 132/132/132 102/102/102 126/126/126
f 132/132/132 104/104/104 102/102/102
f 188/188/188 210/210/210 212/212/212
f 188/188/188 180/180/180 210/210/210
f 186/186/186 130/130/130 125/125/125
f 186/186/186 125/125/125 181/181/181
f 185/185/185 211/211/211 209/209/209
f 185/185/185 209/209/209 177/177/177
f 174/174/174 123/123/123 178/178/178
f 174/174/174 120/120/120 123/123/123
f 191/191/191 131/131/131 187/187/187
f 191/191/191 135/135/135 131/131/131
f 192/192/192 212/212/212 211/211/211
f 192/192/192 211/211/211 190/190/190
f 191/191/191 133/133/133 135/135/135
f 191/191/191 189/189/189 133/133/133
f 127/127/127 133/133/133 189/189/189
f 127/127/127 189/189/189 183/183/183
f 129/129/129 101/101/101 103/103/103
f 129/129/129 123/123/123 101/101/101
f 128/128/128 184/184/184 179/179/179
f 128/128/128 179/179/179 124/124/124
f 121/121/121 102/102/102 101/101/101
f 121/121/121 101/101/101 119/119/119
f 176/176/176 182/182/182 126/126/126
f 176/176/176 126/126/126 122/122/122
f 175/175/175 209/209/209 210/210/210
f 175/175/175 173/173/173 209/209/209
f 176/176/176 120/120/120 174/174/174
f 176/176/176 122/122/122 120/120/120
f 318/318/318 322/322/322 288/288/288
f 305/305/305 285/285/285 309/309/309
f 371/371/371 376/376/376 395/395/395
f 359/359/359 363/363/363 393/393/393
f 378/378/378 374/374/374 396/396/396
f 315/315/315 287/287/287 320/320/320
f 307/307/307 312/312/312 286/286/286
f 361/361/361 394/394/394 366/366/366
f 394/394/394 393/393/393 395/395/395
f 394/394/394 395/395/395 396/396/396
f 287/287/287 285/285/285 286/286/286
f 287/287/287 286/286/286 288/288/288
f 322/322/322 287/287/287 288/288/288
f 322/322/322 320/320/320 287/287/287
f 318/318/318 286/286/286 312/312/312
f 318/318/318 288/288/288 286/286/286
f 374/374/374 394/394/394 396/396/396
f 374/374/374 366/366/366 394/394/394
f 372/372/372 316/316/316 311/311/311
f 372/372/372 311/311/311 367/367/367
f 371/371/371 395/395/395 393/393/393
f 371/371/371 393/393/393 363/363/363
f 360/360/360 309/309/309 364/364/364
f 360/360/360 306/306/306 309/309/309
f 377/377/377 317/317/317 373/373/373
f 377/377/377 321/321/321 317/317/317
f 378/378/378 396/396/396 395/395/395
f 378/378/378 395/395/395 376/376/376
f 377/377/377 319/319/319 321/321/321
f 377/377/377 375/375/375 319/319/319
f 313/313/313 319/319/319 375/375/375
f 313/313/313 375/375/375 369/369/369
f 315/315/315 285/285/285 287/287/287
f 315/315/315 309/309/309 285/285/285
f 314/314/314 370/370/370 365/365/365
f 314/314/314 365/365/365 310/310/310
f 307/307/307 286/286/286 285/285/285
f 307/307/307 285/285/285 305/305/305
f 362/362/362 368/368/368 312/312/312
f 362/362/362 312/312/312 308/308/308
f 361/361/361 393/393/393 394/394/394
f 361/361/361 359/359/359 393/393/393
f 362/362/362 306/306/306 360/360/360
f 362/362/362 308/308/308 306/306/306
f 147/147/147 137/137/137 149/149/149
f 156/156/156 158/158/158 145/145/145
f 153/153/153 142/142/142 157/157/157
f 346/346/346 358/358/358 348/348/348
f 355/355/355 343/343/343 347/347/347
f 148/148/148 152/152/152 140/140/140
f 337/337/337 339/339/339 350/350/350
f 338/338/338 353/353/353 342/342/342
f 143/143/143 138/138/138 141/141/141
f 143/143/143 141/141/141 146/146/146
f 158/158/158 348/348/348 347/347/347
f 158/158/158 347/347/347 157/157/157
f 158/158/158 142/142/142 145/145/145
f 158/158/158 157/157/157 142/142/142
f 155/155/155 145/145/145 139/139/139
f 155/155/155 139/139/139 151/151/151
f 153/153/153 157/157/157 347/347/347
f 153/153/153 347/347/347 343/343/343
f 154/154/154 340/340/340 150/150/150
f 154/154/154 344/344/344 340/340/340
f 154/154/154 137/137/137 144/144/144
f 154/154/154 150/150/150 137/137/137
f 345/345/345 351/351/351 358/358/358
f 345/345/345 341/341/341 351/351/351
f 346/346/346 348/348/348 158/158/158
f 346/346/346 158/158/158 156/156/156
f 345/345/345 155/155/155 151/151/151
f 345/345/345 151/151/151 341/341/341
f 356/356/356 340/340/340 344/344/344
f 356/356/356 350/350/350 340/340/340
f 355/355/355 347/347/347 348/348/348
f 355/355/355 348/348/348 358/358/358
f 354/354/354 357/357/357 352/352/352
f 354/354/354 352/352/352 349/349/349
f 148/148/148 140/140/140 137/137/137
f 148/148/148 137/137/137 147/147/147
f 337/337/337 149/149/149 339/339/339
f 337/337/337 147/147/147 149/149/149
f 338/338/338 350/350/350 353/353/353
f 338/338/338 337/337/337 350/350/350
f 338/338/338 342/342/342 152/152/152
f 338/338/338 152/152/152 148/148/148
f 338/338/338 148/148/148 147/147/147
f 338/338/338 147/147/147 337/337/337
