# metres; Y up; ground-centred pivot
mtllib 04_Mesa_Picnic.mtl
v -0.9250000 0.4017161 -0.8003000
v -0.9250000 0.4017161 -0.8003000
v -0.9250000 0.4017161 -0.6997000
v -0.9250000 0.4017161 -0.6997000
v -0.9250000 0.4017161 -0.6997000
v -0.9250000 0.4017161 -0.6603000
v -0.9250000 0.4017161 -0.6603000
v -0.9250000 0.4017161 -0.5597000
v -0.9250000 0.4017161 -0.5597000
v -0.9250000 0.4017161 -0.5597000
v -0.9250000 0.4017161 0.5597000
v -0.9250000 0.4017161 0.5597000
v -0.9250000 0.4017161 0.6603000
v -0.9250000 0.4017161 0.6603000
v -0.9250000 0.4017161 0.6603000
v -0.9250000 0.4017161 0.6997000
v -0.9250000 0.4017161 0.6997000
v -0.9250000 0.4017161 0.8003000
v -0.9250000 0.4017161 0.8003000
v -0.9250000 0.4017161 0.8003000
v -0.9250000 0.4423161 -0.8003000
v -0.9250000 0.4423161 -0.8003000
v -0.9250000 0.4423161 -0.8003000
v -0.9250000 0.4423161 -0.6997000
v -0.9250000 0.4423161 -0.6997000
v -0.9250000 0.4423161 -0.6997000
v -0.9250000 0.4423161 -0.6603000
v -0.9250000 0.4423161 -0.6603000
v -0.9250000 0.4423161 -0.6603000
v -0.9250000 0.4423161 -0.5597000
v -0.9250000 0.4423161 -0.5597000
v -0.9250000 0.4423161 -0.5597000
v -0.9250000 0.4423161 0.5597000
v -0.9250000 0.4423161 0.5597000
v -0.9250000 0.4423161 0.5597000
v -0.9250000 0.4423161 0.6603000
v -0.9250000 0.4423161 0.6603000
v -0.9250000 0.4423161 0.6603000
v -0.9250000 0.4423161 0.6997000
v -0.9250000 0.4423161 0.6997000
v -0.9250000 0.4423161 0.6997000
v -0.9250000 0.4423161 0.8003000
v -0.9250000 0.4423161 0.8003000
v -0.9250000 0.4423161 0.8003000
v -0.9250000 0.7202661 -0.4317500
v -0.9250000 0.7202661 -0.4317500
v -0.9250000 0.7202661 -0.3282500
v -0.9250000 0.7202661 -0.3282500
v -0.9250000 0.7202661 -0.3282500
v -0.9250000 0.7202661 -0.2797500
v -0.9250000 0.7202661 -0.2797500
v -0.9250000 0.7202661 -0.1762500
v -0.9250000 0.7202661 -0.1762500
v -0.9250000 0.7202661 -0.1762500
v -0.9250000 0.7202661 -0.1277500
v -0.9250000 0.7202661 -0.1277500
v -0.9250000 0.7202661 -0.0242500
v -0.9250000 0.7202661 -0.0242500
v -0.9250000 0.7202661 -0.0242500
v -0.9250000 0.7202661 0.0242500
v -0.9250000 0.7202661 0.0242500
v -0.9250000 0.7202661 0.1277500
v -0.9250000 0.7202661 0.1277500
v -0.9250000 0.7202661 0.1277500
v -0.9250000 0.7202661 0.1762500
v -0.9250000 0.7202661 0.1762500
v -0.9250000 0.7202661 0.2797500
v -0.9250000 0.7202661 0.2797500
v -0.9250000 0.7202661 0.2797500
v -0.9250000 0.7202661 0.3282500
v -0.9250000 0.7202661 0.3282500
v -0.9250000 0.7202661 0.4317500
v -0.9250000 0.7202661 0.4317500
v -0.9250000 0.7202661 0.4317500
v -0.9250000 0.7637661 -0.4317500
v -0.9250000 0.7637661 -0.4317500
v -0.9250000 0.7637661 -0.4317500
v -0.9250000 0.7637661 -0.3282500
v -0.9250000 0.7637661 -0.3282500
v -0.9250000 0.7637661 -0.3282500
v -0.9250000 0.7637661 -0.2797500
v -0.9250000 0.7637661 -0.2797500
v -0.9250000 0.7637661 -0.2797500
v -0.9250000 0.7637661 -0.1762500
v -0.9250000 0.7637661 -0.1762500
v -0.9250000 0.7637661 -0.1762500
v -0.9250000 0.7637661 -0.1277500
v -0.9250000 0.7637661 -0.1277500
v -0.9250000 0.7637661 -0.1277500
v -0.9250000 0.7637661 -0.0242500
v -0.9250000 0.7637661 -0.0242500
v -0.9250000 0.7637661 -0.0242500
v -0.9250000 0.7637661 0.0242500
v -0.9250000 0.7637661 0.0242500
v -0.9250000 0.7637661 0.0242500
v -0.9250000 0.7637661 0.1277500
v -0.9250000 0.7637661 0.1277500
v -0.9250000 0.7637661 0.1277500
v -0.9250000 0.7637661 0.1762500
v -0.9250000 0.7637661 0.1762500
v -0.9250000 0.7637661 0.1762500
v -0.9250000 0.7637661 0.2797500
v -0.9250000 0.7637661 0.2797500
v -0.9250000 0.7637661 0.2797500
v -0.9250000 0.7637661 0.3282500
v -0.9250000 0.7637661 0.3282500
v -0.9250000 0.7637661 0.3282500
v -0.9250000 0.7637661 0.4317500
v -0.9250000 0.7637661 0.4317500
v -0.9250000 0.7637661 0.4317500
v -0.9103000 0.3870161 -0.8003000
v -0.9103000 0.3870161 -0.6997000
v -0.9103000 0.3870161 -0.6603000
v -0.9103000 0.3870161 -0.5597000
v -0.9103000 0.3870161 0.5597000
v -0.9103000 0.3870161 0.6603000
v -0.9103000 0.3870161 0.6997000
v -0.9103000 0.3870161 0.8003000
v -0.9103000 0.4017161 -0.8150000
v -0.9103000 0.4017161 -0.8150000
v -0.9103000 0.4017161 -0.6850000
v -0.9103000 0.4017161 -0.6850000
v -0.9103000 0.4017161 -0.6750000
v -0.9103000 0.4017161 -0.6750000
v -0.9103000 0.4017161 -0.5450000
v -0.9103000 0.4017161 -0.5450000
v -0.9103000 0.4017161 0.5450000
v -0.9103000 0.4017161 0.5450000
v -0.9103000 0.4017161 0.6750000
v -0.9103000 0.4017161 0.6750000
v -0.9103000 0.4017161 0.6850000
v -0.9103000 0.4017161 0.6850000
v -0.9103000 0.4017161 0.8150000
v -0.9103000 0.4017161 0.8150000
v -0.9103000 0.4423161 -0.8150000
v -0.9103000 0.4423161 -0.8150000
v -0.9103000 0.4423161 -0.6850000
v -0.9103000 0.4423161 -0.6850000
v -0.9103000 0.4423161 -0.6750000
v -0.9103000 0.4423161 -0.6750000
v -0.9103000 0.4423161 -0.5450000
v -0.9103000 0.4423161 -0.5450000
v -0.9103000 0.4423161 0.5450000
v -0.9103000 0.4423161 0.5450000
v -0.9103000 0.4423161 0.6750000
v -0.9103000 0.4423161 0.6750000
v -0.9103000 0.4423161 0.6850000
v -0.9103000 0.4423161 0.6850000
v -0.9103000 0.4423161 0.8150000
v -0.9103000 0.4423161 0.8150000
v -0.9103000 0.4570161 -0.8003000
v -0.9103000 0.4570161 -0.6997000
v -0.9103000 0.4570161 -0.6603000
v -0.9103000 0.4570161 -0.5597000
v -0.9103000 0.4570161 0.5597000
v -0.9103000 0.4570161 0.6603000
v -0.9103000 0.4570161 0.6997000
v -0.9103000 0.4570161 0.8003000
v -0.9092500 0.7045161 -0.4317500
v -0.9092500 0.7045161 -0.3282500
v -0.9092500 0.7045161 -0.2797500
v -0.9092500 0.7045161 -0.1762500
v -0.9092500 0.7045161 -0.1277500
v -0.9092500 0.7045161 -0.0242500
v -0.9092500 0.7045161 0.0242500
v -0.9092500 0.7045161 0.1277500
v -0.9092500 0.7045161 0.1762500
v -0.9092500 0.7045161 0.2797500
v -0.9092500 0.7045161 0.3282500
v -0.9092500 0.7045161 0.4317500
v -0.9092500 0.7202661 -0.4475000
v -0.9092500 0.7202661 -0.4475000
v -0.9092500 0.7202661 -0.3125000
v -0.9092500 0.7202661 -0.3125000
v -0.9092500 0.7202661 -0.2955000
v -0.9092500 0.7202661 -0.2955000
v -0.9092500 0.7202661 -0.1605000
v -0.9092500 0.7202661 -0.1605000
v -0.9092500 0.7202661 -0.1435000
v -0.9092500 0.7202661 -0.1435000
v -0.9092500 0.7202661 -0.0085000
v -0.9092500 0.7202661 -0.0085000
v -0.9092500 0.7202661 0.0085000
v -0.9092500 0.7202661 0.0085000
v -0.9092500 0.7202661 0.1435000
v -0.9092500 0.7202661 0.1435000
v -0.9092500 0.7202661 0.1605000
v -0.9092500 0.7202661 0.1605000
v -0.9092500 0.7202661 0.2955000
v -0.9092500 0.7202661 0.2955000
v -0.9092500 0.7202661 0.3125000
v -0.9092500 0.7202661 0.3125000
v -0.9092500 0.7202661 0.4475000
v -0.9092500 0.7202661 0.4475000
v -0.9092500 0.7637661 -0.4475000
v -0.9092500 0.7637661 -0.4475000
v -0.9092500 0.7637661 -0.3125000
v -0.9092500 0.7637661 -0.3125000
v -0.9092500 0.7637661 -0.2955000
v -0.9092500 0.7637661 -0.2955000
v -0.9092500 0.7637661 -0.1605000
v -0.9092500 0.7637661 -0.1605000
v -0.9092500 0.7637661 -0.1435000
v -0.9092500 0.7637661 -0.1435000
v -0.9092500 0.7637661 -0.0085000
v -0.9092500 0.7637661 -0.0085000
v -0.9092500 0.7637661 0.0085000
v -0.9092500 0.7637661 0.0085000
v -0.9092500 0.7637661 0.1435000
v -0.9092500 0.7637661 0.1435000
v -0.9092500 0.7637661 0.1605000
v -0.9092500 0.7637661 0.1605000
v -0.9092500 0.7637661 0.2955000
v -0.9092500 0.7637661 0.2955000
v -0.9092500 0.7637661 0.3125000
v -0.9092500 0.7637661 0.3125000
v -0.9092500 0.7637661 0.4475000
v -0.9092500 0.7637661 0.4475000
v -0.9092500 0.7795161 -0.4317500
v -0.9092500 0.7795161 -0.3282500
v -0.9092500 0.7795161 -0.2797500
v -0.9092500 0.7795161 -0.1762500
v -0.9092500 0.7795161 -0.1277500
v -0.9092500 0.7795161 -0.0242500
v -0.9092500 0.7795161 0.0242500
v -0.9092500 0.7795161 0.1277500
v -0.9092500 0.7795161 0.1762500
v -0.9092500 0.7795161 0.2797500
v -0.9092500 0.7795161 0.3282500
v -0.9092500 0.7795161 0.4317500
v -0.6800000 0.3420161 -0.7700000
v -0.6800000 0.3420161 -0.7700000
v -0.6800000 0.3420161 0.7700000
v -0.6800000 0.3420161 0.7700000
v -0.6800000 0.4020161 -0.7700000
v -0.6800000 0.4020161 -0.7700000
v -0.6800000 0.4020161 0.7700000
v -0.6800000 0.4020161 0.7700000
v -0.6700000 0.0196859 -0.4692622
v -0.6700000 0.0196859 0.4692622
v -0.6700000 0.0468445 -0.5423813
v -0.6700000 0.0468445 0.5423813
v -0.6700000 0.6971877 -0.2176187
v -0.6700000 0.6971877 0.2176187
v -0.6700000 0.7243463 -0.2907378
v -0.6700000 0.7243463 0.2907378
v -0.6600000 0.3220161 -0.7700000
v -0.6600000 0.3220161 0.7700000
v -0.6600000 0.3420161 -0.7900000
v -0.6600000 0.3420161 -0.7900000
v -0.6600000 0.3420161 0.7900000
v -0.6600000 0.3420161 0.7900000
v -0.6600000 0.4020161 -0.7900000
v -0.6600000 0.4020161 -0.7900000
v -0.6600000 0.4020161 -0.7900000
v -0.6600000 0.4020161 0.7900000
v -0.6600000 0.4020161 0.7900000
v -0.6600000 0.4020161 0.7900000
v -0.6600000 0.4220161 -0.7700000
v -0.6600000 0.4220161 0.7700000
v -0.6490000 0.0000000 -0.4765741
v -0.6490000 0.0000000 -0.4765741
v -0.6490000 0.0000000 -0.4765741
v -0.6490000 0.0000000 0.4765741
v -0.6490000 0.0000000 0.4765741
v -0.6490000 0.0123740 -0.4495762
v -0.6490000 0.0123740 -0.4495762
v -0.6490000 0.0123740 0.4495762
v -0.6490000 0.0123740 0.4495762
v -0.6490000 0.0271585 -0.5496933
v -0.6490000 0.0271585 -0.5496933
v -0.6490000 0.0271585 -0.5496933
v -0.6490000 0.0271585 0.5496933
v -0.6490000 0.0271585 0.5496933
v -0.6490000 0.0271585 0.5496933
v -0.6490000 0.0541564 -0.5620673
v -0.6490000 0.0541564 -0.5620673
v -0.6490000 0.0541564 0.5620673
v -0.6490000 0.0541564 0.5620673
v -0.6490000 0.6898758 -0.1979327
v -0.6490000 0.6898758 -0.1979327
v -0.6490000 0.6898758 0.1979327
v -0.6490000 0.6898758 0.1979327
v -0.6490000 0.7168737 -0.2103067
v -0.6490000 0.7168737 -0.2103067
v -0.6490000 0.7168737 -0.2103067
v -0.6490000 0.7168737 0.2103067
v -0.6490000 0.7168737 0.2103067
v -0.6490000 0.7316582 -0.3104238
v -0.6490000 0.7316582 -0.3104238
v -0.6490000 0.7316582 0.3104238
v -0.6490000 0.7316582 0.3104238
v -0.6490000 0.7440322 -0.2834259
v -0.6490000 0.7440322 -0.2834259
v -0.6490000 0.7440322 -0.2834259
v -0.6490000 0.7440322 0.2834259
v -0.6490000 0.7440322 0.2834259
v -0.6490000 0.7440322 0.2834259
v -0.5910000 0.0000000 -0.4765741
v -0.5910000 0.0000000 -0.4765741
v -0.5910000 0.0000000 0.4765741
v -0.5910000 0.0000000 0.4765741
v -0.5910000 0.0000000 0.4765741
v -0.5910000 0.0123740 -0.4495762
v -0.5910000 0.0123740 -0.4495762
v -0.5910000 0.0123740 0.4495762
v -0.5910000 0.0123740 0.4495762
v -0.5910000 0.0271585 -0.5496933
v -0.5910000 0.0271585 -0.5496933
v -0.5910000 0.0271585 -0.5496933
v -0.5910000 0.0271585 0.5496933
v -0.5910000 0.0271585 0.5496933
v -0.5910000 0.0271585 0.5496933
v -0.5910000 0.0541564 -0.5620673
v -0.5910000 0.0541564 -0.5620673
v -0.5910000 0.0541564 0.5620673
v -0.5910000 0.0541564 0.5620673
v -0.5910000 0.6898758 -0.1979327
v -0.5910000 0.6898758 -0.1979327
v -0.5910000 0.6898758 0.1979327
v -0.5910000 0.6898758 0.1979327
v -0.5910000 0.7168737 -0.2103067
v -0.5910000 0.7168737 -0.2103067
v -0.5910000 0.7168737 0.2103067
v -0.5910000 0.7168737 0.2103067
v -0.5910000 0.7168737 0.2103067
v -0.5910000 0.7316582 -0.3104238
v -0.5910000 0.7316582 -0.3104238
v -0.5910000 0.7316582 0.3104238
v -0.5910000 0.7316582 0.3104238
v -0.5910000 0.7440322 -0.2834259
v -0.5910000 0.7440322 -0.2834259
v -0.5910000 0.7440322 -0.2834259
v -0.5910000 0.7440322 0.2834259
v -0.5910000 0.7440322 0.2834259
v -0.5910000 0.7440322 0.2834259
v -0.5800000 0.3220161 -0.7700000
v -0.5800000 0.3220161 0.7700000
v -0.5800000 0.3420161 -0.7900000
v -0.5800000 0.3420161 -0.7900000
v -0.5800000 0.3420161 -0.7900000
v -0.5800000 0.3420161 0.7900000
v -0.5800000 0.3420161 0.7900000
v -0.5800000 0.3420161 0.7900000
v -0.5800000 0.4020161 -0.7900000
v -0.5800000 0.4020161 -0.7900000
v -0.5800000 0.4020161 -0.7900000
v -0.5800000 0.4020161 0.7900000
v -0.5800000 0.4020161 0.7900000
v -0.5800000 0.4020161 0.7900000
v -0.5800000 0.4220161 -0.7700000
v -0.5800000 0.4220161 0.7700000
v -0.5700000 0.0196859 -0.4692622
v -0.5700000 0.0196859 0.4692622
v -0.5700000 0.0468445 -0.5423813
v -0.5700000 0.0468445 0.5423813
v -0.5700000 0.6971877 -0.2176187
v -0.5700000 0.6971877 0.2176187
v -0.5700000 0.7243463 -0.2907378
v -0.5700000 0.7243463 0.2907378
v -0.5600000 0.3420161 -0.7700000
v -0.5600000 0.3420161 -0.7700000
v -0.5600000 0.3420161 0.7700000
v -0.5600000 0.3420161 0.7700000
v -0.5600000 0.4020161 -0.7700000
v -0.5600000 0.4020161 -0.7700000
v -0.5600000 0.4020161 0.7700000
v -0.5600000 0.4020161 0.7700000
v 0.5600000 0.3420161 -0.7700000
v 0.5600000 0.3420161 -0.7700000
v 0.5600000 0.3420161 0.7700000
v 0.5600000 0.3420161 0.7700000
v 0.5600000 0.4020161 -0.7700000
v 0.5600000 0.4020161 -0.7700000
v 0.5600000 0.4020161 0.7700000
v 0.5600000 0.4020161 0.7700000
v 0.5700000 0.0196859 -0.4692622
v 0.5700000 0.0196859 0.4692622
v 0.5700000 0.0468445 -0.5423813
v 0.5700000 0.0468445 0.5423813
v 0.5700000 0.6971877 -0.2176187
v 0.5700000 0.6971877 0.2176187
v 0.5700000 0.7243463 -0.2907378
v 0.5700000 0.7243463 0.2907378
v 0.5800000 0.3220161 -0.7700000
v 0.5800000 0.3220161 0.7700000
v 0.5800000 0.3420161 -0.7900000
v 0.5800000 0.3420161 -0.7900000
v 0.5800000 0.3420161 0.7900000
v 0.5800000 0.3420161 0.7900000
v 0.5800000 0.4020161 -0.7900000
v 0.5800000 0.4020161 -0.7900000
v 0.5800000 0.4020161 -0.7900000
v 0.5800000 0.4020161 0.7900000
v 0.5800000 0.4020161 0.7900000
v 0.5800000 0.4020161 0.7900000
v 0.5800000 0.4220161 -0.7700000
v 0.5800000 0.4220161 0.7700000
v 0.5910000 0.0000000 -0.4765741
v 0.5910000 0.0000000 -0.4765741
v 0.5910000 0.0000000 -0.4765741
v 0.5910000 0.0000000 0.4765741
v 0.5910000 0.0000000 0.4765741
v 0.5910000 0.0123740 -0.4495762
v 0.5910000 0.0123740 -0.4495762
v 0.5910000 0.0123740 0.4495762
v 0.5910000 0.0123740 0.4495762
v 0.5910000 0.0271585 -0.5496933
v 0.5910000 0.0271585 -0.5496933
v 0.5910000 0.0271585 -0.5496933
v 0.5910000 0.0271585 0.5496933
v 0.5910000 0.0271585 0.5496933
v 0.5910000 0.0271585 0.5496933
v 0.5910000 0.0541564 -0.5620673
v 0.5910000 0.0541564 -0.5620673
v 0.5910000 0.0541564 0.5620673
v 0.5910000 0.0541564 0.5620673
v 0.5910000 0.6898758 -0.1979327
v 0.5910000 0.6898758 -0.1979327
v 0.5910000 0.6898758 0.1979327
v 0.5910000 0.6898758 0.1979327
v 0.5910000 0.7168737 -0.2103067
v 0.5910000 0.7168737 -0.2103067
v 0.5910000 0.7168737 -0.2103067
v 0.5910000 0.7168737 0.2103067
v 0.5910000 0.7168737 0.2103067
v 0.5910000 0.7316582 -0.3104238
v 0.5910000 0.7316582 -0.3104238
v 0.5910000 0.7316582 0.3104238
v 0.5910000 0.7316582 0.3104238
v 0.5910000 0.7440322 -0.2834259
v 0.5910000 0.7440322 -0.2834259
v 0.5910000 0.7440322 -0.2834259
v 0.5910000 0.7440322 0.2834259
v 0.5910000 0.7440322 0.2834259
v 0.5910000 0.7440322 0.2834259
v 0.6490000 0.0000000 -0.4765741
v 0.6490000 0.0000000 -0.4765741
v 0.6490000 0.0000000 0.4765741
v 0.6490000 0.0000000 0.4765741
v 0.6490000 0.0000000 0.4765741
v 0.6490000 0.0123740 -0.4495762
v 0.6490000 0.0123740 -0.4495762
v 0.6490000 0.0123740 0.4495762
v 0.6490000 0.0123740 0.4495762
v 0.6490000 0.0271585 -0.5496933
v 0.6490000 0.0271585 -0.5496933
v 0.6490000 0.0271585 -0.5496933
v 0.6490000 0.0271585 0.5496933
v 0.6490000 0.0271585 0.5496933
v 0.6490000 0.0271585 0.5496933
v 0.6490000 0.0541564 -0.5620673
v 0.6490000 0.0541564 -0.5620673
v 0.6490000 0.0541564 0.5620673
v 0.6490000 0.0541564 0.5620673
v 0.6490000 0.6898758 -0.1979327
v 0.6490000 0.6898758 -0.1979327
v 0.6490000 0.6898758 0.1979327
v 0.6490000 0.6898758 0.1979327
v 0.6490000 0.7168737 -0.2103067
v 0.6490000 0.7168737 -0.2103067
v 0.6490000 0.7168737 0.2103067
v 0.6490000 0.7168737 0.2103067
v 0.6490000 0.7168737 0.2103067
v 0.6490000 0.7316582 -0.3104238
v 0.6490000 0.7316582 -0.3104238
v 0.6490000 0.7316582 0.3104238
v 0.6490000 0.7316582 0.3104238
v 0.6490000 0.7440322 -0.2834259
v 0.6490000 0.7440322 -0.2834259
v 0.6490000 0.7440322 -0.2834259
v 0.6490000 0.7440322 0.2834259
v 0.6490000 0.7440322 0.2834259
v 0.6490000 0.7440322 0.2834259
v 0.6600000 0.3220161 -0.7700000
v 0.6600000 0.3220161 0.7700000
v 0.6600000 0.3420161 -0.7900000
v 0.6600000 0.3420161 -0.7900000
v 0.6600000 0.3420161 -0.7900000
v 0.6600000 0.3420161 0.7900000
v 0.6600000 0.3420161 0.7900000
v 0.6600000 0.3420161 0.7900000
v 0.6600000 0.4020161 -0.7900000
v 0.6600000 0.4020161 -0.7900000
v 0.6600000 0.4020161 -0.7900000
v 0.6600000 0.4020161 0.7900000
v 0.6600000 0.4020161 0.7900000
v 0.6600000 0.4020161 0.7900000
v 0.6600000 0.4220161 -0.7700000
v 0.6600000 0.4220161 0.7700000
v 0.6700000 0.0196859 -0.4692622
v 0.6700000 0.0196859 0.4692622
v 0.6700000 0.0468445 -0.5423813
v 0.6700000 0.0468445 0.5423813
v 0.6700000 0.6971877 -0.2176187
v 0.6700000 0.6971877 0.2176187
v 0.6700000 0.7243463 -0.2907378
v 0.6700000 0.7243463 0.2907378
v 0.6800000 0.3420161 -0.7700000
v 0.6800000 0.3420161 -0.7700000
v 0.6800000 0.3420161 0.7700000
v 0.6800000 0.3420161 0.7700000
v 0.6800000 0.4020161 -0.7700000
v 0.6800000 0.4020161 -0.7700000
v 0.6800000 0.4020161 0.7700000
v 0.6800000 0.4020161 0.7700000
v 0.9092500 0.7045161 -0.4317500
v 0.9092500 0.7045161 -0.3282500
v 0.9092500 0.7045161 -0.2797500
v 0.9092500 0.7045161 -0.1762500
v 0.9092500 0.7045161 -0.1277500
v 0.9092500 0.7045161 -0.0242500
v 0.9092500 0.7045161 0.0242500
v 0.9092500 0.7045161 0.1277500
v 0.9092500 0.7045161 0.1762500
v 0.9092500 0.7045161 0.2797500
v 0.9092500 0.7045161 0.3282500
v 0.9092500 0.7045161 0.4317500
v 0.9092500 0.7202661 -0.4475000
v 0.9092500 0.7202661 -0.4475000
v 0.9092500 0.7202661 -0.3125000
v 0.9092500 0.7202661 -0.3125000
v 0.9092500 0.7202661 -0.2955000
v 0.9092500 0.7202661 -0.2955000
v 0.9092500 0.7202661 -0.1605000
v 0.9092500 0.7202661 -0.1605000
v 0.9092500 0.7202661 -0.1435000
v 0.9092500 0.7202661 -0.1435000
v 0.9092500 0.7202661 -0.0085000
v 0.9092500 0.7202661 -0.0085000
v 0.9092500 0.7202661 0.0085000
v 0.9092500 0.7202661 0.0085000
v 0.9092500 0.7202661 0.1435000
v 0.9092500 0.7202661 0.1435000
v 0.9092500 0.7202661 0.1605000
v 0.9092500 0.7202661 0.1605000
v 0.9092500 0.7202661 0.2955000
v 0.9092500 0.7202661 0.2955000
v 0.9092500 0.7202661 0.3125000
v 0.9092500 0.7202661 0.3125000
v 0.9092500 0.7202661 0.4475000
v 0.9092500 0.7202661 0.4475000
v 0.9092500 0.7637661 -0.4475000
v 0.9092500 0.7637661 -0.4475000
v 0.9092500 0.7637661 -0.3125000
v 0.9092500 0.7637661 -0.3125000
v 0.9092500 0.7637661 -0.2955000
v 0.9092500 0.7637661 -0.2955000
v 0.9092500 0.7637661 -0.1605000
v 0.9092500 0.7637661 -0.1605000
v 0.9092500 0.7637661 -0.1435000
v 0.9092500 0.7637661 -0.1435000
v 0.9092500 0.7637661 -0.0085000
v 0.9092500 0.7637661 -0.0085000
v 0.9092500 0.7637661 0.0085000
v 0.9092500 0.7637661 0.0085000
v 0.9092500 0.7637661 0.1435000
v 0.9092500 0.7637661 0.1435000
v 0.9092500 0.7637661 0.1605000
v 0.9092500 0.7637661 0.1605000
v 0.9092500 0.7637661 0.2955000
v 0.9092500 0.7637661 0.2955000
v 0.9092500 0.7637661 0.3125000
v 0.9092500 0.7637661 0.3125000
v 0.9092500 0.7637661 0.4475000
v 0.9092500 0.7637661 0.4475000
v 0.9092500 0.7795161 -0.4317500
v 0.9092500 0.7795161 -0.3282500
v 0.9092500 0.7795161 -0.2797500
v 0.9092500 0.7795161 -0.1762500
v 0.9092500 0.7795161 -0.1277500
v 0.9092500 0.7795161 -0.0242500
v 0.9092500 0.7795161 0.0242500
v 0.9092500 0.7795161 0.1277500
v 0.9092500 0.7795161 0.1762500
v 0.9092500 0.7795161 0.2797500
v 0.9092500 0.7795161 0.3282500
v 0.9092500 0.7795161 0.4317500
v 0.9103000 0.3870161 -0.8003000
v 0.9103000 0.3870161 -0.6997000
v 0.9103000 0.3870161 -0.6603000
v 0.9103000 0.3870161 -0.5597000
v 0.9103000 0.3870161 0.5597000
v 0.9103000 0.3870161 0.6603000
v 0.9103000 0.3870161 0.6997000
v 0.9103000 0.3870161 0.8003000
v 0.9103000 0.4017161 -0.8150000
v 0.9103000 0.4017161 -0.8150000
v 0.9103000 0.4017161 -0.6850000
v 0.9103000 0.4017161 -0.6850000
v 0.9103000 0.4017161 -0.6750000
v 0.9103000 0.4017161 -0.6750000
v 0.9103000 0.4017161 -0.5450000
v 0.9103000 0.4017161 -0.5450000
v 0.9103000 0.4017161 0.5450000
v 0.9103000 0.4017161 0.5450000
v 0.9103000 0.4017161 0.6750000
v 0.9103000 0.4017161 0.6750000
v 0.9103000 0.4017161 0.6850000
v 0.9103000 0.4017161 0.6850000
v 0.9103000 0.4017161 0.8150000
v 0.9103000 0.4017161 0.8150000
v 0.9103000 0.4423161 -0.8150000
v 0.9103000 0.4423161 -0.8150000
v 0.9103000 0.4423161 -0.6850000
v 0.9103000 0.4423161 -0.6850000
v 0.9103000 0.4423161 -0.6750000
v 0.9103000 0.4423161 -0.6750000
v 0.9103000 0.4423161 -0.5450000
v 0.9103000 0.4423161 -0.5450000
v 0.9103000 0.4423161 0.5450000
v 0.9103000 0.4423161 0.5450000
v 0.9103000 0.4423161 0.6750000
v 0.9103000 0.4423161 0.6750000
v 0.9103000 0.4423161 0.6850000
v 0.9103000 0.4423161 0.6850000
v 0.9103000 0.4423161 0.8150000
v 0.9103000 0.4423161 0.8150000
v 0.9103000 0.4570161 -0.8003000
v 0.9103000 0.4570161 -0.6997000
v 0.9103000 0.4570161 -0.6603000
v 0.9103000 0.4570161 -0.5597000
v 0.9103000 0.4570161 0.5597000
v 0.9103000 0.4570161 0.6603000
v 0.9103000 0.4570161 0.6997000
v 0.9103000 0.4570161 0.8003000
v 0.9250000 0.4017161 -0.8003000
v 0.9250000 0.4017161 -0.8003000
v 0.9250000 0.4017161 -0.6997000
v 0.9250000 0.4017161 -0.6997000
v 0.9250000 0.4017161 -0.6997000
v 0.9250000 0.4017161 -0.6603000
v 0.9250000 0.4017161 -0.6603000
v 0.9250000 0.4017161 -0.5597000
v 0.9250000 0.4017161 -0.5597000
v 0.9250000 0.4017161 -0.5597000
v 0.9250000 0.4017161 0.5597000
v 0.9250000 0.4017161 0.5597000
v 0.9250000 0.4017161 0.6603000
v 0.9250000 0.4017161 0.6603000
v 0.9250000 0.4017161 0.6603000
v 0.9250000 0.4017161 0.6997000
v 0.9250000 0.4017161 0.6997000
v 0.9250000 0.4017161 0.8003000
v 0.9250000 0.4017161 0.8003000
v 0.9250000 0.4017161 0.8003000
v 0.9250000 0.4423161 -0.8003000
v 0.9250000 0.4423161 -0.8003000
v 0.9250000 0.4423161 -0.8003000
v 0.9250000 0.4423161 -0.6997000
v 0.9250000 0.4423161 -0.6997000
v 0.9250000 0.4423161 -0.6997000
v 0.9250000 0.4423161 -0.6603000
v 0.9250000 0.4423161 -0.6603000
v 0.9250000 0.4423161 -0.6603000
v 0.9250000 0.4423161 -0.5597000
v 0.9250000 0.4423161 -0.5597000
v 0.9250000 0.4423161 -0.5597000
v 0.9250000 0.4423161 0.5597000
v 0.9250000 0.4423161 0.5597000
v 0.9250000 0.4423161 0.5597000
v 0.9250000 0.4423161 0.6603000
v 0.9250000 0.4423161 0.6603000
v 0.9250000 0.4423161 0.6603000
v 0.9250000 0.4423161 0.6997000
v 0.9250000 0.4423161 0.6997000
v 0.9250000 0.4423161 0.6997000
v 0.9250000 0.4423161 0.8003000
v 0.9250000 0.4423161 0.8003000
v 0.9250000 0.4423161 0.8003000
v 0.9250000 0.7202661 -0.4317500
v 0.9250000 0.7202661 -0.4317500
v 0.9250000 0.7202661 -0.3282500
v 0.9250000 0.7202661 -0.3282500
v 0.9250000 0.7202661 -0.3282500
v 0.9250000 0.7202661 -0.2797500
v 0.9250000 0.7202661 -0.2797500
v 0.9250000 0.7202661 -0.1762500
v 0.9250000 0.7202661 -0.1762500
v 0.9250000 0.7202661 -0.1762500
v 0.9250000 0.7202661 -0.1277500
v 0.9250000 0.7202661 -0.1277500
v 0.9250000 0.7202661 -0.0242500
v 0.9250000 0.7202661 -0.0242500
v 0.9250000 0.7202661 -0.0242500
v 0.9250000 0.7202661 0.0242500
v 0.9250000 0.7202661 0.0242500
v 0.9250000 0.7202661 0.1277500
v 0.9250000 0.7202661 0.1277500
v 0.9250000 0.7202661 0.1277500
v 0.9250000 0.7202661 0.1762500
v 0.9250000 0.7202661 0.1762500
v 0.9250000 0.7202661 0.2797500
v 0.9250000 0.7202661 0.2797500
v 0.9250000 0.7202661 0.2797500
v 0.9250000 0.7202661 0.3282500
v 0.9250000 0.7202661 0.3282500
v 0.9250000 0.7202661 0.4317500
v 0.9250000 0.7202661 0.4317500
v 0.9250000 0.7202661 0.4317500
v 0.9250000 0.7637661 -0.4317500
v 0.9250000 0.7637661 -0.4317500
v 0.9250000 0.7637661 -0.4317500
v 0.9250000 0.7637661 -0.3282500
v 0.9250000 0.7637661 -0.3282500
v 0.9250000 0.7637661 -0.3282500
v 0.9250000 0.7637661 -0.2797500
v 0.9250000 0.7637661 -0.2797500
v 0.9250000 0.7637661 -0.2797500
v 0.9250000 0.7637661 -0.1762500
v 0.9250000 0.7637661 -0.1762500
v 0.9250000 0.7637661 -0.1762500
v 0.9250000 0.7637661 -0.1277500
v 0.9250000 0.7637661 -0.1277500
v 0.9250000 0.7637661 -0.1277500
v 0.9250000 0.7637661 -0.0242500
v 0.9250000 0.7637661 -0.0242500
v 0.9250000 0.7637661 -0.0242500
v 0.9250000 0.7637661 0.0242500
v 0.9250000 0.7637661 0.0242500
v 0.9250000 0.7637661 0.0242500
v 0.9250000 0.7637661 0.1277500
v 0.9250000 0.7637661 0.1277500
v 0.9250000 0.7637661 0.1277500
v 0.9250000 0.7637661 0.1762500
v 0.9250000 0.7637661 0.1762500
v 0.9250000 0.7637661 0.1762500
v 0.9250000 0.7637661 0.2797500
v 0.9250000 0.7637661 0.2797500
v 0.9250000 0.7637661 0.2797500
v 0.9250000 0.7637661 0.3282500
v 0.9250000 0.7637661 0.3282500
v 0.9250000 0.7637661 0.3282500
v 0.9250000 0.7637661 0.4317500
v 0.9250000 0.7637661 0.4317500
v 0.9250000 0.7637661 0.4317500
vt 0.1323353 0.0608093
vt 0.1323353 0.0651328
vt 0.1323353 0.0608093
vt 0.1323353 0.0947211
vt 0.2760496 0.0608093
vt 0.0818777 0.1016087
vt 0.0818777 0.1059323
vt 0.0818777 0.1016087
vt 0.0818777 0.1355205
vt 0.2255920 0.1016087
vt 0.0692756 0.0790451
vt 0.0692756 0.0833687
vt 0.0692756 0.0790451
vt 0.0692756 0.1129569
vt 0.2129899 0.0790451
vt 0.0701943 0.1003005
vt 0.0701943 0.1046241
vt 0.0701943 0.1003005
vt 0.0701943 0.1342123
vt 0.2139086 0.1003005
vt 0.1323353 0.0608093
vt 0.1903353 0.0608093
vt 0.1903353 0.0651328
vt 0.1903353 0.0608093
vt 0.1903353 0.0947211
vt 0.2760496 0.0608093
vt 0.0818777 0.1016087
vt 0.1398777 0.1016087
vt 0.1398777 0.1059323
vt 0.1398777 0.1016087
vt 0.1398777 0.1355205
vt 0.2255920 0.1016087
vt 0.0692756 0.0790451
vt 0.1272756 0.0790451
vt 0.1272756 0.0833687
vt 0.1272756 0.0790451
vt 0.1272756 0.1129569
vt 0.2129899 0.0790451
vt 0.0701943 0.1003005
vt 0.1281943 0.1003005
vt 0.1281943 0.1046241
vt 0.1281943 0.1003005
vt 0.1281943 0.1342123
vt 0.2139086 0.1003005
vt 0.0636971 0.0848696
vt 0.0636971 0.0895020
vt 0.0636971 0.0848696
vt 0.0636971 0.1199431
vt 0.2115542 0.0848696
vt 0.1113727 0.0229425
vt 0.1113727 0.0275749
vt 0.1113727 0.0229425
vt 0.1113727 0.0580161
vt 0.2592298 0.0229425
vt 0.1270589 0.0232949
vt 0.1270589 0.0279272
vt 0.1270589 0.0232949
vt 0.1270589 0.0583684
vt 0.2749160 0.0232949
vt 0.0602355 0.1139445
vt 0.0602355 0.1185769
vt 0.0602355 0.1139445
vt 0.0602355 0.1490180
vt 0.2080926 0.1139445
vt 0.0927694 0.0985059
vt 0.0927694 0.1031383
vt 0.0927694 0.0985059
vt 0.0927694 0.1335794
vt 0.2406265 0.0985059
vt 0.1280773 0.1286222
vt 0.1280773 0.1332545
vt 0.1280773 0.1286222
vt 0.1280773 0.1636957
vt 0.2759344 0.1286222
vt 0.0636971 0.0848696
vt 0.1258399 0.0848696
vt 0.1258399 0.0895020
vt 0.1258399 0.0848696
vt 0.1258399 0.1199431
vt 0.2115542 0.0848696
vt 0.1113727 0.0229425
vt 0.1735156 0.0229425
vt 0.1735156 0.0275749
vt 0.1735156 0.0229425
vt 0.1735156 0.0580161
vt 0.2592298 0.0229425
vt 0.1270589 0.0232949
vt 0.1892018 0.0232949
vt 0.1892018 0.0279272
vt 0.1892018 0.0232949
vt 0.1892018 0.0583684
vt 0.2749160 0.0232949
vt 0.0602355 0.1139445
vt 0.1223784 0.1139445
vt 0.1223784 0.1185769
vt 0.1223784 0.1139445
vt 0.1223784 0.1490180
vt 0.2080926 0.1139445
vt 0.0927694 0.0985059
vt 0.1549122 0.0985059
vt 0.1549122 0.1031383
vt 0.1549122 0.0985059
vt 0.1549122 0.1335794
vt 0.2406265 0.0985059
vt 0.1280773 0.1286222
vt 0.1902201 0.1286222
vt 0.1902201 0.1332545
vt 0.1902201 0.1286222
vt 0.1902201 0.1636957
vt 0.2759344 0.1286222
vt 0.1323353 0.0651328
vt 0.2760496 0.0651328
vt 0.0818777 0.1059323
vt 0.2255920 0.1059323
vt 0.0692756 0.0833687
vt 0.2129899 0.0833687
vt 0.0701943 0.1046241
vt 0.2139086 0.1046241
vt 0.1113353 0.0651328
vt 0.1323353 0.0651328
vt 0.1323353 0.0651328
vt 0.2970496 0.0651328
vt 0.0608777 0.1059323
vt 0.0818777 0.1059323
vt 0.0818777 0.1059323
vt 0.2465920 0.1059323
vt 0.0482756 0.0833687
vt 0.0692756 0.0833687
vt 0.0692756 0.0833687
vt 0.2339899 0.0833687
vt 0.0491943 0.1046241
vt 0.0701943 0.1046241
vt 0.0701943 0.1046241
vt 0.2349086 0.1046241
vt 0.1113353 0.0651328
vt 0.1903353 0.0651328
vt 0.1903353 0.0651328
vt 0.2970496 0.0651328
vt 0.0608777 0.1059323
vt 0.1398777 0.1059323
vt 0.1398777 0.1059323
vt 0.2465920 0.1059323
vt 0.0482756 0.0833687
vt 0.1272756 0.0833687
vt 0.1272756 0.0833687
vt 0.2339899 0.0833687
vt 0.0491943 0.1046241
vt 0.1281943 0.1046241
vt 0.1281943 0.1046241
vt 0.2349086 0.1046241
vt 0.1323353 0.0651328
vt 0.2760496 0.0651328
vt 0.0818777 0.1059323
vt 0.2255920 0.1059323
vt 0.0692756 0.0833687
vt 0.2129899 0.0833687
vt 0.0701943 0.1046241
vt 0.2139086 0.1046241
vt 0.0636971 0.0895020
vt 0.2115542 0.0895020
vt 0.1113727 0.0275749
vt 0.2592298 0.0275749
vt 0.1270589 0.0279272
vt 0.2749160 0.0279272
vt 0.0602355 0.1185769
vt 0.2080926 0.1185769
vt 0.0927694 0.1031383
vt 0.2406265 0.1031383
vt 0.1280773 0.1332545
vt 0.2759344 0.1332545
vt 0.0411971 0.0895020
vt 0.0636971 0.0895020
vt 0.0636971 0.0895020
vt 0.2340542 0.0895020
vt 0.0888727 0.0275749
vt 0.1113727 0.0275749
vt 0.1113727 0.0275749
vt 0.2817298 0.0275749
vt 0.1045589 0.0279272
vt 0.1270589 0.0279272
vt 0.1270589 0.0279272
vt 0.2974160 0.0279272
vt 0.0377355 0.1185769
vt 0.0602355 0.1185769
vt 0.0602355 0.1185769
vt 0.2305926 0.1185769
vt 0.0702694 0.1031383
vt 0.0927694 0.1031383
vt 0.0927694 0.1031383
vt 0.2631265 0.1031383
vt 0.1055773 0.1332545
vt 0.1280773 0.1332545
vt 0.1280773 0.1332545
vt 0.2984344 0.1332545
vt 0.0411971 0.0895020
vt 0.1258399 0.0895020
vt 0.1258399 0.0895020
vt 0.2340542 0.0895020
vt 0.0888727 0.0275749
vt 0.1735156 0.0275749
vt 0.1735156 0.0275749
vt 0.2817298 0.0275749
vt 0.1045589 0.0279272
vt 0.1892018 0.0279272
vt 0.1892018 0.0279272
vt 0.2974160 0.0279272
vt 0.0377355 0.1185769
vt 0.1223784 0.1185769
vt 0.1223784 0.1185769
vt 0.2305926 0.1185769
vt 0.0702694 0.1031383
vt 0.1549122 0.1031383
vt 0.1549122 0.1031383
vt 0.2631265 0.1031383
vt 0.1055773 0.1332545
vt 0.1902201 0.1332545
vt 0.1902201 0.1332545
vt 0.2984344 0.1332545
vt 0.0636971 0.0895020
vt 0.2115542 0.0895020
vt 0.1113727 0.0275749
vt 0.2592298 0.0275749
vt 0.1270589 0.0279272
vt 0.2749160 0.0279272
vt 0.0602355 0.1185769
vt 0.2080926 0.1185769
vt 0.0927694 0.1031383
vt 0.2406265 0.1031383
vt 0.1280773 0.1332545
vt 0.2759344 0.1332545
vt 0.0217066 0.1197891
vt 0.0502780 0.1197891
vt 0.0217066 0.5727303
vt 0.0502780 0.5727303
vt 0.0217066 0.1197891
vt 0.1359923 0.1197891
vt 0.0217066 0.5727303
vt 0.1359923 0.5727303
vt 0.1141309 0.0607217
vt 0.1107577 0.1209804
vt 0.2255595 0.0607217
vt 0.2221863 0.1209804
vt 0.1141309 0.2732883
vt 0.1107577 0.3335469
vt 0.2255595 0.2732883
vt 0.2221863 0.3335469
vt 0.0502780 0.1197891
vt 0.0502780 0.5727303
vt 0.0502780 0.1139068
vt 0.0502780 0.1197891
vt 0.0502780 0.1197891
vt 0.0502780 0.5786127
vt 0.0502780 0.1139068
vt 0.1359923 0.1139068
vt 0.1359923 0.1197891
vt 0.0502780 0.5786127
vt 0.1359923 0.1197891
vt 0.1359923 0.5786127
vt 0.0502780 0.1197891
vt 0.0502780 0.5727303
vt 0.1141309 0.0545453
vt 0.1969881 0.0545453
vt 0.1969881 0.0607217
vt 0.1107577 0.1148039
vt 0.1107577 0.1209804
vt 0.0841309 0.0607217
vt 0.1969881 0.0607217
vt 0.0807577 0.1209804
vt 0.1107577 0.1209804
vt 0.1969881 0.0545453
vt 0.1969881 0.0836629
vt 0.2255595 0.0545453
vt 0.1107577 0.1148039
vt 0.1107577 0.1439215
vt 0.2221863 0.1148039
vt 0.1969881 0.0607217
vt 0.2555595 0.0607217
vt 0.1107577 0.1209804
vt 0.2521863 0.1209804
vt 0.0841309 0.2732883
vt 0.1969881 0.2732883
vt 0.0807577 0.3335469
vt 0.1107577 0.3335469
vt 0.1141309 0.2794647
vt 0.1969881 0.0607217
vt 0.1969881 0.2794647
vt 0.1107577 0.1209804
vt 0.1107577 0.3397234
vt 0.1969881 0.2732883
vt 0.2555595 0.2732883
vt 0.1107577 0.3335469
vt 0.2521863 0.3335469
vt 0.1969881 0.0836629
vt 0.1969881 0.2794647
vt 0.2255595 0.2794647
vt 0.1107577 0.1439215
vt 0.1107577 0.3397234
vt 0.2221863 0.3397234
vt 0.1141309 0.0545453
vt 0.1141309 0.0607217
vt 0.1107577 0.1148039
vt 0.1936149 0.1148039
vt 0.1936149 0.1209804
vt 0.0841309 0.0607217
vt 0.1141309 0.0607217
vt 0.0807577 0.1209804
vt 0.1936149 0.1209804
vt 0.1141309 0.0545453
vt 0.1141309 0.0836629
vt 0.2255595 0.0545453
vt 0.1936149 0.1148039
vt 0.1936149 0.1439215
vt 0.2221863 0.1148039
vt 0.1141309 0.0607217
vt 0.2555595 0.0607217
vt 0.1936149 0.1209804
vt 0.2521863 0.1209804
vt 0.0841309 0.2732883
vt 0.1141309 0.2732883
vt 0.0807577 0.3335469
vt 0.1936149 0.3335469
vt 0.1141309 0.0607217
vt 0.1141309 0.2794647
vt 0.1107577 0.3397234
vt 0.1936149 0.1209804
vt 0.1936149 0.3397234
vt 0.1141309 0.2732883
vt 0.2555595 0.2732883
vt 0.1936149 0.3335469
vt 0.2521863 0.3335469
vt 0.1141309 0.0836629
vt 0.1141309 0.2794647
vt 0.2255595 0.2794647
vt 0.1936149 0.1439215
vt 0.1936149 0.3397234
vt 0.2221863 0.3397234
vt 0.1645637 0.1197891
vt 0.1645637 0.5727303
vt 0.0502780 0.1139068
vt 0.0502780 0.1433186
vt 0.1645637 0.1139068
vt 0.0502780 0.1433186
vt 0.0502780 0.5786127
vt 0.1645637 0.5786127
vt 0.1359923 0.1139068
vt 0.1359923 0.1433186
vt 0.1645637 0.1139068
vt 0.1359923 0.1433186
vt 0.1359923 0.5786127
vt 0.1645637 0.5786127
vt 0.1645637 0.1197891
vt 0.1645637 0.5727303
vt 0.1141309 0.0607217
vt 0.1107577 0.1209804
vt 0.2255595 0.0607217
vt 0.2221863 0.1209804
vt 0.1141309 0.2732883
vt 0.1107577 0.3335469
vt 0.2255595 0.2732883
vt 0.2221863 0.3335469
vt 0.0502780 0.1197891
vt 0.1931351 0.1197891
vt 0.0502780 0.5727303
vt 0.1931351 0.5727303
vt 0.1359923 0.1197891
vt 0.1931351 0.1197891
vt 0.1359923 0.5727303
vt 0.1931351 0.5727303
vt 0.1042112 0.1198425
vt 0.1327826 0.1198425
vt 0.1042112 0.5727836
vt 0.1327826 0.5727836
vt 0.1042112 0.1198425
vt 0.2184969 0.1198425
vt 0.1042112 0.5727836
vt 0.2184969 0.5727836
vt 0.1077904 0.0730308
vt 0.1569325 0.1235752
vt 0.2192190 0.0730308
vt 0.2683611 0.1235752
vt 0.1077904 0.2855973
vt 0.1569325 0.3361417
vt 0.2192190 0.2855973
vt 0.2683611 0.3361417
vt 0.1327826 0.1198425
vt 0.1327826 0.5727836
vt 0.1327826 0.1139601
vt 0.1327826 0.1198425
vt 0.1327826 0.1198425
vt 0.1327826 0.5786660
vt 0.1327826 0.1139601
vt 0.2184969 0.1139601
vt 0.2184969 0.1198425
vt 0.1327826 0.5786660
vt 0.2184969 0.1198425
vt 0.2184969 0.5786660
vt 0.1327826 0.1198425
vt 0.1327826 0.5727836
vt 0.1077904 0.0668543
vt 0.1906476 0.0668543
vt 0.1906476 0.0730308
vt 0.1569325 0.1173987
vt 0.1569325 0.1235752
vt 0.0777904 0.0730308
vt 0.1906476 0.0730308
vt 0.1269325 0.1235752
vt 0.1569325 0.1235752
vt 0.1906476 0.0668543
vt 0.1906476 0.0959720
vt 0.2192190 0.0668543
vt 0.1569325 0.1173987
vt 0.1569325 0.1465164
vt 0.2683611 0.1173987
vt 0.1906476 0.0730308
vt 0.2492190 0.0730308
vt 0.1569325 0.1235752
vt 0.2983611 0.1235752
vt 0.0777904 0.2855973
vt 0.1906476 0.2855973
vt 0.1269325 0.3361417
vt 0.1569325 0.3361417
vt 0.1077904 0.2917738
vt 0.1906476 0.0730308
vt 0.1906476 0.2917738
vt 0.1569325 0.1235752
vt 0.1569325 0.3423182
vt 0.1906476 0.2855973
vt 0.2492190 0.2855973
vt 0.1569325 0.3361417
vt 0.2983611 0.3361417
vt 0.1906476 0.0959720
vt 0.1906476 0.2917738
vt 0.2192190 0.2917738
vt 0.1569325 0.1465164
vt 0.1569325 0.3423182
vt 0.2683611 0.3423182
vt 0.1077904 0.0668543
vt 0.1077904 0.0730308
vt 0.1569325 0.1173987
vt 0.2397897 0.1173987
vt 0.2397897 0.1235752
vt 0.0777904 0.0730308
vt 0.1077904 0.0730308
vt 0.1269325 0.1235752
vt 0.2397897 0.1235752
vt 0.1077904 0.0668543
vt 0.1077904 0.0959720
vt 0.2192190 0.0668543
vt 0.2397897 0.1173987
vt 0.2397897 0.1465164
vt 0.2683611 0.1173987
vt 0.1077904 0.0730308
vt 0.2492190 0.0730308
vt 0.2397897 0.1235752
vt 0.2983611 0.1235752
vt 0.0777904 0.2855973
vt 0.1077904 0.2855973
vt 0.1269325 0.3361417
vt 0.2397897 0.3361417
vt 0.1077904 0.0730308
vt 0.1077904 0.2917738
vt 0.1569325 0.3423182
vt 0.2397897 0.1235752
vt 0.2397897 0.3423182
vt 0.1077904 0.2855973
vt 0.2492190 0.2855973
vt 0.2397897 0.3361417
vt 0.2983611 0.3361417
vt 0.1077904 0.0959720
vt 0.1077904 0.2917738
vt 0.2192190 0.2917738
vt 0.2397897 0.1465164
vt 0.2397897 0.3423182
vt 0.2683611 0.3423182
vt 0.2470683 0.1198425
vt 0.2470683 0.5727836
vt 0.1327826 0.1139601
vt 0.1327826 0.1433719
vt 0.2470683 0.1139601
vt 0.1327826 0.1433719
vt 0.1327826 0.5786660
vt 0.2470683 0.5786660
vt 0.2184969 0.1139601
vt 0.2184969 0.1433719
vt 0.2470683 0.1139601
vt 0.2184969 0.1433719
vt 0.2184969 0.5786660
vt 0.2470683 0.5786660
vt 0.2470683 0.1198425
vt 0.2470683 0.5727836
vt 0.1077904 0.0730308
vt 0.1569325 0.1235752
vt 0.2192190 0.0730308
vt 0.2683611 0.1235752
vt 0.1077904 0.2855973
vt 0.1569325 0.3361417
vt 0.2192190 0.2855973
vt 0.2683611 0.3361417
vt 0.1327826 0.1198425
vt 0.2756398 0.1198425
vt 0.1327826 0.5727836
vt 0.2756398 0.5727836
vt 0.2184969 0.1198425
vt 0.2756398 0.1198425
vt 0.2184969 0.5727836
vt 0.2756398 0.5727836
vt 0.0636971 0.6243549
vt 0.2115542 0.6243549
vt 0.1113727 0.5624278
vt 0.2592298 0.5624278
vt 0.1270589 0.5627802
vt 0.2749160 0.5627802
vt 0.0602355 0.6534298
vt 0.2080926 0.6534298
vt 0.0927694 0.6379912
vt 0.2406265 0.6379912
vt 0.1280773 0.6681075
vt 0.2759344 0.6681075
vt 0.0411971 0.6243549
vt 0.0636971 0.6243549
vt 0.0636971 0.6243549
vt 0.2340542 0.6243549
vt 0.0888727 0.5624278
vt 0.1113727 0.5624278
vt 0.1113727 0.5624278
vt 0.2817298 0.5624278
vt 0.1045589 0.5627802
vt 0.1270589 0.5627802
vt 0.1270589 0.5627802
vt 0.2974160 0.5627802
vt 0.0377355 0.6534298
vt 0.0602355 0.6534298
vt 0.0602355 0.6534298
vt 0.2305926 0.6534298
vt 0.0702694 0.6379912
vt 0.0927694 0.6379912
vt 0.0927694 0.6379912
vt 0.2631265 0.6379912
vt 0.1055773 0.6681075
vt 0.1280773 0.6681075
vt 0.1280773 0.6681075
vt 0.2984344 0.6681075
vt 0.0411971 0.6243549
vt 0.1258399 0.6243549
vt 0.1258399 0.6243549
vt 0.2340542 0.6243549
vt 0.0888727 0.5624278
vt 0.1735156 0.5624278
vt 0.1735156 0.5624278
vt 0.2817298 0.5624278
vt 0.1045589 0.5627802
vt 0.1892018 0.5627802
vt 0.1892018 0.5627802
vt 0.2974160 0.5627802
vt 0.0377355 0.6534298
vt 0.1223784 0.6534298
vt 0.1223784 0.6534298
vt 0.2305926 0.6534298
vt 0.0702694 0.6379912
vt 0.1549122 0.6379912
vt 0.1549122 0.6379912
vt 0.2631265 0.6379912
vt 0.1055773 0.6681075
vt 0.1902201 0.6681075
vt 0.1902201 0.6681075
vt 0.2984344 0.6681075
vt 0.0636971 0.6243549
vt 0.2115542 0.6243549
vt 0.1113727 0.5624278
vt 0.2592298 0.5624278
vt 0.1270589 0.5627802
vt 0.2749160 0.5627802
vt 0.0602355 0.6534298
vt 0.2080926 0.6534298
vt 0.0927694 0.6379912
vt 0.2406265 0.6379912
vt 0.1280773 0.6681075
vt 0.2759344 0.6681075
vt 0.1323353 0.6006034
vt 0.2760496 0.6006034
vt 0.0818777 0.6414029
vt 0.2255920 0.6414029
vt 0.0692756 0.6188393
vt 0.2129899 0.6188393
vt 0.0701943 0.6400946
vt 0.2139086 0.6400946
vt 0.1113353 0.6006034
vt 0.1323353 0.6006034
vt 0.1323353 0.6006034
vt 0.2970496 0.6006034
vt 0.0608777 0.6414029
vt 0.0818777 0.6414029
vt 0.0818777 0.6414029
vt 0.2465920 0.6414029
vt 0.0482756 0.6188393
vt 0.0692756 0.6188393
vt 0.0692756 0.6188393
vt 0.2339899 0.6188393
vt 0.0491943 0.6400946
vt 0.0701943 0.6400946
vt 0.0701943 0.6400946
vt 0.2349086 0.6400946
vt 0.1113353 0.6006034
vt 0.1903353 0.6006034
vt 0.1903353 0.6006034
vt 0.2970496 0.6006034
vt 0.0608777 0.6414029
vt 0.1398777 0.6414029
vt 0.1398777 0.6414029
vt 0.2465920 0.6414029
vt 0.0482756 0.6188393
vt 0.1272756 0.6188393
vt 0.1272756 0.6188393
vt 0.2339899 0.6188393
vt 0.0491943 0.6400946
vt 0.1281943 0.6400946
vt 0.1281943 0.6400946
vt 0.2349086 0.6400946
vt 0.1323353 0.6006034
vt 0.2760496 0.6006034
vt 0.0818777 0.6414029
vt 0.2255920 0.6414029
vt 0.0692756 0.6188393
vt 0.2129899 0.6188393
vt 0.0701943 0.6400946
vt 0.2139086 0.6400946
vt 0.1323353 0.0651328
vt 0.1323353 0.6049270
vt 0.1323353 0.0947211
vt 0.1323353 0.6049270
vt 0.2760496 0.6049270
vt 0.0818777 0.1059323
vt 0.0818777 0.6457264
vt 0.0818777 0.1355205
vt 0.0818777 0.6457264
vt 0.2255920 0.6457264
vt 0.0692756 0.0833687
vt 0.0692756 0.6231628
vt 0.0692756 0.1129569
vt 0.0692756 0.6231628
vt 0.2129899 0.6231628
vt 0.0701943 0.1046241
vt 0.0701943 0.6444182
vt 0.0701943 0.1342123
vt 0.0701943 0.6444182
vt 0.2139086 0.6444182
vt 0.1323353 0.6049270
vt 0.1903353 0.0651328
vt 0.1903353 0.6049270
vt 0.1903353 0.0947211
vt 0.1903353 0.6049270
vt 0.2760496 0.6049270
vt 0.0818777 0.6457264
vt 0.1398777 0.1059323
vt 0.1398777 0.6457264
vt 0.1398777 0.1355205
vt 0.1398777 0.6457264
vt 0.2255920 0.6457264
vt 0.0692756 0.6231628
vt 0.1272756 0.0833687
vt 0.1272756 0.6231628
vt 0.1272756 0.1129569
vt 0.1272756 0.6231628
vt 0.2129899 0.6231628
vt 0.0701943 0.6444182
vt 0.1281943 0.1046241
vt 0.1281943 0.6444182
vt 0.1281943 0.1342123
vt 0.1281943 0.6444182
vt 0.2139086 0.6444182
vt 0.0636971 0.0895020
vt 0.0636971 0.6289873
vt 0.0636971 0.1199431
vt 0.0636971 0.6289873
vt 0.2115542 0.6289873
vt 0.1113727 0.0275749
vt 0.1113727 0.5670602
vt 0.1113727 0.0580161
vt 0.1113727 0.5670602
vt 0.2592298 0.5670602
vt 0.1270589 0.0279272
vt 0.1270589 0.5674125
vt 0.1270589 0.0583684
vt 0.1270589 0.5674125
vt 0.2749160 0.5674125
vt 0.0602355 0.1185769
vt 0.0602355 0.6580622
vt 0.0602355 0.1490180
vt 0.0602355 0.6580622
vt 0.2080926 0.6580622
vt 0.0927694 0.1031383
vt 0.0927694 0.6426235
vt 0.0927694 0.1335794
vt 0.0927694 0.6426235
vt 0.2406265 0.6426235
vt 0.1280773 0.1332545
vt 0.1280773 0.6727398
vt 0.1280773 0.1636957
vt 0.1280773 0.6727398
vt 0.2759344 0.6727398
vt 0.0636971 0.6289873
vt 0.1258399 0.0895020
vt 0.1258399 0.6289873
vt 0.1258399 0.1199431
vt 0.1258399 0.6289873
vt 0.2115542 0.6289873
vt 0.1113727 0.5670602
vt 0.1735156 0.0275749
vt 0.1735156 0.5670602
vt 0.1735156 0.0580161
vt 0.1735156 0.5670602
vt 0.2592298 0.5670602
vt 0.1270589 0.5674125
vt 0.1892018 0.0279272
vt 0.1892018 0.5674125
vt 0.1892018 0.0583684
vt 0.1892018 0.5674125
vt 0.2749160 0.5674125
vt 0.0602355 0.6580622
vt 0.1223784 0.1185769
vt 0.1223784 0.6580622
vt 0.1223784 0.1490180
vt 0.1223784 0.6580622
vt 0.2080926 0.6580622
vt 0.0927694 0.6426235
vt 0.1549122 0.1031383
vt 0.1549122 0.6426235
vt 0.1549122 0.1335794
vt 0.1549122 0.6426235
vt 0.2406265 0.6426235
vt 0.1280773 0.6727398
vt 0.1902201 0.1332545
vt 0.1902201 0.6727398
vt 0.1902201 0.1636957
vt 0.1902201 0.6727398
vt 0.2759344 0.6727398
vn -0.9249625 -0.3473349 -0.1542817
vn -0.9249625 -0.3473349 -0.1542817
vn -0.9806982 -0.1503260 0.1250326
vn -0.9806982 -0.1503260 0.1250326
vn -0.9806982 -0.1503260 0.1250326
vn -0.9249625 -0.3473349 -0.1542817
vn -0.9249625 -0.3473349 -0.1542817
vn -0.9806982 -0.1503260 0.1250326
vn -0.9806982 -0.1503260 0.1250326
vn -0.9806982 -0.1503260 0.1250326
vn -0.9249625 -0.3473349 -0.1542817
vn -0.9249625 -0.3473349 -0.1542817
vn -0.9806982 -0.1503260 0.1250326
vn -0.9806982 -0.1503260 0.1250326
vn -0.9806982 -0.1503260 0.1250326
vn -0.9249625 -0.3473349 -0.1542817
vn -0.9249625 -0.3473349 -0.1542817
vn -0.9806982 -0.1503260 0.1250326
vn -0.9806982 -0.1503260 0.1250326
vn -0.9806982 -0.1503260 0.1250326
vn -0.9643522 0.2563468 -0.0656599
vn -0.9643522 0.2563468 -0.0656599
vn -0.9643522 0.2563468 -0.0656599
vn -0.9591840 0.2549730 0.1222897
vn -0.9591840 0.2549730 0.1222897
vn -0.9591840 0.2549730 0.1222897
vn -0.9643522 0.2563468 -0.0656599
vn -0.9643522 0.2563468 -0.0656599
vn -0.9643522 0.2563468 -0.0656599
vn -0.9591840 0.2549730 0.1222897
vn -0.9591840 0.2549730 0.1222897
vn -0.9591840 0.2549730 0.1222897
vn -0.9643522 0.2563468 -0.0656599
vn -0.9643522 0.2563468 -0.0656599
vn -0.9643522 0.2563468 -0.0656599
vn -0.9591840 0.2549730 0.1222897
vn -0.9591840 0.2549730 0.1222897
vn -0.9591840 0.2549730 0.1222897
vn -0.9643522 0.2563468 -0.0656599
vn -0.9643522 0.2563468 -0.0656599
vn -0.9643522 0.2563468 -0.0656599
vn -0.9591840 0.2549730 0.1222897
vn -0.9591840 0.2549730 0.1222897
vn -0.9591840 0.2549730 0.1222897
vn -0.9246474 -0.3458071 -0.1595137
vn -0.9246474 -0.3458071 -0.1595137
vn -0.9801378 -0.1502401 0.1294522
vn -0.9801378 -0.1502401 0.1294522
vn -0.9801378 -0.1502401 0.1294522
vn -0.9246474 -0.3458071 -0.1595137
vn -0.9246474 -0.3458071 -0.1595137
vn -0.9801378 -0.1502401 0.1294522
vn -0.9801378 -0.1502401 0.1294522
vn -0.9801378 -0.1502401 0.1294522
vn -0.9246474 -0.3458071 -0.1595137
vn -0.9246474 -0.3458071 -0.1595137
vn -0.9801378 -0.1502401 0.1294522
vn -0.9801378 -0.1502401 0.1294522
vn -0.9801378 -0.1502401 0.1294522
vn -0.9246474 -0.3458071 -0.1595137
vn -0.9246474 -0.3458071 -0.1595137
vn -0.9801378 -0.1502401 0.1294522
vn -0.9801378 -0.1502401 0.1294522
vn -0.9801378 -0.1502401 0.1294522
vn -0.9246474 -0.3458071 -0.1595137
vn -0.9246474 -0.3458071 -0.1595137
vn -0.9801378 -0.1502401 0.1294522
vn -0.9801378 -0.1502401 0.1294522
vn -0.9801378 -0.1502401 0.1294522
vn -0.9246474 -0.3458071 -0.1595137
vn -0.9246474 -0.3458071 -0.1595137
vn -0.9801378 -0.1502401 0.1294522
vn -0.9801378 -0.1502401 0.1294522
vn -0.9801378 -0.1502401 0.1294522
vn -0.9641891 0.2563034 -0.0681750
vn -0.9641891 0.2563034 -0.0681750
vn -0.9641891 0.2563034 -0.0681750
vn -0.9586597 0.2548336 0.1266154
vn -0.9586597 0.2548336 0.1266154
vn -0.9586597 0.2548336 0.1266154
vn -0.9641891 0.2563034 -0.0681750
vn -0.9641891 0.2563034 -0.0681750
vn -0.9641891 0.2563034 -0.0681750
vn -0.9586597 0.2548336 0.1266154
vn -0.9586597 0.2548336 0.1266154
vn -0.9586597 0.2548336 0.1266154
vn -0.9641891 0.2563034 -0.0681750
vn -0.9641891 0.2563034 -0.0681750
vn -0.9641891 0.2563034 -0.0681750
vn -0.9586597 0.2548336 0.1266154
vn -0.9586597 0.2548336 0.1266154
vn -0.9586597 0.2548336 0.1266154
vn -0.9641891 0.2563034 -0.0681750
vn -0.9641891 0.2563034 -0.0681750
vn -0.9641891 0.2563034 -0.0681750
vn -0.9586597 0.2548336 0.1266154
vn -0.9586597 0.2548336 0.1266154
vn -0.9586597 0.2548336 0.1266154
vn -0.9641891 0.2563034 -0.0681750
vn -0.9641891 0.2563034 -0.0681750
vn -0.9641891 0.2563034 -0.0681750
vn -0.9586597 0.2548336 0.1266154
vn -0.9586597 0.2548336 0.1266154
vn -0.9586597 0.2548336 0.1266154
vn -0.9641891 0.2563034 -0.0681750
vn -0.9641891 0.2563034 -0.0681750
vn -0.9641891 0.2563034 -0.0681750
vn -0.9586597 0.2548336 0.1266154
vn -0.9586597 0.2548336 0.1266154
vn -0.9586597 0.2548336 0.1266154
vn -0.0042835 -0.9976637 -0.0681825
vn -0.0147744 -0.9919719 0.1255923
vn -0.0042835 -0.9976637 -0.0681825
vn -0.0147744 -0.9919719 0.1255923
vn -0.0042835 -0.9976637 -0.0681825
vn -0.0147744 -0.9919719 0.1255923
vn -0.0042835 -0.9976637 -0.0681825
vn -0.0147744 -0.9919719 0.1255923
vn -0.0058457 -0.3864596 -0.9222878
vn -0.0058457 -0.3864596 -0.9222878
vn -0.0038859 -0.2568992 0.9664304
vn -0.0038859 -0.2568992 0.9664304
vn -0.0058457 -0.3864596 -0.9222878
vn -0.0058457 -0.3864596 -0.9222878
vn -0.0038859 -0.2568992 0.9664304
vn -0.0038859 -0.2568992 0.9664304
vn -0.0058457 -0.3864596 -0.9222878
vn -0.0058457 -0.3864596 -0.9222878
vn -0.0038859 -0.2568992 0.9664304
vn -0.0038859 -0.2568992 0.9664304
vn -0.0058457 -0.3864596 -0.9222878
vn -0.0058457 -0.3864596 -0.9222878
vn -0.0038859 -0.2568992 0.9664304
vn -0.0038859 -0.2568992 0.9664304
vn -0.0067202 0.2561889 -0.9666034
vn -0.0067202 0.2561889 -0.9666034
vn -0.0133493 0.2554748 0.9667235
vn -0.0133493 0.2554748 0.9667235
vn -0.0067202 0.2561889 -0.9666034
vn -0.0067202 0.2561889 -0.9666034
vn -0.0133493 0.2554748 0.9667235
vn -0.0133493 0.2554748 0.9667235
vn -0.0067202 0.2561889 -0.9666034
vn -0.0067202 0.2561889 -0.9666034
vn -0.0133493 0.2554748 0.9667235
vn -0.0133493 0.2554748 0.9667235
vn -0.0067202 0.2561889 -0.9666034
vn -0.0067202 0.2561889 -0.9666034
vn -0.0133493 0.2554748 0.9667235
vn -0.0133493 0.2554748 0.9667235
vn -0.0079450 0.9919392 -0.1264658
vn -0.0074428 0.9919984 0.1260312
vn -0.0079450 0.9919392 -0.1264658
vn -0.0074428 0.9919984 0.1260312
vn -0.0079450 0.9919392 -0.1264658
vn -0.0074428 0.9919984 0.1260312
vn -0.0079450 0.9919392 -0.1264658
vn -0.0074428 0.9919984 0.1260312
vn -0.0046037 -0.9974791 -0.0708113
vn -0.0157835 -0.9913923 0.1299700
vn -0.0046037 -0.9974791 -0.0708113
vn -0.0157835 -0.9913923 0.1299700
vn -0.0046037 -0.9974791 -0.0708113
vn -0.0157835 -0.9913923 0.1299700
vn -0.0046037 -0.9974791 -0.0708113
vn -0.0157835 -0.9913923 0.1299700
vn -0.0046037 -0.9974791 -0.0708113
vn -0.0157835 -0.9913923 0.1299700
vn -0.0046037 -0.9974791 -0.0708113
vn -0.0157835 -0.9913923 0.1299700
vn -0.0062677 -0.3864033 -0.9223086
vn -0.0062677 -0.3864033 -0.9223086
vn -0.0041671 -0.2568989 0.9664293
vn -0.0041671 -0.2568989 0.9664293
vn -0.0062677 -0.3864033 -0.9223086
vn -0.0062677 -0.3864033 -0.9223086
vn -0.0041671 -0.2568989 0.9664293
vn -0.0041671 -0.2568989 0.9664293
vn -0.0062677 -0.3864033 -0.9223086
vn -0.0062677 -0.3864033 -0.9223086
vn -0.0041671 -0.2568989 0.9664293
vn -0.0041671 -0.2568989 0.9664293
vn -0.0062677 -0.3864033 -0.9223086
vn -0.0062677 -0.3864033 -0.9223086
vn -0.0041671 -0.2568989 0.9664293
vn -0.0041671 -0.2568989 0.9664293
vn -0.0062677 -0.3864033 -0.9223086
vn -0.0062677 -0.3864033 -0.9223086
vn -0.0041671 -0.2568989 0.9664293
vn -0.0041671 -0.2568989 0.9664293
vn -0.0062677 -0.3864033 -0.9223086
vn -0.0062677 -0.3864033 -0.9223086
vn -0.0041671 -0.2568989 0.9664293
vn -0.0041671 -0.2568989 0.9664293
vn -0.0072050 0.2561371 -0.9666136
vn -0.0072050 0.2561371 -0.9666136
vn -0.0143052 0.2553709 0.9667373
vn -0.0143052 0.2553709 0.9667373
vn -0.0072050 0.2561371 -0.9666136
vn -0.0072050 0.2561371 -0.9666136
vn -0.0143052 0.2553709 0.9667373
vn -0.0143052 0.2553709 0.9667373
vn -0.0072050 0.2561371 -0.9666136
vn -0.0072050 0.2561371 -0.9666136
vn -0.0143052 0.2553709 0.9667373
vn -0.0143052 0.2553709 0.9667373
vn -0.0072050 0.2561371 -0.9666136
vn -0.0072050 0.2561371 -0.9666136
vn -0.0143052 0.2553709 0.9667373
vn -0.0143052 0.2553709 0.9667373
vn -0.0072050 0.2561371 -0.9666136
vn -0.0072050 0.2561371 -0.9666136
vn -0.0143052 0.2553709 0.9667373
vn -0.0143052 0.2553709 0.9667373
vn -0.0072050 0.2561371 -0.9666136
vn -0.0072050 0.2561371 -0.9666136
vn -0.0143052 0.2553709 0.9667373
vn -0.0143052 0.2553709 0.9667373
vn -0.0085124 0.9913546 -0.1309336
vn -0.0079553 0.9914224 0.1304544
vn -0.0085124 0.9913546 -0.1309336
vn -0.0079553 0.9914224 0.1304544
vn -0.0085124 0.9913546 -0.1309336
vn -0.0079553 0.9914224 0.1304544
vn -0.0085124 0.9913546 -0.1309336
vn -0.0079553 0.9914224 0.1304544
vn -0.0085124 0.9913546 -0.1309336
vn -0.0079553 0.9914224 0.1304544
vn -0.0085124 0.9913546 -0.1309336
vn -0.0079553 0.9914224 0.1304544
vn -0.9298137 -0.3676559 -0.0166038
vn -0.9298137 -0.3676559 -0.0166038
vn -0.9898698 -0.1414100 0.0126906
vn -0.9898698 -0.1414100 0.0126906
vn -0.9701235 0.2425309 -0.0062589
vn -0.9701235 0.2425309 -0.0062589
vn -0.9700675 0.2425169 0.0124368
vn -0.9700675 0.2425169 0.0124368
vn -0.9445743 -0.1347785 0.2993562
vn -0.9445743 -0.1347785 -0.2993562
vn -0.9784015 0.0482359 -0.2010071
vn -0.9784015 0.0482359 0.2010071
vn -0.9927354 -0.0266444 0.1173309
vn -0.9926451 -0.0147318 -0.1201611
vn -0.9779994 0.1159364 -0.1734241
vn -0.9778612 0.0981059 0.1848317
vn -0.1110538 -0.9937889 -0.0071188
vn -0.3149919 -0.9490400 0.0101610
vn -0.1541887 -0.3469245 -0.9251320
vn -0.1541887 -0.3469245 -0.9251320
vn -0.1541887 -0.3469245 0.9251320
vn -0.1541887 -0.3469245 0.9251320
vn -0.1722759 0.2214976 -0.9598228
vn -0.1722759 0.2214976 -0.9598228
vn -0.1722759 0.2214976 -0.9598228
vn -0.1722759 0.2214976 0.9598228
vn -0.1722759 0.2214976 0.9598228
vn -0.1722759 0.2214976 0.9598228
vn -0.1961006 0.9805032 -0.0125706
vn -0.1961122 0.9805611 0.0063262
vn -0.2552288 -0.9397296 -0.2275227
vn -0.2552288 -0.9397296 -0.2275227
vn -0.2552288 -0.9397296 -0.2275227
vn -0.3186229 -0.9438355 0.0874876
vn -0.3186229 -0.9438355 0.0874876
vn -0.2517471 -0.3800573 0.8900448
vn -0.2517471 -0.3800573 0.8900448
vn -0.1532850 -0.3592883 -0.9205518
vn -0.1532850 -0.3592883 -0.9205518
vn -0.2516673 -0.8175812 -0.5179039
vn -0.2516673 -0.8175812 -0.5179039
vn -0.2516673 -0.8175812 -0.5179039
vn -0.1482904 -0.8354313 0.5292112
vn -0.1482904 -0.8354313 0.5292112
vn -0.1482904 -0.8354313 0.5292112
vn -0.2517471 0.2931135 -0.9223383
vn -0.2517471 0.2931135 -0.9223383
vn -0.1532850 0.3287616 0.9318903
vn -0.1532850 0.3287616 0.9318903
vn -0.2543303 -0.3143622 0.9145996
vn -0.2543303 -0.3143622 0.9145996
vn -0.3844335 -0.3019343 -0.8723798
vn -0.3844335 -0.3019343 -0.8723798
vn -0.2552288 0.8604018 0.4410976
vn -0.2552288 0.8604018 0.4410976
vn -0.2552288 0.8604018 0.4410976
vn -0.2140878 0.7694037 -0.6018175
vn -0.2140878 0.7694037 -0.6018175
vn -0.2543303 0.3589091 -0.8980537
vn -0.2543303 0.3589091 -0.8980537
vn -0.3844335 0.3407625 0.8579579
vn -0.3844335 0.3407625 0.8579579
vn -0.2516673 0.9574307 0.1413862
vn -0.2516673 0.9574307 0.1413862
vn -0.2516673 0.9574307 0.1413862
vn -0.2336103 0.9585458 -0.1631445
vn -0.2336103 0.9585458 -0.1631445
vn -0.2336103 0.9585458 -0.1631445
vn 0.3186229 -0.9438355 -0.0874876
vn 0.3186229 -0.9438355 -0.0874876
vn 0.2552288 -0.9397296 0.2275227
vn 0.2552288 -0.9397296 0.2275227
vn 0.2552288 -0.9397296 0.2275227
vn 0.1532850 -0.3592883 0.9205518
vn 0.1532850 -0.3592883 0.9205518
vn 0.2517471 -0.3800573 -0.8900448
vn 0.2517471 -0.3800573 -0.8900448
vn 0.1482904 -0.8354313 -0.5292112
vn 0.1482904 -0.8354313 -0.5292112
vn 0.1482904 -0.8354313 -0.5292112
vn 0.2516673 -0.8175812 0.5179039
vn 0.2516673 -0.8175812 0.5179039
vn 0.2516673 -0.8175812 0.5179039
vn 0.1532850 0.3287616 -0.9318903
vn 0.1532850 0.3287616 -0.9318903
vn 0.2517471 0.2931135 0.9223383
vn 0.2517471 0.2931135 0.9223383
vn 0.3844335 -0.3019343 0.8723798
vn 0.3844335 -0.3019343 0.8723798
vn 0.2543303 -0.3143622 -0.9145996
vn 0.2543303 -0.3143622 -0.9145996
vn 0.2140878 0.7694037 0.6018175
vn 0.2140878 0.7694037 0.6018175
vn 0.2552288 0.8604018 -0.4410976
vn 0.2552288 0.8604018 -0.4410976
vn 0.2552288 0.8604018 -0.4410976
vn 0.3844335 0.3407625 -0.8579579
vn 0.3844335 0.3407625 -0.8579579
vn 0.2543303 0.3589091 0.8980537
vn 0.2543303 0.3589091 0.8980537
vn 0.2336103 0.9585458 0.1631445
vn 0.2336103 0.9585458 0.1631445
vn 0.2336103 0.9585458 0.1631445
vn 0.2516673 0.9574307 -0.1413862
vn 0.2516673 0.9574307 -0.1413862
vn 0.2516673 0.9574307 -0.1413862
vn 0.1941518 -0.9807157 -0.0224021
vn 0.1951350 -0.9807109 0.0113304
vn 0.1942198 -0.1387284 -0.9710989
vn 0.1942198 -0.1387284 -0.9710989
vn 0.1942198 -0.1387284 -0.9710989
vn 0.1942198 -0.1387284 0.9710989
vn 0.1942198 -0.1387284 0.9710989
vn 0.1942198 -0.1387284 0.9710989
vn 0.1904762 0.2380952 -0.9523810
vn 0.1904762 0.2380952 -0.9523810
vn 0.1904762 0.2380952 -0.9523810
vn 0.1904762 0.2380952 0.9523810
vn 0.1904762 0.2380952 0.9523810
vn 0.1904762 0.2380952 0.9523810
vn 0.1104226 0.9938031 -0.0127411
vn 0.3125438 0.9497300 0.0181477
vn 0.9445743 -0.1347785 0.2993562
vn 0.9445743 -0.1347785 -0.2993562
vn 0.9784015 0.0482359 -0.2010071
vn 0.9784015 0.0482359 0.2010071
vn 0.9926451 -0.0147318 0.1201611
vn 0.9927354 -0.0266444 -0.1173309
vn 0.9778612 0.0981059 -0.1848317
vn 0.9779994 0.1159364 0.1734241
vn 0.9289276 -0.3701382 -0.0095520
vn 0.9289276 -0.3701382 -0.0095520
vn 0.9898135 -0.1421832 0.0072914
vn 0.9898135 -0.1421832 0.0072914
vn 0.9703591 0.2414216 -0.0109029
vn 0.9703591 0.2414216 -0.0109029
vn 0.9704581 0.2403039 0.0215657
vn 0.9704581 0.2403039 0.0215657
vn -0.9298137 -0.3676559 -0.0166038
vn -0.9298137 -0.3676559 -0.0166038
vn -0.9898698 -0.1414100 0.0126906
vn -0.9898698 -0.1414100 0.0126906
vn -0.9701235 0.2425309 -0.0062589
vn -0.9701235 0.2425309 -0.0062589
vn -0.9700675 0.2425169 0.0124368
vn -0.9700675 0.2425169 0.0124368
vn -0.9445743 -0.1347785 0.2993562
vn -0.9445743 -0.1347785 -0.2993562
vn -0.9784015 0.0482359 -0.2010071
vn -0.9784015 0.0482359 0.2010071
vn -0.9927354 -0.0266444 0.1173309
vn -0.9926451 -0.0147318 -0.1201611
vn -0.9779994 0.1159364 -0.1734241
vn -0.9778612 0.0981059 0.1848317
vn -0.1110538 -0.9937889 -0.0071188
vn -0.3149919 -0.9490400 0.0101610
vn -0.1541887 -0.3469245 -0.9251320
vn -0.1541887 -0.3469245 -0.9251320
vn -0.1541887 -0.3469245 0.9251320
vn -0.1541887 -0.3469245 0.9251320
vn -0.1722759 0.2214976 -0.9598228
vn -0.1722759 0.2214976 -0.9598228
vn -0.1722759 0.2214976 -0.9598228
vn -0.1722759 0.2214976 0.9598228
vn -0.1722759 0.2214976 0.9598228
vn -0.1722759 0.2214976 0.9598228
vn -0.1961006 0.9805032 -0.0125706
vn -0.1961122 0.9805611 0.0063262
vn -0.2552288 -0.9397296 -0.2275227
vn -0.2552288 -0.9397296 -0.2275227
vn -0.2552288 -0.9397296 -0.2275227
vn -0.3186229 -0.9438355 0.0874876
vn -0.3186229 -0.9438355 0.0874876
vn -0.2517471 -0.3800573 0.8900448
vn -0.2517471 -0.3800573 0.8900448
vn -0.1532850 -0.3592883 -0.9205518
vn -0.1532850 -0.3592883 -0.9205518
vn -0.2516673 -0.8175812 -0.5179039
vn -0.2516673 -0.8175812 -0.5179039
vn -0.2516673 -0.8175812 -0.5179039
vn -0.1482904 -0.8354313 0.5292112
vn -0.1482904 -0.8354313 0.5292112
vn -0.1482904 -0.8354313 0.5292112
vn -0.2517471 0.2931135 -0.9223383
vn -0.2517471 0.2931135 -0.9223383
vn -0.1532850 0.3287616 0.9318903
vn -0.1532850 0.3287616 0.9318903
vn -0.2543303 -0.3143622 0.9145996
vn -0.2543303 -0.3143622 0.9145996
vn -0.3844335 -0.3019343 -0.8723798
vn -0.3844335 -0.3019343 -0.8723798
vn -0.2552288 0.8604018 0.4410976
vn -0.2552288 0.8604018 0.4410976
vn -0.2552288 0.8604018 0.4410976
vn -0.2140878 0.7694037 -0.6018175
vn -0.2140878 0.7694037 -0.6018175
vn -0.2543303 0.3589091 -0.8980537
vn -0.2543303 0.3589091 -0.8980537
vn -0.3844335 0.3407625 0.8579579
vn -0.3844335 0.3407625 0.8579579
vn -0.2516673 0.9574307 0.1413862
vn -0.2516673 0.9574307 0.1413862
vn -0.2516673 0.9574307 0.1413862
vn -0.2336103 0.9585458 -0.1631445
vn -0.2336103 0.9585458 -0.1631445
vn -0.2336103 0.9585458 -0.1631445
vn 0.3186229 -0.9438355 -0.0874876
vn 0.3186229 -0.9438355 -0.0874876
vn 0.2552288 -0.9397296 0.2275227
vn 0.2552288 -0.9397296 0.2275227
vn 0.2552288 -0.9397296 0.2275227
vn 0.1532850 -0.3592883 0.9205518
vn 0.1532850 -0.3592883 0.9205518
vn 0.2517471 -0.3800573 -0.8900448
vn 0.2517471 -0.3800573 -0.8900448
vn 0.1482904 -0.8354313 -0.5292112
vn 0.1482904 -0.8354313 -0.5292112
vn 0.1482904 -0.8354313 -0.5292112
vn 0.2516673 -0.8175812 0.5179039
vn 0.2516673 -0.8175812 0.5179039
vn 0.2516673 -0.8175812 0.5179039
vn 0.1532850 0.3287616 -0.9318903
vn 0.1532850 0.3287616 -0.9318903
vn 0.2517471 0.2931135 0.9223383
vn 0.2517471 0.2931135 0.9223383
vn 0.3844335 -0.3019343 0.8723798
vn 0.3844335 -0.3019343 0.8723798
vn 0.2543303 -0.3143622 -0.9145996
vn 0.2543303 -0.3143622 -0.9145996
vn 0.2140878 0.7694037 0.6018175
vn 0.2140878 0.7694037 0.6018175
vn 0.2552288 0.8604018 -0.4410976
vn 0.2552288 0.8604018 -0.4410976
vn 0.2552288 0.8604018 -0.4410976
vn 0.3844335 0.3407625 -0.8579579
vn 0.3844335 0.3407625 -0.8579579
vn 0.2543303 0.3589091 0.8980537
vn 0.2543303 0.3589091 0.8980537
vn 0.2336103 0.9585458 0.1631445
vn 0.2336103 0.9585458 0.1631445
vn 0.2336103 0.9585458 0.1631445
vn 0.2516673 0.9574307 -0.1413862
vn 0.2516673 0.9574307 -0.1413862
vn 0.2516673 0.9574307 -0.1413862
vn 0.1941518 -0.9807157 -0.0224021
vn 0.1951350 -0.9807109 0.0113304
vn 0.1942198 -0.1387284 -0.9710989
vn 0.1942198 -0.1387284 -0.9710989
vn 0.1942198 -0.1387284 -0.9710989
vn 0.1942198 -0.1387284 0.9710989
vn 0.1942198 -0.1387284 0.9710989
vn 0.1942198 -0.1387284 0.9710989
vn 0.1904762 0.2380952 -0.9523810
vn 0.1904762 0.2380952 -0.9523810
vn 0.1904762 0.2380952 -0.9523810
vn 0.1904762 0.2380952 0.9523810
vn 0.1904762 0.2380952 0.9523810
vn 0.1904762 0.2380952 0.9523810
vn 0.1104226 0.9938031 -0.0127411
vn 0.3125438 0.9497300 0.0181477
vn 0.9445743 -0.1347785 0.2993562
vn 0.9445743 -0.1347785 -0.2993562
vn 0.9784015 0.0482359 -0.2010071
vn 0.9784015 0.0482359 0.2010071
vn 0.9926451 -0.0147318 0.1201611
vn 0.9927354 -0.0266444 -0.1173309
vn 0.9778612 0.0981059 -0.1848317
vn 0.9779994 0.1159364 0.1734241
vn 0.9289276 -0.3701382 -0.0095520
vn 0.9289276 -0.3701382 -0.0095520
vn 0.9898135 -0.1421832 0.0072914
vn 0.9898135 -0.1421832 0.0072914
vn 0.9703591 0.2414216 -0.0109029
vn 0.9703591 0.2414216 -0.0109029
vn 0.9704581 0.2403039 0.0215657
vn 0.9704581 0.2403039 0.0215657
vn 0.0073949 -0.9739800 -0.2265132
vn 0.0079553 -0.9914224 0.1304544
vn 0.0073949 -0.9739800 -0.2265132
vn 0.0079553 -0.9914224 0.1304544
vn 0.0073949 -0.9739800 -0.2265132
vn 0.0079553 -0.9914224 0.1304544
vn 0.0073949 -0.9739800 -0.2265132
vn 0.0079553 -0.9914224 0.1304544
vn 0.0073949 -0.9739800 -0.2265132
vn 0.0079553 -0.9914224 0.1304544
vn 0.0073949 -0.9739800 -0.2265132
vn 0.0079553 -0.9914224 0.1304544
vn 0.0084872 -0.1515095 -0.9884194
vn 0.0084872 -0.1515095 -0.9884194
vn 0.0082981 -0.2568923 0.9664044
vn 0.0082981 -0.2568923 0.9664044
vn 0.0084872 -0.1515095 -0.9884194
vn 0.0084872 -0.1515095 -0.9884194
vn 0.0082981 -0.2568923 0.9664044
vn 0.0082981 -0.2568923 0.9664044
vn 0.0084872 -0.1515095 -0.9884194
vn 0.0084872 -0.1515095 -0.9884194
vn 0.0082981 -0.2568923 0.9664044
vn 0.0082981 -0.2568923 0.9664044
vn 0.0084872 -0.1515095 -0.9884194
vn 0.0084872 -0.1515095 -0.9884194
vn 0.0082981 -0.2568923 0.9664044
vn 0.0082981 -0.2568923 0.9664044
vn 0.0084872 -0.1515095 -0.9884194
vn 0.0084872 -0.1515095 -0.9884194
vn 0.0082981 -0.2568923 0.9664044
vn 0.0082981 -0.2568923 0.9664044
vn 0.0084872 -0.1515095 -0.9884194
vn 0.0084872 -0.1515095 -0.9884194
vn 0.0082981 -0.2568923 0.9664044
vn 0.0082981 -0.2568923 0.9664044
vn 0.0082981 0.2568923 -0.9664044
vn 0.0082981 0.2568923 -0.9664044
vn 0.0072050 0.2561371 0.9666136
vn 0.0072050 0.2561371 0.9666136
vn 0.0082981 0.2568923 -0.9664044
vn 0.0082981 0.2568923 -0.9664044
vn 0.0072050 0.2561371 0.9666136
vn 0.0072050 0.2561371 0.9666136
vn 0.0082981 0.2568923 -0.9664044
vn 0.0082981 0.2568923 -0.9664044
vn 0.0072050 0.2561371 0.9666136
vn 0.0072050 0.2561371 0.9666136
vn 0.0082981 0.2568923 -0.9664044
vn 0.0082981 0.2568923 -0.9664044
vn 0.0072050 0.2561371 0.9666136
vn 0.0072050 0.2561371 0.9666136
vn 0.0082981 0.2568923 -0.9664044
vn 0.0082981 0.2568923 -0.9664044
vn 0.0072050 0.2561371 0.9666136
vn 0.0072050 0.2561371 0.9666136
vn 0.0082981 0.2568923 -0.9664044
vn 0.0082981 0.2568923 -0.9664044
vn 0.0072050 0.2561371 0.9666136
vn 0.0072050 0.2561371 0.9666136
vn 0.0042747 0.9913815 -0.1309372
vn 0.0157835 0.9913923 0.1299700
vn 0.0042747 0.9913815 -0.1309372
vn 0.0157835 0.9913923 0.1299700
vn 0.0042747 0.9913815 -0.1309372
vn 0.0157835 0.9913923 0.1299700
vn 0.0042747 0.9913815 -0.1309372
vn 0.0157835 0.9913923 0.1299700
vn 0.0042747 0.9913815 -0.1309372
vn 0.0157835 0.9913923 0.1299700
vn 0.0042747 0.9913815 -0.1309372
vn 0.0157835 0.9913923 0.1299700
vn 0.0069361 -0.9754917 -0.2199269
vn 0.0074428 -0.9919984 0.1260312
vn 0.0069361 -0.9754917 -0.2199269
vn 0.0074428 -0.9919984 0.1260312
vn 0.0069361 -0.9754917 -0.2199269
vn 0.0074428 -0.9919984 0.1260312
vn 0.0069361 -0.9754917 -0.2199269
vn 0.0074428 -0.9919984 0.1260312
vn 0.0079169 -0.1515102 -0.9884240
vn 0.0079169 -0.1515102 -0.9884240
vn 0.0077405 -0.2568935 0.9664087
vn 0.0077405 -0.2568935 0.9664087
vn 0.0079169 -0.1515102 -0.9884240
vn 0.0079169 -0.1515102 -0.9884240
vn 0.0077405 -0.2568935 0.9664087
vn 0.0077405 -0.2568935 0.9664087
vn 0.0079169 -0.1515102 -0.9884240
vn 0.0079169 -0.1515102 -0.9884240
vn 0.0077405 -0.2568935 0.9664087
vn 0.0077405 -0.2568935 0.9664087
vn 0.0079169 -0.1515102 -0.9884240
vn 0.0079169 -0.1515102 -0.9884240
vn 0.0077405 -0.2568935 0.9664087
vn 0.0077405 -0.2568935 0.9664087
vn 0.0077405 0.2568935 -0.9664087
vn 0.0077405 0.2568935 -0.9664087
vn 0.0067202 0.2561889 0.9666034
vn 0.0067202 0.2561889 0.9666034
vn 0.0077405 0.2568935 -0.9664087
vn 0.0077405 0.2568935 -0.9664087
vn 0.0067202 0.2561889 0.9666034
vn 0.0067202 0.2561889 0.9666034
vn 0.0077405 0.2568935 -0.9664087
vn 0.0077405 0.2568935 -0.9664087
vn 0.0067202 0.2561889 0.9666034
vn 0.0067202 0.2561889 0.9666034
vn 0.0077405 0.2568935 -0.9664087
vn 0.0077405 0.2568935 -0.9664087
vn 0.0067202 0.2561889 0.9666034
vn 0.0067202 0.2561889 0.9666034
vn 0.0039886 0.9919626 -0.1264688
vn 0.0147744 0.9919719 0.1255923
vn 0.0039886 0.9919626 -0.1264688
vn 0.0147744 0.9919719 0.1255923
vn 0.0039886 0.9919626 -0.1264688
vn 0.0147744 0.9919719 0.1255923
vn 0.0039886 0.9919626 -0.1264688
vn 0.0147744 0.9919719 0.1255923
vn 0.9229390 -0.3729080 -0.0955156
vn 0.9229390 -0.3729080 -0.0955156
vn 0.9806982 -0.1503260 0.1250326
vn 0.9806982 -0.1503260 0.1250326
vn 0.9806982 -0.1503260 0.1250326
vn 0.9229390 -0.3729080 -0.0955156
vn 0.9229390 -0.3729080 -0.0955156
vn 0.9806982 -0.1503260 0.1250326
vn 0.9806982 -0.1503260 0.1250326
vn 0.9806982 -0.1503260 0.1250326
vn 0.9229390 -0.3729080 -0.0955156
vn 0.9229390 -0.3729080 -0.0955156
vn 0.9806982 -0.1503260 0.1250326
vn 0.9806982 -0.1503260 0.1250326
vn 0.9806982 -0.1503260 0.1250326
vn 0.9229390 -0.3729080 -0.0955156
vn 0.9229390 -0.3729080 -0.0955156
vn 0.9806982 -0.1503260 0.1250326
vn 0.9806982 -0.1503260 0.1250326
vn 0.9806982 -0.1503260 0.1250326
vn 0.9637062 0.2439790 -0.1083724
vn 0.9637062 0.2439790 -0.1083724
vn 0.9637062 0.2439790 -0.1083724
vn 0.9591840 0.2549730 0.1222897
vn 0.9591840 0.2549730 0.1222897
vn 0.9591840 0.2549730 0.1222897
vn 0.9637062 0.2439790 -0.1083724
vn 0.9637062 0.2439790 -0.1083724
vn 0.9637062 0.2439790 -0.1083724
vn 0.9591840 0.2549730 0.1222897
vn 0.9591840 0.2549730 0.1222897
vn 0.9591840 0.2549730 0.1222897
vn 0.9637062 0.2439790 -0.1083724
vn 0.9637062 0.2439790 -0.1083724
vn 0.9637062 0.2439790 -0.1083724
vn 0.9591840 0.2549730 0.1222897
vn 0.9591840 0.2549730 0.1222897
vn 0.9591840 0.2549730 0.1222897
vn 0.9637062 0.2439790 -0.1083724
vn 0.9637062 0.2439790 -0.1083724
vn 0.9637062 0.2439790 -0.1083724
vn 0.9591840 0.2549730 0.1222897
vn 0.9591840 0.2549730 0.1222897
vn 0.9591840 0.2549730 0.1222897
vn 0.9228092 -0.3723113 -0.0990323
vn 0.9228092 -0.3723113 -0.0990323
vn 0.9801378 -0.1502401 0.1294522
vn 0.9801378 -0.1502401 0.1294522
vn 0.9801378 -0.1502401 0.1294522
vn 0.9228092 -0.3723113 -0.0990323
vn 0.9228092 -0.3723113 -0.0990323
vn 0.9801378 -0.1502401 0.1294522
vn 0.9801378 -0.1502401 0.1294522
vn 0.9801378 -0.1502401 0.1294522
vn 0.9228092 -0.3723113 -0.0990323
vn 0.9228092 -0.3723113 -0.0990323
vn 0.9801378 -0.1502401 0.1294522
vn 0.9801378 -0.1502401 0.1294522
vn 0.9801378 -0.1502401 0.1294522
vn 0.9228092 -0.3723113 -0.0990323
vn 0.9228092 -0.3723113 -0.0990323
vn 0.9801378 -0.1502401 0.1294522
vn 0.9801378 -0.1502401 0.1294522
vn 0.9801378 -0.1502401 0.1294522
vn 0.9228092 -0.3723113 -0.0990323
vn 0.9228092 -0.3723113 -0.0990323
vn 0.9801378 -0.1502401 0.1294522
vn 0.9801378 -0.1502401 0.1294522
vn 0.9801378 -0.1502401 0.1294522
vn 0.9228092 -0.3723113 -0.0990323
vn 0.9228092 -0.3723113 -0.0990323
vn 0.9801378 -0.1502401 0.1294522
vn 0.9801378 -0.1502401 0.1294522
vn 0.9801378 -0.1502401 0.1294522
vn 0.9633896 0.2434529 -0.1122998
vn 0.9633896 0.2434529 -0.1122998
vn 0.9633896 0.2434529 -0.1122998
vn 0.9586597 0.2548336 0.1266154
vn 0.9586597 0.2548336 0.1266154
vn 0.9586597 0.2548336 0.1266154
vn 0.9633896 0.2434529 -0.1122998
vn 0.9633896 0.2434529 -0.1122998
vn 0.9633896 0.2434529 -0.1122998
vn 0.9586597 0.2548336 0.1266154
vn 0.9586597 0.2548336 0.1266154
vn 0.9586597 0.2548336 0.1266154
vn 0.9633896 0.2434529 -0.1122998
vn 0.9633896 0.2434529 -0.1122998
vn 0.9633896 0.2434529 -0.1122998
vn 0.9586597 0.2548336 0.1266154
vn 0.9586597 0.2548336 0.1266154
vn 0.9586597 0.2548336 0.1266154
vn 0.9633896 0.2434529 -0.1122998
vn 0.9633896 0.2434529 -0.1122998
vn 0.9633896 0.2434529 -0.1122998
vn 0.9586597 0.2548336 0.1266154
vn 0.9586597 0.2548336 0.1266154
vn 0.9586597 0.2548336 0.1266154
vn 0.9633896 0.2434529 -0.1122998
vn 0.9633896 0.2434529 -0.1122998
vn 0.9633896 0.2434529 -0.1122998
vn 0.9586597 0.2548336 0.1266154
vn 0.9586597 0.2548336 0.1266154
vn 0.9586597 0.2548336 0.1266154
vn 0.9633896 0.2434529 -0.1122998
vn 0.9633896 0.2434529 -0.1122998
vn 0.9633896 0.2434529 -0.1122998
vn 0.9586597 0.2548336 0.1266154
vn 0.9586597 0.2548336 0.1266154
vn 0.9586597 0.2548336 0.1266154
o 04_Mesa_Picnic_Wood
usemtl Wood
s 1
f 159/159/159 45/45/45 171/171/171
f 198/198/198 220/220/220 80/80/80
f 701/701/701 543/543/543 567/567/567
f 195/195/195 75/75/75 219/219/219
f 546/546/546 706/706/706 568/568/568
f 160/160/160 174/174/174 49/49/49
f 507/507/507 519/519/519 672/672/672
f 508/508/508 675/675/675 522/522/522
f 77/77/77 46/46/46 48/48/48
f 77/77/77 48/48/48 79/79/79
f 220/220/220 568/568/568 567/567/567
f 220/220/220 567/567/567 219/219/219
f 220/220/220 75/75/75 80/80/80
f 220/220/220 219/219/219 75/75/75
f 197/197/197 78/78/78 47/47/47
f 197/197/197 47/47/47 173/173/173
f 703/703/703 520/520/520 544/544/544
f 703/703/703 672/672/672 520/520/520
f 701/701/701 567/567/567 568/568/568
f 701/701/701 568/568/568 706/706/706
f 195/195/195 219/219/219 567/567/567
f 195/195/195 567/567/567 543/543/543
f 196/196/196 544/544/544 520/520/520
f 196/196/196 520/520/520 172/172/172
f 196/196/196 45/45/45 76/76/76
f 196/196/196 172/172/172 45/45/45
f 673/673/673 671/671/671 702/702/702
f 673/673/673 702/702/702 704/704/704
f 545/545/545 674/674/674 705/705/705
f 545/545/545 521/521/521 674/674/674
f 546/546/546 568/568/568 220/220/220
f 546/546/546 220/220/220 198/198/198
f 545/545/545 197/197/197 173/173/173
f 545/545/545 173/173/173 521/521/521
f 160/160/160 49/49/49 45/45/45
f 160/160/160 45/45/45 159/159/159
f 507/507/507 171/171/171 519/519/519
f 507/507/507 159/159/159 171/171/171
f 508/508/508 672/672/672 675/675/675
f 508/508/508 507/507/507 672/672/672
f 508/508/508 522/522/522 174/174/174
f 508/508/508 174/174/174 160/160/160
f 508/508/508 160/160/160 159/159/159
f 508/508/508 159/159/159 507/507/507
f 161/161/161 50/50/50 175/175/175
f 202/202/202 222/222/222 86/86/86
f 707/707/707 547/547/547 569/569/569
f 199/199/199 81/81/81 221/221/221
f 550/550/550 712/712/712 570/570/570
f 162/162/162 178/178/178 54/54/54
f 509/509/509 523/523/523 677/677/677
f 510/510/510 680/680/680 526/526/526
f 83/83/83 51/51/51 53/53/53
f 83/83/83 53/53/53 85/85/85
f 222/222/222 570/570/570 569/569/569
f 222/222/222 569/569/569 221/221/221
f 222/222/222 81/81/81 86/86/86
f 222/222/222 221/221/221 81/81/81
f 201/201/201 84/84/84 52/52/52
f 201/201/201 52/52/52 177/177/177
f 709/709/709 524/524/524 548/548/548
f 709/709/709 677/677/677 524/524/524
f 707/707/707 569/569/569 570/570/570
f 707/707/707 570/570/570 712/712/712
f 199/199/199 221/221/221 569/569/569
f 199/199/199 569/569/569 547/547/547
f 200/200/200 548/548/548 524/524/524
f 200/200/200 524/524/524 176/176/176
f 200/200/200 50/50/50 82/82/82
f 200/200/200 176/176/176 50/50/50
f 678/678/678 676/676/676 708/708/708
f 678/678/678 708/708/708 710/710/710
f 549/549/549 679/679/679 711/711/711
f 549/549/549 525/525/525 679/679/679
f 550/550/550 570/570/570 222/222/222
f 550/550/550 222/222/222 202/202/202
f 549/549/549 201/201/201 177/177/177
f 549/549/549 177/177/177 525/525/525
f 162/162/162 54/54/54 50/50/50
f 162/162/162 50/50/50 161/161/161
f 509/509/509 175/175/175 523/523/523
f 509/509/509 161/161/161 175/175/175
f 510/510/510 677/677/677 680/680/680
f 510/510/510 509/509/509 677/677/677
f 510/510/510 526/526/526 178/178/178
f 510/510/510 178/178/178 162/162/162
f 510/510/510 162/162/162 161/161/161
f 510/510/510 161/161/161 509/509/509
f 163/163/163 55/55/55 179/179/179
f 206/206/206 224/224/224 92/92/92
f 713/713/713 551/551/551 571/571/571
f 203/203/203 87/87/87 223/223/223
f 554/554/554 718/718/718 572/572/572
f 164/164/164 182/182/182 59/59/59
f 511/511/511 527/527/527 682/682/682
f 512/512/512 685/685/685 530/530/530
f 89/89/89 56/56/56 58/58/58
f 89/89/89 58/58/58 91/91/91
f 224/224/224 572/572/572 571/571/571
f 224/224/224 571/571/571 223/223/223
f 224/224/224 87/87/87 92/92/92
f 224/224/224 223/223/223 87/87/87
f 205/205/205 90/90/90 57/57/57
f 205/205/205 57/57/57 181/181/181
f 715/715/715 528/528/528 552/552/552
f 715/715/715 682/682/682 528/528/528
f 713/713/713 571/571/571 572/572/572
f 713/713/713 572/572/572 718/718/718
f 203/203/203 223/223/223 571/571/571
f 203/203/203 571/571/571 551/551/551
f 204/204/204 552/552/552 528/528/528
f 204/204/204 528/528/528 180/180/180
f 204/204/204 55/55/55 88/88/88
f 204/204/204 180/180/180 55/55/55
f 683/683/683 681/681/681 714/714/714
f 683/683/683 714/714/714 716/716/716
f 553/553/553 684/684/684 717/717/717
f 553/553/553 529/529/529 684/684/684
f 554/554/554 572/572/572 224/224/224
f 554/554/554 224/224/224 206/206/206
f 553/553/553 205/205/205 181/181/181
f 553/553/553 181/181/181 529/529/529
f 164/164/164 59/59/59 55/55/55
f 164/164/164 55/55/55 163/163/163
f 511/511/511 179/179/179 527/527/527
f 511/511/511 163/163/163 179/179/179
f 512/512/512 682/682/682 685/685/685
f 512/512/512 511/511/511 682/682/682
f 512/512/512 530/530/530 182/182/182
f 512/512/512 182/182/182 164/164/164
f 512/512/512 164/164/164 163/163/163
f 512/512/512 163/163/163 511/511/511
f 165/165/165 60/60/60 183/183/183
f 210/210/210 226/226/226 98/98/98
f 719/719/719 555/555/555 573/573/573
f 207/207/207 93/93/93 225/225/225
f 558/558/558 724/724/724 574/574/574
f 166/166/166 186/186/186 64/64/64
f 513/513/513 531/531/531 687/687/687
f 514/514/514 690/690/690 534/534/534
f 95/95/95 61/61/61 63/63/63
f 95/95/95 63/63/63 97/97/97
f 226/226/226 574/574/574 573/573/573
f 226/226/226 573/573/573 225/225/225
f 226/226/226 93/93/93 98/98/98
f 226/226/226 225/225/225 93/93/93
f 209/209/209 96/96/96 62/62/62
f 209/209/209 62/62/62 185/185/185
f 721/721/721 532/532/532 556/556/556
f 721/721/721 687/687/687 532/532/532
f 719/719/719 573/573/573 574/574/574
f 719/719/719 574/574/574 724/724/724
f 207/207/207 225/225/225 573/573/573
f 207/207/207 573/573/573 555/555/555
f 208/208/208 556/556/556 532/532/532
f 208/208/208 532/532/532 184/184/184
f 208/208/208 60/60/60 94/94/94
f 208/208/208 184/184/184 60/60/60
f 688/688/688 686/686/686 720/720/720
f 688/688/688 720/720/720 722/722/722
f 557/557/557 689/689/689 723/723/723
f 557/557/557 533/533/533 689/689/689
f 558/558/558 574/574/574 226/226/226
f 558/558/558 226/226/226 210/210/210
f 557/557/557 209/209/209 185/185/185
f 557/557/557 185/185/185 533/533/533
f 166/166/166 64/64/64 60/60/60
f 166/166/166 60/60/60 165/165/165
f 513/513/513 183/183/183 531/531/531
f 513/513/513 165/165/165 183/183/183
f 514/514/514 687/687/687 690/690/690
f 514/514/514 513/513/513 687/687/687
f 514/514/514 534/534/534 186/186/186
f 514/514/514 186/186/186 166/166/166
f 514/514/514 166/166/166 165/165/165
f 514/514/514 165/165/165 513/513/513
f 167/167/167 65/65/65 187/187/187
f 214/214/214 228/228/228 104/104/104
f 725/725/725 559/559/559 575/575/575
f 211/211/211 99/99/99 227/227/227
f 562/562/562 730/730/730 576/576/576
f 168/168/168 190/190/190 69/69/69
f 515/515/515 535/535/535 692/692/692
f 516/516/516 695/695/695 538/538/538
f 101/101/101 66/66/66 68/68/68
f 101/101/101 68/68/68 103/103/103
f 228/228/228 576/576/576 575/575/575
f 228/228/228 575/575/575 227/227/227
f 228/228/228 99/99/99 104/104/104
f 228/228/228 227/227/227 99/99/99
f 213/213/213 102/102/102 67/67/67
f 213/213/213 67/67/67 189/189/189
f 727/727/727 536/536/536 560/560/560
f 727/727/727 692/692/692 536/536/536
f 725/725/725 575/575/575 576/576/576
f 725/725/725 576/576/576 730/730/730
f 211/211/211 227/227/227 575/575/575
f 211/211/211 575/575/575 559/559/559
f 212/212/212 560/560/560 536/536/536
f 212/212/212 536/536/536 188/188/188
f 212/212/212 65/65/65 100/100/100
f 212/212/212 188/188/188 65/65/65
f 693/693/693 691/691/691 726/726/726
f 693/693/693 726/726/726 728/728/728
f 561/561/561 694/694/694 729/729/729
f 561/561/561 537/537/537 694/694/694
f 562/562/562 576/576/576 228/228/228
f 562/562/562 228/228/228 214/214/214
f 561/561/561 213/213/213 189/189/189
f 561/561/561 189/189/189 537/537/537
f 168/168/168 69/69/69 65/65/65
f 168/168/168 65/65/65 167/167/167
f 515/515/515 187/187/187 535/535/535
f 515/515/515 167/167/167 187/187/187
f 516/516/516 692/692/692 695/695/695
f 516/516/516 515/515/515 692/692/692
f 516/516/516 538/538/538 190/190/190
f 516/516/516 190/190/190 168/168/168
f 516/516/516 168/168/168 167/167/167
f 516/516/516 167/167/167 515/515/515
f 169/169/169 70/70/70 191/191/191
f 218/218/218 230/230/230 110/110/110
f 731/731/731 563/563/563 577/577/577
f 215/215/215 105/105/105 229/229/229
f 566/566/566 736/736/736 578/578/578
f 170/170/170 194/194/194 74/74/74
f 517/517/517 539/539/539 697/697/697
f 518/518/518 700/700/700 542/542/542
f 107/107/107 71/71/71 73/73/73
f 107/107/107 73/73/73 109/109/109
f 230/230/230 578/578/578 577/577/577
f 230/230/230 577/577/577 229/229/229
f 230/230/230 105/105/105 110/110/110
f 230/230/230 229/229/229 105/105/105
f 217/217/217 108/108/108 72/72/72
f 217/217/217 72/72/72 193/193/193
f 733/733/733 540/540/540 564/564/564
f 733/733/733 697/697/697 540/540/540
f 731/731/731 577/577/577 578/578/578
f 731/731/731 578/578/578 736/736/736
f 215/215/215 229/229/229 577/577/577
f 215/215/215 577/577/577 563/563/563
f 216/216/216 564/564/564 540/540/540
f 216/216/216 540/540/540 192/192/192
f 216/216/216 70/70/70 106/106/106
f 216/216/216 192/192/192 70/70/70
f 698/698/698 696/696/696 732/732/732
f 698/698/698 732/732/732 734/734/734
f 565/565/565 699/699/699 735/735/735
f 565/565/565 541/541/541 699/699/699
f 566/566/566 578/578/578 230/230/230
f 566/566/566 230/230/230 218/218/218
f 565/565/565 217/217/217 193/193/193
f 565/565/565 193/193/193 541/541/541
f 170/170/170 74/74/74 70/70/70
f 170/170/170 70/70/70 169/169/169
f 517/517/517 191/191/191 539/539/539
f 517/517/517 169/169/169 191/191/191
f 518/518/518 697/697/697 700/700/700
f 518/518/518 517/517/517 697/697/697
f 518/518/518 542/542/542 194/194/194
f 518/518/518 194/194/194 170/170/170
f 518/518/518 170/170/170 169/169/169
f 518/518/518 169/169/169 517/517/517
f 304/304/304 299/299/299 353/353/353
f 290/290/290 245/245/245 295/295/295
f 241/241/241 277/277/277 272/272/272
f 333/333/333 359/359/359 328/328/328
f 355/355/355 310/310/310 315/315/315
f 266/266/266 239/239/239 261/261/261
f 318/318/318 357/357/357 323/323/323
f 280/280/280 284/284/284 243/243/243
f 309/309/309 300/300/300 263/263/263
f 309/309/309 263/263/263 271/271/271
f 276/276/276 308/308/308 270/270/270
f 276/276/276 314/314/314 308/308/308
f 289/289/289 314/314/314 276/276/276
f 289/289/289 327/327/327 314/314/314
f 241/241/241 272/272/272 261/261/261
f 241/241/241 261/261/261 239/239/239
f 241/241/241 239/239/239 243/243/243
f 241/241/241 243/243/243 245/245/245
f 241/241/241 290/290/290 277/277/277
f 241/241/241 245/245/245 290/290/290
f 284/284/284 245/245/245 243/243/243
f 284/284/284 295/295/295 245/245/245
f 331/331/331 293/293/293 285/285/285
f 331/331/331 285/285/285 322/322/322
f 333/333/333 323/323/323 357/357/357
f 333/333/333 357/357/357 359/359/359
f 332/332/332 327/327/327 289/289/289
f 332/332/332 289/289/289 294/294/294
f 355/355/355 315/315/315 328/328/328
f 355/355/355 328/328/328 359/359/359
f 355/355/355 359/359/359 357/357/357
f 355/355/355 357/357/357 353/353/353
f 355/355/355 299/299/299 310/310/310
f 355/355/355 353/353/353 299/299/299
f 267/267/267 262/262/262 299/299/299
f 267/267/267 299/299/299 305/305/305
f 318/318/318 353/353/353 357/357/357
f 318/318/318 304/304/304 353/353/353
f 281/281/281 323/323/323 286/286/286
f 281/281/281 319/319/319 323/323/323
f 280/280/280 243/243/243 239/239/239
f 280/280/280 239/239/239 266/266/266
f 281/281/281 267/267/267 305/305/305
f 281/281/281 305/305/305 319/319/319
f 268/268/268 264/264/264 240/240/240
f 330/330/330 360/360/360 336/336/336
f 356/356/356 317/317/317 313/313/313
f 298/298/298 246/246/246 292/292/292
f 242/242/242 275/275/275 279/279/279
f 306/306/306 354/354/354 301/301/301
f 282/282/282 244/244/244 288/288/288
f 320/320/320 324/324/324 358/358/358
f 274/274/274 265/265/265 303/303/303
f 274/274/274 303/303/303 312/312/312
f 316/316/316 273/273/273 311/311/311
f 316/316/316 278/278/278 273/273/273
f 329/329/329 278/278/278 316/316/316
f 329/329/329 291/291/291 278/278/278
f 356/356/356 313/313/313 301/301/301
f 356/356/356 301/301/301 354/354/354
f 356/356/356 354/354/354 358/358/358
f 356/356/356 358/358/358 360/360/360
f 356/356/356 330/330/330 317/317/317
f 356/356/356 360/360/360 330/330/330
f 324/324/324 360/360/360 358/358/358
f 324/324/324 336/336/336 360/360/360
f 296/296/296 334/334/334 325/325/325
f 296/296/296 325/325/325 287/287/287
f 298/298/298 288/288/288 244/244/244
f 298/298/298 244/244/244 246/246/246
f 297/297/297 291/291/291 329/329/329
f 297/297/297 329/329/329 335/335/335
f 242/242/242 279/279/279 292/292/292
f 242/242/242 292/292/292 246/246/246
f 242/242/242 246/246/246 244/244/244
f 242/242/242 244/244/244 240/240/240
f 242/242/242 264/264/264 275/275/275
f 242/242/242 240/240/240 264/264/264
f 307/307/307 302/302/302 264/264/264
f 307/307/307 264/264/264 269/269/269
f 282/282/282 240/240/240 244/244/244
f 282/282/282 268/268/268 240/240/240
f 321/321/321 288/288/288 326/326/326
f 321/321/321 283/283/283 288/288/288
f 320/320/320 358/358/358 354/354/354
f 320/320/320 354/354/354 306/306/306
f 321/321/321 307/307/307 269/269/269
f 321/321/321 269/269/269 283/283/283
f 368/368/368 352/352/352 350/350/350
f 247/247/247 231/231/231 249/249/249
f 256/256/256 260/260/260 237/237/237
f 366/366/366 347/347/347 351/351/351
f 253/253/253 235/235/235 259/259/259
f 248/248/248 252/252/252 233/233/233
f 337/337/337 341/341/341 362/362/362
f 338/338/338 364/364/364 344/344/344
f 236/236/236 232/232/232 234/234/234
f 236/236/236 234/234/234 238/238/238
f 260/260/260 352/352/352 351/351/351
f 260/260/260 351/351/351 259/259/259
f 260/260/260 235/235/235 237/237/237
f 260/260/260 259/259/259 235/235/235
f 258/258/258 238/238/238 234/234/234
f 258/258/258 234/234/234 252/252/252
f 256/256/256 352/352/352 260/260/260
f 256/256/256 350/350/350 352/352/352
f 365/365/365 339/339/339 345/345/345
f 365/365/365 361/361/361 339/339/339
f 365/365/365 363/363/363 361/361/361
f 365/365/365 367/367/367 363/363/363
f 366/366/366 351/351/351 352/352/352
f 366/366/366 352/352/352 368/368/368
f 253/253/253 259/259/259 351/351/351
f 253/253/253 351/351/351 347/347/347
f 255/255/255 346/346/346 340/340/340
f 255/255/255 340/340/340 250/250/250
f 254/254/254 232/232/232 236/236/236
f 254/254/254 249/249/249 232/232/232
f 342/342/342 257/257/257 251/251/251
f 342/342/342 348/348/348 257/257/257
f 343/343/343 363/363/363 367/367/367
f 343/343/343 367/367/367 349/349/349
f 248/248/248 233/233/233 231/231/231
f 248/248/248 231/231/231 247/247/247
f 337/337/337 249/249/249 341/341/341
f 337/337/337 247/247/247 249/249/249
f 338/338/338 344/344/344 252/252/252
f 338/338/338 252/252/252 248/248/248
f 338/338/338 362/362/362 364/364/364
f 338/338/338 337/337/337 362/362/362
f 338/338/338 248/248/248 247/247/247
f 338/338/338 247/247/247 337/337/337
f 442/442/442 437/437/437 491/491/491
f 428/428/428 383/383/383 433/433/433
f 379/379/379 415/415/415 410/410/410
f 471/471/471 497/497/497 466/466/466
f 493/493/493 448/448/448 453/453/453
f 404/404/404 377/377/377 399/399/399
f 456/456/456 495/495/495 461/461/461
f 418/418/418 422/422/422 381/381/381
f 447/447/447 438/438/438 401/401/401
f 447/447/447 401/401/401 409/409/409
f 414/414/414 446/446/446 408/408/408
f 414/414/414 452/452/452 446/446/446
f 427/427/427 452/452/452 414/414/414
f 427/427/427 465/465/465 452/452/452
f 379/379/379 410/410/410 399/399/399
f 379/379/379 399/399/399 377/377/377
f 379/379/379 377/377/377 381/381/381
f 379/379/379 381/381/381 383/383/383
f 379/379/379 428/428/428 415/415/415
f 379/379/379 383/383/383 428/428/428
f 422/422/422 383/383/383 381/381/381
f 422/422/422 433/433/433 383/383/383
f 469/469/469 431/431/431 423/423/423
f 469/469/469 423/423/423 460/460/460
f 471/471/471 461/461/461 495/495/495
f 471/471/471 495/495/495 497/497/497
f 470/470/470 465/465/465 427/427/427
f 470/470/470 427/427/427 432/432/432
f 493/493/493 453/453/453 466/466/466
f 493/493/493 466/466/466 497/497/497
f 493/493/493 497/497/497 495/495/495
f 493/493/493 495/495/495 491/491/491
f 493/493/493 437/437/437 448/448/448
f 493/493/493 491/491/491 437/437/437
f 405/405/405 400/400/400 437/437/437
f 405/405/405 437/437/437 443/443/443
f 456/456/456 491/491/491 495/495/495
f 456/456/456 442/442/442 491/491/491
f 419/419/419 461/461/461 424/424/424
f 419/419/419 457/457/457 461/461/461
f 418/418/418 381/381/381 377/377/377
f 418/418/418 377/377/377 404/404/404
f 419/419/419 405/405/405 443/443/443
f 419/419/419 443/443/443 457/457/457
f 406/406/406 402/402/402 378/378/378
f 468/468/468 498/498/498 474/474/474
f 494/494/494 455/455/455 451/451/451
f 436/436/436 384/384/384 430/430/430
f 380/380/380 413/413/413 417/417/417
f 444/444/444 492/492/492 439/439/439
f 420/420/420 382/382/382 426/426/426
f 458/458/458 462/462/462 496/496/496
f 412/412/412 403/403/403 441/441/441
f 412/412/412 441/441/441 450/450/450
f 454/454/454 411/411/411 449/449/449
f 454/454/454 416/416/416 411/411/411
f 467/467/467 416/416/416 454/454/454
f 467/467/467 429/429/429 416/416/416
f 494/494/494 451/451/451 439/439/439
f 494/494/494 439/439/439 492/492/492
f 494/494/494 492/492/492 496/496/496
f 494/494/494 496/496/496 498/498/498
f 494/494/494 468/468/468 455/455/455
f 494/494/494 498/498/498 468/468/468
f 462/462/462 498/498/498 496/496/496
f 462/462/462 474/474/474 498/498/498
f 434/434/434 472/472/472 463/463/463
f 434/434/434 463/463/463 425/425/425
f 436/436/436 426/426/426 382/382/382
f 436/436/436 382/382/382 384/384/384
f 435/435/435 429/429/429 467/467/467
f 435/435/435 467/467/467 473/473/473
f 380/380/380 417/417/417 430/430/430
f 380/380/380 430/430/430 384/384/384
f 380/380/380 384/384/384 382/382/382
f 380/380/380 382/382/382 378/378/378
f 380/380/380 402/402/402 413/413/413
f 380/380/380 378/378/378 402/402/402
f 445/445/445 440/440/440 402/402/402
f 445/445/445 402/402/402 407/407/407
f 420/420/420 378/378/378 382/382/382
f 420/420/420 406/406/406 378/378/378
f 459/459/459 426/426/426 464/464/464
f 459/459/459 421/421/421 426/426/426
f 458/458/458 496/496/496 492/492/492
f 458/458/458 492/492/492 444/444/444
f 459/459/459 445/445/445 407/407/407
f 459/459/459 407/407/407 421/421/421
f 506/506/506 490/490/490 488/488/488
f 385/385/385 369/369/369 387/387/387
f 394/394/394 398/398/398 375/375/375
f 504/504/504 485/485/485 489/489/489
f 391/391/391 373/373/373 397/397/397
f 386/386/386 390/390/390 371/371/371
f 475/475/475 479/479/479 500/500/500
f 476/476/476 502/502/502 482/482/482
f 374/374/374 370/370/370 372/372/372
f 374/374/374 372/372/372 376/376/376
f 398/398/398 490/490/490 489/489/489
f 398/398/398 489/489/489 397/397/397
f 398/398/398 373/373/373 375/375/375
f 398/398/398 397/397/397 373/373/373
f 396/396/396 376/376/376 372/372/372
f 396/396/396 372/372/372 390/390/390
f 394/394/394 490/490/490 398/398/398
f 394/394/394 488/488/488 490/490/490
f 503/503/503 477/477/477 483/483/483
f 503/503/503 499/499/499 477/477/477
f 503/503/503 501/501/501 499/499/499
f 503/503/503 505/505/505 501/501/501
f 504/504/504 489/489/489 490/490/490
f 504/504/504 490/490/490 506/506/506
f 391/391/391 397/397/397 489/489/489
f 391/391/391 489/489/489 485/485/485
f 393/393/393 484/484/484 478/478/478
f 393/393/393 478/478/478 388/388/388
f 392/392/392 370/370/370 374/374/374
f 392/392/392 387/387/387 370/370/370
f 480/480/480 395/395/395 389/389/389
f 480/480/480 486/486/486 395/395/395
f 481/481/481 501/501/501 505/505/505
f 481/481/481 505/505/505 487/487/487
f 386/386/386 371/371/371 369/369/369
f 386/386/386 369/369/369 385/385/385
f 475/475/475 387/387/387 479/479/479
f 475/475/475 385/385/385 387/387/387
f 476/476/476 482/482/482 390/390/390
f 476/476/476 390/390/390 386/386/386
f 476/476/476 500/500/500 502/502/502
f 476/476/476 475/475/475 500/500/500
f 476/476/476 386/386/386 385/385/385
f 476/476/476 385/385/385 475/475/475
f 111/111/111 1/1/1 119/119/119
f 138/138/138 152/152/152 26/26/26
f 647/647/647 603/603/603 619/619/619
f 135/135/135 21/21/21 151/151/151
f 606/606/606 652/652/652 620/620/620
f 112/112/112 122/122/122 5/5/5
f 579/579/579 587/587/587 628/628/628
f 580/580/580 631/631/631 590/590/590
f 23/23/23 2/2/2 4/4/4
f 23/23/23 4/4/4 25/25/25
f 152/152/152 620/620/620 619/619/619
f 152/152/152 619/619/619 151/151/151
f 152/152/152 21/21/21 26/26/26
f 152/152/152 151/151/151 21/21/21
f 137/137/137 24/24/24 3/3/3
f 137/137/137 3/3/3 121/121/121
f 649/649/649 588/588/588 604/604/604
f 649/649/649 628/628/628 588/588/588
f 647/647/647 619/619/619 620/620/620
f 647/647/647 620/620/620 652/652/652
f 135/135/135 151/151/151 619/619/619
f 135/135/135 619/619/619 603/603/603
f 136/136/136 604/604/604 588/588/588
f 136/136/136 588/588/588 120/120/120
f 136/136/136 1/1/1 22/22/22
f 136/136/136 120/120/120 1/1/1
f 629/629/629 627/627/627 648/648/648
f 629/629/629 648/648/648 650/650/650
f 605/605/605 630/630/630 651/651/651
f 605/605/605 589/589/589 630/630/630
f 606/606/606 620/620/620 152/152/152
f 606/606/606 152/152/152 138/138/138
f 605/605/605 137/137/137 121/121/121
f 605/605/605 121/121/121 589/589/589
f 112/112/112 5/5/5 1/1/1
f 112/112/112 1/1/1 111/111/111
f 579/579/579 119/119/119 587/587/587
f 579/579/579 111/111/111 119/119/119
f 580/580/580 628/628/628 631/631/631
f 580/580/580 579/579/579 628/628/628
f 580/580/580 590/590/590 122/122/122
f 580/580/580 122/122/122 112/112/112
f 580/580/580 112/112/112 111/111/111
f 580/580/580 111/111/111 579/579/579
f 113/113/113 6/6/6 123/123/123
f 142/142/142 154/154/154 32/32/32
f 653/653/653 607/607/607 621/621/621
f 139/139/139 27/27/27 153/153/153
f 610/610/610 658/658/658 622/622/622
f 114/114/114 126/126/126 10/10/10
f 581/581/581 591/591/591 633/633/633
f 582/582/582 636/636/636 594/594/594
f 29/29/29 7/7/7 9/9/9
f 29/29/29 9/9/9 31/31/31
f 154/154/154 622/622/622 621/621/621
f 154/154/154 621/621/621 153/153/153
f 154/154/154 27/27/27 32/32/32
f 154/154/154 153/153/153 27/27/27
f 141/141/141 30/30/30 8/8/8
f 141/141/141 8/8/8 125/125/125
f 655/655/655 592/592/592 608/608/608
f 655/655/655 633/633/633 592/592/592
f 653/653/653 621/621/621 622/622/622
f 653/653/653 622/622/622 658/658/658
f 139/139/139 153/153/153 621/621/621
f 139/139/139 621/621/621 607/607/607
f 140/140/140 608/608/608 592/592/592
f 140/140/140 592/592/592 124/124/124
f 140/140/140 6/6/6 28/28/28
f 140/140/140 124/124/124 6/6/6
f 634/634/634 632/632/632 654/654/654
f 634/634/634 654/654/654 656/656/656
f 609/609/609 635/635/635 657/657/657
f 609/609/609 593/593/593 635/635/635
f 610/610/610 622/622/622 154/154/154
f 610/610/610 154/154/154 142/142/142
f 609/609/609 141/141/141 125/125/125
f 609/609/609 125/125/125 593/593/593
f 114/114/114 10/10/10 6/6/6
f 114/114/114 6/6/6 113/113/113
f 581/581/581 123/123/123 591/591/591
f 581/581/581 113/113/113 123/123/123
f 582/582/582 633/633/633 636/636/636
f 582/582/582 581/581/581 633/633/633
f 582/582/582 594/594/594 126/126/126
f 582/582/582 126/126/126 114/114/114
f 582/582/582 114/114/114 113/113/113
f 582/582/582 113/113/113 581/581/581
f 115/115/115 11/11/11 127/127/127
f 146/146/146 156/156/156 38/38/38
f 659/659/659 611/611/611 623/623/623
f 143/143/143 33/33/33 155/155/155
f 614/614/614 664/664/664 624/624/624
f 116/116/116 130/130/130 15/15/15
f 583/583/583 595/595/595 638/638/638
f 584/584/584 641/641/641 598/598/598
f 35/35/35 12/12/12 14/14/14
f 35/35/35 14/14/14 37/37/37
f 156/156/156 624/624/624 623/623/623
f 156/156/156 623/623/623 155/155/155
f 156/156/156 33/33/33 38/38/38
f 156/156/156 155/155/155 33/33/33
f 145/145/145 36/36/36 13/13/13
f 145/145/145 13/13/13 129/129/129
f 661/661/661 596/596/596 612/612/612
f 661/661/661 638/638/638 596/596/596
f 659/659/659 623/623/623 624/624/624
f 659/659/659 624/624/624 664/664/664
f 143/143/143 155/155/155 623/623/623
f 143/143/143 623/623/623 611/611/611
f 144/144/144 612/612/612 596/596/596
f 144/144/144 596/596/596 128/128/128
f 144/144/144 11/11/11 34/34/34
f 144/144/144 128/128/128 11/11/11
f 639/639/639 637/637/637 660/660/660
f 639/639/639 660/660/660 662/662/662
f 613/613/613 640/640/640 663/663/663
f 613/613/613 597/597/597 640/640/640
f 614/614/614 624/624/624 156/156/156
f 614/614/614 156/156/156 146/146/146
f 613/613/613 145/145/145 129/129/129
f 613/613/613 129/129/129 597/597/597
f 116/116/116 15/15/15 11/11/11
f 116/116/116 11/11/11 115/115/115
f 583/583/583 127/127/127 595/595/595
f 583/583/583 115/115/115 127/127/127
f 584/584/584 638/638/638 641/641/641
f 584/584/584 583/583/583 638/638/638
f 584/584/584 598/598/598 130/130/130
f 584/584/584 130/130/130 116/116/116
f 584/584/584 116/116/116 115/115/115
f 584/584/584 115/115/115 583/583/583
f 117/117/117 16/16/16 131/131/131
f 150/150/150 158/158/158 44/44/44
f 665/665/665 615/615/615 625/625/625
f 147/147/147 39/39/39 157/157/157
f 618/618/618 670/670/670 626/626/626
f 118/118/118 134/134/134 20/20/20
f 585/585/585 599/599/599 643/643/643
f 586/586/586 646/646/646 602/602/602
f 41/41/41 17/17/17 19/19/19
f 41/41/41 19/19/19 43/43/43
f 158/158/158 626/626/626 625/625/625
f 158/158/158 625/625/625 157/157/157
f 158/158/158 39/39/39 44/44/44
f 158/158/158 157/157/157 39/39/39
f 149/149/149 42/42/42 18/18/18
f 149/149/149 18/18/18 133/133/133
f 667/667/667 600/600/600 616/616/616
f 667/667/667 643/643/643 600/600/600
f 665/665/665 625/625/625 626/626/626
f 665/665/665 626/626/626 670/670/670
f 147/147/147 157/157/157 625/625/625
f 147/147/147 625/625/625 615/615/615
f 148/148/148 616/616/616 600/600/600
f 148/148/148 600/600/600 132/132/132
f 148/148/148 16/16/16 40/40/40
f 148/148/148 132/132/132 16/16/16
f 644/644/644 642/642/642 666/666/666
f 644/644/644 666/666/666 668/668/668
f 617/617/617 645/645/645 669/669/669
f 617/617/617 601/601/601 645/645/645
f 618/618/618 626/626/626 158/158/158
f 618/618/618 158/158/158 150/150/150
f 617/617/617 149/149/149 133/133/133
f 617/617/617 133/133/133 601/601/601
f 118/118/118 20/20/20 16/16/16
f 118/118/118 16/16/16 117/117/117
f 585/585/585 131/131/131 599/599/599
f 585/585/585 117/117/117 131/131/131
f 586/586/586 643/643/643 646/646/646
f 586/586/586 585/585/585 643/643/643
f 586/586/586 602/602/602 134/134/134
f 586/586/586 134/134/134 118/118/118
f 586/586/586 118/118/118 117/117/117
f 586/586/586 117/117/117 585/585/585
