# metres; Y up; ground-centred pivot
mtllib 05_Taburete.mtl
v -0.2500000 0.4212681 0.0000000
v -0.2500000 0.4812681 0.0000000
v -0.2377641 0.4212681 -0.0772542
v -0.2377641 0.4212681 0.0772542
v -0.2377641 0.4812681 -0.0772542
v -0.2377641 0.4812681 0.0772542
v -0.2300000 0.4062681 0.0000000
v -0.2300000 0.4062681 0.0000000
v -0.2300000 0.4962681 0.0000000
v -0.2300000 0.4962681 0.0000000
v -0.2187430 0.4062681 -0.0710739
v -0.2187430 0.4062681 -0.0710739
v -0.2187430 0.4062681 0.0710739
v -0.2187430 0.4062681 0.0710739
v -0.2187430 0.4962681 -0.0710739
v -0.2187430 0.4962681 -0.0710739
v -0.2187430 0.4962681 0.0710739
v -0.2187430 0.4962681 0.0710739
v -0.2022542 0.4212681 -0.1469463
v -0.2022542 0.4212681 0.1469463
v -0.2022542 0.4812681 -0.1469463
v -0.2022542 0.4812681 0.1469463
v -0.1970966 0.4016056 -0.1299659
v -0.1970966 0.4016056 -0.1299659
v -0.1970966 0.4016056 0.1299659
v -0.1970966 0.4016056 0.1299659
v -0.1969904 0.3993205 -0.1792128
v -0.1969904 0.3993205 -0.1792128
v -0.1969904 0.3993205 0.1792128
v -0.1969904 0.3993205 0.1792128
v -0.1860739 0.4062681 -0.1351906
v -0.1860739 0.4062681 -0.1351906
v -0.1860739 0.4062681 0.1351906
v -0.1860739 0.4062681 0.1351906
v -0.1860739 0.4962681 -0.1351906
v -0.1860739 0.4962681 -0.1351906
v -0.1860739 0.4962681 0.1351906
v -0.1860739 0.4962681 0.1351906
v -0.1800941 0.4202462 -0.1307941
v -0.1800941 0.4202462 -0.1307941
v -0.1800941 0.4202462 -0.1307941
v -0.1800941 0.4202462 0.1307941
v -0.1800941 0.4202462 0.1307941
v -0.1799879 0.4179612 -0.1800410
v -0.1799879 0.4179612 -0.1800410
v -0.1799879 0.4179612 0.1800410
v -0.1799879 0.4179612 0.1800410
v -0.1799879 0.4179612 0.1800410
v -0.1793179 0.0192674 -0.1121872
v -0.1793179 0.0192674 -0.1121872
v -0.1793179 0.0192674 0.1121872
v -0.1793179 0.0192674 0.1121872
v -0.1793044 0.4032621 -0.1121351
v -0.1793044 0.4032621 0.1121351
v -0.1792116 0.0169824 -0.1614341
v -0.1792116 0.0169824 -0.1614341
v -0.1792116 0.0169824 0.1614341
v -0.1792116 0.0169824 0.1614341
v -0.1791212 0.3993223 -0.1970436
v -0.1791212 0.3993223 0.1970436
v -0.1615256 0.0209239 -0.0943564
v -0.1615256 0.0209239 0.0943564
v -0.1613424 0.0169842 -0.1792649
v -0.1613424 0.0169842 0.1792649
v -0.1606589 0.0022850 -0.1113590
v -0.1606589 0.0022850 -0.1113590
v -0.1606589 0.0022850 -0.1113590
v -0.1606589 0.0022850 0.1113590
v -0.1606589 0.0022850 0.1113590
v -0.1605527 0.0000000 -0.1606059
v -0.1605527 0.0000000 -0.1606059
v -0.1605527 0.0000000 0.1606059
v -0.1605527 0.0000000 0.1606059
v -0.1605527 0.0000000 0.1606059
v -0.1469463 0.4212681 -0.2022542
v -0.1469463 0.4212681 0.2022542
v -0.1469463 0.4812681 -0.2022542
v -0.1469463 0.4812681 0.2022542
v -0.1351906 0.4062681 -0.1860739
v -0.1351906 0.4062681 -0.1860739
v -0.1351906 0.4062681 0.1860739
v -0.1351906 0.4062681 0.1860739
v -0.1351906 0.4962681 -0.1860739
v -0.1351906 0.4962681 -0.1860739
v -0.1351906 0.4962681 0.1860739
v -0.1351906 0.4962681 0.1860739
v -0.1308473 0.4225362 -0.1307941
v -0.1308473 0.4225362 -0.1307941
v -0.1308473 0.4225362 0.1307941
v -0.1308473 0.4225362 0.1307941
v -0.1308473 0.4225362 0.1307941
v -0.1307411 0.4202512 -0.1800410
v -0.1307411 0.4202512 -0.1800410
v -0.1307411 0.4202512 -0.1800410
v -0.1307411 0.4202512 0.1800410
v -0.1307411 0.4202512 0.1800410
v -0.1300576 0.4055520 -0.1121351
v -0.1300576 0.4055520 0.1121351
v -0.1298744 0.4016123 -0.1970436
v -0.1298744 0.4016123 0.1970436
v -0.1122788 0.0232139 -0.0943564
v -0.1122788 0.0232139 0.0943564
v -0.1121884 0.4055538 -0.1299659
v -0.1121884 0.4055538 -0.1299659
v -0.1121884 0.4055538 0.1299659
v -0.1121884 0.4055538 0.1299659
v -0.1120956 0.0192742 -0.1792649
v -0.1120956 0.0192742 0.1792649
v -0.1120821 0.4032688 -0.1792128
v -0.1120821 0.4032688 -0.1792128
v -0.1120821 0.4032688 0.1792128
v -0.1120821 0.4032688 0.1792128
v -0.1114121 0.0045750 -0.1113590
v -0.1114121 0.0045750 -0.1113590
v -0.1114121 0.0045750 0.1113590
v -0.1114121 0.0045750 0.1113590
v -0.1114121 0.0045750 0.1113590
v -0.1113059 0.0022900 -0.1606059
v -0.1113059 0.0022900 -0.1606059
v -0.1113059 0.0022900 -0.1606059
v -0.1113059 0.0022900 0.1606059
v -0.1113059 0.0022900 0.1606059
v -0.0944096 0.0232157 -0.1121872
v -0.0944096 0.0232157 -0.1121872
v -0.0944096 0.0232157 0.1121872
v -0.0944096 0.0232157 0.1121872
v -0.0943034 0.0209306 -0.1614341
v -0.0943034 0.0209306 -0.1614341
v -0.0943034 0.0209306 0.1614341
v -0.0943034 0.0209306 0.1614341
v -0.0772542 0.4212681 -0.2377641
v -0.0772542 0.4212681 0.2377641
v -0.0772542 0.4812681 -0.2377641
v -0.0772542 0.4812681 0.2377641
v -0.0710739 0.4062681 -0.2187430
v -0.0710739 0.4062681 -0.2187430
v -0.0710739 0.4062681 0.2187430
v -0.0710739 0.4062681 0.2187430
v -0.0710739 0.4962681 -0.2187430
v -0.0710739 0.4962681 -0.2187430
v -0.0710739 0.4962681 0.2187430
v -0.0710739 0.4962681 0.2187430
v -0.0000000 0.4062681 -0.2300000
v -0.0000000 0.4062681 -0.2300000
v 0.0000000 0.4062681 0.0000000
v 0.0000000 0.4062681 0.2300000
v 0.0000000 0.4062681 0.2300000
v -0.0000000 0.4212681 -0.2500000
v 0.0000000 0.4212681 0.2500000
v -0.0000000 0.4812681 -0.2500000
v 0.0000000 0.4812681 0.2500000
v -0.0000000 0.4962681 -0.2300000
v -0.0000000 0.4962681 -0.2300000
v 0.0000000 0.4962681 0.0000000
v 0.0000000 0.4962681 0.2300000
v 0.0000000 0.4962681 0.2300000
v 0.0710739 0.4062681 -0.2187430
v 0.0710739 0.4062681 -0.2187430
v 0.0710739 0.4062681 0.2187430
v 0.0710739 0.4062681 0.2187430
v 0.0710739 0.4962681 -0.2187430
v 0.0710739 0.4962681 -0.2187430
v 0.0710739 0.4962681 0.2187430
v 0.0710739 0.4962681 0.2187430
v 0.0772542 0.4212681 -0.2377641
v 0.0772542 0.4212681 0.2377641
v 0.0772542 0.4812681 -0.2377641
v 0.0772542 0.4812681 0.2377641
v 0.0943034 0.0209306 -0.1614341
v 0.0943034 0.0209306 -0.1614341
v 0.0943034 0.0209306 0.1614341
v 0.0943034 0.0209306 0.1614341
v 0.0944096 0.0232157 -0.1121872
v 0.0944096 0.0232157 -0.1121872
v 0.0944096 0.0232157 0.1121872
v 0.0944096 0.0232157 0.1121872
v 0.1113059 0.0022900 -0.1606059
v 0.1113059 0.0022900 -0.1606059
v 0.1113059 0.0022900 0.1606059
v 0.1113059 0.0022900 0.1606059
v 0.1113059 0.0022900 0.1606059
v 0.1114121 0.0045750 -0.1113590
v 0.1114121 0.0045750 -0.1113590
v 0.1114121 0.0045750 -0.1113590
v 0.1114121 0.0045750 0.1113590
v 0.1114121 0.0045750 0.1113590
v 0.1120821 0.4032688 -0.1792128
v 0.1120821 0.4032688 -0.1792128
v 0.1120821 0.4032688 0.1792128
v 0.1120821 0.4032688 0.1792128
v 0.1120956 0.0192742 -0.1792649
v 0.1120956 0.0192742 0.1792649
v 0.1121884 0.4055538 -0.1299659
v 0.1121884 0.4055538 -0.1299659
v 0.1121884 0.4055538 0.1299659
v 0.1121884 0.4055538 0.1299659
v 0.1122788 0.0232139 -0.0943564
v 0.1122788 0.0232139 0.0943564
v 0.1298744 0.4016123 -0.1970436
v 0.1298744 0.4016123 0.1970436
v 0.1300576 0.4055520 -0.1121351
v 0.1300576 0.4055520 0.1121351
v 0.1307411 0.4202512 -0.1800410
v 0.1307411 0.4202512 -0.1800410
v 0.1307411 0.4202512 0.1800410
v 0.1307411 0.4202512 0.1800410
v 0.1307411 0.4202512 0.1800410
v 0.1308473 0.4225362 -0.1307941
v 0.1308473 0.4225362 -0.1307941
v 0.1308473 0.4225362 -0.1307941
v 0.1308473 0.4225362 0.1307941
v 0.1308473 0.4225362 0.1307941
v 0.1351906 0.4062681 -0.1860739
v 0.1351906 0.4062681 -0.1860739
v 0.1351906 0.4062681 0.1860739
v 0.1351906 0.4062681 0.1860739
v 0.1351906 0.4962681 -0.1860739
v 0.1351906 0.4962681 -0.1860739
v 0.1351906 0.4962681 0.1860739
v 0.1351906 0.4962681 0.1860739
v 0.1469463 0.4212681 -0.2022542
v 0.1469463 0.4212681 0.2022542
v 0.1469463 0.4812681 -0.2022542
v 0.1469463 0.4812681 0.2022542
v 0.1605527 0.0000000 -0.1606059
v 0.1605527 0.0000000 -0.1606059
v 0.1605527 0.0000000 -0.1606059
v 0.1605527 0.0000000 0.1606059
v 0.1605527 0.0000000 0.1606059
v 0.1606589 0.0022850 -0.1113590
v 0.1606589 0.0022850 -0.1113590
v 0.1606589 0.0022850 0.1113590
v 0.1606589 0.0022850 0.1113590
v 0.1606589 0.0022850 0.1113590
v 0.1613424 0.0169842 -0.1792649
v 0.1613424 0.0169842 0.1792649
v 0.1615256 0.0209239 -0.0943564
v 0.1615256 0.0209239 0.0943564
v 0.1791212 0.3993223 -0.1970436
v 0.1791212 0.3993223 0.1970436
v 0.1792116 0.0169824 -0.1614341
v 0.1792116 0.0169824 -0.1614341
v 0.1792116 0.0169824 0.1614341
v 0.1792116 0.0169824 0.1614341
v 0.1793044 0.4032621 -0.1121351
v 0.1793044 0.4032621 0.1121351
v 0.1793179 0.0192674 -0.1121872
v 0.1793179 0.0192674 -0.1121872
v 0.1793179 0.0192674 0.1121872
v 0.1793179 0.0192674 0.1121872
v 0.1799879 0.4179612 -0.1800410
v 0.1799879 0.4179612 -0.1800410
v 0.1799879 0.4179612 -0.1800410
v 0.1799879 0.4179612 0.1800410
v 0.1799879 0.4179612 0.1800410
v 0.1800941 0.4202462 -0.1307941
v 0.1800941 0.4202462 -0.1307941
v 0.1800941 0.4202462 0.1307941
v 0.1800941 0.4202462 0.1307941
v 0.1800941 0.4202462 0.1307941
v 0.1860739 0.4062681 -0.1351906
v 0.1860739 0.4062681 -0.1351906
v 0.1860739 0.4062681 0.1351906
v 0.1860739 0.4062681 0.1351906
v 0.1860739 0.4962681 -0.1351906
v 0.1860739 0.4962681 -0.1351906
v 0.1860739 0.4962681 0.1351906
v 0.1860739 0.4962681 0.1351906
v 0.1969904 0.3993205 -0.1792128
v 0.1969904 0.3993205 -0.1792128
v 0.1969904 0.3993205 0.1792128
v 0.1969904 0.3993205 0.1792128
v 0.1970966 0.4016056 -0.1299659
v 0.1970966 0.4016056 -0.1299659
v 0.1970966 0.4016056 0.1299659
v 0.1970966 0.4016056 0.1299659
v 0.2022542 0.4212681 -0.1469463
v 0.2022542 0.4212681 0.1469463
v 0.2022542 0.4812681 -0.1469463
v 0.2022542 0.4812681 0.1469463
v 0.2187430 0.4062681 -0.0710739
v 0.2187430 0.4062681 -0.0710739
v 0.2187430 0.4062681 0.0710739
v 0.2187430 0.4062681 0.0710739
v 0.2187430 0.4962681 -0.0710739
v 0.2187430 0.4962681 -0.0710739
v 0.2187430 0.4962681 0.0710739
v 0.2187430 0.4962681 0.0710739
v 0.2300000 0.4062681 0.0000000
v 0.2300000 0.4062681 -0.0000000
v 0.2300000 0.4062681 -0.0000000
v 0.2300000 0.4962681 0.0000000
v 0.2300000 0.4962681 0.0000000
v 0.2300000 0.4962681 -0.0000000
v 0.2377641 0.4212681 -0.0772542
v 0.2377641 0.4212681 0.0772542
v 0.2377641 0.4812681 -0.0772542
v 0.2377641 0.4812681 0.0772542
v 0.2500000 0.4212681 0.0000000
v 0.2500000 0.4212681 -0.0000000
v 0.2500000 0.4812681 0.0000000
v 0.2500000 0.4812681 -0.0000000
vt 0.5000000 -0.0187500
vt 0.5000000 0.0187500
vt 0.5500000 -0.0187500
vt 0.4500000 -0.0187500
vt 0.5500000 0.0187500
vt 0.4500000 0.0187500
vt 0.0400000 0.5000000
vt 0.5000000 -0.0281250
vt 0.0400000 0.5000000
vt 0.5000000 0.0281250
vt 0.0625140 0.3578522
vt 0.5500000 -0.0281250
vt 0.0625140 0.6421478
vt 0.4500000 -0.0281250
vt 0.0625140 0.3578522
vt 0.5500000 0.0281250
vt 0.0625140 0.6421478
vt 0.4500000 0.0281250
vt 0.6000000 -0.0187500
vt 0.4000000 -0.0187500
vt 0.6000000 0.0187500
vt 0.4000000 0.0187500
vt 0.0866077 0.2352836
vt 0.1825363 0.2352836
vt 0.0838970 0.1938887
vt 0.1093970 0.1938887
vt 0.0866077 0.2352836
vt 0.1121077 0.2352836
vt 0.0838970 0.1938887
vt 0.1798256 0.1938887
vt 0.1278522 0.2296188
vt 0.6000000 -0.0281250
vt 0.1278522 0.7703812
vt 0.4000000 -0.0281250
vt 0.1278522 0.2296188
vt 0.6000000 0.0281250
vt 0.1278522 0.7703812
vt 0.4000000 0.0281250
vt 0.1121077 0.1370883
vt 0.1121077 0.2405336
vt 0.1825363 0.2405336
vt 0.1093970 0.0811934
vt 0.1093970 0.1991387
vt 0.1121077 0.1225883
vt 0.1121077 0.2405336
vt 0.1093970 0.0956934
vt 0.1093970 0.1991387
vt 0.1798256 0.1991387
vt 0.0866077 0.1225883
vt 0.1825363 0.1225883
vt 0.0838970 0.0811934
vt 0.1093970 0.0811934
vt 0.1121077 0.2352836
vt 0.1093970 0.1938887
vt 0.0866077 0.1225883
vt 0.1121077 0.1225883
vt 0.0838970 0.0811934
vt 0.1798256 0.0811934
vt 0.1121077 0.2352836
vt 0.1093970 0.1938887
vt 0.1121077 0.1225883
vt 0.1093970 0.0811934
vt 0.1121077 0.1225883
vt 0.1093970 0.0811934
vt 0.1121077 0.1173383
vt 0.1121077 0.1370883
vt 0.1825363 0.1173383
vt 0.1093970 0.0759434
vt 0.1093970 0.0811934
vt 0.1121077 0.1173383
vt 0.1121077 0.1225883
vt 0.1093970 0.0759434
vt 0.1093970 0.0956934
vt 0.1798256 0.0759434
vt 0.6500000 -0.0187500
vt 0.3500000 -0.0187500
vt 0.6500000 0.0187500
vt 0.3500000 0.0187500
vt 0.2296188 0.1278522
vt 0.6500000 -0.0281250
vt 0.2296188 0.8721478
vt 0.3500000 -0.0281250
vt 0.2296188 0.1278522
vt 0.6500000 0.0281250
vt 0.2296188 0.8721478
vt 0.3500000 0.0281250
vt 0.1825363 0.1370883
vt 0.1825363 0.2405336
vt 0.1093970 0.1991387
vt 0.1798256 0.0811934
vt 0.1798256 0.1991387
vt 0.1121077 0.2405336
vt 0.1825363 0.1225883
vt 0.1825363 0.2405336
vt 0.1798256 0.0956934
vt 0.1798256 0.1991387
vt 0.1825363 0.2352836
vt 0.1798256 0.1938887
vt 0.1825363 0.2352836
vt 0.1798256 0.1938887
vt 0.1825363 0.1225883
vt 0.1798256 0.0811934
vt 0.1825363 0.2352836
vt 0.2080363 0.2352836
vt 0.1093970 0.1938887
vt 0.2053256 0.1938887
vt 0.1825363 0.1225883
vt 0.1798256 0.0811934
vt 0.1121077 0.2352836
vt 0.2080363 0.2352836
vt 0.1798256 0.1938887
vt 0.2053256 0.1938887
vt 0.1825363 0.1173383
vt 0.1825363 0.1370883
vt 0.1093970 0.0759434
vt 0.1798256 0.0759434
vt 0.1798256 0.0811934
vt 0.1121077 0.1173383
vt 0.1825363 0.1173383
vt 0.1825363 0.1225883
vt 0.1798256 0.0759434
vt 0.1798256 0.0956934
vt 0.1825363 0.1225883
vt 0.2080363 0.1225883
vt 0.1093970 0.0811934
vt 0.2053256 0.0811934
vt 0.1121077 0.1225883
vt 0.2080363 0.1225883
vt 0.1798256 0.0811934
vt 0.2053256 0.0811934
vt 0.7000000 -0.0187500
vt 0.3000000 -0.0187500
vt 0.7000000 0.0187500
vt 0.3000000 0.0187500
vt 0.3578522 0.0625140
vt 0.7000000 -0.0281250
vt 0.3000000 -0.0281250
vt 0.3578522 0.9374860
vt 0.3578522 0.0625140
vt 0.7000000 0.0281250
vt 0.3000000 0.0281250
vt 0.3578522 0.9374860
vt 0.5000000 0.0400000
vt 0.7500000 -0.0281250
vt 0.5000000 0.5000000
vt 0.2500000 -0.0281250
vt 0.5000000 0.9600000
vt 0.7500000 -0.0187500
vt 0.2500000 -0.0187500
vt 0.7500000 0.0187500
vt 0.2500000 0.0187500
vt 0.5000000 0.0400000
vt 0.7500000 0.0281250
vt 0.5000000 0.5000000
vt 0.2500000 0.0281250
vt 0.5000000 0.9600000
vt 0.6421478 0.0625140
vt 0.8000000 -0.0281250
vt 0.2000000 -0.0281250
vt 0.6421478 0.9374860
vt 0.6421478 0.0625140
vt 0.8000000 0.0281250
vt 0.2000000 0.0281250
vt 0.6421478 0.9374860
vt 0.8000000 -0.0187500
vt 0.2000000 -0.0187500
vt 0.8000000 0.0187500
vt 0.2000000 0.0187500
vt 0.1298279 0.0620975
vt 0.1553279 0.0620975
vt 0.0680237 0.0965191
vt 0.1639523 0.0965191
vt 0.1298279 0.0620975
vt 0.2257565 0.0620975
vt 0.0680237 0.0965191
vt 0.0935237 0.0965191
vt 0.1553279 0.0568475
vt 0.1553279 0.0620975
vt 0.0935237 0.0912691
vt 0.0935237 0.1110191
vt 0.1639523 0.0912691
vt 0.1553279 0.0568475
vt 0.1553279 0.0765975
vt 0.2257565 0.0568475
vt 0.0935237 0.0912691
vt 0.0935237 0.0965191
vt 0.1298279 0.1747928
vt 0.1553279 0.1747928
vt 0.0680237 0.2092144
vt 0.1639523 0.2092144
vt 0.1553279 0.0620975
vt 0.0935237 0.0965191
vt 0.1298279 0.1747928
vt 0.2257565 0.1747928
vt 0.0680237 0.2092144
vt 0.0935237 0.2092144
vt 0.1553279 0.0620975
vt 0.0935237 0.0965191
vt 0.1553279 0.1747928
vt 0.0935237 0.2092144
vt 0.1553279 0.1747928
vt 0.0935237 0.2092144
vt 0.1553279 0.0620975
vt 0.1553279 0.1800428
vt 0.0935237 0.1110191
vt 0.0935237 0.2144644
vt 0.1639523 0.2144644
vt 0.1553279 0.0765975
vt 0.1553279 0.1800428
vt 0.2257565 0.1800428
vt 0.0935237 0.0965191
vt 0.0935237 0.2144644
vt 0.7703812 0.1278522
vt 0.8500000 -0.0281250
vt 0.1500000 -0.0281250
vt 0.7703812 0.8721478
vt 0.7703812 0.1278522
vt 0.8500000 0.0281250
vt 0.1500000 0.0281250
vt 0.7703812 0.8721478
vt 0.8500000 -0.0187500
vt 0.1500000 -0.0187500
vt 0.8500000 0.0187500
vt 0.1500000 0.0187500
vt 0.1553279 0.0568475
vt 0.2257565 0.0568475
vt 0.2257565 0.0620975
vt 0.1639523 0.0912691
vt 0.1639523 0.1110191
vt 0.2257565 0.0568475
vt 0.2257565 0.0765975
vt 0.0935237 0.0912691
vt 0.1639523 0.0912691
vt 0.1639523 0.0965191
vt 0.2257565 0.0620975
vt 0.1639523 0.0965191
vt 0.2257565 0.0620975
vt 0.1639523 0.0965191
vt 0.2257565 0.1747928
vt 0.1639523 0.2092144
vt 0.1553279 0.0620975
vt 0.2512565 0.0620975
vt 0.1639523 0.0965191
vt 0.1894523 0.0965191
vt 0.2257565 0.1747928
vt 0.1639523 0.2092144
vt 0.2257565 0.0620975
vt 0.2512565 0.0620975
vt 0.0935237 0.0965191
vt 0.1894523 0.0965191
vt 0.1553279 0.1800428
vt 0.2257565 0.0620975
vt 0.2257565 0.1800428
vt 0.1639523 0.1110191
vt 0.1639523 0.2144644
vt 0.2257565 0.0765975
vt 0.2257565 0.1800428
vt 0.0935237 0.2144644
vt 0.1639523 0.0965191
vt 0.1639523 0.2144644
vt 0.8721478 0.2296188
vt 0.9000000 -0.0281250
vt 0.1000000 -0.0281250
vt 0.8721478 0.7703812
vt 0.8721478 0.2296188
vt 0.9000000 0.0281250
vt 0.1000000 0.0281250
vt 0.8721478 0.7703812
vt 0.1553279 0.1747928
vt 0.2512565 0.1747928
vt 0.1639523 0.2092144
vt 0.1894523 0.2092144
vt 0.2257565 0.1747928
vt 0.2512565 0.1747928
vt 0.0935237 0.2092144
vt 0.1894523 0.2092144
vt 0.9000000 -0.0187500
vt 0.1000000 -0.0187500
vt 0.9000000 0.0187500
vt 0.1000000 0.0187500
vt 0.9374860 0.3578522
vt 0.9500000 -0.0281250
vt 0.0500000 -0.0281250
vt 0.9374860 0.6421478
vt 0.9374860 0.3578522
vt 0.9500000 0.0281250
vt 0.0500000 0.0281250
vt 0.9374860 0.6421478
vt 0.0000000 -0.0281250
vt 0.9600000 0.5000000
vt 1.0000000 -0.0281250
vt 0.0000000 0.0281250
vt 0.9600000 0.5000000
vt 1.0000000 0.0281250
vt 0.9500000 -0.0187500
vt 0.0500000 -0.0187500
vt 0.9500000 0.0187500
vt 0.0500000 0.0187500
vt 0.0000000 -0.0187500
vt 1.0000000 -0.0187500
vt 0.0000000 0.0187500
vt 1.0000000 0.0187500
vn -0.8944272 -0.4472136 0.0000000
vn -0.8944272 0.4472136 0.0000000
vn -0.8506508 -0.4472136 -0.2763932
vn -0.8506508 -0.4472136 0.2763932
vn -0.8506508 0.4472136 -0.2763932
vn -0.8506508 0.4472136 0.2763932
vn -0.3162278 -0.9486833 0.0000000
vn -0.3162278 -0.9486833 0.0000000
vn -0.3162278 0.9486833 0.0000000
vn -0.3162278 0.9486833 0.0000000
vn -0.3007505 -0.9486833 -0.0977198
vn -0.3007505 -0.9486833 -0.0977198
vn -0.3007505 -0.9486833 0.0977198
vn -0.3007505 -0.9486833 0.0977198
vn -0.3007505 0.9486833 -0.0977198
vn -0.3007505 0.9486833 -0.0977198
vn -0.3007505 0.9486833 0.0977198
vn -0.3007505 0.9486833 0.0977198
vn -0.7236068 -0.4472136 -0.5257311
vn -0.7236068 -0.4472136 0.5257311
vn -0.7236068 0.4472136 -0.5257311
vn -0.7236068 0.4472136 0.5257311
vn -0.9670499 0.0099328 0.2543931
vn -0.9670499 0.0099328 0.2543931
vn -0.9887995 0.0050077 -0.1491660
vn -0.9887995 0.0050077 -0.1491660
vn -0.9881470 -0.0090240 -0.1532451
vn -0.9881470 -0.0090240 -0.1532451
vn -0.9659435 -0.0138598 0.2583815
vn -0.9659435 -0.0138598 0.2583815
vn -0.2558336 -0.9486833 -0.1858740
vn -0.2558336 -0.9486833 -0.1858740
vn -0.2558336 -0.9486833 0.1858740
vn -0.2558336 -0.9486833 0.1858740
vn -0.2558336 0.9486833 -0.1858740
vn -0.2558336 0.9486833 -0.1858740
vn -0.2558336 0.9486833 0.1858740
vn -0.2558336 0.9486833 0.1858740
vn -0.2705617 0.9453120 0.1821583
vn -0.2705617 0.9453120 0.1821583
vn -0.2705617 0.9453120 0.1821583
vn -0.2461143 0.9184661 -0.3095930
vn -0.2461143 0.9184661 -0.3095930
vn -0.2445954 0.8858025 -0.3943692
vn -0.2445954 0.8858025 -0.3943692
vn -0.2695860 0.9243285 0.2700744
vn -0.2695860 0.9243285 0.2700744
vn -0.2695860 0.9243285 0.2700744
vn -0.9645569 -0.0706473 0.2542419
vn -0.9645569 -0.0706473 0.2542419
vn -0.9215884 -0.0578496 -0.3838335
vn -0.9215884 -0.0578496 -0.3838335
vn -0.2596647 0.0547991 0.9641428
vn -0.3858225 0.0577188 -0.9207657
vn -0.9199387 -0.0933279 -0.3807922
vn -0.9199387 -0.0933279 -0.3807922
vn -0.9634673 -0.0940792 0.2507585
vn -0.9634673 -0.0940792 0.2507585
vn -0.3818427 -0.0278688 -0.9238071
vn -0.2554999 -0.0347674 0.9661838
vn -0.2564736 -0.0100551 0.9664989
vn -0.1550681 0.0128288 -0.9878205
vn -0.1508107 -0.0787291 -0.9854227
vn -0.2523115 -0.0995605 0.9625106
vn -0.1025720 -0.9489722 0.2982125
vn -0.1025720 -0.9489722 0.2982125
vn -0.1025720 -0.9489722 0.2982125
vn -0.2585140 -0.9034835 -0.3418889
vn -0.2585140 -0.9034835 -0.3418889
vn -0.2572200 -0.9313120 -0.2578677
vn -0.2572200 -0.9313120 -0.2578677
vn -0.1014766 -0.9725297 0.2094957
vn -0.1014766 -0.9725297 0.2094957
vn -0.1014766 -0.9725297 0.2094957
vn -0.5257311 -0.4472136 -0.7236068
vn -0.5257311 -0.4472136 0.7236068
vn -0.5257311 0.4472136 -0.7236068
vn -0.5257311 0.4472136 0.7236068
vn -0.1858740 -0.9486833 -0.2558336
vn -0.1858740 -0.9486833 -0.2558336
vn -0.1858740 -0.9486833 0.2558336
vn -0.1858740 -0.9486833 0.2558336
vn -0.1858740 0.9486833 -0.2558336
vn -0.1858740 0.9486833 -0.2558336
vn -0.1858740 0.9486833 0.2558336
vn -0.1858740 0.9486833 0.2558336
vn 0.2045844 0.9571157 0.2051213
vn 0.2045844 0.9571157 0.2051213
vn 0.2091793 0.9725405 -0.1020246
vn 0.2091793 0.9725405 -0.1020246
vn 0.2091793 0.9725405 -0.1020246
vn 0.2098109 0.9589562 -0.1907414
vn 0.2098109 0.9589562 -0.1907414
vn 0.2098109 0.9589562 -0.1907414
vn 0.2056570 0.9340501 0.2919856
vn 0.2056570 0.9340501 0.2919856
vn 0.2429335 0.1283631 0.9615125
vn 0.2486742 0.0940077 -0.9640144
vn 0.2528416 0.0043861 -0.9674977
vn 0.2470970 0.0388245 0.9682126
vn 0.2521576 0.0190963 0.9674977
vn 0.2496336 -0.0157266 -0.9682126
vn 0.9634673 0.0940792 0.2507585
vn 0.9634673 0.0940792 0.2507585
vn 0.9619551 0.0996315 -0.2543931
vn 0.9619551 0.0996315 -0.2543931
vn 0.2537972 -0.1052652 -0.9615125
vn 0.2563250 -0.0705252 0.9640144
vn 0.9630615 0.0758389 -0.2583815
vn 0.9630615 0.0758389 -0.2583815
vn 0.9645569 0.0706473 0.2542419
vn 0.9645569 0.0706473 0.2542419
vn 0.2914488 -0.9109347 0.2919856
vn 0.2914488 -0.9109347 0.2919856
vn 0.2978961 -0.9353479 -0.1907414
vn 0.2978961 -0.9353479 -0.1907414
vn 0.2978961 -0.9353479 -0.1907414
vn 0.2985277 -0.9489321 -0.1020246
vn 0.2985277 -0.9489321 -0.1020246
vn 0.2985277 -0.9489321 -0.1020246
vn 0.2925213 -0.9340003 0.2051213
vn 0.2925213 -0.9340003 0.2051213
vn 0.9676745 -0.0156547 0.2517160
vn 0.9676745 -0.0156547 0.2517160
vn 0.9656280 0.0348384 -0.2575829
vn 0.9656280 0.0348384 -0.2575829
vn 0.9667351 0.0110296 -0.2555419
vn 0.9667351 0.0110296 -0.2555419
vn 0.9687463 -0.0387029 0.2450158
vn 0.9687463 -0.0387029 0.2450158
vn -0.2763932 -0.4472136 -0.8506508
vn -0.2763932 -0.4472136 0.8506508
vn -0.2763932 0.4472136 -0.8506508
vn -0.2763932 0.4472136 0.8506508
vn -0.0977198 -0.9486833 -0.3007505
vn -0.0977198 -0.9486833 -0.3007505
vn -0.0977198 -0.9486833 0.3007505
vn -0.0977198 -0.9486833 0.3007505
vn -0.0977198 0.9486833 -0.3007505
vn -0.0977198 0.9486833 -0.3007505
vn -0.0977198 0.9486833 0.3007505
vn -0.0977198 0.9486833 0.3007505
vn -0.0000000 -0.9486833 -0.3162278
vn -0.0000000 -0.9486833 -0.3162278
vn 0.0000000 -1.0000000 0.0000000
vn 0.0000000 -0.9486833 0.3162278
vn 0.0000000 -0.9486833 0.3162278
vn -0.0000000 -0.4472136 -0.8944272
vn 0.0000000 -0.4472136 0.8944272
vn -0.0000000 0.4472136 -0.8944272
vn 0.0000000 0.4472136 0.8944272
vn -0.0000000 0.9486833 -0.3162278
vn -0.0000000 0.9486833 -0.3162278
vn 0.0000000 1.0000000 0.0000000
vn 0.0000000 0.9486833 0.3162278
vn 0.0000000 0.9486833 0.3162278
vn 0.0977198 -0.9486833 -0.3007505
vn 0.0977198 -0.9486833 -0.3007505
vn 0.0977198 -0.9486833 0.3007505
vn 0.0977198 -0.9486833 0.3007505
vn 0.0977198 0.9486833 -0.3007505
vn 0.0977198 0.9486833 -0.3007505
vn 0.0977198 0.9486833 0.3007505
vn 0.0977198 0.9486833 0.3007505
vn 0.2763932 -0.4472136 -0.8506508
vn 0.2763932 -0.4472136 0.8506508
vn 0.2763932 0.4472136 -0.8506508
vn 0.2763932 0.4472136 0.8506508
vn -0.9246298 -0.0075555 -0.3807922
vn -0.9246298 -0.0075555 -0.3807922
vn -0.9680403 -0.0042640 0.2507585
vn -0.9680403 -0.0042640 0.2507585
vn -0.9669507 0.0191678 0.2542419
vn -0.9669507 0.0191678 0.2542419
vn -0.9229800 0.0279229 -0.3838335
vn -0.9229800 0.0279229 -0.3838335
vn -0.3425352 -0.9034234 -0.2578677
vn -0.3425352 -0.9034234 -0.2578677
vn -0.1912888 -0.9589161 0.2094957
vn -0.1912888 -0.9589161 0.2094957
vn -0.1912888 -0.9589161 0.2094957
vn -0.1901934 -0.9353586 0.2982125
vn -0.1901934 -0.9353586 0.2982125
vn -0.1901934 -0.9353586 0.2982125
vn -0.3412412 -0.8755949 -0.3418889
vn -0.3412412 -0.8755949 -0.3418889
vn -0.9847204 0.0827143 -0.1532451
vn -0.9847204 0.0827143 -0.1532451
vn -0.9630615 0.0758389 0.2583815
vn -0.9630615 0.0758389 0.2583815
vn -0.1574659 -0.0643942 -0.9854227
vn -0.2604619 -0.0757166 0.9625106
vn -0.9619551 0.0996315 0.2543931
vn -0.9619551 0.0996315 0.2543931
vn -0.9840679 0.0967461 -0.1491660
vn -0.9840679 0.0967461 -0.1491660
vn -0.2562999 0.0137888 0.9664989
vn -0.1532085 0.0271636 -0.9878205
vn -0.3827812 0.0076862 -0.9238071
vn -0.2576237 -0.0109071 0.9661838
vn -0.2534589 0.0786594 0.9641428
vn -0.3788014 0.0932738 -0.9207657
vn -0.1613381 0.9046784 -0.3943692
vn -0.1613381 0.9046784 -0.3943692
vn -0.1826456 0.9453573 0.2700744
vn -0.1826456 0.9453573 0.2700744
vn -0.1826456 0.9453573 0.2700744
vn -0.1816699 0.9663407 0.1821583
vn -0.1816699 0.9663407 0.1821583
vn -0.1816699 0.9663407 0.1821583
vn -0.1598192 0.9373420 -0.3095930
vn -0.1598192 0.9373420 -0.3095930
vn 0.1858740 -0.9486833 -0.2558336
vn 0.1858740 -0.9486833 -0.2558336
vn 0.1858740 -0.9486833 0.2558336
vn 0.1858740 -0.9486833 0.2558336
vn 0.1858740 0.9486833 -0.2558336
vn 0.1858740 0.9486833 -0.2558336
vn 0.1858740 0.9486833 0.2558336
vn 0.1858740 0.9486833 0.2558336
vn 0.5257311 -0.4472136 -0.7236068
vn 0.5257311 -0.4472136 0.7236068
vn 0.5257311 0.4472136 -0.7236068
vn 0.5257311 0.4472136 0.7236068
vn 0.2091793 -0.9725405 -0.1020246
vn 0.2091793 -0.9725405 -0.1020246
vn 0.2091793 -0.9725405 -0.1020246
vn 0.2045844 -0.9571157 0.2051213
vn 0.2045844 -0.9571157 0.2051213
vn 0.2056570 -0.9340501 0.2919856
vn 0.2056570 -0.9340501 0.2919856
vn 0.2098109 -0.9589562 -0.1907414
vn 0.2098109 -0.9589562 -0.1907414
vn 0.2098109 -0.9589562 -0.1907414
vn 0.2429335 -0.1283631 -0.9615125
vn 0.2486742 -0.0940077 0.9640144
vn 0.2528416 -0.0043861 0.9674977
vn 0.2470970 -0.0388245 -0.9682126
vn 0.2521576 -0.0190963 -0.9674977
vn 0.2496336 0.0157266 0.9682126
vn 0.9635870 -0.0787304 -0.2555419
vn 0.9635870 -0.0787304 -0.2555419
vn 0.9609744 -0.1284350 0.2450158
vn 0.9609744 -0.1284350 0.2450158
vn 0.2537972 0.1052652 0.9615125
vn 0.2563250 0.0705252 -0.9640144
vn 0.9620461 -0.1053868 0.2517160
vn 0.9620461 -0.1053868 0.2517160
vn 0.9646941 -0.0549216 -0.2575829
vn 0.9646941 -0.0549216 -0.2575829
vn 0.2978961 0.9353479 -0.1907414
vn 0.2978961 0.9353479 -0.1907414
vn 0.2978961 0.9353479 -0.1907414
vn 0.2914488 0.9109347 0.2919856
vn 0.2914488 0.9109347 0.2919856
vn 0.2925213 0.9340003 0.2051213
vn 0.2925213 0.9340003 0.2051213
vn 0.2985277 0.9489321 -0.1020246
vn 0.2985277 0.9489321 -0.1020246
vn 0.2985277 0.9489321 -0.1020246
vn 0.2558336 -0.9486833 -0.1858740
vn 0.2558336 -0.9486833 -0.1858740
vn 0.2558336 -0.9486833 0.1858740
vn 0.2558336 -0.9486833 0.1858740
vn 0.2558336 0.9486833 -0.1858740
vn 0.2558336 0.9486833 -0.1858740
vn 0.2558336 0.9486833 0.1858740
vn 0.2558336 0.9486833 0.1858740
vn 0.9659435 -0.0138598 -0.2583815
vn 0.9659435 -0.0138598 -0.2583815
vn 0.9669507 -0.0191678 0.2542419
vn 0.9669507 -0.0191678 0.2542419
vn 0.9680403 0.0042640 0.2507585
vn 0.9680403 0.0042640 0.2507585
vn 0.9670499 0.0099328 -0.2543931
vn 0.9670499 0.0099328 -0.2543931
vn 0.7236068 -0.4472136 -0.5257311
vn 0.7236068 -0.4472136 0.5257311
vn 0.7236068 0.4472136 -0.5257311
vn 0.7236068 0.4472136 0.5257311
vn 0.3007505 -0.9486833 -0.0977198
vn 0.3007505 -0.9486833 -0.0977198
vn 0.3007505 -0.9486833 0.0977198
vn 0.3007505 -0.9486833 0.0977198
vn 0.3007505 0.9486833 -0.0977198
vn 0.3007505 0.9486833 -0.0977198
vn 0.3007505 0.9486833 0.0977198
vn 0.3007505 0.9486833 0.0977198
vn 0.3162278 -0.9486833 0.0000000
vn 0.3162278 -0.9486833 -0.0000000
vn 0.3162278 -0.9486833 -0.0000000
vn 0.3162278 0.9486833 0.0000000
vn 0.3162278 0.9486833 0.0000000
vn 0.3162278 0.9486833 -0.0000000
vn 0.8506508 -0.4472136 -0.2763932
vn 0.8506508 -0.4472136 0.2763932
vn 0.8506508 0.4472136 -0.2763932
vn 0.8506508 0.4472136 0.2763932
vn 0.8944272 -0.4472136 0.0000000
vn 0.8944272 -0.4472136 -0.0000000
vn 0.8944272 0.4472136 0.0000000
vn 0.8944272 0.4472136 -0.0000000
o 05_Taburete_Wood
usemtl Wood
s 1
f 145/145/145 290/290/290 284/284/284
f 145/145/145 284/284/284 264/264/264
f 145/145/145 264/264/264 216/216/216
f 145/145/145 216/216/216 160/160/160
f 145/145/145 160/160/160 147/147/147
f 145/145/145 147/147/147 138/138/138
f 145/145/145 138/138/138 81/81/81
f 145/145/145 81/81/81 33/33/33
f 145/145/145 33/33/33 13/13/13
f 145/145/145 13/13/13 7/7/7
f 145/145/145 7/7/7 11/11/11
f 145/145/145 11/11/11 31/31/31
f 145/145/145 31/31/31 79/79/79
f 145/145/145 79/79/79 135/135/135
f 145/145/145 135/135/135 143/143/143
f 145/145/145 143/143/143 157/157/157
f 145/145/145 157/157/157 213/213/213
f 145/145/145 213/213/213 261/261/261
f 145/145/145 261/261/261 281/281/281
f 145/145/145 281/281/281 290/290/290
f 289/289/289 296/296/296 283/283/283
f 289/289/289 299/299/299 296/296/296
f 283/283/283 278/278/278 263/263/263
f 283/283/283 296/296/296 278/278/278
f 263/263/263 222/222/222 215/215/215
f 263/263/263 278/278/278 222/222/222
f 215/215/215 166/166/166 159/159/159
f 215/215/215 222/222/222 166/166/166
f 159/159/159 149/149/149 146/146/146
f 159/159/159 166/166/166 149/149/149
f 146/146/146 132/132/132 137/137/137
f 146/146/146 149/149/149 132/132/132
f 137/137/137 76/76/76 82/82/82
f 137/137/137 132/132/132 76/76/76
f 82/82/82 20/20/20 34/34/34
f 82/82/82 76/76/76 20/20/20
f 34/34/34 4/4/4 14/14/14
f 34/34/34 20/20/20 4/4/4
f 14/14/14 1/1/1 8/8/8
f 14/14/14 4/4/4 1/1/1
f 8/8/8 3/3/3 12/12/12
f 8/8/8 1/1/1 3/3/3
f 12/12/12 19/19/19 32/32/32
f 12/12/12 3/3/3 19/19/19
f 32/32/32 75/75/75 80/80/80
f 32/32/32 19/19/19 75/75/75
f 80/80/80 131/131/131 136/136/136
f 80/80/80 75/75/75 131/131/131
f 136/136/136 148/148/148 144/144/144
f 136/136/136 131/131/131 148/148/148
f 144/144/144 165/165/165 158/158/158
f 144/144/144 148/148/148 165/165/165
f 158/158/158 221/221/221 214/214/214
f 158/158/158 165/165/165 221/221/221
f 214/214/214 277/277/277 262/262/262
f 214/214/214 221/221/221 277/277/277
f 262/262/262 295/295/295 282/282/282
f 262/262/262 277/277/277 295/295/295
f 282/282/282 300/300/300 291/291/291
f 282/282/282 295/295/295 300/300/300
f 299/299/299 298/298/298 296/296/296
f 299/299/299 301/301/301 298/298/298
f 296/296/296 280/280/280 278/278/278
f 296/296/296 298/298/298 280/280/280
f 278/278/278 224/224/224 222/222/222
f 278/278/278 280/280/280 224/224/224
f 222/222/222 168/168/168 166/166/166
f 222/222/222 224/224/224 168/168/168
f 166/166/166 151/151/151 149/149/149
f 166/166/166 168/168/168 151/151/151
f 149/149/149 134/134/134 132/132/132
f 149/149/149 151/151/151 134/134/134
f 132/132/132 78/78/78 76/76/76
f 132/132/132 134/134/134 78/78/78
f 76/76/76 22/22/22 20/20/20
f 76/76/76 78/78/78 22/22/22
f 20/20/20 6/6/6 4/4/4
f 20/20/20 22/22/22 6/6/6
f 4/4/4 2/2/2 1/1/1
f 4/4/4 6/6/6 2/2/2
f 1/1/1 5/5/5 3/3/3
f 1/1/1 2/2/2 5/5/5
f 3/3/3 21/21/21 19/19/19
f 3/3/3 5/5/5 21/21/21
f 19/19/19 77/77/77 75/75/75
f 19/19/19 21/21/21 77/77/77
f 75/75/75 133/133/133 131/131/131
f 75/75/75 77/77/77 133/133/133
f 131/131/131 150/150/150 148/148/148
f 131/131/131 133/133/133 150/150/150
f 148/148/148 167/167/167 165/165/165
f 148/148/148 150/150/150 167/167/167
f 165/165/165 223/223/223 221/221/221
f 165/165/165 167/167/167 223/223/223
f 221/221/221 279/279/279 277/277/277
f 221/221/221 223/223/223 279/279/279
f 277/277/277 297/297/297 295/295/295
f 277/277/277 279/279/279 297/297/297
f 295/295/295 302/302/302 300/300/300
f 295/295/295 297/297/297 302/302/302
f 301/301/301 287/287/287 298/298/298
f 301/301/301 292/292/292 287/287/287
f 298/298/298 267/267/267 280/280/280
f 298/298/298 287/287/287 267/267/267
f 280/280/280 219/219/219 224/224/224
f 280/280/280 267/267/267 219/219/219
f 224/224/224 163/163/163 168/168/168
f 224/224/224 219/219/219 163/163/163
f 168/168/168 155/155/155 151/151/151
f 168/168/168 163/163/163 155/155/155
f 151/151/151 141/141/141 134/134/134
f 151/151/151 155/155/155 141/141/141
f 134/134/134 86/86/86 78/78/78
f 134/134/134 141/141/141 86/86/86
f 78/78/78 38/38/38 22/22/22
f 78/78/78 86/86/86 38/38/38
f 22/22/22 18/18/18 6/6/6
f 22/22/22 38/38/38 18/18/18
f 6/6/6 10/10/10 2/2/2
f 6/6/6 18/18/18 10/10/10
f 2/2/2 16/16/16 5/5/5
f 2/2/2 10/10/10 16/16/16
f 5/5/5 36/36/36 21/21/21
f 5/5/5 16/16/16 36/36/36
f 21/21/21 84/84/84 77/77/77
f 21/21/21 36/36/36 84/84/84
f 77/77/77 140/140/140 133/133/133
f 77/77/77 84/84/84 140/140/140
f 133/133/133 153/153/153 150/150/150
f 133/133/133 140/140/140 153/153/153
f 150/150/150 162/162/162 167/167/167
f 150/150/150 153/153/153 162/162/162
f 167/167/167 218/218/218 223/223/223
f 167/167/167 162/162/162 218/218/218
f 223/223/223 266/266/266 279/279/279
f 223/223/223 218/218/218 266/266/266
f 279/279/279 286/286/286 297/297/297
f 279/279/279 266/266/266 286/286/286
f 297/297/297 294/294/294 302/302/302
f 297/297/297 286/286/286 294/294/294
f 293/293/293 154/154/154 288/288/288
f 288/288/288 154/154/154 268/268/268
f 268/268/268 154/154/154 220/220/220
f 220/220/220 154/154/154 164/164/164
f 164/164/164 154/154/154 156/156/156
f 156/156/156 154/154/154 142/142/142
f 142/142/142 154/154/154 85/85/85
f 85/85/85 154/154/154 37/37/37
f 37/37/37 154/154/154 17/17/17
f 17/17/17 154/154/154 9/9/9
f 9/9/9 154/154/154 15/15/15
f 15/15/15 154/154/154 35/35/35
f 35/35/35 154/154/154 83/83/83
f 83/83/83 154/154/154 139/139/139
f 139/139/139 154/154/154 152/152/152
f 152/152/152 154/154/154 161/161/161
f 161/161/161 154/154/154 217/217/217
f 217/217/217 154/154/154 265/265/265
f 265/265/265 154/154/154 285/285/285
f 285/285/285 154/154/154 293/293/293
f 63/63/63 70/70/70 55/55/55
f 124/124/124 101/101/101 113/113/113
f 49/49/49 65/65/65 61/61/61
f 104/104/104 88/88/88 97/97/97
f 40/40/40 23/23/23 53/53/53
f 107/107/107 128/128/128 119/119/119
f 59/59/59 27/27/27 45/45/45
f 99/99/99 94/94/94 110/110/110
f 66/66/66 71/71/71 120/120/120
f 66/66/66 120/120/120 114/114/114
f 101/101/101 97/97/97 53/53/53
f 101/101/101 53/53/53 61/61/61
f 101/101/101 65/65/65 113/113/113
f 101/101/101 61/61/61 65/65/65
f 123/123/123 113/113/113 118/118/118
f 123/123/123 118/118/118 127/127/127
f 49/49/49 61/61/61 53/53/53
f 49/49/49 53/53/53 23/23/23
f 50/50/50 28/28/28 56/56/56
f 50/50/50 24/24/24 28/28/28
f 50/50/50 70/70/70 67/67/67
f 50/50/50 56/56/56 70/70/70
f 103/103/103 92/92/92 88/88/88
f 103/103/103 109/109/109 92/92/92
f 104/104/104 97/97/97 101/101/101
f 104/104/104 101/101/101 124/124/124
f 103/103/103 123/123/123 127/127/127
f 103/103/103 127/127/127 109/109/109
f 41/41/41 28/28/28 24/24/24
f 41/41/41 45/45/45 28/28/28
f 40/40/40 53/53/53 97/97/97
f 40/40/40 97/97/97 88/88/88
f 39/39/39 87/87/87 93/93/93
f 39/39/39 93/93/93 44/44/44
f 107/107/107 119/119/119 70/70/70
f 107/107/107 70/70/70 63/63/63
f 59/59/59 55/55/55 27/27/27
f 59/59/59 63/63/63 55/55/55
f 99/99/99 45/45/45 94/94/94
f 99/99/99 59/59/59 45/45/45
f 99/99/99 110/110/110 128/128/128
f 99/99/99 128/128/128 107/107/107
f 99/99/99 107/107/107 63/63/63
f 99/99/99 63/63/63 59/59/59
f 62/62/62 68/68/68 51/51/51
f 130/130/130 108/108/108 121/121/121
f 57/57/57 72/72/72 64/64/64
f 112/112/112 96/96/96 100/100/100
f 47/47/47 29/29/29 60/60/60
f 102/102/102 126/126/126 116/116/116
f 54/54/54 25/25/25 43/43/43
f 98/98/98 91/91/91 106/106/106
f 73/73/73 69/69/69 117/117/117
f 73/73/73 117/117/117 122/122/122
f 108/108/108 100/100/100 60/60/60
f 108/108/108 60/60/60 64/64/64
f 108/108/108 72/72/72 121/121/121
f 108/108/108 64/64/64 72/72/72
f 129/129/129 121/121/121 115/115/115
f 129/129/129 115/115/115 125/125/125
f 57/57/57 64/64/64 60/60/60
f 57/57/57 60/60/60 29/29/29
f 58/58/58 26/26/26 52/52/52
f 58/58/58 30/30/30 26/26/26
f 58/58/58 68/68/68 74/74/74
f 58/58/58 52/52/52 68/68/68
f 111/111/111 89/89/89 96/96/96
f 111/111/111 105/105/105 89/89/89
f 112/112/112 100/100/100 108/108/108
f 112/112/112 108/108/108 130/130/130
f 111/111/111 129/129/129 125/125/125
f 111/111/111 125/125/125 105/105/105
f 48/48/48 26/26/26 30/30/30
f 48/48/48 43/43/43 26/26/26
f 47/47/47 60/60/60 100/100/100
f 47/47/47 100/100/100 96/96/96
f 46/46/46 95/95/95 90/90/90
f 46/46/46 90/90/90 42/42/42
f 102/102/102 116/116/116 68/68/68
f 102/102/102 68/68/68 62/62/62
f 54/54/54 51/51/51 25/25/25
f 54/54/54 62/62/62 51/51/51
f 98/98/98 43/43/43 91/91/91
f 98/98/98 54/54/54 43/43/43
f 98/98/98 106/106/106 126/126/126
f 98/98/98 126/126/126 102/102/102
f 98/98/98 102/102/102 62/62/62
f 98/98/98 62/62/62 54/54/54
f 191/191/191 177/177/177 169/169/169
f 248/248/248 237/237/237 230/230/230
f 173/173/173 182/182/182 197/197/197
f 274/274/274 257/257/257 245/245/245
f 209/209/209 193/193/193 201/201/201
f 235/235/235 242/242/242 226/226/226
f 199/199/199 187/187/187 204/204/204
f 239/239/239 253/253/253 270/270/270
f 183/183/183 178/178/178 227/227/227
f 183/183/183 227/227/227 231/231/231
f 237/237/237 245/245/245 201/201/201
f 237/237/237 201/201/201 197/197/197
f 237/237/237 182/182/182 230/230/230
f 237/237/237 197/197/197 182/182/182
f 247/247/247 230/230/230 225/225/225
f 247/247/247 225/225/225 241/241/241
f 173/173/173 197/197/197 201/201/201
f 173/173/173 201/201/201 193/193/193
f 174/174/174 188/188/188 170/170/170
f 174/174/174 194/194/194 188/188/188
f 174/174/174 177/177/177 184/184/184
f 174/174/174 170/170/170 177/177/177
f 273/273/273 251/251/251 257/257/257
f 273/273/273 269/269/269 251/251/251
f 274/274/274 245/245/245 237/237/237
f 274/274/274 237/237/237 248/248/248
f 273/273/273 247/247/247 241/241/241
f 273/273/273 241/241/241 269/269/269
f 210/210/210 188/188/188 194/194/194
f 210/210/210 204/204/204 188/188/188
f 209/209/209 201/201/201 245/245/245
f 209/209/209 245/245/245 257/257/257
f 208/208/208 256/256/256 252/252/252
f 208/208/208 252/252/252 203/203/203
f 235/235/235 226/226/226 177/177/177
f 235/235/235 177/177/177 191/191/191
f 199/199/199 169/169/169 187/187/187
f 199/199/199 191/191/191 169/169/169
f 239/239/239 204/204/204 253/253/253
f 239/239/239 199/199/199 204/204/204
f 239/239/239 270/270/270 242/242/242
f 239/239/239 242/242/242 235/235/235
f 239/239/239 235/235/235 191/191/191
f 239/239/239 191/191/191 199/199/199
f 198/198/198 185/185/185 175/175/175
f 244/244/244 236/236/236 228/228/228
f 171/171/171 179/179/179 192/192/192
f 272/272/272 255/255/255 240/240/240
f 206/206/206 189/189/189 200/200/200
f 238/238/238 250/250/250 233/233/233
f 202/202/202 195/195/195 212/212/212
f 246/246/246 260/260/260 276/276/276
f 180/180/180 186/186/186 234/234/234
f 180/180/180 234/234/234 229/229/229
f 236/236/236 240/240/240 200/200/200
f 236/236/236 200/200/200 192/192/192
f 236/236/236 179/179/179 228/228/228
f 236/236/236 192/192/192 179/179/179
f 243/243/243 228/228/228 232/232/232
f 243/243/243 232/232/232 249/249/249
f 171/171/171 192/192/192 200/200/200
f 171/171/171 200/200/200 189/189/189
f 172/172/172 196/196/196 176/176/176
f 172/172/172 190/190/190 196/196/196
f 172/172/172 185/185/185 181/181/181
f 172/172/172 176/176/176 185/185/185
f 271/271/271 258/258/258 255/255/255
f 271/271/271 275/275/275 258/258/258
f 272/272/272 240/240/240 236/236/236
f 272/272/272 236/236/236 244/244/244
f 271/271/271 243/243/243 249/249/249
f 271/271/271 249/249/249 275/275/275
f 207/207/207 196/196/196 190/190/190
f 207/207/207 212/212/212 196/196/196
f 206/206/206 200/200/200 240/240/240
f 206/206/206 240/240/240 255/255/255
f 205/205/205 254/254/254 259/259/259
f 205/205/205 259/259/259 211/211/211
f 238/238/238 233/233/233 185/185/185
f 238/238/238 185/185/185 198/198/198
f 202/202/202 175/175/175 195/195/195
f 202/202/202 198/198/198 175/175/175
f 246/246/246 212/212/212 260/260/260
f 246/246/246 202/202/202 212/212/212
f 246/246/246 276/276/276 250/250/250
f 246/246/246 250/250/250 238/238/238
f 246/246/246 238/238/238 198/198/198
f 246/246/246 198/198/198 202/202/202
