# metres; Y up; ground-centred pivot
mtllib 06_Silla.mtl
v -0.2500000 0.4127061 -0.2347735
v -0.2500000 0.4127061 -0.1570735
v -0.2500000 0.4127061 -0.1214402
v -0.2500000 0.4127061 -0.0437402
v -0.2500000 0.4127061 -0.0081069
v -0.2500000 0.4127061 0.0695931
v -0.2500000 0.4127061 0.1052265
v -0.2500000 0.4127061 0.1829265
v -0.2500000 0.4504061 -0.2347735
v -0.2500000 0.4504061 -0.1570735
v -0.2500000 0.4504061 -0.1214402
v -0.2500000 0.4504061 -0.0437402
v -0.2500000 0.4504061 -0.0081069
v -0.2500000 0.4504061 0.0695931
v -0.2500000 0.4504061 0.1052265
v -0.2500000 0.4504061 0.1829265
v -0.2500000 0.6491561 0.1666765
v -0.2500000 0.6491561 0.2014765
v -0.2500000 0.7339561 0.1666765
v -0.2500000 0.7339561 0.2014765
v -0.2500000 0.8291561 0.1666765
v -0.2500000 0.8291561 0.2014765
v -0.2500000 0.9139561 0.1666765
v -0.2500000 0.9139561 0.2014765
v -0.2374000 0.6365561 0.1666765
v -0.2374000 0.6365561 0.1666765
v -0.2374000 0.6365561 0.2014765
v -0.2374000 0.6365561 0.2014765
v -0.2374000 0.6491561 0.1540765
v -0.2374000 0.6491561 0.1540765
v -0.2374000 0.6491561 0.2140765
v -0.2374000 0.6491561 0.2140765
v -0.2374000 0.7339561 0.1540765
v -0.2374000 0.7339561 0.1540765
v -0.2374000 0.7339561 0.1540765
v -0.2374000 0.7339561 0.2140765
v -0.2374000 0.7339561 0.2140765
v -0.2374000 0.7339561 0.2140765
v -0.2374000 0.7465561 0.1666765
v -0.2374000 0.7465561 0.1666765
v -0.2374000 0.7465561 0.2014765
v -0.2374000 0.7465561 0.2014765
v -0.2374000 0.8165561 0.1666765
v -0.2374000 0.8165561 0.1666765
v -0.2374000 0.8165561 0.2014765
v -0.2374000 0.8165561 0.2014765
v -0.2374000 0.8291561 0.1540765
v -0.2374000 0.8291561 0.1540765
v -0.2374000 0.8291561 0.2140765
v -0.2374000 0.8291561 0.2140765
v -0.2374000 0.9139561 0.1540765
v -0.2374000 0.9139561 0.1540765
v -0.2374000 0.9139561 0.1540765
v -0.2374000 0.9139561 0.2140765
v -0.2374000 0.9139561 0.2140765
v -0.2374000 0.9139561 0.2140765
v -0.2374000 0.9265561 0.1666765
v -0.2374000 0.9265561 0.1666765
v -0.2374000 0.9265561 0.2014765
v -0.2374000 0.9265561 0.2014765
v -0.2363500 0.3990561 -0.2347735
v -0.2363500 0.3990561 -0.2347735
v -0.2363500 0.3990561 -0.1570735
v -0.2363500 0.3990561 -0.1570735
v -0.2363500 0.3990561 -0.1214402
v -0.2363500 0.3990561 -0.1214402
v -0.2363500 0.3990561 -0.0437402
v -0.2363500 0.3990561 -0.0437402
v -0.2363500 0.3990561 -0.0081069
v -0.2363500 0.3990561 -0.0081069
v -0.2363500 0.3990561 0.0695931
v -0.2363500 0.3990561 0.0695931
v -0.2363500 0.3990561 0.1052265
v -0.2363500 0.3990561 0.1052265
v -0.2363500 0.3990561 0.1829265
v -0.2363500 0.3990561 0.1829265
v -0.2363500 0.4127061 -0.2484235
v -0.2363500 0.4127061 -0.2484235
v -0.2363500 0.4127061 -0.2484235
v -0.2363500 0.4127061 -0.1434235
v -0.2363500 0.4127061 -0.1434235
v -0.2363500 0.4127061 -0.1434235
v -0.2363500 0.4127061 -0.1350902
v -0.2363500 0.4127061 -0.1350902
v -0.2363500 0.4127061 -0.1350902
v -0.2363500 0.4127061 -0.0300902
v -0.2363500 0.4127061 -0.0300902
v -0.2363500 0.4127061 -0.0300902
v -0.2363500 0.4127061 -0.0217569
v -0.2363500 0.4127061 -0.0217569
v -0.2363500 0.4127061 -0.0217569
v -0.2363500 0.4127061 0.0832431
v -0.2363500 0.4127061 0.0832431
v -0.2363500 0.4127061 0.0832431
v -0.2363500 0.4127061 0.0915765
v -0.2363500 0.4127061 0.0915765
v -0.2363500 0.4127061 0.0915765
v -0.2363500 0.4127061 0.1965765
v -0.2363500 0.4127061 0.1965765
v -0.2363500 0.4127061 0.1965765
v -0.2363500 0.4504061 -0.2484235
v -0.2363500 0.4504061 -0.2484235
v -0.2363500 0.4504061 -0.2484235
v -0.2363500 0.4504061 -0.1434235
v -0.2363500 0.4504061 -0.1434235
v -0.2363500 0.4504061 -0.1434235
v -0.2363500 0.4504061 -0.1350902
v -0.2363500 0.4504061 -0.1350902
v -0.2363500 0.4504061 -0.1350902
v -0.2363500 0.4504061 -0.0300902
v -0.2363500 0.4504061 -0.0300902
v -0.2363500 0.4504061 -0.0300902
v -0.2363500 0.4504061 -0.0217569
v -0.2363500 0.4504061 -0.0217569
v -0.2363500 0.4504061 -0.0217569
v -0.2363500 0.4504061 0.0832431
v -0.2363500 0.4504061 0.0832431
v -0.2363500 0.4504061 0.0832431
v -0.2363500 0.4504061 0.0915765
v -0.2363500 0.4504061 0.0915765
v -0.2363500 0.4504061 0.0915765
v -0.2363500 0.4504061 0.1965765
v -0.2363500 0.4504061 0.1965765
v -0.2363500 0.4504061 0.1965765
v -0.2363500 0.4640561 -0.2347735
v -0.2363500 0.4640561 -0.2347735
v -0.2363500 0.4640561 -0.1570735
v -0.2363500 0.4640561 -0.1570735
v -0.2363500 0.4640561 -0.1214402
v -0.2363500 0.4640561 -0.1214402
v -0.2363500 0.4640561 -0.0437402
v -0.2363500 0.4640561 -0.0437402
v -0.2363500 0.4640561 -0.0081069
v -0.2363500 0.4640561 -0.0081069
v -0.2363500 0.4640561 0.0695931
v -0.2363500 0.4640561 0.0695931
v -0.2363500 0.4640561 0.1052265
v -0.2363500 0.4640561 0.1052265
v -0.2363500 0.4640561 0.1829265
v -0.2363500 0.4640561 0.1829265
v -0.2270123 0.4015903 -0.1658667
v -0.2270123 0.4015903 -0.1658667
v -0.2270123 0.4015903 0.1140197
v -0.2270123 0.4015903 0.1140197
v -0.2268774 0.3991604 -0.2151066
v -0.2268774 0.3991604 -0.2151066
v -0.2268774 0.3991604 0.1632596
v -0.2268774 0.3991604 0.1632596
v -0.2200000 0.3725362 0.1667427
v -0.2200000 0.3725362 0.1667427
v -0.2200000 0.3725362 0.1667427
v -0.2200000 0.3777276 0.1222446
v -0.2200000 0.3777276 0.1222446
v -0.2200000 0.9653847 0.2359084
v -0.2200000 0.9653847 0.2359084
v -0.2200000 0.9653847 0.2359084
v -0.2200000 0.9705761 0.1914102
v -0.2200000 0.9705761 0.1914102
v -0.2200000 0.9705761 0.1914102
v -0.2101777 0.4203803 -0.1667478
v -0.2101777 0.4203803 -0.1667478
v -0.2101777 0.4203803 -0.1667478
v -0.2101777 0.4203803 0.1149008
v -0.2101777 0.4203803 0.1149008
v -0.2100428 0.4179504 -0.2159877
v -0.2100428 0.4179504 -0.2159877
v -0.2100428 0.4179504 0.1641407
v -0.2100428 0.4179504 0.1641407
v -0.2100428 0.4179504 0.1641407
v -0.2092386 0.4034593 -0.1480385
v -0.2092386 0.4034593 0.0961914
v -0.2090060 0.3992698 -0.2329348
v -0.2090060 0.3992698 0.1810878
v -0.2074000 0.3600210 0.1652826
v -0.2074000 0.3652125 0.1207845
v -0.2074000 0.3710761 0.1792579
v -0.2074000 0.3710761 0.1792579
v -0.2074000 0.3791877 0.1097294
v -0.2074000 0.3791877 0.1097294
v -0.2074000 0.9639246 0.2484235
v -0.2074000 0.9639246 0.2484235
v -0.2074000 0.9720362 0.1788951
v -0.2074000 0.9720362 0.1788951
v -0.2074000 0.9778998 0.2373685
v -0.2074000 0.9830912 0.1928703
v -0.2057919 0.0192416 -0.1469404
v -0.2057919 0.0192416 -0.1469404
v -0.2057919 0.0192416 0.0950934
v -0.2057919 0.0192416 0.0950934
v -0.2056571 0.0168117 -0.1961803
v -0.2056571 0.0168117 -0.1961803
v -0.2056571 0.0168117 0.1443333
v -0.2056571 0.0168117 0.1443333
v -0.1880182 0.0211105 -0.1291122
v -0.1880182 0.0211105 0.0772652
v -0.1877857 0.0169211 -0.2140086
v -0.1877857 0.0169211 0.1621615
v -0.1869814 0.0024299 -0.1460593
v -0.1869814 0.0024299 -0.1460593
v -0.1869814 0.0024299 -0.1460593
v -0.1869814 0.0024299 0.0942123
v -0.1869814 0.0024299 0.0942123
v -0.1868466 0.0000000 -0.1952992
v -0.1868466 0.0000000 -0.1952992
v -0.1868466 0.0000000 0.1434522
v -0.1868466 0.0000000 0.1434522
v -0.1868466 0.0000000 0.1434522
v -0.1726000 0.3600210 0.1652826
v -0.1726000 0.3652125 0.1207845
v -0.1726000 0.3710761 0.1792579
v -0.1726000 0.3710761 0.1792579
v -0.1726000 0.3791877 0.1097294
v -0.1726000 0.3791877 0.1097294
v -0.1726000 0.9639246 0.2484235
v -0.1726000 0.9639246 0.2484235
v -0.1726000 0.9720362 0.1788951
v -0.1726000 0.9720362 0.1788951
v -0.1726000 0.9778998 0.2373685
v -0.1726000 0.9830912 0.1928703
v -0.1609534 0.4231123 -0.1667478
v -0.1609534 0.4231123 -0.1667478
v -0.1609534 0.4231123 0.1149008
v -0.1609534 0.4231123 0.1149008
v -0.1609534 0.4231123 0.1149008
v -0.1608186 0.4206824 -0.2159877
v -0.1608186 0.4206824 -0.2159877
v -0.1608186 0.4206824 -0.2159877
v -0.1608186 0.4206824 0.1641407
v -0.1608186 0.4206824 0.1641407
v -0.1600143 0.4061912 -0.1480385
v -0.1600143 0.4061912 0.0961914
v -0.1600000 0.3725362 0.1667427
v -0.1600000 0.3725362 0.1667427
v -0.1600000 0.3725362 0.1667427
v -0.1600000 0.3777276 0.1222446
v -0.1600000 0.3777276 0.1222446
v -0.1600000 0.9653847 0.2359084
v -0.1600000 0.9653847 0.2359084
v -0.1600000 0.9653847 0.2359084
v -0.1600000 0.9705761 0.1914102
v -0.1600000 0.9705761 0.1914102
v -0.1600000 0.9705761 0.1914102
v -0.1597818 0.4020017 -0.2329348
v -0.1597818 0.4020017 0.1810878
v -0.1421429 0.4063006 -0.1658667
v -0.1421429 0.4063006 -0.1658667
v -0.1421429 0.4063006 0.1140197
v -0.1421429 0.4063006 0.1140197
v -0.1420081 0.4038707 -0.2151066
v -0.1420081 0.4038707 -0.2151066
v -0.1420081 0.4038707 0.1632596
v -0.1420081 0.4038707 0.1632596
v -0.1387940 0.0238425 -0.1291122
v -0.1387940 0.0238425 0.0772652
v -0.1385614 0.0196530 -0.2140086
v -0.1385614 0.0196530 0.1621615
v -0.1377572 0.0051618 -0.1460593
v -0.1377572 0.0051618 -0.1460593
v -0.1377572 0.0051618 0.0942123
v -0.1377572 0.0051618 0.0942123
v -0.1377572 0.0051618 0.0942123
v -0.1376223 0.0027319 -0.1952992
v -0.1376223 0.0027319 -0.1952992
v -0.1376223 0.0027319 -0.1952992
v -0.1376223 0.0027319 0.1434522
v -0.1376223 0.0027319 0.1434522
v -0.1209226 0.0239518 -0.1469404
v -0.1209226 0.0239518 -0.1469404
v -0.1209226 0.0239518 0.0950934
v -0.1209226 0.0239518 0.0950934
v -0.1207877 0.0215219 -0.1961803
v -0.1207877 0.0215219 -0.1961803
v -0.1207877 0.0215219 0.1443333
v -0.1207877 0.0215219 0.1443333
v 0.1207877 0.0215219 -0.1961803
v 0.1207877 0.0215219 -0.1961803
v 0.1207877 0.0215219 0.1443333
v 0.1207877 0.0215219 0.1443333
v 0.1209226 0.0239518 -0.1469404
v 0.1209226 0.0239518 -0.1469404
v 0.1209226 0.0239518 0.0950934
v 0.1209226 0.0239518 0.0950934
v 0.1376223 0.0027319 -0.1952992
v 0.1376223 0.0027319 -0.1952992
v 0.1376223 0.0027319 0.1434522
v 0.1376223 0.0027319 0.1434522
v 0.1376223 0.0027319 0.1434522
v 0.1377572 0.0051618 -0.1460593
v 0.1377572 0.0051618 -0.1460593
v 0.1377572 0.0051618 -0.1460593
v 0.1377572 0.0051618 0.0942123
v 0.1377572 0.0051618 0.0942123
v 0.1385614 0.0196530 -0.2140086
v 0.1385614 0.0196530 0.1621615
v 0.1387940 0.0238425 -0.1291122
v 0.1387940 0.0238425 0.0772652
v 0.1420081 0.4038707 -0.2151066
v 0.1420081 0.4038707 -0.2151066
v 0.1420081 0.4038707 0.1632596
v 0.1420081 0.4038707 0.1632596
v 0.1421429 0.4063006 -0.1658667
v 0.1421429 0.4063006 -0.1658667
v 0.1421429 0.4063006 0.1140197
v 0.1421429 0.4063006 0.1140197
v 0.1597818 0.4020017 -0.2329348
v 0.1597818 0.4020017 0.1810878
v 0.1600000 0.3725362 0.1667427
v 0.1600000 0.3725362 0.1667427
v 0.1600000 0.3725362 0.1667427
v 0.1600000 0.3777276 0.1222446
v 0.1600000 0.3777276 0.1222446
v 0.1600000 0.9653847 0.2359084
v 0.1600000 0.9653847 0.2359084
v 0.1600000 0.9653847 0.2359084
v 0.1600000 0.9705761 0.1914102
v 0.1600000 0.9705761 0.1914102
v 0.1600000 0.9705761 0.1914102
v 0.1600143 0.4061912 -0.1480385
v 0.1600143 0.4061912 0.0961914
v 0.1608186 0.4206824 -0.2159877
v 0.1608186 0.4206824 -0.2159877
v 0.1608186 0.4206824 0.1641407
v 0.1608186 0.4206824 0.1641407
v 0.1608186 0.4206824 0.1641407
v 0.1609534 0.4231123 -0.1667478
v 0.1609534 0.4231123 -0.1667478
v 0.1609534 0.4231123 -0.1667478
v 0.1609534 0.4231123 0.1149008
v 0.1609534 0.4231123 0.1149008
v 0.1726000 0.3600210 0.1652826
v 0.1726000 0.3652125 0.1207845
v 0.1726000 0.3710761 0.1792579
v 0.1726000 0.3710761 0.1792579
v 0.1726000 0.3791877 0.1097294
v 0.1726000 0.3791877 0.1097294
v 0.1726000 0.9639246 0.2484235
v 0.1726000 0.9639246 0.2484235
v 0.1726000 0.9720362 0.1788951
v 0.1726000 0.9720362 0.1788951
v 0.1726000 0.9778998 0.2373685
v 0.1726000 0.9830912 0.1928703
v 0.1868466 0.0000000 -0.1952992
v 0.1868466 0.0000000 -0.1952992
v 0.1868466 0.0000000 -0.1952992
v 0.1868466 0.0000000 0.1434522
v 0.1868466 0.0000000 0.1434522
v 0.1869814 0.0024299 -0.1460593
v 0.1869814 0.0024299 -0.1460593
v 0.1869814 0.0024299 0.0942123
v 0.1869814 0.0024299 0.0942123
v 0.1869814 0.0024299 0.0942123
v 0.1877857 0.0169211 -0.2140086
v 0.1877857 0.0169211 0.1621615
v 0.1880182 0.0211105 -0.1291122
v 0.1880182 0.0211105 0.0772652
v 0.2056571 0.0168117 -0.1961803
v 0.2056571 0.0168117 -0.1961803
v 0.2056571 0.0168117 0.1443333
v 0.2056571 0.0168117 0.1443333
v 0.2057919 0.0192416 -0.1469404
v 0.2057919 0.0192416 -0.1469404
v 0.2057919 0.0192416 0.0950934
v 0.2057919 0.0192416 0.0950934
v 0.2074000 0.3600210 0.1652826
v 0.2074000 0.3652125 0.1207845
v 0.2074000 0.3710761 0.1792579
v 0.2074000 0.3710761 0.1792579
v 0.2074000 0.3791877 0.1097294
v 0.2074000 0.3791877 0.1097294
v 0.2074000 0.9639246 0.2484235
v 0.2074000 0.9639246 0.2484235
v 0.2074000 0.9720362 0.1788951
v 0.2074000 0.9720362 0.1788951
v 0.2074000 0.9778998 0.2373685
v 0.2074000 0.9830912 0.1928703
v 0.2090060 0.3992698 -0.2329348
v 0.2090060 0.3992698 0.1810878
v 0.2092386 0.4034593 -0.1480385
v 0.2092386 0.4034593 0.0961914
v 0.2100428 0.4179504 -0.2159877
v 0.2100428 0.4179504 -0.2159877
v 0.2100428 0.4179504 -0.2159877
v 0.2100428 0.4179504 0.1641407
v 0.2100428 0.4179504 0.1641407
v 0.2101777 0.4203803 -0.1667478
v 0.2101777 0.4203803 -0.1667478
v 0.2101777 0.4203803 0.1149008
v 0.2101777 0.4203803 0.1149008
v 0.2101777 0.4203803 0.1149008
v 0.2200000 0.3725362 0.1667427
v 0.2200000 0.3725362 0.1667427
v 0.2200000 0.3725362 0.1667427
v 0.2200000 0.3777276 0.1222446
v 0.2200000 0.3777276 0.1222446
v 0.2200000 0.9653847 0.2359084
v 0.2200000 0.9653847 0.2359084
v 0.2200000 0.9653847 0.2359084
v 0.2200000 0.9705761 0.1914102
v 0.2200000 0.9705761 0.1914102
v 0.2200000 0.9705761 0.1914102
v 0.2268774 0.3991604 -0.2151066
v 0.2268774 0.3991604 -0.2151066
v 0.2268774 0.3991604 0.1632596
v 0.2268774 0.3991604 0.1632596
v 0.2270123 0.4015903 -0.1658667
v 0.2270123 0.4015903 -0.1658667
v 0.2270123 0.4015903 0.1140197
v 0.2270123 0.4015903 0.1140197
v 0.2363500 0.3990561 -0.2347735
v 0.2363500 0.3990561 -0.2347735
v 0.2363500 0.3990561 -0.1570735
v 0.2363500 0.3990561 -0.1570735
v 0.2363500 0.3990561 -0.1214402
v 0.2363500 0.3990561 -0.1214402
v 0.2363500 0.3990561 -0.0437402
v 0.2363500 0.3990561 -0.0437402
v 0.2363500 0.3990561 -0.0081069
v 0.2363500 0.3990561 -0.0081069
v 0.2363500 0.3990561 0.0695931
v 0.2363500 0.3990561 0.0695931
v 0.2363500 0.3990561 0.1052265
v 0.2363500 0.3990561 0.1052265
v 0.2363500 0.3990561 0.1829265
v 0.2363500 0.3990561 0.1829265
v 0.2363500 0.4127061 -0.2484235
v 0.2363500 0.4127061 -0.2484235
v 0.2363500 0.4127061 -0.2484235
v 0.2363500 0.4127061 -0.1434235
v 0.2363500 0.4127061 -0.1434235
v 0.2363500 0.4127061 -0.1434235
v 0.2363500 0.4127061 -0.1350902
v 0.2363500 0.4127061 -0.1350902
v 0.2363500 0.4127061 -0.1350902
v 0.2363500 0.4127061 -0.0300902
v 0.2363500 0.4127061 -0.0300902
v 0.2363500 0.4127061 -0.0300902
v 0.2363500 0.4127061 -0.0217569
v 0.2363500 0.4127061 -0.0217569
v 0.2363500 0.4127061 -0.0217569
v 0.2363500 0.4127061 0.0832431
v 0.2363500 0.4127061 0.0832431
v 0.2363500 0.4127061 0.0832431
v 0.2363500 0.4127061 0.0915765
v 0.2363500 0.4127061 0.0915765
v 0.2363500 0.4127061 0.0915765
v 0.2363500 0.4127061 0.1965765
v 0.2363500 0.4127061 0.1965765
v 0.2363500 0.4127061 0.1965765
v 0.2363500 0.4504061 -0.2484235
v 0.2363500 0.4504061 -0.2484235
v 0.2363500 0.4504061 -0.2484235
v 0.2363500 0.4504061 -0.1434235
v 0.2363500 0.4504061 -0.1434235
v 0.2363500 0.4504061 -0.1434235
v 0.2363500 0.4504061 -0.1350902
v 0.2363500 0.4504061 -0.1350902
v 0.2363500 0.4504061 -0.1350902
v 0.2363500 0.4504061 -0.0300902
v 0.2363500 0.4504061 -0.0300902
v 0.2363500 0.4504061 -0.0300902
v 0.2363500 0.4504061 -0.0217569
v 0.2363500 0.4504061 -0.0217569
v 0.2363500 0.4504061 -0.0217569
v 0.2363500 0.4504061 0.0832431
v 0.2363500 0.4504061 0.0832431
v 0.2363500 0.4504061 0.0832431
v 0.2363500 0.4504061 0.0915765
v 0.2363500 0.4504061 0.0915765
v 0.2363500 0.4504061 0.0915765
v 0.2363500 0.4504061 0.1965765
v 0.2363500 0.4504061 0.1965765
v 0.2363500 0.4504061 0.1965765
v 0.2363500 0.4640561 -0.2347735
v 0.2363500 0.4640561 -0.2347735
v 0.2363500 0.4640561 -0.1570735
v 0.2363500 0.4640561 -0.1570735
v 0.2363500 0.4640561 -0.1214402
v 0.2363500 0.4640561 -0.1214402
v 0.2363500 0.4640561 -0.0437402
v 0.2363500 0.4640561 -0.0437402
v 0.2363500 0.4640561 -0.0081069
v 0.2363500 0.4640561 -0.0081069
v 0.2363500 0.4640561 0.0695931
v 0.2363500 0.4640561 0.0695931
v 0.2363500 0.4640561 0.1052265
v 0.2363500 0.4640561 0.1052265
v 0.2363500 0.4640561 0.1829265
v 0.2363500 0.4640561 0.1829265
v 0.2374000 0.6365561 0.1666765
v 0.2374000 0.6365561 0.1666765
v 0.2374000 0.6365561 0.2014765
v 0.2374000 0.6365561 0.2014765
v 0.2374000 0.6491561 0.1540765
v 0.2374000 0.6491561 0.1540765
v 0.2374000 0.6491561 0.1540765
v 0.2374000 0.6491561 0.2140765
v 0.2374000 0.6491561 0.2140765
v 0.2374000 0.6491561 0.2140765
v 0.2374000 0.7339561 0.1540765
v 0.2374000 0.7339561 0.1540765
v 0.2374000 0.7339561 0.1540765
v 0.2374000 0.7339561 0.2140765
v 0.2374000 0.7339561 0.2140765
v 0.2374000 0.7339561 0.2140765
v 0.2374000 0.7465561 0.1666765
v 0.2374000 0.7465561 0.1666765
v 0.2374000 0.7465561 0.2014765
v 0.2374000 0.7465561 0.2014765
v 0.2374000 0.8165561 0.1666765
v 0.2374000 0.8165561 0.1666765
v 0.2374000 0.8165561 0.2014765
v 0.2374000 0.8165561 0.2014765
v 0.2374000 0.8291561 0.1540765
v 0.2374000 0.8291561 0.1540765
v 0.2374000 0.8291561 0.1540765
v 0.2374000 0.8291561 0.2140765
v 0.2374000 0.8291561 0.2140765
v 0.2374000 0.8291561 0.2140765
v 0.2374000 0.9139561 0.1540765
v 0.2374000 0.9139561 0.1540765
v 0.2374000 0.9139561 0.1540765
v 0.2374000 0.9139561 0.2140765
v 0.2374000 0.9139561 0.2140765
v 0.2374000 0.9139561 0.2140765
v 0.2374000 0.9265561 0.1666765
v 0.2374000 0.9265561 0.1666765
v 0.2374000 0.9265561 0.2014765
v 0.2374000 0.9265561 0.2014765
v 0.2500000 0.4127061 -0.2347735
v 0.2500000 0.4127061 -0.1570735
v 0.2500000 0.4127061 -0.1214402
v 0.2500000 0.4127061 -0.0437402
v 0.2500000 0.4127061 -0.0081069
v 0.2500000 0.4127061 0.0695931
v 0.2500000 0.4127061 0.1052265
v 0.2500000 0.4127061 0.1829265
v 0.2500000 0.4504061 -0.2347735
v 0.2500000 0.4504061 -0.1570735
v 0.2500000 0.4504061 -0.1214402
v 0.2500000 0.4504061 -0.0437402
v 0.2500000 0.4504061 -0.0081069
v 0.2500000 0.4504061 0.0695931
v 0.2500000 0.4504061 0.1052265
v 0.2500000 0.4504061 0.1829265
v 0.2500000 0.6491561 0.1666765
v 0.2500000 0.6491561 0.2014765
v 0.2500000 0.7339561 0.1666765
v 0.2500000 0.7339561 0.2014765
v 0.2500000 0.8291561 0.1666765
v 0.2500000 0.8291561 0.2014765
v 0.2500000 0.9139561 0.1666765
v 0.2500000 0.9139561 0.2014765
vt 0.0776525 0.1066215
vt 0.0776525 0.1294744
vt 0.0754821 0.0594088
vt 0.0754821 0.0822617
vt 0.0689669 0.0243496
vt 0.0689669 0.0472025
vt 0.1286305 0.0801806
vt 0.1286305 0.1030335
vt 0.1315096 0.1066215
vt 0.1315096 0.1294744
vt 0.1293393 0.0594088
vt 0.1293393 0.0822617
vt 0.1228240 0.0243496
vt 0.1228240 0.0472025
vt 0.1824877 0.0801806
vt 0.1824877 0.1030335
vt 0.1076880 0.1218516
vt 0.1574022 0.1218516
vt 0.1076880 0.1467928
vt 0.1574022 0.1467928
vt 0.0843417 0.0624226
vt 0.1340559 0.0624226
vt 0.0843417 0.0873637
vt 0.1340559 0.0873637
vt 0.1076880 0.1181457
vt 0.1076880 0.1218516
vt 0.1574022 0.1181457
vt 0.1574022 0.1218516
vt 0.0896880 0.1218516
vt 0.1076880 0.1218516
vt 0.1076880 0.1218516
vt 0.1754022 0.1218516
vt 0.0896880 0.1218516
vt 0.0896880 0.1467928
vt 0.2288308 0.1218516
vt 0.1754022 0.1218516
vt 0.1754022 0.1467928
vt 0.2288308 0.1218516
vt 0.1076880 0.1218516
vt 0.1076880 0.1504987
vt 0.1574022 0.1218516
vt 0.1574022 0.1504987
vt 0.0843417 0.0587167
vt 0.0843417 0.0624226
vt 0.1340559 0.0587167
vt 0.1340559 0.0624226
vt 0.0663417 0.0624226
vt 0.0843417 0.0624226
vt 0.0843417 0.0624226
vt 0.1520559 0.0624226
vt 0.0663417 0.0624226
vt 0.0663417 0.0873637
vt 0.2054845 0.0624226
vt 0.1520559 0.0624226
vt 0.1520559 0.0873637
vt 0.2054845 0.0624226
vt 0.0843417 0.0624226
vt 0.0843417 0.0910696
vt 0.1340559 0.0624226
vt 0.1340559 0.0910696
vt 0.0581525 0.1066215
vt 0.0776525 0.1066215
vt 0.0581525 0.1294744
vt 0.1886525 0.1066215
vt 0.0559821 0.0594088
vt 0.0754821 0.0594088
vt 0.0559821 0.0822617
vt 0.1864821 0.0594088
vt 0.0494669 0.0243496
vt 0.0689669 0.0243496
vt 0.0494669 0.0472025
vt 0.1799669 0.0243496
vt 0.1091305 0.0801806
vt 0.1286305 0.0801806
vt 0.1091305 0.1030335
vt 0.2396305 0.0801806
vt 0.0581525 0.1066215
vt 0.0776525 0.1026068
vt 0.0776525 0.1066215
vt 0.0776525 0.1066215
vt 0.0776525 0.1334891
vt 0.2081525 0.1066215
vt 0.0559821 0.0594088
vt 0.0754821 0.0553941
vt 0.0754821 0.0594088
vt 0.0754821 0.0594088
vt 0.0754821 0.0862764
vt 0.2059821 0.0594088
vt 0.0494669 0.0243496
vt 0.0689669 0.0203349
vt 0.0689669 0.0243496
vt 0.0689669 0.0243496
vt 0.0689669 0.0512172
vt 0.1994669 0.0243496
vt 0.1091305 0.0801806
vt 0.1286305 0.0761659
vt 0.1286305 0.0801806
vt 0.1286305 0.0801806
vt 0.1286305 0.1070482
vt 0.2591305 0.0801806
vt 0.0581525 0.1066215
vt 0.1315096 0.1026068
vt 0.1315096 0.1066215
vt 0.1315096 0.1066215
vt 0.1315096 0.1334891
vt 0.2081525 0.1066215
vt 0.0559821 0.0594088
vt 0.1293393 0.0553941
vt 0.1293393 0.0594088
vt 0.1293393 0.0594088
vt 0.1293393 0.0862764
vt 0.2059821 0.0594088
vt 0.0494669 0.0243496
vt 0.1228240 0.0203349
vt 0.1228240 0.0243496
vt 0.1228240 0.0243496
vt 0.1228240 0.0512172
vt 0.1994669 0.0243496
vt 0.1091305 0.0801806
vt 0.1824877 0.0761659
vt 0.1824877 0.0801806
vt 0.1824877 0.0801806
vt 0.1824877 0.1070482
vt 0.2591305 0.0801806
vt 0.0776525 0.1066215
vt 0.1510096 0.1066215
vt 0.1510096 0.1294744
vt 0.1886525 0.1066215
vt 0.0754821 0.0594088
vt 0.1488393 0.0594088
vt 0.1488393 0.0822617
vt 0.1864821 0.0594088
vt 0.0689669 0.0243496
vt 0.1423240 0.0243496
vt 0.1423240 0.0472025
vt 0.1799669 0.0243496
vt 0.1286305 0.0801806
vt 0.2019877 0.0801806
vt 0.2019877 0.1030335
vt 0.2396305 0.0801806
vt 0.1217724 0.1475751
vt 0.2177009 0.1475751
vt 0.0529850 0.1790010
vt 0.0784850 0.1790010
vt 0.1217724 0.1475751
vt 0.1472724 0.1475751
vt 0.0529850 0.1790010
vt 0.1489136 0.1790010
vt 0.0588285 0.0611955
vt 0.0588285 0.0743719
vt 0.1408285 0.0611955
vt 0.0588285 0.0611955
vt 0.0768285 0.0611955
vt 0.0588285 0.0743719
vt 0.0588285 0.2367453
vt 0.1408285 0.2367453
vt 0.0588285 0.0611955
vt 0.0588285 0.2367453
vt 0.0768285 0.2367453
vt 0.1472724 0.0493091
vt 0.1472724 0.1528251
vt 0.2177009 0.1528251
vt 0.0784850 0.0662349
vt 0.0784850 0.1842510
vt 0.1472724 0.0348091
vt 0.1472724 0.1528251
vt 0.0784850 0.0807349
vt 0.0784850 0.1842510
vt 0.1489136 0.1842510
vt 0.1472724 0.1475751
vt 0.0784850 0.1790010
vt 0.1472724 0.1475751
vt 0.0784850 0.1790010
vt 0.0768285 0.0743719
vt 0.0768285 0.0611955
vt 0.0768285 0.0611955
vt 0.0768285 0.0780778
vt 0.0768285 0.0574896
vt 0.0768285 0.0611955
vt 0.0768285 0.0780778
vt 0.0768285 0.2367453
vt 0.0768285 0.0574896
vt 0.0768285 0.2367453
vt 0.0768285 0.0743719
vt 0.0768285 0.0611955
vt 0.1217724 0.0348091
vt 0.2177009 0.0348091
vt 0.0529850 0.0662349
vt 0.0784850 0.0662349
vt 0.1217724 0.0348091
vt 0.1472724 0.0348091
vt 0.0529850 0.0662349
vt 0.1489136 0.0662349
vt 0.1472724 0.0348091
vt 0.0784850 0.0662349
vt 0.1472724 0.0348091
vt 0.0784850 0.0662349
vt 0.1472724 0.0295591
vt 0.1472724 0.0493091
vt 0.2177009 0.0295591
vt 0.0784850 0.0609849
vt 0.0784850 0.0662349
vt 0.1472724 0.0295591
vt 0.1472724 0.0348091
vt 0.0784850 0.0609849
vt 0.0784850 0.0807349
vt 0.1489136 0.0609849
vt 0.1265428 0.0743719
vt 0.1265428 0.0611955
vt 0.1265428 0.0611955
vt 0.1265428 0.0780778
vt 0.1265428 0.0574896
vt 0.1265428 0.0611955
vt 0.1265428 0.0780778
vt 0.1265428 0.2367453
vt 0.1265428 0.0574896
vt 0.1265428 0.2367453
vt 0.1265428 0.0743719
vt 0.1265428 0.0611955
vt 0.2177009 0.0493091
vt 0.2177009 0.1528251
vt 0.0784850 0.1842510
vt 0.1489136 0.0662349
vt 0.1489136 0.1842510
vt 0.1472724 0.1528251
vt 0.2177009 0.0348091
vt 0.2177009 0.1528251
vt 0.1489136 0.0807349
vt 0.1489136 0.1842510
vt 0.2177009 0.1475751
vt 0.1489136 0.1790010
vt 0.1408285 0.0611955
vt 0.1445428 0.0611955
vt 0.1445428 0.0743719
vt 0.0768285 0.0611955
vt 0.1445428 0.0611955
vt 0.1408285 0.2367453
vt 0.1445428 0.0743719
vt 0.1445428 0.2367453
vt 0.0768285 0.2367453
vt 0.1445428 0.0611955
vt 0.1445428 0.2367453
vt 0.2177009 0.1475751
vt 0.1489136 0.1790010
vt 0.2177009 0.1475751
vt 0.2432009 0.1475751
vt 0.0784850 0.1790010
vt 0.1744136 0.1790010
vt 0.1472724 0.1475751
vt 0.2432009 0.1475751
vt 0.1489136 0.1790010
vt 0.1744136 0.1790010
vt 0.2177009 0.0348091
vt 0.1489136 0.0662349
vt 0.2177009 0.0348091
vt 0.1489136 0.0662349
vt 0.2177009 0.0295591
vt 0.2177009 0.0493091
vt 0.0784850 0.0609849
vt 0.1489136 0.0609849
vt 0.1489136 0.0662349
vt 0.1472724 0.0295591
vt 0.2177009 0.0295591
vt 0.2177009 0.0348091
vt 0.1489136 0.0609849
vt 0.1489136 0.0807349
vt 0.2177009 0.0348091
vt 0.2432009 0.0348091
vt 0.0784850 0.0662349
vt 0.1744136 0.0662349
vt 0.1472724 0.0348091
vt 0.2432009 0.0348091
vt 0.1489136 0.0662349
vt 0.1744136 0.0662349
vt 0.0574942 0.0960215
vt 0.0829942 0.0960215
vt 0.1180517 0.1208294
vt 0.2139802 0.1208294
vt 0.0574942 0.0960215
vt 0.1534228 0.0960215
vt 0.1180517 0.1208294
vt 0.1435517 0.1208294
vt 0.0829942 0.0907715
vt 0.0829942 0.0960215
vt 0.1435517 0.1155794
vt 0.1435517 0.1353294
vt 0.2139802 0.1155794
vt 0.0829942 0.0907715
vt 0.0829942 0.1105215
vt 0.1534228 0.0907715
vt 0.1435517 0.1155794
vt 0.1435517 0.1208294
vt 0.0829942 0.0960215
vt 0.1435517 0.1208294
vt 0.0829942 0.0960215
vt 0.1435517 0.1208294
vt 0.0574942 0.2087875
vt 0.0829942 0.2087875
vt 0.1180517 0.2335955
vt 0.2139802 0.2335955
vt 0.0574942 0.2087875
vt 0.1534228 0.2087875
vt 0.1180517 0.2335955
vt 0.1435517 0.2335955
vt 0.0829942 0.2087875
vt 0.1435517 0.2335955
vt 0.0884876 0.0530403
vt 0.0884876 0.0662168
vt 0.1704876 0.0530403
vt 0.0884876 0.0530403
vt 0.1064876 0.0530403
vt 0.0884876 0.0662168
vt 0.0884876 0.2285902
vt 0.1704876 0.2285902
vt 0.0884876 0.0530403
vt 0.0884876 0.2285902
vt 0.1064876 0.2285902
vt 0.0829942 0.2087875
vt 0.1435517 0.2335955
vt 0.0829942 0.0960215
vt 0.0829942 0.2140375
vt 0.1435517 0.1353294
vt 0.1435517 0.2388455
vt 0.2139802 0.2388455
vt 0.0829942 0.1105215
vt 0.0829942 0.2140375
vt 0.1534228 0.2140375
vt 0.1435517 0.1208294
vt 0.1435517 0.2388455
vt 0.1064876 0.0662168
vt 0.1064876 0.0530403
vt 0.1064876 0.0530403
vt 0.1064876 0.0699227
vt 0.1064876 0.0493345
vt 0.1064876 0.0530403
vt 0.1064876 0.0699227
vt 0.1064876 0.2285902
vt 0.1064876 0.0493345
vt 0.1064876 0.2285902
vt 0.1064876 0.0662168
vt 0.1064876 0.0530403
vt 0.0829942 0.0907715
vt 0.1534228 0.0907715
vt 0.1534228 0.0960215
vt 0.2139802 0.1155794
vt 0.2139802 0.1353294
vt 0.1534228 0.0907715
vt 0.1534228 0.1105215
vt 0.1435517 0.1155794
vt 0.2139802 0.1155794
vt 0.2139802 0.1208294
vt 0.1534228 0.0960215
vt 0.2139802 0.1208294
vt 0.1534228 0.0960215
vt 0.2139802 0.1208294
vt 0.0829942 0.0960215
vt 0.1789228 0.0960215
vt 0.2139802 0.1208294
vt 0.2394802 0.1208294
vt 0.1534228 0.0960215
vt 0.1789228 0.0960215
vt 0.1435517 0.1208294
vt 0.2394802 0.1208294
vt 0.1562019 0.0662168
vt 0.1562019 0.0530403
vt 0.1562019 0.0530403
vt 0.1562019 0.0699227
vt 0.1562019 0.0493345
vt 0.1562019 0.0530403
vt 0.1562019 0.0699227
vt 0.1562019 0.2285902
vt 0.1562019 0.0493345
vt 0.1562019 0.2285902
vt 0.1562019 0.0662168
vt 0.1562019 0.0530403
vt 0.1534228 0.2087875
vt 0.2139802 0.2335955
vt 0.1534228 0.2087875
vt 0.2139802 0.2335955
vt 0.0829942 0.2140375
vt 0.1534228 0.0960215
vt 0.1534228 0.2140375
vt 0.2139802 0.1353294
vt 0.2139802 0.2388455
vt 0.1534228 0.1105215
vt 0.1534228 0.2140375
vt 0.1435517 0.2388455
vt 0.2139802 0.1208294
vt 0.2139802 0.2388455
vt 0.1704876 0.0530403
vt 0.1742019 0.0530403
vt 0.1742019 0.0662168
vt 0.1064876 0.0530403
vt 0.1742019 0.0530403
vt 0.1704876 0.2285902
vt 0.1742019 0.0662168
vt 0.1742019 0.2285902
vt 0.1064876 0.2285902
vt 0.1742019 0.0530403
vt 0.1742019 0.2285902
vt 0.0829942 0.2087875
vt 0.1789228 0.2087875
vt 0.2139802 0.2335955
vt 0.2394802 0.2335955
vt 0.1534228 0.2087875
vt 0.1789228 0.2087875
vt 0.1435517 0.2335955
vt 0.2394802 0.2335955
vt 0.0581525 0.1066215
vt 0.0776525 0.2456509
vt 0.0581525 0.1294744
vt 0.1886525 0.2456509
vt 0.0559821 0.0594088
vt 0.0754821 0.1984382
vt 0.0559821 0.0822617
vt 0.1864821 0.1984382
vt 0.0494669 0.0243496
vt 0.0689669 0.1633790
vt 0.0494669 0.0472025
vt 0.1799669 0.1633790
vt 0.1091305 0.0801806
vt 0.1286305 0.2192100
vt 0.1091305 0.1030335
vt 0.2396305 0.2192100
vt 0.0581525 0.2456509
vt 0.0776525 0.1026068
vt 0.0776525 0.2456509
vt 0.0776525 0.1334891
vt 0.0776525 0.2456509
vt 0.2081525 0.2456509
vt 0.0559821 0.1984382
vt 0.0754821 0.0553941
vt 0.0754821 0.1984382
vt 0.0754821 0.0862764
vt 0.0754821 0.1984382
vt 0.2059821 0.1984382
vt 0.0494669 0.1633790
vt 0.0689669 0.0203349
vt 0.0689669 0.1633790
vt 0.0689669 0.0512172
vt 0.0689669 0.1633790
vt 0.1994669 0.1633790
vt 0.1091305 0.2192100
vt 0.1286305 0.0761659
vt 0.1286305 0.2192100
vt 0.1286305 0.1070482
vt 0.1286305 0.2192100
vt 0.2591305 0.2192100
vt 0.0581525 0.2456509
vt 0.1315096 0.1026068
vt 0.1315096 0.2456509
vt 0.1315096 0.1334891
vt 0.1315096 0.2456509
vt 0.2081525 0.2456509
vt 0.0559821 0.1984382
vt 0.1293393 0.0553941
vt 0.1293393 0.1984382
vt 0.1293393 0.0862764
vt 0.1293393 0.1984382
vt 0.2059821 0.1984382
vt 0.0494669 0.1633790
vt 0.1228240 0.0203349
vt 0.1228240 0.1633790
vt 0.1228240 0.0512172
vt 0.1228240 0.1633790
vt 0.1994669 0.1633790
vt 0.1091305 0.2192100
vt 0.1824877 0.0761659
vt 0.1824877 0.2192100
vt 0.1824877 0.1070482
vt 0.1824877 0.2192100
vt 0.2591305 0.2192100
vt 0.0776525 0.2456509
vt 0.1510096 0.1066215
vt 0.1510096 0.1294744
vt 0.1886525 0.2456509
vt 0.0754821 0.1984382
vt 0.1488393 0.0594088
vt 0.1488393 0.0822617
vt 0.1864821 0.1984382
vt 0.0689669 0.1633790
vt 0.1423240 0.0243496
vt 0.1423240 0.0472025
vt 0.1799669 0.1633790
vt 0.1286305 0.2192100
vt 0.2019877 0.0801806
vt 0.2019877 0.1030335
vt 0.2396305 0.2192100
vt 0.1076880 0.1181457
vt 0.1076880 0.2614987
vt 0.1574022 0.1181457
vt 0.1574022 0.2614987
vt 0.0896880 0.1218516
vt 0.0896880 0.2614987
vt 0.1076880 0.2614987
vt 0.1076880 0.2614987
vt 0.1754022 0.1218516
vt 0.1754022 0.2614987
vt 0.0896880 0.1467928
vt 0.0896880 0.2614987
vt 0.2288308 0.2614987
vt 0.1754022 0.1467928
vt 0.1754022 0.2614987
vt 0.2288308 0.2614987
vt 0.1076880 0.1504987
vt 0.1076880 0.2614987
vt 0.1574022 0.1504987
vt 0.1574022 0.2614987
vt 0.0843417 0.0587167
vt 0.0843417 0.2020696
vt 0.1340559 0.0587167
vt 0.1340559 0.2020696
vt 0.0663417 0.0624226
vt 0.0663417 0.2020696
vt 0.0843417 0.2020696
vt 0.0843417 0.2020696
vt 0.1520559 0.0624226
vt 0.1520559 0.2020696
vt 0.0663417 0.0873637
vt 0.0663417 0.2020696
vt 0.2054845 0.2020696
vt 0.1520559 0.0873637
vt 0.1520559 0.2020696
vt 0.2054845 0.2020696
vt 0.0843417 0.0910696
vt 0.0843417 0.2020696
vt 0.1340559 0.0910696
vt 0.1340559 0.2020696
vt 0.0776525 0.1066215
vt 0.0776525 0.1294744
vt 0.0754821 0.0594088
vt 0.0754821 0.0822617
vt 0.0689669 0.0243496
vt 0.0689669 0.0472025
vt 0.1286305 0.0801806
vt 0.1286305 0.1030335
vt 0.1315096 0.1066215
vt 0.1315096 0.1294744
vt 0.1293393 0.0594088
vt 0.1293393 0.0822617
vt 0.1228240 0.0243496
vt 0.1228240 0.0472025
vt 0.1824877 0.0801806
vt 0.1824877 0.1030335
vt 0.1076880 0.1218516
vt 0.1574022 0.1218516
vt 0.1076880 0.1467928
vt 0.1574022 0.1467928
vt 0.0843417 0.0624226
vt 0.1340559 0.0624226
vt 0.0843417 0.0873637
vt 0.1340559 0.0873637
vn -0.9232201 -0.3399855 -0.1790932
vn -0.9778465 -0.1498889 0.1461150
vn -0.9232201 -0.3399855 -0.1790932
vn -0.9778465 -0.1498889 0.1461150
vn -0.9232201 -0.3399855 -0.1790932
vn -0.9778465 -0.1498889 0.1461150
vn -0.9232201 -0.3399855 -0.1790932
vn -0.9778465 -0.1498889 0.1461150
vn -0.9635085 0.2561225 -0.0777988
vn -0.9565154 0.2542636 0.1429276
vn -0.9635085 0.2561225 -0.0777988
vn -0.9565154 0.2542636 0.1429276
vn -0.9635085 0.2561225 -0.0777988
vn -0.9565154 0.2542636 0.1429276
vn -0.9635085 0.2561225 -0.0777988
vn -0.9565154 0.2542636 0.1429276
vn -0.9248371 -0.1564200 -0.3467120
vn -0.9642865 -0.0666850 0.2563293
vn -0.9804717 0.1268372 -0.1502913
vn -0.9589722 0.1240559 0.2549167
vn -0.9248371 -0.1564200 -0.3467120
vn -0.9642865 -0.0666850 0.2563293
vn -0.9804717 0.1268372 -0.1502913
vn -0.9589722 0.1240559 0.2549167
vn -0.0148925 -0.9880930 -0.1531355
vn -0.0148925 -0.9880930 -0.1531355
vn -0.0425327 -0.9667412 0.2521953
vn -0.0425327 -0.9667412 0.2521953
vn -0.0223840 -0.2211285 -0.9749878
vn -0.0223840 -0.2211285 -0.9749878
vn -0.0223840 -0.2211285 0.9749878
vn -0.0223840 -0.2211285 0.9749878
vn -0.0240172 0.1268350 -0.9916330
vn -0.0240172 0.1268350 -0.9916330
vn -0.0240172 0.1268350 -0.9916330
vn -0.0240172 0.1268350 0.9916330
vn -0.0240172 0.1268350 0.9916330
vn -0.0240172 0.1268350 0.9916330
vn -0.0148925 0.9880930 -0.1531355
vn -0.0148925 0.9880930 -0.1531355
vn -0.0425327 0.9667412 0.2521953
vn -0.0425327 0.9667412 0.2521953
vn -0.0148925 -0.9880930 -0.1531355
vn -0.0148925 -0.9880930 -0.1531355
vn -0.0425327 -0.9667412 0.2521953
vn -0.0425327 -0.9667412 0.2521953
vn -0.0223840 -0.2211285 -0.9749878
vn -0.0223840 -0.2211285 -0.9749878
vn -0.0223840 -0.2211285 0.9749878
vn -0.0223840 -0.2211285 0.9749878
vn -0.0240172 0.1268350 -0.9916330
vn -0.0240172 0.1268350 -0.9916330
vn -0.0240172 0.1268350 -0.9916330
vn -0.0240172 0.1268350 0.9916330
vn -0.0240172 0.1268350 0.9916330
vn -0.0240172 0.1268350 0.9916330
vn -0.0148925 0.9880930 -0.1531355
vn -0.0148925 0.9880930 -0.1531355
vn -0.0425327 0.9667412 0.2521953
vn -0.0425327 0.9667412 0.2521953
vn -0.0153115 -0.9965542 -0.0815187
vn -0.0153115 -0.9965542 -0.0815187
vn -0.0501328 -0.9882735 0.1442299
vn -0.0501328 -0.9882735 0.1442299
vn -0.0153115 -0.9965542 -0.0815187
vn -0.0153115 -0.9965542 -0.0815187
vn -0.0501328 -0.9882735 0.1442299
vn -0.0501328 -0.9882735 0.1442299
vn -0.0153115 -0.9965542 -0.0815187
vn -0.0153115 -0.9965542 -0.0815187
vn -0.0501328 -0.9882735 0.1442299
vn -0.0501328 -0.9882735 0.1442299
vn -0.0153115 -0.9965542 -0.0815187
vn -0.0153115 -0.9965542 -0.0815187
vn -0.0501328 -0.9882735 0.1442299
vn -0.0501328 -0.9882735 0.1442299
vn -0.0205845 -0.3844510 -0.9229159
vn -0.0205845 -0.3844510 -0.9229159
vn -0.0205845 -0.3844510 -0.9229159
vn -0.0137538 -0.2568769 0.9663463
vn -0.0137538 -0.2568769 0.9663463
vn -0.0137538 -0.2568769 0.9663463
vn -0.0205845 -0.3844510 -0.9229159
vn -0.0205845 -0.3844510 -0.9229159
vn -0.0205845 -0.3844510 -0.9229159
vn -0.0137538 -0.2568769 0.9663463
vn -0.0137538 -0.2568769 0.9663463
vn -0.0137538 -0.2568769 0.9663463
vn -0.0205845 -0.3844510 -0.9229159
vn -0.0205845 -0.3844510 -0.9229159
vn -0.0205845 -0.3844510 -0.9229159
vn -0.0137538 -0.2568769 0.9663463
vn -0.0137538 -0.2568769 0.9663463
vn -0.0137538 -0.2568769 0.9663463
vn -0.0205845 -0.3844510 -0.9229159
vn -0.0205845 -0.3844510 -0.9229159
vn -0.0205845 -0.3844510 -0.9229159
vn -0.0137538 -0.2568769 0.9663463
vn -0.0137538 -0.2568769 0.9663463
vn -0.0137538 -0.2568769 0.9663463
vn -0.0236166 0.2543463 -0.9668248
vn -0.0236166 0.2543463 -0.9668248
vn -0.0236166 0.2543463 -0.9668248
vn -0.0461004 0.2517791 0.9666861
vn -0.0461004 0.2517791 0.9666861
vn -0.0461004 0.2517791 0.9666861
vn -0.0236166 0.2543463 -0.9668248
vn -0.0236166 0.2543463 -0.9668248
vn -0.0236166 0.2543463 -0.9668248
vn -0.0461004 0.2517791 0.9666861
vn -0.0461004 0.2517791 0.9666861
vn -0.0461004 0.2517791 0.9666861
vn -0.0236166 0.2543463 -0.9668248
vn -0.0236166 0.2543463 -0.9668248
vn -0.0236166 0.2543463 -0.9668248
vn -0.0461004 0.2517791 0.9666861
vn -0.0461004 0.2517791 0.9666861
vn -0.0461004 0.2517791 0.9666861
vn -0.0236166 0.2543463 -0.9668248
vn -0.0236166 0.2543463 -0.9668248
vn -0.0236166 0.2543463 -0.9668248
vn -0.0461004 0.2517791 0.9666861
vn -0.0461004 0.2517791 0.9666861
vn -0.0461004 0.2517791 0.9666861
vn -0.0277473 0.9886388 -0.1477276
vn -0.0277473 0.9886388 -0.1477276
vn -0.0257363 0.9889488 0.1460064
vn -0.0257363 0.9889488 0.1460064
vn -0.0277473 0.9886388 -0.1477276
vn -0.0277473 0.9886388 -0.1477276
vn -0.0257363 0.9889488 0.1460064
vn -0.0257363 0.9889488 0.1460064
vn -0.0277473 0.9886388 -0.1477276
vn -0.0277473 0.9886388 -0.1477276
vn -0.0257363 0.9889488 0.1460064
vn -0.0257363 0.9889488 0.1460064
vn -0.0277473 0.9886388 -0.1477276
vn -0.0277473 0.9886388 -0.1477276
vn -0.0257363 0.9889488 0.1460064
vn -0.0257363 0.9889488 0.1460064
vn -0.9671415 0.0019794 0.2542308
vn -0.9671415 0.0019794 0.2542308
vn -0.9888288 -0.0034530 -0.1490157
vn -0.9888288 -0.0034530 -0.1490157
vn -0.9880007 -0.0183742 -0.1533527
vn -0.9880007 -0.0183742 -0.1533527
vn -0.9657373 -0.0233214 0.2584715
vn -0.9657373 -0.0233214 0.2584715
vn -0.9769475 -0.0425497 0.2091964
vn -0.9769475 -0.0425497 0.2091964
vn -0.9769475 -0.0425497 0.2091964
vn -0.9414818 0.0231029 -0.3362711
vn -0.9414818 0.0231029 -0.3362711
vn -0.9765453 -0.0047878 0.2152590
vn -0.9765453 -0.0047878 0.2152590
vn -0.9765453 -0.0047878 0.2152590
vn -0.9922768 0.0345522 -0.1191342
vn -0.9922768 0.0345522 -0.1191342
vn -0.9922768 0.0345522 -0.1191342
vn -0.2790661 0.9433807 0.1793182
vn -0.2790661 0.9433807 0.1793182
vn -0.2790661 0.9433807 0.1793182
vn -0.2543996 0.9171330 -0.3068353
vn -0.2543996 0.9171330 -0.3068353
vn -0.2524719 0.8823988 -0.3970268
vn -0.2524719 0.8823988 -0.3970268
vn -0.2778277 0.9210671 0.2728501
vn -0.2778277 0.9210671 0.2728501
vn -0.2778277 0.9210671 0.2728501
vn -0.2603040 0.0553088 0.9639413
vn -0.3864782 0.0569608 -0.9205379
vn -0.3814270 -0.0340521 -0.9237715
vn -0.2550179 -0.0399354 0.9661113
vn -0.1480696 -0.9840418 0.0986772
vn -0.3160867 -0.8784148 -0.3584363
vn -0.1528109 -0.1263159 0.9801495
vn -0.1528109 -0.1263159 0.9801495
vn -0.1528109 0.1027070 -0.9829039
vn -0.1528109 0.1027070 -0.9829039
vn -0.3852036 -0.0918904 0.9182453
vn -0.3852036 -0.0918904 0.9182453
vn -0.3852036 0.1219576 -0.9147374
vn -0.3852036 0.1219576 -0.9147374
vn -0.2326418 0.9262802 0.2964502
vn -0.2125652 0.9575416 -0.1947566
vn -0.9639271 -0.0785267 0.2543187
vn -0.9639271 -0.0785267 0.2543187
vn -0.9210958 -0.0649626 -0.3838782
vn -0.9210958 -0.0649626 -0.3838782
vn -0.9190019 -0.1026903 -0.3806445
vn -0.9190019 -0.1026903 -0.3806445
vn -0.9625442 -0.1034442 0.2506151
vn -0.9625442 -0.1034442 0.2506151
vn -0.2565336 -0.0094678 0.9664889
vn -0.1553386 0.0143787 -0.9877566
vn -0.1499351 -0.0829831 -0.9852072
vn -0.2512511 -0.1046471 0.9622483
vn -0.0940987 -0.9489671 0.3010099
vn -0.0940987 -0.9489671 0.3010099
vn -0.0940987 -0.9489671 0.3010099
vn -0.2504500 -0.9047508 -0.3445298
vn -0.2504500 -0.9047508 -0.3445298
vn -0.2488076 -0.9343434 -0.2551415
vn -0.2488076 -0.9343434 -0.2551415
vn -0.0927084 -0.9740179 0.2066261
vn -0.0927084 -0.9740179 0.2066261
vn -0.0927084 -0.9740179 0.2066261
vn 0.2513083 -0.9630771 0.0965749
vn 0.2550968 -0.9394745 -0.2287208
vn 0.2531607 -0.1459501 0.9563515
vn 0.2531607 -0.1459501 0.9563515
vn 0.2531607 0.0781218 -0.9642648
vn 0.2531607 0.0781218 -0.9642648
vn 0.2550353 -0.0947696 0.9622763
vn 0.2550353 -0.0947696 0.9622763
vn 0.2550353 0.1292917 -0.9582488
vn 0.2550353 0.1292917 -0.9582488
vn 0.2513083 0.9149805 0.3156816
vn 0.2550968 0.9668949 -0.0063110
vn 0.1959512 0.9595171 0.2023116
vn 0.1959512 0.9595171 0.2023116
vn 0.2004243 0.9746770 -0.0991703
vn 0.2004243 0.9746770 -0.0991703
vn 0.2004243 0.9746770 -0.0991703
vn 0.2012260 0.9602317 -0.1935541
vn 0.2012260 0.9602317 -0.1935541
vn 0.2012260 0.9602317 -0.1935541
vn 0.1973125 0.9349894 0.2947246
vn 0.1973125 0.9349894 0.2947246
vn 0.2416208 0.1333456 0.9611651
vn 0.2476657 0.0990694 -0.9637671
vn 0.9769475 -0.0425497 0.2091964
vn 0.9769475 -0.0425497 0.2091964
vn 0.9769475 -0.0425497 0.2091964
vn 0.9414818 0.0231029 -0.3362711
vn 0.9414818 0.0231029 -0.3362711
vn 0.9768403 0.0106939 0.2137023
vn 0.9768403 0.0106939 0.2137023
vn 0.9768403 0.0106939 0.2137023
vn 0.9922821 0.0258547 -0.1212759
vn 0.9922821 0.0258547 -0.1212759
vn 0.9922821 0.0258547 -0.1212759
vn 0.2529550 0.0037667 -0.9674707
vn 0.2469052 0.0381309 0.9682891
vn 0.9625442 0.1034442 0.2506151
vn 0.9625442 0.1034442 0.2506151
vn 0.9609827 0.1089903 -0.2542308
vn 0.9609827 0.1089903 -0.2542308
vn 0.9623869 0.0836895 -0.2584715
vn 0.9623869 0.0836895 -0.2584715
vn 0.9639271 0.0785267 0.2543187
vn 0.9639271 0.0785267 0.2543187
vn 0.2518183 0.0242482 0.9674707
vn 0.2496084 -0.0105744 -0.9682891
vn 0.2548928 -0.1057891 -0.9611651
vn 0.2571076 -0.0710545 0.9637671
vn 0.2995658 -0.9074127 0.2947246
vn 0.2995658 -0.9074127 0.2947246
vn 0.3062486 -0.9320668 -0.1935541
vn 0.3062486 -0.9320668 -0.1935541
vn 0.3062486 -0.9320668 -0.1935541
vn 0.3070503 -0.9465122 -0.0991703
vn 0.3070503 -0.9465122 -0.0991703
vn 0.3070503 -0.9465122 -0.0991703
vn 0.3009271 -0.9319404 0.2023116
vn 0.3009271 -0.9319404 0.2023116
vn 0.9677341 -0.0061797 0.2518978
vn 0.9677341 -0.0061797 0.2518978
vn 0.9652335 0.0442816 -0.2576110
vn 0.9652335 0.0442816 -0.2576110
vn 0.9666387 0.0189635 -0.2554410
vn 0.9666387 0.0189635 -0.2554410
vn 0.9690944 -0.0306895 0.2447737
vn 0.9690944 -0.0306895 0.2447737
vn -0.9247214 -0.0003636 -0.3806445
vn -0.9247214 -0.0003636 -0.3806445
vn -0.9680797 0.0037054 0.2506151
vn -0.9680797 0.0037054 0.2506151
vn -0.9666968 0.0286229 0.2543187
vn -0.9666968 0.0286229 0.2543187
vn -0.9226275 0.0373640 -0.3838782
vn -0.9226275 0.0373640 -0.3838782
vn -0.3506732 -0.9010722 -0.2551415
vn -0.3506732 -0.9010722 -0.2551415
vn -0.1999230 -0.9577768 0.2066261
vn -0.1999230 -0.9577768 0.2066261
vn -0.1999230 -0.9577768 0.2066261
vn -0.1985327 -0.9327260 0.3010099
vn -0.1985327 -0.9327260 0.3010099
vn -0.1985327 -0.9327260 0.3010099
vn -0.3490308 -0.8714796 -0.3445298
vn -0.3490308 -0.8714796 -0.3445298
vn -0.1581971 -0.0658818 -0.9852072
vn -0.2612882 -0.0762012 0.9622483
vn -0.2560058 0.0189782 0.9664889
vn -0.1527935 0.0314800 -0.9877566
vn -0.9839661 0.0910699 -0.1533527
vn -0.9839661 0.0910699 -0.1533527
vn -0.9623869 0.0836895 0.2584715
vn -0.9623869 0.0836895 0.2584715
vn -0.9609827 0.1089903 0.2542308
vn -0.9609827 0.1089903 0.2542308
vn -0.9831379 0.1059912 -0.1490157
vn -0.9831379 0.1059912 -0.1490157
vn -0.3828526 0.0083654 -0.9237715
vn -0.2578709 -0.0114701 0.9661113
vn -0.9769475 -0.0425497 0.2091964
vn -0.9769475 -0.0425497 0.2091964
vn -0.9769475 -0.0425497 0.2091964
vn -0.9414818 0.0231029 -0.3362711
vn -0.9414818 0.0231029 -0.3362711
vn -0.9765453 -0.0047878 0.2152590
vn -0.9765453 -0.0047878 0.2152590
vn -0.9765453 -0.0047878 0.2152590
vn -0.9922768 0.0345522 -0.1191342
vn -0.9922768 0.0345522 -0.1191342
vn -0.9922768 0.0345522 -0.1191342
vn -0.2525849 0.0837742 0.9639413
vn -0.3778014 0.0993784 -0.9205379
vn -0.1532758 0.9049178 -0.3970268
vn -0.1532758 0.9049178 -0.3970268
vn -0.1741969 0.9461544 0.2728501
vn -0.1741969 0.9461544 0.2728501
vn -0.1741969 0.9461544 0.2728501
vn -0.1729585 0.9684680 0.1793182
vn -0.1729585 0.9684680 0.1793182
vn -0.1729585 0.9684680 0.1793182
vn -0.1513481 0.9396520 -0.3068353
vn -0.1513481 0.9396520 -0.3068353
vn -0.1480696 -0.9840418 0.0986772
vn -0.3160867 -0.8784148 -0.3584363
vn -0.1528109 -0.1263159 0.9801495
vn -0.1528109 -0.1263159 0.9801495
vn -0.1528109 0.1027070 -0.9829039
vn -0.1528109 0.1027070 -0.9829039
vn -0.3852036 -0.0918904 0.9182453
vn -0.3852036 -0.0918904 0.9182453
vn -0.3852036 0.1219576 -0.9147374
vn -0.3852036 0.1219576 -0.9147374
vn -0.2326418 0.9262802 0.2964502
vn -0.2125652 0.9575416 -0.1947566
vn 0.2004243 -0.9746770 -0.0991703
vn 0.2004243 -0.9746770 -0.0991703
vn 0.2004243 -0.9746770 -0.0991703
vn 0.1959512 -0.9595171 0.2023116
vn 0.1959512 -0.9595171 0.2023116
vn 0.1973125 -0.9349894 0.2947246
vn 0.1973125 -0.9349894 0.2947246
vn 0.2012260 -0.9602317 -0.1935541
vn 0.2012260 -0.9602317 -0.1935541
vn 0.2012260 -0.9602317 -0.1935541
vn 0.2416208 -0.1333456 -0.9611651
vn 0.2476657 -0.0990694 0.9637671
vn 0.2529550 -0.0037667 0.9674707
vn 0.2469052 -0.0381309 -0.9682891
vn 0.9628005 -0.0881204 -0.2554410
vn 0.9628005 -0.0881204 -0.2554410
vn 0.9597466 -0.1377402 0.2447737
vn 0.9597466 -0.1377402 0.2447737
vn 0.9611069 -0.1132304 0.2518978
vn 0.9611069 -0.1132304 0.2518978
vn 0.9642056 -0.0628023 -0.2576110
vn 0.9642056 -0.0628023 -0.2576110
vn 0.2513083 -0.9630771 0.0965749
vn 0.2550968 -0.9394745 -0.2287208
vn 0.2531607 -0.1459501 0.9563515
vn 0.2531607 -0.1459501 0.9563515
vn 0.2531607 0.0781218 -0.9642648
vn 0.2531607 0.0781218 -0.9642648
vn 0.2550353 -0.0947696 0.9622763
vn 0.2550353 -0.0947696 0.9622763
vn 0.2550353 0.1292917 -0.9582488
vn 0.2550353 0.1292917 -0.9582488
vn 0.2513083 0.9149805 0.3156816
vn 0.2550968 0.9668949 -0.0063110
vn 0.2518183 -0.0242482 -0.9674707
vn 0.2496084 0.0105744 0.9682891
vn 0.2548928 0.1057891 0.9611651
vn 0.2571076 0.0710545 -0.9637671
vn 0.3062486 0.9320668 -0.1935541
vn 0.3062486 0.9320668 -0.1935541
vn 0.3062486 0.9320668 -0.1935541
vn 0.2995658 0.9074127 0.2947246
vn 0.2995658 0.9074127 0.2947246
vn 0.3009271 0.9319404 0.2023116
vn 0.3009271 0.9319404 0.2023116
vn 0.3070503 0.9465122 -0.0991703
vn 0.3070503 0.9465122 -0.0991703
vn 0.3070503 0.9465122 -0.0991703
vn 0.9769475 -0.0425497 0.2091964
vn 0.9769475 -0.0425497 0.2091964
vn 0.9769475 -0.0425497 0.2091964
vn 0.9414818 0.0231029 -0.3362711
vn 0.9414818 0.0231029 -0.3362711
vn 0.9768403 0.0106939 0.2137023
vn 0.9768403 0.0106939 0.2137023
vn 0.9768403 0.0106939 0.2137023
vn 0.9922821 0.0258547 -0.1212759
vn 0.9922821 0.0258547 -0.1212759
vn 0.9922821 0.0258547 -0.1212759
vn 0.9657373 -0.0233214 -0.2584715
vn 0.9657373 -0.0233214 -0.2584715
vn 0.9666968 -0.0286229 0.2543187
vn 0.9666968 -0.0286229 0.2543187
vn 0.9680797 -0.0037054 0.2506151
vn 0.9680797 -0.0037054 0.2506151
vn 0.9671415 0.0019794 -0.2542308
vn 0.9671415 0.0019794 -0.2542308
vn 0.0237273 -0.9681859 -0.2491047
vn 0.0237273 -0.9681859 -0.2491047
vn 0.0257363 -0.9889488 0.1460064
vn 0.0257363 -0.9889488 0.1460064
vn 0.0237273 -0.9681859 -0.2491047
vn 0.0237273 -0.9681859 -0.2491047
vn 0.0257363 -0.9889488 0.1460064
vn 0.0257363 -0.9889488 0.1460064
vn 0.0237273 -0.9681859 -0.2491047
vn 0.0237273 -0.9681859 -0.2491047
vn 0.0257363 -0.9889488 0.1460064
vn 0.0257363 -0.9889488 0.1460064
vn 0.0237273 -0.9681859 -0.2491047
vn 0.0237273 -0.9681859 -0.2491047
vn 0.0257363 -0.9889488 0.1460064
vn 0.0257363 -0.9889488 0.1460064
vn 0.0277315 -0.1514567 -0.9880748
vn 0.0277315 -0.1514567 -0.9880748
vn 0.0277315 -0.1514567 -0.9880748
vn 0.0271143 -0.2568067 0.9660824
vn 0.0271143 -0.2568067 0.9660824
vn 0.0271143 -0.2568067 0.9660824
vn 0.0277315 -0.1514567 -0.9880748
vn 0.0277315 -0.1514567 -0.9880748
vn 0.0277315 -0.1514567 -0.9880748
vn 0.0271143 -0.2568067 0.9660824
vn 0.0271143 -0.2568067 0.9660824
vn 0.0271143 -0.2568067 0.9660824
vn 0.0277315 -0.1514567 -0.9880748
vn 0.0277315 -0.1514567 -0.9880748
vn 0.0277315 -0.1514567 -0.9880748
vn 0.0271143 -0.2568067 0.9660824
vn 0.0271143 -0.2568067 0.9660824
vn 0.0271143 -0.2568067 0.9660824
vn 0.0277315 -0.1514567 -0.9880748
vn 0.0277315 -0.1514567 -0.9880748
vn 0.0277315 -0.1514567 -0.9880748
vn 0.0271143 -0.2568067 0.9660824
vn 0.0271143 -0.2568067 0.9660824
vn 0.0271143 -0.2568067 0.9660824
vn 0.0271143 0.2568067 -0.9660824
vn 0.0271143 0.2568067 -0.9660824
vn 0.0271143 0.2568067 -0.9660824
vn 0.0236166 0.2543463 0.9668248
vn 0.0236166 0.2543463 0.9668248
vn 0.0236166 0.2543463 0.9668248
vn 0.0271143 0.2568067 -0.9660824
vn 0.0271143 0.2568067 -0.9660824
vn 0.0271143 0.2568067 -0.9660824
vn 0.0236166 0.2543463 0.9668248
vn 0.0236166 0.2543463 0.9668248
vn 0.0236166 0.2543463 0.9668248
vn 0.0271143 0.2568067 -0.9660824
vn 0.0271143 0.2568067 -0.9660824
vn 0.0271143 0.2568067 -0.9660824
vn 0.0236166 0.2543463 0.9668248
vn 0.0236166 0.2543463 0.9668248
vn 0.0236166 0.2543463 0.9668248
vn 0.0271143 0.2568067 -0.9660824
vn 0.0271143 0.2568067 -0.9660824
vn 0.0271143 0.2568067 -0.9660824
vn 0.0236166 0.2543463 0.9668248
vn 0.0236166 0.2543463 0.9668248
vn 0.0236166 0.2543463 0.9668248
vn 0.0140752 0.9889216 -0.1477699
vn 0.0140752 0.9889216 -0.1477699
vn 0.0501328 0.9882735 0.1442299
vn 0.0501328 0.9882735 0.1442299
vn 0.0140752 0.9889216 -0.1477699
vn 0.0140752 0.9889216 -0.1477699
vn 0.0501328 0.9882735 0.1442299
vn 0.0501328 0.9882735 0.1442299
vn 0.0140752 0.9889216 -0.1477699
vn 0.0140752 0.9889216 -0.1477699
vn 0.0501328 0.9882735 0.1442299
vn 0.0501328 0.9882735 0.1442299
vn 0.0140752 0.9889216 -0.1477699
vn 0.0140752 0.9889216 -0.1477699
vn 0.0501328 0.9882735 0.1442299
vn 0.0501328 0.9882735 0.1442299
vn 0.0189500 -0.9228563 -0.3846780
vn 0.0189500 -0.9228563 -0.3846780
vn 0.0217463 -0.9668140 0.2545539
vn 0.0217463 -0.9668140 0.2545539
vn 0.0257813 -0.0689671 -0.9972858
vn 0.0257813 -0.0689671 -0.9972858
vn 0.0257813 -0.0689671 -0.9972858
vn 0.0139524 -0.0698193 0.9974621
vn 0.0139524 -0.0698193 0.9974621
vn 0.0139524 -0.0698193 0.9974621
vn 0.0256294 0.1282523 -0.9914104
vn 0.0256294 0.1282523 -0.9914104
vn 0.0256294 0.1282523 -0.9914104
vn 0.0468686 0.1253775 0.9910014
vn 0.0468686 0.1253775 0.9910014
vn 0.0468686 0.1253775 0.9910014
vn 0.0189500 0.9228563 -0.3846780
vn 0.0189500 0.9228563 -0.3846780
vn 0.0217463 0.9668140 0.2545539
vn 0.0217463 0.9668140 0.2545539
vn 0.0189500 -0.9228563 -0.3846780
vn 0.0189500 -0.9228563 -0.3846780
vn 0.0217463 -0.9668140 0.2545539
vn 0.0217463 -0.9668140 0.2545539
vn 0.0257813 -0.0689671 -0.9972858
vn 0.0257813 -0.0689671 -0.9972858
vn 0.0257813 -0.0689671 -0.9972858
vn 0.0139524 -0.0698193 0.9974621
vn 0.0139524 -0.0698193 0.9974621
vn 0.0139524 -0.0698193 0.9974621
vn 0.0256294 0.1282523 -0.9914104
vn 0.0256294 0.1282523 -0.9914104
vn 0.0256294 0.1282523 -0.9914104
vn 0.0468686 0.1253775 0.9910014
vn 0.0468686 0.1253775 0.9910014
vn 0.0468686 0.1253775 0.9910014
vn 0.0189500 0.9228563 -0.3846780
vn 0.0189500 0.9228563 -0.3846780
vn 0.0217463 0.9668140 0.2545539
vn 0.0217463 0.9668140 0.2545539
vn 0.9222086 -0.3699997 -0.1123897
vn 0.9778465 -0.1498889 0.1461150
vn 0.9222086 -0.3699997 -0.1123897
vn 0.9778465 -0.1498889 0.1461150
vn 0.9222086 -0.3699997 -0.1123897
vn 0.9778465 -0.1498889 0.1461150
vn 0.9222086 -0.3699997 -0.1123897
vn 0.9778465 -0.1498889 0.1461150
vn 0.9620508 0.2414231 -0.1271738
vn 0.9565154 0.2542636 0.1429276
vn 0.9620508 0.2414231 -0.1271738
vn 0.9565154 0.2542636 0.1429276
vn 0.9620508 0.2414231 -0.1271738
vn 0.9565154 0.2542636 0.1429276
vn 0.9620508 0.2414231 -0.1271738
vn 0.9565154 0.2542636 0.1429276
vn 0.9530679 -0.1952650 -0.2313724
vn 0.9642865 -0.0666850 0.2563293
vn 0.9635788 0.1099751 -0.2437648
vn 0.9589722 0.1240559 0.2549167
vn 0.9530679 -0.1952650 -0.2313724
vn 0.9642865 -0.0666850 0.2563293
vn 0.9635788 0.1099751 -0.2437648
vn 0.9589722 0.1240559 0.2549167
o 06_Silla_Wood
usemtl Wood
s 1
f 61/61/61 1/1/1 78/78/78
f 105/105/105 127/127/127 10/10/10
f 537/537/537 450/450/450 474/474/474
f 102/102/102 9/9/9 126/126/126
f 452/452/452 538/538/538 475/475/475
f 63/63/63 81/81/81 2/2/2
f 409/409/409 426/426/426 529/529/529
f 411/411/411 530/530/530 428/428/428
f 9/9/9 1/1/1 2/2/2
f 9/9/9 2/2/2 10/10/10
f 128/128/128 476/476/476 473/473/473
f 128/128/128 473/473/473 125/125/125
f 127/127/127 9/9/9 10/10/10
f 127/127/127 126/126/126 9/9/9
f 105/105/105 10/10/10 2/2/2
f 105/105/105 2/2/2 81/81/81
f 537/537/537 426/426/426 450/450/450
f 537/537/537 529/529/529 426/426/426
f 537/537/537 474/474/474 475/475/475
f 537/537/537 475/475/475 538/538/538
f 101/101/101 125/125/125 473/473/473
f 101/101/101 473/473/473 449/449/449
f 103/103/103 451/451/451 427/427/427
f 103/103/103 427/427/427 79/79/79
f 102/102/102 1/1/1 9/9/9
f 102/102/102 78/78/78 1/1/1
f 530/530/530 529/529/529 537/537/537
f 530/530/530 537/537/537 538/538/538
f 452/452/452 530/530/530 538/538/538
f 452/452/452 428/428/428 530/530/530
f 454/454/454 476/476/476 128/128/128
f 454/454/454 128/128/128 106/106/106
f 453/453/453 104/104/104 80/80/80
f 453/453/453 80/80/80 429/429/429
f 63/63/63 2/2/2 1/1/1
f 63/63/63 1/1/1 61/61/61
f 410/410/410 77/77/77 425/425/425
f 410/410/410 62/62/62 77/77/77
f 411/411/411 529/529/529 530/530/530
f 411/411/411 409/409/409 529/529/529
f 412/412/412 430/430/430 82/82/82
f 412/412/412 82/82/82 64/64/64
f 412/412/412 64/64/64 62/62/62
f 412/412/412 62/62/62 410/410/410
f 65/65/65 3/3/3 84/84/84
f 111/111/111 131/131/131 12/12/12
f 539/539/539 456/456/456 478/478/478
f 108/108/108 11/11/11 130/130/130
f 458/458/458 540/540/540 479/479/479
f 67/67/67 87/87/87 4/4/4
f 413/413/413 432/432/432 531/531/531
f 415/415/415 532/532/532 434/434/434
f 11/11/11 3/3/3 4/4/4
f 11/11/11 4/4/4 12/12/12
f 132/132/132 480/480/480 477/477/477
f 132/132/132 477/477/477 129/129/129
f 131/131/131 11/11/11 12/12/12
f 131/131/131 130/130/130 11/11/11
f 111/111/111 12/12/12 4/4/4
f 111/111/111 4/4/4 87/87/87
f 539/539/539 432/432/432 456/456/456
f 539/539/539 531/531/531 432/432/432
f 539/539/539 478/478/478 479/479/479
f 539/539/539 479/479/479 540/540/540
f 107/107/107 129/129/129 477/477/477
f 107/107/107 477/477/477 455/455/455
f 109/109/109 457/457/457 433/433/433
f 109/109/109 433/433/433 85/85/85
f 108/108/108 3/3/3 11/11/11
f 108/108/108 84/84/84 3/3/3
f 532/532/532 531/531/531 539/539/539
f 532/532/532 539/539/539 540/540/540
f 458/458/458 532/532/532 540/540/540
f 458/458/458 434/434/434 532/532/532
f 460/460/460 480/480/480 132/132/132
f 460/460/460 132/132/132 112/112/112
f 459/459/459 110/110/110 86/86/86
f 459/459/459 86/86/86 435/435/435
f 67/67/67 4/4/4 3/3/3
f 67/67/67 3/3/3 65/65/65
f 414/414/414 83/83/83 431/431/431
f 414/414/414 66/66/66 83/83/83
f 415/415/415 531/531/531 532/532/532
f 415/415/415 413/413/413 531/531/531
f 416/416/416 436/436/436 88/88/88
f 416/416/416 88/88/88 68/68/68
f 416/416/416 68/68/68 66/66/66
f 416/416/416 66/66/66 414/414/414
f 69/69/69 5/5/5 90/90/90
f 117/117/117 135/135/135 14/14/14
f 541/541/541 462/462/462 482/482/482
f 114/114/114 13/13/13 134/134/134
f 464/464/464 542/542/542 483/483/483
f 71/71/71 93/93/93 6/6/6
f 417/417/417 438/438/438 533/533/533
f 419/419/419 534/534/534 440/440/440
f 13/13/13 5/5/5 6/6/6
f 13/13/13 6/6/6 14/14/14
f 136/136/136 484/484/484 481/481/481
f 136/136/136 481/481/481 133/133/133
f 135/135/135 13/13/13 14/14/14
f 135/135/135 134/134/134 13/13/13
f 117/117/117 14/14/14 6/6/6
f 117/117/117 6/6/6 93/93/93
f 541/541/541 438/438/438 462/462/462
f 541/541/541 533/533/533 438/438/438
f 541/541/541 482/482/482 483/483/483
f 541/541/541 483/483/483 542/542/542
f 113/113/113 133/133/133 481/481/481
f 113/113/113 481/481/481 461/461/461
f 115/115/115 463/463/463 439/439/439
f 115/115/115 439/439/439 91/91/91
f 114/114/114 5/5/5 13/13/13
f 114/114/114 90/90/90 5/5/5
f 534/534/534 533/533/533 541/541/541
f 534/534/534 541/541/541 542/542/542
f 464/464/464 534/534/534 542/542/542
f 464/464/464 440/440/440 534/534/534
f 466/466/466 484/484/484 136/136/136
f 466/466/466 136/136/136 118/118/118
f 465/465/465 116/116/116 92/92/92
f 465/465/465 92/92/92 441/441/441
f 71/71/71 6/6/6 5/5/5
f 71/71/71 5/5/5 69/69/69
f 418/418/418 89/89/89 437/437/437
f 418/418/418 70/70/70 89/89/89
f 419/419/419 533/533/533 534/534/534
f 419/419/419 417/417/417 533/533/533
f 420/420/420 442/442/442 94/94/94
f 420/420/420 94/94/94 72/72/72
f 420/420/420 72/72/72 70/70/70
f 420/420/420 70/70/70 418/418/418
f 73/73/73 7/7/7 96/96/96
f 123/123/123 139/139/139 16/16/16
f 543/543/543 468/468/468 486/486/486
f 120/120/120 15/15/15 138/138/138
f 470/470/470 544/544/544 487/487/487
f 75/75/75 99/99/99 8/8/8
f 421/421/421 444/444/444 535/535/535
f 423/423/423 536/536/536 446/446/446
f 15/15/15 7/7/7 8/8/8
f 15/15/15 8/8/8 16/16/16
f 140/140/140 488/488/488 485/485/485
f 140/140/140 485/485/485 137/137/137
f 139/139/139 15/15/15 16/16/16
f 139/139/139 138/138/138 15/15/15
f 123/123/123 16/16/16 8/8/8
f 123/123/123 8/8/8 99/99/99
f 543/543/543 444/444/444 468/468/468
f 543/543/543 535/535/535 444/444/444
f 543/543/543 486/486/486 487/487/487
f 543/543/543 487/487/487 544/544/544
f 119/119/119 137/137/137 485/485/485
f 119/119/119 485/485/485 467/467/467
f 121/121/121 469/469/469 445/445/445
f 121/121/121 445/445/445 97/97/97
f 120/120/120 7/7/7 15/15/15
f 120/120/120 96/96/96 7/7/7
f 536/536/536 535/535/535 543/543/543
f 536/536/536 543/543/543 544/544/544
f 470/470/470 536/536/536 544/544/544
f 470/470/470 446/446/446 536/536/536
f 472/472/472 488/488/488 140/140/140
f 472/472/472 140/140/140 124/124/124
f 471/471/471 122/122/122 98/98/98
f 471/471/471 98/98/98 447/447/447
f 75/75/75 8/8/8 7/7/7
f 75/75/75 7/7/7 73/73/73
f 422/422/422 95/95/95 443/443/443
f 422/422/422 74/74/74 95/95/95
f 423/423/423 535/535/535 536/536/536
f 423/423/423 421/421/421 535/535/535
f 424/424/424 448/448/448 100/100/100
f 424/424/424 100/100/100 76/76/76
f 424/424/424 76/76/76 74/74/74
f 424/424/424 74/74/74 422/422/422
f 196/196/196 203/203/203 190/190/190
f 268/268/268 253/253/253 257/257/257
f 186/186/186 198/198/198 194/194/194
f 246/246/246 221/221/221 230/230/230
f 161/161/161 141/141/141 170/170/170
f 255/255/255 272/272/272 263/263/263
f 172/172/172 145/145/145 166/166/166
f 243/243/243 227/227/227 250/250/250
f 199/199/199 204/204/204 264/264/264
f 199/199/199 264/264/264 258/258/258
f 253/253/253 230/230/230 170/170/170
f 253/253/253 170/170/170 194/194/194
f 253/253/253 198/198/198 257/257/257
f 253/253/253 194/194/194 198/198/198
f 267/267/267 257/257/257 262/262/262
f 267/267/267 262/262/262 271/271/271
f 186/186/186 194/194/194 170/170/170
f 186/186/186 170/170/170 141/141/141
f 187/187/187 146/146/146 191/191/191
f 187/187/187 142/142/142 146/146/146
f 187/187/187 203/203/203 200/200/200
f 187/187/187 191/191/191 203/203/203
f 245/245/245 225/225/225 221/221/221
f 245/245/245 249/249/249 225/225/225
f 246/246/246 230/230/230 253/253/253
f 246/246/246 253/253/253 268/268/268
f 245/245/245 267/267/267 271/271/271
f 245/245/245 271/271/271 249/249/249
f 162/162/162 146/146/146 142/142/142
f 162/162/162 166/166/166 146/146/146
f 161/161/161 170/170/170 230/230/230
f 161/161/161 230/230/230 221/221/221
f 160/160/160 220/220/220 226/226/226
f 160/160/160 226/226/226 165/165/165
f 255/255/255 263/263/263 203/203/203
f 255/255/255 203/203/203 196/196/196
f 172/172/172 190/190/190 145/145/145
f 172/172/172 196/196/196 190/190/190
f 243/243/243 166/166/166 227/227/227
f 243/243/243 172/172/172 166/166/166
f 243/243/243 250/250/250 272/272/272
f 243/243/243 272/272/272 255/255/255
f 243/243/243 255/255/255 196/196/196
f 243/243/243 196/196/196 172/172/172
f 195/195/195 201/201/201 188/188/188
f 274/274/274 256/256/256 265/265/265
f 192/192/192 205/205/205 197/197/197
f 252/252/252 229/229/229 244/244/244
f 168/168/168 147/147/147 173/173/173
f 254/254/254 270/270/270 260/260/260
f 171/171/171 143/143/143 164/164/164
f 231/231/231 224/224/224 248/248/248
f 206/206/206 202/202/202 261/261/261
f 206/206/206 261/261/261 266/266/266
f 256/256/256 244/244/244 173/173/173
f 256/256/256 173/173/173 197/197/197
f 256/256/256 205/205/205 265/265/265
f 256/256/256 197/197/197 205/205/205
f 273/273/273 265/265/265 259/259/259
f 273/273/273 259/259/259 269/269/269
f 192/192/192 197/197/197 173/173/173
f 192/192/192 173/173/173 147/147/147
f 193/193/193 144/144/144 189/189/189
f 193/193/193 148/148/148 144/144/144
f 193/193/193 201/201/201 207/207/207
f 193/193/193 189/189/189 201/201/201
f 251/251/251 222/222/222 229/229/229
f 251/251/251 247/247/247 222/222/222
f 252/252/252 244/244/244 256/256/256
f 252/252/252 256/256/256 274/274/274
f 251/251/251 273/273/273 269/269/269
f 251/251/251 269/269/269 247/247/247
f 169/169/169 144/144/144 148/148/148
f 169/169/169 164/164/164 144/144/144
f 168/168/168 173/173/173 244/244/244
f 168/168/168 244/244/244 229/229/229
f 167/167/167 228/228/228 223/223/223
f 167/167/167 223/223/223 163/163/163
f 254/254/254 260/260/260 201/201/201
f 254/254/254 201/201/201 195/195/195
f 171/171/171 188/188/188 143/143/143
f 171/171/171 195/195/195 188/188/188
f 231/231/231 164/164/164 224/224/224
f 231/231/231 171/171/171 164/164/164
f 231/231/231 248/248/248 270/270/270
f 231/231/231 270/270/270 254/254/254
f 231/231/231 254/254/254 195/195/195
f 231/231/231 195/195/195 171/171/171
f 293/293/293 283/283/283 275/275/275
f 361/361/361 354/354/354 347/347/347
f 279/279/279 288/288/288 295/295/295
f 406/406/406 386/386/386 378/378/378
f 326/326/326 301/301/301 318/318/318
f 352/352/352 357/357/357 343/343/343
f 305/305/305 297/297/297 321/321/321
f 376/376/376 382/382/382 402/402/402
f 289/289/289 284/284/284 344/344/344
f 289/289/289 344/344/344 348/348/348
f 354/354/354 378/378/378 318/318/318
f 354/354/354 318/318/318 295/295/295
f 354/354/354 288/288/288 347/347/347
f 354/354/354 295/295/295 288/288/288
f 360/360/360 347/347/347 342/342/342
f 360/360/360 342/342/342 356/356/356
f 279/279/279 295/295/295 318/318/318
f 279/279/279 318/318/318 301/301/301
f 280/280/280 298/298/298 276/276/276
f 280/280/280 302/302/302 298/298/298
f 280/280/280 283/283/283 290/290/290
f 280/280/280 276/276/276 283/283/283
f 405/405/405 380/380/380 386/386/386
f 405/405/405 401/401/401 380/380/380
f 406/406/406 378/378/378 354/354/354
f 406/406/406 354/354/354 361/361/361
f 405/405/405 360/360/360 356/356/356
f 405/405/405 356/356/356 401/401/401
f 327/327/327 298/298/298 302/302/302
f 327/327/327 321/321/321 298/298/298
f 326/326/326 318/318/318 378/378/378
f 326/326/326 378/378/378 386/386/386
f 325/325/325 385/385/385 381/381/381
f 325/325/325 381/381/381 320/320/320
f 352/352/352 343/343/343 283/283/283
f 352/352/352 283/283/283 293/293/293
f 305/305/305 275/275/275 297/297/297
f 305/305/305 293/293/293 275/275/275
f 376/376/376 321/321/321 382/382/382
f 376/376/376 305/305/305 321/321/321
f 376/376/376 402/402/402 357/357/357
f 376/376/376 357/357/357 352/352/352
f 376/376/376 352/352/352 293/293/293
f 376/376/376 293/293/293 305/305/305
f 296/296/296 291/291/291 281/281/281
f 359/359/359 353/353/353 345/345/345
f 277/277/277 285/285/285 294/294/294
f 404/404/404 384/384/384 377/377/377
f 323/323/323 299/299/299 306/306/306
f 355/355/355 363/363/363 350/350/350
f 319/319/319 303/303/303 329/329/329
f 379/379/379 389/389/389 408/408/408
f 286/286/286 292/292/292 351/351/351
f 286/286/286 351/351/351 346/346/346
f 353/353/353 377/377/377 306/306/306
f 353/353/353 306/306/306 294/294/294
f 353/353/353 285/285/285 345/345/345
f 353/353/353 294/294/294 285/285/285
f 358/358/358 345/345/345 349/349/349
f 358/358/358 349/349/349 362/362/362
f 277/277/277 294/294/294 306/306/306
f 277/277/277 306/306/306 299/299/299
f 278/278/278 304/304/304 282/282/282
f 278/278/278 300/300/300 304/304/304
f 278/278/278 291/291/291 287/287/287
f 278/278/278 282/282/282 291/291/291
f 403/403/403 387/387/387 384/384/384
f 403/403/403 407/407/407 387/387/387
f 404/404/404 377/377/377 353/353/353
f 404/404/404 353/353/353 359/359/359
f 403/403/403 358/358/358 362/362/362
f 403/403/403 362/362/362 407/407/407
f 324/324/324 304/304/304 300/300/300
f 324/324/324 329/329/329 304/304/304
f 323/323/323 306/306/306 377/377/377
f 323/323/323 377/377/377 384/384/384
f 322/322/322 383/383/383 388/388/388
f 322/322/322 388/388/388 328/328/328
f 355/355/355 350/350/350 291/291/291
f 355/355/355 291/291/291 296/296/296
f 319/319/319 281/281/281 303/303/303
f 319/319/319 296/296/296 281/281/281
f 379/379/379 329/329/329 389/389/389
f 379/379/379 319/319/319 329/329/329
f 379/379/379 408/408/408 363/363/363
f 379/379/379 363/363/363 355/355/355
f 379/379/379 355/355/355 296/296/296
f 379/379/379 296/296/296 319/319/319
f 178/178/178 175/175/175 152/152/152
f 214/214/214 238/238/238 218/218/218
f 234/234/234 211/211/211 208/208/208
f 184/184/184 154/154/154 180/180/180
f 150/150/150 174/174/174 177/177/177
f 212/212/212 236/236/236 209/209/209
f 182/182/182 157/157/157 185/185/185
f 216/216/216 219/219/219 241/241/241
f 174/174/174 175/175/175 209/209/209
f 174/174/174 209/209/209 208/208/208
f 211/211/211 174/174/174 208/208/208
f 211/211/211 177/177/177 174/174/174
f 215/215/215 176/176/176 210/210/210
f 215/215/215 181/181/181 176/176/176
f 234/234/234 208/208/208 209/209/209
f 234/234/234 209/209/209 236/236/236
f 232/232/232 235/235/235 240/240/240
f 232/232/232 240/240/240 237/237/237
f 233/233/233 215/215/215 210/210/210
f 233/233/233 239/239/239 215/215/215
f 219/219/219 238/238/238 241/241/241
f 219/219/219 218/218/218 238/238/238
f 184/184/184 218/218/218 219/219/219
f 184/184/184 219/219/219 185/185/185
f 184/184/184 185/185/185 157/157/157
f 184/184/184 157/157/157 154/154/154
f 184/184/184 180/180/180 214/214/214
f 184/184/184 214/214/214 218/218/218
f 149/149/149 176/176/176 181/181/181
f 149/149/149 181/181/181 155/155/155
f 151/151/151 156/156/156 159/159/159
f 151/151/151 159/159/159 153/153/153
f 150/150/150 175/175/175 174/174/174
f 150/150/150 152/152/152 175/175/175
f 212/212/212 209/209/209 175/175/175
f 212/212/212 175/175/175 178/178/178
f 183/183/183 152/152/152 158/158/158
f 183/183/183 179/179/179 152/152/152
f 216/216/216 185/185/185 219/219/219
f 216/216/216 182/182/182 185/185/185
f 217/217/217 242/242/242 236/236/236
f 217/217/217 236/236/236 213/213/213
f 217/217/217 213/213/213 179/179/179
f 217/217/217 179/179/179 183/183/183
f 334/334/334 331/331/331 310/310/310
f 370/370/370 396/396/396 374/374/374
f 392/392/392 367/367/367 364/364/364
f 340/340/340 312/312/312 336/336/336
f 308/308/308 330/330/330 333/333/333
f 368/368/368 394/394/394 365/365/365
f 338/338/338 315/315/315 341/341/341
f 372/372/372 375/375/375 399/399/399
f 330/330/330 331/331/331 365/365/365
f 330/330/330 365/365/365 364/364/364
f 367/367/367 330/330/330 364/364/364
f 367/367/367 333/333/333 330/330/330
f 371/371/371 332/332/332 366/366/366
f 371/371/371 337/337/337 332/332/332
f 392/392/392 364/364/364 365/365/365
f 392/392/392 365/365/365 394/394/394
f 390/390/390 393/393/393 398/398/398
f 390/390/390 398/398/398 395/395/395
f 391/391/391 371/371/371 366/366/366
f 391/391/391 397/397/397 371/371/371
f 375/375/375 396/396/396 399/399/399
f 375/375/375 374/374/374 396/396/396
f 340/340/340 374/374/374 375/375/375
f 340/340/340 375/375/375 341/341/341
f 340/340/340 341/341/341 315/315/315
f 340/340/340 315/315/315 312/312/312
f 340/340/340 336/336/336 370/370/370
f 340/340/340 370/370/370 374/374/374
f 307/307/307 332/332/332 337/337/337
f 307/307/307 337/337/337 313/313/313
f 309/309/309 314/314/314 317/317/317
f 309/309/309 317/317/317 311/311/311
f 308/308/308 331/331/331 330/330/330
f 308/308/308 310/310/310 331/331/331
f 368/368/368 365/365/365 331/331/331
f 368/368/368 331/331/331 334/334/334
f 339/339/339 310/310/310 316/316/316
f 339/339/339 335/335/335 310/310/310
f 372/372/372 341/341/341 375/375/375
f 372/372/372 338/338/338 341/341/341
f 373/373/373 400/400/400 394/394/394
f 373/373/373 394/394/394 369/369/369
f 373/373/373 369/369/369 335/335/335
f 373/373/373 335/335/335 339/339/339
f 25/25/25 17/17/17 29/29/29
f 507/507/507 502/502/502 548/548/548
f 37/37/37 42/42/42 20/20/20
f 547/547/547 499/499/499 505/505/505
f 34/34/34 19/19/19 40/40/40
f 27/27/27 32/32/32 18/18/18
f 489/489/489 493/493/493 545/545/545
f 491/491/491 546/546/546 497/497/497
f 19/19/19 17/17/17 18/18/18
f 19/19/19 18/18/18 20/20/20
f 42/42/42 19/19/19 20/20/20
f 42/42/42 40/40/40 19/19/19
f 508/508/508 39/39/39 41/41/41
f 508/508/508 506/506/506 39/39/39
f 37/37/37 20/20/20 18/18/18
f 37/37/37 18/18/18 32/32/32
f 38/38/38 31/31/31 496/496/496
f 38/38/38 496/496/496 504/504/504
f 36/36/36 508/508/508 41/41/41
f 36/36/36 503/503/503 508/508/508
f 546/546/546 502/502/502 497/497/497
f 546/546/546 548/548/548 502/502/502
f 547/547/547 548/548/548 546/546/546
f 547/547/547 546/546/546 545/545/545
f 547/547/547 545/545/545 493/493/493
f 547/547/547 493/493/493 499/499/499
f 547/547/547 505/505/505 507/507/507
f 547/547/547 507/507/507 548/548/548
f 33/33/33 39/39/39 506/506/506
f 33/33/33 506/506/506 500/500/500
f 35/35/35 501/501/501 495/495/495
f 35/35/35 495/495/495 30/30/30
f 34/34/34 17/17/17 19/19/19
f 34/34/34 29/29/29 17/17/17
f 27/27/27 18/18/18 17/17/17
f 27/27/27 17/17/17 25/25/25
f 490/490/490 29/29/29 494/494/494
f 490/490/490 26/26/26 29/29/29
f 491/491/491 545/545/545 546/546/546
f 491/491/491 489/489/489 545/545/545
f 492/492/492 498/498/498 32/32/32
f 492/492/492 32/32/32 28/28/28
f 492/492/492 28/28/28 26/26/26
f 492/492/492 26/26/26 490/490/490
f 43/43/43 21/21/21 47/47/47
f 527/527/527 522/522/522 552/552/552
f 55/55/55 60/60/60 24/24/24
f 551/551/551 519/519/519 525/525/525
f 52/52/52 23/23/23 58/58/58
f 45/45/45 50/50/50 22/22/22
f 509/509/509 513/513/513 549/549/549
f 511/511/511 550/550/550 517/517/517
f 23/23/23 21/21/21 22/22/22
f 23/23/23 22/22/22 24/24/24
f 60/60/60 23/23/23 24/24/24
f 60/60/60 58/58/58 23/23/23
f 528/528/528 57/57/57 59/59/59
f 528/528/528 526/526/526 57/57/57
f 55/55/55 24/24/24 22/22/22
f 55/55/55 22/22/22 50/50/50
f 56/56/56 49/49/49 516/516/516
f 56/56/56 516/516/516 524/524/524
f 54/54/54 528/528/528 59/59/59
f 54/54/54 523/523/523 528/528/528
f 550/550/550 522/522/522 517/517/517
f 550/550/550 552/552/552 522/522/522
f 551/551/551 552/552/552 550/550/550
f 551/551/551 550/550/550 549/549/549
f 551/551/551 549/549/549 513/513/513
f 551/551/551 513/513/513 519/519/519
f 551/551/551 525/525/525 527/527/527
f 551/551/551 527/527/527 552/552/552
f 51/51/51 57/57/57 526/526/526
f 51/51/51 526/526/526 520/520/520
f 53/53/53 521/521/521 515/515/515
f 53/53/53 515/515/515 48/48/48
f 52/52/52 21/21/21 23/23/23
f 52/52/52 47/47/47 21/21/21
f 45/45/45 22/22/22 21/21/21
f 45/45/45 21/21/21 43/43/43
f 510/510/510 47/47/47 514/514/514
f 510/510/510 44/44/44 47/47/47
f 511/511/511 549/549/549 550/550/550
f 511/511/511 509/509/509 549/549/549
f 512/512/512 518/518/518 50/50/50
f 512/512/512 50/50/50 46/46/46
f 512/512/512 46/46/46 44/44/44
f 512/512/512 44/44/44 510/510/510
