# metres; Y up; ground-centred pivot
mtllib 07_Farola.mtl
v -0.4800000 0.0500000 -0.1500000
v -0.4800000 0.0500000 0.1500000
v -0.4800000 0.1900000 -0.1500000
v -0.4800000 0.1900000 0.1500000
v -0.4300000 0.0000000 -0.1500000
v -0.4300000 0.0000000 -0.1500000
v -0.4300000 0.0000000 0.1500000
v -0.4300000 0.0000000 0.1500000
v -0.4300000 0.0000000 0.1500000
v -0.4300000 0.0500000 -0.2000000
v -0.4300000 0.0500000 -0.2000000
v -0.4300000 0.0500000 0.2000000
v -0.4300000 0.0500000 0.2000000
v -0.4300000 0.1900000 -0.2000000
v -0.4300000 0.1900000 -0.2000000
v -0.4300000 0.1900000 0.2000000
v -0.4300000 0.1900000 0.2000000
v -0.4300000 0.2400000 -0.1500000
v -0.4300000 0.2400000 -0.1500000
v -0.4300000 0.2400000 0.1500000
v -0.4300000 0.2400000 0.1500000
v -0.4300000 0.2400000 0.1500000
v -0.3700000 0.0300000 -0.0600000
v -0.3700000 0.0300000 0.0600000
v -0.3700000 2.8100000 -0.0600000
v -0.3700000 2.8100000 0.0600000
v -0.3400000 0.0000000 -0.0600000
v -0.3400000 0.0000000 -0.0600000
v -0.3400000 0.0000000 0.0600000
v -0.3400000 0.0000000 0.0600000
v -0.3400000 0.0000000 0.0600000
v -0.3400000 0.0300000 -0.0900000
v -0.3400000 0.0300000 -0.0900000
v -0.3400000 0.0300000 0.0900000
v -0.3400000 0.0300000 0.0900000
v -0.3400000 2.8100000 -0.0900000
v -0.3400000 2.8100000 -0.0900000
v -0.3400000 2.8100000 0.0900000
v -0.3400000 2.8100000 0.0900000
v -0.3400000 2.8400000 -0.0600000
v -0.3400000 2.8400000 -0.0600000
v -0.3400000 2.8400000 0.0600000
v -0.3400000 2.8400000 0.0600000
v -0.3400000 2.8400000 0.0600000
v -0.3063621 2.1310786 -0.0232000
v -0.3063621 2.1310786 -0.0232000
v -0.3063621 2.1310786 0.0232000
v -0.3063621 2.1310786 0.0232000
v -0.3037384 2.1074651 -0.0232000
v -0.3037384 2.1074651 0.0232000
v -0.2932435 2.1205837 -0.0400000
v -0.2932435 2.1205837 -0.0400000
v -0.2932435 2.1205837 -0.0400000
v -0.2932435 2.1205837 0.0400000
v -0.2932435 2.1205837 0.0400000
v -0.2932435 2.1205837 0.0400000
v -0.2890000 2.6350000 -0.0350000
v -0.2890000 2.6350000 -0.0350000
v -0.2890000 2.6350000 0.0350000
v -0.2890000 2.6350000 0.0350000
v -0.2890000 2.6350000 0.0350000
v -0.2890000 2.7250000 -0.0350000
v -0.2890000 2.7250000 -0.0350000
v -0.2890000 2.7250000 -0.0350000
v -0.2890000 2.7250000 0.0350000
v -0.2890000 2.7250000 0.0350000
v -0.2890000 2.7250000 0.0350000
v -0.2675061 2.0784793 -0.0232000
v -0.2675061 2.0784793 0.0232000
v -0.2640000 2.6100000 -0.0350000
v -0.2640000 2.6100000 0.0350000
v -0.2640000 2.6350000 -0.0600000
v -0.2640000 2.6350000 -0.0600000
v -0.2640000 2.6350000 0.0600000
v -0.2640000 2.6350000 0.0600000
v -0.2640000 2.7250000 -0.0600000
v -0.2640000 2.7250000 -0.0600000
v -0.2640000 2.7250000 0.0600000
v -0.2640000 2.7250000 0.0600000
v -0.2640000 2.7500000 -0.0350000
v -0.2640000 2.7500000 0.0350000
v -0.2570112 2.0915979 -0.0400000
v -0.2570112 2.0915979 -0.0400000
v -0.2570112 2.0915979 0.0400000
v -0.2570112 2.0915979 0.0400000
v -0.2438926 2.0811030 -0.0232000
v -0.2438926 2.0811030 -0.0232000
v -0.2438926 2.0811030 0.0232000
v -0.2438926 2.0811030 0.0232000
v -0.2200000 0.0000000 -0.0600000
v -0.2200000 0.0000000 -0.0600000
v -0.2200000 0.0000000 -0.0600000
v -0.2200000 0.0000000 0.0600000
v -0.2200000 0.0000000 0.0600000
v -0.2200000 0.0300000 -0.0900000
v -0.2200000 0.0300000 -0.0900000
v -0.2200000 0.0300000 0.0900000
v -0.2200000 0.0300000 0.0900000
v -0.2200000 2.8100000 -0.0900000
v -0.2200000 2.8100000 -0.0900000
v -0.2200000 2.8100000 0.0900000
v -0.2200000 2.8100000 0.0900000
v -0.2200000 2.8400000 -0.0600000
v -0.2200000 2.8400000 -0.0600000
v -0.2200000 2.8400000 -0.0600000
v -0.2200000 2.8400000 0.0600000
v -0.2200000 2.8400000 0.0600000
v -0.1900000 0.0300000 -0.0600000
v -0.1900000 0.0300000 0.0600000
v -0.1900000 2.8100000 -0.0600000
v -0.1900000 2.8100000 0.0600000
v -0.1300000 0.0000000 -0.1500000
v -0.1300000 0.0000000 -0.1500000
v -0.1300000 0.0000000 -0.1500000
v -0.1300000 0.0000000 0.1500000
v -0.1300000 0.0000000 0.1500000
v -0.1300000 0.0500000 -0.2000000
v -0.1300000 0.0500000 -0.2000000
v -0.1300000 0.0500000 0.2000000
v -0.1300000 0.0500000 0.2000000
v -0.1300000 0.1900000 -0.2000000
v -0.1300000 0.1900000 -0.2000000
v -0.1300000 0.1900000 0.2000000
v -0.1300000 0.1900000 0.2000000
v -0.1300000 0.2400000 -0.1500000
v -0.1300000 0.2400000 -0.1500000
v -0.1300000 0.2400000 -0.1500000
v -0.1300000 0.2400000 0.1500000
v -0.1300000 0.2400000 0.1500000
v -0.0800000 0.0500000 -0.1500000
v -0.0800000 0.0500000 0.1500000
v -0.0800000 0.1900000 -0.1500000
v -0.0800000 0.1900000 0.1500000
v 0.1238926 2.6688970 -0.0232000
v 0.1238926 2.6688970 -0.0232000
v 0.1238926 2.6688970 0.0232000
v 0.1238926 2.6688970 0.0232000
v 0.1370112 2.6584021 -0.0400000
v 0.1370112 2.6584021 -0.0400000
v 0.1370112 2.6584021 -0.0400000
v 0.1370112 2.6584021 0.0400000
v 0.1370112 2.6584021 0.0400000
v 0.1370112 2.6584021 0.0400000
v 0.1400000 1.9697000 -0.1553000
v 0.1400000 1.9697000 0.1553000
v 0.1400000 2.0103000 -0.1553000
v 0.1400000 2.0103000 0.1553000
v 0.1402944 2.4600000 -0.1697056
v 0.1402944 2.4600000 -0.1697056
v 0.1402944 2.4600000 0.1697056
v 0.1402944 2.4600000 0.1697056
v 0.1475061 2.6715207 -0.0232000
v 0.1475061 2.6715207 0.0232000
v 0.1547000 1.9550000 -0.1553000
v 0.1547000 1.9550000 -0.1553000
v 0.1547000 1.9550000 0.1553000
v 0.1547000 1.9550000 0.1553000
v 0.1547000 1.9550000 0.1553000
v 0.1547000 1.9697000 -0.1700000
v 0.1547000 1.9697000 -0.1700000
v 0.1547000 1.9697000 0.1700000
v 0.1547000 1.9697000 0.1700000
v 0.1547000 2.0103000 -0.1700000
v 0.1547000 2.0103000 -0.1700000
v 0.1547000 2.0103000 0.1700000
v 0.1547000 2.0103000 0.1700000
v 0.1547000 2.0250000 -0.1553000
v 0.1547000 2.0250000 -0.1553000
v 0.1547000 2.0250000 0.1553000
v 0.1547000 2.0250000 0.1553000
v 0.1547000 2.0250000 0.1553000
v 0.1625000 2.0223500 -0.1401500
v 0.1625000 2.0223500 -0.1401500
v 0.1625000 2.0223500 -0.1198500
v 0.1625000 2.0223500 -0.1198500
v 0.1625000 2.0223500 0.1198500
v 0.1625000 2.0223500 0.1198500
v 0.1625000 2.0223500 0.1401500
v 0.1625000 2.0223500 0.1401500
v 0.1625000 2.4376500 -0.1401500
v 0.1625000 2.4376500 -0.1401500
v 0.1625000 2.4376500 -0.1198500
v 0.1625000 2.4376500 -0.1198500
v 0.1625000 2.4376500 0.1198500
v 0.1625000 2.4376500 0.1198500
v 0.1625000 2.4376500 0.1401500
v 0.1625000 2.4376500 0.1401500
v 0.1698500 2.0150000 -0.1401500
v 0.1698500 2.0150000 -0.1198500
v 0.1698500 2.0150000 0.1198500
v 0.1698500 2.0150000 0.1401500
v 0.1698500 2.0223500 -0.1475000
v 0.1698500 2.0223500 -0.1475000
v 0.1698500 2.0223500 -0.1125000
v 0.1698500 2.0223500 -0.1125000
v 0.1698500 2.0223500 0.1125000
v 0.1698500 2.0223500 0.1125000
v 0.1698500 2.0223500 0.1475000
v 0.1698500 2.0223500 0.1475000
v 0.1698500 2.4376500 -0.1475000
v 0.1698500 2.4376500 -0.1475000
v 0.1698500 2.4376500 -0.1475000
v 0.1698500 2.4376500 -0.1125000
v 0.1698500 2.4376500 -0.1125000
v 0.1698500 2.4376500 -0.1125000
v 0.1698500 2.4376500 0.1125000
v 0.1698500 2.4376500 0.1125000
v 0.1698500 2.4376500 0.1125000
v 0.1698500 2.4376500 0.1475000
v 0.1698500 2.4376500 0.1475000
v 0.1698500 2.4376500 0.1475000
v 0.1698500 2.4450000 -0.1401500
v 0.1698500 2.4450000 -0.1198500
v 0.1698500 2.4450000 0.1198500
v 0.1698500 2.4450000 0.1401500
v 0.1732435 2.6294163 -0.0400000
v 0.1732435 2.6294163 -0.0400000
v 0.1732435 2.6294163 -0.0400000
v 0.1732435 2.6294163 0.0400000
v 0.1732435 2.6294163 0.0400000
v 0.1732435 2.6294163 0.0400000
v 0.1837384 2.6425349 -0.0232000
v 0.1837384 2.6425349 0.0232000
v 0.1863621 2.6189214 -0.0232000
v 0.1863621 2.6189214 -0.0232000
v 0.1863621 2.6189214 0.0232000
v 0.1863621 2.6189214 0.0232000
v 0.1900000 2.0700000 -0.1000000
v 0.1900000 2.0700000 -0.1000000
v 0.1900000 2.0700000 0.1000000
v 0.1900000 2.0700000 0.1000000
v 0.1900000 2.3900000 -0.1000000
v 0.1900000 2.3900000 -0.1000000
v 0.1900000 2.3900000 0.1000000
v 0.1900000 2.3900000 0.1000000
v 0.1901500 2.0150000 -0.1401500
v 0.1901500 2.0150000 -0.1198500
v 0.1901500 2.0150000 0.1198500
v 0.1901500 2.0150000 0.1401500
v 0.1901500 2.0223500 -0.1475000
v 0.1901500 2.0223500 -0.1475000
v 0.1901500 2.0223500 -0.1475000
v 0.1901500 2.0223500 -0.1125000
v 0.1901500 2.0223500 -0.1125000
v 0.1901500 2.0223500 -0.1125000
v 0.1901500 2.0223500 0.1125000
v 0.1901500 2.0223500 0.1125000
v 0.1901500 2.0223500 0.1125000
v 0.1901500 2.0223500 0.1475000
v 0.1901500 2.0223500 0.1475000
v 0.1901500 2.0223500 0.1475000
v 0.1901500 2.4376500 -0.1475000
v 0.1901500 2.4376500 -0.1475000
v 0.1901500 2.4376500 -0.1475000
v 0.1901500 2.4376500 -0.1125000
v 0.1901500 2.4376500 -0.1125000
v 0.1901500 2.4376500 -0.1125000
v 0.1901500 2.4376500 0.1125000
v 0.1901500 2.4376500 0.1125000
v 0.1901500 2.4376500 0.1125000
v 0.1901500 2.4376500 0.1475000
v 0.1901500 2.4376500 0.1475000
v 0.1901500 2.4376500 0.1475000
v 0.1901500 2.4450000 -0.1401500
v 0.1901500 2.4450000 -0.1198500
v 0.1901500 2.4450000 0.1198500
v 0.1901500 2.4450000 0.1401500
v 0.1975000 2.0223500 -0.1401500
v 0.1975000 2.0223500 -0.1401500
v 0.1975000 2.0223500 -0.1198500
v 0.1975000 2.0223500 -0.1198500
v 0.1975000 2.0223500 0.1198500
v 0.1975000 2.0223500 0.1198500
v 0.1975000 2.0223500 0.1401500
v 0.1975000 2.0223500 0.1401500
v 0.1975000 2.4376500 -0.1401500
v 0.1975000 2.4376500 -0.1401500
v 0.1975000 2.4376500 -0.1198500
v 0.1975000 2.4376500 -0.1198500
v 0.1975000 2.4376500 0.1198500
v 0.1975000 2.4376500 0.1198500
v 0.1975000 2.4376500 0.1401500
v 0.1975000 2.4376500 0.1401500
v 0.2100000 2.0500000 -0.1000000
v 0.2100000 2.0500000 0.1000000
v 0.2100000 2.0700000 -0.1200000
v 0.2100000 2.0700000 -0.1200000
v 0.2100000 2.0700000 0.1200000
v 0.2100000 2.0700000 0.1200000
v 0.2100000 2.3900000 -0.1200000
v 0.2100000 2.3900000 -0.1200000
v 0.2100000 2.3900000 -0.1200000
v 0.2100000 2.3900000 0.1200000
v 0.2100000 2.3900000 0.1200000
v 0.2100000 2.3900000 0.1200000
v 0.2100000 2.4100000 -0.1000000
v 0.2100000 2.4100000 0.1000000
v 0.2110051 2.6000000 -0.0989949
v 0.2110051 2.6000000 0.0989949
v 0.2500000 2.6700000 -0.0120000
v 0.2500000 2.6700000 -0.0120000
v 0.2500000 2.6700000 0.0120000
v 0.2500000 2.6700000 0.0120000
v 0.2511529 2.6582946 -0.0120000
v 0.2511529 2.6582946 -0.0120000
v 0.2511529 2.6582946 0.0120000
v 0.2511529 2.6582946 0.0120000
v 0.2511529 2.6817054 -0.0120000
v 0.2511529 2.6817054 -0.0120000
v 0.2511529 2.6817054 0.0120000
v 0.2511529 2.6817054 0.0120000
v 0.2545672 2.6470390 -0.0120000
v 0.2545672 2.6470390 -0.0120000
v 0.2545672 2.6470390 0.0120000
v 0.2545672 2.6470390 0.0120000
v 0.2545672 2.6929610 -0.0120000
v 0.2545672 2.6929610 -0.0120000
v 0.2545672 2.6929610 0.0120000
v 0.2545672 2.6929610 0.0120000
v 0.2601118 2.6366658 -0.0120000
v 0.2601118 2.6366658 -0.0120000
v 0.2601118 2.6366658 0.0120000
v 0.2601118 2.6366658 0.0120000
v 0.2601118 2.7033342 -0.0120000
v 0.2601118 2.7033342 -0.0120000
v 0.2601118 2.7033342 0.0120000
v 0.2601118 2.7033342 0.0120000
v 0.2650000 2.6700000 -0.0120000
v 0.2650000 2.6700000 -0.0120000
v 0.2650000 2.6700000 0.0120000
v 0.2650000 2.6700000 0.0120000
v 0.2658647 2.6612209 -0.0120000
v 0.2658647 2.6612209 -0.0120000
v 0.2658647 2.6612209 0.0120000
v 0.2658647 2.6612209 0.0120000
v 0.2658647 2.6787791 -0.0120000
v 0.2658647 2.6787791 -0.0120000
v 0.2658647 2.6787791 0.0120000
v 0.2658647 2.6787791 0.0120000
v 0.2675736 2.6275736 -0.0120000
v 0.2675736 2.6275736 -0.0120000
v 0.2675736 2.6275736 0.0120000
v 0.2675736 2.6275736 0.0120000
v 0.2675736 2.7124264 -0.0120000
v 0.2675736 2.7124264 -0.0120000
v 0.2675736 2.7124264 0.0120000
v 0.2675736 2.7124264 0.0120000
v 0.2684254 2.6527792 -0.0120000
v 0.2684254 2.6527792 -0.0120000
v 0.2684254 2.6527792 0.0120000
v 0.2684254 2.6527792 0.0120000
v 0.2684254 2.6872208 -0.0120000
v 0.2684254 2.6872208 -0.0120000
v 0.2684254 2.6872208 0.0120000
v 0.2684254 2.6872208 0.0120000
v 0.2725839 2.6449993 -0.0120000
v 0.2725839 2.6449993 -0.0120000
v 0.2725839 2.6449993 0.0120000
v 0.2725839 2.6449993 0.0120000
v 0.2725839 2.6950007 -0.0120000
v 0.2725839 2.6950007 -0.0120000
v 0.2725839 2.6950007 0.0120000
v 0.2725839 2.6950007 0.0120000
v 0.2766658 2.6201118 -0.0120000
v 0.2766658 2.6201118 -0.0120000
v 0.2766658 2.6201118 0.0120000
v 0.2766658 2.6201118 0.0120000
v 0.2766658 2.7198882 -0.0120000
v 0.2766658 2.7198882 -0.0120000
v 0.2766658 2.7198882 0.0120000
v 0.2766658 2.7198882 0.0120000
v 0.2781802 2.6381802 -0.0120000
v 0.2781802 2.6381802 -0.0120000
v 0.2781802 2.6381802 0.0120000
v 0.2781802 2.6381802 0.0120000
v 0.2781802 2.7018198 -0.0120000
v 0.2781802 2.7018198 -0.0120000
v 0.2781802 2.7018198 0.0120000
v 0.2781802 2.7018198 0.0120000
v 0.2849993 2.6325839 -0.0120000
v 0.2849993 2.6325839 -0.0120000
v 0.2849993 2.6325839 0.0120000
v 0.2849993 2.6325839 0.0120000
v 0.2849993 2.7074161 -0.0120000
v 0.2849993 2.7074161 -0.0120000
v 0.2849993 2.7074161 0.0120000
v 0.2849993 2.7074161 0.0120000
v 0.2870390 2.6145672 -0.0120000
v 0.2870390 2.6145672 -0.0120000
v 0.2870390 2.6145672 0.0120000
v 0.2870390 2.6145672 0.0120000
v 0.2870390 2.7254328 -0.0120000
v 0.2870390 2.7254328 -0.0120000
v 0.2870390 2.7254328 0.0120000
v 0.2870390 2.7254328 0.0120000
v 0.2927792 2.6284254 -0.0120000
v 0.2927792 2.6284254 -0.0120000
v 0.2927792 2.6284254 0.0120000
v 0.2927792 2.6284254 0.0120000
v 0.2927792 2.7115746 -0.0120000
v 0.2927792 2.7115746 -0.0120000
v 0.2927792 2.7115746 0.0120000
v 0.2927792 2.7115746 0.0120000
v 0.2982946 2.6111529 -0.0120000
v 0.2982946 2.6111529 -0.0120000
v 0.2982946 2.6111529 0.0120000
v 0.2982946 2.6111529 0.0120000
v 0.2982946 2.7288471 -0.0120000
v 0.2982946 2.7288471 -0.0120000
v 0.2982946 2.7288471 0.0120000
v 0.2982946 2.7288471 0.0120000
v 0.3012209 2.6258647 -0.0120000
v 0.3012209 2.6258647 -0.0120000
v 0.3012209 2.6258647 0.0120000
v 0.3012209 2.6258647 0.0120000
v 0.3012209 2.7141353 -0.0120000
v 0.3012209 2.7141353 -0.0120000
v 0.3012209 2.7141353 0.0120000
v 0.3012209 2.7141353 0.0120000
v 0.3100000 2.4600000 0.0000000
v 0.3100000 2.6100000 -0.0120000
v 0.3100000 2.6100000 -0.0120000
v 0.3100000 2.6100000 0.0120000
v 0.3100000 2.6100000 0.0120000
v 0.3100000 2.6200000 0.0000000
v 0.3100000 2.6200000 0.0000000
v 0.3100000 2.6200000 0.0000000
v 0.3100000 2.6200000 0.0000000
v 0.3100000 2.6250000 -0.0120000
v 0.3100000 2.6250000 -0.0120000
v 0.3100000 2.6250000 0.0120000
v 0.3100000 2.6250000 0.0120000
v 0.3100000 2.7150000 -0.0120000
v 0.3100000 2.7150000 -0.0120000
v 0.3100000 2.7150000 0.0120000
v 0.3100000 2.7150000 0.0120000
v 0.3100000 2.7300000 -0.0120000
v 0.3100000 2.7300000 -0.0120000
v 0.3100000 2.7300000 0.0120000
v 0.3100000 2.7300000 0.0120000
v 0.3187791 2.6258647 -0.0120000
v 0.3187791 2.6258647 -0.0120000
v 0.3187791 2.6258647 0.0120000
v 0.3187791 2.6258647 0.0120000
v 0.3187791 2.7141353 -0.0120000
v 0.3187791 2.7141353 -0.0120000
v 0.3187791 2.7141353 0.0120000
v 0.3187791 2.7141353 0.0120000
v 0.3217054 2.6111529 -0.0120000
v 0.3217054 2.6111529 -0.0120000
v 0.3217054 2.6111529 0.0120000
v 0.3217054 2.6111529 0.0120000
v 0.3217054 2.7288471 -0.0120000
v 0.3217054 2.7288471 -0.0120000
v 0.3217054 2.7288471 0.0120000
v 0.3217054 2.7288471 0.0120000
v 0.3272208 2.6284254 -0.0120000
v 0.3272208 2.6284254 -0.0120000
v 0.3272208 2.6284254 0.0120000
v 0.3272208 2.6284254 0.0120000
v 0.3272208 2.7115746 -0.0120000
v 0.3272208 2.7115746 -0.0120000
v 0.3272208 2.7115746 0.0120000
v 0.3272208 2.7115746 0.0120000
v 0.3329610 2.6145672 -0.0120000
v 0.3329610 2.6145672 -0.0120000
v 0.3329610 2.6145672 0.0120000
v 0.3329610 2.6145672 0.0120000
v 0.3329610 2.7254328 -0.0120000
v 0.3329610 2.7254328 -0.0120000
v 0.3329610 2.7254328 0.0120000
v 0.3329610 2.7254328 0.0120000
v 0.3350007 2.6325839 -0.0120000
v 0.3350007 2.6325839 -0.0120000
v 0.3350007 2.6325839 0.0120000
v 0.3350007 2.6325839 0.0120000
v 0.3350007 2.7074161 -0.0120000
v 0.3350007 2.7074161 -0.0120000
v 0.3350007 2.7074161 0.0120000
v 0.3350007 2.7074161 0.0120000
v 0.3418198 2.6381802 -0.0120000
v 0.3418198 2.6381802 -0.0120000
v 0.3418198 2.6381802 0.0120000
v 0.3418198 2.6381802 0.0120000
v 0.3418198 2.7018198 -0.0120000
v 0.3418198 2.7018198 -0.0120000
v 0.3418198 2.7018198 0.0120000
v 0.3418198 2.7018198 0.0120000
v 0.3433342 2.6201118 -0.0120000
v 0.3433342 2.6201118 -0.0120000
v 0.3433342 2.6201118 0.0120000
v 0.3433342 2.6201118 0.0120000
v 0.3433342 2.7198882 -0.0120000
v 0.3433342 2.7198882 -0.0120000
v 0.3433342 2.7198882 0.0120000
v 0.3433342 2.7198882 0.0120000
v 0.3474161 2.6449993 -0.0120000
v 0.3474161 2.6449993 -0.0120000
v 0.3474161 2.6449993 0.0120000
v 0.3474161 2.6449993 0.0120000
v 0.3474161 2.6950007 -0.0120000
v 0.3474161 2.6950007 -0.0120000
v 0.3474161 2.6950007 0.0120000
v 0.3474161 2.6950007 0.0120000
v 0.3515746 2.6527792 -0.0120000
v 0.3515746 2.6527792 -0.0120000
v 0.3515746 2.6527792 0.0120000
v 0.3515746 2.6527792 0.0120000
v 0.3515746 2.6872208 -0.0120000
v 0.3515746 2.6872208 -0.0120000
v 0.3515746 2.6872208 0.0120000
v 0.3515746 2.6872208 0.0120000
v 0.3524264 2.6275736 -0.0120000
v 0.3524264 2.6275736 -0.0120000
v 0.3524264 2.6275736 0.0120000
v 0.3524264 2.6275736 0.0120000
v 0.3524264 2.7124264 -0.0120000
v 0.3524264 2.7124264 -0.0120000
v 0.3524264 2.7124264 0.0120000
v 0.3524264 2.7124264 0.0120000
v 0.3540000 2.6100000 -0.0350000
v 0.3540000 2.6100000 0.0350000
v 0.3540000 2.6350000 -0.0600000
v 0.3540000 2.6350000 -0.0600000
v 0.3540000 2.6350000 0.0600000
v 0.3540000 2.6350000 0.0600000
v 0.3540000 2.7250000 -0.0600000
v 0.3540000 2.7250000 -0.0600000
v 0.3540000 2.7250000 0.0600000
v 0.3540000 2.7250000 0.0600000
v 0.3540000 2.7500000 -0.0350000
v 0.3540000 2.7500000 0.0350000
v 0.3541353 2.6612209 -0.0120000
v 0.3541353 2.6612209 -0.0120000
v 0.3541353 2.6612209 0.0120000
v 0.3541353 2.6612209 0.0120000
v 0.3541353 2.6787791 -0.0120000
v 0.3541353 2.6787791 -0.0120000
v 0.3541353 2.6787791 0.0120000
v 0.3541353 2.6787791 0.0120000
v 0.3550000 2.6700000 -0.0120000
v 0.3550000 2.6700000 -0.0120000
v 0.3550000 2.6700000 -0.0120000
v 0.3550000 2.6700000 0.0120000
v 0.3550000 2.6700000 0.0120000
v 0.3550000 2.6700000 0.0120000
v 0.3598882 2.6366658 -0.0120000
v 0.3598882 2.6366658 -0.0120000
v 0.3598882 2.6366658 0.0120000
v 0.3598882 2.6366658 0.0120000
v 0.3598882 2.7033342 -0.0120000
v 0.3598882 2.7033342 -0.0120000
v 0.3598882 2.7033342 0.0120000
v 0.3598882 2.7033342 0.0120000
v 0.3654328 2.6470390 -0.0120000
v 0.3654328 2.6470390 -0.0120000
v 0.3654328 2.6470390 0.0120000
v 0.3654328 2.6470390 0.0120000
v 0.3654328 2.6929610 -0.0120000
v 0.3654328 2.6929610 -0.0120000
v 0.3654328 2.6929610 0.0120000
v 0.3654328 2.6929610 0.0120000
v 0.3688471 2.6582946 -0.0120000
v 0.3688471 2.6582946 -0.0120000
v 0.3688471 2.6582946 0.0120000
v 0.3688471 2.6582946 0.0120000
v 0.3688471 2.6817054 -0.0120000
v 0.3688471 2.6817054 -0.0120000
v 0.3688471 2.6817054 0.0120000
v 0.3688471 2.6817054 0.0120000
v 0.3700000 2.6700000 -0.0120000
v 0.3700000 2.6700000 -0.0120000
v 0.3700000 2.6700000 -0.0120000
v 0.3700000 2.6700000 0.0120000
v 0.3700000 2.6700000 0.0120000
v 0.3700000 2.6700000 0.0120000
v 0.3790000 2.6350000 -0.0350000
v 0.3790000 2.6350000 -0.0350000
v 0.3790000 2.6350000 0.0350000
v 0.3790000 2.6350000 0.0350000
v 0.3790000 2.6350000 0.0350000
v 0.3790000 2.7250000 -0.0350000
v 0.3790000 2.7250000 -0.0350000
v 0.3790000 2.7250000 -0.0350000
v 0.3790000 2.7250000 0.0350000
v 0.3790000 2.7250000 0.0350000
v 0.3790000 2.7250000 0.0350000
v 0.4089949 2.6000000 -0.0989949
v 0.4089949 2.6000000 -0.0989949
v 0.4089949 2.6000000 0.0989949
v 0.4100000 2.0500000 -0.1000000
v 0.4100000 2.0500000 0.1000000
v 0.4100000 2.0700000 -0.1200000
v 0.4100000 2.0700000 -0.1200000
v 0.4100000 2.0700000 -0.1200000
v 0.4100000 2.0700000 0.1200000
v 0.4100000 2.0700000 0.1200000
v 0.4100000 2.0700000 0.1200000
v 0.4100000 2.3900000 -0.1200000
v 0.4100000 2.3900000 -0.1200000
v 0.4100000 2.3900000 -0.1200000
v 0.4100000 2.3900000 0.1200000
v 0.4100000 2.3900000 0.1200000
v 0.4100000 2.3900000 0.1200000
v 0.4100000 2.4100000 -0.1000000
v 0.4100000 2.4100000 0.1000000
v 0.4225000 2.0223500 -0.1401500
v 0.4225000 2.0223500 -0.1401500
v 0.4225000 2.0223500 -0.1198500
v 0.4225000 2.0223500 -0.1198500
v 0.4225000 2.0223500 0.1198500
v 0.4225000 2.0223500 0.1198500
v 0.4225000 2.0223500 0.1401500
v 0.4225000 2.0223500 0.1401500
v 0.4225000 2.4376500 -0.1401500
v 0.4225000 2.4376500 -0.1401500
v 0.4225000 2.4376500 -0.1198500
v 0.4225000 2.4376500 -0.1198500
v 0.4225000 2.4376500 0.1198500
v 0.4225000 2.4376500 0.1198500
v 0.4225000 2.4376500 0.1401500
v 0.4225000 2.4376500 0.1401500
v 0.4298500 2.0150000 -0.1401500
v 0.4298500 2.0150000 -0.1198500
v 0.4298500 2.0150000 0.1198500
v 0.4298500 2.0150000 0.1401500
v 0.4298500 2.0223500 -0.1475000
v 0.4298500 2.0223500 -0.1475000
v 0.4298500 2.0223500 -0.1125000
v 0.4298500 2.0223500 -0.1125000
v 0.4298500 2.0223500 0.1125000
v 0.4298500 2.0223500 0.1125000
v 0.4298500 2.0223500 0.1475000
v 0.4298500 2.0223500 0.1475000
v 0.4298500 2.4376500 -0.1475000
v 0.4298500 2.4376500 -0.1475000
v 0.4298500 2.4376500 -0.1475000
v 0.4298500 2.4376500 -0.1125000
v 0.4298500 2.4376500 -0.1125000
v 0.4298500 2.4376500 -0.1125000
v 0.4298500 2.4376500 0.1125000
v 0.4298500 2.4376500 0.1125000
v 0.4298500 2.4376500 0.1125000
v 0.4298500 2.4376500 0.1475000
v 0.4298500 2.4376500 0.1475000
v 0.4298500 2.4376500 0.1475000
v 0.4298500 2.4450000 -0.1401500
v 0.4298500 2.4450000 -0.1198500
v 0.4298500 2.4450000 0.1198500
v 0.4298500 2.4450000 0.1401500
v 0.4300000 2.0700000 -0.1000000
v 0.4300000 2.0700000 -0.1000000
v 0.4300000 2.0700000 0.1000000
v 0.4300000 2.0700000 0.1000000
v 0.4300000 2.3900000 -0.1000000
v 0.4300000 2.3900000 -0.1000000
v 0.4300000 2.3900000 0.1000000
v 0.4300000 2.3900000 0.1000000
v 0.4501500 2.0150000 -0.1401500
v 0.4501500 2.0150000 -0.1198500
v 0.4501500 2.0150000 0.1198500
v 0.4501500 2.0150000 0.1401500
v 0.4501500 2.0223500 -0.1475000
v 0.4501500 2.0223500 -0.1475000
v 0.4501500 2.0223500 -0.1475000
v 0.4501500 2.0223500 -0.1125000
v 0.4501500 2.0223500 -0.1125000
v 0.4501500 2.0223500 -0.1125000
v 0.4501500 2.0223500 0.1125000
v 0.4501500 2.0223500 0.1125000
v 0.4501500 2.0223500 0.1125000
v 0.4501500 2.0223500 0.1475000
v 0.4501500 2.0223500 0.1475000
v 0.4501500 2.0223500 0.1475000
v 0.4501500 2.4376500 -0.1475000
v 0.4501500 2.4376500 -0.1475000
v 0.4501500 2.4376500 -0.1475000
v 0.4501500 2.4376500 -0.1125000
v 0.4501500 2.4376500 -0.1125000
v 0.4501500 2.4376500 -0.1125000
v 0.4501500 2.4376500 0.1125000
v 0.4501500 2.4376500 0.1125000
v 0.4501500 2.4376500 0.1125000
v 0.4501500 2.4376500 0.1475000
v 0.4501500 2.4376500 0.1475000
v 0.4501500 2.4376500 0.1475000
v 0.4501500 2.4450000 -0.1401500
v 0.4501500 2.4450000 -0.1198500
v 0.4501500 2.4450000 0.1198500
v 0.4501500 2.4450000 0.1401500
v 0.4575000 2.0223500 -0.1401500
v 0.4575000 2.0223500 -0.1401500
v 0.4575000 2.0223500 -0.1198500
v 0.4575000 2.0223500 -0.1198500
v 0.4575000 2.0223500 0.1198500
v 0.4575000 2.0223500 0.1198500
v 0.4575000 2.0223500 0.1401500
v 0.4575000 2.0223500 0.1401500
v 0.4575000 2.4376500 -0.1401500
v 0.4575000 2.4376500 -0.1401500
v 0.4575000 2.4376500 -0.1198500
v 0.4575000 2.4376500 -0.1198500
v 0.4575000 2.4376500 0.1198500
v 0.4575000 2.4376500 0.1198500
v 0.4575000 2.4376500 0.1401500
v 0.4575000 2.4376500 0.1401500
v 0.4653000 1.9550000 -0.1553000
v 0.4653000 1.9550000 -0.1553000
v 0.4653000 1.9550000 -0.1553000
v 0.4653000 1.9550000 0.1553000
v 0.4653000 1.9550000 0.1553000
v 0.4653000 1.9697000 -0.1700000
v 0.4653000 1.9697000 -0.1700000
v 0.4653000 1.9697000 0.1700000
v 0.4653000 1.9697000 0.1700000
v 0.4653000 2.0103000 -0.1700000
v 0.4653000 2.0103000 -0.1700000
v 0.4653000 2.0103000 0.1700000
v 0.4653000 2.0103000 0.1700000
v 0.4653000 2.0250000 -0.1553000
v 0.4653000 2.0250000 -0.1553000
v 0.4653000 2.0250000 -0.1553000
v 0.4653000 2.0250000 0.1553000
v 0.4653000 2.0250000 0.1553000
v 0.4797056 2.4600000 -0.1697056
v 0.4797056 2.4600000 -0.1697056
v 0.4797056 2.4600000 -0.1697056
v 0.4797056 2.4600000 0.1697056
v 0.4797056 2.4600000 0.1697056
v 0.4800000 1.9697000 -0.1553000
v 0.4800000 1.9697000 0.1553000
v 0.4800000 2.0103000 -0.1553000
v 0.4800000 2.0103000 0.1553000
vt 0.1086637 0.0902230
vt 0.1086637 0.1784583
vt 0.3086637 0.0902230
vt 0.3086637 0.1784583
vt 0.0372352 0.0902230
vt 0.1086637 0.0902230
vt 0.0372352 0.0902230
vt 0.0372352 0.1784583
vt 0.5372352 0.0902230
vt 0.1086637 0.0755171
vt 0.1086637 0.0902230
vt 0.1086637 0.0902230
vt 0.1086637 0.1931642
vt 0.3086637 0.0755171
vt 0.3086637 0.0902230
vt 0.3086637 0.0902230
vt 0.3086637 0.1931642
vt 0.1086637 0.0902230
vt 0.3800923 0.0902230
vt 0.3800923 0.0902230
vt 0.3800923 0.1784583
vt 0.5372352 0.0902230
vt 0.1424988 0.1265585
vt 0.3139274 0.1265585
vt 0.1424988 0.9442055
vt 0.3139274 0.9442055
vt 0.1424988 0.1177349
vt 0.1424988 0.1265585
vt 0.1424988 0.1177349
vt 0.3139274 0.1177349
vt 0.3139274 0.1265585
vt 0.0996417 0.1265585
vt 0.1424988 0.1265585
vt 0.1424988 0.1265585
vt 0.3567846 0.1265585
vt 0.0996417 0.9442055
vt 0.1424988 0.9442055
vt 0.1424988 0.9442055
vt 0.3567846 0.9442055
vt 0.1424988 0.1265585
vt 0.1424988 0.9530290
vt 0.1424988 0.9530290
vt 0.3139274 0.1265585
vt 0.3139274 0.9530290
vt 0.1140803 0.0301491
vt 0.1140803 0.0487374
vt 0.1803660 0.0301491
vt 0.1803660 0.0487374
vt 0.1140803 0.0437962
vt 0.1803660 0.0437962
vt 0.0900803 0.0301491
vt 0.0900803 0.0437962
vt 0.1803660 0.0301491
vt 0.1803660 0.0301491
vt 0.2043660 0.0301491
vt 0.2043660 0.0437962
vt 0.1375879 0.0778818
vt 0.1375879 0.0852347
vt 0.1375879 0.0778818
vt 0.2375879 0.0778818
vt 0.2375879 0.0852347
vt 0.1375879 0.0778818
vt 0.1375879 0.1117053
vt 0.2661593 0.0778818
vt 0.2375879 0.0778818
vt 0.2375879 0.1117053
vt 0.2661593 0.0778818
vt 0.1140803 0.0301491
vt 0.1803660 0.0301491
vt 0.1375879 0.0852347
vt 0.2375879 0.0852347
vt 0.1018736 0.0852347
vt 0.1375879 0.0852347
vt 0.1375879 0.0852347
vt 0.2733022 0.0852347
vt 0.1018736 0.0852347
vt 0.2661593 0.0852347
vt 0.2661593 0.0852347
vt 0.2733022 0.0852347
vt 0.1375879 0.0852347
vt 0.2375879 0.0852347
vt 0.0900803 0.0301491
vt 0.1140803 0.0301491
vt 0.1140803 0.0301491
vt 0.2043660 0.0301491
vt 0.1140803 0.0252079
vt 0.1140803 0.0301491
vt 0.1803660 0.0252079
vt 0.1803660 0.0301491
vt 0.1424988 0.1177349
vt 0.1424988 0.1618526
vt 0.3139274 0.1177349
vt 0.3139274 0.1177349
vt 0.3139274 0.1618526
vt 0.0996417 0.1265585
vt 0.3139274 0.1265585
vt 0.3139274 0.1265585
vt 0.3567846 0.1265585
vt 0.0996417 0.9442055
vt 0.3139274 0.9442055
vt 0.3139274 0.9442055
vt 0.3567846 0.9442055
vt 0.1424988 0.1618526
vt 0.1424988 0.9530290
vt 0.3139274 0.9530290
vt 0.3139274 0.1618526
vt 0.3139274 0.9530290
vt 0.1424988 0.1265585
vt 0.3139274 0.1265585
vt 0.1424988 0.9442055
vt 0.3139274 0.9442055
vt 0.0372352 0.0902230
vt 0.0372352 0.1784583
vt 0.1086637 0.1784583
vt 0.0372352 0.1784583
vt 0.5372352 0.1784583
vt 0.1086637 0.0755171
vt 0.1086637 0.1784583
vt 0.1086637 0.1784583
vt 0.1086637 0.1931642
vt 0.3086637 0.0755171
vt 0.3086637 0.1784583
vt 0.3086637 0.1784583
vt 0.3086637 0.1931642
vt 0.1086637 0.1784583
vt 0.3800923 0.0902230
vt 0.3800923 0.1784583
vt 0.3800923 0.1784583
vt 0.5372352 0.1784583
vt 0.1086637 0.0902230
vt 0.1086637 0.1784583
vt 0.3086637 0.0902230
vt 0.3086637 0.1784583
vt 0.1140803 0.0487374
vt 0.1140803 0.2327208
vt 0.1803660 0.0487374
vt 0.1803660 0.2327208
vt 0.0900803 0.0437962
vt 0.0900803 0.2327208
vt 0.1803660 0.2327208
vt 0.1803660 0.2327208
vt 0.2043660 0.0437962
vt 0.2043660 0.2327208
vt 0.1222483 0.1005980
vt 0.1222483 0.1919509
vt 0.1802483 0.1005980
vt 0.1802483 0.1919509
vt 0.7500000 0.1437500
vt 0.5000000 0.0000000
vt 0.5000000 0.1437500
vt 0.0000000 0.5000000
vt 0.1140803 0.0437962
vt 0.1803660 0.0437962
vt 0.1012483 0.1005980
vt 0.1222483 0.1005980
vt 0.1012483 0.1005980
vt 0.1012483 0.1919509
vt 0.5659625 0.1005980
vt 0.1222483 0.0962745
vt 0.1222483 0.1005980
vt 0.1222483 0.1005980
vt 0.1222483 0.1962745
vt 0.1802483 0.0962745
vt 0.1802483 0.1005980
vt 0.1802483 0.1005980
vt 0.1802483 0.1962745
vt 0.1222483 0.1005980
vt 0.2012483 0.1005980
vt 0.2012483 0.1005980
vt 0.2012483 0.1919509
vt 0.5659625 0.1005980
vt 0.1093499 0.0889590
vt 0.1093499 0.0911208
vt 0.1383499 0.0889590
vt 0.1383499 0.0911208
vt 0.0569576 0.0931929
vt 0.0569576 0.0953547
vt 0.0859576 0.0931929
vt 0.0859576 0.0953547
vt 0.1093499 0.0889590
vt 0.1093499 0.2132678
vt 0.1383499 0.0889590
vt 0.1383499 0.2132678
vt 0.0569576 0.0931929
vt 0.0569576 0.2175017
vt 0.0859576 0.0931929
vt 0.0859576 0.2175017
vt 0.1093499 0.0911208
vt 0.1383499 0.0911208
vt 0.0569576 0.0953547
vt 0.0859576 0.0953547
vt 0.0988499 0.0911208
vt 0.1093499 0.0911208
vt 0.1093499 0.0911208
vt 0.1488499 0.0911208
vt 0.0464576 0.0953547
vt 0.0569576 0.0953547
vt 0.0569576 0.0953547
vt 0.0964576 0.0953547
vt 0.0988499 0.0911208
vt 0.0988499 0.2132678
vt 0.1093499 0.2132678
vt 0.1093499 0.2132678
vt 0.1488499 0.0911208
vt 0.1488499 0.2132678
vt 0.0464576 0.0953547
vt 0.0464576 0.2175017
vt 0.0569576 0.2175017
vt 0.0569576 0.2175017
vt 0.0964576 0.0953547
vt 0.0964576 0.2175017
vt 0.1093499 0.0911208
vt 0.1383499 0.0911208
vt 0.0569576 0.0953547
vt 0.0859576 0.0953547
vt 0.0900803 0.0301491
vt 0.0900803 0.2327208
vt 0.1140803 0.2327208
vt 0.1140803 0.2327208
vt 0.2043660 0.0301491
vt 0.2043660 0.2327208
vt 0.1140803 0.0301491
vt 0.1803660 0.0301491
vt 0.1140803 0.0252079
vt 0.1140803 0.2327208
vt 0.1803660 0.0252079
vt 0.1803660 0.2327208
vt 0.0556772 0.0768930
vt 0.0556772 0.0827754
vt 0.3413915 0.0768930
vt 0.3413915 0.0827754
vt 0.0556772 0.0768930
vt 0.0556772 0.1768930
vt 0.3413915 0.0768930
vt 0.3413915 0.1768930
vt 0.1093499 0.0970913
vt 0.1383499 0.0970913
vt 0.0569576 0.1013253
vt 0.0859576 0.1013253
vt 0.0988499 0.0911208
vt 0.0988499 0.0970913
vt 0.1383499 0.0911208
vt 0.1383499 0.0911208
vt 0.1488499 0.0911208
vt 0.1488499 0.0970913
vt 0.0464576 0.0953547
vt 0.0464576 0.1013253
vt 0.0859576 0.0953547
vt 0.0859576 0.0953547
vt 0.0964576 0.0953547
vt 0.0964576 0.1013253
vt 0.0988499 0.0970913
vt 0.0988499 0.2132678
vt 0.1383499 0.2132678
vt 0.1383499 0.2132678
vt 0.1488499 0.0970913
vt 0.1488499 0.2132678
vt 0.0464576 0.1013253
vt 0.0464576 0.2175017
vt 0.0859576 0.2175017
vt 0.0859576 0.2175017
vt 0.0964576 0.1013253
vt 0.0964576 0.2175017
vt 0.1093499 0.0970913
vt 0.1383499 0.0970913
vt 0.0569576 0.1013253
vt 0.0859576 0.1013253
vt 0.1093499 0.0911208
vt 0.1093499 0.0992531
vt 0.1383499 0.0911208
vt 0.1383499 0.0992531
vt 0.0569576 0.0953547
vt 0.0569576 0.1034870
vt 0.0859576 0.0953547
vt 0.0859576 0.1034870
vt 0.1093499 0.0992531
vt 0.1093499 0.2132678
vt 0.1383499 0.0992531
vt 0.1383499 0.2132678
vt 0.0569576 0.1034870
vt 0.0569576 0.2175017
vt 0.0859576 0.1034870
vt 0.0859576 0.2175017
vt 0.0556772 0.0827754
vt 0.3413915 0.0827754
vt 0.0271057 0.0827754
vt 0.0556772 0.0827754
vt 0.0556772 0.0827754
vt 0.3699629 0.0827754
vt 0.0271057 0.0827754
vt 0.0271057 0.1768930
vt 0.0556772 0.1768930
vt 0.0556772 0.1768930
vt 0.3699629 0.0827754
vt 0.3699629 0.1768930
vt 0.0556772 0.0827754
vt 0.3413915 0.0827754
vt 0.7500000 0.2312500
vt 0.5000000 0.2312500
vt 0.5000000 -0.0075000
vt 0.0000000 0.5000000
vt 0.5000000 0.0075000
vt 0.0000000 0.5000000
vt 0.4687500 -0.0075000
vt 0.0096074 0.5975452
vt 0.4687500 0.0075000
vt 0.0096074 0.5975452
vt 0.5312500 -0.0075000
vt 0.0096074 0.4024548
vt 0.5312500 0.0075000
vt 0.0096074 0.4024548
vt 0.4375000 -0.0075000
vt 0.0380602 0.6913417
vt 0.4375000 0.0075000
vt 0.0380602 0.6913417
vt 0.5625000 -0.0075000
vt 0.0380602 0.3086583
vt 0.5625000 0.0075000
vt 0.0380602 0.3086583
vt 0.4062500 -0.0075000
vt 0.0842652 0.7777851
vt 0.4062500 0.0075000
vt 0.0842652 0.7777851
vt 0.5937500 -0.0075000
vt 0.0842652 0.2222149
vt 0.5937500 0.0075000
vt 0.0842652 0.2222149
vt 0.1250000 0.5000000
vt 0.5000000 -0.0075000
vt 0.1250000 0.5000000
vt 0.5000000 0.0075000
vt 0.1322055 0.5731589
vt 0.4687500 -0.0075000
vt 0.1322055 0.5731589
vt 0.4687500 0.0075000
vt 0.1322055 0.4268411
vt 0.5312500 -0.0075000
vt 0.1322055 0.4268411
vt 0.5312500 0.0075000
vt 0.3750000 -0.0075000
vt 0.1464466 0.8535534
vt 0.3750000 0.0075000
vt 0.1464466 0.8535534
vt 0.6250000 -0.0075000
vt 0.1464466 0.1464466
vt 0.6250000 0.0075000
vt 0.1464466 0.1464466
vt 0.1535452 0.6435063
vt 0.4375000 -0.0075000
vt 0.1535452 0.6435063
vt 0.4375000 0.0075000
vt 0.1535452 0.3564937
vt 0.5625000 -0.0075000
vt 0.1535452 0.3564937
vt 0.5625000 0.0075000
vt 0.1881989 0.7083388
vt 0.4062500 -0.0075000
vt 0.1881989 0.7083388
vt 0.4062500 0.0075000
vt 0.1881989 0.2916612
vt 0.5937500 -0.0075000
vt 0.1881989 0.2916612
vt 0.5937500 0.0075000
vt 0.3437500 -0.0075000
vt 0.2222149 0.9157348
vt 0.3437500 0.0075000
vt 0.2222149 0.9157348
vt 0.6562500 -0.0075000
vt 0.2222149 0.0842652
vt 0.6562500 0.0075000
vt 0.2222149 0.0842652
vt 0.2348350 0.7651650
vt 0.3750000 -0.0075000
vt 0.2348350 0.7651650
vt 0.3750000 0.0075000
vt 0.2348350 0.2348350
vt 0.6250000 -0.0075000
vt 0.2348350 0.2348350
vt 0.6250000 0.0075000
vt 0.2916612 0.8118011
vt 0.3437500 -0.0075000
vt 0.2916612 0.8118011
vt 0.3437500 0.0075000
vt 0.2916612 0.1881989
vt 0.6562500 -0.0075000
vt 0.2916612 0.1881989
vt 0.6562500 0.0075000
vt 0.3125000 -0.0075000
vt 0.3086583 0.9619398
vt 0.3125000 0.0075000
vt 0.3086583 0.9619398
vt 0.6875000 -0.0075000
vt 0.3086583 0.0380602
vt 0.6875000 0.0075000
vt 0.3086583 0.0380602
vt 0.3564937 0.8464548
vt 0.3125000 -0.0075000
vt 0.3564937 0.8464548
vt 0.3125000 0.0075000
vt 0.3564937 0.1535452
vt 0.6875000 -0.0075000
vt 0.3564937 0.1535452
vt 0.6875000 0.0075000
vt 0.2812500 -0.0075000
vt 0.4024548 0.9903926
vt 0.2812500 0.0075000
vt 0.4024548 0.9903926
vt 0.7187500 -0.0075000
vt 0.4024548 0.0096074
vt 0.7187500 0.0075000
vt 0.4024548 0.0096074
vt 0.4268411 0.8677945
vt 0.2812500 -0.0075000
vt 0.4268411 0.8677945
vt 0.2812500 0.0075000
vt 0.4268411 0.1322055
vt 0.7187500 -0.0075000
vt 0.4268411 0.1322055
vt 0.7187500 0.0075000
vt 0.5000000 0.5000000
vt 0.2500000 -0.0075000
vt 0.5000000 1.0000000
vt 0.2500000 0.0075000
vt 0.5000000 1.0000000
vt 0.7500000 0.2437500
vt 0.5000000 0.2437500
vt 1.0000000 0.2437500
vt 0.2500000 0.2437500
vt 0.5000000 0.8750000
vt 0.2500000 -0.0075000
vt 0.5000000 0.8750000
vt 0.2500000 0.0075000
vt 0.7500000 -0.0075000
vt 0.5000000 0.1250000
vt 0.7500000 0.0075000
vt 0.5000000 0.1250000
vt 0.5000000 0.0000000
vt 0.7500000 -0.0075000
vt 0.5000000 0.0000000
vt 0.7500000 0.0075000
vt 0.2187500 -0.0075000
vt 0.5731589 0.8677945
vt 0.2187500 0.0075000
vt 0.5731589 0.8677945
vt 0.7812500 -0.0075000
vt 0.5731589 0.1322055
vt 0.7812500 0.0075000
vt 0.5731589 0.1322055
vt 0.5975452 0.9903926
vt 0.2187500 -0.0075000
vt 0.5975452 0.9903926
vt 0.2187500 0.0075000
vt 0.5975452 0.0096074
vt 0.7812500 -0.0075000
vt 0.5975452 0.0096074
vt 0.7812500 0.0075000
vt 0.1875000 -0.0075000
vt 0.6435063 0.8464548
vt 0.1875000 0.0075000
vt 0.6435063 0.8464548
vt 0.8125000 -0.0075000
vt 0.6435063 0.1535452
vt 0.8125000 0.0075000
vt 0.6435063 0.1535452
vt 0.6913417 0.9619398
vt 0.1875000 -0.0075000
vt 0.6913417 0.9619398
vt 0.1875000 0.0075000
vt 0.6913417 0.0380602
vt 0.8125000 -0.0075000
vt 0.6913417 0.0380602
vt 0.8125000 0.0075000
vt 0.1562500 -0.0075000
vt 0.7083388 0.8118011
vt 0.1562500 0.0075000
vt 0.7083388 0.8118011
vt 0.8437500 -0.0075000
vt 0.7083388 0.1881989
vt 0.8437500 0.0075000
vt 0.7083388 0.1881989
vt 0.1250000 -0.0075000
vt 0.7651650 0.7651650
vt 0.1250000 0.0075000
vt 0.7651650 0.7651650
vt 0.8750000 -0.0075000
vt 0.7651650 0.2348350
vt 0.8750000 0.0075000
vt 0.7651650 0.2348350
vt 0.7777851 0.9157348
vt 0.1562500 -0.0075000
vt 0.7777851 0.9157348
vt 0.1562500 0.0075000
vt 0.7777851 0.0842652
vt 0.8437500 -0.0075000
vt 0.7777851 0.0842652
vt 0.8437500 0.0075000
vt 0.0937500 -0.0075000
vt 0.8118011 0.7083388
vt 0.0937500 0.0075000
vt 0.8118011 0.7083388
vt 0.9062500 -0.0075000
vt 0.8118011 0.2916612
vt 0.9062500 0.0075000
vt 0.8118011 0.2916612
vt 0.0625000 -0.0075000
vt 0.8464548 0.6435063
vt 0.0625000 0.0075000
vt 0.8464548 0.6435063
vt 0.9375000 -0.0075000
vt 0.8464548 0.3564937
vt 0.9375000 0.0075000
vt 0.8464548 0.3564937
vt 0.8535534 0.8535534
vt 0.1250000 -0.0075000
vt 0.8535534 0.8535534
vt 0.1250000 0.0075000
vt 0.8535534 0.1464466
vt 0.8750000 -0.0075000
vt 0.8535534 0.1464466
vt 0.8750000 0.0075000
vt 0.1375879 0.2669994
vt 0.2375879 0.2669994
vt 0.1018736 0.2669994
vt 0.1375879 0.2669994
vt 0.1375879 0.2669994
vt 0.2733022 0.2669994
vt 0.1018736 0.2669994
vt 0.2661593 0.2669994
vt 0.2661593 0.2669994
vt 0.2733022 0.2669994
vt 0.1375879 0.2669994
vt 0.2375879 0.2669994
vt 0.0312500 -0.0075000
vt 0.8677945 0.5731589
vt 0.0312500 0.0075000
vt 0.8677945 0.5731589
vt 0.9687500 -0.0075000
vt 0.8677945 0.4268411
vt 0.9687500 0.0075000
vt 0.8677945 0.4268411
vt 0.0000000 -0.0075000
vt 1.0000000 -0.0075000
vt 0.8750000 0.5000000
vt 0.0000000 0.0075000
vt 1.0000000 0.0075000
vt 0.8750000 0.5000000
vt 0.9157348 0.7777851
vt 0.0937500 -0.0075000
vt 0.9157348 0.7777851
vt 0.0937500 0.0075000
vt 0.9157348 0.2222149
vt 0.9062500 -0.0075000
vt 0.9157348 0.2222149
vt 0.9062500 0.0075000
vt 0.9619398 0.6913417
vt 0.0625000 -0.0075000
vt 0.9619398 0.6913417
vt 0.0625000 0.0075000
vt 0.9619398 0.3086583
vt 0.9375000 -0.0075000
vt 0.9619398 0.3086583
vt 0.9375000 0.0075000
vt 0.9903926 0.5975452
vt 0.0312500 -0.0075000
vt 0.9903926 0.5975452
vt 0.0312500 0.0075000
vt 0.9903926 0.4024548
vt 0.9687500 -0.0075000
vt 0.9903926 0.4024548
vt 0.9687500 0.0075000
vt 1.0000000 0.5000000
vt 0.0000000 -0.0075000
vt 1.0000000 -0.0075000
vt 1.0000000 0.5000000
vt 0.0000000 0.0075000
vt 1.0000000 0.0075000
vt 0.1375879 0.0852347
vt 0.1375879 0.2743523
vt 0.1375879 0.2743523
vt 0.2375879 0.0852347
vt 0.2375879 0.2743523
vt 0.1375879 0.1117053
vt 0.1375879 0.2743523
vt 0.2661593 0.2743523
vt 0.2375879 0.1117053
vt 0.2375879 0.2743523
vt 0.2661593 0.2743523
vt 0.0000000 0.2312500
vt 1.0000000 0.2312500
vt 0.2500000 0.2312500
vt 0.0556772 0.1415989
vt 0.3413915 0.1415989
vt 0.0271057 0.0827754
vt 0.0271057 0.1415989
vt 0.3413915 0.0827754
vt 0.3413915 0.0827754
vt 0.3699629 0.0827754
vt 0.3699629 0.1415989
vt 0.0271057 0.1415989
vt 0.0271057 0.1768930
vt 0.3413915 0.1768930
vt 0.3413915 0.1768930
vt 0.3699629 0.1415989
vt 0.3699629 0.1768930
vt 0.0556772 0.1415989
vt 0.3413915 0.1415989
vt 0.1364532 0.0389604
vt 0.1364532 0.0411222
vt 0.1654532 0.0389604
vt 0.1654532 0.0411222
vt 0.1325033 0.0873459
vt 0.1325033 0.0895077
vt 0.1615033 0.0873459
vt 0.1615033 0.0895077
vt 0.1364532 0.0389604
vt 0.1364532 0.1632692
vt 0.1654532 0.0389604
vt 0.1654532 0.1632692
vt 0.1325033 0.0873459
vt 0.1325033 0.2116547
vt 0.1615033 0.0873459
vt 0.1615033 0.2116547
vt 0.1364532 0.0411222
vt 0.1654532 0.0411222
vt 0.1325033 0.0895077
vt 0.1615033 0.0895077
vt 0.1259532 0.0411222
vt 0.1364532 0.0411222
vt 0.1364532 0.0411222
vt 0.1759532 0.0411222
vt 0.1220033 0.0895077
vt 0.1325033 0.0895077
vt 0.1325033 0.0895077
vt 0.1720033 0.0895077
vt 0.1259532 0.0411222
vt 0.1259532 0.1632692
vt 0.1364532 0.1632692
vt 0.1364532 0.1632692
vt 0.1759532 0.0411222
vt 0.1759532 0.1632692
vt 0.1220033 0.0895077
vt 0.1220033 0.2116547
vt 0.1325033 0.2116547
vt 0.1325033 0.2116547
vt 0.1720033 0.0895077
vt 0.1720033 0.2116547
vt 0.1364532 0.0411222
vt 0.1654532 0.0411222
vt 0.1325033 0.0895077
vt 0.1615033 0.0895077
vt 0.0556772 0.0827754
vt 0.0556772 0.1474812
vt 0.3413915 0.0827754
vt 0.3413915 0.1474812
vt 0.0556772 0.1474812
vt 0.0556772 0.1768930
vt 0.3413915 0.1474812
vt 0.3413915 0.1768930
vt 0.1364532 0.0470928
vt 0.1654532 0.0470928
vt 0.1325033 0.0954782
vt 0.1615033 0.0954782
vt 0.1259532 0.0411222
vt 0.1259532 0.0470928
vt 0.1654532 0.0411222
vt 0.1654532 0.0411222
vt 0.1759532 0.0411222
vt 0.1759532 0.0470928
vt 0.1220033 0.0895077
vt 0.1220033 0.0954782
vt 0.1615033 0.0895077
vt 0.1615033 0.0895077
vt 0.1720033 0.0895077
vt 0.1720033 0.0954782
vt 0.1259532 0.0470928
vt 0.1259532 0.1632692
vt 0.1654532 0.1632692
vt 0.1654532 0.1632692
vt 0.1759532 0.0470928
vt 0.1759532 0.1632692
vt 0.1220033 0.0954782
vt 0.1220033 0.2116547
vt 0.1615033 0.2116547
vt 0.1615033 0.2116547
vt 0.1720033 0.0954782
vt 0.1720033 0.2116547
vt 0.1364532 0.0470928
vt 0.1654532 0.0470928
vt 0.1325033 0.0954782
vt 0.1615033 0.0954782
vt 0.1364532 0.0411222
vt 0.1364532 0.0492545
vt 0.1654532 0.0411222
vt 0.1654532 0.0492545
vt 0.1325033 0.0895077
vt 0.1325033 0.0976400
vt 0.1615033 0.0895077
vt 0.1615033 0.0976400
vt 0.1364532 0.0492545
vt 0.1364532 0.1632692
vt 0.1654532 0.0492545
vt 0.1654532 0.1632692
vt 0.1325033 0.0976400
vt 0.1325033 0.2116547
vt 0.1615033 0.0976400
vt 0.1615033 0.2116547
vt 0.1012483 0.1005980
vt 0.1012483 0.1919509
vt 0.1222483 0.1919509
vt 0.1012483 0.1919509
vt 0.5659625 0.1919509
vt 0.1222483 0.0962745
vt 0.1222483 0.1919509
vt 0.1222483 0.1919509
vt 0.1222483 0.1962745
vt 0.1802483 0.0962745
vt 0.1802483 0.1919509
vt 0.1802483 0.1919509
vt 0.1802483 0.1962745
vt 0.1222483 0.1919509
vt 0.2012483 0.1005980
vt 0.2012483 0.1919509
vt 0.2012483 0.1919509
vt 0.5659625 0.1919509
vt 1.0000000 0.5000000
vt 0.0000000 0.1437500
vt 1.0000000 0.1437500
vt 0.5000000 1.0000000
vt 0.2500000 0.1437500
vt 0.1222483 0.1005980
vt 0.1222483 0.1919509
vt 0.1802483 0.1005980
vt 0.1802483 0.1919509
vn -0.9246508 -0.3395610 -0.1723925
vn -0.9789981 -0.1483331 0.1398569
vn -0.9644097 0.2537920 -0.0741854
vn -0.9579756 0.2520988 0.1368537
vn -0.1400280 -0.9801961 -0.1400280
vn -0.1400280 -0.9801961 -0.1400280
vn -0.1316764 -0.9825084 0.1316764
vn -0.1316764 -0.9825084 0.1316764
vn -0.1316764 -0.9825084 0.1316764
vn -0.1076440 -0.3682557 -0.9234720
vn -0.1076440 -0.3682557 -0.9234720
vn -0.0861193 -0.1586409 0.9835734
vn -0.0861193 -0.1586409 0.9835734
vn -0.1217762 0.2398622 -0.9631390
vn -0.1217762 0.2398622 -0.9631390
vn -0.2133566 0.2262873 0.9504068
vn -0.2133566 0.2262873 0.9504068
vn -0.1400280 0.9801961 -0.1400280
vn -0.1400280 0.9801961 -0.1400280
vn -0.1316764 0.9825084 0.1316764
vn -0.1316764 0.9825084 0.1316764
vn -0.1316764 0.9825084 0.1316764
vn -0.9495783 -0.0151260 -0.3131648
vn -0.9805671 -0.0052624 0.1961134
vn -0.9938278 0.0106103 -0.1104253
vn -0.9805269 0.0104683 0.1961054
vn -0.1201770 -0.9854517 -0.1201770
vn -0.1201770 -0.9854517 -0.1201770
vn -0.2924607 -0.9423734 0.1624782
vn -0.2924607 -0.9423734 0.1624782
vn -0.2924607 -0.9423734 0.1624782
vn -0.1944844 -0.0186871 -0.9807276
vn -0.1944844 -0.0186871 -0.9807276
vn -0.1944844 -0.0186871 0.9807276
vn -0.1944844 -0.0186871 0.9807276
vn -0.1953011 0.0094331 -0.9806980
vn -0.1953011 0.0094331 -0.9806980
vn -0.1953011 0.0094331 0.9806980
vn -0.1953011 0.0094331 0.9806980
vn -0.1201770 0.9854517 -0.1201770
vn -0.1201770 0.9854517 -0.1201770
vn -0.2924607 0.9423734 0.1624782
vn -0.2924607 0.9423734 0.1624782
vn -0.2924607 0.9423734 0.1624782
vn -0.7688331 0.5856042 -0.2568332
vn -0.7688331 0.5856042 -0.2568332
vn -0.7674541 0.5883193 0.2547442
vn -0.7674541 0.5883193 0.2547442
vn -0.7956518 -0.5877618 -0.1465409
vn -0.7790381 -0.5754889 0.2488215
vn -0.2114311 0.1435009 -0.9668011
vn -0.2114311 0.1435009 -0.9668011
vn -0.2114311 0.1435009 -0.9668011
vn -0.2217397 0.1271457 0.9667810
vn -0.2217397 0.1271457 0.9667810
vn -0.2217397 0.1271457 0.9667810
vn -0.9150470 -0.2529024 -0.3142121
vn -0.9150470 -0.2529024 -0.3142121
vn -0.9604184 -0.1171242 0.2527417
vn -0.9604184 -0.1171242 0.2527417
vn -0.9604184 -0.1171242 0.2527417
vn -0.9666390 0.2101389 -0.1464605
vn -0.9666390 0.2101389 -0.1464605
vn -0.9666390 0.2101389 -0.1464605
vn -0.9463864 0.2057362 0.2490490
vn -0.9463864 0.2057362 0.2490490
vn -0.9463864 0.2057362 0.2490490
vn -0.3311838 -0.8945369 -0.3002017
vn -0.4827822 -0.8380575 0.2541278
vn -0.0224900 -0.9880905 -0.1522215
vn -0.0634716 -0.9668458 0.2473470
vn -0.0303160 -0.3324217 -0.9426435
vn -0.0303160 -0.3324217 -0.9426435
vn -0.0303160 -0.3324217 0.9426435
vn -0.0303160 -0.3324217 0.9426435
vn -0.0340105 0.2092062 -0.9772799
vn -0.0340105 0.2092062 -0.9772799
vn -0.0340105 0.2092062 0.9772799
vn -0.0340105 0.2092062 0.9772799
vn -0.0224900 0.9880905 -0.1522215
vn -0.0634716 0.9668458 0.2473470
vn 0.2896469 -0.2540594 -0.9227993
vn 0.2896469 -0.2540594 -0.9227993
vn 0.1933186 -0.1695664 0.9663722
vn 0.1933186 -0.1695664 0.9663722
vn 0.7630379 -0.6279824 -0.1530076
vn 0.7630379 -0.6279824 -0.1530076
vn 0.7304188 -0.6345811 0.2525769
vn 0.7304188 -0.6345811 0.2525769
vn 0.1624782 -0.9423734 -0.2924607
vn 0.1624782 -0.9423734 -0.2924607
vn 0.1624782 -0.9423734 -0.2924607
vn 0.1777740 -0.9678806 0.1777740
vn 0.1777740 -0.9678806 0.1777740
vn 0.1109496 -0.0059226 -0.9938084
vn 0.1109496 -0.0059226 -0.9938084
vn 0.1109496 -0.0059226 0.9938084
vn 0.1109496 -0.0059226 0.9938084
vn 0.3152013 0.0084580 -0.9489871
vn 0.3152013 0.0084580 -0.9489871
vn 0.3152013 0.0084580 0.9489871
vn 0.3152013 0.0084580 0.9489871
vn 0.1624782 0.9423734 -0.2924607
vn 0.1624782 0.9423734 -0.2924607
vn 0.1624782 0.9423734 -0.2924607
vn 0.1777740 0.9678806 0.1777740
vn 0.1777740 0.9678806 0.1777740
vn 0.9495783 -0.0151260 -0.3131648
vn 0.9805671 -0.0052624 0.1961134
vn 0.9938278 0.0106103 -0.1104253
vn 0.9805269 0.0104683 0.1961054
vn 0.1316764 -0.9825084 -0.1316764
vn 0.1316764 -0.9825084 -0.1316764
vn 0.1316764 -0.9825084 -0.1316764
vn 0.1400280 -0.9801961 0.1400280
vn 0.1400280 -0.9801961 0.1400280
vn 0.1398569 -0.1483331 -0.9789981
vn 0.1398569 -0.1483331 -0.9789981
vn 0.1076440 -0.3682557 0.9234720
vn 0.1076440 -0.3682557 0.9234720
vn 0.1368537 0.2520988 -0.9579756
vn 0.1368537 0.2520988 -0.9579756
vn 0.1217762 0.2398622 0.9631390
vn 0.1217762 0.2398622 0.9631390
vn 0.0759301 0.9870916 -0.1410131
vn 0.0759301 0.9870916 -0.1410131
vn 0.0759301 0.9870916 -0.1410131
vn 0.2282811 0.9658045 0.1229206
vn 0.2282811 0.9658045 0.1229206
vn 0.9579756 -0.2520988 -0.1368537
vn 0.9631390 -0.2398622 0.1217762
vn 0.9631390 0.2398622 -0.1217762
vn 0.9579756 0.2520988 0.1368537
vn -0.7473359 0.6127803 -0.2568837
vn -0.7473359 0.6127803 -0.2568837
vn -0.7304188 0.6345811 0.2525769
vn -0.7304188 0.6345811 0.2525769
vn -0.1861812 0.1784072 -0.9661819
vn -0.1861812 0.1784072 -0.9661819
vn -0.1861812 0.1784072 -0.9661819
vn -0.1864126 0.1747740 0.9668011
vn -0.1864126 0.1747740 0.9668011
vn -0.1864126 0.1747740 0.9668011
vn -0.9257952 -0.3737986 -0.0563725
vn -0.9874704 -0.1513641 0.0446229
vn -0.9661966 0.2568371 -0.0223354
vn -0.9655174 0.2566565 0.0436308
vn -0.5753965 0.5812382 -0.5753965
vn 0.0000000 -1.0000000 0.0000000
vn -0.5753965 0.5812382 0.5753965
vn 0.0000000 -1.0000000 0.0000000
vn 0.4150638 0.8811828 -0.2263601
vn 0.3904443 0.8863640 0.2488215
vn -0.0236254 -0.9994417 -0.0236254
vn -0.0236254 -0.9994417 -0.0236254
vn -0.0843018 -0.9955066 0.0431253
vn -0.0843018 -0.9955066 0.0431253
vn -0.0843018 -0.9955066 0.0431253
vn -0.0332767 -0.3826525 -0.9232929
vn -0.0332767 -0.3826525 -0.9232929
vn -0.0332767 -0.3826525 0.9232929
vn -0.0332767 -0.3826525 0.9232929
vn -0.0381106 0.2527065 -0.9667921
vn -0.0381106 0.2527065 -0.9667921
vn -0.0381106 0.2527065 0.9667921
vn -0.0381106 0.2527065 0.9667921
vn -0.0450971 0.9979642 -0.0450971
vn -0.0450971 0.9979642 -0.0450971
vn -0.0451310 0.9987143 0.0230871
vn -0.0451310 0.9987143 0.0230871
vn -0.0451310 0.9987143 0.0230871
vn -0.9238307 -0.0218693 -0.3821760
vn -0.9238307 -0.0218693 -0.3821760
vn -0.9664030 -0.0084767 0.2568919
vn -0.9664030 -0.0084767 0.2568919
vn -0.9238307 -0.0218693 -0.3821760
vn -0.9238307 -0.0218693 -0.3821760
vn -0.9664030 -0.0084767 0.2568919
vn -0.9664030 -0.0084767 0.2568919
vn -0.9883090 0.0171870 -0.1514926
vn -0.9883090 0.0171870 -0.1514926
vn -0.9663012 0.0168042 0.2568649
vn -0.9663012 0.0168042 0.2568649
vn -0.9883090 0.0171870 -0.1514926
vn -0.9883090 0.0171870 -0.1514926
vn -0.9663012 0.0168042 0.2568649
vn -0.9663012 0.0168042 0.2568649
vn -0.1677894 -0.9714389 -0.1677894
vn -0.3523606 -0.9135411 0.2031861
vn -0.1677894 -0.9714389 -0.1677894
vn -0.3523606 -0.9135411 0.2031861
vn -0.2537673 -0.0287901 -0.9668368
vn -0.2537673 -0.0287901 -0.9668368
vn -0.1514926 -0.0171870 0.9883090
vn -0.1514926 -0.0171870 0.9883090
vn -0.2537673 -0.0287901 -0.9668368
vn -0.2537673 -0.0287901 -0.9668368
vn -0.1514926 -0.0171870 0.9883090
vn -0.1514926 -0.0171870 0.9883090
vn -0.2553376 0.0146112 -0.9667415
vn -0.2553376 0.0146112 -0.9667415
vn -0.2553376 0.0146112 -0.9667415
vn -0.3821760 0.0218693 0.9238307
vn -0.3821760 0.0218693 0.9238307
vn -0.3821760 0.0218693 0.9238307
vn -0.2553376 0.0146112 -0.9667415
vn -0.2553376 0.0146112 -0.9667415
vn -0.2553376 0.0146112 -0.9667415
vn -0.3821760 0.0218693 0.9238307
vn -0.3821760 0.0218693 0.9238307
vn -0.3821760 0.0218693 0.9238307
vn -0.1677894 0.9714389 -0.1677894
vn -0.3523606 0.9135411 0.2031861
vn -0.1677894 0.9714389 -0.1677894
vn -0.3523606 0.9135411 0.2031861
vn 0.1329797 -0.0762506 -0.9881813
vn 0.1329797 -0.0762506 -0.9881813
vn 0.1329797 -0.0762506 -0.9881813
vn 0.2149248 -0.1424776 0.9661819
vn 0.2149248 -0.1424776 0.9661819
vn 0.2149248 -0.1424776 0.9661819
vn 0.8458320 0.4932379 -0.2031861
vn 0.7116405 0.6549708 0.2541278
vn 0.7314836 -0.5628451 -0.3848859
vn 0.7314836 -0.5628451 -0.3848859
vn 0.7674541 -0.5883193 0.2547442
vn 0.7674541 -0.5883193 0.2547442
vn -0.9835531 -0.0969700 -0.1523815
vn -0.9835531 -0.0969700 -0.1523815
vn -0.9954400 -0.0301648 0.0904945
vn -0.9954400 -0.0301648 0.0904945
vn -0.9971484 0.0586558 -0.0474833
vn -0.9971484 0.0586558 -0.0474833
vn -0.9941887 0.0584817 0.0903808
vn -0.9941887 0.0584817 0.0903808
vn 0.2031861 -0.9135411 -0.3523606
vn 0.2263601 -0.9473765 0.2263601
vn 0.2031861 -0.9135411 -0.3523606
vn 0.2263601 -0.9473765 0.2263601
vn 0.1526051 -0.0099835 -0.9882368
vn 0.1526051 -0.0099835 -0.9882368
vn 0.1526051 -0.0099835 -0.9882368
vn 0.2568649 -0.0168042 0.9663012
vn 0.2568649 -0.0168042 0.9663012
vn 0.2568649 -0.0168042 0.9663012
vn 0.1526051 -0.0099835 -0.9882368
vn 0.1526051 -0.0099835 -0.9882368
vn 0.1526051 -0.0099835 -0.9882368
vn 0.2568649 -0.0168042 0.9663012
vn 0.2568649 -0.0168042 0.9663012
vn 0.2568649 -0.0168042 0.9663012
vn 0.3855333 0.0127215 -0.9226062
vn 0.3855333 0.0127215 -0.9226062
vn 0.3855333 0.0127215 -0.9226062
vn 0.2568919 0.0084767 0.9664030
vn 0.2568919 0.0084767 0.9664030
vn 0.2568919 0.0084767 0.9664030
vn 0.3855333 0.0127215 -0.9226062
vn 0.3855333 0.0127215 -0.9226062
vn 0.3855333 0.0127215 -0.9226062
vn 0.2568919 0.0084767 0.9664030
vn 0.2568919 0.0084767 0.9664030
vn 0.2568919 0.0084767 0.9664030
vn 0.2031861 0.9135411 -0.3523606
vn 0.2263601 0.9473765 0.2263601
vn 0.2031861 0.9135411 -0.3523606
vn 0.2263601 0.9473765 0.2263601
vn 0.9238307 -0.0218693 -0.3821760
vn 0.9238307 -0.0218693 -0.3821760
vn 0.9664030 -0.0084767 0.2568919
vn 0.9664030 -0.0084767 0.2568919
vn 0.9238307 -0.0218693 -0.3821760
vn 0.9238307 -0.0218693 -0.3821760
vn 0.9664030 -0.0084767 0.2568919
vn 0.9664030 -0.0084767 0.2568919
vn 0.9883090 0.0171870 -0.1514926
vn 0.9883090 0.0171870 -0.1514926
vn 0.9663012 0.0168042 0.2568649
vn 0.9663012 0.0168042 0.2568649
vn 0.9883090 0.0171870 -0.1514926
vn 0.9883090 0.0171870 -0.1514926
vn 0.9663012 0.0168042 0.2568649
vn 0.9663012 0.0168042 0.2568649
vn -0.0496509 -0.9975317 -0.0496509
vn -0.1577432 -0.9840172 0.0826274
vn -0.0854941 -0.1056103 -0.9907256
vn -0.0854941 -0.1056103 -0.9907256
vn -0.0854941 -0.1056103 0.9907256
vn -0.0854941 -0.1056103 0.9907256
vn -0.0879894 0.0559932 -0.9945464
vn -0.0879894 0.0559932 -0.9945464
vn -0.0879894 0.0559932 -0.9945464
vn -0.0879894 0.0559932 0.9945464
vn -0.0879894 0.0559932 0.9945464
vn -0.0879894 0.0559932 0.9945464
vn -0.0496509 0.9975317 -0.0496509
vn -0.1577432 0.9840172 0.0826274
vn -0.3673155 0.8544932 -0.3673155
vn -0.3673155 0.8544932 0.3673155
vn -1.0000000 -0.0000000 0.0000000
vn 0.0000000 -0.0000000 -1.0000000
vn -1.0000000 -0.0000000 0.0000000
vn 0.0000000 0.0000000 1.0000000
vn -0.9807853 -0.1950903 0.0000000
vn 0.0000000 -0.0000000 -1.0000000
vn -0.9807853 -0.1950903 0.0000000
vn 0.0000000 0.0000000 1.0000000
vn -0.9807853 0.1950903 -0.0000000
vn 0.0000000 -0.0000000 -1.0000000
vn -0.9807853 0.1950903 -0.0000000
vn 0.0000000 0.0000000 1.0000000
vn -0.9238795 -0.3826834 0.0000000
vn 0.0000000 -0.0000000 -1.0000000
vn -0.9238795 -0.3826834 0.0000000
vn 0.0000000 0.0000000 1.0000000
vn -0.9238795 0.3826834 -0.0000000
vn 0.0000000 -0.0000000 -1.0000000
vn -0.9238795 0.3826834 -0.0000000
vn 0.0000000 0.0000000 1.0000000
vn -0.8314696 -0.5555702 0.0000000
vn 0.0000000 -0.0000000 -1.0000000
vn -0.8314696 -0.5555702 0.0000000
vn 0.0000000 0.0000000 1.0000000
vn -0.8314696 0.5555702 -0.0000000
vn 0.0000000 -0.0000000 -1.0000000
vn -0.8314696 0.5555702 -0.0000000
vn 0.0000000 0.0000000 1.0000000
vn 0.0000000 -0.0000000 -1.0000000
vn 1.0000000 0.0000000 -0.0000000
vn 0.0000000 0.0000000 1.0000000
vn 1.0000000 0.0000000 -0.0000000
vn 0.0000000 -0.0000000 -1.0000000
vn 0.9807853 0.1950903 -0.0000000
vn 0.0000000 0.0000000 1.0000000
vn 0.9807853 0.1950903 -0.0000000
vn 0.0000000 -0.0000000 -1.0000000
vn 0.9807853 -0.1950903 0.0000000
vn 0.0000000 0.0000000 1.0000000
vn 0.9807853 -0.1950903 0.0000000
vn -0.7071068 -0.7071068 0.0000000
vn 0.0000000 -0.0000000 -1.0000000
vn -0.7071068 -0.7071068 0.0000000
vn 0.0000000 0.0000000 1.0000000
vn -0.7071068 0.7071068 -0.0000000
vn 0.0000000 -0.0000000 -1.0000000
vn -0.7071068 0.7071068 -0.0000000
vn 0.0000000 0.0000000 1.0000000
vn 0.0000000 -0.0000000 -1.0000000
vn 0.9238795 0.3826834 -0.0000000
vn 0.0000000 0.0000000 1.0000000
vn 0.9238795 0.3826834 -0.0000000
vn 0.0000000 -0.0000000 -1.0000000
vn 0.9238795 -0.3826834 0.0000000
vn 0.0000000 0.0000000 1.0000000
vn 0.9238795 -0.3826834 0.0000000
vn 0.0000000 -0.0000000 -1.0000000
vn 0.8314696 0.5555702 -0.0000000
vn 0.0000000 0.0000000 1.0000000
vn 0.8314696 0.5555702 -0.0000000
vn 0.0000000 -0.0000000 -1.0000000
vn 0.8314696 -0.5555702 0.0000000
vn 0.0000000 0.0000000 1.0000000
vn 0.8314696 -0.5555702 0.0000000
vn -0.5555702 -0.8314696 0.0000000
vn 0.0000000 -0.0000000 -1.0000000
vn -0.5555702 -0.8314696 0.0000000
vn 0.0000000 0.0000000 1.0000000
vn -0.5555702 0.8314696 -0.0000000
vn 0.0000000 -0.0000000 -1.0000000
vn -0.5555702 0.8314696 -0.0000000
vn 0.0000000 0.0000000 1.0000000
vn 0.0000000 -0.0000000 -1.0000000
vn 0.7071068 0.7071068 -0.0000000
vn 0.0000000 0.0000000 1.0000000
vn 0.7071068 0.7071068 -0.0000000
vn 0.0000000 -0.0000000 -1.0000000
vn 0.7071068 -0.7071068 0.0000000
vn 0.0000000 0.0000000 1.0000000
vn 0.7071068 -0.7071068 0.0000000
vn 0.0000000 -0.0000000 -1.0000000
vn 0.5555702 0.8314696 -0.0000000
vn 0.0000000 0.0000000 1.0000000
vn 0.5555702 0.8314696 -0.0000000
vn 0.0000000 -0.0000000 -1.0000000
vn 0.5555702 -0.8314696 0.0000000
vn 0.0000000 0.0000000 1.0000000
vn 0.5555702 -0.8314696 0.0000000
vn -0.3826834 -0.9238795 0.0000000
vn 0.0000000 -0.0000000 -1.0000000
vn -0.3826834 -0.9238795 0.0000000
vn 0.0000000 0.0000000 1.0000000
vn -0.3826834 0.9238795 -0.0000000
vn 0.0000000 -0.0000000 -1.0000000
vn -0.3826834 0.9238795 -0.0000000
vn 0.0000000 0.0000000 1.0000000
vn 0.0000000 -0.0000000 -1.0000000
vn 0.3826834 0.9238795 -0.0000000
vn 0.0000000 0.0000000 1.0000000
vn 0.3826834 0.9238795 -0.0000000
vn 0.0000000 -0.0000000 -1.0000000
vn 0.3826834 -0.9238795 0.0000000
vn 0.0000000 0.0000000 1.0000000
vn 0.3826834 -0.9238795 0.0000000
vn -0.1950903 -0.9807853 0.0000000
vn 0.0000000 -0.0000000 -1.0000000
vn -0.1950903 -0.9807853 0.0000000
vn 0.0000000 0.0000000 1.0000000
vn -0.1950903 0.9807853 -0.0000000
vn 0.0000000 -0.0000000 -1.0000000
vn -0.1950903 0.9807853 -0.0000000
vn 0.0000000 0.0000000 1.0000000
vn 0.0000000 -0.0000000 -1.0000000
vn 0.1950903 0.9807853 -0.0000000
vn 0.0000000 0.0000000 1.0000000
vn 0.1950903 0.9807853 -0.0000000
vn 0.0000000 -0.0000000 -1.0000000
vn 0.1950903 -0.9807853 0.0000000
vn 0.0000000 0.0000000 1.0000000
vn 0.1950903 -0.9807853 0.0000000
vn 0.0000000 -1.0000000 0.0000000
vn 0.0000000 -1.0000000 0.0000000
vn 0.0000000 -0.0000000 -1.0000000
vn 0.0000000 -1.0000000 0.0000000
vn 0.0000000 0.0000000 1.0000000
vn -0.1000000 0.9899495 -0.1000000
vn -0.1000000 0.9899495 0.1000000
vn 0.1000000 0.9899495 -0.1000000
vn 0.1000000 0.9899495 0.1000000
vn 0.0000000 -0.0000000 -1.0000000
vn -0.0000000 1.0000000 -0.0000000
vn 0.0000000 0.0000000 1.0000000
vn -0.0000000 1.0000000 -0.0000000
vn 0.0000000 -1.0000000 0.0000000
vn 0.0000000 -0.0000000 -1.0000000
vn 0.0000000 -1.0000000 0.0000000
vn 0.0000000 0.0000000 1.0000000
vn 0.0000000 -0.0000000 -1.0000000
vn -0.0000000 1.0000000 -0.0000000
vn 0.0000000 0.0000000 1.0000000
vn -0.0000000 1.0000000 -0.0000000
vn -0.1950903 0.9807853 -0.0000000
vn 0.0000000 -0.0000000 -1.0000000
vn -0.1950903 0.9807853 -0.0000000
vn 0.0000000 0.0000000 1.0000000
vn -0.1950903 -0.9807853 0.0000000
vn 0.0000000 -0.0000000 -1.0000000
vn -0.1950903 -0.9807853 0.0000000
vn 0.0000000 0.0000000 1.0000000
vn 0.0000000 -0.0000000 -1.0000000
vn 0.1950903 -0.9807853 0.0000000
vn 0.0000000 0.0000000 1.0000000
vn 0.1950903 -0.9807853 0.0000000
vn 0.0000000 -0.0000000 -1.0000000
vn 0.1950903 0.9807853 -0.0000000
vn 0.0000000 0.0000000 1.0000000
vn 0.1950903 0.9807853 -0.0000000
vn -0.3826834 0.9238795 -0.0000000
vn 0.0000000 -0.0000000 -1.0000000
vn -0.3826834 0.9238795 -0.0000000
vn 0.0000000 0.0000000 1.0000000
vn -0.3826834 -0.9238795 0.0000000
vn 0.0000000 -0.0000000 -1.0000000
vn -0.3826834 -0.9238795 0.0000000
vn 0.0000000 0.0000000 1.0000000
vn 0.0000000 -0.0000000 -1.0000000
vn 0.3826834 -0.9238795 0.0000000
vn 0.0000000 0.0000000 1.0000000
vn 0.3826834 -0.9238795 0.0000000
vn 0.0000000 -0.0000000 -1.0000000
vn 0.3826834 0.9238795 -0.0000000
vn 0.0000000 0.0000000 1.0000000
vn 0.3826834 0.9238795 -0.0000000
vn -0.5555702 0.8314696 -0.0000000
vn 0.0000000 -0.0000000 -1.0000000
vn -0.5555702 0.8314696 -0.0000000
vn 0.0000000 0.0000000 1.0000000
vn -0.5555702 -0.8314696 0.0000000
vn 0.0000000 -0.0000000 -1.0000000
vn -0.5555702 -0.8314696 0.0000000
vn 0.0000000 0.0000000 1.0000000
vn -0.7071068 0.7071068 -0.0000000
vn 0.0000000 -0.0000000 -1.0000000
vn -0.7071068 0.7071068 -0.0000000
vn 0.0000000 0.0000000 1.0000000
vn -0.7071068 -0.7071068 0.0000000
vn 0.0000000 -0.0000000 -1.0000000
vn -0.7071068 -0.7071068 0.0000000
vn 0.0000000 0.0000000 1.0000000
vn 0.0000000 -0.0000000 -1.0000000
vn 0.5555702 -0.8314696 0.0000000
vn 0.0000000 0.0000000 1.0000000
vn 0.5555702 -0.8314696 0.0000000
vn 0.0000000 -0.0000000 -1.0000000
vn 0.5555702 0.8314696 -0.0000000
vn 0.0000000 0.0000000 1.0000000
vn 0.5555702 0.8314696 -0.0000000
vn -0.8314696 0.5555702 -0.0000000
vn 0.0000000 -0.0000000 -1.0000000
vn -0.8314696 0.5555702 -0.0000000
vn 0.0000000 0.0000000 1.0000000
vn -0.8314696 -0.5555702 0.0000000
vn 0.0000000 -0.0000000 -1.0000000
vn -0.8314696 -0.5555702 0.0000000
vn 0.0000000 0.0000000 1.0000000
vn -0.9238795 0.3826834 -0.0000000
vn 0.0000000 -0.0000000 -1.0000000
vn -0.9238795 0.3826834 -0.0000000
vn 0.0000000 0.0000000 1.0000000
vn -0.9238795 -0.3826834 0.0000000
vn 0.0000000 -0.0000000 -1.0000000
vn -0.9238795 -0.3826834 0.0000000
vn 0.0000000 0.0000000 1.0000000
vn 0.0000000 -0.0000000 -1.0000000
vn 0.7071068 -0.7071068 0.0000000
vn 0.0000000 0.0000000 1.0000000
vn 0.7071068 -0.7071068 0.0000000
vn 0.0000000 -0.0000000 -1.0000000
vn 0.7071068 0.7071068 -0.0000000
vn 0.0000000 0.0000000 1.0000000
vn 0.7071068 0.7071068 -0.0000000
vn 0.0286810 -0.9242527 -0.3807025
vn 0.0328333 -0.9674492 0.2509263
vn 0.0385656 -0.1209643 -0.9919074
vn 0.0385656 -0.1209643 -0.9919074
vn 0.0220155 -0.1230951 0.9921506
vn 0.0220155 -0.1230951 0.9921506
vn 0.0379655 0.2122765 -0.9764719
vn 0.0379655 0.2122765 -0.9764719
vn 0.0656709 0.2059823 0.9763496
vn 0.0656709 0.2059823 0.9763496
vn 0.0286810 0.9242527 -0.3807025
vn 0.0328333 0.9674492 0.2509263
vn -0.9807853 0.1950903 -0.0000000
vn 0.0000000 -0.0000000 -1.0000000
vn -0.9807853 0.1950903 -0.0000000
vn 0.0000000 0.0000000 1.0000000
vn -0.9807853 -0.1950903 0.0000000
vn 0.0000000 -0.0000000 -1.0000000
vn -0.9807853 -0.1950903 0.0000000
vn 0.0000000 0.0000000 1.0000000
vn -1.0000000 0.0000000 0.0000000
vn -1.0000000 -0.0000000 0.0000000
vn 0.0000000 -0.0000000 -1.0000000
vn -1.0000000 0.0000000 0.0000000
vn -1.0000000 -0.0000000 0.0000000
vn 0.0000000 0.0000000 1.0000000
vn 0.0000000 -0.0000000 -1.0000000
vn 0.8314696 -0.5555702 0.0000000
vn 0.0000000 0.0000000 1.0000000
vn 0.8314696 -0.5555702 0.0000000
vn 0.0000000 -0.0000000 -1.0000000
vn 0.8314696 0.5555702 -0.0000000
vn 0.0000000 0.0000000 1.0000000
vn 0.8314696 0.5555702 -0.0000000
vn 0.0000000 -0.0000000 -1.0000000
vn 0.9238795 -0.3826834 0.0000000
vn 0.0000000 0.0000000 1.0000000
vn 0.9238795 -0.3826834 0.0000000
vn 0.0000000 -0.0000000 -1.0000000
vn 0.9238795 0.3826834 -0.0000000
vn 0.0000000 0.0000000 1.0000000
vn 0.9238795 0.3826834 -0.0000000
vn 0.0000000 -0.0000000 -1.0000000
vn 0.9807853 -0.1950903 0.0000000
vn 0.0000000 0.0000000 1.0000000
vn 0.9807853 -0.1950903 0.0000000
vn 0.0000000 -0.0000000 -1.0000000
vn 0.9807853 0.1950903 -0.0000000
vn 0.0000000 0.0000000 1.0000000
vn 0.9807853 0.1950903 -0.0000000
vn 0.0000000 -0.0000000 -1.0000000
vn 1.0000000 0.0000000 0.0000000
vn 1.0000000 0.0000000 -0.0000000
vn 0.0000000 0.0000000 1.0000000
vn 1.0000000 0.0000000 0.0000000
vn 1.0000000 0.0000000 -0.0000000
vn 0.9295338 -0.3025110 -0.2108410
vn 0.9295338 -0.3025110 -0.2108410
vn 0.9604184 -0.1171242 0.2527417
vn 0.9604184 -0.1171242 0.2527417
vn 0.9604184 -0.1171242 0.2527417
vn 0.9551688 0.1856335 -0.2306356
vn 0.9551688 0.1856335 -0.2306356
vn 0.9551688 0.1856335 -0.2306356
vn 0.9463864 0.2057362 0.2490490
vn 0.9463864 0.2057362 0.2490490
vn 0.9463864 0.2057362 0.2490490
vn 0.3673155 0.8544932 -0.3673155
vn 0.3673155 0.8544932 -0.3673155
vn 0.3673155 0.8544932 0.3673155
vn 0.0826274 -0.9840172 -0.1577432
vn 0.0864828 -0.9924926 0.0864828
vn 0.0489082 -0.0316465 -0.9983018
vn 0.0489082 -0.0316465 -0.9983018
vn 0.0489082 -0.0316465 -0.9983018
vn 0.0489082 -0.0316465 0.9983018
vn 0.0489082 -0.0316465 0.9983018
vn 0.0489082 -0.0316465 0.9983018
vn 0.1602263 0.0534088 -0.9856343
vn 0.1602263 0.0534088 -0.9856343
vn 0.1602263 0.0534088 -0.9856343
vn 0.1602263 0.0534088 0.9856343
vn 0.1602263 0.0534088 0.9856343
vn 0.1602263 0.0534088 0.9856343
vn 0.0826274 0.9840172 -0.1577432
vn 0.0864828 0.9924926 0.0864828
vn -0.9238307 -0.0218693 -0.3821760
vn -0.9238307 -0.0218693 -0.3821760
vn -0.9664030 -0.0084767 0.2568919
vn -0.9664030 -0.0084767 0.2568919
vn -0.9238307 -0.0218693 -0.3821760
vn -0.9238307 -0.0218693 -0.3821760
vn -0.9664030 -0.0084767 0.2568919
vn -0.9664030 -0.0084767 0.2568919
vn -0.9883090 0.0171870 -0.1514926
vn -0.9883090 0.0171870 -0.1514926
vn -0.9663012 0.0168042 0.2568649
vn -0.9663012 0.0168042 0.2568649
vn -0.9883090 0.0171870 -0.1514926
vn -0.9883090 0.0171870 -0.1514926
vn -0.9663012 0.0168042 0.2568649
vn -0.9663012 0.0168042 0.2568649
vn -0.1677894 -0.9714389 -0.1677894
vn -0.3523606 -0.9135411 0.2031861
vn -0.1677894 -0.9714389 -0.1677894
vn -0.3523606 -0.9135411 0.2031861
vn -0.2537673 -0.0287901 -0.9668368
vn -0.2537673 -0.0287901 -0.9668368
vn -0.1514926 -0.0171870 0.9883090
vn -0.1514926 -0.0171870 0.9883090
vn -0.2537673 -0.0287901 -0.9668368
vn -0.2537673 -0.0287901 -0.9668368
vn -0.1514926 -0.0171870 0.9883090
vn -0.1514926 -0.0171870 0.9883090
vn -0.2553376 0.0146112 -0.9667415
vn -0.2553376 0.0146112 -0.9667415
vn -0.2553376 0.0146112 -0.9667415
vn -0.3821760 0.0218693 0.9238307
vn -0.3821760 0.0218693 0.9238307
vn -0.3821760 0.0218693 0.9238307
vn -0.2553376 0.0146112 -0.9667415
vn -0.2553376 0.0146112 -0.9667415
vn -0.2553376 0.0146112 -0.9667415
vn -0.3821760 0.0218693 0.9238307
vn -0.3821760 0.0218693 0.9238307
vn -0.3821760 0.0218693 0.9238307
vn -0.1677894 0.9714389 -0.1677894
vn -0.3523606 0.9135411 0.2031861
vn -0.1677894 0.9714389 -0.1677894
vn -0.3523606 0.9135411 0.2031861
vn 0.9835531 -0.0969700 -0.1523815
vn 0.9835531 -0.0969700 -0.1523815
vn 0.9954400 -0.0301648 0.0904945
vn 0.9954400 -0.0301648 0.0904945
vn 0.9971484 0.0586558 -0.0474833
vn 0.9971484 0.0586558 -0.0474833
vn 0.9941887 0.0584817 0.0903808
vn 0.9941887 0.0584817 0.0903808
vn 0.2031861 -0.9135411 -0.3523606
vn 0.2263601 -0.9473765 0.2263601
vn 0.2031861 -0.9135411 -0.3523606
vn 0.2263601 -0.9473765 0.2263601
vn 0.1526051 -0.0099835 -0.9882368
vn 0.1526051 -0.0099835 -0.9882368
vn 0.1526051 -0.0099835 -0.9882368
vn 0.2568649 -0.0168042 0.9663012
vn 0.2568649 -0.0168042 0.9663012
vn 0.2568649 -0.0168042 0.9663012
vn 0.1526051 -0.0099835 -0.9882368
vn 0.1526051 -0.0099835 -0.9882368
vn 0.1526051 -0.0099835 -0.9882368
vn 0.2568649 -0.0168042 0.9663012
vn 0.2568649 -0.0168042 0.9663012
vn 0.2568649 -0.0168042 0.9663012
vn 0.3855333 0.0127215 -0.9226062
vn 0.3855333 0.0127215 -0.9226062
vn 0.3855333 0.0127215 -0.9226062
vn 0.2568919 0.0084767 0.9664030
vn 0.2568919 0.0084767 0.9664030
vn 0.2568919 0.0084767 0.9664030
vn 0.3855333 0.0127215 -0.9226062
vn 0.3855333 0.0127215 -0.9226062
vn 0.3855333 0.0127215 -0.9226062
vn 0.2568919 0.0084767 0.9664030
vn 0.2568919 0.0084767 0.9664030
vn 0.2568919 0.0084767 0.9664030
vn 0.2031861 0.9135411 -0.3523606
vn 0.2263601 0.9473765 0.2263601
vn 0.2031861 0.9135411 -0.3523606
vn 0.2263601 0.9473765 0.2263601
vn 0.9238307 -0.0218693 -0.3821760
vn 0.9238307 -0.0218693 -0.3821760
vn 0.9664030 -0.0084767 0.2568919
vn 0.9664030 -0.0084767 0.2568919
vn 0.9238307 -0.0218693 -0.3821760
vn 0.9238307 -0.0218693 -0.3821760
vn 0.9664030 -0.0084767 0.2568919
vn 0.9664030 -0.0084767 0.2568919
vn 0.9883090 0.0171870 -0.1514926
vn 0.9883090 0.0171870 -0.1514926
vn 0.9663012 0.0168042 0.2568649
vn 0.9663012 0.0168042 0.2568649
vn 0.9883090 0.0171870 -0.1514926
vn 0.9883090 0.0171870 -0.1514926
vn 0.9663012 0.0168042 0.2568649
vn 0.9663012 0.0168042 0.2568649
vn 0.0431253 -0.9955066 -0.0843018
vn 0.0431253 -0.9955066 -0.0843018
vn 0.0431253 -0.9955066 -0.0843018
vn 0.0441270 -0.9980509 0.0441270
vn 0.0441270 -0.9980509 0.0441270
vn 0.0446229 -0.1513641 -0.9874704
vn 0.0446229 -0.1513641 -0.9874704
vn 0.0446229 -0.1513641 0.9874704
vn 0.0446229 -0.1513641 0.9874704
vn 0.0436308 0.2566565 -0.9655174
vn 0.0436308 0.2566565 -0.9655174
vn 0.0436308 0.2566565 0.9655174
vn 0.0436308 0.2566565 0.9655174
vn 0.0230871 0.9987143 -0.0451310
vn 0.0230871 0.9987143 -0.0451310
vn 0.0230871 0.9987143 -0.0451310
vn 0.0807863 0.9934521 0.0807863
vn 0.0807863 0.9934521 0.0807863
vn 0.0000000 -1.0000000 0.0000000
vn 0.5753965 0.5812382 -0.5753965
vn 0.5753965 0.5812382 -0.5753965
vn 0.0000000 -1.0000000 0.0000000
vn 0.5753965 0.5812382 0.5753965
vn 0.9232929 -0.3826525 -0.0332767
vn 0.9876682 -0.1543472 0.0262386
vn 0.9667921 0.2527065 -0.0381106
vn 0.9658569 0.2485023 0.0732597
o 07_Farola_Glow
usemtl Glow
s 1
f 284/284/284 228/228/228 286/286/286
f 294/294/294 297/297/297 234/234/234
f 599/599/599 605/605/605 655/655/655
f 606/606/606 603/603/603 657/657/657
f 285/285/285 289/289/289 230/230/230
f 290/290/290 232/232/232 296/296/296
f 591/591/591 594/594/594 652/652/652
f 592/592/592 654/654/654 598/598/598
f 233/233/233 229/229/229 231/231/231
f 233/233/233 231/231/231 235/235/235
f 297/297/297 232/232/232 234/234/234
f 297/297/297 296/296/296 232/232/232
f 653/653/653 656/656/656 658/658/658
f 653/653/653 651/651/651 656/656/656
f 604/604/604 597/597/597 653/653/653
f 604/604/604 653/653/653 658/658/658
f 295/295/295 235/235/235 231/231/231
f 295/295/295 231/231/231 289/289/289
f 293/293/293 596/596/596 602/602/602
f 293/293/293 288/288/288 596/596/596
f 600/600/600 656/656/656 651/651/651
f 600/600/600 651/651/651 593/593/593
f 606/606/606 294/294/294 603/603/603
f 606/606/606 297/297/297 294/294/294
f 606/606/606 296/296/296 297/297/297
f 606/606/606 605/605/605 296/296/296
f 606/606/606 657/657/657 655/655/655
f 606/606/606 655/655/655 605/605/605
f 285/285/285 230/230/230 228/228/228
f 285/285/285 228/228/228 284/284/284
f 290/290/290 296/296/296 605/605/605
f 290/290/290 605/605/605 599/599/599
f 291/291/291 229/229/229 233/233/233
f 291/291/291 286/286/286 229/229/229
f 292/292/292 601/601/601 595/595/595
f 292/292/292 595/595/595 287/287/287
f 591/591/591 286/286/286 594/594/594
f 591/591/591 284/284/284 286/286/286
f 592/592/592 598/598/598 289/289/289
f 592/592/592 289/289/289 285/285/285
f 592/592/592 285/285/285 284/284/284
f 592/592/592 284/284/284 591/591/591
f 592/592/592 652/652/652 654/654/654
f 592/592/592 591/591/591 652/652/652
o 07_Farola_Iron
usemtl Iron
s 1
f 204/204/204 213/213/213 182/182/182
f 188/188/188 172/172/172 192/192/192
f 252/252/252 264/264/264 276/276/276
f 236/236/236 241/241/241 269/269/269
f 265/265/265 256/256/256 278/278/278
f 200/200/200 180/180/180 212/212/212
f 189/189/189 195/195/195 174/174/174
f 237/237/237 271/271/271 245/245/245
f 270/270/270 268/268/268 277/277/277
f 270/270/270 277/277/277 279/279/279
f 181/181/181 173/173/173 175/175/175
f 181/181/181 175/175/175 183/183/183
f 213/213/213 180/180/180 182/182/182
f 213/213/213 212/212/212 180/180/180
f 205/205/205 175/175/175 195/195/195
f 205/205/205 183/183/183 175/175/175
f 257/257/257 270/270/270 279/279/279
f 257/257/257 244/244/244 270/270/270
f 255/255/255 203/203/203 194/194/194
f 255/255/255 194/194/194 243/243/243
f 253/253/253 277/277/277 268/268/268
f 253/253/253 268/268/268 240/240/240
f 236/236/236 192/192/192 241/241/241
f 236/236/236 188/188/188 192/192/192
f 265/265/265 212/212/212 213/213/213
f 265/265/265 264/264/264 212/212/212
f 265/265/265 278/278/278 276/276/276
f 265/265/265 276/276/276 264/264/264
f 265/265/265 204/204/204 256/256/256
f 265/265/265 213/213/213 204/204/204
f 200/200/200 212/212/212 264/264/264
f 200/200/200 264/264/264 252/252/252
f 201/201/201 173/173/173 181/181/181
f 201/201/201 192/192/192 173/173/173
f 202/202/202 254/254/254 242/242/242
f 202/202/202 242/242/242 193/193/193
f 189/189/189 174/174/174 172/172/172
f 189/189/189 172/172/172 188/188/188
f 237/237/237 269/269/269 271/271/271
f 237/237/237 236/236/236 269/269/269
f 237/237/237 188/188/188 236/236/236
f 237/237/237 189/189/189 188/188/188
f 237/237/237 245/245/245 195/195/195
f 237/237/237 195/195/195 189/189/189
f 210/210/210 215/215/215 186/186/186
f 190/190/190 176/176/176 196/196/196
f 258/258/258 266/266/266 280/280/280
f 238/238/238 247/247/247 273/273/273
f 267/267/267 262/262/262 282/282/282
f 206/206/206 184/184/184 214/214/214
f 191/191/191 199/199/199 178/178/178
f 239/239/239 275/275/275 251/251/251
f 274/274/274 272/272/272 281/281/281
f 274/274/274 281/281/281 283/283/283
f 185/185/185 177/177/177 179/179/179
f 185/185/185 179/179/179 187/187/187
f 215/215/215 184/184/184 186/186/186
f 215/215/215 214/214/214 184/184/184
f 211/211/211 179/179/179 199/199/199
f 211/211/211 187/187/187 179/179/179
f 263/263/263 274/274/274 283/283/283
f 263/263/263 250/250/250 274/274/274
f 261/261/261 209/209/209 198/198/198
f 261/261/261 198/198/198 249/249/249
f 259/259/259 281/281/281 272/272/272
f 259/259/259 272/272/272 246/246/246
f 238/238/238 196/196/196 247/247/247
f 238/238/238 190/190/190 196/196/196
f 267/267/267 214/214/214 215/215/215
f 267/267/267 266/266/266 214/214/214
f 267/267/267 282/282/282 280/280/280
f 267/267/267 280/280/280 266/266/266
f 267/267/267 210/210/210 262/262/262
f 267/267/267 215/215/215 210/210/210
f 206/206/206 214/214/214 266/266/266
f 206/206/206 266/266/266 258/258/258
f 207/207/207 177/177/177 185/185/185
f 207/207/207 196/196/196 177/177/177
f 208/208/208 260/260/260 248/248/248
f 208/208/208 248/248/248 197/197/197
f 191/191/191 178/178/178 176/176/176
f 191/191/191 176/176/176 190/190/190
f 239/239/239 273/273/273 275/275/275
f 239/239/239 238/238/238 273/273/273
f 239/239/239 190/190/190 238/238/238
f 239/239/239 191/191/191 190/190/190
f 239/239/239 251/251/251 199/199/199
f 239/239/239 199/199/199 191/191/191
f 639/639/639 648/648/648 617/617/617
f 623/623/623 607/607/607 627/627/627
f 675/675/675 687/687/687 699/699/699
f 659/659/659 664/664/664 692/692/692
f 688/688/688 679/679/679 701/701/701
f 635/635/635 615/615/615 647/647/647
f 624/624/624 630/630/630 609/609/609
f 660/660/660 694/694/694 668/668/668
f 693/693/693 691/691/691 700/700/700
f 693/693/693 700/700/700 702/702/702
f 616/616/616 608/608/608 610/610/610
f 616/616/616 610/610/610 618/618/618
f 648/648/648 615/615/615 617/617/617
f 648/648/648 647/647/647 615/615/615
f 640/640/640 610/610/610 630/630/630
f 640/640/640 618/618/618 610/610/610
f 680/680/680 693/693/693 702/702/702
f 680/680/680 667/667/667 693/693/693
f 678/678/678 638/638/638 629/629/629
f 678/678/678 629/629/629 666/666/666
f 676/676/676 700/700/700 691/691/691
f 676/676/676 691/691/691 663/663/663
f 659/659/659 627/627/627 664/664/664
f 659/659/659 623/623/623 627/627/627
f 688/688/688 647/647/647 648/648/648
f 688/688/688 687/687/687 647/647/647
f 688/688/688 701/701/701 699/699/699
f 688/688/688 699/699/699 687/687/687
f 688/688/688 639/639/639 679/679/679
f 688/688/688 648/648/648 639/639/639
f 635/635/635 647/647/647 687/687/687
f 635/635/635 687/687/687 675/675/675
f 636/636/636 608/608/608 616/616/616
f 636/636/636 627/627/627 608/608/608
f 637/637/637 677/677/677 665/665/665
f 637/637/637 665/665/665 628/628/628
f 624/624/624 609/609/609 607/607/607
f 624/624/624 607/607/607 623/623/623
f 660/660/660 692/692/692 694/694/694
f 660/660/660 659/659/659 692/692/692
f 660/660/660 623/623/623 659/659/659
f 660/660/660 624/624/624 623/623/623
f 660/660/660 668/668/668 630/630/630
f 660/660/660 630/630/630 624/624/624
f 645/645/645 650/650/650 621/621/621
f 625/625/625 611/611/611 631/631/631
f 681/681/681 689/689/689 703/703/703
f 661/661/661 670/670/670 696/696/696
f 690/690/690 685/685/685 705/705/705
f 641/641/641 619/619/619 649/649/649
f 626/626/626 634/634/634 613/613/613
f 662/662/662 698/698/698 674/674/674
f 697/697/697 695/695/695 704/704/704
f 697/697/697 704/704/704 706/706/706
f 620/620/620 612/612/612 614/614/614
f 620/620/620 614/614/614 622/622/622
f 650/650/650 619/619/619 621/621/621
f 650/650/650 649/649/649 619/619/619
f 646/646/646 614/614/614 634/634/634
f 646/646/646 622/622/622 614/614/614
f 686/686/686 697/697/697 706/706/706
f 686/686/686 673/673/673 697/697/697
f 684/684/684 644/644/644 633/633/633
f 684/684/684 633/633/633 672/672/672
f 682/682/682 704/704/704 695/695/695
f 682/682/682 695/695/695 669/669/669
f 661/661/661 631/631/631 670/670/670
f 661/661/661 625/625/625 631/631/631
f 690/690/690 649/649/649 650/650/650
f 690/690/690 689/689/689 649/649/649
f 690/690/690 705/705/705 703/703/703
f 690/690/690 703/703/703 689/689/689
f 690/690/690 645/645/645 685/685/685
f 690/690/690 650/650/650 645/645/645
f 641/641/641 649/649/649 689/689/689
f 641/641/641 689/689/689 681/681/681
f 642/642/642 612/612/612 620/620/620
f 642/642/642 631/631/631 612/612/612
f 643/643/643 683/683/683 671/671/671
f 643/643/643 671/671/671 632/632/632
f 626/626/626 613/613/613 611/611/611
f 626/626/626 611/611/611 625/625/625
f 662/662/662 696/696/696 698/698/698
f 662/662/662 661/661/661 696/696/696
f 662/662/662 625/625/625 661/661/661
f 662/662/662 626/626/626 625/625/625
f 662/662/662 674/674/674 634/634/634
f 662/662/662 634/634/634 626/626/626
f 733/733/733 723/723/723 719/719/719
f 154/154/154 144/144/144 159/159/159
f 166/166/166 170/170/170 147/147/147
f 732/732/732 716/716/716 721/721/721
f 163/163/163 146/146/146 168/168/168
f 157/157/157 162/162/162 145/145/145
f 707/707/707 712/712/712 730/730/730
f 710/710/710 731/731/731 715/715/715
f 146/146/146 144/144/144 145/145/145
f 146/146/146 145/145/145 147/147/147
f 171/171/171 724/724/724 720/720/720
f 171/171/171 720/720/720 167/167/167
f 170/170/170 146/146/146 147/147/147
f 170/170/170 168/168/168 146/146/146
f 166/166/166 147/147/147 145/145/145
f 166/166/166 145/145/145 162/162/162
f 165/165/165 723/723/723 169/169/169
f 165/165/165 718/718/718 723/723/723
f 732/732/732 712/712/712 716/716/716
f 732/732/732 730/730/730 712/712/712
f 732/732/732 731/731/731 730/730/730
f 732/732/732 733/733/733 731/731/731
f 732/732/732 721/721/721 723/723/723
f 732/732/732 723/723/723 733/733/733
f 164/164/164 168/168/168 722/722/722
f 164/164/164 722/722/722 717/717/717
f 164/164/164 717/717/717 713/713/713
f 164/164/164 713/713/713 160/160/160
f 163/163/163 144/144/144 146/146/146
f 163/163/163 159/159/159 144/144/144
f 714/714/714 165/165/165 161/161/161
f 714/714/714 718/718/718 165/165/165
f 715/715/715 731/731/731 733/733/733
f 715/715/715 733/733/733 719/719/719
f 157/157/157 145/145/145 144/144/144
f 157/157/157 144/144/144 154/154/154
f 708/708/708 160/160/160 713/713/713
f 708/708/708 154/154/154 160/160/160
f 710/710/710 714/714/714 161/161/161
f 710/710/710 161/161/161 156/156/156
f 711/711/711 158/158/158 155/155/155
f 711/711/711 155/155/155 709/709/709
f 710/710/710 730/730/730 731/731/731
f 710/710/710 707/707/707 730/730/730
f 420/420/420 725/725/725 728/728/728
f 420/420/420 728/728/728 151/151/151
f 420/420/420 151/151/151 149/149/149
f 420/420/420 149/149/149 725/725/725
f 726/726/726 590/590/590 729/729/729
f 726/726/726 588/588/588 590/590/590
f 729/729/729 299/299/299 150/150/150
f 729/729/729 590/590/590 299/299/299
f 150/150/150 298/298/298 148/148/148
f 150/150/150 299/299/299 298/298/298
f 148/148/148 589/589/589 727/727/727
f 148/148/148 298/298/298 589/589/589
f 588/588/588 428/428/428 590/590/590
f 590/590/590 426/426/426 299/299/299
f 299/299/299 425/425/425 298/298/298
f 298/298/298 427/427/427 589/589/589
f 543/543/543 563/563/563 534/534/534
f 543/543/543 571/571/571 563/563/563
f 534/534/534 555/555/555 506/506/506
f 534/534/534 563/563/563 555/555/555
f 506/506/506 547/547/547 498/498/498
f 506/506/506 555/555/555 547/547/547
f 498/498/498 513/513/513 482/482/482
f 498/498/498 547/547/547 513/513/513
f 482/482/482 489/489/489 474/474/474
f 482/482/482 513/513/513 489/489/489
f 474/474/474 465/465/465 458/458/458
f 474/474/474 489/489/489 465/465/465
f 458/458/458 449/449/449 442/442/442
f 458/458/458 465/465/465 449/449/449
f 442/442/442 422/422/422 429/429/429
f 442/442/442 449/449/449 422/422/422
f 429/429/429 405/405/405 412/412/412
f 429/429/429 422/422/422 405/405/405
f 412/412/412 389/389/389 396/396/396
f 412/412/412 405/405/405 389/389/389
f 396/396/396 365/365/365 380/380/380
f 396/396/396 389/389/389 365/365/365
f 380/380/380 341/341/341 372/372/372
f 380/380/380 365/365/365 341/341/341
f 372/372/372 321/321/321 356/356/356
f 372/372/372 341/341/341 321/321/321
f 356/356/356 313/313/313 348/348/348
f 356/356/356 321/321/321 313/313/313
f 348/348/348 305/305/305 332/332/332
f 348/348/348 313/313/313 305/305/305
f 332/332/332 301/301/301 328/328/328
f 332/332/332 305/305/305 301/301/301
f 328/328/328 309/309/309 336/336/336
f 328/328/328 301/301/301 309/309/309
f 336/336/336 317/317/317 352/352/352
f 336/336/336 309/309/309 317/317/317
f 352/352/352 325/325/325 360/360/360
f 352/352/352 317/317/317 325/325/325
f 360/360/360 345/345/345 376/376/376
f 360/360/360 325/325/325 345/345/345
f 376/376/376 369/369/369 384/384/384
f 376/376/376 345/345/345 369/369/369
f 384/384/384 393/393/393 400/400/400
f 384/384/384 369/369/369 393/393/393
f 400/400/400 409/409/409 416/416/416
f 400/400/400 393/393/393 409/409/409
f 416/416/416 437/437/437 434/434/434
f 416/416/416 409/409/409 437/437/437
f 434/434/434 453/453/453 446/446/446
f 434/434/434 437/437/437 453/453/453
f 446/446/446 469/469/469 462/462/462
f 446/446/446 453/453/453 469/469/469
f 462/462/462 493/493/493 478/478/478
f 462/462/462 469/469/469 493/493/493
f 478/478/478 517/517/517 486/486/486
f 478/478/478 493/493/493 517/517/517
f 486/486/486 551/551/551 502/502/502
f 486/486/486 517/517/517 551/551/551
f 502/502/502 559/559/559 510/510/510
f 502/502/502 551/551/551 559/559/559
f 510/510/510 567/567/567 538/538/538
f 510/510/510 559/559/559 567/567/567
f 538/538/538 571/571/571 543/543/543
f 538/538/538 567/567/567 571/571/571
f 572/572/572 566/566/566 564/564/564
f 572/572/572 575/575/575 566/566/566
f 564/564/564 558/558/558 556/556/556
f 564/564/564 566/566/566 558/558/558
f 556/556/556 550/550/550 548/548/548
f 556/556/556 558/558/558 550/550/550
f 548/548/548 516/516/516 514/514/514
f 548/548/548 550/550/550 516/516/516
f 514/514/514 492/492/492 490/490/490
f 514/514/514 516/516/516 492/492/492
f 490/490/490 468/468/468 466/466/466
f 490/490/490 492/492/492 468/468/468
f 466/466/466 452/452/452 450/450/450
f 466/466/466 468/468/468 452/452/452
f 450/450/450 423/423/423 421/421/421
f 450/450/450 452/452/452 423/423/423
f 421/421/421 406/406/406 404/404/404
f 421/421/421 423/423/423 406/406/406
f 404/404/404 390/390/390 388/388/388
f 404/404/404 406/406/406 390/390/390
f 388/388/388 366/366/366 364/364/364
f 388/388/388 390/390/390 366/366/366
f 364/364/364 342/342/342 340/340/340
f 364/364/364 366/366/366 342/342/342
f 340/340/340 322/322/322 320/320/320
f 340/340/340 342/342/342 322/322/322
f 320/320/320 314/314/314 312/312/312
f 320/320/320 322/322/322 314/314/314
f 312/312/312 306/306/306 304/304/304
f 312/312/312 314/314/314 306/306/306
f 304/304/304 302/302/302 300/300/300
f 304/304/304 306/306/306 302/302/302
f 300/300/300 310/310/310 308/308/308
f 300/300/300 302/302/302 310/310/310
f 308/308/308 318/318/318 316/316/316
f 308/308/308 310/310/310 318/318/318
f 316/316/316 326/326/326 324/324/324
f 316/316/316 318/318/318 326/326/326
f 324/324/324 346/346/346 344/344/344
f 324/324/324 326/326/326 346/346/346
f 344/344/344 370/370/370 368/368/368
f 344/344/344 346/346/346 370/370/370
f 368/368/368 394/394/394 392/392/392
f 368/368/368 370/370/370 394/394/394
f 392/392/392 410/410/410 408/408/408
f 392/392/392 394/394/394 410/410/410
f 408/408/408 440/440/440 438/438/438
f 408/408/408 410/410/410 440/440/440
f 438/438/438 456/456/456 454/454/454
f 438/438/438 440/440/440 456/456/456
f 454/454/454 472/472/472 470/470/470
f 454/454/454 456/456/456 472/472/472
f 470/470/470 496/496/496 494/494/494
f 470/470/470 472/472/472 496/496/496
f 494/494/494 520/520/520 518/518/518
f 494/494/494 496/496/496 520/520/520
f 518/518/518 554/554/554 552/552/552
f 518/518/518 520/520/520 554/554/554
f 552/552/552 562/562/562 560/560/560
f 552/552/552 554/554/554 562/562/562
f 560/560/560 570/570/570 568/568/568
f 560/560/560 562/562/562 570/570/570
f 568/568/568 576/576/576 573/573/573
f 568/568/568 570/570/570 576/576/576
f 574/574/574 536/536/536 565/565/565
f 574/574/574 546/546/546 536/536/536
f 565/565/565 508/508/508 557/557/557
f 565/565/565 536/536/536 508/508/508
f 557/557/557 500/500/500 549/549/549
f 557/557/557 508/508/508 500/500/500
f 549/549/549 484/484/484 515/515/515
f 549/549/549 500/500/500 484/484/484
f 515/515/515 476/476/476 491/491/491
f 515/515/515 484/484/484 476/476/476
f 491/491/491 460/460/460 467/467/467
f 491/491/491 476/476/476 460/460/460
f 467/467/467 444/444/444 451/451/451
f 467/467/467 460/460/460 444/444/444
f 451/451/451 431/431/431 424/424/424
f 451/451/451 444/444/444 431/431/431
f 424/424/424 414/414/414 407/407/407
f 424/424/424 431/431/431 414/414/414
f 407/407/407 398/398/398 391/391/391
f 407/407/407 414/414/414 398/398/398
f 391/391/391 382/382/382 367/367/367
f 391/391/391 398/398/398 382/382/382
f 367/367/367 374/374/374 343/343/343
f 367/367/367 382/382/382 374/374/374
f 343/343/343 358/358/358 323/323/323
f 343/343/343 374/374/374 358/358/358
f 323/323/323 350/350/350 315/315/315
f 323/323/323 358/358/358 350/350/350
f 315/315/315 334/334/334 307/307/307
f 315/315/315 350/350/350 334/334/334
f 307/307/307 330/330/330 303/303/303
f 307/307/307 334/334/334 330/330/330
f 303/303/303 338/338/338 311/311/311
f 303/303/303 330/330/330 338/338/338
f 311/311/311 354/354/354 319/319/319
f 311/311/311 338/338/338 354/354/354
f 319/319/319 362/362/362 327/327/327
f 319/319/319 354/354/354 362/362/362
f 327/327/327 378/378/378 347/347/347
f 327/327/327 362/362/362 378/378/378
f 347/347/347 386/386/386 371/371/371
f 347/347/347 378/378/378 386/386/386
f 371/371/371 402/402/402 395/395/395
f 371/371/371 386/386/386 402/402/402
f 395/395/395 418/418/418 411/411/411
f 395/395/395 402/402/402 418/418/418
f 411/411/411 436/436/436 439/439/439
f 411/411/411 418/418/418 436/436/436
f 439/439/439 448/448/448 455/455/455
f 439/439/439 436/436/436 448/448/448
f 455/455/455 464/464/464 471/471/471
f 455/455/455 448/448/448 464/464/464
f 471/471/471 480/480/480 495/495/495
f 471/471/471 464/464/464 480/480/480
f 495/495/495 488/488/488 519/519/519
f 495/495/495 480/480/480 488/488/488
f 519/519/519 504/504/504 553/553/553
f 519/519/519 488/488/488 504/504/504
f 553/553/553 512/512/512 561/561/561
f 553/553/553 504/504/504 512/512/512
f 561/561/561 540/540/540 569/569/569
f 561/561/561 512/512/512 540/540/540
f 569/569/569 546/546/546 574/574/574
f 569/569/569 540/540/540 546/546/546
f 544/544/544 533/533/533 535/535/535
f 544/544/544 541/541/541 533/533/533
f 535/535/535 505/505/505 507/507/507
f 535/535/535 533/533/533 505/505/505
f 507/507/507 497/497/497 499/499/499
f 507/507/507 505/505/505 497/497/497
f 499/499/499 481/481/481 483/483/483
f 499/499/499 497/497/497 481/481/481
f 483/483/483 473/473/473 475/475/475
f 483/483/483 481/481/481 473/473/473
f 475/475/475 457/457/457 459/459/459
f 475/475/475 473/473/473 457/457/457
f 459/459/459 441/441/441 443/443/443
f 459/459/459 457/457/457 441/441/441
f 443/443/443 430/430/430 432/432/432
f 443/443/443 441/441/441 430/430/430
f 432/432/432 413/413/413 415/415/415
f 432/432/432 430/430/430 413/413/413
f 415/415/415 397/397/397 399/399/399
f 415/415/415 413/413/413 397/397/397
f 399/399/399 381/381/381 383/383/383
f 399/399/399 397/397/397 381/381/381
f 383/383/383 373/373/373 375/375/375
f 383/383/383 381/381/381 373/373/373
f 375/375/375 357/357/357 359/359/359
f 375/375/375 373/373/373 357/357/357
f 359/359/359 349/349/349 351/351/351
f 359/359/359 357/357/357 349/349/349
f 351/351/351 333/333/333 335/335/335
f 351/351/351 349/349/349 333/333/333
f 335/335/335 329/329/329 331/331/331
f 335/335/335 333/333/333 329/329/329
f 331/331/331 337/337/337 339/339/339
f 331/331/331 329/329/329 337/337/337
f 339/339/339 353/353/353 355/355/355
f 339/339/339 337/337/337 353/353/353
f 355/355/355 361/361/361 363/363/363
f 355/355/355 353/353/353 361/361/361
f 363/363/363 377/377/377 379/379/379
f 363/363/363 361/361/361 377/377/377
f 379/379/379 385/385/385 387/387/387
f 379/379/379 377/377/377 385/385/385
f 387/387/387 401/401/401 403/403/403
f 387/387/387 385/385/385 401/401/401
f 403/403/403 417/417/417 419/419/419
f 403/403/403 401/401/401 417/417/417
f 419/419/419 433/433/433 435/435/435
f 419/419/419 417/417/417 433/433/433
f 435/435/435 445/445/445 447/447/447
f 435/435/435 433/433/433 445/445/445
f 447/447/447 461/461/461 463/463/463
f 447/447/447 445/445/445 461/461/461
f 463/463/463 477/477/477 479/479/479
f 463/463/463 461/461/461 477/477/477
f 479/479/479 485/485/485 487/487/487
f 479/479/479 477/477/477 485/485/485
f 487/487/487 501/501/501 503/503/503
f 487/487/487 485/485/485 501/501/501
f 503/503/503 509/509/509 511/511/511
f 503/503/503 501/501/501 509/509/509
f 511/511/511 537/537/537 539/539/539
f 511/511/511 509/509/509 537/537/537
f 539/539/539 542/542/542 545/545/545
f 539/539/539 537/537/537 542/542/542
o 07_Farola_Stone
usemtl Stone
s 1
f 5/5/5 1/1/1 10/10/10
f 17/17/17 21/21/21 4/4/4
f 132/132/132 121/121/121 126/126/126
f 14/14/14 3/3/3 19/19/19
f 124/124/124 133/133/133 128/128/128
f 115/115/115 131/131/131 120/120/120
f 8/8/8 13/13/13 2/2/2
f 112/112/112 117/117/117 130/130/130
f 3/3/3 1/1/1 2/2/2
f 3/3/3 2/2/2 4/4/4
f 22/22/22 129/129/129 125/125/125
f 22/22/22 125/125/125 18/18/18
f 21/21/21 3/3/3 4/4/4
f 21/21/21 19/19/19 3/3/3
f 17/17/17 4/4/4 2/2/2
f 17/17/17 2/2/2 13/13/13
f 132/132/132 117/117/117 121/121/121
f 132/132/132 130/130/130 117/117/117
f 132/132/132 126/126/126 128/128/128
f 132/132/132 128/128/128 133/133/133
f 15/15/15 19/19/19 127/127/127
f 15/15/15 127/127/127 122/122/122
f 15/15/15 122/122/122 118/118/118
f 15/15/15 118/118/118 11/11/11
f 14/14/14 1/1/1 3/3/3
f 14/14/14 10/10/10 1/1/1
f 131/131/131 130/130/130 132/132/132
f 131/131/131 132/132/132 133/133/133
f 124/124/124 131/131/131 133/133/133
f 124/124/124 120/120/120 131/131/131
f 123/123/123 128/128/128 20/20/20
f 123/123/123 20/20/20 16/16/16
f 123/123/123 16/16/16 12/12/12
f 123/123/123 12/12/12 119/119/119
f 8/8/8 2/2/2 1/1/1
f 8/8/8 1/1/1 5/5/5
f 7/7/7 119/119/119 12/12/12
f 7/7/7 115/115/115 119/119/119
f 114/114/114 116/116/116 9/9/9
f 114/114/114 9/9/9 6/6/6
f 113/113/113 11/11/11 118/118/118
f 113/113/113 5/5/5 11/11/11
f 112/112/112 130/130/130 131/131/131
f 112/112/112 131/131/131 115/115/115
o 07_Farola_Wood
usemtl Wood
s 1
f 27/27/27 23/23/23 32/32/32
f 39/39/39 44/44/44 26/26/26
f 99/99/99 104/104/104 110/110/110
f 107/107/107 102/102/102 111/111/111
f 30/30/30 35/35/35 24/24/24
f 36/36/36 25/25/25 41/41/41
f 90/90/90 95/95/95 108/108/108
f 93/93/93 109/109/109 98/98/98
f 25/25/25 23/23/23 24/24/24
f 25/25/25 24/24/24 26/26/26
f 44/44/44 25/25/25 26/26/26
f 44/44/44 41/41/41 25/25/25
f 109/109/109 110/110/110 111/111/111
f 109/109/109 108/108/108 110/110/110
f 102/102/102 98/98/98 109/109/109
f 102/102/102 109/109/109 111/111/111
f 39/39/39 26/26/26 24/24/24
f 39/39/39 24/24/24 35/35/35
f 38/38/38 97/97/97 101/101/101
f 38/38/38 34/34/34 97/97/97
f 99/99/99 110/110/110 108/108/108
f 99/99/99 108/108/108 95/95/95
f 107/107/107 38/38/38 101/101/101
f 107/107/107 42/42/42 38/38/38
f 106/106/106 40/40/40 43/43/43
f 106/106/106 103/103/103 40/40/40
f 107/107/107 111/111/111 110/110/110
f 107/107/107 110/110/110 104/104/104
f 30/30/30 24/24/24 23/23/23
f 30/30/30 23/23/23 27/27/27
f 37/37/37 41/41/41 105/105/105
f 37/37/37 105/105/105 100/100/100
f 36/36/36 23/23/23 25/25/25
f 36/36/36 32/32/32 23/23/23
f 37/37/37 100/100/100 96/96/96
f 37/37/37 96/96/96 33/33/33
f 92/92/92 33/33/33 96/96/96
f 92/92/92 27/27/27 33/33/33
f 93/93/93 97/97/97 34/34/34
f 93/93/93 34/34/34 29/29/29
f 94/94/94 31/31/31 28/28/28
f 94/94/94 28/28/28 91/91/91
f 93/93/93 108/108/108 109/109/109
f 93/93/93 90/90/90 108/108/108
f 70/70/70 57/57/57 72/72/72
f 532/532/532 530/530/530 586/586/586
f 79/79/79 81/81/81 65/65/65
f 583/583/583 527/527/527 531/531/531
f 76/76/76 62/62/62 80/80/80
f 71/71/71 75/75/75 60/60/60
f 521/521/521 523/523/523 578/578/578
f 522/522/522 581/581/581 526/526/526
f 63/63/63 58/58/58 61/61/61
f 63/63/63 61/61/61 66/66/66
f 81/81/81 62/62/62 65/65/65
f 81/81/81 80/80/80 62/62/62
f 532/532/532 80/80/80 81/81/81
f 532/532/532 531/531/531 80/80/80
f 78/78/78 67/67/67 59/59/59
f 78/78/78 59/59/59 74/74/74
f 78/78/78 74/74/74 525/525/525
f 78/78/78 525/525/525 529/529/529
f 79/79/79 532/532/532 81/81/81
f 79/79/79 530/530/530 532/532/532
f 579/579/579 529/529/529 525/525/525
f 579/579/579 587/587/587 529/529/529
f 582/582/582 585/585/585 580/580/580
f 582/582/582 580/580/580 577/577/577
f 584/584/584 578/578/578 524/524/524
f 584/584/584 524/524/524 528/528/528
f 583/583/583 531/531/531 532/532/532
f 583/583/583 532/532/532 586/586/586
f 76/76/76 80/80/80 531/531/531
f 76/76/76 531/531/531 527/527/527
f 77/77/77 528/528/528 524/524/524
f 77/77/77 524/524/524 73/73/73
f 77/77/77 57/57/57 64/64/64
f 77/77/77 73/73/73 57/57/57
f 71/71/71 60/60/60 57/57/57
f 71/71/71 57/57/57 70/70/70
f 521/521/521 72/72/72 523/523/523
f 521/521/521 70/70/70 72/72/72
f 522/522/522 578/578/578 581/581/581
f 522/522/522 521/521/521 578/578/578
f 522/522/522 526/526/526 75/75/75
f 522/522/522 75/75/75 71/71/71
f 522/522/522 71/71/71 70/70/70
f 522/522/522 70/70/70 521/521/521
f 86/86/86 68/68/68 82/82/82
f 56/56/56 48/48/48 50/50/50
f 52/52/52 49/49/49 46/46/46
f 142/142/142 153/153/153 136/136/136
f 152/152/152 138/138/138 134/134/134
f 88/88/88 85/85/85 69/69/69
f 224/224/224 216/216/216 222/222/222
f 226/226/226 223/223/223 220/220/220
f 49/49/49 68/68/68 69/69/69
f 49/49/49 69/69/69 50/50/50
f 47/47/47 137/137/137 135/135/135
f 47/47/47 135/135/135 45/45/45
f 48/48/48 49/49/49 50/50/50
f 48/48/48 46/46/46 49/49/49
f 56/56/56 50/50/50 69/69/69
f 56/56/56 69/69/69 85/85/85
f 51/51/51 45/45/45 135/135/135
f 51/51/51 135/135/135 139/139/139
f 53/53/53 218/218/218 83/83/83
f 53/53/53 140/140/140 218/218/218
f 52/52/52 68/68/68 49/49/49
f 52/52/52 82/82/82 68/68/68
f 142/142/142 223/223/223 153/153/153
f 142/142/142 220/220/220 223/223/223
f 143/143/143 137/137/137 47/47/47
f 143/143/143 47/47/47 55/55/55
f 141/141/141 54/54/54 84/84/84
f 141/141/141 84/84/84 219/219/219
f 152/152/152 216/216/216 138/138/138
f 152/152/152 222/222/222 216/216/216
f 152/152/152 134/134/134 136/136/136
f 152/152/152 136/136/136 153/153/153
f 152/152/152 153/153/153 223/223/223
f 152/152/152 223/223/223 222/222/222
f 88/88/88 69/69/69 68/68/68
f 88/88/88 68/68/68 86/86/86
f 225/225/225 82/82/82 217/217/217
f 225/225/225 87/87/87 82/82/82
f 226/226/226 222/222/222 223/223/223
f 226/226/226 224/224/224 222/222/222
f 227/227/227 221/221/221 85/85/85
f 227/227/227 85/85/85 89/89/89
f 227/227/227 89/89/89 87/87/87
f 227/227/227 87/87/87 225/225/225
