# metres; Y up; ground-centred pivot
mtllib 08_Farol_Pared.mtl
v -0.1697056 0.6200000 -0.0216605
v -0.1697056 0.6200000 -0.0216605
v -0.1697056 0.6200000 0.3177507
v -0.1697056 0.6200000 0.3177507
v -0.1445000 0.1687450 0.0160401
v -0.1445000 0.1687450 0.0160401
v -0.1445000 0.1687450 0.2800501
v -0.1445000 0.1687450 0.2800501
v -0.1445000 0.2032550 0.0160401
v -0.1445000 0.2032550 0.0160401
v -0.1445000 0.2032550 0.2800501
v -0.1445000 0.2032550 0.2800501
v -0.1320050 0.1562500 0.0160401
v -0.1320050 0.1562500 0.2800501
v -0.1320050 0.1687450 0.0035451
v -0.1320050 0.1687450 0.0035451
v -0.1320050 0.1687450 0.0035451
v -0.1320050 0.1687450 0.2925451
v -0.1320050 0.1687450 0.2925451
v -0.1320050 0.1687450 0.2925451
v -0.1320050 0.2032550 0.0035451
v -0.1320050 0.2032550 0.0035451
v -0.1320050 0.2032550 0.0035451
v -0.1320050 0.2032550 0.2925451
v -0.1320050 0.2032550 0.2925451
v -0.1320050 0.2032550 0.2925451
v -0.1320050 0.2157500 0.0160401
v -0.1320050 0.2157500 0.2800501
v -0.1253750 0.2134975 0.0289176
v -0.1253750 0.2134975 0.0289176
v -0.1253750 0.2134975 0.0461726
v -0.1253750 0.2134975 0.0461726
v -0.1253750 0.2134975 0.2499176
v -0.1253750 0.2134975 0.2499176
v -0.1253750 0.2134975 0.2671726
v -0.1253750 0.2134975 0.2671726
v -0.1253750 0.5665025 0.0289176
v -0.1253750 0.5665025 0.0289176
v -0.1253750 0.5665025 0.0461726
v -0.1253750 0.5665025 0.0461726
v -0.1253750 0.5665025 0.2499176
v -0.1253750 0.5665025 0.2499176
v -0.1253750 0.5665025 0.2671726
v -0.1253750 0.5665025 0.2671726
v -0.1191275 0.2072500 0.0289176
v -0.1191275 0.2072500 0.0461726
v -0.1191275 0.2072500 0.2499176
v -0.1191275 0.2072500 0.2671726
v -0.1191275 0.2134975 0.0226701
v -0.1191275 0.2134975 0.0226701
v -0.1191275 0.2134975 0.0524201
v -0.1191275 0.2134975 0.0524201
v -0.1191275 0.2134975 0.2436701
v -0.1191275 0.2134975 0.2436701
v -0.1191275 0.2134975 0.2734201
v -0.1191275 0.2134975 0.2734201
v -0.1191275 0.5665025 0.0226701
v -0.1191275 0.5665025 0.0226701
v -0.1191275 0.5665025 0.0226701
v -0.1191275 0.5665025 0.0524201
v -0.1191275 0.5665025 0.0524201
v -0.1191275 0.5665025 0.0524201
v -0.1191275 0.5665025 0.2436701
v -0.1191275 0.5665025 0.2436701
v -0.1191275 0.5665025 0.2436701
v -0.1191275 0.5665025 0.2734201
v -0.1191275 0.5665025 0.2734201
v -0.1191275 0.5665025 0.2734201
v -0.1191275 0.5727500 0.0289176
v -0.1191275 0.5727500 0.0461726
v -0.1191275 0.5727500 0.2499176
v -0.1191275 0.5727500 0.2671726
v -0.1020000 0.2570000 0.0660451
v -0.1020000 0.2570000 0.0660451
v -0.1020000 0.2570000 0.2300451
v -0.1020000 0.2570000 0.2300451
v -0.1020000 0.5230000 0.0660451
v -0.1020000 0.5230000 0.0660451
v -0.1020000 0.5230000 0.2300451
v -0.1020000 0.5230000 0.2300451
v -0.1018725 0.2072500 0.0289176
v -0.1018725 0.2072500 0.0461726
v -0.1018725 0.2072500 0.2499176
v -0.1018725 0.2072500 0.2671726
v -0.1018725 0.2134975 0.0226701
v -0.1018725 0.2134975 0.0226701
v -0.1018725 0.2134975 0.0226701
v -0.1018725 0.2134975 0.0524201
v -0.1018725 0.2134975 0.0524201
v -0.1018725 0.2134975 0.0524201
v -0.1018725 0.2134975 0.2436701
v -0.1018725 0.2134975 0.2436701
v -0.1018725 0.2134975 0.2436701
v -0.1018725 0.2134975 0.2734201
v -0.1018725 0.2134975 0.2734201
v -0.1018725 0.2134975 0.2734201
v -0.1018725 0.5665025 0.0226701
v -0.1018725 0.5665025 0.0226701
v -0.1018725 0.5665025 0.0226701
v -0.1018725 0.5665025 0.0524201
v -0.1018725 0.5665025 0.0524201
v -0.1018725 0.5665025 0.0524201
v -0.1018725 0.5665025 0.2436701
v -0.1018725 0.5665025 0.2436701
v -0.1018725 0.5665025 0.2436701
v -0.1018725 0.5665025 0.2734201
v -0.1018725 0.5665025 0.2734201
v -0.1018725 0.5665025 0.2734201
v -0.1018725 0.5727500 0.0289176
v -0.1018725 0.5727500 0.0461726
v -0.1018725 0.5727500 0.2499176
v -0.1018725 0.5727500 0.2671726
v -0.0989949 0.7600000 0.0490502
v -0.0989949 0.7600000 0.2470401
v -0.0956250 0.2134975 0.0289176
v -0.0956250 0.2134975 0.0289176
v -0.0956250 0.2134975 0.0461726
v -0.0956250 0.2134975 0.0461726
v -0.0956250 0.2134975 0.2499176
v -0.0956250 0.2134975 0.2499176
v -0.0956250 0.2134975 0.2671726
v -0.0956250 0.2134975 0.2671726
v -0.0956250 0.5665025 0.0289176
v -0.0956250 0.5665025 0.0289176
v -0.0956250 0.5665025 0.0461726
v -0.0956250 0.5665025 0.0461726
v -0.0956250 0.5665025 0.2499176
v -0.0956250 0.5665025 0.2499176
v -0.0956250 0.5665025 0.2671726
v -0.0956250 0.5665025 0.2671726
v -0.0820000 0.2370000 0.0660451
v -0.0820000 0.2370000 0.2300451
v -0.0820000 0.2570000 0.0460451
v -0.0820000 0.2570000 0.0460451
v -0.0820000 0.2570000 0.2500451
v -0.0820000 0.2570000 0.2500451
v -0.0820000 0.5230000 0.0460451
v -0.0820000 0.5230000 0.0460451
v -0.0820000 0.5230000 0.0460451
v -0.0820000 0.5230000 0.2500451
v -0.0820000 0.5230000 0.2500451
v -0.0820000 0.5230000 0.2500451
v -0.0820000 0.5430000 0.0660451
v -0.0820000 0.5430000 0.2300451
v -0.0800000 0.0200000 -0.2819549
v -0.0800000 0.0200000 -0.2819549
v -0.0800000 0.0200000 -0.2219549
v -0.0800000 0.0200000 -0.2219549
v -0.0800000 0.9800000 -0.2819549
v -0.0800000 0.9800000 -0.2819549
v -0.0800000 0.9800000 -0.2219549
v -0.0800000 0.9800000 -0.2219549
v -0.0600000 0.0000000 -0.2819549
v -0.0600000 0.0000000 -0.2819549
v -0.0600000 0.0000000 -0.2219549
v -0.0600000 0.0000000 -0.2219549
v -0.0600000 0.0000000 -0.2219549
v -0.0600000 0.0200000 -0.3019549
v -0.0600000 0.0200000 -0.2019549
v -0.0600000 0.9800000 -0.3019549
v -0.0600000 0.9800000 -0.2019549
v -0.0600000 1.0000000 -0.2819549
v -0.0600000 1.0000000 -0.2819549
v -0.0600000 1.0000000 -0.2219549
v -0.0600000 1.0000000 -0.2219549
v -0.0600000 1.0000000 -0.2219549
v -0.0510000 0.7640000 0.1378451
v -0.0510000 0.7640000 0.1378451
v -0.0510000 0.7640000 0.1582451
v -0.0510000 0.7640000 0.1582451
v -0.0500200 0.7540504 0.1378451
v -0.0500200 0.7540504 0.1378451
v -0.0500200 0.7540504 0.1582451
v -0.0500200 0.7540504 0.1582451
v -0.0500200 0.7739496 0.1378451
v -0.0500200 0.7739496 0.1378451
v -0.0500200 0.7739496 0.1582451
v -0.0500200 0.7739496 0.1582451
v -0.0471179 0.7444831 0.1378451
v -0.0471179 0.7444831 0.1378451
v -0.0471179 0.7444831 0.1582451
v -0.0471179 0.7444831 0.1582451
v -0.0471179 0.7835169 0.1378451
v -0.0471179 0.7835169 0.1378451
v -0.0471179 0.7835169 0.1582451
v -0.0471179 0.7835169 0.1582451
v -0.0424050 0.7356659 0.1378451
v -0.0424050 0.7356659 0.1378451
v -0.0424050 0.7356659 0.1582451
v -0.0424050 0.7356659 0.1582451
v -0.0424050 0.7923341 0.1378451
v -0.0424050 0.7923341 0.1378451
v -0.0424050 0.7923341 0.1582451
v -0.0424050 0.7923341 0.1582451
v -0.0382500 0.7640000 0.1378451
v -0.0382500 0.7640000 0.1378451
v -0.0382500 0.7640000 0.1582451
v -0.0382500 0.7640000 0.1582451
v -0.0375150 0.7565378 0.1378451
v -0.0375150 0.7565378 0.1378451
v -0.0375150 0.7565378 0.1582451
v -0.0375150 0.7565378 0.1582451
v -0.0375150 0.7714622 0.1378451
v -0.0375150 0.7714622 0.1378451
v -0.0375150 0.7714622 0.1582451
v -0.0375150 0.7714622 0.1582451
v -0.0360624 0.7279376 0.1378451
v -0.0360624 0.7279376 0.1378451
v -0.0360624 0.7279376 0.1582451
v -0.0360624 0.7279376 0.1582451
v -0.0360624 0.8000624 0.1378451
v -0.0360624 0.8000624 0.1378451
v -0.0360624 0.8000624 0.1582451
v -0.0360624 0.8000624 0.1582451
v -0.0353384 0.7493624 0.1378451
v -0.0353384 0.7493624 0.1378451
v -0.0353384 0.7493624 0.1582451
v -0.0353384 0.7493624 0.1582451
v -0.0353384 0.7786376 0.1378451
v -0.0353384 0.7786376 0.1378451
v -0.0353384 0.7786376 0.1582451
v -0.0353384 0.7786376 0.1582451
v -0.0318037 0.7427494 0.1378451
v -0.0318037 0.7427494 0.1378451
v -0.0318037 0.7427494 0.1582451
v -0.0318037 0.7427494 0.1582451
v -0.0318037 0.7852506 0.1378451
v -0.0318037 0.7852506 0.1378451
v -0.0318037 0.7852506 0.1582451
v -0.0318037 0.7852506 0.1582451
v -0.0300000 0.7826000 -0.2983549
v -0.0300000 0.7826000 -0.2983549
v -0.0300000 0.7826000 0.1744451
v -0.0300000 0.7826000 0.1744451
v -0.0300000 0.7826000 0.1744451
v -0.0300000 0.8174000 -0.2983549
v -0.0300000 0.8174000 -0.2983549
v -0.0300000 0.8174000 -0.2983549
v -0.0300000 0.8174000 0.1744451
v -0.0300000 0.8174000 0.1744451
v -0.0300000 0.8174000 0.1744451
v -0.0283341 0.7215950 0.1378451
v -0.0283341 0.7215950 0.1378451
v -0.0283341 0.7215950 0.1582451
v -0.0283341 0.7215950 0.1582451
v -0.0283341 0.8064050 0.1378451
v -0.0283341 0.8064050 0.1378451
v -0.0283341 0.8064050 0.1582451
v -0.0283341 0.8064050 0.1582451
v -0.0270468 0.7369532 0.1378451
v -0.0270468 0.7369532 0.1378451
v -0.0270468 0.7369532 0.1582451
v -0.0270468 0.7369532 0.1582451
v -0.0270468 0.7910468 0.1378451
v -0.0270468 0.7910468 0.1378451
v -0.0270468 0.7910468 0.1582451
v -0.0270468 0.7910468 0.1582451
v -0.0225000 0.3712120 -0.2922969
v -0.0225000 0.3712120 -0.2922969
v -0.0225000 0.3894324 -0.3109845
v -0.0225000 0.3894324 -0.3109845
v -0.0225000 0.7705676 0.0970748
v -0.0225000 0.7705676 0.0970748
v -0.0225000 0.7887880 0.0783872
v -0.0225000 0.7887880 0.0783872
v -0.0212506 0.7321963 0.1378451
v -0.0212506 0.7321963 0.1378451
v -0.0212506 0.7321963 0.1582451
v -0.0212506 0.7321963 0.1582451
v -0.0212506 0.7958037 0.1378451
v -0.0212506 0.7958037 0.1378451
v -0.0212506 0.7958037 0.1582451
v -0.0212506 0.7958037 0.1582451
v -0.0195169 0.7168821 0.1378451
v -0.0195169 0.7168821 0.1378451
v -0.0195169 0.7168821 0.1582451
v -0.0195169 0.7168821 0.1582451
v -0.0195169 0.8111179 0.1378451
v -0.0195169 0.8111179 0.1378451
v -0.0195169 0.8111179 0.1582451
v -0.0195169 0.8111179 0.1582451
v -0.0174000 0.7700000 -0.2983549
v -0.0174000 0.7700000 -0.2983549
v -0.0174000 0.7700000 0.1744451
v -0.0174000 0.7700000 0.1744451
v -0.0174000 0.7826000 -0.3109549
v -0.0174000 0.7826000 0.1870451
v -0.0174000 0.8174000 -0.3109549
v -0.0174000 0.8174000 0.1870451
v -0.0174000 0.8300000 -0.2983549
v -0.0174000 0.8300000 -0.2983549
v -0.0174000 0.8300000 0.1744451
v -0.0174000 0.8300000 0.1744451
v -0.0146376 0.7286616 0.1378451
v -0.0146376 0.7286616 0.1378451
v -0.0146376 0.7286616 0.1582451
v -0.0146376 0.7286616 0.1582451
v -0.0146376 0.7993384 0.1378451
v -0.0146376 0.7993384 0.1378451
v -0.0146376 0.7993384 0.1582451
v -0.0146376 0.7993384 0.1582451
v -0.0130500 0.3644458 -0.2988940
v -0.0130500 0.3644458 -0.2988940
v -0.0130500 0.3644458 -0.2988940
v -0.0130500 0.3646149 -0.2855307
v -0.0130500 0.3826662 -0.3175816
v -0.0130500 0.3826662 -0.3175816
v -0.0130500 0.3960295 -0.3177507
v -0.0130500 0.7639705 0.1038410
v -0.0130500 0.7773338 0.1036718
v -0.0130500 0.7773338 0.1036718
v -0.0130500 0.7773338 0.1036718
v -0.0130500 0.7953851 0.0716210
v -0.0130500 0.7955542 0.0849842
v -0.0130500 0.7955542 0.0849842
v -0.0099496 0.7139800 0.1378451
v -0.0099496 0.7139800 0.1378451
v -0.0099496 0.7139800 0.1582451
v -0.0099496 0.7139800 0.1582451
v -0.0099496 0.8140200 0.1378451
v -0.0099496 0.8140200 0.1378451
v -0.0099496 0.8140200 0.1582451
v -0.0099496 0.8140200 0.1582451
v -0.0074622 0.7264850 0.1378451
v -0.0074622 0.7264850 0.1378451
v -0.0074622 0.7264850 0.1582451
v -0.0074622 0.7264850 0.1582451
v -0.0074622 0.8015150 0.1378451
v -0.0074622 0.8015150 0.1378451
v -0.0074622 0.8015150 0.1582451
v -0.0074622 0.8015150 0.1582451
v 0.0000000 0.6200000 0.1480451
v 0.0000000 0.7130000 0.1378451
v 0.0000000 0.7130000 0.1378451
v 0.0000000 0.7130000 0.1582451
v 0.0000000 0.7130000 0.1582451
v 0.0000000 0.7257500 0.1378451
v 0.0000000 0.7257500 0.1378451
v 0.0000000 0.7257500 0.1582451
v 0.0000000 0.7257500 0.1582451
v 0.0000000 0.7800000 0.1480451
v 0.0000000 0.7800000 0.1480451
v 0.0000000 0.7800000 0.1480451
v 0.0000000 0.7800000 0.1480451
v -0.0000000 0.8022500 0.1378451
v -0.0000000 0.8022500 0.1378451
v -0.0000000 0.8022500 0.1582451
v -0.0000000 0.8022500 0.1582451
v -0.0000000 0.8150000 0.1378451
v -0.0000000 0.8150000 0.1378451
v -0.0000000 0.8150000 0.1582451
v -0.0000000 0.8150000 0.1582451
v 0.0074622 0.7264850 0.1378451
v 0.0074622 0.7264850 0.1378451
v 0.0074622 0.7264850 0.1582451
v 0.0074622 0.7264850 0.1582451
v 0.0074622 0.8015150 0.1378451
v 0.0074622 0.8015150 0.1378451
v 0.0074622 0.8015150 0.1582451
v 0.0074622 0.8015150 0.1582451
v 0.0099496 0.7139800 0.1378451
v 0.0099496 0.7139800 0.1378451
v 0.0099496 0.7139800 0.1582451
v 0.0099496 0.7139800 0.1582451
v 0.0099496 0.8140200 0.1378451
v 0.0099496 0.8140200 0.1378451
v 0.0099496 0.8140200 0.1582451
v 0.0099496 0.8140200 0.1582451
v 0.0130500 0.3644458 -0.2988940
v 0.0130500 0.3644458 -0.2988940
v 0.0130500 0.3646149 -0.2855307
v 0.0130500 0.3826662 -0.3175816
v 0.0130500 0.3826662 -0.3175816
v 0.0130500 0.3826662 -0.3175816
v 0.0130500 0.3960295 -0.3177507
v 0.0130500 0.7639705 0.1038410
v 0.0130500 0.7773338 0.1036718
v 0.0130500 0.7773338 0.1036718
v 0.0130500 0.7953851 0.0716210
v 0.0130500 0.7955542 0.0849842
v 0.0130500 0.7955542 0.0849842
v 0.0130500 0.7955542 0.0849842
v 0.0146376 0.7286616 0.1378451
v 0.0146376 0.7286616 0.1378451
v 0.0146376 0.7286616 0.1582451
v 0.0146376 0.7286616 0.1582451
v 0.0146376 0.7993384 0.1378451
v 0.0146376 0.7993384 0.1378451
v 0.0146376 0.7993384 0.1582451
v 0.0146376 0.7993384 0.1582451
v 0.0174000 0.7700000 -0.2983549
v 0.0174000 0.7700000 -0.2983549
v 0.0174000 0.7700000 0.1744451
v 0.0174000 0.7700000 0.1744451
v 0.0174000 0.7826000 -0.3109549
v 0.0174000 0.7826000 0.1870451
v 0.0174000 0.8174000 -0.3109549
v 0.0174000 0.8174000 0.1870451
v 0.0174000 0.8300000 -0.2983549
v 0.0174000 0.8300000 -0.2983549
v 0.0174000 0.8300000 0.1744451
v 0.0174000 0.8300000 0.1744451
v 0.0195169 0.7168821 0.1378451
v 0.0195169 0.7168821 0.1378451
v 0.0195169 0.7168821 0.1582451
v 0.0195169 0.7168821 0.1582451
v 0.0195169 0.8111179 0.1378451
v 0.0195169 0.8111179 0.1378451
v 0.0195169 0.8111179 0.1582451
v 0.0195169 0.8111179 0.1582451
v 0.0212506 0.7321963 0.1378451
v 0.0212506 0.7321963 0.1378451
v 0.0212506 0.7321963 0.1582451
v 0.0212506 0.7321963 0.1582451
v 0.0212506 0.7958037 0.1378451
v 0.0212506 0.7958037 0.1378451
v 0.0212506 0.7958037 0.1582451
v 0.0212506 0.7958037 0.1582451
v 0.0225000 0.3712120 -0.2922969
v 0.0225000 0.3712120 -0.2922969
v 0.0225000 0.3894324 -0.3109845
v 0.0225000 0.3894324 -0.3109845
v 0.0225000 0.7705676 0.0970748
v 0.0225000 0.7705676 0.0970748
v 0.0225000 0.7887880 0.0783872
v 0.0225000 0.7887880 0.0783872
v 0.0270468 0.7369532 0.1378451
v 0.0270468 0.7369532 0.1378451
v 0.0270468 0.7369532 0.1582451
v 0.0270468 0.7369532 0.1582451
v 0.0270468 0.7910468 0.1378451
v 0.0270468 0.7910468 0.1378451
v 0.0270468 0.7910468 0.1582451
v 0.0270468 0.7910468 0.1582451
v 0.0283341 0.7215950 0.1378451
v 0.0283341 0.7215950 0.1378451
v 0.0283341 0.7215950 0.1582451
v 0.0283341 0.7215950 0.1582451
v 0.0283341 0.8064050 0.1378451
v 0.0283341 0.8064050 0.1378451
v 0.0283341 0.8064050 0.1582451
v 0.0283341 0.8064050 0.1582451
v 0.0300000 0.7826000 -0.2983549
v 0.0300000 0.7826000 -0.2983549
v 0.0300000 0.7826000 0.1744451
v 0.0300000 0.7826000 0.1744451
v 0.0300000 0.7826000 0.1744451
v 0.0300000 0.8174000 -0.2983549
v 0.0300000 0.8174000 -0.2983549
v 0.0300000 0.8174000 -0.2983549
v 0.0300000 0.8174000 0.1744451
v 0.0300000 0.8174000 0.1744451
v 0.0300000 0.8174000 0.1744451
v 0.0318037 0.7427494 0.1378451
v 0.0318037 0.7427494 0.1378451
v 0.0318037 0.7427494 0.1582451
v 0.0318037 0.7427494 0.1582451
v 0.0318037 0.7852506 0.1378451
v 0.0318037 0.7852506 0.1378451
v 0.0318037 0.7852506 0.1582451
v 0.0318037 0.7852506 0.1582451
v 0.0353384 0.7493624 0.1378451
v 0.0353384 0.7493624 0.1378451
v 0.0353384 0.7493624 0.1582451
v 0.0353384 0.7493624 0.1582451
v 0.0353384 0.7786376 0.1378451
v 0.0353384 0.7786376 0.1378451
v 0.0353384 0.7786376 0.1582451
v 0.0353384 0.7786376 0.1582451
v 0.0360624 0.7279376 0.1378451
v 0.0360624 0.7279376 0.1378451
v 0.0360624 0.7279376 0.1582451
v 0.0360624 0.7279376 0.1582451
v 0.0360624 0.8000624 0.1378451
v 0.0360624 0.8000624 0.1378451
v 0.0360624 0.8000624 0.1582451
v 0.0360624 0.8000624 0.1582451
v 0.0375150 0.7565378 0.1378451
v 0.0375150 0.7565378 0.1378451
v 0.0375150 0.7565378 0.1582451
v 0.0375150 0.7565378 0.1582451
v 0.0375150 0.7714622 0.1378451
v 0.0375150 0.7714622 0.1378451
v 0.0375150 0.7714622 0.1582451
v 0.0375150 0.7714622 0.1582451
v 0.0382500 0.7640000 0.1378451
v 0.0382500 0.7640000 0.1378451
v 0.0382500 0.7640000 0.1378451
v 0.0382500 0.7640000 0.1582451
v 0.0382500 0.7640000 0.1582451
v 0.0382500 0.7640000 0.1582451
v 0.0424050 0.7356659 0.1378451
v 0.0424050 0.7356659 0.1378451
v 0.0424050 0.7356659 0.1582451
v 0.0424050 0.7356659 0.1582451
v 0.0424050 0.7923341 0.1378451
v 0.0424050 0.7923341 0.1378451
v 0.0424050 0.7923341 0.1582451
v 0.0424050 0.7923341 0.1582451
v 0.0471179 0.7444831 0.1378451
v 0.0471179 0.7444831 0.1378451
v 0.0471179 0.7444831 0.1582451
v 0.0471179 0.7444831 0.1582451
v 0.0471179 0.7835169 0.1378451
v 0.0471179 0.7835169 0.1378451
v 0.0471179 0.7835169 0.1582451
v 0.0471179 0.7835169 0.1582451
v 0.0500200 0.7540504 0.1378451
v 0.0500200 0.7540504 0.1378451
v 0.0500200 0.7540504 0.1582451
v 0.0500200 0.7540504 0.1582451
v 0.0500200 0.7739496 0.1378451
v 0.0500200 0.7739496 0.1378451
v 0.0500200 0.7739496 0.1582451
v 0.0500200 0.7739496 0.1582451
v 0.0510000 0.7640000 0.1378451
v 0.0510000 0.7640000 0.1378451
v 0.0510000 0.7640000 0.1378451
v 0.0510000 0.7640000 0.1582451
v 0.0510000 0.7640000 0.1582451
v 0.0510000 0.7640000 0.1582451
v 0.0600000 0.0000000 -0.2819549
v 0.0600000 0.0000000 -0.2819549
v 0.0600000 0.0000000 -0.2819549
v 0.0600000 0.0000000 -0.2219549
v 0.0600000 0.0000000 -0.2219549
v 0.0600000 0.0000000 -0.2219549
v 0.0600000 0.0200000 -0.3019549
v 0.0600000 0.0200000 -0.2019549
v 0.0600000 0.9800000 -0.3019549
v 0.0600000 0.9800000 -0.2019549
v 0.0600000 1.0000000 -0.2819549
v 0.0600000 1.0000000 -0.2819549
v 0.0600000 1.0000000 -0.2819549
v 0.0600000 1.0000000 -0.2219549
v 0.0600000 1.0000000 -0.2219549
v 0.0600000 1.0000000 -0.2219549
v 0.0800000 0.0200000 -0.2819549
v 0.0800000 0.0200000 -0.2819549
v 0.0800000 0.0200000 -0.2219549
v 0.0800000 0.0200000 -0.2219549
v 0.0800000 0.9800000 -0.2819549
v 0.0800000 0.9800000 -0.2819549
v 0.0800000 0.9800000 -0.2219549
v 0.0800000 0.9800000 -0.2219549
v 0.0820000 0.2370000 0.0660451
v 0.0820000 0.2370000 0.2300451
v 0.0820000 0.2570000 0.0460451
v 0.0820000 0.2570000 0.0460451
v 0.0820000 0.2570000 0.0460451
v 0.0820000 0.2570000 0.2500451
v 0.0820000 0.2570000 0.2500451
v 0.0820000 0.2570000 0.2500451
v 0.0820000 0.5230000 0.0460451
v 0.0820000 0.5230000 0.0460451
v 0.0820000 0.5230000 0.0460451
v 0.0820000 0.5230000 0.2500451
v 0.0820000 0.5230000 0.2500451
v 0.0820000 0.5230000 0.2500451
v 0.0820000 0.5430000 0.0660451
v 0.0820000 0.5430000 0.2300451
v 0.0956250 0.2134975 0.0289176
v 0.0956250 0.2134975 0.0289176
v 0.0956250 0.2134975 0.0461726
v 0.0956250 0.2134975 0.0461726
v 0.0956250 0.2134975 0.2499176
v 0.0956250 0.2134975 0.2499176
v 0.0956250 0.2134975 0.2671726
v 0.0956250 0.2134975 0.2671726
v 0.0956250 0.5665025 0.0289176
v 0.0956250 0.5665025 0.0289176
v 0.0956250 0.5665025 0.0461726
v 0.0956250 0.5665025 0.0461726
v 0.0956250 0.5665025 0.2499176
v 0.0956250 0.5665025 0.2499176
v 0.0956250 0.5665025 0.2671726
v 0.0956250 0.5665025 0.2671726
v 0.0989949 0.7600000 0.0490502
v 0.0989949 0.7600000 0.0490502
v 0.0989949 0.7600000 0.2470401
v 0.1018725 0.2072500 0.0289176
v 0.1018725 0.2072500 0.0461726
v 0.1018725 0.2072500 0.2499176
v 0.1018725 0.2072500 0.2671726
v 0.1018725 0.2134975 0.0226701
v 0.1018725 0.2134975 0.0226701
v 0.1018725 0.2134975 0.0524201
v 0.1018725 0.2134975 0.0524201
v 0.1018725 0.2134975 0.2436701
v 0.1018725 0.2134975 0.2436701
v 0.1018725 0.2134975 0.2734201
v 0.1018725 0.2134975 0.2734201
v 0.1018725 0.5665025 0.0226701
v 0.1018725 0.5665025 0.0226701
v 0.1018725 0.5665025 0.0226701
v 0.1018725 0.5665025 0.0524201
v 0.1018725 0.5665025 0.0524201
v 0.1018725 0.5665025 0.0524201
v 0.1018725 0.5665025 0.2436701
v 0.1018725 0.5665025 0.2436701
v 0.1018725 0.5665025 0.2436701
v 0.1018725 0.5665025 0.2734201
v 0.1018725 0.5665025 0.2734201
v 0.1018725 0.5665025 0.2734201
v 0.1018725 0.5727500 0.0289176
v 0.1018725 0.5727500 0.0461726
v 0.1018725 0.5727500 0.2499176
v 0.1018725 0.5727500 0.2671726
v 0.1020000 0.2570000 0.0660451
v 0.1020000 0.2570000 0.0660451
v 0.1020000 0.2570000 0.2300451
v 0.1020000 0.2570000 0.2300451
v 0.1020000 0.5230000 0.0660451
v 0.1020000 0.5230000 0.0660451
v 0.1020000 0.5230000 0.2300451
v 0.1020000 0.5230000 0.2300451
v 0.1191275 0.2072500 0.0289176
v 0.1191275 0.2072500 0.0461726
v 0.1191275 0.2072500 0.2499176
v 0.1191275 0.2072500 0.2671726
v 0.1191275 0.2134975 0.0226701
v 0.1191275 0.2134975 0.0226701
v 0.1191275 0.2134975 0.0226701
v 0.1191275 0.2134975 0.0524201
v 0.1191275 0.2134975 0.0524201
v 0.1191275 0.2134975 0.0524201
v 0.1191275 0.2134975 0.2436701
v 0.1191275 0.2134975 0.2436701
v 0.1191275 0.2134975 0.2436701
v 0.1191275 0.2134975 0.2734201
v 0.1191275 0.2134975 0.2734201
v 0.1191275 0.2134975 0.2734201
v 0.1191275 0.5665025 0.0226701
v 0.1191275 0.5665025 0.0226701
v 0.1191275 0.5665025 0.0226701
v 0.1191275 0.5665025 0.0524201
v 0.1191275 0.5665025 0.0524201
v 0.1191275 0.5665025 0.0524201
v 0.1191275 0.5665025 0.2436701
v 0.1191275 0.5665025 0.2436701
v 0.1191275 0.5665025 0.2436701
v 0.1191275 0.5665025 0.2734201
v 0.1191275 0.5665025 0.2734201
v 0.1191275 0.5665025 0.2734201
v 0.1191275 0.5727500 0.0289176
v 0.1191275 0.5727500 0.0461726
v 0.1191275 0.5727500 0.2499176
v 0.1191275 0.5727500 0.2671726
v 0.1253750 0.2134975 0.0289176
v 0.1253750 0.2134975 0.0289176
v 0.1253750 0.2134975 0.0461726
v 0.1253750 0.2134975 0.0461726
v 0.1253750 0.2134975 0.2499176
v 0.1253750 0.2134975 0.2499176
v 0.1253750 0.2134975 0.2671726
v 0.1253750 0.2134975 0.2671726
v 0.1253750 0.5665025 0.0289176
v 0.1253750 0.5665025 0.0289176
v 0.1253750 0.5665025 0.0461726
v 0.1253750 0.5665025 0.0461726
v 0.1253750 0.5665025 0.2499176
v 0.1253750 0.5665025 0.2499176
v 0.1253750 0.5665025 0.2671726
v 0.1253750 0.5665025 0.2671726
v 0.1320050 0.1562500 0.0160401
v 0.1320050 0.1562500 0.2800501
v 0.1320050 0.1687450 0.0035451
v 0.1320050 0.1687450 0.0035451
v 0.1320050 0.1687450 0.0035451
v 0.1320050 0.1687450 0.2925451
v 0.1320050 0.1687450 0.2925451
v 0.1320050 0.1687450 0.2925451
v 0.1320050 0.2032550 0.0035451
v 0.1320050 0.2032550 0.0035451
v 0.1320050 0.2032550 0.0035451
v 0.1320050 0.2032550 0.2925451
v 0.1320050 0.2032550 0.2925451
v 0.1320050 0.2032550 0.2925451
v 0.1320050 0.2157500 0.0160401
v 0.1320050 0.2157500 0.2800501
v 0.1445000 0.1687450 0.0160401
v 0.1445000 0.1687450 0.0160401
v 0.1445000 0.1687450 0.2800501
v 0.1445000 0.1687450 0.2800501
v 0.1445000 0.2032550 0.0160401
v 0.1445000 0.2032550 0.0160401
v 0.1445000 0.2032550 0.2800501
v 0.1445000 0.2032550 0.2800501
v 0.1697056 0.6200000 -0.0216605
v 0.1697056 0.6200000 -0.0216605
v 0.1697056 0.6200000 -0.0216605
v 0.1697056 0.6200000 0.3177507
v 0.1697056 0.6200000 0.3177507
vt 0.7500000 0.1437500
vt 0.5000000 0.0000000
vt 0.5000000 0.1437500
vt 0.0000000 0.5000000
vt 0.1321922 0.0877441
vt 0.1321922 0.0914191
vt 0.1321922 0.1690691
vt 0.5093494 0.0877441
vt 0.1321922 0.0877441
vt 0.1814922 0.0914191
vt 0.1814922 0.1690691
vt 0.5093494 0.0877441
vt 0.1321922 0.0914191
vt 0.5093494 0.0914191
vt 0.1143422 0.0914191
vt 0.1321922 0.0877441
vt 0.1321922 0.0914191
vt 0.1321922 0.0914191
vt 0.1321922 0.1727441
vt 0.5271994 0.0914191
vt 0.1143422 0.0914191
vt 0.1814922 0.0877441
vt 0.1814922 0.0914191
vt 0.1814922 0.0914191
vt 0.1814922 0.1727441
vt 0.5271994 0.0914191
vt 0.1321922 0.0914191
vt 0.5093494 0.0914191
vt 0.1125673 0.0515320
vt 0.1125673 0.0533695
vt 0.1372173 0.0515320
vt 0.1372173 0.0533695
vt 0.0611408 0.1130947
vt 0.0611408 0.1149322
vt 0.0857908 0.1130947
vt 0.0857908 0.1149322
vt 0.1125673 0.0515320
vt 0.1125673 0.1571945
vt 0.1372173 0.0515320
vt 0.1372173 0.1571945
vt 0.0611408 0.1130947
vt 0.0611408 0.2187572
vt 0.0857908 0.1130947
vt 0.0857908 0.2187572
vt 0.1125673 0.0533695
vt 0.1372173 0.0533695
vt 0.0611408 0.1149322
vt 0.0857908 0.1149322
vt 0.1036423 0.0533695
vt 0.1125673 0.0533695
vt 0.1125673 0.0533695
vt 0.1461423 0.0533695
vt 0.0522158 0.1149322
vt 0.0611408 0.1149322
vt 0.0611408 0.1149322
vt 0.0947158 0.1149322
vt 0.1036423 0.0533695
vt 0.1036423 0.1571945
vt 0.1125673 0.1571945
vt 0.1125673 0.1571945
vt 0.1461423 0.0533695
vt 0.1461423 0.1571945
vt 0.0522158 0.1149322
vt 0.0522158 0.2187572
vt 0.0611408 0.2187572
vt 0.0611408 0.2187572
vt 0.0947158 0.1149322
vt 0.0947158 0.2187572
vt 0.1125673 0.0533695
vt 0.1372173 0.0533695
vt 0.0611408 0.1149322
vt 0.0857908 0.1149322
vt 0.0580215 0.0483494
vt 0.0580215 0.0542317
vt 0.2923072 0.0483494
vt 0.2923072 0.0542317
vt 0.0580215 0.0483494
vt 0.0580215 0.1324670
vt 0.2923072 0.0483494
vt 0.2923072 0.1324670
vt 0.1125673 0.0584445
vt 0.1372173 0.0584445
vt 0.0611408 0.1200072
vt 0.0857908 0.1200072
vt 0.1036423 0.0533695
vt 0.1036423 0.0584445
vt 0.1372173 0.0533695
vt 0.1372173 0.0533695
vt 0.1461423 0.0533695
vt 0.1461423 0.0584445
vt 0.0522158 0.1149322
vt 0.0522158 0.1200072
vt 0.0857908 0.1149322
vt 0.0857908 0.1149322
vt 0.0947158 0.1149322
vt 0.0947158 0.1200072
vt 0.1036423 0.0584445
vt 0.1036423 0.1571945
vt 0.1372173 0.1571945
vt 0.1372173 0.1571945
vt 0.1461423 0.0584445
vt 0.1461423 0.1571945
vt 0.0522158 0.1200072
vt 0.0522158 0.2187572
vt 0.0857908 0.2187572
vt 0.0857908 0.2187572
vt 0.0947158 0.1200072
vt 0.0947158 0.2187572
vt 0.1125673 0.0584445
vt 0.1372173 0.0584445
vt 0.0611408 0.1200072
vt 0.0857908 0.1200072
vt 0.7500000 0.2312500
vt 0.5000000 0.2312500
vt 0.1125673 0.0533695
vt 0.1125673 0.0602820
vt 0.1372173 0.0533695
vt 0.1372173 0.0602820
vt 0.0611408 0.1149322
vt 0.0611408 0.1218447
vt 0.0857908 0.1149322
vt 0.0857908 0.1218447
vt 0.1125673 0.0602820
vt 0.1125673 0.1571945
vt 0.1372173 0.0602820
vt 0.1372173 0.1571945
vt 0.0611408 0.1218447
vt 0.0611408 0.2187572
vt 0.0857908 0.1218447
vt 0.0857908 0.2187572
vt 0.0580215 0.0542317
vt 0.2923072 0.0542317
vt 0.0294501 0.0542317
vt 0.0580215 0.0542317
vt 0.0580215 0.0542317
vt 0.3208787 0.0542317
vt 0.0294501 0.0542317
vt 0.0294501 0.1324670
vt 0.0580215 0.1324670
vt 0.0580215 0.1324670
vt 0.3208787 0.0542317
vt 0.3208787 0.1324670
vt 0.0580215 0.0542317
vt 0.2923072 0.0542317
vt 0.1061464 0.1337190
vt 0.1347179 0.1337190
vt 0.1061464 0.1337190
vt 0.2204321 0.1337190
vt 0.1061464 0.4160719
vt 0.1347179 0.4160719
vt 0.1061464 0.4160719
vt 0.2204321 0.4160719
vt 0.1347179 0.1278366
vt 0.1347179 0.1337190
vt 0.1347179 0.1278366
vt 0.2204321 0.1278366
vt 0.2204321 0.1337190
vt 0.1347179 0.1337190
vt 0.1347179 0.1337190
vt 0.1347179 0.4160719
vt 0.1347179 0.4160719
vt 0.1347179 0.1337190
vt 0.1347179 0.4219543
vt 0.1347179 0.4219543
vt 0.2204321 0.1337190
vt 0.2204321 0.4219543
vt 0.5000000 -0.0063750
vt 0.0000000 0.5000000
vt 0.5000000 0.0063750
vt 0.0000000 0.5000000
vt 0.4687500 -0.0063750
vt 0.0096074 0.5975452
vt 0.4687500 0.0063750
vt 0.0096074 0.5975452
vt 0.5312500 -0.0063750
vt 0.0096074 0.4024548
vt 0.5312500 0.0063750
vt 0.0096074 0.4024548
vt 0.4375000 -0.0063750
vt 0.0380602 0.6913417
vt 0.4375000 0.0063750
vt 0.0380602 0.6913417
vt 0.5625000 -0.0063750
vt 0.0380602 0.3086583
vt 0.5625000 0.0063750
vt 0.0380602 0.3086583
vt 0.4062500 -0.0063750
vt 0.0842652 0.7777851
vt 0.4062500 0.0063750
vt 0.0842652 0.7777851
vt 0.5937500 -0.0063750
vt 0.0842652 0.2222149
vt 0.5937500 0.0063750
vt 0.0842652 0.2222149
vt 0.1250000 0.5000000
vt 0.5000000 -0.0063750
vt 0.1250000 0.5000000
vt 0.5000000 0.0063750
vt 0.1322055 0.5731589
vt 0.4687500 -0.0063750
vt 0.1322055 0.5731589
vt 0.4687500 0.0063750
vt 0.1322055 0.4268411
vt 0.5312500 -0.0063750
vt 0.1322055 0.4268411
vt 0.5312500 0.0063750
vt 0.3750000 -0.0063750
vt 0.1464466 0.8535534
vt 0.3750000 0.0063750
vt 0.1464466 0.8535534
vt 0.6250000 -0.0063750
vt 0.1464466 0.1464466
vt 0.6250000 0.0063750
vt 0.1464466 0.1464466
vt 0.1535452 0.6435063
vt 0.4375000 -0.0063750
vt 0.1535452 0.6435063
vt 0.4375000 0.0063750
vt 0.1535452 0.3564937
vt 0.5625000 -0.0063750
vt 0.1535452 0.3564937
vt 0.5625000 0.0063750
vt 0.1881989 0.7083388
vt 0.4062500 -0.0063750
vt 0.1881989 0.7083388
vt 0.4062500 0.0063750
vt 0.1881989 0.2916612
vt 0.5937500 -0.0063750
vt 0.1881989 0.2916612
vt 0.5937500 0.0063750
vt 0.1214403 0.0680906
vt 0.1891546 0.0680906
vt 0.1214403 0.2071494
vt 0.1891546 0.0680906
vt 0.1891546 0.2071494
vt 0.1711546 0.0680906
vt 0.1891546 0.0680906
vt 0.1891546 0.0783259
vt 0.1711546 0.2071494
vt 0.1891546 0.0783259
vt 0.1891546 0.2071494
vt 0.3437500 -0.0063750
vt 0.2222149 0.9157348
vt 0.3437500 0.0063750
vt 0.2222149 0.9157348
vt 0.6562500 -0.0063750
vt 0.2222149 0.0842652
vt 0.6562500 0.0063750
vt 0.2222149 0.0842652
vt 0.2348350 0.7651650
vt 0.3750000 -0.0063750
vt 0.2348350 0.7651650
vt 0.3750000 0.0063750
vt 0.2348350 0.2348350
vt 0.6250000 -0.0063750
vt 0.2348350 0.2348350
vt 0.6250000 0.0063750
vt 0.1134352 0.1156469
vt 0.1642210 0.1156469
vt 0.1507210 0.1156469
vt 0.1642210 0.1156469
vt 0.1134352 0.2796937
vt 0.1642210 0.2796937
vt 0.1507210 0.2796937
vt 0.1642210 0.2796937
vt 0.2916612 0.8118011
vt 0.3437500 -0.0063750
vt 0.2916612 0.8118011
vt 0.3437500 0.0063750
vt 0.2916612 0.1881989
vt 0.6562500 -0.0063750
vt 0.2916612 0.1881989
vt 0.6562500 0.0063750
vt 0.3125000 -0.0063750
vt 0.3086583 0.9619398
vt 0.3125000 0.0063750
vt 0.3086583 0.9619398
vt 0.6875000 -0.0063750
vt 0.3086583 0.0380602
vt 0.6875000 0.0063750
vt 0.3086583 0.0380602
vt 0.1711546 0.0643847
vt 0.1711546 0.0680906
vt 0.1711546 0.0643847
vt 0.1711546 0.2071494
vt 0.1711546 0.0680906
vt 0.1711546 0.0680906
vt 0.1711546 0.0783259
vt 0.1711546 0.0783259
vt 0.1711546 0.0680906
vt 0.1711546 0.0820318
vt 0.1711546 0.0820318
vt 0.1711546 0.2071494
vt 0.3564937 0.8464548
vt 0.3125000 -0.0063750
vt 0.3564937 0.8464548
vt 0.3125000 0.0063750
vt 0.3564937 0.1535452
vt 0.6875000 -0.0063750
vt 0.3564937 0.1535452
vt 0.6875000 0.0063750
vt 0.1134352 0.1128675
vt 0.1507210 0.1128675
vt 0.1507210 0.1156469
vt 0.1507210 0.1156469
vt 0.1507210 0.1128675
vt 0.1507210 0.1233233
vt 0.1507210 0.1156469
vt 0.1507210 0.2796937
vt 0.1134352 0.2824731
vt 0.1507210 0.1156469
vt 0.1507210 0.2824731
vt 0.1507210 0.2796937
vt 0.1507210 0.1233233
vt 0.1507210 0.2824731
vt 0.2812500 -0.0063750
vt 0.4024548 0.9903926
vt 0.2812500 0.0063750
vt 0.4024548 0.9903926
vt 0.7187500 -0.0063750
vt 0.4024548 0.0096074
vt 0.7187500 0.0063750
vt 0.4024548 0.0096074
vt 0.4268411 0.8677945
vt 0.2812500 -0.0063750
vt 0.4268411 0.8677945
vt 0.2812500 0.0063750
vt 0.4268411 0.1322055
vt 0.7187500 -0.0063750
vt 0.4268411 0.1322055
vt 0.7187500 0.0063750
vt 0.5000000 0.5000000
vt 0.2500000 -0.0063750
vt 0.5000000 1.0000000
vt 0.2500000 0.0063750
vt 0.5000000 1.0000000
vt 0.5000000 0.8750000
vt 0.2500000 -0.0063750
vt 0.5000000 0.8750000
vt 0.2500000 0.0063750
vt 0.7500000 0.2437500
vt 0.5000000 0.2437500
vt 1.0000000 0.2437500
vt 0.2500000 0.2437500
vt 0.7500000 -0.0063750
vt 0.5000000 0.1250000
vt 0.7500000 0.0063750
vt 0.5000000 0.1250000
vt 0.5000000 0.0000000
vt 0.7500000 -0.0063750
vt 0.5000000 0.0000000
vt 0.7500000 0.0063750
vt 0.2187500 -0.0063750
vt 0.5731589 0.8677945
vt 0.2187500 0.0063750
vt 0.5731589 0.8677945
vt 0.7812500 -0.0063750
vt 0.5731589 0.1322055
vt 0.7812500 0.0063750
vt 0.5731589 0.1322055
vt 0.5975452 0.9903926
vt 0.2187500 -0.0063750
vt 0.5975452 0.9903926
vt 0.2187500 0.0063750
vt 0.5975452 0.0096074
vt 0.7812500 -0.0063750
vt 0.5975452 0.0096074
vt 0.7812500 0.0063750
vt 0.1134352 0.1128675
vt 0.1134352 0.1156469
vt 0.1134352 0.1156469
vt 0.1134352 0.1128675
vt 0.1134352 0.1233233
vt 0.1507210 0.1128675
vt 0.1134352 0.1156469
vt 0.1134352 0.2796937
vt 0.1134352 0.1156469
vt 0.1134352 0.2824731
vt 0.1134352 0.2796937
vt 0.1134352 0.1233233
vt 0.1134352 0.2824731
vt 0.1507210 0.2824731
vt 0.1875000 -0.0063750
vt 0.6435063 0.8464548
vt 0.1875000 0.0063750
vt 0.6435063 0.8464548
vt 0.8125000 -0.0063750
vt 0.6435063 0.1535452
vt 0.8125000 0.0063750
vt 0.6435063 0.1535452
vt 0.1214403 0.0643847
vt 0.1214403 0.0680906
vt 0.1214403 0.0643847
vt 0.1214403 0.2071494
vt 0.1214403 0.0680906
vt 0.1214403 0.0680906
vt 0.1214403 0.0783259
vt 0.1214403 0.0783259
vt 0.1214403 0.0680906
vt 0.1214403 0.0820318
vt 0.1214403 0.0820318
vt 0.1214403 0.2071494
vt 0.6913417 0.9619398
vt 0.1875000 -0.0063750
vt 0.6913417 0.9619398
vt 0.1875000 0.0063750
vt 0.6913417 0.0380602
vt 0.8125000 -0.0063750
vt 0.6913417 0.0380602
vt 0.8125000 0.0063750
vt 0.1562500 -0.0063750
vt 0.7083388 0.8118011
vt 0.1562500 0.0063750
vt 0.7083388 0.8118011
vt 0.8437500 -0.0063750
vt 0.7083388 0.1881989
vt 0.8437500 0.0063750
vt 0.7083388 0.1881989
vt 0.0999352 0.1156469
vt 0.1134352 0.1156469
vt 0.0999352 0.1156469
vt 0.1507210 0.1156469
vt 0.0999352 0.2796937
vt 0.1134352 0.2796937
vt 0.0999352 0.2796937
vt 0.1507210 0.2796937
vt 0.1250000 -0.0063750
vt 0.7651650 0.7651650
vt 0.1250000 0.0063750
vt 0.7651650 0.7651650
vt 0.8750000 -0.0063750
vt 0.7651650 0.2348350
vt 0.8750000 0.0063750
vt 0.7651650 0.2348350
vt 0.7777851 0.9157348
vt 0.1562500 -0.0063750
vt 0.7777851 0.9157348
vt 0.1562500 0.0063750
vt 0.7777851 0.0842652
vt 0.8437500 -0.0063750
vt 0.7777851 0.0842652
vt 0.8437500 0.0063750
vt 0.1034403 0.0680906
vt 0.1214403 0.0680906
vt 0.1034403 0.0680906
vt 0.1034403 0.2071494
vt 0.1214403 0.2071494
vt 0.1034403 0.0680906
vt 0.1034403 0.0783259
vt 0.1711546 0.0680906
vt 0.1034403 0.0783259
vt 0.1034403 0.2071494
vt 0.1711546 0.2071494
vt 0.0937500 -0.0063750
vt 0.8118011 0.7083388
vt 0.0937500 0.0063750
vt 0.8118011 0.7083388
vt 0.9062500 -0.0063750
vt 0.8118011 0.2916612
vt 0.9062500 0.0063750
vt 0.8118011 0.2916612
vt 0.0625000 -0.0063750
vt 0.8464548 0.6435063
vt 0.0625000 0.0063750
vt 0.8464548 0.6435063
vt 0.9375000 -0.0063750
vt 0.8464548 0.3564937
vt 0.9375000 0.0063750
vt 0.8464548 0.3564937
vt 0.8535534 0.8535534
vt 0.1250000 -0.0063750
vt 0.8535534 0.8535534
vt 0.1250000 0.0063750
vt 0.8535534 0.1464466
vt 0.8750000 -0.0063750
vt 0.8535534 0.1464466
vt 0.8750000 0.0063750
vt 0.0312500 -0.0063750
vt 0.8677945 0.5731589
vt 0.0312500 0.0063750
vt 0.8677945 0.5731589
vt 0.9687500 -0.0063750
vt 0.8677945 0.4268411
vt 0.9687500 0.0063750
vt 0.8677945 0.4268411
vt 0.0000000 -0.0063750
vt 1.0000000 -0.0063750
vt 0.8750000 0.5000000
vt 0.0000000 0.0063750
vt 1.0000000 0.0063750
vt 0.8750000 0.5000000
vt 0.9157348 0.7777851
vt 0.0937500 -0.0063750
vt 0.9157348 0.7777851
vt 0.0937500 0.0063750
vt 0.9157348 0.2222149
vt 0.9062500 -0.0063750
vt 0.9157348 0.2222149
vt 0.9062500 0.0063750
vt 0.9619398 0.6913417
vt 0.0625000 -0.0063750
vt 0.9619398 0.6913417
vt 0.0625000 0.0063750
vt 0.9619398 0.3086583
vt 0.9375000 -0.0063750
vt 0.9619398 0.3086583
vt 0.9375000 0.0063750
vt 0.9903926 0.5975452
vt 0.0312500 -0.0063750
vt 0.9903926 0.5975452
vt 0.0312500 0.0063750
vt 0.9903926 0.4024548
vt 0.9687500 -0.0063750
vt 0.9903926 0.4024548
vt 0.9687500 0.0063750
vt 1.0000000 0.5000000
vt 0.0000000 -0.0063750
vt 1.0000000 -0.0063750
vt 1.0000000 0.5000000
vt 0.0000000 0.0063750
vt 1.0000000 0.0063750
vt 0.1347179 0.1278366
vt 0.1347179 0.1690131
vt 0.3061464 0.1278366
vt 0.2204321 0.1278366
vt 0.2204321 0.1690131
vt 0.3061464 0.1278366
vt 0.3061464 0.1337190
vt 0.3061464 0.1337190
vt 0.3061464 0.4160719
vt 0.3061464 0.4160719
vt 0.1347179 0.1690131
vt 0.1347179 0.4219543
vt 0.3061464 0.4219543
vt 0.2204321 0.1690131
vt 0.2204321 0.4219543
vt 0.3061464 0.4219543
vt 0.1347179 0.1337190
vt 0.3347179 0.1337190
vt 0.2204321 0.1337190
vt 0.3347179 0.1337190
vt 0.1347179 0.4160719
vt 0.3347179 0.4160719
vt 0.2204321 0.4160719
vt 0.3347179 0.4160719
vt 0.0580215 0.1024670
vt 0.2923072 0.1024670
vt 0.0294501 0.0542317
vt 0.0294501 0.1024670
vt 0.2923072 0.0542317
vt 0.2923072 0.0542317
vt 0.3208787 0.0542317
vt 0.3208787 0.1024670
vt 0.0294501 0.1024670
vt 0.0294501 0.1324670
vt 0.2923072 0.1324670
vt 0.2923072 0.1324670
vt 0.3208787 0.1024670
vt 0.3208787 0.1324670
vt 0.0580215 0.1024670
vt 0.2923072 0.1024670
vt 0.1212486 0.0378150
vt 0.1212486 0.0396525
vt 0.1458986 0.0378150
vt 0.1458986 0.0396525
vt 0.1328993 0.0939703
vt 0.1328993 0.0958078
vt 0.1575493 0.0939703
vt 0.1575493 0.0958078
vt 0.1212486 0.0378150
vt 0.1212486 0.1434775
vt 0.1458986 0.0378150
vt 0.1458986 0.1434775
vt 0.1328993 0.0939703
vt 0.1328993 0.1996328
vt 0.1575493 0.0939703
vt 0.1575493 0.1996328
vt 0.0000000 0.2312500
vt 1.0000000 0.2312500
vt 0.2500000 0.2312500
vt 0.1212486 0.0396525
vt 0.1458986 0.0396525
vt 0.1328993 0.0958078
vt 0.1575493 0.0958078
vt 0.1123236 0.0396525
vt 0.1212486 0.0396525
vt 0.1212486 0.0396525
vt 0.1548236 0.0396525
vt 0.1239743 0.0958078
vt 0.1328993 0.0958078
vt 0.1328993 0.0958078
vt 0.1664743 0.0958078
vt 0.1123236 0.0396525
vt 0.1123236 0.1434775
vt 0.1212486 0.1434775
vt 0.1212486 0.1434775
vt 0.1548236 0.0396525
vt 0.1548236 0.1434775
vt 0.1239743 0.0958078
vt 0.1239743 0.1996328
vt 0.1328993 0.1996328
vt 0.1328993 0.1996328
vt 0.1664743 0.0958078
vt 0.1664743 0.1996328
vt 0.1212486 0.0396525
vt 0.1458986 0.0396525
vt 0.1328993 0.0958078
vt 0.1575493 0.0958078
vt 0.0580215 0.0542317
vt 0.0580215 0.1083494
vt 0.2923072 0.0542317
vt 0.2923072 0.1083494
vt 0.0580215 0.1083494
vt 0.0580215 0.1324670
vt 0.2923072 0.1083494
vt 0.2923072 0.1324670
vt 0.1212486 0.0447275
vt 0.1458986 0.0447275
vt 0.1328993 0.1008828
vt 0.1575493 0.1008828
vt 0.1123236 0.0396525
vt 0.1123236 0.0447275
vt 0.1458986 0.0396525
vt 0.1458986 0.0396525
vt 0.1548236 0.0396525
vt 0.1548236 0.0447275
vt 0.1239743 0.0958078
vt 0.1239743 0.1008828
vt 0.1575493 0.0958078
vt 0.1575493 0.0958078
vt 0.1664743 0.0958078
vt 0.1664743 0.1008828
vt 0.1123236 0.0447275
vt 0.1123236 0.1434775
vt 0.1458986 0.1434775
vt 0.1458986 0.1434775
vt 0.1548236 0.0447275
vt 0.1548236 0.1434775
vt 0.1239743 0.1008828
vt 0.1239743 0.1996328
vt 0.1575493 0.1996328
vt 0.1575493 0.1996328
vt 0.1664743 0.1008828
vt 0.1664743 0.1996328
vt 0.1212486 0.0447275
vt 0.1458986 0.0447275
vt 0.1328993 0.1008828
vt 0.1575493 0.1008828
vt 0.1212486 0.0396525
vt 0.1212486 0.0465650
vt 0.1458986 0.0396525
vt 0.1458986 0.0465650
vt 0.1328993 0.0958078
vt 0.1328993 0.1027203
vt 0.1575493 0.0958078
vt 0.1575493 0.1027203
vt 0.1212486 0.0465650
vt 0.1212486 0.1434775
vt 0.1458986 0.0465650
vt 0.1458986 0.1434775
vt 0.1328993 0.1027203
vt 0.1328993 0.1996328
vt 0.1575493 0.1027203
vt 0.1575493 0.1996328
vt 0.1321922 0.1690691
vt 0.5093494 0.1690691
vt 0.1143422 0.1690691
vt 0.1321922 0.0877441
vt 0.1321922 0.1690691
vt 0.1321922 0.1690691
vt 0.1321922 0.1727441
vt 0.5271994 0.1690691
vt 0.1143422 0.1690691
vt 0.1814922 0.0877441
vt 0.1814922 0.1690691
vt 0.1814922 0.1690691
vt 0.1814922 0.1727441
vt 0.5271994 0.1690691
vt 0.1321922 0.1690691
vt 0.5093494 0.1690691
vt 0.1321922 0.0914191
vt 0.1321922 0.1727441
vt 0.1321922 0.1690691
vt 0.5093494 0.1727441
vt 0.1321922 0.1727441
vt 0.1814922 0.0914191
vt 0.1814922 0.1690691
vt 0.5093494 0.1727441
vt 1.0000000 0.5000000
vt 0.0000000 0.1437500
vt 1.0000000 0.1437500
vt 0.5000000 1.0000000
vt 0.2500000 0.1437500
vn -0.5753965 0.5812382 -0.5753965
vn 0.0000000 -1.0000000 0.0000000
vn -0.5753965 0.5812382 0.5753965
vn 0.0000000 -1.0000000 0.0000000
vn -0.9257952 -0.3737986 -0.0563725
vn -0.9257952 -0.3737986 -0.0563725
vn -0.9874704 -0.1513641 0.0446229
vn -0.9874704 -0.1513641 0.0446229
vn -0.9661966 0.2568371 -0.0223354
vn -0.9661966 0.2568371 -0.0223354
vn -0.9655174 0.2566565 0.0436308
vn -0.9655174 0.2566565 0.0436308
vn -0.0450971 -0.9979642 -0.0450971
vn -0.0441270 -0.9980509 0.0441270
vn -0.0332767 -0.3826525 -0.9232929
vn -0.0332767 -0.3826525 -0.9232929
vn -0.0332767 -0.3826525 -0.9232929
vn -0.0262386 -0.1543472 0.9876682
vn -0.0262386 -0.1543472 0.9876682
vn -0.0262386 -0.1543472 0.9876682
vn -0.0381106 0.2527065 -0.9667921
vn -0.0381106 0.2527065 -0.9667921
vn -0.0381106 0.2527065 -0.9667921
vn -0.0732597 0.2485023 0.9658569
vn -0.0732597 0.2485023 0.9658569
vn -0.0732597 0.2485023 0.9658569
vn -0.0450971 0.9979642 -0.0450971
vn -0.0441270 0.9980509 0.0441270
vn -0.9238307 -0.0218693 -0.3821760
vn -0.9238307 -0.0218693 -0.3821760
vn -0.9664030 -0.0084767 0.2568919
vn -0.9664030 -0.0084767 0.2568919
vn -0.9238307 -0.0218693 -0.3821760
vn -0.9238307 -0.0218693 -0.3821760
vn -0.9664030 -0.0084767 0.2568919
vn -0.9664030 -0.0084767 0.2568919
vn -0.9883090 0.0171870 -0.1514926
vn -0.9883090 0.0171870 -0.1514926
vn -0.9663012 0.0168042 0.2568649
vn -0.9663012 0.0168042 0.2568649
vn -0.9883090 0.0171870 -0.1514926
vn -0.9883090 0.0171870 -0.1514926
vn -0.9663012 0.0168042 0.2568649
vn -0.9663012 0.0168042 0.2568649
vn -0.1677894 -0.9714389 -0.1677894
vn -0.3523606 -0.9135411 0.2031861
vn -0.1677894 -0.9714389 -0.1677894
vn -0.3523606 -0.9135411 0.2031861
vn -0.2537673 -0.0287901 -0.9668368
vn -0.2537673 -0.0287901 -0.9668368
vn -0.2537673 -0.0287901 0.9668368
vn -0.2537673 -0.0287901 0.9668368
vn -0.2537673 -0.0287901 -0.9668368
vn -0.2537673 -0.0287901 -0.9668368
vn -0.2537673 -0.0287901 0.9668368
vn -0.2537673 -0.0287901 0.9668368
vn -0.2553376 0.0146112 -0.9667415
vn -0.2553376 0.0146112 -0.9667415
vn -0.2553376 0.0146112 -0.9667415
vn -0.2553376 0.0146112 0.9667415
vn -0.2553376 0.0146112 0.9667415
vn -0.2553376 0.0146112 0.9667415
vn -0.2553376 0.0146112 -0.9667415
vn -0.2553376 0.0146112 -0.9667415
vn -0.2553376 0.0146112 -0.9667415
vn -0.2553376 0.0146112 0.9667415
vn -0.2553376 0.0146112 0.9667415
vn -0.2553376 0.0146112 0.9667415
vn -0.1677894 0.9714389 -0.1677894
vn -0.3523606 0.9135411 0.2031861
vn -0.1677894 0.9714389 -0.1677894
vn -0.3523606 0.9135411 0.2031861
vn -0.9780265 -0.1111829 -0.1763591
vn -0.9780265 -0.1111829 -0.1763591
vn -0.9935002 -0.0359964 0.1079891
vn -0.9935002 -0.0359964 0.1079891
vn -0.9959284 0.0696453 -0.0572373
vn -0.9959284 0.0696453 -0.0572373
vn -0.9917507 0.0693532 0.1077990
vn -0.9917507 0.0693532 0.1077990
vn 0.2031861 -0.9135411 -0.3523606
vn 0.2263601 -0.9473765 0.2263601
vn 0.2031861 -0.9135411 -0.3523606
vn 0.2263601 -0.9473765 0.2263601
vn 0.1526051 -0.0099835 -0.9882368
vn 0.1526051 -0.0099835 -0.9882368
vn 0.1526051 -0.0099835 -0.9882368
vn 0.1526051 -0.0099835 0.9882368
vn 0.1526051 -0.0099835 0.9882368
vn 0.1526051 -0.0099835 0.9882368
vn 0.1526051 -0.0099835 -0.9882368
vn 0.1526051 -0.0099835 -0.9882368
vn 0.1526051 -0.0099835 -0.9882368
vn 0.1526051 -0.0099835 0.9882368
vn 0.1526051 -0.0099835 0.9882368
vn 0.1526051 -0.0099835 0.9882368
vn 0.3855333 0.0127215 -0.9226062
vn 0.3855333 0.0127215 -0.9226062
vn 0.3855333 0.0127215 -0.9226062
vn 0.3855333 0.0127215 0.9226062
vn 0.3855333 0.0127215 0.9226062
vn 0.3855333 0.0127215 0.9226062
vn 0.3855333 0.0127215 -0.9226062
vn 0.3855333 0.0127215 -0.9226062
vn 0.3855333 0.0127215 -0.9226062
vn 0.3855333 0.0127215 0.9226062
vn 0.3855333 0.0127215 0.9226062
vn 0.3855333 0.0127215 0.9226062
vn 0.2031861 0.9135411 -0.3523606
vn 0.2263601 0.9473765 0.2263601
vn 0.2031861 0.9135411 -0.3523606
vn 0.2263601 0.9473765 0.2263601
vn -0.3673155 0.8544932 -0.3673155
vn -0.3673155 0.8544932 0.3673155
vn 0.9238307 -0.0218693 -0.3821760
vn 0.9238307 -0.0218693 -0.3821760
vn 0.9664030 -0.0084767 0.2568919
vn 0.9664030 -0.0084767 0.2568919
vn 0.9238307 -0.0218693 -0.3821760
vn 0.9238307 -0.0218693 -0.3821760
vn 0.9664030 -0.0084767 0.2568919
vn 0.9664030 -0.0084767 0.2568919
vn 0.9883090 0.0171870 -0.1514926
vn 0.9883090 0.0171870 -0.1514926
vn 0.9663012 0.0168042 0.2568649
vn 0.9663012 0.0168042 0.2568649
vn 0.9883090 0.0171870 -0.1514926
vn 0.9883090 0.0171870 -0.1514926
vn 0.9663012 0.0168042 0.2568649
vn 0.9663012 0.0168042 0.2568649
vn -0.0603531 -0.9963508 -0.0603531
vn -0.1833442 -0.9782573 0.0969406
vn -0.1010150 -0.1229134 -0.9872630
vn -0.1010150 -0.1229134 -0.9872630
vn -0.1010150 -0.1229134 0.9872630
vn -0.1010150 -0.1229134 0.9872630
vn -0.1044889 0.0658735 -0.9923421
vn -0.1044889 0.0658735 -0.9923421
vn -0.1044889 0.0658735 -0.9923421
vn -0.1044889 0.0658735 0.9923421
vn -0.1044889 0.0658735 0.9923421
vn -0.1044889 0.0658735 0.9923421
vn -0.0603531 0.9963508 -0.0603531
vn -0.1833442 0.9782573 0.0969406
vn -0.9304736 -0.0263697 -0.3654087
vn -0.9304736 -0.0263697 -0.3654087
vn -0.9700940 -0.0100010 0.2425235
vn -0.9700940 -0.0100010 0.2425235
vn -0.9897475 0.0201989 -0.1413925
vn -0.9897475 0.0201989 -0.1413925
vn -0.9699524 0.0197949 0.2424881
vn -0.9699524 0.0197949 0.2424881
vn -0.0856509 -0.9849859 -0.1498892
vn -0.0856509 -0.9849859 -0.1498892
vn -0.2151048 -0.9526069 0.2151048
vn -0.2151048 -0.9526069 0.2151048
vn -0.2151048 -0.9526069 0.2151048
vn -0.1389430 -0.0368624 -0.9896141
vn -0.1389430 -0.0368624 0.9896141
vn -0.1401823 0.0187873 -0.9899474
vn -0.1401823 0.0187873 0.9899474
vn -0.1372796 0.9609575 -0.2402394
vn -0.1372796 0.9609575 -0.2402394
vn -0.1400280 0.9801961 0.1400280
vn -0.1400280 0.9801961 0.1400280
vn -0.1400280 0.9801961 0.1400280
vn -1.0000000 -0.0000000 0.0000000
vn 0.0000000 -0.0000000 -1.0000000
vn -1.0000000 -0.0000000 0.0000000
vn 0.0000000 0.0000000 1.0000000
vn -0.9807853 -0.1950903 0.0000000
vn 0.0000000 -0.0000000 -1.0000000
vn -0.9807853 -0.1950903 0.0000000
vn 0.0000000 0.0000000 1.0000000
vn -0.9807853 0.1950903 -0.0000000
vn 0.0000000 -0.0000000 -1.0000000
vn -0.9807853 0.1950903 -0.0000000
vn 0.0000000 0.0000000 1.0000000
vn -0.9238795 -0.3826834 0.0000000
vn 0.0000000 -0.0000000 -1.0000000
vn -0.9238795 -0.3826834 0.0000000
vn 0.0000000 0.0000000 1.0000000
vn -0.9238795 0.3826834 -0.0000000
vn 0.0000000 -0.0000000 -1.0000000
vn -0.9238795 0.3826834 -0.0000000
vn 0.0000000 0.0000000 1.0000000
vn -0.8314696 -0.5555702 0.0000000
vn 0.0000000 -0.0000000 -1.0000000
vn -0.8314696 -0.5555702 0.0000000
vn 0.0000000 0.0000000 1.0000000
vn -0.8314696 0.5555702 -0.0000000
vn 0.0000000 -0.0000000 -1.0000000
vn -0.8314696 0.5555702 -0.0000000
vn 0.0000000 0.0000000 1.0000000
vn 0.0000000 -0.0000000 -1.0000000
vn 1.0000000 0.0000000 -0.0000000
vn 0.0000000 0.0000000 1.0000000
vn 1.0000000 0.0000000 -0.0000000
vn 0.0000000 -0.0000000 -1.0000000
vn 0.9807853 0.1950903 -0.0000000
vn 0.0000000 0.0000000 1.0000000
vn 0.9807853 0.1950903 -0.0000000
vn 0.0000000 -0.0000000 -1.0000000
vn 0.9807853 -0.1950903 0.0000000
vn 0.0000000 0.0000000 1.0000000
vn 0.9807853 -0.1950903 0.0000000
vn -0.7071068 -0.7071068 0.0000000
vn 0.0000000 -0.0000000 -1.0000000
vn -0.7071068 -0.7071068 0.0000000
vn 0.0000000 0.0000000 1.0000000
vn -0.7071068 0.7071068 -0.0000000
vn 0.0000000 -0.0000000 -1.0000000
vn -0.7071068 0.7071068 -0.0000000
vn 0.0000000 0.0000000 1.0000000
vn 0.0000000 -0.0000000 -1.0000000
vn 0.9238795 0.3826834 -0.0000000
vn 0.0000000 0.0000000 1.0000000
vn 0.9238795 0.3826834 -0.0000000
vn 0.0000000 -0.0000000 -1.0000000
vn 0.9238795 -0.3826834 0.0000000
vn 0.0000000 0.0000000 1.0000000
vn 0.9238795 -0.3826834 0.0000000
vn 0.0000000 -0.0000000 -1.0000000
vn 0.8314696 0.5555702 -0.0000000
vn 0.0000000 0.0000000 1.0000000
vn 0.8314696 0.5555702 -0.0000000
vn 0.0000000 -0.0000000 -1.0000000
vn 0.8314696 -0.5555702 0.0000000
vn 0.0000000 0.0000000 1.0000000
vn 0.8314696 -0.5555702 0.0000000
vn -0.9663597 -0.2568804 -0.0127073
vn -0.9663597 -0.2568804 -0.0127073
vn -0.9661337 -0.2568204 0.0250789
vn -0.9661337 -0.2568204 0.0250789
vn -0.9661337 -0.2568204 0.0250789
vn -0.9667388 0.2521753 -0.0427046
vn -0.9667388 0.2521753 -0.0427046
vn -0.9667388 0.2521753 -0.0427046
vn -0.9668146 0.2545439 0.0218363
vn -0.9668146 0.2545439 0.0218363
vn -0.9668146 0.2545439 0.0218363
vn -0.5555702 -0.8314696 0.0000000
vn 0.0000000 -0.0000000 -1.0000000
vn -0.5555702 -0.8314696 0.0000000
vn 0.0000000 0.0000000 1.0000000
vn -0.5555702 0.8314696 -0.0000000
vn 0.0000000 -0.0000000 -1.0000000
vn -0.5555702 0.8314696 -0.0000000
vn 0.0000000 0.0000000 1.0000000
vn 0.0000000 -0.0000000 -1.0000000
vn 0.7071068 0.7071068 -0.0000000
vn 0.0000000 0.0000000 1.0000000
vn 0.7071068 0.7071068 -0.0000000
vn 0.0000000 -0.0000000 -1.0000000
vn 0.7071068 -0.7071068 0.0000000
vn 0.0000000 0.0000000 1.0000000
vn 0.7071068 -0.7071068 0.0000000
vn -0.9664058 -0.1851493 0.1782680
vn -0.9664058 -0.1851493 0.1782680
vn -0.9668363 0.1574895 -0.2010586
vn -0.9668363 0.1574895 -0.2010586
vn -0.9663124 -0.1677924 0.1951563
vn -0.9663124 -0.1677924 0.1951563
vn -0.9667330 0.1883195 -0.1730987
vn -0.9667330 0.1883195 -0.1730987
vn 0.0000000 -0.0000000 -1.0000000
vn 0.5555702 0.8314696 -0.0000000
vn 0.0000000 0.0000000 1.0000000
vn 0.5555702 0.8314696 -0.0000000
vn 0.0000000 -0.0000000 -1.0000000
vn 0.5555702 -0.8314696 0.0000000
vn 0.0000000 0.0000000 1.0000000
vn 0.5555702 -0.8314696 0.0000000
vn -0.3826834 -0.9238795 0.0000000
vn 0.0000000 -0.0000000 -1.0000000
vn -0.3826834 -0.9238795 0.0000000
vn 0.0000000 0.0000000 1.0000000
vn -0.3826834 0.9238795 -0.0000000
vn 0.0000000 -0.0000000 -1.0000000
vn -0.3826834 0.9238795 -0.0000000
vn 0.0000000 0.0000000 1.0000000
vn -0.2521753 -0.9667388 -0.0427046
vn -0.2521753 -0.9667388 -0.0427046
vn -0.2545439 -0.9668146 0.0218363
vn -0.2545439 -0.9668146 0.0218363
vn -0.2541278 -0.1465409 -0.9560046
vn -0.2541278 -0.1465409 0.9560046
vn -0.2488215 0.2488215 -0.9360426
vn -0.2488215 0.2488215 0.9360426
vn -0.2545439 0.9668146 -0.0218363
vn -0.2545439 0.9668146 -0.0218363
vn -0.2521753 0.9667388 0.0427046
vn -0.2521753 0.9667388 0.0427046
vn 0.0000000 -0.0000000 -1.0000000
vn 0.3826834 0.9238795 -0.0000000
vn 0.0000000 0.0000000 1.0000000
vn 0.3826834 0.9238795 -0.0000000
vn 0.0000000 -0.0000000 -1.0000000
vn 0.3826834 -0.9238795 0.0000000
vn 0.0000000 0.0000000 1.0000000
vn 0.3826834 -0.9238795 0.0000000
vn -0.2541278 -0.7867996 -0.5624637
vn -0.2541278 -0.7867996 -0.5624637
vn -0.2541278 -0.7867996 -0.5624637
vn -0.2539015 -0.6947077 0.6729898
vn -0.2488215 -0.4965043 -0.8316077
vn -0.2488215 -0.4965043 -0.8316077
vn -0.2554045 0.6648549 -0.7019519
vn -0.2554045 -0.6648549 0.7019519
vn -0.2541278 0.5821993 0.7723102
vn -0.2541278 0.5821993 0.7723102
vn -0.2541278 0.5821993 0.7723102
vn -0.2539015 0.6947077 -0.6729898
vn -0.2488215 0.8439089 0.4752953
vn -0.2488215 0.8439089 0.4752953
vn -0.1950903 -0.9807853 0.0000000
vn 0.0000000 -0.0000000 -1.0000000
vn -0.1950903 -0.9807853 0.0000000
vn 0.0000000 0.0000000 1.0000000
vn -0.1950903 0.9807853 -0.0000000
vn 0.0000000 -0.0000000 -1.0000000
vn -0.1950903 0.9807853 -0.0000000
vn 0.0000000 0.0000000 1.0000000
vn 0.0000000 -0.0000000 -1.0000000
vn 0.1950903 0.9807853 -0.0000000
vn 0.0000000 0.0000000 1.0000000
vn 0.1950903 0.9807853 -0.0000000
vn 0.0000000 -0.0000000 -1.0000000
vn 0.1950903 -0.9807853 0.0000000
vn 0.0000000 0.0000000 1.0000000
vn 0.1950903 -0.9807853 0.0000000
vn 0.0000000 -1.0000000 0.0000000
vn 0.0000000 -1.0000000 0.0000000
vn 0.0000000 -0.0000000 -1.0000000
vn 0.0000000 -1.0000000 0.0000000
vn 0.0000000 0.0000000 1.0000000
vn 0.0000000 -0.0000000 -1.0000000
vn -0.0000000 1.0000000 -0.0000000
vn 0.0000000 0.0000000 1.0000000
vn -0.0000000 1.0000000 -0.0000000
vn -0.1000000 0.9899495 -0.1000000
vn -0.1000000 0.9899495 0.1000000
vn 0.1000000 0.9899495 -0.1000000
vn 0.1000000 0.9899495 0.1000000
vn 0.0000000 -1.0000000 0.0000000
vn 0.0000000 -0.0000000 -1.0000000
vn 0.0000000 -1.0000000 0.0000000
vn 0.0000000 0.0000000 1.0000000
vn 0.0000000 -0.0000000 -1.0000000
vn -0.0000000 1.0000000 -0.0000000
vn 0.0000000 0.0000000 1.0000000
vn -0.0000000 1.0000000 -0.0000000
vn -0.1950903 0.9807853 -0.0000000
vn 0.0000000 -0.0000000 -1.0000000
vn -0.1950903 0.9807853 -0.0000000
vn 0.0000000 0.0000000 1.0000000
vn -0.1950903 -0.9807853 0.0000000
vn 0.0000000 -0.0000000 -1.0000000
vn -0.1950903 -0.9807853 0.0000000
vn 0.0000000 0.0000000 1.0000000
vn 0.0000000 -0.0000000 -1.0000000
vn 0.1950903 -0.9807853 0.0000000
vn 0.0000000 0.0000000 1.0000000
vn 0.1950903 -0.9807853 0.0000000
vn 0.0000000 -0.0000000 -1.0000000
vn 0.1950903 0.9807853 -0.0000000
vn 0.0000000 0.0000000 1.0000000
vn 0.1950903 0.9807853 -0.0000000
vn 0.3002017 -0.8578408 -0.4171188
vn 0.3002017 -0.8578408 -0.4171188
vn 0.1525593 -0.6967423 0.7009107
vn 0.1465409 -0.5070928 -0.8493425
vn 0.1465409 -0.5070928 -0.8493425
vn 0.1465409 -0.5070928 -0.8493425
vn 0.2568679 0.6630558 -0.7031187
vn 0.3856061 -0.6353305 0.6690763
vn 0.2031861 0.4081126 0.8900335
vn 0.2031861 0.4081126 0.8900335
vn 0.2568927 0.6804606 -0.6862795
vn 0.2263601 0.8363437 0.4992898
vn 0.2263601 0.8363437 0.4992898
vn 0.2263601 0.8363437 0.4992898
vn -0.3826834 0.9238795 -0.0000000
vn 0.0000000 -0.0000000 -1.0000000
vn -0.3826834 0.9238795 -0.0000000
vn 0.0000000 0.0000000 1.0000000
vn -0.3826834 -0.9238795 0.0000000
vn 0.0000000 -0.0000000 -1.0000000
vn -0.3826834 -0.9238795 0.0000000
vn 0.0000000 0.0000000 1.0000000
vn 0.1531422 -0.9880910 -0.0149545
vn 0.1531422 -0.9880910 -0.0149545
vn 0.3846671 -0.9228592 0.0190286
vn 0.3846671 -0.9228592 0.0190286
vn 0.3002017 -0.3002017 -0.9054048
vn 0.2031861 -0.3523606 0.9135411
vn 0.1465409 0.2541278 -0.9560046
vn 0.2263601 0.2263601 0.9473765
vn 0.2568204 0.9661337 -0.0250789
vn 0.2568204 0.9661337 -0.0250789
vn 0.2568804 0.9663597 0.0127073
vn 0.2568804 0.9663597 0.0127073
vn 0.0000000 -0.0000000 -1.0000000
vn 0.3826834 -0.9238795 0.0000000
vn 0.0000000 0.0000000 1.0000000
vn 0.3826834 -0.9238795 0.0000000
vn 0.0000000 -0.0000000 -1.0000000
vn 0.3826834 0.9238795 -0.0000000
vn 0.0000000 0.0000000 1.0000000
vn 0.3826834 0.9238795 -0.0000000
vn -0.5555702 0.8314696 -0.0000000
vn 0.0000000 -0.0000000 -1.0000000
vn -0.5555702 0.8314696 -0.0000000
vn 0.0000000 0.0000000 1.0000000
vn -0.5555702 -0.8314696 0.0000000
vn 0.0000000 -0.0000000 -1.0000000
vn -0.5555702 -0.8314696 0.0000000
vn 0.0000000 0.0000000 1.0000000
vn 0.9225830 -0.2779165 0.2675874
vn 0.9225830 -0.2779165 0.2675874
vn 0.9667330 0.1682764 -0.1926407
vn 0.9667330 0.1682764 -0.1926407
vn 0.9883210 -0.0939687 0.1199649
vn 0.9883210 -0.0939687 0.1199649
vn 0.9663124 0.1908466 -0.1726785
vn 0.9663124 0.1908466 -0.1726785
vn -0.7071068 0.7071068 -0.0000000
vn 0.0000000 -0.0000000 -1.0000000
vn -0.7071068 0.7071068 -0.0000000
vn 0.0000000 0.0000000 1.0000000
vn -0.7071068 -0.7071068 0.0000000
vn 0.0000000 -0.0000000 -1.0000000
vn -0.7071068 -0.7071068 0.0000000
vn 0.0000000 0.0000000 1.0000000
vn 0.0000000 -0.0000000 -1.0000000
vn 0.5555702 -0.8314696 0.0000000
vn 0.0000000 0.0000000 1.0000000
vn 0.5555702 -0.8314696 0.0000000
vn 0.0000000 -0.0000000 -1.0000000
vn 0.5555702 0.8314696 -0.0000000
vn 0.0000000 0.0000000 1.0000000
vn 0.5555702 0.8314696 -0.0000000
vn 0.9228592 -0.3846671 -0.0190286
vn 0.9228592 -0.3846671 -0.0190286
vn 0.9881297 -0.1514651 0.0256498
vn 0.9881297 -0.1514651 0.0256498
vn 0.9881297 -0.1514651 0.0256498
vn 0.9668146 0.2545439 -0.0218363
vn 0.9668146 0.2545439 -0.0218363
vn 0.9668146 0.2545439 -0.0218363
vn 0.9661337 0.2568204 0.0250789
vn 0.9661337 0.2568204 0.0250789
vn 0.9661337 0.2568204 0.0250789
vn -0.8314696 0.5555702 -0.0000000
vn 0.0000000 -0.0000000 -1.0000000
vn -0.8314696 0.5555702 -0.0000000
vn 0.0000000 0.0000000 1.0000000
vn -0.8314696 -0.5555702 0.0000000
vn 0.0000000 -0.0000000 -1.0000000
vn -0.8314696 -0.5555702 0.0000000
vn 0.0000000 0.0000000 1.0000000
vn -0.9238795 0.3826834 -0.0000000
vn 0.0000000 -0.0000000 -1.0000000
vn -0.9238795 0.3826834 -0.0000000
vn 0.0000000 0.0000000 1.0000000
vn -0.9238795 -0.3826834 0.0000000
vn 0.0000000 -0.0000000 -1.0000000
vn -0.9238795 -0.3826834 0.0000000
vn 0.0000000 0.0000000 1.0000000
vn 0.0000000 -0.0000000 -1.0000000
vn 0.7071068 -0.7071068 0.0000000
vn 0.0000000 0.0000000 1.0000000
vn 0.7071068 -0.7071068 0.0000000
vn 0.0000000 -0.0000000 -1.0000000
vn 0.7071068 0.7071068 -0.0000000
vn 0.0000000 0.0000000 1.0000000
vn 0.7071068 0.7071068 -0.0000000
vn -0.9807853 0.1950903 -0.0000000
vn 0.0000000 -0.0000000 -1.0000000
vn -0.9807853 0.1950903 -0.0000000
vn 0.0000000 0.0000000 1.0000000
vn -0.9807853 -0.1950903 0.0000000
vn 0.0000000 -0.0000000 -1.0000000
vn -0.9807853 -0.1950903 0.0000000
vn 0.0000000 0.0000000 1.0000000
vn -1.0000000 0.0000000 0.0000000
vn -1.0000000 -0.0000000 0.0000000
vn 0.0000000 -0.0000000 -1.0000000
vn -1.0000000 0.0000000 0.0000000
vn -1.0000000 -0.0000000 0.0000000
vn 0.0000000 0.0000000 1.0000000
vn 0.0000000 -0.0000000 -1.0000000
vn 0.8314696 -0.5555702 0.0000000
vn 0.0000000 0.0000000 1.0000000
vn 0.8314696 -0.5555702 0.0000000
vn 0.0000000 -0.0000000 -1.0000000
vn 0.8314696 0.5555702 -0.0000000
vn 0.0000000 0.0000000 1.0000000
vn 0.8314696 0.5555702 -0.0000000
vn 0.0000000 -0.0000000 -1.0000000
vn 0.9238795 -0.3826834 0.0000000
vn 0.0000000 0.0000000 1.0000000
vn 0.9238795 -0.3826834 0.0000000
vn 0.0000000 -0.0000000 -1.0000000
vn 0.9238795 0.3826834 -0.0000000
vn 0.0000000 0.0000000 1.0000000
vn 0.9238795 0.3826834 -0.0000000
vn 0.0000000 -0.0000000 -1.0000000
vn 0.9807853 -0.1950903 0.0000000
vn 0.0000000 0.0000000 1.0000000
vn 0.9807853 -0.1950903 0.0000000
vn 0.0000000 -0.0000000 -1.0000000
vn 0.9807853 0.1950903 -0.0000000
vn 0.0000000 0.0000000 1.0000000
vn 0.9807853 0.1950903 -0.0000000
vn 0.0000000 -0.0000000 -1.0000000
vn 1.0000000 0.0000000 0.0000000
vn 1.0000000 0.0000000 -0.0000000
vn 0.0000000 0.0000000 1.0000000
vn 1.0000000 0.0000000 0.0000000
vn 1.0000000 0.0000000 -0.0000000
vn 0.1092309 -0.9284628 -0.3550005
vn 0.1092309 -0.9284628 -0.3550005
vn 0.1092309 -0.9284628 -0.3550005
vn 0.1229206 -0.9658045 0.2282811
vn 0.1229206 -0.9658045 0.2282811
vn 0.1229206 -0.9658045 0.2282811
vn 0.0774167 -0.0110595 -0.9969375
vn 0.1414140 -0.0102051 0.9898979
vn 0.2407467 0.0173735 -0.9704325
vn 0.1413925 0.0201989 0.9897475
vn 0.1229206 0.9658045 -0.2282811
vn 0.1229206 0.9658045 -0.2282811
vn 0.1229206 0.9658045 -0.2282811
vn 0.1092309 0.9284628 0.3550005
vn 0.1092309 0.9284628 0.3550005
vn 0.1092309 0.9284628 0.3550005
vn 0.9704325 -0.0173735 -0.2407467
vn 0.9704325 -0.0173735 -0.2407467
vn 0.9699524 -0.0197949 0.2424881
vn 0.9699524 -0.0197949 0.2424881
vn 0.9699524 0.0197949 -0.2424881
vn 0.9699524 0.0197949 -0.2424881
vn 0.9704325 0.0173735 0.2407467
vn 0.9704325 0.0173735 0.2407467
vn 0.0969406 -0.9782573 -0.1833442
vn 0.1023110 -0.9894771 0.1023110
vn 0.0592820 -0.0381394 -0.9975124
vn 0.0592820 -0.0381394 -0.9975124
vn 0.0592820 -0.0381394 -0.9975124
vn 0.0592820 -0.0381394 0.9975124
vn 0.0592820 -0.0381394 0.9975124
vn 0.0592820 -0.0381394 0.9975124
vn 0.1867988 0.0622663 -0.9804229
vn 0.1867988 0.0622663 -0.9804229
vn 0.1867988 0.0622663 -0.9804229
vn 0.1867988 0.0622663 0.9804229
vn 0.1867988 0.0622663 0.9804229
vn 0.1867988 0.0622663 0.9804229
vn 0.0969406 0.9782573 -0.1833442
vn 0.1023110 0.9894771 0.1023110
vn -0.9238307 -0.0218693 -0.3821760
vn -0.9238307 -0.0218693 -0.3821760
vn -0.9664030 -0.0084767 0.2568919
vn -0.9664030 -0.0084767 0.2568919
vn -0.9238307 -0.0218693 -0.3821760
vn -0.9238307 -0.0218693 -0.3821760
vn -0.9664030 -0.0084767 0.2568919
vn -0.9664030 -0.0084767 0.2568919
vn -0.9883090 0.0171870 -0.1514926
vn -0.9883090 0.0171870 -0.1514926
vn -0.9663012 0.0168042 0.2568649
vn -0.9663012 0.0168042 0.2568649
vn -0.9883090 0.0171870 -0.1514926
vn -0.9883090 0.0171870 -0.1514926
vn -0.9663012 0.0168042 0.2568649
vn -0.9663012 0.0168042 0.2568649
vn 0.3673155 0.8544932 -0.3673155
vn 0.3673155 0.8544932 -0.3673155
vn 0.3673155 0.8544932 0.3673155
vn -0.1677894 -0.9714389 -0.1677894
vn -0.3523606 -0.9135411 0.2031861
vn -0.1677894 -0.9714389 -0.1677894
vn -0.3523606 -0.9135411 0.2031861
vn -0.2537673 -0.0287901 -0.9668368
vn -0.2537673 -0.0287901 -0.9668368
vn -0.2537673 -0.0287901 0.9668368
vn -0.2537673 -0.0287901 0.9668368
vn -0.2537673 -0.0287901 -0.9668368
vn -0.2537673 -0.0287901 -0.9668368
vn -0.2537673 -0.0287901 0.9668368
vn -0.2537673 -0.0287901 0.9668368
vn -0.2553376 0.0146112 -0.9667415
vn -0.2553376 0.0146112 -0.9667415
vn -0.2553376 0.0146112 -0.9667415
vn -0.2553376 0.0146112 0.9667415
vn -0.2553376 0.0146112 0.9667415
vn -0.2553376 0.0146112 0.9667415
vn -0.2553376 0.0146112 -0.9667415
vn -0.2553376 0.0146112 -0.9667415
vn -0.2553376 0.0146112 -0.9667415
vn -0.2553376 0.0146112 0.9667415
vn -0.2553376 0.0146112 0.9667415
vn -0.2553376 0.0146112 0.9667415
vn -0.1677894 0.9714389 -0.1677894
vn -0.3523606 0.9135411 0.2031861
vn -0.1677894 0.9714389 -0.1677894
vn -0.3523606 0.9135411 0.2031861
vn 0.9780265 -0.1111829 -0.1763591
vn 0.9780265 -0.1111829 -0.1763591
vn 0.9935002 -0.0359964 0.1079891
vn 0.9935002 -0.0359964 0.1079891
vn 0.9959284 0.0696453 -0.0572373
vn 0.9959284 0.0696453 -0.0572373
vn 0.9917507 0.0693532 0.1077990
vn 0.9917507 0.0693532 0.1077990
vn 0.2031861 -0.9135411 -0.3523606
vn 0.2263601 -0.9473765 0.2263601
vn 0.2031861 -0.9135411 -0.3523606
vn 0.2263601 -0.9473765 0.2263601
vn 0.1526051 -0.0099835 -0.9882368
vn 0.1526051 -0.0099835 -0.9882368
vn 0.1526051 -0.0099835 -0.9882368
vn 0.1526051 -0.0099835 0.9882368
vn 0.1526051 -0.0099835 0.9882368
vn 0.1526051 -0.0099835 0.9882368
vn 0.1526051 -0.0099835 -0.9882368
vn 0.1526051 -0.0099835 -0.9882368
vn 0.1526051 -0.0099835 -0.9882368
vn 0.1526051 -0.0099835 0.9882368
vn 0.1526051 -0.0099835 0.9882368
vn 0.1526051 -0.0099835 0.9882368
vn 0.3855333 0.0127215 -0.9226062
vn 0.3855333 0.0127215 -0.9226062
vn 0.3855333 0.0127215 -0.9226062
vn 0.3855333 0.0127215 0.9226062
vn 0.3855333 0.0127215 0.9226062
vn 0.3855333 0.0127215 0.9226062
vn 0.3855333 0.0127215 -0.9226062
vn 0.3855333 0.0127215 -0.9226062
vn 0.3855333 0.0127215 -0.9226062
vn 0.3855333 0.0127215 0.9226062
vn 0.3855333 0.0127215 0.9226062
vn 0.3855333 0.0127215 0.9226062
vn 0.2031861 0.9135411 -0.3523606
vn 0.2263601 0.9473765 0.2263601
vn 0.2031861 0.9135411 -0.3523606
vn 0.2263601 0.9473765 0.2263601
vn 0.9238307 -0.0218693 -0.3821760
vn 0.9238307 -0.0218693 -0.3821760
vn 0.9664030 -0.0084767 0.2568919
vn 0.9664030 -0.0084767 0.2568919
vn 0.9238307 -0.0218693 -0.3821760
vn 0.9238307 -0.0218693 -0.3821760
vn 0.9664030 -0.0084767 0.2568919
vn 0.9664030 -0.0084767 0.2568919
vn 0.9883090 0.0171870 -0.1514926
vn 0.9883090 0.0171870 -0.1514926
vn 0.9663012 0.0168042 0.2568649
vn 0.9663012 0.0168042 0.2568649
vn 0.9883090 0.0171870 -0.1514926
vn 0.9883090 0.0171870 -0.1514926
vn 0.9663012 0.0168042 0.2568649
vn 0.9663012 0.0168042 0.2568649
vn 0.0441270 -0.9980509 -0.0441270
vn 0.0450971 -0.9979642 0.0450971
vn 0.0446229 -0.1513641 -0.9874704
vn 0.0446229 -0.1513641 -0.9874704
vn 0.0446229 -0.1513641 -0.9874704
vn 0.0332767 -0.3826525 0.9232929
vn 0.0332767 -0.3826525 0.9232929
vn 0.0332767 -0.3826525 0.9232929
vn 0.0436308 0.2566565 -0.9655174
vn 0.0436308 0.2566565 -0.9655174
vn 0.0436308 0.2566565 -0.9655174
vn 0.0381106 0.2527065 0.9667921
vn 0.0381106 0.2527065 0.9667921
vn 0.0381106 0.2527065 0.9667921
vn 0.0230871 0.9987143 -0.0451310
vn 0.0843018 0.9955066 0.0431253
vn 0.9655174 -0.2566565 -0.0436308
vn 0.9655174 -0.2566565 -0.0436308
vn 0.9667921 -0.2527065 0.0381106
vn 0.9667921 -0.2527065 0.0381106
vn 0.9667921 0.2527065 -0.0381106
vn 0.9667921 0.2527065 -0.0381106
vn 0.9655174 0.2566565 0.0436308
vn 0.9655174 0.2566565 0.0436308
vn 0.0000000 -1.0000000 0.0000000
vn 0.5753965 0.5812382 -0.5753965
vn 0.5753965 0.5812382 -0.5753965
vn 0.0000000 -1.0000000 0.0000000
vn 0.5753965 0.5812382 0.5753965
o 08_Farol_Pared_Glow
usemtl Glow
s 1
f 131/131/131 73/73/73 133/133/133
f 141/141/141 144/144/144 79/79/79
f 554/554/554 560/560/560 613/613/613
f 561/561/561 558/558/558 615/615/615
f 132/132/132 136/136/136 75/75/75
f 137/137/137 77/77/77 143/143/143
f 546/546/546 549/549/549 610/610/610
f 547/547/547 612/612/612 553/553/553
f 78/78/78 74/74/74 76/76/76
f 78/78/78 76/76/76 80/80/80
f 144/144/144 77/77/77 79/79/79
f 144/144/144 143/143/143 77/77/77
f 611/611/611 614/614/614 616/616/616
f 611/611/611 609/609/609 614/614/614
f 559/559/559 552/552/552 611/611/611
f 559/559/559 611/611/611 616/616/616
f 142/142/142 80/80/80 76/76/76
f 142/142/142 76/76/76 136/136/136
f 140/140/140 551/551/551 557/557/557
f 140/140/140 135/135/135 551/551/551
f 555/555/555 614/614/614 609/609/609
f 555/555/555 609/609/609 548/548/548
f 561/561/561 141/141/141 558/558/558
f 561/561/561 144/144/144 141/141/141
f 561/561/561 143/143/143 144/144/144
f 561/561/561 560/560/560 143/143/143
f 561/561/561 615/615/615 613/613/613
f 561/561/561 613/613/613 560/560/560
f 132/132/132 75/75/75 73/73/73
f 132/132/132 73/73/73 131/131/131
f 137/137/137 143/143/143 560/560/560
f 137/137/137 560/560/560 554/554/554
f 138/138/138 74/74/74 78/78/78
f 138/138/138 133/133/133 74/74/74
f 139/139/139 556/556/556 550/550/550
f 139/139/139 550/550/550 134/134/134
f 546/546/546 133/133/133 549/549/549
f 546/546/546 131/131/131 133/133/133
f 547/547/547 553/553/553 136/136/136
f 547/547/547 136/136/136 132/132/132
f 547/547/547 132/132/132 131/131/131
f 547/547/547 131/131/131 546/546/546
f 547/547/547 610/610/610 612/612/612
f 547/547/547 546/546/546 610/610/610
o 08_Farol_Pared_Iron
usemtl Iron
s 1
f 391/391/391 395/395/395 443/443/443
f 238/238/238 291/291/291 288/288/288
f 449/449/449 397/397/397 400/400/400
f 240/240/240 289/289/289 292/292/292
f 398/398/398 451/451/451 401/401/401
f 282/282/282 232/232/232 286/286/286
f 393/393/393 445/445/445 396/396/396
f 284/284/284 287/287/287 234/234/234
f 397/397/397 395/395/395 286/286/286
f 397/397/397 286/286/286 288/288/288
f 290/290/290 293/293/293 402/402/402
f 290/290/290 402/402/402 399/399/399
f 291/291/291 397/397/397 288/288/288
f 291/291/291 400/400/400 397/397/397
f 238/238/238 288/288/288 286/286/286
f 238/238/238 286/286/286 232/232/232
f 448/448/448 399/399/399 402/402/402
f 448/448/448 402/402/402 452/452/452
f 450/450/450 447/447/447 444/444/444
f 450/450/450 453/453/453 447/447/447
f 449/449/449 395/395/395 397/397/397
f 449/449/449 443/443/443 395/395/395
f 240/240/240 287/287/287 289/289/289
f 240/240/240 234/234/234 287/287/287
f 241/241/241 293/293/293 290/290/290
f 241/241/241 290/290/290 237/237/237
f 239/239/239 236/236/236 231/231/231
f 239/239/239 231/231/231 233/233/233
f 398/398/398 445/445/445 451/451/451
f 398/398/398 396/396/396 445/445/445
f 398/398/398 401/401/401 292/292/292
f 398/398/398 292/292/292 289/289/289
f 398/398/398 289/289/289 287/287/287
f 398/398/398 287/287/287 396/396/396
f 282/282/282 286/286/286 395/395/395
f 282/282/282 395/395/395 391/391/391
f 394/394/394 443/443/443 446/446/446
f 394/394/394 392/392/392 443/443/443
f 284/284/284 396/396/396 287/287/287
f 284/284/284 393/393/393 396/396/396
f 285/285/285 235/235/235 232/232/232
f 285/285/285 232/232/232 283/283/283
f 285/285/285 283/283/283 392/392/392
f 285/285/285 392/392/392 394/394/394
f 371/371/371 369/369/369 419/419/419
f 261/261/261 308/308/308 306/306/306
f 421/421/421 372/372/372 375/375/375
f 265/265/265 315/315/315 313/313/313
f 381/381/381 425/425/425 379/379/379
f 305/305/305 259/259/259 303/303/303
f 376/376/376 423/423/423 378/378/378
f 309/309/309 312/312/312 263/263/263
f 373/373/373 370/370/370 304/304/304
f 373/373/373 304/304/304 307/307/307
f 308/308/308 313/313/313 379/379/379
f 308/308/308 379/379/379 375/375/375
f 308/308/308 372/372/372 306/306/306
f 308/308/308 375/375/375 372/372/372
f 260/260/260 306/306/306 302/302/302
f 260/260/260 302/302/302 258/258/258
f 421/421/421 375/375/375 379/379/379
f 421/421/421 379/379/379 425/425/425
f 422/422/422 424/424/424 420/420/420
f 422/422/422 426/426/426 424/424/424
f 422/422/422 369/369/369 374/374/374
f 422/422/422 420/420/420 369/369/369
f 264/264/264 310/310/310 315/315/315
f 264/264/264 262/262/262 310/310/310
f 265/265/265 313/313/313 308/308/308
f 265/265/265 308/308/308 261/261/261
f 264/264/264 260/260/260 258/258/258
f 264/264/264 258/258/258 262/262/262
f 382/382/382 424/424/424 426/426/426
f 382/382/382 378/378/378 424/424/424
f 381/381/381 379/379/379 313/313/313
f 381/381/381 313/313/313 315/315/315
f 380/380/380 314/314/314 311/311/311
f 380/380/380 311/311/311 377/377/377
f 305/305/305 303/303/303 369/369/369
f 305/305/305 369/369/369 371/371/371
f 376/376/376 419/419/419 423/423/423
f 376/376/376 371/371/371 419/419/419
f 309/309/309 378/378/378 312/312/312
f 309/309/309 376/376/376 378/378/378
f 309/309/309 263/263/263 259/259/259
f 309/309/309 259/259/259 305/305/305
f 309/309/309 305/305/305 371/371/371
f 309/309/309 371/371/371 376/376/376
f 45/45/45 29/29/29 49/49/49
f 61/61/61 70/70/70 39/39/39
f 97/97/97 109/109/109 123/123/123
f 110/110/110 101/101/101 125/125/125
f 46/46/46 52/52/52 31/31/31
f 57/57/57 37/37/37 69/69/69
f 81/81/81 86/86/86 116/116/116
f 82/82/82 118/118/118 90/90/90
f 38/38/38 30/30/30 32/32/32
f 38/38/38 32/32/32 40/40/40
f 70/70/70 37/37/37 39/39/39
f 70/70/70 69/69/69 37/37/37
f 117/117/117 124/124/124 126/126/126
f 117/117/117 115/115/115 124/124/124
f 102/102/102 89/89/89 117/117/117
f 102/102/102 117/117/117 126/126/126
f 62/62/62 40/40/40 32/32/32
f 62/62/62 32/32/32 52/52/52
f 60/60/60 88/88/88 100/100/100
f 60/60/60 51/51/51 88/88/88
f 98/98/98 124/124/124 115/115/115
f 98/98/98 115/115/115 85/85/85
f 110/110/110 61/61/61 101/101/101
f 110/110/110 70/70/70 61/61/61
f 110/110/110 69/69/69 70/70/70
f 110/110/110 109/109/109 69/69/69
f 110/110/110 125/125/125 123/123/123
f 110/110/110 123/123/123 109/109/109
f 46/46/46 31/31/31 29/29/29
f 46/46/46 29/29/29 45/45/45
f 57/57/57 69/69/69 109/109/109
f 57/57/57 109/109/109 97/97/97
f 58/58/58 30/30/30 38/38/38
f 58/58/58 49/49/49 30/30/30
f 59/59/59 99/99/99 87/87/87
f 59/59/59 87/87/87 50/50/50
f 81/81/81 49/49/49 86/86/86
f 81/81/81 45/45/45 49/49/49
f 82/82/82 90/90/90 52/52/52
f 82/82/82 52/52/52 46/46/46
f 82/82/82 46/46/46 45/45/45
f 82/82/82 45/45/45 81/81/81
f 82/82/82 116/116/116 118/118/118
f 82/82/82 81/81/81 116/116/116
f 47/47/47 33/33/33 53/53/53
f 67/67/67 72/72/72 43/43/43
f 103/103/103 111/111/111 127/127/127
f 112/112/112 107/107/107 129/129/129
f 48/48/48 56/56/56 35/35/35
f 63/63/63 41/41/41 71/71/71
f 83/83/83 92/92/92 120/120/120
f 84/84/84 122/122/122 96/96/96
f 42/42/42 34/34/34 36/36/36
f 42/42/42 36/36/36 44/44/44
f 72/72/72 41/41/41 43/43/43
f 72/72/72 71/71/71 41/41/41
f 121/121/121 128/128/128 130/130/130
f 121/121/121 119/119/119 128/128/128
f 108/108/108 95/95/95 121/121/121
f 108/108/108 121/121/121 130/130/130
f 68/68/68 44/44/44 36/36/36
f 68/68/68 36/36/36 56/56/56
f 66/66/66 94/94/94 106/106/106
f 66/66/66 55/55/55 94/94/94
f 104/104/104 128/128/128 119/119/119
f 104/104/104 119/119/119 91/91/91
f 112/112/112 67/67/67 107/107/107
f 112/112/112 72/72/72 67/67/67
f 112/112/112 71/71/71 72/72/72
f 112/112/112 111/111/111 71/71/71
f 112/112/112 129/129/129 127/127/127
f 112/112/112 127/127/127 111/111/111
f 48/48/48 35/35/35 33/33/33
f 48/48/48 33/33/33 47/47/47
f 63/63/63 71/71/71 111/111/111
f 63/63/63 111/111/111 103/103/103
f 64/64/64 34/34/34 42/42/42
f 64/64/64 53/53/53 34/34/34
f 65/65/65 105/105/105 93/93/93
f 65/65/65 93/93/93 54/54/54
f 83/83/83 53/53/53 92/92/92
f 83/83/83 47/47/47 53/53/53
f 84/84/84 96/96/96 56/56/56
f 84/84/84 56/56/56 48/48/48
f 84/84/84 48/48/48 47/47/47
f 84/84/84 47/47/47 83/83/83
f 84/84/84 120/120/120 122/122/122
f 84/84/84 83/83/83 120/120/120
f 581/581/581 562/562/562 585/585/585
f 597/597/597 606/606/606 572/572/572
f 633/633/633 645/645/645 657/657/657
f 646/646/646 637/637/637 659/659/659
f 582/582/582 588/588/588 564/564/564
f 593/593/593 570/570/570 605/605/605
f 617/617/617 622/622/622 650/650/650
f 618/618/618 652/652/652 626/626/626
f 571/571/571 563/563/563 565/565/565
f 571/571/571 565/565/565 573/573/573
f 606/606/606 570/570/570 572/572/572
f 606/606/606 605/605/605 570/570/570
f 651/651/651 658/658/658 660/660/660
f 651/651/651 649/649/649 658/658/658
f 638/638/638 625/625/625 651/651/651
f 638/638/638 651/651/651 660/660/660
f 598/598/598 573/573/573 565/565/565
f 598/598/598 565/565/565 588/588/588
f 596/596/596 624/624/624 636/636/636
f 596/596/596 587/587/587 624/624/624
f 634/634/634 658/658/658 649/649/649
f 634/634/634 649/649/649 621/621/621
f 646/646/646 597/597/597 637/637/637
f 646/646/646 606/606/606 597/597/597
f 646/646/646 605/605/605 606/606/606
f 646/646/646 645/645/645 605/605/605
f 646/646/646 659/659/659 657/657/657
f 646/646/646 657/657/657 645/645/645
f 582/582/582 564/564/564 562/562/562
f 582/582/582 562/562/562 581/581/581
f 593/593/593 605/605/605 645/645/645
f 593/593/593 645/645/645 633/633/633
f 594/594/594 563/563/563 571/571/571
f 594/594/594 585/585/585 563/563/563
f 595/595/595 635/635/635 623/623/623
f 595/595/595 623/623/623 586/586/586
f 617/617/617 585/585/585 622/622/622
f 617/617/617 581/581/581 585/585/585
f 618/618/618 626/626/626 588/588/588
f 618/618/618 588/588/588 582/582/582
f 618/618/618 582/582/582 581/581/581
f 618/618/618 581/581/581 617/617/617
f 618/618/618 650/650/650 652/652/652
f 618/618/618 617/617/617 650/650/650
f 583/583/583 566/566/566 589/589/589
f 603/603/603 608/608/608 576/576/576
f 639/639/639 647/647/647 661/661/661
f 648/648/648 643/643/643 663/663/663
f 584/584/584 592/592/592 568/568/568
f 599/599/599 574/574/574 607/607/607
f 619/619/619 628/628/628 654/654/654
f 620/620/620 656/656/656 632/632/632
f 575/575/575 567/567/567 569/569/569
f 575/575/575 569/569/569 577/577/577
f 608/608/608 574/574/574 576/576/576
f 608/608/608 607/607/607 574/574/574
f 655/655/655 662/662/662 664/664/664
f 655/655/655 653/653/653 662/662/662
f 644/644/644 631/631/631 655/655/655
f 644/644/644 655/655/655 664/664/664
f 604/604/604 577/577/577 569/569/569
f 604/604/604 569/569/569 592/592/592
f 602/602/602 630/630/630 642/642/642
f 602/602/602 591/591/591 630/630/630
f 640/640/640 662/662/662 653/653/653
f 640/640/640 653/653/653 627/627/627
f 648/648/648 603/603/603 643/643/643
f 648/648/648 608/608/608 603/603/603
f 648/648/648 607/607/607 608/608/608
f 648/648/648 647/647/647 607/607/607
f 648/648/648 663/663/663 661/661/661
f 648/648/648 661/661/661 647/647/647
f 584/584/584 568/568/568 566/566/566
f 584/584/584 566/566/566 583/583/583
f 599/599/599 607/607/607 647/647/647
f 599/599/599 647/647/647 639/639/639
f 600/600/600 567/567/567 575/575/575
f 600/600/600 589/589/589 567/567/567
f 601/601/601 641/641/641 629/629/629
f 601/601/601 629/629/629 590/590/590
f 619/619/619 589/589/589 628/628/628
f 619/619/619 583/583/583 589/589/589
f 620/620/620 632/632/632 592/592/592
f 620/620/620 592/592/592 584/584/584
f 620/620/620 584/584/584 583/583/583
f 620/620/620 583/583/583 619/619/619
f 620/620/620 654/654/654 656/656/656
f 620/620/620 619/619/619 654/654/654
f 13/13/13 5/5/5 15/15/15
f 26/26/26 28/28/28 12/12/12
f 685/685/685 673/673/673 679/679/679
f 21/21/21 9/9/9 27/27/27
f 678/678/678 688/688/688 680/680/680
f 666/666/666 684/684/684 672/672/672
f 14/14/14 20/20/20 8/8/8
f 665/665/665 667/667/667 682/682/682
f 10/10/10 6/6/6 7/7/7
f 10/10/10 7/7/7 11/11/11
f 28/28/28 680/680/680 679/679/679
f 28/28/28 679/679/679 27/27/27
f 28/28/28 9/9/9 12/12/12
f 28/28/28 27/27/27 9/9/9
f 25/25/25 11/11/11 7/7/7
f 25/25/25 7/7/7 19/19/19
f 686/686/686 668/668/668 674/674/674
f 686/686/686 681/681/681 668/668/668
f 685/685/685 679/679/679 680/680/680
f 685/685/685 680/680/680 688/688/688
f 21/21/21 27/27/27 679/679/679
f 21/21/21 679/679/679 673/673/673
f 23/23/23 675/675/675 669/669/669
f 23/23/23 669/669/669 17/17/17
f 22/22/22 6/6/6 10/10/10
f 22/22/22 16/16/16 6/6/6
f 683/683/683 681/681/681 686/686/686
f 683/683/683 686/686/686 687/687/687
f 677/677/677 683/683/683 687/687/687
f 677/677/677 671/671/671 683/683/683
f 678/678/678 680/680/680 28/28/28
f 678/678/678 28/28/28 26/26/26
f 676/676/676 24/24/24 18/18/18
f 676/676/676 18/18/18 670/670/670
f 14/14/14 8/8/8 5/5/5
f 14/14/14 5/5/5 13/13/13
f 14/14/14 672/672/672 20/20/20
f 14/14/14 666/666/666 672/672/672
f 665/665/665 666/666/666 14/14/14
f 665/665/665 14/14/14 13/13/13
f 665/665/665 15/15/15 667/667/667
f 665/665/665 13/13/13 15/15/15
f 665/665/665 682/682/682 684/684/684
f 665/665/665 684/684/684 666/666/666
f 332/332/332 689/689/689 692/692/692
f 332/332/332 692/692/692 4/4/4
f 332/332/332 4/4/4 2/2/2
f 332/332/332 2/2/2 689/689/689
f 690/690/690 580/580/580 693/693/693
f 690/690/690 578/578/578 580/580/580
f 693/693/693 114/114/114 3/3/3
f 693/693/693 580/580/580 114/114/114
f 3/3/3 113/113/113 1/1/1
f 3/3/3 114/114/114 113/113/113
f 1/1/1 579/579/579 691/691/691
f 1/1/1 113/113/113 579/579/579
f 578/578/578 344/344/344 580/580/580
f 580/580/580 342/342/342 114/114/114
f 114/114/114 341/341/341 113/113/113
f 113/113/113 343/343/343 579/579/579
f 488/488/488 508/508/508 479/479/479
f 488/488/488 516/516/516 508/508/508
f 479/479/479 500/500/500 463/463/463
f 479/479/479 508/508/508 500/500/500
f 463/463/463 492/492/492 455/455/455
f 463/463/463 500/500/500 492/492/492
f 455/455/455 470/470/470 428/428/428
f 455/455/455 492/492/492 470/470/470
f 428/428/428 435/435/435 412/412/412
f 428/428/428 470/470/470 435/435/435
f 412/412/412 403/403/403 384/384/384
f 412/412/412 435/435/435 403/403/403
f 384/384/384 361/361/361 354/354/354
f 384/384/384 403/403/403 361/361/361
f 354/354/354 334/334/334 337/337/337
f 354/354/354 361/361/361 334/334/334
f 337/337/337 317/317/317 324/324/324
f 337/337/337 334/334/334 317/317/317
f 324/324/324 275/275/275 294/294/294
f 324/324/324 317/317/317 275/275/275
f 294/294/294 243/243/243 266/266/266
f 294/294/294 275/275/275 243/243/243
f 266/266/266 208/208/208 250/250/250
f 266/266/266 243/243/243 208/208/208
f 250/250/250 188/188/188 223/223/223
f 250/250/250 208/208/208 188/188/188
f 223/223/223 180/180/180 215/215/215
f 223/223/223 188/188/188 180/180/180
f 215/215/215 172/172/172 199/199/199
f 215/215/215 180/180/180 172/172/172
f 199/199/199 168/168/168 195/195/195
f 199/199/199 172/172/172 168/168/168
f 195/195/195 176/176/176 203/203/203
f 195/195/195 168/168/168 176/176/176
f 203/203/203 184/184/184 219/219/219
f 203/203/203 176/176/176 184/184/184
f 219/219/219 192/192/192 227/227/227
f 219/219/219 184/184/184 192/192/192
f 227/227/227 212/212/212 254/254/254
f 227/227/227 192/192/192 212/212/212
f 254/254/254 247/247/247 270/270/270
f 254/254/254 212/212/212 247/247/247
f 270/270/270 279/279/279 298/298/298
f 270/270/270 247/247/247 279/279/279
f 298/298/298 321/321/321 328/328/328
f 298/298/298 279/279/279 321/321/321
f 328/328/328 349/349/349 346/346/346
f 328/328/328 321/321/321 349/349/349
f 346/346/346 365/365/365 358/358/358
f 346/346/346 349/349/349 365/365/365
f 358/358/358 407/407/407 388/388/388
f 358/358/358 365/365/365 407/407/407
f 388/388/388 439/439/439 416/416/416
f 388/388/388 407/407/407 439/439/439
f 416/416/416 474/474/474 432/432/432
f 416/416/416 439/439/439 474/474/474
f 432/432/432 496/496/496 459/459/459
f 432/432/432 474/474/474 496/496/496
f 459/459/459 504/504/504 467/467/467
f 459/459/459 496/496/496 504/504/504
f 467/467/467 512/512/512 483/483/483
f 467/467/467 504/504/504 512/512/512
f 483/483/483 516/516/516 488/488/488
f 483/483/483 512/512/512 516/516/516
f 517/517/517 511/511/511 509/509/509
f 517/517/517 520/520/520 511/511/511
f 509/509/509 503/503/503 501/501/501
f 509/509/509 511/511/511 503/503/503
f 501/501/501 495/495/495 493/493/493
f 501/501/501 503/503/503 495/495/495
f 493/493/493 473/473/473 471/471/471
f 493/493/493 495/495/495 473/473/473
f 471/471/471 438/438/438 436/436/436
f 471/471/471 473/473/473 438/438/438
f 436/436/436 406/406/406 404/404/404
f 436/436/436 438/438/438 406/406/406
f 404/404/404 364/364/364 362/362/362
f 404/404/404 406/406/406 364/364/364
f 362/362/362 335/335/335 333/333/333
f 362/362/362 364/364/364 335/335/335
f 333/333/333 318/318/318 316/316/316
f 333/333/333 335/335/335 318/318/318
f 316/316/316 276/276/276 274/274/274
f 316/316/316 318/318/318 276/276/276
f 274/274/274 244/244/244 242/242/242
f 274/274/274 276/276/276 244/244/244
f 242/242/242 209/209/209 207/207/207
f 242/242/242 244/244/244 209/209/209
f 207/207/207 189/189/189 187/187/187
f 207/207/207 209/209/209 189/189/189
f 187/187/187 181/181/181 179/179/179
f 187/187/187 189/189/189 181/181/181
f 179/179/179 173/173/173 171/171/171
f 179/179/179 181/181/181 173/173/173
f 171/171/171 169/169/169 167/167/167
f 171/171/171 173/173/173 169/169/169
f 167/167/167 177/177/177 175/175/175
f 167/167/167 169/169/169 177/177/177
f 175/175/175 185/185/185 183/183/183
f 175/175/175 177/177/177 185/185/185
f 183/183/183 193/193/193 191/191/191
f 183/183/183 185/185/185 193/193/193
f 191/191/191 213/213/213 211/211/211
f 191/191/191 193/193/193 213/213/213
f 211/211/211 248/248/248 246/246/246
f 211/211/211 213/213/213 248/248/248
f 246/246/246 280/280/280 278/278/278
f 246/246/246 248/248/248 280/280/280
f 278/278/278 322/322/322 320/320/320
f 278/278/278 280/280/280 322/322/322
f 320/320/320 352/352/352 350/350/350
f 320/320/320 322/322/322 352/352/352
f 350/350/350 368/368/368 366/366/366
f 350/350/350 352/352/352 368/368/368
f 366/366/366 410/410/410 408/408/408
f 366/366/366 368/368/368 410/410/410
f 408/408/408 442/442/442 440/440/440
f 408/408/408 410/410/410 442/442/442
f 440/440/440 477/477/477 475/475/475
f 440/440/440 442/442/442 477/477/477
f 475/475/475 499/499/499 497/497/497
f 475/475/475 477/477/477 499/499/499
f 497/497/497 507/507/507 505/505/505
f 497/497/497 499/499/499 507/507/507
f 505/505/505 515/515/515 513/513/513
f 505/505/505 507/507/507 515/515/515
f 513/513/513 521/521/521 518/518/518
f 513/513/513 515/515/515 521/521/521
f 519/519/519 481/481/481 510/510/510
f 519/519/519 491/491/491 481/481/481
f 510/510/510 465/465/465 502/502/502
f 510/510/510 481/481/481 465/465/465
f 502/502/502 457/457/457 494/494/494
f 502/502/502 465/465/465 457/457/457
f 494/494/494 430/430/430 472/472/472
f 494/494/494 457/457/457 430/430/430
f 472/472/472 414/414/414 437/437/437
f 472/472/472 430/430/430 414/414/414
f 437/437/437 386/386/386 405/405/405
f 437/437/437 414/414/414 386/386/386
f 405/405/405 356/356/356 363/363/363
f 405/405/405 386/386/386 356/356/356
f 363/363/363 339/339/339 336/336/336
f 363/363/363 356/356/356 339/339/339
f 336/336/336 326/326/326 319/319/319
f 336/336/336 339/339/339 326/326/326
f 319/319/319 296/296/296 277/277/277
f 319/319/319 326/326/326 296/296/296
f 277/277/277 268/268/268 245/245/245
f 277/277/277 296/296/296 268/268/268
f 245/245/245 252/252/252 210/210/210
f 245/245/245 268/268/268 252/252/252
f 210/210/210 225/225/225 190/190/190
f 210/210/210 252/252/252 225/225/225
f 190/190/190 217/217/217 182/182/182
f 190/190/190 225/225/225 217/217/217
f 182/182/182 201/201/201 174/174/174
f 182/182/182 217/217/217 201/201/201
f 174/174/174 197/197/197 170/170/170
f 174/174/174 201/201/201 197/197/197
f 170/170/170 205/205/205 178/178/178
f 170/170/170 197/197/197 205/205/205
f 178/178/178 221/221/221 186/186/186
f 178/178/178 205/205/205 221/221/221
f 186/186/186 229/229/229 194/194/194
f 186/186/186 221/221/221 229/229/229
f 194/194/194 256/256/256 214/214/214
f 194/194/194 229/229/229 256/256/256
f 214/214/214 272/272/272 249/249/249
f 214/214/214 256/256/256 272/272/272
f 249/249/249 300/300/300 281/281/281
f 249/249/249 272/272/272 300/300/300
f 281/281/281 330/330/330 323/323/323
f 281/281/281 300/300/300 330/330/330
f 323/323/323 348/348/348 351/351/351
f 323/323/323 330/330/330 348/348/348
f 351/351/351 360/360/360 367/367/367
f 351/351/351 348/348/348 360/360/360
f 367/367/367 390/390/390 409/409/409
f 367/367/367 360/360/360 390/390/390
f 409/409/409 418/418/418 441/441/441
f 409/409/409 390/390/390 418/418/418
f 441/441/441 434/434/434 476/476/476
f 441/441/441 418/418/418 434/434/434
f 476/476/476 461/461/461 498/498/498
f 476/476/476 434/434/434 461/461/461
f 498/498/498 469/469/469 506/506/506
f 498/498/498 461/461/461 469/469/469
f 506/506/506 485/485/485 514/514/514
f 506/506/506 469/469/469 485/485/485
f 514/514/514 491/491/491 519/519/519
f 514/514/514 485/485/485 491/491/491
f 489/489/489 478/478/478 480/480/480
f 489/489/489 486/486/486 478/478/478
f 480/480/480 462/462/462 464/464/464
f 480/480/480 478/478/478 462/462/462
f 464/464/464 454/454/454 456/456/456
f 464/464/464 462/462/462 454/454/454
f 456/456/456 427/427/427 429/429/429
f 456/456/456 454/454/454 427/427/427
f 429/429/429 411/411/411 413/413/413
f 429/429/429 427/427/427 411/411/411
f 413/413/413 383/383/383 385/385/385
f 413/413/413 411/411/411 383/383/383
f 385/385/385 353/353/353 355/355/355
f 385/385/385 383/383/383 353/353/353
f 355/355/355 338/338/338 340/340/340
f 355/355/355 353/353/353 338/338/338
f 340/340/340 325/325/325 327/327/327
f 340/340/340 338/338/338 325/325/325
f 327/327/327 295/295/295 297/297/297
f 327/327/327 325/325/325 295/295/295
f 297/297/297 267/267/267 269/269/269
f 297/297/297 295/295/295 267/267/267
f 269/269/269 251/251/251 253/253/253
f 269/269/269 267/267/267 251/251/251
f 253/253/253 224/224/224 226/226/226
f 253/253/253 251/251/251 224/224/224
f 226/226/226 216/216/216 218/218/218
f 226/226/226 224/224/224 216/216/216
f 218/218/218 200/200/200 202/202/202
f 218/218/218 216/216/216 200/200/200
f 202/202/202 196/196/196 198/198/198
f 202/202/202 200/200/200 196/196/196
f 198/198/198 204/204/204 206/206/206
f 198/198/198 196/196/196 204/204/204
f 206/206/206 220/220/220 222/222/222
f 206/206/206 204/204/204 220/220/220
f 222/222/222 228/228/228 230/230/230
f 222/222/222 220/220/220 228/228/228
f 230/230/230 255/255/255 257/257/257
f 230/230/230 228/228/228 255/255/255
f 257/257/257 271/271/271 273/273/273
f 257/257/257 255/255/255 271/271/271
f 273/273/273 299/299/299 301/301/301
f 273/273/273 271/271/271 299/299/299
f 301/301/301 329/329/329 331/331/331
f 301/301/301 299/299/299 329/329/329
f 331/331/331 345/345/345 347/347/347
f 331/331/331 329/329/329 345/345/345
f 347/347/347 357/357/357 359/359/359
f 347/347/347 345/345/345 357/357/357
f 359/359/359 387/387/387 389/389/389
f 359/359/359 357/357/357 387/387/387
f 389/389/389 415/415/415 417/417/417
f 389/389/389 387/387/387 415/415/415
f 417/417/417 431/431/431 433/433/433
f 417/417/417 415/415/415 431/431/431
f 433/433/433 458/458/458 460/460/460
f 433/433/433 431/431/431 458/458/458
f 460/460/460 466/466/466 468/468/468
f 460/460/460 458/458/458 466/466/466
f 468/468/468 482/482/482 484/484/484
f 468/468/468 466/466/466 482/482/482
f 484/484/484 487/487/487 490/490/490
f 484/484/484 482/482/482 487/487/487
o 08_Farol_Pared_Wood
usemtl Wood
s 1
f 161/161/161 164/164/164 151/151/151
f 153/153/153 145/145/145 158/158/158
f 545/545/545 537/537/537 531/531/531
f 160/160/160 149/149/149 163/163/163
f 534/534/534 543/543/543 530/530/530
f 155/155/155 159/159/159 147/147/147
f 524/524/524 528/528/528 539/539/539
f 527/527/527 541/541/541 529/529/529
f 150/150/150 146/146/146 148/148/148
f 150/150/150 148/148/148 152/152/152
f 166/166/166 150/150/150 152/152/152
f 166/166/166 163/163/163 150/150/150
f 161/161/161 159/159/159 529/529/529
f 161/161/161 529/529/529 531/531/531
f 161/161/161 147/147/147 159/159/159
f 161/161/161 151/151/151 147/147/147
f 537/537/537 161/161/161 531/531/531
f 537/537/537 164/164/164 161/161/161
f 530/530/530 539/539/539 528/528/528
f 530/530/530 543/543/543 539/539/539
f 545/545/545 531/531/531 529/529/529
f 545/545/545 529/529/529 541/541/541
f 544/544/544 538/538/538 542/542/542
f 544/544/544 540/540/540 538/538/538
f 160/160/160 145/145/145 149/149/149
f 160/160/160 158/158/158 145/145/145
f 160/160/160 530/530/530 528/528/528
f 160/160/160 528/528/528 158/158/158
f 532/532/532 162/162/162 165/165/165
f 532/532/532 165/165/165 535/535/535
f 534/534/534 530/530/530 160/160/160
f 534/534/534 160/160/160 163/163/163
f 533/533/533 544/544/544 542/542/542
f 533/533/533 536/536/536 544/544/544
f 156/156/156 148/148/148 146/146/146
f 156/156/156 146/146/146 153/153/153
f 524/524/524 158/158/158 528/528/528
f 524/524/524 153/153/153 158/158/158
f 525/525/525 538/538/538 540/540/540
f 525/525/525 522/522/522 538/538/538
f 527/527/527 529/529/529 159/159/159
f 527/527/527 159/159/159 155/155/155
f 526/526/526 157/157/157 154/154/154
f 526/526/526 154/154/154 523/523/523
