# metres; Y up; ground-centred pivot
mtllib 09_Valla_Tablillas.mtl
v -1.0950000 1.2539000 -0.0748500
v -1.0950000 1.2539000 0.0773500
v -1.0950000 1.3061000 -0.0748500
v -1.0950000 1.3061000 0.0773500
v -1.0761000 1.2350000 -0.0748500
v -1.0761000 1.2350000 -0.0748500
v -1.0761000 1.2350000 0.0773500
v -1.0761000 1.2350000 0.0773500
v -1.0761000 1.2539000 -0.0937500
v -1.0761000 1.2539000 -0.0937500
v -1.0761000 1.2539000 -0.0937500
v -1.0761000 1.2539000 0.0962500
v -1.0761000 1.2539000 0.0962500
v -1.0761000 1.2539000 0.0962500
v -1.0761000 1.3061000 -0.0937500
v -1.0761000 1.3061000 -0.0937500
v -1.0761000 1.3061000 -0.0937500
v -1.0761000 1.3061000 0.0962500
v -1.0761000 1.3061000 0.0962500
v -1.0761000 1.3061000 0.0962500
v -1.0761000 1.3250000 -0.0748500
v -1.0761000 1.3250000 -0.0748500
v -1.0761000 1.3250000 0.0773500
v -1.0761000 1.3250000 0.0773500
v -1.0650000 0.0250000 -0.0387500
v -1.0650000 0.0250000 0.0412500
v -1.0650000 1.2350000 -0.0387500
v -1.0650000 1.2350000 0.0412500
v -1.0400000 0.0000000 -0.0387500
v -1.0400000 0.0000000 -0.0387500
v -1.0400000 0.0000000 0.0412500
v -1.0400000 0.0000000 0.0412500
v -1.0400000 0.0000000 0.0412500
v -1.0400000 0.0250000 -0.0637500
v -1.0400000 0.0250000 -0.0637500
v -1.0400000 0.0250000 0.0662500
v -1.0400000 0.0250000 0.0662500
v -1.0400000 1.2350000 -0.0637500
v -1.0400000 1.2350000 -0.0637500
v -1.0400000 1.2350000 0.0662500
v -1.0400000 1.2350000 0.0662500
v -1.0400000 1.2600000 -0.0387500
v -1.0400000 1.2600000 -0.0387500
v -1.0400000 1.2600000 0.0412500
v -1.0400000 1.2600000 0.0412500
v -1.0400000 1.2600000 0.0412500
v -1.0000000 0.3139000 -0.0248500
v -1.0000000 0.3139000 -0.0248500
v -1.0000000 0.3139000 0.0273500
v -1.0000000 0.3139000 0.0273500
v -1.0000000 0.3139000 0.0273500
v -1.0000000 0.3861000 -0.0248500
v -1.0000000 0.3861000 -0.0248500
v -1.0000000 0.3861000 -0.0248500
v -1.0000000 0.3861000 0.0273500
v -1.0000000 0.3861000 0.0273500
v -1.0000000 0.3861000 0.0273500
v -1.0000000 0.8839000 -0.0248500
v -1.0000000 0.8839000 -0.0248500
v -1.0000000 0.8839000 0.0273500
v -1.0000000 0.8839000 0.0273500
v -1.0000000 0.8839000 0.0273500
v -1.0000000 0.9561000 -0.0248500
v -1.0000000 0.9561000 -0.0248500
v -1.0000000 0.9561000 -0.0248500
v -1.0000000 0.9561000 0.0273500
v -1.0000000 0.9561000 0.0273500
v -1.0000000 0.9561000 0.0273500
v -0.9811000 0.2950000 -0.0248500
v -0.9811000 0.2950000 0.0273500
v -0.9811000 0.3139000 -0.0437500
v -0.9811000 0.3139000 -0.0437500
v -0.9811000 0.3139000 0.0462500
v -0.9811000 0.3139000 0.0462500
v -0.9811000 0.3861000 -0.0437500
v -0.9811000 0.3861000 -0.0437500
v -0.9811000 0.3861000 0.0462500
v -0.9811000 0.3861000 0.0462500
v -0.9811000 0.4050000 -0.0248500
v -0.9811000 0.4050000 0.0273500
v -0.9811000 0.8650000 -0.0248500
v -0.9811000 0.8650000 0.0273500
v -0.9811000 0.8839000 -0.0437500
v -0.9811000 0.8839000 -0.0437500
v -0.9811000 0.8839000 0.0462500
v -0.9811000 0.8839000 0.0462500
v -0.9811000 0.9561000 -0.0437500
v -0.9811000 0.9561000 -0.0437500
v -0.9811000 0.9561000 0.0462500
v -0.9811000 0.9561000 0.0462500
v -0.9811000 0.9750000 -0.0248500
v -0.9811000 0.9750000 0.0273500
v -0.9600000 0.0000000 -0.0387500
v -0.9600000 0.0000000 -0.0387500
v -0.9600000 0.0000000 -0.0387500
v -0.9600000 0.0000000 0.0412500
v -0.9600000 0.0000000 0.0412500
v -0.9600000 0.0250000 -0.0637500
v -0.9600000 0.0250000 -0.0637500
v -0.9600000 0.0250000 0.0662500
v -0.9600000 0.0250000 0.0662500
v -0.9600000 1.2350000 -0.0637500
v -0.9600000 1.2350000 -0.0637500
v -0.9600000 1.2350000 0.0662500
v -0.9600000 1.2350000 0.0662500
v -0.9600000 1.2600000 -0.0387500
v -0.9600000 1.2600000 -0.0387500
v -0.9600000 1.2600000 -0.0387500
v -0.9600000 1.2600000 0.0412500
v -0.9600000 1.2600000 0.0412500
v -0.9350000 0.0250000 -0.0387500
v -0.9350000 0.0250000 0.0412500
v -0.9350000 1.2350000 -0.0387500
v -0.9350000 1.2350000 0.0412500
v -0.9239000 1.2350000 -0.0748500
v -0.9239000 1.2350000 -0.0748500
v -0.9239000 1.2350000 0.0773500
v -0.9239000 1.2350000 0.0773500
v -0.9239000 1.2539000 -0.0937500
v -0.9239000 1.2539000 -0.0937500
v -0.9239000 1.2539000 -0.0937500
v -0.9239000 1.2539000 0.0962500
v -0.9239000 1.2539000 0.0962500
v -0.9239000 1.2539000 0.0962500
v -0.9239000 1.3061000 -0.0937500
v -0.9239000 1.3061000 -0.0937500
v -0.9239000 1.3061000 -0.0937500
v -0.9239000 1.3061000 0.0962500
v -0.9239000 1.3061000 0.0962500
v -0.9239000 1.3061000 0.0962500
v -0.9239000 1.3250000 -0.0748500
v -0.9239000 1.3250000 -0.0748500
v -0.9239000 1.3250000 0.0773500
v -0.9239000 1.3250000 0.0773500
v -0.9050000 0.1436500 -0.0826000
v -0.9050000 0.1436500 -0.0449000
v -0.9050000 1.2363500 -0.0826000
v -0.9050000 1.2363500 -0.0449000
v -0.9050000 1.2539000 -0.0748500
v -0.9050000 1.2539000 0.0773500
v -0.9050000 1.3061000 -0.0748500
v -0.9050000 1.3061000 0.0773500
v -0.8913500 0.1300000 -0.0826000
v -0.8913500 0.1300000 -0.0826000
v -0.8913500 0.1300000 -0.0449000
v -0.8913500 0.1300000 -0.0449000
v -0.8913500 0.1300000 -0.0449000
v -0.8913500 0.1436500 -0.0962500
v -0.8913500 0.1436500 -0.0962500
v -0.8913500 0.1436500 -0.0312500
v -0.8913500 0.1436500 -0.0312500
v -0.8913500 1.2363500 -0.0962500
v -0.8913500 1.2363500 -0.0962500
v -0.8913500 1.2363500 -0.0312500
v -0.8913500 1.2363500 -0.0312500
v -0.8913500 1.2500000 -0.0826000
v -0.8913500 1.2500000 -0.0826000
v -0.8913500 1.2500000 -0.0449000
v -0.8913500 1.2500000 -0.0449000
v -0.8913500 1.2500000 -0.0449000
v -0.7886500 0.1300000 -0.0826000
v -0.7886500 0.1300000 -0.0826000
v -0.7886500 0.1300000 -0.0826000
v -0.7886500 0.1300000 -0.0449000
v -0.7886500 0.1300000 -0.0449000
v -0.7886500 0.1300000 -0.0449000
v -0.7886500 0.1436500 -0.0962500
v -0.7886500 0.1436500 -0.0962500
v -0.7886500 0.1436500 -0.0312500
v -0.7886500 0.1436500 -0.0312500
v -0.7886500 1.2363500 -0.0962500
v -0.7886500 1.2363500 -0.0962500
v -0.7886500 1.2363500 -0.0312500
v -0.7886500 1.2363500 -0.0312500
v -0.7886500 1.2500000 -0.0826000
v -0.7886500 1.2500000 -0.0826000
v -0.7886500 1.2500000 -0.0826000
v -0.7886500 1.2500000 -0.0449000
v -0.7886500 1.2500000 -0.0449000
v -0.7886500 1.2500000 -0.0449000
v -0.7750000 0.1436500 -0.0826000
v -0.7750000 0.1436500 -0.0449000
v -0.7750000 1.2363500 -0.0826000
v -0.7750000 1.2363500 -0.0449000
v -0.6950000 0.1436500 -0.0826000
v -0.6950000 0.1436500 -0.0449000
v -0.6950000 1.2363500 -0.0826000
v -0.6950000 1.2363500 -0.0449000
v -0.6813500 0.1300000 -0.0826000
v -0.6813500 0.1300000 -0.0826000
v -0.6813500 0.1300000 -0.0449000
v -0.6813500 0.1300000 -0.0449000
v -0.6813500 0.1300000 -0.0449000
v -0.6813500 0.1436500 -0.0962500
v -0.6813500 0.1436500 -0.0962500
v -0.6813500 0.1436500 -0.0312500
v -0.6813500 0.1436500 -0.0312500
v -0.6813500 1.2363500 -0.0962500
v -0.6813500 1.2363500 -0.0962500
v -0.6813500 1.2363500 -0.0312500
v -0.6813500 1.2363500 -0.0312500
v -0.6813500 1.2500000 -0.0826000
v -0.6813500 1.2500000 -0.0826000
v -0.6813500 1.2500000 -0.0449000
v -0.6813500 1.2500000 -0.0449000
v -0.6813500 1.2500000 -0.0449000
v -0.5786500 0.1300000 -0.0826000
v -0.5786500 0.1300000 -0.0826000
v -0.5786500 0.1300000 -0.0826000
v -0.5786500 0.1300000 -0.0449000
v -0.5786500 0.1300000 -0.0449000
v -0.5786500 0.1300000 -0.0449000
v -0.5786500 0.1436500 -0.0962500
v -0.5786500 0.1436500 -0.0962500
v -0.5786500 0.1436500 -0.0312500
v -0.5786500 0.1436500 -0.0312500
v -0.5786500 1.2363500 -0.0962500
v -0.5786500 1.2363500 -0.0962500
v -0.5786500 1.2363500 -0.0312500
v -0.5786500 1.2363500 -0.0312500
v -0.5786500 1.2500000 -0.0826000
v -0.5786500 1.2500000 -0.0826000
v -0.5786500 1.2500000 -0.0826000
v -0.5786500 1.2500000 -0.0449000
v -0.5786500 1.2500000 -0.0449000
v -0.5786500 1.2500000 -0.0449000
v -0.5650000 0.1436500 -0.0826000
v -0.5650000 0.1436500 -0.0449000
v -0.5650000 1.2363500 -0.0826000
v -0.5650000 1.2363500 -0.0449000
v -0.4850000 0.1436500 -0.0826000
v -0.4850000 0.1436500 -0.0449000
v -0.4850000 1.2363500 -0.0826000
v -0.4850000 1.2363500 -0.0449000
v -0.4713500 0.1300000 -0.0826000
v -0.4713500 0.1300000 -0.0826000
v -0.4713500 0.1300000 -0.0449000
v -0.4713500 0.1300000 -0.0449000
v -0.4713500 0.1300000 -0.0449000
v -0.4713500 0.1436500 -0.0962500
v -0.4713500 0.1436500 -0.0962500
v -0.4713500 0.1436500 -0.0312500
v -0.4713500 0.1436500 -0.0312500
v -0.4713500 1.2363500 -0.0962500
v -0.4713500 1.2363500 -0.0962500
v -0.4713500 1.2363500 -0.0312500
v -0.4713500 1.2363500 -0.0312500
v -0.4713500 1.2500000 -0.0826000
v -0.4713500 1.2500000 -0.0826000
v -0.4713500 1.2500000 -0.0449000
v -0.4713500 1.2500000 -0.0449000
v -0.4713500 1.2500000 -0.0449000
v -0.3686500 0.1300000 -0.0826000
v -0.3686500 0.1300000 -0.0826000
v -0.3686500 0.1300000 -0.0826000
v -0.3686500 0.1300000 -0.0449000
v -0.3686500 0.1300000 -0.0449000
v -0.3686500 0.1300000 -0.0449000
v -0.3686500 0.1436500 -0.0962500
v -0.3686500 0.1436500 -0.0962500
v -0.3686500 0.1436500 -0.0312500
v -0.3686500 0.1436500 -0.0312500
v -0.3686500 1.2363500 -0.0962500
v -0.3686500 1.2363500 -0.0962500
v -0.3686500 1.2363500 -0.0312500
v -0.3686500 1.2363500 -0.0312500
v -0.3686500 1.2500000 -0.0826000
v -0.3686500 1.2500000 -0.0826000
v -0.3686500 1.2500000 -0.0826000
v -0.3686500 1.2500000 -0.0449000
v -0.3686500 1.2500000 -0.0449000
v -0.3686500 1.2500000 -0.0449000
v -0.3550000 0.1436500 -0.0826000
v -0.3550000 0.1436500 -0.0449000
v -0.3550000 1.2363500 -0.0826000
v -0.3550000 1.2363500 -0.0449000
v -0.2750000 0.1436500 -0.0826000
v -0.2750000 0.1436500 -0.0449000
v -0.2750000 1.2363500 -0.0826000
v -0.2750000 1.2363500 -0.0449000
v -0.2613500 0.1300000 -0.0826000
v -0.2613500 0.1300000 -0.0826000
v -0.2613500 0.1300000 -0.0449000
v -0.2613500 0.1300000 -0.0449000
v -0.2613500 0.1300000 -0.0449000
v -0.2613500 0.1436500 -0.0962500
v -0.2613500 0.1436500 -0.0962500
v -0.2613500 0.1436500 -0.0312500
v -0.2613500 0.1436500 -0.0312500
v -0.2613500 1.2363500 -0.0962500
v -0.2613500 1.2363500 -0.0962500
v -0.2613500 1.2363500 -0.0312500
v -0.2613500 1.2363500 -0.0312500
v -0.2613500 1.2500000 -0.0826000
v -0.2613500 1.2500000 -0.0826000
v -0.2613500 1.2500000 -0.0449000
v -0.2613500 1.2500000 -0.0449000
v -0.2613500 1.2500000 -0.0449000
v -0.1586500 0.1300000 -0.0826000
v -0.1586500 0.1300000 -0.0826000
v -0.1586500 0.1300000 -0.0826000
v -0.1586500 0.1300000 -0.0449000
v -0.1586500 0.1300000 -0.0449000
v -0.1586500 0.1300000 -0.0449000
v -0.1586500 0.1436500 -0.0962500
v -0.1586500 0.1436500 -0.0962500
v -0.1586500 0.1436500 -0.0312500
v -0.1586500 0.1436500 -0.0312500
v -0.1586500 1.2363500 -0.0962500
v -0.1586500 1.2363500 -0.0962500
v -0.1586500 1.2363500 -0.0312500
v -0.1586500 1.2363500 -0.0312500
v -0.1586500 1.2500000 -0.0826000
v -0.1586500 1.2500000 -0.0826000
v -0.1586500 1.2500000 -0.0826000
v -0.1586500 1.2500000 -0.0449000
v -0.1586500 1.2500000 -0.0449000
v -0.1586500 1.2500000 -0.0449000
v -0.1450000 0.1436500 -0.0826000
v -0.1450000 0.1436500 -0.0449000
v -0.1450000 1.2363500 -0.0826000
v -0.1450000 1.2363500 -0.0449000
v -0.0650000 0.1436500 -0.0826000
v -0.0650000 0.1436500 -0.0449000
v -0.0650000 1.2363500 -0.0826000
v -0.0650000 1.2363500 -0.0449000
v -0.0513500 0.1300000 -0.0826000
v -0.0513500 0.1300000 -0.0826000
v -0.0513500 0.1300000 -0.0449000
v -0.0513500 0.1300000 -0.0449000
v -0.0513500 0.1300000 -0.0449000
v -0.0513500 0.1436500 -0.0962500
v -0.0513500 0.1436500 -0.0962500
v -0.0513500 0.1436500 -0.0312500
v -0.0513500 0.1436500 -0.0312500
v -0.0513500 1.2363500 -0.0962500
v -0.0513500 1.2363500 -0.0962500
v -0.0513500 1.2363500 -0.0312500
v -0.0513500 1.2363500 -0.0312500
v -0.0513500 1.2500000 -0.0826000
v -0.0513500 1.2500000 -0.0826000
v -0.0513500 1.2500000 -0.0449000
v -0.0513500 1.2500000 -0.0449000
v -0.0513500 1.2500000 -0.0449000
v 0.0513500 0.1300000 -0.0826000
v 0.0513500 0.1300000 -0.0826000
v 0.0513500 0.1300000 -0.0826000
v 0.0513500 0.1300000 -0.0449000
v 0.0513500 0.1300000 -0.0449000
v 0.0513500 0.1300000 -0.0449000
v 0.0513500 0.1436500 -0.0962500
v 0.0513500 0.1436500 -0.0962500
v 0.0513500 0.1436500 -0.0312500
v 0.0513500 0.1436500 -0.0312500
v 0.0513500 1.2363500 -0.0962500
v 0.0513500 1.2363500 -0.0962500
v 0.0513500 1.2363500 -0.0312500
v 0.0513500 1.2363500 -0.0312500
v 0.0513500 1.2500000 -0.0826000
v 0.0513500 1.2500000 -0.0826000
v 0.0513500 1.2500000 -0.0826000
v 0.0513500 1.2500000 -0.0449000
v 0.0513500 1.2500000 -0.0449000
v 0.0513500 1.2500000 -0.0449000
v 0.0650000 0.1436500 -0.0826000
v 0.0650000 0.1436500 -0.0449000
v 0.0650000 1.2363500 -0.0826000
v 0.0650000 1.2363500 -0.0449000
v 0.1450000 0.1436500 -0.0826000
v 0.1450000 0.1436500 -0.0449000
v 0.1450000 1.2363500 -0.0826000
v 0.1450000 1.2363500 -0.0449000
v 0.1586500 0.1300000 -0.0826000
v 0.1586500 0.1300000 -0.0826000
v 0.1586500 0.1300000 -0.0449000
v 0.1586500 0.1300000 -0.0449000
v 0.1586500 0.1300000 -0.0449000
v 0.1586500 0.1436500 -0.0962500
v 0.1586500 0.1436500 -0.0962500
v 0.1586500 0.1436500 -0.0312500
v 0.1586500 0.1436500 -0.0312500
v 0.1586500 1.2363500 -0.0962500
v 0.1586500 1.2363500 -0.0962500
v 0.1586500 1.2363500 -0.0312500
v 0.1586500 1.2363500 -0.0312500
v 0.1586500 1.2500000 -0.0826000
v 0.1586500 1.2500000 -0.0826000
v 0.1586500 1.2500000 -0.0449000
v 0.1586500 1.2500000 -0.0449000
v 0.1586500 1.2500000 -0.0449000
v 0.2613500 0.1300000 -0.0826000
v 0.2613500 0.1300000 -0.0826000
v 0.2613500 0.1300000 -0.0826000
v 0.2613500 0.1300000 -0.0449000
v 0.2613500 0.1300000 -0.0449000
v 0.2613500 0.1300000 -0.0449000
v 0.2613500 0.1436500 -0.0962500
v 0.2613500 0.1436500 -0.0962500
v 0.2613500 0.1436500 -0.0312500
v 0.2613500 0.1436500 -0.0312500
v 0.2613500 1.2363500 -0.0962500
v 0.2613500 1.2363500 -0.0962500
v 0.2613500 1.2363500 -0.0312500
v 0.2613500 1.2363500 -0.0312500
v 0.2613500 1.2500000 -0.0826000
v 0.2613500 1.2500000 -0.0826000
v 0.2613500 1.2500000 -0.0826000
v 0.2613500 1.2500000 -0.0449000
v 0.2613500 1.2500000 -0.0449000
v 0.2613500 1.2500000 -0.0449000
v 0.2750000 0.1436500 -0.0826000
v 0.2750000 0.1436500 -0.0449000
v 0.2750000 1.2363500 -0.0826000
v 0.2750000 1.2363500 -0.0449000
v 0.3550000 0.1436500 -0.0826000
v 0.3550000 0.1436500 -0.0449000
v 0.3550000 1.2363500 -0.0826000
v 0.3550000 1.2363500 -0.0449000
v 0.3686500 0.1300000 -0.0826000
v 0.3686500 0.1300000 -0.0826000
v 0.3686500 0.1300000 -0.0449000
v 0.3686500 0.1300000 -0.0449000
v 0.3686500 0.1300000 -0.0449000
v 0.3686500 0.1436500 -0.0962500
v 0.3686500 0.1436500 -0.0962500
v 0.3686500 0.1436500 -0.0312500
v 0.3686500 0.1436500 -0.0312500
v 0.3686500 1.2363500 -0.0962500
v 0.3686500 1.2363500 -0.0962500
v 0.3686500 1.2363500 -0.0312500
v 0.3686500 1.2363500 -0.0312500
v 0.3686500 1.2500000 -0.0826000
v 0.3686500 1.2500000 -0.0826000
v 0.3686500 1.2500000 -0.0449000
v 0.3686500 1.2500000 -0.0449000
v 0.3686500 1.2500000 -0.0449000
v 0.4713500 0.1300000 -0.0826000
v 0.4713500 0.1300000 -0.0826000
v 0.4713500 0.1300000 -0.0826000
v 0.4713500 0.1300000 -0.0449000
v 0.4713500 0.1300000 -0.0449000
v 0.4713500 0.1300000 -0.0449000
v 0.4713500 0.1436500 -0.0962500
v 0.4713500 0.1436500 -0.0962500
v 0.4713500 0.1436500 -0.0312500
v 0.4713500 0.1436500 -0.0312500
v 0.4713500 1.2363500 -0.0962500
v 0.4713500 1.2363500 -0.0962500
v 0.4713500 1.2363500 -0.0312500
v 0.4713500 1.2363500 -0.0312500
v 0.4713500 1.2500000 -0.0826000
v 0.4713500 1.2500000 -0.0826000
v 0.4713500 1.2500000 -0.0826000
v 0.4713500 1.2500000 -0.0449000
v 0.4713500 1.2500000 -0.0449000
v 0.4713500 1.2500000 -0.0449000
v 0.4850000 0.1436500 -0.0826000
v 0.4850000 0.1436500 -0.0449000
v 0.4850000 1.2363500 -0.0826000
v 0.4850000 1.2363500 -0.0449000
v 0.5650000 0.1436500 -0.0826000
v 0.5650000 0.1436500 -0.0449000
v 0.5650000 1.2363500 -0.0826000
v 0.5650000 1.2363500 -0.0449000
v 0.5786500 0.1300000 -0.0826000
v 0.5786500 0.1300000 -0.0826000
v 0.5786500 0.1300000 -0.0449000
v 0.5786500 0.1300000 -0.0449000
v 0.5786500 0.1300000 -0.0449000
v 0.5786500 0.1436500 -0.0962500
v 0.5786500 0.1436500 -0.0962500
v 0.5786500 0.1436500 -0.0312500
v 0.5786500 0.1436500 -0.0312500
v 0.5786500 1.2363500 -0.0962500
v 0.5786500 1.2363500 -0.0962500
v 0.5786500 1.2363500 -0.0312500
v 0.5786500 1.2363500 -0.0312500
v 0.5786500 1.2500000 -0.0826000
v 0.5786500 1.2500000 -0.0826000
v 0.5786500 1.2500000 -0.0449000
v 0.5786500 1.2500000 -0.0449000
v 0.5786500 1.2500000 -0.0449000
v 0.6813500 0.1300000 -0.0826000
v 0.6813500 0.1300000 -0.0826000
v 0.6813500 0.1300000 -0.0826000
v 0.6813500 0.1300000 -0.0449000
v 0.6813500 0.1300000 -0.0449000
v 0.6813500 0.1300000 -0.0449000
v 0.6813500 0.1436500 -0.0962500
v 0.6813500 0.1436500 -0.0962500
v 0.6813500 0.1436500 -0.0312500
v 0.6813500 0.1436500 -0.0312500
v 0.6813500 1.2363500 -0.0962500
v 0.6813500 1.2363500 -0.0962500
v 0.6813500 1.2363500 -0.0312500
v 0.6813500 1.2363500 -0.0312500
v 0.6813500 1.2500000 -0.0826000
v 0.6813500 1.2500000 -0.0826000
v 0.6813500 1.2500000 -0.0826000
v 0.6813500 1.2500000 -0.0449000
v 0.6813500 1.2500000 -0.0449000
v 0.6813500 1.2500000 -0.0449000
v 0.6950000 0.1436500 -0.0826000
v 0.6950000 0.1436500 -0.0449000
v 0.6950000 1.2363500 -0.0826000
v 0.6950000 1.2363500 -0.0449000
v 0.7750000 0.1436500 -0.0826000
v 0.7750000 0.1436500 -0.0449000
v 0.7750000 1.2363500 -0.0826000
v 0.7750000 1.2363500 -0.0449000
v 0.7886500 0.1300000 -0.0826000
v 0.7886500 0.1300000 -0.0826000
v 0.7886500 0.1300000 -0.0449000
v 0.7886500 0.1300000 -0.0449000
v 0.7886500 0.1300000 -0.0449000
v 0.7886500 0.1436500 -0.0962500
v 0.7886500 0.1436500 -0.0962500
v 0.7886500 0.1436500 -0.0312500
v 0.7886500 0.1436500 -0.0312500
v 0.7886500 1.2363500 -0.0962500
v 0.7886500 1.2363500 -0.0962500
v 0.7886500 1.2363500 -0.0312500
v 0.7886500 1.2363500 -0.0312500
v 0.7886500 1.2500000 -0.0826000
v 0.7886500 1.2500000 -0.0826000
v 0.7886500 1.2500000 -0.0449000
v 0.7886500 1.2500000 -0.0449000
v 0.7886500 1.2500000 -0.0449000
v 0.8913500 0.1300000 -0.0826000
v 0.8913500 0.1300000 -0.0826000
v 0.8913500 0.1300000 -0.0826000
v 0.8913500 0.1300000 -0.0449000
v 0.8913500 0.1300000 -0.0449000
v 0.8913500 0.1300000 -0.0449000
v 0.8913500 0.1436500 -0.0962500
v 0.8913500 0.1436500 -0.0962500
v 0.8913500 0.1436500 -0.0312500
v 0.8913500 0.1436500 -0.0312500
v 0.8913500 1.2363500 -0.0962500
v 0.8913500 1.2363500 -0.0962500
v 0.8913500 1.2363500 -0.0312500
v 0.8913500 1.2363500 -0.0312500
v 0.8913500 1.2500000 -0.0826000
v 0.8913500 1.2500000 -0.0826000
v 0.8913500 1.2500000 -0.0826000
v 0.8913500 1.2500000 -0.0449000
v 0.8913500 1.2500000 -0.0449000
v 0.8913500 1.2500000 -0.0449000
v 0.9050000 0.1436500 -0.0826000
v 0.9050000 0.1436500 -0.0449000
v 0.9050000 1.2363500 -0.0826000
v 0.9050000 1.2363500 -0.0449000
v 0.9050000 1.2539000 -0.0748500
v 0.9050000 1.2539000 0.0773500
v 0.9050000 1.3061000 -0.0748500
v 0.9050000 1.3061000 0.0773500
v 0.9239000 1.2350000 -0.0748500
v 0.9239000 1.2350000 -0.0748500
v 0.9239000 1.2350000 0.0773500
v 0.9239000 1.2350000 0.0773500
v 0.9239000 1.2539000 -0.0937500
v 0.9239000 1.2539000 -0.0937500
v 0.9239000 1.2539000 -0.0937500
v 0.9239000 1.2539000 0.0962500
v 0.9239000 1.2539000 0.0962500
v 0.9239000 1.2539000 0.0962500
v 0.9239000 1.3061000 -0.0937500
v 0.9239000 1.3061000 -0.0937500
v 0.9239000 1.3061000 -0.0937500
v 0.9239000 1.3061000 0.0962500
v 0.9239000 1.3061000 0.0962500
v 0.9239000 1.3061000 0.0962500
v 0.9239000 1.3250000 -0.0748500
v 0.9239000 1.3250000 -0.0748500
v 0.9239000 1.3250000 0.0773500
v 0.9239000 1.3250000 0.0773500
v 0.9350000 0.0250000 -0.0387500
v 0.9350000 0.0250000 0.0412500
v 0.9350000 1.2350000 -0.0387500
v 0.9350000 1.2350000 0.0412500
v 0.9600000 0.0000000 -0.0387500
v 0.9600000 0.0000000 -0.0387500
v 0.9600000 0.0000000 0.0412500
v 0.9600000 0.0000000 0.0412500
v 0.9600000 0.0000000 0.0412500
v 0.9600000 0.0250000 -0.0637500
v 0.9600000 0.0250000 -0.0637500
v 0.9600000 0.0250000 0.0662500
v 0.9600000 0.0250000 0.0662500
v 0.9600000 1.2350000 -0.0637500
v 0.9600000 1.2350000 -0.0637500
v 0.9600000 1.2350000 0.0662500
v 0.9600000 1.2350000 0.0662500
v 0.9600000 1.2600000 -0.0387500
v 0.9600000 1.2600000 -0.0387500
v 0.9600000 1.2600000 0.0412500
v 0.9600000 1.2600000 0.0412500
v 0.9600000 1.2600000 0.0412500
v 0.9811000 0.2950000 -0.0248500
v 0.9811000 0.2950000 0.0273500
v 0.9811000 0.3139000 -0.0437500
v 0.9811000 0.3139000 -0.0437500
v 0.9811000 0.3139000 0.0462500
v 0.9811000 0.3139000 0.0462500
v 0.9811000 0.3861000 -0.0437500
v 0.9811000 0.3861000 -0.0437500
v 0.9811000 0.3861000 0.0462500
v 0.9811000 0.3861000 0.0462500
v 0.9811000 0.4050000 -0.0248500
v 0.9811000 0.4050000 0.0273500
v 0.9811000 0.8650000 -0.0248500
v 0.9811000 0.8650000 0.0273500
v 0.9811000 0.8839000 -0.0437500
v 0.9811000 0.8839000 -0.0437500
v 0.9811000 0.8839000 0.0462500
v 0.9811000 0.8839000 0.0462500
v 0.9811000 0.9561000 -0.0437500
v 0.9811000 0.9561000 -0.0437500
v 0.9811000 0.9561000 0.0462500
v 0.9811000 0.9561000 0.0462500
v 0.9811000 0.9750000 -0.0248500
v 0.9811000 0.9750000 0.0273500
v 1.0000000 0.3139000 -0.0248500
v 1.0000000 0.3139000 -0.0248500
v 1.0000000 0.3139000 0.0273500
v 1.0000000 0.3139000 0.0273500
v 1.0000000 0.3139000 0.0273500
v 1.0000000 0.3861000 -0.0248500
v 1.0000000 0.3861000 -0.0248500
v 1.0000000 0.3861000 -0.0248500
v 1.0000000 0.3861000 0.0273500
v 1.0000000 0.3861000 0.0273500
v 1.0000000 0.3861000 0.0273500
v 1.0000000 0.8839000 -0.0248500
v 1.0000000 0.8839000 -0.0248500
v 1.0000000 0.8839000 0.0273500
v 1.0000000 0.8839000 0.0273500
v 1.0000000 0.8839000 0.0273500
v 1.0000000 0.9561000 -0.0248500
v 1.0000000 0.9561000 -0.0248500
v 1.0000000 0.9561000 -0.0248500
v 1.0000000 0.9561000 0.0273500
v 1.0000000 0.9561000 0.0273500
v 1.0000000 0.9561000 0.0273500
v 1.0400000 0.0000000 -0.0387500
v 1.0400000 0.0000000 -0.0387500
v 1.0400000 0.0000000 -0.0387500
v 1.0400000 0.0000000 0.0412500
v 1.0400000 0.0000000 0.0412500
v 1.0400000 0.0250000 -0.0637500
v 1.0400000 0.0250000 -0.0637500
v 1.0400000 0.0250000 0.0662500
v 1.0400000 0.0250000 0.0662500
v 1.0400000 1.2350000 -0.0637500
v 1.0400000 1.2350000 -0.0637500
v 1.0400000 1.2350000 0.0662500
v 1.0400000 1.2350000 0.0662500
v 1.0400000 1.2600000 -0.0387500
v 1.0400000 1.2600000 -0.0387500
v 1.0400000 1.2600000 -0.0387500
v 1.0400000 1.2600000 0.0412500
v 1.0400000 1.2600000 0.0412500
v 1.0650000 0.0250000 -0.0387500
v 1.0650000 0.0250000 0.0412500
v 1.0650000 1.2350000 -0.0387500
v 1.0650000 1.2350000 0.0412500
v 1.0761000 1.2350000 -0.0748500
v 1.0761000 1.2350000 -0.0748500
v 1.0761000 1.2350000 0.0773500
v 1.0761000 1.2350000 0.0773500
v 1.0761000 1.2539000 -0.0937500
v 1.0761000 1.2539000 -0.0937500
v 1.0761000 1.2539000 -0.0937500
v 1.0761000 1.2539000 0.0962500
v 1.0761000 1.2539000 0.0962500
v 1.0761000 1.2539000 0.0962500
v 1.0761000 1.3061000 -0.0937500
v 1.0761000 1.3061000 -0.0937500
v 1.0761000 1.3061000 -0.0937500
v 1.0761000 1.3061000 0.0962500
v 1.0761000 1.3061000 0.0962500
v 1.0761000 1.3061000 0.0962500
v 1.0761000 1.3250000 -0.0748500
v 1.0761000 1.3250000 -0.0748500
v 1.0761000 1.3250000 0.0773500
v 1.0761000 1.3250000 0.0773500
v 1.0950000 1.2539000 -0.0748500
v 1.0950000 1.2539000 0.0773500
v 1.0950000 1.3061000 -0.0748500
v 1.0950000 1.3061000 0.0773500
vt 0.1134665 0.1138767
vt 0.1134665 0.1586414
vt 0.1880379 0.1138767
vt 0.1880379 0.1586414
vt 0.0864665 0.1138767
vt 0.1134665 0.1138767
vt 0.0864665 0.1586414
vt 0.3308950 0.1138767
vt 0.0864665 0.1138767
vt 0.1134665 0.1083179
vt 0.1134665 0.1138767
vt 0.1134665 0.1138767
vt 0.1134665 0.1642003
vt 0.3578950 0.1138767
vt 0.0864665 0.1138767
vt 0.1880379 0.1083179
vt 0.1880379 0.1138767
vt 0.1880379 0.1138767
vt 0.1880379 0.1642003
vt 0.3578950 0.1138767
vt 0.1134665 0.1138767
vt 0.2150379 0.1138767
vt 0.2150379 0.1586414
vt 0.3308950 0.1138767
vt 0.1655613 0.0549223
vt 0.2798470 0.0549223
vt 0.1655613 0.4108046
vt 0.2798470 0.4108046
vt 0.1655613 0.0475693
vt 0.1655613 0.0549223
vt 0.1655613 0.0475693
vt 0.2798470 0.0475693
vt 0.2798470 0.0549223
vt 0.1298470 0.0549223
vt 0.1655613 0.0549223
vt 0.1655613 0.0549223
vt 0.3155613 0.0549223
vt 0.1298470 0.4108046
vt 0.1655613 0.4108046
vt 0.1655613 0.4108046
vt 0.3155613 0.4108046
vt 0.1655613 0.0549223
vt 0.1655613 0.4181576
vt 0.1655613 0.4181576
vt 0.2798470 0.0549223
vt 0.2798470 0.4181576
vt 0.0936733 0.1172481
vt 0.0936733 0.1228069
vt 0.0936733 0.1172481
vt 0.1682448 0.1172481
vt 0.1682448 0.1228069
vt 0.0936733 0.1172481
vt 0.0936733 0.1440422
vt 0.1968162 0.1172481
vt 0.1682448 0.1172481
vt 0.1682448 0.1440422
vt 0.1968162 0.1172481
vt 0.1544188 0.1248567
vt 0.1544188 0.1304155
vt 0.1544188 0.1248567
vt 0.2289902 0.1248567
vt 0.2289902 0.1304155
vt 0.1544188 0.1248567
vt 0.1544188 0.1516508
vt 0.2575617 0.1248567
vt 0.2289902 0.1248567
vt 0.2289902 0.1516508
vt 0.2575617 0.1248567
vt 0.0936733 0.1228069
vt 0.1682448 0.1228069
vt 0.0666733 0.1228069
vt 0.0936733 0.1228069
vt 0.0936733 0.1228069
vt 0.1952448 0.1228069
vt 0.0666733 0.1228069
vt 0.1968162 0.1228069
vt 0.1952448 0.1228069
vt 0.1968162 0.1228069
vt 0.0936733 0.1228069
vt 0.1682448 0.1228069
vt 0.1544188 0.1304155
vt 0.2289902 0.1304155
vt 0.1274188 0.1304155
vt 0.1544188 0.1304155
vt 0.1544188 0.1304155
vt 0.2559902 0.1304155
vt 0.1274188 0.1304155
vt 0.2575617 0.1304155
vt 0.2559902 0.1304155
vt 0.2575617 0.1304155
vt 0.1544188 0.1304155
vt 0.2289902 0.1304155
vt 0.1655613 0.0475693
vt 0.1655613 0.0784517
vt 0.2798470 0.0475693
vt 0.2798470 0.0475693
vt 0.2798470 0.0784517
vt 0.1298470 0.0549223
vt 0.2798470 0.0549223
vt 0.2798470 0.0549223
vt 0.3155613 0.0549223
vt 0.1298470 0.4108046
vt 0.2798470 0.4108046
vt 0.2798470 0.4108046
vt 0.3155613 0.4108046
vt 0.1655613 0.0784517
vt 0.1655613 0.4181576
vt 0.2798470 0.4181576
vt 0.2798470 0.0784517
vt 0.2798470 0.4181576
vt 0.1655613 0.0549223
vt 0.2798470 0.0549223
vt 0.1655613 0.4108046
vt 0.2798470 0.4108046
vt 0.0864665 0.1138767
vt 0.1134665 0.1586414
vt 0.0864665 0.1586414
vt 0.3308950 0.1586414
vt 0.0864665 0.1586414
vt 0.1134665 0.1083179
vt 0.1134665 0.1586414
vt 0.1134665 0.1586414
vt 0.1134665 0.1642003
vt 0.3578950 0.1586414
vt 0.0864665 0.1586414
vt 0.1880379 0.1083179
vt 0.1880379 0.1586414
vt 0.1880379 0.1586414
vt 0.1880379 0.1642003
vt 0.3578950 0.1586414
vt 0.1134665 0.1586414
vt 0.2150379 0.1138767
vt 0.2150379 0.1586414
vt 0.3308950 0.1586414
vt 0.1123629 0.1202615
vt 0.1662200 0.1202615
vt 0.1123629 0.4416439
vt 0.1662200 0.4416439
vt 0.1134665 0.1138767
vt 0.1134665 0.1586414
vt 0.1880379 0.1138767
vt 0.1880379 0.1586414
vt 0.1123629 0.1162468
vt 0.1123629 0.1202615
vt 0.1123629 0.1162468
vt 0.1662200 0.1162468
vt 0.1662200 0.1202615
vt 0.0928629 0.1202615
vt 0.1123629 0.1202615
vt 0.1123629 0.1202615
vt 0.1857200 0.1202615
vt 0.0928629 0.4416439
vt 0.1123629 0.4416439
vt 0.1123629 0.4416439
vt 0.1857200 0.4416439
vt 0.1123629 0.1202615
vt 0.1123629 0.4456586
vt 0.1123629 0.4456586
vt 0.1662200 0.1202615
vt 0.1662200 0.4456586
vt 0.1123629 0.1162468
vt 0.1123629 0.1504674
vt 0.2590772 0.1162468
vt 0.1662200 0.1162468
vt 0.1662200 0.1504674
vt 0.2590772 0.1162468
vt 0.0928629 0.1202615
vt 0.2590772 0.1202615
vt 0.1857200 0.1202615
vt 0.2590772 0.1202615
vt 0.0928629 0.4416439
vt 0.2590772 0.4416439
vt 0.1857200 0.4416439
vt 0.2590772 0.4416439
vt 0.1123629 0.1504674
vt 0.1123629 0.4456586
vt 0.2590772 0.4456586
vt 0.1662200 0.1504674
vt 0.1662200 0.4456586
vt 0.2590772 0.4456586
vt 0.1123629 0.1202615
vt 0.1662200 0.1202615
vt 0.1123629 0.4416439
vt 0.1662200 0.4416439
vt 0.1031125 0.0498312
vt 0.1569697 0.0498312
vt 0.1031125 0.3712136
vt 0.1569697 0.3712136
vt 0.1031125 0.0458165
vt 0.1031125 0.0498312
vt 0.1031125 0.0458165
vt 0.1569697 0.0458165
vt 0.1569697 0.0498312
vt 0.0836125 0.0498312
vt 0.1031125 0.0498312
vt 0.1031125 0.0498312
vt 0.1764697 0.0498312
vt 0.0836125 0.3712136
vt 0.1031125 0.3712136
vt 0.1031125 0.3712136
vt 0.1764697 0.3712136
vt 0.1031125 0.0498312
vt 0.1031125 0.3752283
vt 0.1031125 0.3752283
vt 0.1569697 0.0498312
vt 0.1569697 0.3752283
vt 0.1031125 0.0458165
vt 0.1031125 0.0800371
vt 0.2498268 0.0458165
vt 0.1569697 0.0458165
vt 0.1569697 0.0800371
vt 0.2498268 0.0458165
vt 0.0836125 0.0498312
vt 0.2498268 0.0498312
vt 0.1764697 0.0498312
vt 0.2498268 0.0498312
vt 0.0836125 0.3712136
vt 0.2498268 0.3712136
vt 0.1764697 0.3712136
vt 0.2498268 0.3712136
vt 0.1031125 0.0800371
vt 0.1031125 0.3752283
vt 0.2498268 0.3752283
vt 0.1569697 0.0800371
vt 0.1569697 0.3752283
vt 0.2498268 0.3752283
vt 0.1031125 0.0498312
vt 0.1569697 0.0498312
vt 0.1031125 0.3712136
vt 0.1569697 0.3712136
vt 0.1328313 0.0836278
vt 0.1866884 0.0836278
vt 0.1328313 0.4050101
vt 0.1866884 0.4050101
vt 0.1328313 0.0796131
vt 0.1328313 0.0836278
vt 0.1328313 0.0796131
vt 0.1866884 0.0796131
vt 0.1866884 0.0836278
vt 0.1133313 0.0836278
vt 0.1328313 0.0836278
vt 0.1328313 0.0836278
vt 0.2061884 0.0836278
vt 0.1133313 0.4050101
vt 0.1328313 0.4050101
vt 0.1328313 0.4050101
vt 0.2061884 0.4050101
vt 0.1328313 0.0836278
vt 0.1328313 0.4090248
vt 0.1328313 0.4090248
vt 0.1866884 0.0836278
vt 0.1866884 0.4090248
vt 0.1328313 0.0796131
vt 0.1328313 0.1138337
vt 0.2795456 0.0796131
vt 0.1866884 0.0796131
vt 0.1866884 0.1138337
vt 0.2795456 0.0796131
vt 0.1133313 0.0836278
vt 0.2795456 0.0836278
vt 0.2061884 0.0836278
vt 0.2795456 0.0836278
vt 0.1133313 0.4050101
vt 0.2795456 0.4050101
vt 0.2061884 0.4050101
vt 0.2795456 0.4050101
vt 0.1328313 0.1138337
vt 0.1328313 0.4090248
vt 0.2795456 0.4090248
vt 0.1866884 0.1138337
vt 0.1866884 0.4090248
vt 0.2795456 0.4090248
vt 0.1328313 0.0836278
vt 0.1866884 0.0836278
vt 0.1328313 0.4050101
vt 0.1866884 0.4050101
vt 0.1294282 0.0750662
vt 0.1832853 0.0750662
vt 0.1294282 0.3964486
vt 0.1832853 0.3964486
vt 0.1294282 0.0710515
vt 0.1294282 0.0750662
vt 0.1294282 0.0710515
vt 0.1832853 0.0710515
vt 0.1832853 0.0750662
vt 0.1099282 0.0750662
vt 0.1294282 0.0750662
vt 0.1294282 0.0750662
vt 0.2027853 0.0750662
vt 0.1099282 0.3964486
vt 0.1294282 0.3964486
vt 0.1294282 0.3964486
vt 0.2027853 0.3964486
vt 0.1294282 0.0750662
vt 0.1294282 0.4004633
vt 0.1294282 0.4004633
vt 0.1832853 0.0750662
vt 0.1832853 0.4004633
vt 0.1294282 0.0710515
vt 0.1294282 0.1052721
vt 0.2761425 0.0710515
vt 0.1832853 0.0710515
vt 0.1832853 0.1052721
vt 0.2761425 0.0710515
vt 0.1099282 0.0750662
vt 0.2761425 0.0750662
vt 0.2027853 0.0750662
vt 0.2761425 0.0750662
vt 0.1099282 0.3964486
vt 0.2761425 0.3964486
vt 0.2027853 0.3964486
vt 0.2761425 0.3964486
vt 0.1294282 0.1052721
vt 0.1294282 0.4004633
vt 0.2761425 0.4004633
vt 0.1832853 0.1052721
vt 0.1832853 0.4004633
vt 0.2761425 0.4004633
vt 0.1294282 0.0750662
vt 0.1832853 0.0750662
vt 0.1294282 0.3964486
vt 0.1832853 0.3964486
vt 0.1234089 0.1208874
vt 0.1772661 0.1208874
vt 0.1234089 0.4422698
vt 0.1772661 0.4422698
vt 0.1234089 0.1168727
vt 0.1234089 0.1208874
vt 0.1234089 0.1168727
vt 0.1772661 0.1168727
vt 0.1772661 0.1208874
vt 0.1039089 0.1208874
vt 0.1234089 0.1208874
vt 0.1234089 0.1208874
vt 0.1967661 0.1208874
vt 0.1039089 0.4422698
vt 0.1234089 0.4422698
vt 0.1234089 0.4422698
vt 0.1967661 0.4422698
vt 0.1234089 0.1208874
vt 0.1234089 0.4462845
vt 0.1234089 0.4462845
vt 0.1772661 0.1208874
vt 0.1772661 0.4462845
vt 0.1234089 0.1168727
vt 0.1234089 0.1510933
vt 0.2701232 0.1168727
vt 0.1772661 0.1168727
vt 0.1772661 0.1510933
vt 0.2701232 0.1168727
vt 0.1039089 0.1208874
vt 0.2701232 0.1208874
vt 0.1967661 0.1208874
vt 0.2701232 0.1208874
vt 0.1039089 0.4422698
vt 0.2701232 0.4422698
vt 0.1967661 0.4422698
vt 0.2701232 0.4422698
vt 0.1234089 0.1510933
vt 0.1234089 0.4462845
vt 0.2701232 0.4462845
vt 0.1772661 0.1510933
vt 0.1772661 0.4462845
vt 0.2701232 0.4462845
vt 0.1234089 0.1208874
vt 0.1772661 0.1208874
vt 0.1234089 0.4422698
vt 0.1772661 0.4422698
vt 0.0954846 0.0452621
vt 0.1493417 0.0452621
vt 0.0954846 0.3666445
vt 0.1493417 0.3666445
vt 0.0954846 0.0412474
vt 0.0954846 0.0452621
vt 0.0954846 0.0412474
vt 0.1493417 0.0412474
vt 0.1493417 0.0452621
vt 0.0759846 0.0452621
vt 0.0954846 0.0452621
vt 0.0954846 0.0452621
vt 0.1688417 0.0452621
vt 0.0759846 0.3666445
vt 0.0954846 0.3666445
vt 0.0954846 0.3666445
vt 0.1688417 0.3666445
vt 0.0954846 0.0452621
vt 0.0954846 0.3706592
vt 0.0954846 0.3706592
vt 0.1493417 0.0452621
vt 0.1493417 0.3706592
vt 0.0954846 0.0412474
vt 0.0954846 0.0754680
vt 0.2421989 0.0412474
vt 0.1493417 0.0412474
vt 0.1493417 0.0754680
vt 0.2421989 0.0412474
vt 0.0759846 0.0452621
vt 0.2421989 0.0452621
vt 0.1688417 0.0452621
vt 0.2421989 0.0452621
vt 0.0759846 0.3666445
vt 0.2421989 0.3666445
vt 0.1688417 0.3666445
vt 0.2421989 0.3666445
vt 0.0954846 0.0754680
vt 0.0954846 0.3706592
vt 0.2421989 0.3706592
vt 0.1493417 0.0754680
vt 0.1493417 0.3706592
vt 0.2421989 0.3706592
vt 0.0954846 0.0452621
vt 0.1493417 0.0452621
vt 0.0954846 0.3666445
vt 0.1493417 0.3666445
vt 0.0581722 0.1002848
vt 0.1120294 0.1002848
vt 0.0581722 0.4216672
vt 0.1120294 0.4216672
vt 0.0581722 0.0962701
vt 0.0581722 0.1002848
vt 0.0581722 0.0962701
vt 0.1120294 0.0962701
vt 0.1120294 0.1002848
vt 0.0386722 0.1002848
vt 0.0581722 0.1002848
vt 0.0581722 0.1002848
vt 0.1315294 0.1002848
vt 0.0386722 0.4216672
vt 0.0581722 0.4216672
vt 0.0581722 0.4216672
vt 0.1315294 0.4216672
vt 0.0581722 0.1002848
vt 0.0581722 0.4256819
vt 0.0581722 0.4256819
vt 0.1120294 0.1002848
vt 0.1120294 0.4256819
vt 0.0581722 0.0962701
vt 0.0581722 0.1304907
vt 0.2048865 0.0962701
vt 0.1120294 0.0962701
vt 0.1120294 0.1304907
vt 0.2048865 0.0962701
vt 0.0386722 0.1002848
vt 0.2048865 0.1002848
vt 0.1315294 0.1002848
vt 0.2048865 0.1002848
vt 0.0386722 0.4216672
vt 0.2048865 0.4216672
vt 0.1315294 0.4216672
vt 0.2048865 0.4216672
vt 0.0581722 0.1304907
vt 0.0581722 0.4256819
vt 0.2048865 0.4256819
vt 0.1120294 0.1304907
vt 0.1120294 0.4256819
vt 0.2048865 0.4256819
vt 0.0581722 0.1002848
vt 0.1120294 0.1002848
vt 0.0581722 0.4216672
vt 0.1120294 0.4216672
vt 0.0964415 0.1203858
vt 0.1502987 0.1203858
vt 0.0964415 0.4417681
vt 0.1502987 0.4417681
vt 0.0964415 0.1163711
vt 0.0964415 0.1203858
vt 0.0964415 0.1163711
vt 0.1502987 0.1163711
vt 0.1502987 0.1203858
vt 0.0769415 0.1203858
vt 0.0964415 0.1203858
vt 0.0964415 0.1203858
vt 0.1697987 0.1203858
vt 0.0769415 0.4417681
vt 0.0964415 0.4417681
vt 0.0964415 0.4417681
vt 0.1697987 0.4417681
vt 0.0964415 0.1203858
vt 0.0964415 0.4457828
vt 0.0964415 0.4457828
vt 0.1502987 0.1203858
vt 0.1502987 0.4457828
vt 0.0964415 0.1163711
vt 0.0964415 0.1505917
vt 0.2431558 0.1163711
vt 0.1502987 0.1163711
vt 0.1502987 0.1505917
vt 0.2431558 0.1163711
vt 0.0769415 0.1203858
vt 0.2431558 0.1203858
vt 0.1697987 0.1203858
vt 0.2431558 0.1203858
vt 0.0769415 0.4417681
vt 0.2431558 0.4417681
vt 0.1697987 0.4417681
vt 0.2431558 0.4417681
vt 0.0964415 0.1505917
vt 0.0964415 0.4457828
vt 0.2431558 0.4457828
vt 0.1502987 0.1505917
vt 0.1502987 0.4457828
vt 0.2431558 0.4457828
vt 0.0964415 0.1203858
vt 0.1502987 0.1203858
vt 0.0964415 0.4417681
vt 0.1502987 0.4417681
vt 0.1024023 0.0602306
vt 0.1562595 0.0602306
vt 0.1024023 0.3816129
vt 0.1562595 0.3816129
vt 0.1024023 0.0562159
vt 0.1024023 0.0602306
vt 0.1024023 0.0562159
vt 0.1562595 0.0562159
vt 0.1562595 0.0602306
vt 0.0829023 0.0602306
vt 0.1024023 0.0602306
vt 0.1024023 0.0602306
vt 0.1757595 0.0602306
vt 0.0829023 0.3816129
vt 0.1024023 0.3816129
vt 0.1024023 0.3816129
vt 0.1757595 0.3816129
vt 0.1024023 0.0602306
vt 0.1024023 0.3856276
vt 0.1024023 0.3856276
vt 0.1562595 0.0602306
vt 0.1562595 0.3856276
vt 0.1024023 0.0562159
vt 0.1024023 0.0904364
vt 0.2491166 0.0562159
vt 0.1562595 0.0562159
vt 0.1562595 0.0904364
vt 0.2491166 0.0562159
vt 0.0829023 0.0602306
vt 0.2491166 0.0602306
vt 0.1757595 0.0602306
vt 0.2491166 0.0602306
vt 0.0829023 0.3816129
vt 0.2491166 0.3816129
vt 0.1757595 0.3816129
vt 0.2491166 0.3816129
vt 0.1024023 0.0904364
vt 0.1024023 0.3856276
vt 0.2491166 0.3856276
vt 0.1562595 0.0904364
vt 0.1562595 0.3856276
vt 0.2491166 0.3856276
vt 0.1024023 0.0602306
vt 0.1562595 0.0602306
vt 0.1024023 0.3816129
vt 0.1562595 0.3816129
vt 0.1281654 0.0720466
vt 0.1281654 0.1168113
vt 0.2027368 0.0720466
vt 0.2027368 0.1168113
vt 0.1011654 0.0720466
vt 0.1281654 0.0720466
vt 0.1011654 0.1168113
vt 0.3455940 0.0720466
vt 0.1011654 0.0720466
vt 0.1281654 0.0664878
vt 0.1281654 0.0720466
vt 0.1281654 0.0720466
vt 0.1281654 0.1223701
vt 0.3725940 0.0720466
vt 0.1011654 0.0720466
vt 0.2027368 0.0664878
vt 0.2027368 0.0720466
vt 0.2027368 0.0720466
vt 0.2027368 0.1223701
vt 0.3725940 0.0720466
vt 0.1281654 0.0720466
vt 0.2297368 0.0720466
vt 0.2297368 0.1168113
vt 0.3455940 0.0720466
vt 0.0712057 0.0759249
vt 0.1854915 0.0759249
vt 0.0712057 0.4318073
vt 0.1854915 0.4318073
vt 0.0712057 0.0685720
vt 0.0712057 0.0759249
vt 0.0712057 0.0685720
vt 0.1854915 0.0685720
vt 0.1854915 0.0759249
vt 0.0354915 0.0759249
vt 0.0712057 0.0759249
vt 0.0712057 0.0759249
vt 0.2212057 0.0759249
vt 0.0354915 0.4318073
vt 0.0712057 0.4318073
vt 0.0712057 0.4318073
vt 0.2212057 0.4318073
vt 0.0712057 0.0759249
vt 0.0712057 0.4391602
vt 0.0712057 0.4391602
vt 0.1854915 0.0759249
vt 0.1854915 0.4391602
vt 0.0936733 0.6999246
vt 0.1682448 0.6999246
vt 0.0666733 0.6999246
vt 0.0936733 0.6999246
vt 0.0936733 0.6999246
vt 0.1952448 0.6999246
vt 0.0666733 0.6999246
vt 0.1968162 0.6999246
vt 0.1952448 0.6999246
vt 0.1968162 0.6999246
vt 0.0936733 0.6999246
vt 0.1682448 0.6999246
vt 0.1544188 0.7075332
vt 0.2289902 0.7075332
vt 0.1274188 0.7075332
vt 0.1544188 0.7075332
vt 0.1544188 0.7075332
vt 0.2559902 0.7075332
vt 0.1274188 0.7075332
vt 0.2575617 0.7075332
vt 0.2559902 0.7075332
vt 0.2575617 0.7075332
vt 0.1544188 0.7075332
vt 0.2289902 0.7075332
vt 0.0936733 0.1228069
vt 0.0936733 0.7054834
vt 0.0936733 0.7054834
vt 0.1682448 0.1228069
vt 0.1682448 0.7054834
vt 0.0936733 0.1440422
vt 0.0936733 0.7054834
vt 0.1968162 0.7054834
vt 0.1682448 0.1440422
vt 0.1682448 0.7054834
vt 0.1968162 0.7054834
vt 0.1544188 0.1304155
vt 0.1544188 0.7130920
vt 0.1544188 0.7130920
vt 0.2289902 0.1304155
vt 0.2289902 0.7130920
vt 0.1544188 0.1516508
vt 0.1544188 0.7130920
vt 0.2575617 0.7130920
vt 0.2289902 0.1516508
vt 0.2289902 0.7130920
vt 0.2575617 0.7130920
vt 0.0712057 0.0685720
vt 0.0712057 0.0994543
vt 0.1854915 0.0685720
vt 0.1854915 0.0685720
vt 0.1854915 0.0994543
vt 0.0354915 0.0759249
vt 0.1854915 0.0759249
vt 0.1854915 0.0759249
vt 0.2212057 0.0759249
vt 0.0354915 0.4318073
vt 0.1854915 0.4318073
vt 0.1854915 0.4318073
vt 0.2212057 0.4318073
vt 0.0712057 0.0994543
vt 0.0712057 0.4391602
vt 0.1854915 0.4391602
vt 0.1854915 0.0994543
vt 0.1854915 0.4391602
vt 0.0712057 0.0759249
vt 0.1854915 0.0759249
vt 0.0712057 0.4318073
vt 0.1854915 0.4318073
vt 0.1011654 0.0720466
vt 0.1281654 0.1168113
vt 0.1011654 0.1168113
vt 0.3455940 0.1168113
vt 0.1011654 0.1168113
vt 0.1281654 0.0664878
vt 0.1281654 0.1168113
vt 0.1281654 0.1168113
vt 0.1281654 0.1223701
vt 0.3725940 0.1168113
vt 0.1011654 0.1168113
vt 0.2027368 0.0664878
vt 0.2027368 0.1168113
vt 0.2027368 0.1168113
vt 0.2027368 0.1223701
vt 0.3725940 0.1168113
vt 0.1281654 0.1168113
vt 0.2297368 0.0720466
vt 0.2297368 0.1168113
vt 0.3455940 0.1168113
vt 0.1281654 0.0720466
vt 0.1281654 0.1168113
vt 0.2027368 0.0720466
vt 0.2027368 0.1168113
vn -0.9258987 -0.3529731 -0.1346167
vn -0.9826151 -0.1506198 0.1085414
vn -0.9648989 0.2564921 -0.0564076
vn -0.9609773 0.2554497 0.1061512
vn -0.0614332 -0.9962188 -0.0614332
vn -0.0614332 -0.9962188 -0.0614332
vn -0.1858009 -0.9776548 0.0983314
vn -0.1858009 -0.9776548 0.0983314
vn -0.0824865 -0.3750756 -0.9233170
vn -0.0824865 -0.3750756 -0.9233170
vn -0.0824865 -0.3750756 -0.9233170
vn -0.0824865 -0.3750756 0.9233170
vn -0.0824865 -0.3750756 0.9233170
vn -0.0824865 -0.3750756 0.9233170
vn -0.0937805 0.2458982 -0.9647483
vn -0.0937805 0.2458982 -0.9647483
vn -0.0937805 0.2458982 -0.9647483
vn -0.0937805 0.2458982 0.9647483
vn -0.0937805 0.2458982 0.9647483
vn -0.0937805 0.2458982 0.9647483
vn -0.1091381 0.9880171 -0.1091381
vn -0.1091381 0.9880171 -0.1091381
vn -0.1096090 0.9922807 0.0580084
vn -0.1096090 0.9922807 0.0580084
vn -0.9352274 -0.0267125 -0.3530386
vn -0.9727581 -0.0099464 0.2316091
vn -0.9907931 0.0200565 -0.1338910
vn -0.9726176 0.0196886 0.2315756
vn -0.1473390 -0.9780503 -0.1473390
vn -0.1473390 -0.9780503 -0.1473390
vn -0.3287410 -0.9258057 0.1865827
vn -0.3287410 -0.9258057 0.1865827
vn -0.3287410 -0.9258057 0.1865827
vn -0.2281538 -0.0341769 -0.9730251
vn -0.2281538 -0.0341769 -0.9730251
vn -0.1338910 -0.0200565 0.9907931
vn -0.1338910 -0.0200565 0.9907931
vn -0.2298903 0.0173946 -0.9730611
vn -0.2298903 0.0173946 -0.9730611
vn -0.3569794 0.0153304 0.9339865
vn -0.3569794 0.0153304 0.9339865
vn -0.1473390 0.9780503 -0.1473390
vn -0.1473390 0.9780503 -0.1473390
vn -0.2822369 0.9168886 0.2822369
vn -0.2822369 0.9168886 0.2822369
vn -0.2822369 0.9168886 0.2822369
vn -0.9159695 -0.2417828 -0.3202200
vn -0.9159695 -0.2417828 -0.3202200
vn -0.9604482 -0.1111603 0.2553090
vn -0.9604482 -0.1111603 0.2553090
vn -0.9604482 -0.1111603 0.2553090
vn -0.9683044 0.2008886 -0.1484262
vn -0.9683044 0.2008886 -0.1484262
vn -0.9683044 0.2008886 -0.1484262
vn -0.9475786 0.1965888 0.2518880
vn -0.9475786 0.1965888 0.2518880
vn -0.9475786 0.1965888 0.2518880
vn -0.9159695 -0.2417828 -0.3202200
vn -0.9159695 -0.2417828 -0.3202200
vn -0.9604482 -0.1111603 0.2553090
vn -0.9604482 -0.1111603 0.2553090
vn -0.9604482 -0.1111603 0.2553090
vn -0.9683044 0.2008886 -0.1484262
vn -0.9683044 0.2008886 -0.1484262
vn -0.9683044 0.2008886 -0.1484262
vn -0.9475786 0.1965888 0.2518880
vn -0.9475786 0.1965888 0.2518880
vn -0.9475786 0.1965888 0.2518880
vn -0.0054592 -0.9883480 -0.1521130
vn -0.0158831 -0.9667581 0.2551989
vn -0.0074866 -0.3240626 -0.9460060
vn -0.0074866 -0.3240626 -0.9460060
vn -0.0074866 -0.3240626 0.9460060
vn -0.0074866 -0.3240626 0.9460060
vn -0.0083816 0.2023944 -0.9792682
vn -0.0083816 0.2023944 -0.9792682
vn -0.0083816 0.2023944 0.9792682
vn -0.0083816 0.2023944 0.9792682
vn -0.0054592 0.9883480 -0.1521130
vn -0.0158831 0.9667581 0.2551989
vn -0.0054592 -0.9883480 -0.1521130
vn -0.0158831 -0.9667581 0.2551989
vn -0.0074866 -0.3240626 -0.9460060
vn -0.0074866 -0.3240626 -0.9460060
vn -0.0074866 -0.3240626 0.9460060
vn -0.0074866 -0.3240626 0.9460060
vn -0.0083816 0.2023944 -0.9792682
vn -0.0083816 0.2023944 -0.9792682
vn -0.0083816 0.2023944 0.9792682
vn -0.0083816 0.2023944 0.9792682
vn -0.0054592 0.9883480 -0.1521130
vn -0.0158831 0.9667581 0.2551989
vn 0.1865827 -0.9258057 -0.3287410
vn 0.1865827 -0.9258057 -0.3287410
vn 0.1865827 -0.9258057 -0.3287410
vn 0.2064625 -0.9564238 0.2064625
vn 0.2064625 -0.9564238 0.2064625
vn 0.1350701 -0.0114837 -0.9907695
vn 0.1350701 -0.0114837 -0.9907695
vn 0.2315756 -0.0196886 0.9726176
vn 0.2315756 -0.0196886 0.9726176
vn 0.3569794 0.0153304 -0.9339865
vn 0.3569794 0.0153304 -0.9339865
vn 0.2298903 0.0173946 0.9730611
vn 0.2298903 0.0173946 0.9730611
vn 0.1865827 0.9258057 -0.3287410
vn 0.1865827 0.9258057 -0.3287410
vn 0.1865827 0.9258057 -0.3287410
vn 0.2296447 0.9645077 0.1303389
vn 0.2296447 0.9645077 0.1303389
vn 0.9352274 -0.0267125 -0.3530386
vn 0.9727581 -0.0099464 0.2316091
vn 0.9907931 0.0200565 -0.1338910
vn 0.9726176 0.0196886 0.2315756
vn 0.0983314 -0.9776548 -0.1858009
vn 0.0983314 -0.9776548 -0.1858009
vn 0.1038626 -0.9891537 0.1038626
vn 0.1038626 -0.9891537 0.1038626
vn 0.1085414 -0.1506198 -0.9826151
vn 0.1085414 -0.1506198 -0.9826151
vn 0.1085414 -0.1506198 -0.9826151
vn 0.1085414 -0.1506198 0.9826151
vn 0.1085414 -0.1506198 0.9826151
vn 0.1085414 -0.1506198 0.9826151
vn 0.1061512 0.2554497 -0.9609773
vn 0.1061512 0.2554497 -0.9609773
vn 0.1061512 0.2554497 -0.9609773
vn 0.1061512 0.2554497 0.9609773
vn 0.1061512 0.2554497 0.9609773
vn 0.1061512 0.2554497 0.9609773
vn 0.0580084 0.9922807 -0.1096090
vn 0.0580084 0.9922807 -0.1096090
vn 0.1693631 0.9708925 0.1693631
vn 0.1693631 0.9708925 0.1693631
vn -0.9233435 -0.0155362 -0.3836605
vn -0.9664203 -0.0059988 0.2568965
vn -0.9883815 0.0121945 -0.1515037
vn -0.9663690 0.0119229 0.2568829
vn 0.9233170 -0.3750756 -0.0824865
vn 0.9851747 -0.1584207 0.0658312
vn 0.9647483 0.2458982 -0.0937805
vn 0.9570125 0.2353123 0.1695734
vn -0.0701052 -0.9848113 -0.1588460
vn -0.0701052 -0.9848113 -0.1588460
vn -0.1790080 -0.9556429 0.2338864
vn -0.1790080 -0.9556429 0.2338864
vn -0.1790080 -0.9556429 0.2338864
vn -0.1152508 -0.0228189 -0.9930743
vn -0.1152508 -0.0228189 -0.9930743
vn -0.1152508 -0.0228189 0.9930743
vn -0.1152508 -0.0228189 0.9930743
vn -0.1158852 0.0115435 -0.9931955
vn -0.1158852 0.0115435 -0.9931955
vn -0.1158852 0.0115435 0.9931955
vn -0.1158852 0.0115435 0.9931955
vn -0.1126591 0.9602850 -0.2552656
vn -0.1126591 0.9602850 -0.2552656
vn -0.1151920 0.9818751 0.1505064
vn -0.1151920 0.9818751 0.1505064
vn -0.1151920 0.9818751 0.1505064
vn 0.0877234 -0.9231845 -0.3742125
vn 0.0877234 -0.9231845 -0.3742125
vn 0.0877234 -0.9231845 -0.3742125
vn 0.0996533 -0.9643543 0.2451326
vn 0.0996533 -0.9643543 0.2451326
vn 0.0996533 -0.9643543 0.2451326
vn 0.0625530 -0.0065784 -0.9980200
vn 0.0625530 -0.0065784 -0.9980200
vn 0.1165171 -0.0061648 0.9931696
vn 0.1165171 -0.0061648 0.9931696
vn 0.2045444 0.0108223 -0.9787975
vn 0.2045444 0.0108223 -0.9787975
vn 0.1165106 0.0122529 0.9931139
vn 0.1165106 0.0122529 0.9931139
vn 0.0996533 0.9643543 -0.2451326
vn 0.0996533 0.9643543 -0.2451326
vn 0.0996533 0.9643543 -0.2451326
vn 0.0877234 0.9231845 0.3742125
vn 0.0877234 0.9231845 0.3742125
vn 0.0877234 0.9231845 0.3742125
vn 0.9666746 -0.0103585 -0.2557984
vn 0.9663690 -0.0119229 0.2568829
vn 0.9663690 0.0119229 -0.2568829
vn 0.9666746 0.0103585 0.2557984
vn -0.9233435 -0.0155362 -0.3836605
vn -0.9664203 -0.0059988 0.2568965
vn -0.9883815 0.0121945 -0.1515037
vn -0.9663690 0.0119229 0.2568829
vn -0.0701052 -0.9848113 -0.1588460
vn -0.0701052 -0.9848113 -0.1588460
vn -0.1790080 -0.9556429 0.2338864
vn -0.1790080 -0.9556429 0.2338864
vn -0.1790080 -0.9556429 0.2338864
vn -0.1152508 -0.0228189 -0.9930743
vn -0.1152508 -0.0228189 -0.9930743
vn -0.1152508 -0.0228189 0.9930743
vn -0.1152508 -0.0228189 0.9930743
vn -0.1158852 0.0115435 -0.9931955
vn -0.1158852 0.0115435 -0.9931955
vn -0.1158852 0.0115435 0.9931955
vn -0.1158852 0.0115435 0.9931955
vn -0.1126591 0.9602850 -0.2552656
vn -0.1126591 0.9602850 -0.2552656
vn -0.1151920 0.9818751 0.1505064
vn -0.1151920 0.9818751 0.1505064
vn -0.1151920 0.9818751 0.1505064
vn 0.0877234 -0.9231845 -0.3742125
vn 0.0877234 -0.9231845 -0.3742125
vn 0.0877234 -0.9231845 -0.3742125
vn 0.0996533 -0.9643543 0.2451326
vn 0.0996533 -0.9643543 0.2451326
vn 0.0996533 -0.9643543 0.2451326
vn 0.0625530 -0.0065784 -0.9980200
vn 0.0625530 -0.0065784 -0.9980200
vn 0.1165171 -0.0061648 0.9931696
vn 0.1165171 -0.0061648 0.9931696
vn 0.2045444 0.0108223 -0.9787975
vn 0.2045444 0.0108223 -0.9787975
vn 0.1165106 0.0122529 0.9931139
vn 0.1165106 0.0122529 0.9931139
vn 0.0996533 0.9643543 -0.2451326
vn 0.0996533 0.9643543 -0.2451326
vn 0.0996533 0.9643543 -0.2451326
vn 0.0877234 0.9231845 0.3742125
vn 0.0877234 0.9231845 0.3742125
vn 0.0877234 0.9231845 0.3742125
vn 0.9666746 -0.0103585 -0.2557984
vn 0.9663690 -0.0119229 0.2568829
vn 0.9663690 0.0119229 -0.2568829
vn 0.9666746 0.0103585 0.2557984
vn -0.9233435 -0.0155362 -0.3836605
vn -0.9664203 -0.0059988 0.2568965
vn -0.9883815 0.0121945 -0.1515037
vn -0.9663690 0.0119229 0.2568829
vn -0.0701052 -0.9848113 -0.1588460
vn -0.0701052 -0.9848113 -0.1588460
vn -0.1790080 -0.9556429 0.2338864
vn -0.1790080 -0.9556429 0.2338864
vn -0.1790080 -0.9556429 0.2338864
vn -0.1152508 -0.0228189 -0.9930743
vn -0.1152508 -0.0228189 -0.9930743
vn -0.1152508 -0.0228189 0.9930743
vn -0.1152508 -0.0228189 0.9930743
vn -0.1158852 0.0115435 -0.9931955
vn -0.1158852 0.0115435 -0.9931955
vn -0.1158852 0.0115435 0.9931955
vn -0.1158852 0.0115435 0.9931955
vn -0.1126591 0.9602850 -0.2552656
vn -0.1126591 0.9602850 -0.2552656
vn -0.1151920 0.9818751 0.1505064
vn -0.1151920 0.9818751 0.1505064
vn -0.1151920 0.9818751 0.1505064
vn 0.0877234 -0.9231845 -0.3742125
vn 0.0877234 -0.9231845 -0.3742125
vn 0.0877234 -0.9231845 -0.3742125
vn 0.0996533 -0.9643543 0.2451326
vn 0.0996533 -0.9643543 0.2451326
vn 0.0996533 -0.9643543 0.2451326
vn 0.0625530 -0.0065784 -0.9980200
vn 0.0625530 -0.0065784 -0.9980200
vn 0.1165171 -0.0061648 0.9931696
vn 0.1165171 -0.0061648 0.9931696
vn 0.2045444 0.0108223 -0.9787975
vn 0.2045444 0.0108223 -0.9787975
vn 0.1165106 0.0122529 0.9931139
vn 0.1165106 0.0122529 0.9931139
vn 0.0996533 0.9643543 -0.2451326
vn 0.0996533 0.9643543 -0.2451326
vn 0.0996533 0.9643543 -0.2451326
vn 0.0877234 0.9231845 0.3742125
vn 0.0877234 0.9231845 0.3742125
vn 0.0877234 0.9231845 0.3742125
vn 0.9666746 -0.0103585 -0.2557984
vn 0.9663690 -0.0119229 0.2568829
vn 0.9663690 0.0119229 -0.2568829
vn 0.9666746 0.0103585 0.2557984
vn -0.9233435 -0.0155362 -0.3836605
vn -0.9664203 -0.0059988 0.2568965
vn -0.9883815 0.0121945 -0.1515037
vn -0.9663690 0.0119229 0.2568829
vn -0.0701052 -0.9848113 -0.1588460
vn -0.0701052 -0.9848113 -0.1588460
vn -0.1790080 -0.9556429 0.2338864
vn -0.1790080 -0.9556429 0.2338864
vn -0.1790080 -0.9556429 0.2338864
vn -0.1152508 -0.0228189 -0.9930743
vn -0.1152508 -0.0228189 -0.9930743
vn -0.1152508 -0.0228189 0.9930743
vn -0.1152508 -0.0228189 0.9930743
vn -0.1158852 0.0115435 -0.9931955
vn -0.1158852 0.0115435 -0.9931955
vn -0.1158852 0.0115435 0.9931955
vn -0.1158852 0.0115435 0.9931955
vn -0.1126591 0.9602850 -0.2552656
vn -0.1126591 0.9602850 -0.2552656
vn -0.1151920 0.9818751 0.1505064
vn -0.1151920 0.9818751 0.1505064
vn -0.1151920 0.9818751 0.1505064
vn 0.0877234 -0.9231845 -0.3742125
vn 0.0877234 -0.9231845 -0.3742125
vn 0.0877234 -0.9231845 -0.3742125
vn 0.0996533 -0.9643543 0.2451326
vn 0.0996533 -0.9643543 0.2451326
vn 0.0996533 -0.9643543 0.2451326
vn 0.0625530 -0.0065784 -0.9980200
vn 0.0625530 -0.0065784 -0.9980200
vn 0.1165171 -0.0061648 0.9931696
vn 0.1165171 -0.0061648 0.9931696
vn 0.2045444 0.0108223 -0.9787975
vn 0.2045444 0.0108223 -0.9787975
vn 0.1165106 0.0122529 0.9931139
vn 0.1165106 0.0122529 0.9931139
vn 0.0996533 0.9643543 -0.2451326
vn 0.0996533 0.9643543 -0.2451326
vn 0.0996533 0.9643543 -0.2451326
vn 0.0877234 0.9231845 0.3742125
vn 0.0877234 0.9231845 0.3742125
vn 0.0877234 0.9231845 0.3742125
vn 0.9666746 -0.0103585 -0.2557984
vn 0.9663690 -0.0119229 0.2568829
vn 0.9663690 0.0119229 -0.2568829
vn 0.9666746 0.0103585 0.2557984
vn -0.9233435 -0.0155362 -0.3836605
vn -0.9664203 -0.0059988 0.2568965
vn -0.9883815 0.0121945 -0.1515037
vn -0.9663690 0.0119229 0.2568829
vn -0.0701052 -0.9848113 -0.1588460
vn -0.0701052 -0.9848113 -0.1588460
vn -0.1790080 -0.9556429 0.2338864
vn -0.1790080 -0.9556429 0.2338864
vn -0.1790080 -0.9556429 0.2338864
vn -0.1152508 -0.0228189 -0.9930743
vn -0.1152508 -0.0228189 -0.9930743
vn -0.1152508 -0.0228189 0.9930743
vn -0.1152508 -0.0228189 0.9930743
vn -0.1158852 0.0115435 -0.9931955
vn -0.1158852 0.0115435 -0.9931955
vn -0.1158852 0.0115435 0.9931955
vn -0.1158852 0.0115435 0.9931955
vn -0.1126591 0.9602850 -0.2552656
vn -0.1126591 0.9602850 -0.2552656
vn -0.1151920 0.9818751 0.1505064
vn -0.1151920 0.9818751 0.1505064
vn -0.1151920 0.9818751 0.1505064
vn 0.0877234 -0.9231845 -0.3742125
vn 0.0877234 -0.9231845 -0.3742125
vn 0.0877234 -0.9231845 -0.3742125
vn 0.0996533 -0.9643543 0.2451326
vn 0.0996533 -0.9643543 0.2451326
vn 0.0996533 -0.9643543 0.2451326
vn 0.0625530 -0.0065784 -0.9980200
vn 0.0625530 -0.0065784 -0.9980200
vn 0.1165171 -0.0061648 0.9931696
vn 0.1165171 -0.0061648 0.9931696
vn 0.2045444 0.0108223 -0.9787975
vn 0.2045444 0.0108223 -0.9787975
vn 0.1165106 0.0122529 0.9931139
vn 0.1165106 0.0122529 0.9931139
vn 0.0996533 0.9643543 -0.2451326
vn 0.0996533 0.9643543 -0.2451326
vn 0.0996533 0.9643543 -0.2451326
vn 0.0877234 0.9231845 0.3742125
vn 0.0877234 0.9231845 0.3742125
vn 0.0877234 0.9231845 0.3742125
vn 0.9666746 -0.0103585 -0.2557984
vn 0.9663690 -0.0119229 0.2568829
vn 0.9663690 0.0119229 -0.2568829
vn 0.9666746 0.0103585 0.2557984
vn -0.9233435 -0.0155362 -0.3836605
vn -0.9664203 -0.0059988 0.2568965
vn -0.9883815 0.0121945 -0.1515037
vn -0.9663690 0.0119229 0.2568829
vn -0.0701052 -0.9848113 -0.1588460
vn -0.0701052 -0.9848113 -0.1588460
vn -0.1790080 -0.9556429 0.2338864
vn -0.1790080 -0.9556429 0.2338864
vn -0.1790080 -0.9556429 0.2338864
vn -0.1152508 -0.0228189 -0.9930743
vn -0.1152508 -0.0228189 -0.9930743
vn -0.1152508 -0.0228189 0.9930743
vn -0.1152508 -0.0228189 0.9930743
vn -0.1158852 0.0115435 -0.9931955
vn -0.1158852 0.0115435 -0.9931955
vn -0.1158852 0.0115435 0.9931955
vn -0.1158852 0.0115435 0.9931955
vn -0.1126591 0.9602850 -0.2552656
vn -0.1126591 0.9602850 -0.2552656
vn -0.1151920 0.9818751 0.1505064
vn -0.1151920 0.9818751 0.1505064
vn -0.1151920 0.9818751 0.1505064
vn 0.0877234 -0.9231845 -0.3742125
vn 0.0877234 -0.9231845 -0.3742125
vn 0.0877234 -0.9231845 -0.3742125
vn 0.0996533 -0.9643543 0.2451326
vn 0.0996533 -0.9643543 0.2451326
vn 0.0996533 -0.9643543 0.2451326
vn 0.0625530 -0.0065784 -0.9980200
vn 0.0625530 -0.0065784 -0.9980200
vn 0.1165171 -0.0061648 0.9931696
vn 0.1165171 -0.0061648 0.9931696
vn 0.2045444 0.0108223 -0.9787975
vn 0.2045444 0.0108223 -0.9787975
vn 0.1165106 0.0122529 0.9931139
vn 0.1165106 0.0122529 0.9931139
vn 0.0996533 0.9643543 -0.2451326
vn 0.0996533 0.9643543 -0.2451326
vn 0.0996533 0.9643543 -0.2451326
vn 0.0877234 0.9231845 0.3742125
vn 0.0877234 0.9231845 0.3742125
vn 0.0877234 0.9231845 0.3742125
vn 0.9666746 -0.0103585 -0.2557984
vn 0.9663690 -0.0119229 0.2568829
vn 0.9663690 0.0119229 -0.2568829
vn 0.9666746 0.0103585 0.2557984
vn -0.9233435 -0.0155362 -0.3836605
vn -0.9664203 -0.0059988 0.2568965
vn -0.9883815 0.0121945 -0.1515037
vn -0.9663690 0.0119229 0.2568829
vn -0.0701052 -0.9848113 -0.1588460
vn -0.0701052 -0.9848113 -0.1588460
vn -0.1790080 -0.9556429 0.2338864
vn -0.1790080 -0.9556429 0.2338864
vn -0.1790080 -0.9556429 0.2338864
vn -0.1152508 -0.0228189 -0.9930743
vn -0.1152508 -0.0228189 -0.9930743
vn -0.1152508 -0.0228189 0.9930743
vn -0.1152508 -0.0228189 0.9930743
vn -0.1158852 0.0115435 -0.9931955
vn -0.1158852 0.0115435 -0.9931955
vn -0.1158852 0.0115435 0.9931955
vn -0.1158852 0.0115435 0.9931955
vn -0.1126591 0.9602850 -0.2552656
vn -0.1126591 0.9602850 -0.2552656
vn -0.1151920 0.9818751 0.1505064
vn -0.1151920 0.9818751 0.1505064
vn -0.1151920 0.9818751 0.1505064
vn 0.0877234 -0.9231845 -0.3742125
vn 0.0877234 -0.9231845 -0.3742125
vn 0.0877234 -0.9231845 -0.3742125
vn 0.0996533 -0.9643543 0.2451326
vn 0.0996533 -0.9643543 0.2451326
vn 0.0996533 -0.9643543 0.2451326
vn 0.0625530 -0.0065784 -0.9980200
vn 0.0625530 -0.0065784 -0.9980200
vn 0.1165171 -0.0061648 0.9931696
vn 0.1165171 -0.0061648 0.9931696
vn 0.2045444 0.0108223 -0.9787975
vn 0.2045444 0.0108223 -0.9787975
vn 0.1165106 0.0122529 0.9931139
vn 0.1165106 0.0122529 0.9931139
vn 0.0996533 0.9643543 -0.2451326
vn 0.0996533 0.9643543 -0.2451326
vn 0.0996533 0.9643543 -0.2451326
vn 0.0877234 0.9231845 0.3742125
vn 0.0877234 0.9231845 0.3742125
vn 0.0877234 0.9231845 0.3742125
vn 0.9666746 -0.0103585 -0.2557984
vn 0.9663690 -0.0119229 0.2568829
vn 0.9663690 0.0119229 -0.2568829
vn 0.9666746 0.0103585 0.2557984
vn -0.9233435 -0.0155362 -0.3836605
vn -0.9664203 -0.0059988 0.2568965
vn -0.9883815 0.0121945 -0.1515037
vn -0.9663690 0.0119229 0.2568829
vn -0.0701052 -0.9848113 -0.1588460
vn -0.0701052 -0.9848113 -0.1588460
vn -0.1790080 -0.9556429 0.2338864
vn -0.1790080 -0.9556429 0.2338864
vn -0.1790080 -0.9556429 0.2338864
vn -0.1152508 -0.0228189 -0.9930743
vn -0.1152508 -0.0228189 -0.9930743
vn -0.1152508 -0.0228189 0.9930743
vn -0.1152508 -0.0228189 0.9930743
vn -0.1158852 0.0115435 -0.9931955
vn -0.1158852 0.0115435 -0.9931955
vn -0.1158852 0.0115435 0.9931955
vn -0.1158852 0.0115435 0.9931955
vn -0.1126591 0.9602850 -0.2552656
vn -0.1126591 0.9602850 -0.2552656
vn -0.1151920 0.9818751 0.1505064
vn -0.1151920 0.9818751 0.1505064
vn -0.1151920 0.9818751 0.1505064
vn 0.0877234 -0.9231845 -0.3742125
vn 0.0877234 -0.9231845 -0.3742125
vn 0.0877234 -0.9231845 -0.3742125
vn 0.0996533 -0.9643543 0.2451326
vn 0.0996533 -0.9643543 0.2451326
vn 0.0996533 -0.9643543 0.2451326
vn 0.0625530 -0.0065784 -0.9980200
vn 0.0625530 -0.0065784 -0.9980200
vn 0.1165171 -0.0061648 0.9931696
vn 0.1165171 -0.0061648 0.9931696
vn 0.2045444 0.0108223 -0.9787975
vn 0.2045444 0.0108223 -0.9787975
vn 0.1165106 0.0122529 0.9931139
vn 0.1165106 0.0122529 0.9931139
vn 0.0996533 0.9643543 -0.2451326
vn 0.0996533 0.9643543 -0.2451326
vn 0.0996533 0.9643543 -0.2451326
vn 0.0877234 0.9231845 0.3742125
vn 0.0877234 0.9231845 0.3742125
vn 0.0877234 0.9231845 0.3742125
vn 0.9666746 -0.0103585 -0.2557984
vn 0.9663690 -0.0119229 0.2568829
vn 0.9663690 0.0119229 -0.2568829
vn 0.9666746 0.0103585 0.2557984
vn -0.9233435 -0.0155362 -0.3836605
vn -0.9664203 -0.0059988 0.2568965
vn -0.9883815 0.0121945 -0.1515037
vn -0.9663690 0.0119229 0.2568829
vn -0.0701052 -0.9848113 -0.1588460
vn -0.0701052 -0.9848113 -0.1588460
vn -0.1790080 -0.9556429 0.2338864
vn -0.1790080 -0.9556429 0.2338864
vn -0.1790080 -0.9556429 0.2338864
vn -0.1152508 -0.0228189 -0.9930743
vn -0.1152508 -0.0228189 -0.9930743
vn -0.1152508 -0.0228189 0.9930743
vn -0.1152508 -0.0228189 0.9930743
vn -0.1158852 0.0115435 -0.9931955
vn -0.1158852 0.0115435 -0.9931955
vn -0.1158852 0.0115435 0.9931955
vn -0.1158852 0.0115435 0.9931955
vn -0.1126591 0.9602850 -0.2552656
vn -0.1126591 0.9602850 -0.2552656
vn -0.1151920 0.9818751 0.1505064
vn -0.1151920 0.9818751 0.1505064
vn -0.1151920 0.9818751 0.1505064
vn 0.0877234 -0.9231845 -0.3742125
vn 0.0877234 -0.9231845 -0.3742125
vn 0.0877234 -0.9231845 -0.3742125
vn 0.0996533 -0.9643543 0.2451326
vn 0.0996533 -0.9643543 0.2451326
vn 0.0996533 -0.9643543 0.2451326
vn 0.0625530 -0.0065784 -0.9980200
vn 0.0625530 -0.0065784 -0.9980200
vn 0.1165171 -0.0061648 0.9931696
vn 0.1165171 -0.0061648 0.9931696
vn 0.2045444 0.0108223 -0.9787975
vn 0.2045444 0.0108223 -0.9787975
vn 0.1165106 0.0122529 0.9931139
vn 0.1165106 0.0122529 0.9931139
vn 0.0996533 0.9643543 -0.2451326
vn 0.0996533 0.9643543 -0.2451326
vn 0.0996533 0.9643543 -0.2451326
vn 0.0877234 0.9231845 0.3742125
vn 0.0877234 0.9231845 0.3742125
vn 0.0877234 0.9231845 0.3742125
vn 0.9666746 -0.0103585 -0.2557984
vn 0.9663690 -0.0119229 0.2568829
vn 0.9663690 0.0119229 -0.2568829
vn 0.9666746 0.0103585 0.2557984
vn -0.9258987 -0.3529731 -0.1346167
vn -0.9826151 -0.1506198 0.1085414
vn -0.9648989 0.2564921 -0.0564076
vn -0.9609773 0.2554497 0.1061512
vn -0.0614332 -0.9962188 -0.0614332
vn -0.0614332 -0.9962188 -0.0614332
vn -0.1858009 -0.9776548 0.0983314
vn -0.1858009 -0.9776548 0.0983314
vn -0.0824865 -0.3750756 -0.9233170
vn -0.0824865 -0.3750756 -0.9233170
vn -0.0824865 -0.3750756 -0.9233170
vn -0.0824865 -0.3750756 0.9233170
vn -0.0824865 -0.3750756 0.9233170
vn -0.0824865 -0.3750756 0.9233170
vn -0.0937805 0.2458982 -0.9647483
vn -0.0937805 0.2458982 -0.9647483
vn -0.0937805 0.2458982 -0.9647483
vn -0.0937805 0.2458982 0.9647483
vn -0.0937805 0.2458982 0.9647483
vn -0.0937805 0.2458982 0.9647483
vn -0.1091381 0.9880171 -0.1091381
vn -0.1091381 0.9880171 -0.1091381
vn -0.1096090 0.9922807 0.0580084
vn -0.1096090 0.9922807 0.0580084
vn -0.9352274 -0.0267125 -0.3530386
vn -0.9727581 -0.0099464 0.2316091
vn -0.9907931 0.0200565 -0.1338910
vn -0.9726176 0.0196886 0.2315756
vn -0.1473390 -0.9780503 -0.1473390
vn -0.1473390 -0.9780503 -0.1473390
vn -0.3287410 -0.9258057 0.1865827
vn -0.3287410 -0.9258057 0.1865827
vn -0.3287410 -0.9258057 0.1865827
vn -0.2281538 -0.0341769 -0.9730251
vn -0.2281538 -0.0341769 -0.9730251
vn -0.1338910 -0.0200565 0.9907931
vn -0.1338910 -0.0200565 0.9907931
vn -0.2298903 0.0173946 -0.9730611
vn -0.2298903 0.0173946 -0.9730611
vn -0.3569794 0.0153304 0.9339865
vn -0.3569794 0.0153304 0.9339865
vn -0.1473390 0.9780503 -0.1473390
vn -0.1473390 0.9780503 -0.1473390
vn -0.2822369 0.9168886 0.2822369
vn -0.2822369 0.9168886 0.2822369
vn -0.2822369 0.9168886 0.2822369
vn 0.0069654 -0.9223427 -0.3863100
vn 0.0080063 -0.9666300 0.2560513
vn 0.0094765 -0.1149653 -0.9933243
vn 0.0094765 -0.1149653 -0.9933243
vn 0.0053089 -0.1154493 0.9932992
vn 0.0053089 -0.1154493 0.9932992
vn 0.0093408 0.2031298 -0.9791073
vn 0.0093408 0.2031298 -0.9791073
vn 0.0166217 0.2016487 0.9793169
vn 0.0166217 0.2016487 0.9793169
vn 0.0069654 0.9223427 -0.3863100
vn 0.0080063 0.9666300 0.2560513
vn 0.0069654 -0.9223427 -0.3863100
vn 0.0080063 -0.9666300 0.2560513
vn 0.0094765 -0.1149653 -0.9933243
vn 0.0094765 -0.1149653 -0.9933243
vn 0.0053089 -0.1154493 0.9932992
vn 0.0053089 -0.1154493 0.9932992
vn 0.0093408 0.2031298 -0.9791073
vn 0.0093408 0.2031298 -0.9791073
vn 0.0166217 0.2016487 0.9793169
vn 0.0166217 0.2016487 0.9793169
vn 0.0069654 0.9223427 -0.3863100
vn 0.0080063 0.9666300 0.2560513
vn 0.9322214 -0.2910613 -0.2150502
vn 0.9322214 -0.2910613 -0.2150502
vn 0.9604482 -0.1111603 0.2553090
vn 0.9604482 -0.1111603 0.2553090
vn 0.9604482 -0.1111603 0.2553090
vn 0.9559650 0.1768449 -0.2342155
vn 0.9559650 0.1768449 -0.2342155
vn 0.9559650 0.1768449 -0.2342155
vn 0.9475786 0.1965888 0.2518880
vn 0.9475786 0.1965888 0.2518880
vn 0.9475786 0.1965888 0.2518880
vn 0.9322214 -0.2910613 -0.2150502
vn 0.9322214 -0.2910613 -0.2150502
vn 0.9604482 -0.1111603 0.2553090
vn 0.9604482 -0.1111603 0.2553090
vn 0.9604482 -0.1111603 0.2553090
vn 0.9559650 0.1768449 -0.2342155
vn 0.9559650 0.1768449 -0.2342155
vn 0.9559650 0.1768449 -0.2342155
vn 0.9475786 0.1965888 0.2518880
vn 0.9475786 0.1965888 0.2518880
vn 0.9475786 0.1965888 0.2518880
vn 0.1865827 -0.9258057 -0.3287410
vn 0.1865827 -0.9258057 -0.3287410
vn 0.1865827 -0.9258057 -0.3287410
vn 0.2064625 -0.9564238 0.2064625
vn 0.2064625 -0.9564238 0.2064625
vn 0.1350701 -0.0114837 -0.9907695
vn 0.1350701 -0.0114837 -0.9907695
vn 0.2315756 -0.0196886 0.9726176
vn 0.2315756 -0.0196886 0.9726176
vn 0.3569794 0.0153304 -0.9339865
vn 0.3569794 0.0153304 -0.9339865
vn 0.2298903 0.0173946 0.9730611
vn 0.2298903 0.0173946 0.9730611
vn 0.1865827 0.9258057 -0.3287410
vn 0.1865827 0.9258057 -0.3287410
vn 0.1865827 0.9258057 -0.3287410
vn 0.2296447 0.9645077 0.1303389
vn 0.2296447 0.9645077 0.1303389
vn 0.9352274 -0.0267125 -0.3530386
vn 0.9727581 -0.0099464 0.2316091
vn 0.9907931 0.0200565 -0.1338910
vn 0.9726176 0.0196886 0.2315756
vn 0.0983314 -0.9776548 -0.1858009
vn 0.0983314 -0.9776548 -0.1858009
vn 0.1038626 -0.9891537 0.1038626
vn 0.1038626 -0.9891537 0.1038626
vn 0.1085414 -0.1506198 -0.9826151
vn 0.1085414 -0.1506198 -0.9826151
vn 0.1085414 -0.1506198 -0.9826151
vn 0.1085414 -0.1506198 0.9826151
vn 0.1085414 -0.1506198 0.9826151
vn 0.1085414 -0.1506198 0.9826151
vn 0.1061512 0.2554497 -0.9609773
vn 0.1061512 0.2554497 -0.9609773
vn 0.1061512 0.2554497 -0.9609773
vn 0.1061512 0.2554497 0.9609773
vn 0.1061512 0.2554497 0.9609773
vn 0.1061512 0.2554497 0.9609773
vn 0.0580084 0.9922807 -0.1096090
vn 0.0580084 0.9922807 -0.1096090
vn 0.1693631 0.9708925 0.1693631
vn 0.1693631 0.9708925 0.1693631
vn 0.9233170 -0.3750756 -0.0824865
vn 0.9851747 -0.1584207 0.0658312
vn 0.9647483 0.2458982 -0.0937805
vn 0.9570125 0.2353123 0.1695734
o 09_Valla_Tablillas_Wood
usemtl Wood
s 1
f 41/41/41 46/46/46 28/28/28
f 29/29/29 25/25/25 34/34/34
f 102/102/102 107/107/107 113/113/113
f 93/93/93 98/98/98 111/111/111
f 105/105/105 114/114/114 110/110/110
f 38/38/38 27/27/27 43/43/43
f 32/32/32 37/37/37 26/26/26
f 96/96/96 112/112/112 101/101/101
f 112/112/112 111/111/111 113/113/113
f 112/112/112 113/113/113 114/114/114
f 27/27/27 25/25/25 26/26/26
f 27/27/27 26/26/26 28/28/28
f 46/46/46 27/27/27 28/28/28
f 46/46/46 43/43/43 27/27/27
f 41/41/41 26/26/26 37/37/37
f 41/41/41 28/28/28 26/26/26
f 110/110/110 114/114/114 113/113/113
f 110/110/110 113/113/113 107/107/107
f 109/109/109 42/42/42 45/45/45
f 109/109/109 106/106/106 42/42/42
f 102/102/102 113/113/113 111/111/111
f 102/102/102 111/111/111 98/98/98
f 95/95/95 35/35/35 99/99/99
f 95/95/95 29/29/29 35/35/35
f 104/104/104 110/110/110 44/44/44
f 104/104/104 44/44/44 40/40/40
f 105/105/105 112/112/112 114/114/114
f 105/105/105 101/101/101 112/112/112
f 104/104/104 40/40/40 36/36/36
f 104/104/104 36/36/36 100/100/100
f 39/39/39 43/43/43 108/108/108
f 39/39/39 108/108/108 103/103/103
f 38/38/38 25/25/25 27/27/27
f 38/38/38 34/34/34 25/25/25
f 39/39/39 103/103/103 99/99/99
f 39/39/39 99/99/99 35/35/35
f 32/32/32 26/26/26 25/25/25
f 32/32/32 25/25/25 29/29/29
f 96/96/96 111/111/111 112/112/112
f 96/96/96 93/93/93 111/111/111
f 97/97/97 30/30/30 94/94/94
f 97/97/97 33/33/33 30/30/30
f 96/96/96 100/100/100 36/36/36
f 96/96/96 36/36/36 31/31/31
f 142/142/142 133/133/133 129/129/129
f 5/5/5 1/1/1 10/10/10
f 19/19/19 23/23/23 4/4/4
f 141/141/141 126/126/126 132/132/132
f 16/16/16 3/3/3 22/22/22
f 7/7/7 13/13/13 2/2/2
f 115/115/115 120/120/120 139/139/139
f 117/117/117 140/140/140 123/123/123
f 3/3/3 1/1/1 2/2/2
f 3/3/3 2/2/2 4/4/4
f 24/24/24 134/134/134 131/131/131
f 24/24/24 131/131/131 21/21/21
f 23/23/23 3/3/3 4/4/4
f 23/23/23 22/22/22 3/3/3
f 19/19/19 4/4/4 2/2/2
f 19/19/19 2/2/2 13/13/13
f 20/20/20 134/134/134 24/24/24
f 20/20/20 130/130/130 134/134/134
f 141/141/141 120/120/120 126/126/126
f 141/141/141 139/139/139 120/120/120
f 141/141/141 140/140/140 139/139/139
f 141/141/141 142/142/142 140/140/140
f 141/141/141 132/132/132 133/133/133
f 141/141/141 133/133/133 142/142/142
f 15/15/15 21/21/21 131/131/131
f 15/15/15 131/131/131 125/125/125
f 17/17/17 127/127/127 121/121/121
f 17/17/17 121/121/121 11/11/11
f 16/16/16 1/1/1 3/3/3
f 16/16/16 10/10/10 1/1/1
f 122/122/122 18/18/18 12/12/12
f 122/122/122 128/128/128 18/18/18
f 123/123/123 140/140/140 142/142/142
f 123/123/123 142/142/142 129/129/129
f 7/7/7 2/2/2 1/1/1
f 7/7/7 1/1/1 5/5/5
f 116/116/116 9/9/9 119/119/119
f 116/116/116 6/6/6 9/9/9
f 118/118/118 124/124/124 14/14/14
f 118/118/118 14/14/14 8/8/8
f 118/118/118 8/8/8 6/6/6
f 118/118/118 6/6/6 116/116/116
f 117/117/117 139/139/139 140/140/140
f 117/117/117 115/115/115 139/139/139
f 593/593/593 598/598/598 580/580/580
f 581/581/581 577/577/577 586/586/586
f 654/654/654 659/659/659 665/665/665
f 645/645/645 650/650/650 663/663/663
f 657/657/657 666/666/666 662/662/662
f 590/590/590 579/579/579 595/595/595
f 584/584/584 589/589/589 578/578/578
f 648/648/648 664/664/664 653/653/653
f 664/664/664 663/663/663 665/665/665
f 664/664/664 665/665/665 666/666/666
f 579/579/579 577/577/577 578/578/578
f 579/579/579 578/578/578 580/580/580
f 598/598/598 579/579/579 580/580/580
f 598/598/598 595/595/595 579/579/579
f 593/593/593 578/578/578 589/589/589
f 593/593/593 580/580/580 578/578/578
f 662/662/662 666/666/666 665/665/665
f 662/662/662 665/665/665 659/659/659
f 661/661/661 594/594/594 597/597/597
f 661/661/661 658/658/658 594/594/594
f 654/654/654 665/665/665 663/663/663
f 654/654/654 663/663/663 650/650/650
f 647/647/647 587/587/587 651/651/651
f 647/647/647 581/581/581 587/587/587
f 656/656/656 662/662/662 596/596/596
f 656/656/656 596/596/596 592/592/592
f 657/657/657 664/664/664 666/666/666
f 657/657/657 653/653/653 664/664/664
f 656/656/656 592/592/592 588/588/588
f 656/656/656 588/588/588 652/652/652
f 591/591/591 595/595/595 660/660/660
f 591/591/591 660/660/660 655/655/655
f 590/590/590 577/577/577 579/579/579
f 590/590/590 586/586/586 577/577/577
f 591/591/591 655/655/655 651/651/651
f 591/591/591 651/651/651 587/587/587
f 584/584/584 578/578/578 577/577/577
f 584/584/584 577/577/577 581/581/581
f 648/648/648 663/663/663 664/664/664
f 648/648/648 645/645/645 663/663/663
f 649/649/649 582/582/582 646/646/646
f 649/649/649 585/585/585 582/582/582
f 648/648/648 652/652/652 588/588/588
f 648/648/648 588/588/588 583/583/583
f 690/690/690 685/685/685 681/681/681
f 557/557/557 553/553/553 562/562/562
f 571/571/571 575/575/575 556/556/556
f 689/689/689 678/678/678 684/684/684
f 568/568/568 555/555/555 574/574/574
f 559/559/559 565/565/565 554/554/554
f 667/667/667 672/672/672 687/687/687
f 669/669/669 688/688/688 675/675/675
f 555/555/555 553/553/553 554/554/554
f 555/555/555 554/554/554 556/556/556
f 576/576/576 686/686/686 683/683/683
f 576/576/576 683/683/683 573/573/573
f 575/575/575 555/555/555 556/556/556
f 575/575/575 574/574/574 555/555/555
f 571/571/571 556/556/556 554/554/554
f 571/571/571 554/554/554 565/565/565
f 572/572/572 686/686/686 576/576/576
f 572/572/572 682/682/682 686/686/686
f 689/689/689 672/672/672 678/678/678
f 689/689/689 687/687/687 672/672/672
f 689/689/689 688/688/688 687/687/687
f 689/689/689 690/690/690 688/688/688
f 689/689/689 684/684/684 685/685/685
f 689/689/689 685/685/685 690/690/690
f 567/567/567 573/573/573 683/683/683
f 567/567/567 683/683/683 677/677/677
f 569/569/569 679/679/679 673/673/673
f 569/569/569 673/673/673 563/563/563
f 568/568/568 553/553/553 555/555/555
f 568/568/568 562/562/562 553/553/553
f 674/674/674 570/570/570 564/564/564
f 674/674/674 680/680/680 570/570/570
f 675/675/675 688/688/688 690/690/690
f 675/675/675 690/690/690 681/681/681
f 559/559/559 554/554/554 553/553/553
f 559/559/559 553/553/553 557/557/557
f 668/668/668 561/561/561 671/671/671
f 668/668/668 558/558/558 561/561/561
f 670/670/670 676/676/676 566/566/566
f 670/670/670 566/566/566 560/560/560
f 670/670/670 560/560/560 558/558/558
f 670/670/670 558/558/558 668/668/668
f 669/669/669 687/687/687 688/688/688
f 669/669/669 667/667/667 687/687/687
f 69/69/69 47/47/47 71/71/71
f 610/610/610 607/607/607 632/632/632
f 77/77/77 80/80/80 55/55/55
f 629/629/629 605/605/605 609/609/609
f 75/75/75 52/52/52 79/79/79
f 70/70/70 74/74/74 50/50/50
f 599/599/599 601/601/601 624/624/624
f 600/600/600 627/627/627 604/604/604
f 53/53/53 48/48/48 51/51/51
f 53/53/53 51/51/51 56/56/56
f 80/80/80 52/52/52 55/55/55
f 80/80/80 79/79/79 52/52/52
f 610/610/610 79/79/79 80/80/80
f 610/610/610 609/609/609 79/79/79
f 78/78/78 57/57/57 49/49/49
f 78/78/78 49/49/49 73/73/73
f 78/78/78 73/73/73 603/603/603
f 78/78/78 603/603/603 608/608/608
f 77/77/77 610/610/610 80/80/80
f 77/77/77 607/607/607 610/610/610
f 625/625/625 608/608/608 603/603/603
f 625/625/625 633/633/633 608/608/608
f 628/628/628 631/631/631 626/626/626
f 628/628/628 626/626/626 623/623/623
f 630/630/630 624/624/624 602/602/602
f 630/630/630 602/602/602 606/606/606
f 629/629/629 609/609/609 610/610/610
f 629/629/629 610/610/610 632/632/632
f 75/75/75 79/79/79 609/609/609
f 75/75/75 609/609/609 605/605/605
f 76/76/76 606/606/606 602/602/602
f 76/76/76 602/602/602 72/72/72
f 76/76/76 47/47/47 54/54/54
f 76/76/76 72/72/72 47/47/47
f 70/70/70 50/50/50 47/47/47
f 70/70/70 47/47/47 69/69/69
f 599/599/599 71/71/71 601/601/601
f 599/599/599 69/69/69 71/71/71
f 600/600/600 624/624/624 627/627/627
f 600/600/600 599/599/599 624/624/624
f 600/600/600 604/604/604 74/74/74
f 600/600/600 74/74/74 70/70/70
f 600/600/600 70/70/70 69/69/69
f 600/600/600 69/69/69 599/599/599
f 81/81/81 58/58/58 83/83/83
f 622/622/622 619/619/619 643/643/643
f 89/89/89 92/92/92 66/66/66
f 640/640/640 617/617/617 621/621/621
f 87/87/87 63/63/63 91/91/91
f 82/82/82 86/86/86 61/61/61
f 611/611/611 613/613/613 635/635/635
f 612/612/612 638/638/638 616/616/616
f 64/64/64 59/59/59 62/62/62
f 64/64/64 62/62/62 67/67/67
f 92/92/92 63/63/63 66/66/66
f 92/92/92 91/91/91 63/63/63
f 622/622/622 91/91/91 92/92/92
f 622/622/622 621/621/621 91/91/91
f 90/90/90 68/68/68 60/60/60
f 90/90/90 60/60/60 85/85/85
f 90/90/90 85/85/85 615/615/615
f 90/90/90 615/615/615 620/620/620
f 89/89/89 622/622/622 92/92/92
f 89/89/89 619/619/619 622/622/622
f 636/636/636 620/620/620 615/615/615
f 636/636/636 644/644/644 620/620/620
f 639/639/639 642/642/642 637/637/637
f 639/639/639 637/637/637 634/634/634
f 641/641/641 635/635/635 614/614/614
f 641/641/641 614/614/614 618/618/618
f 640/640/640 621/621/621 622/622/622
f 640/640/640 622/622/622 643/643/643
f 87/87/87 91/91/91 621/621/621
f 87/87/87 621/621/621 617/617/617
f 88/88/88 618/618/618 614/614/614
f 88/88/88 614/614/614 84/84/84
f 88/88/88 58/58/58 65/65/65
f 88/88/88 84/84/84 58/58/58
f 82/82/82 61/61/61 58/58/58
f 82/82/82 58/58/58 81/81/81
f 611/611/611 83/83/83 613/613/613
f 611/611/611 81/81/81 83/83/83
f 612/612/612 635/635/635 638/638/638
f 612/612/612 611/611/611 635/635/635
f 612/612/612 616/616/616 86/86/86
f 612/612/612 86/86/86 82/82/82
f 612/612/612 82/82/82 81/81/81
f 612/612/612 81/81/81 611/611/611
f 155/155/155 160/160/160 138/138/138
f 143/143/143 135/135/135 148/148/148
f 184/184/184 179/179/179 173/173/173
f 152/152/152 137/137/137 157/157/157
f 176/176/176 183/183/183 171/171/171
f 146/146/146 151/151/151 136/136/136
f 161/161/161 167/167/167 181/181/181
f 164/164/164 182/182/182 169/169/169
f 137/137/137 135/135/135 136/136/136
f 137/137/137 136/136/136 138/138/138
f 160/160/160 137/137/137 138/138/138
f 160/160/160 157/157/157 137/137/137
f 154/154/154 150/150/150 170/170/170
f 154/154/154 170/170/170 174/174/174
f 155/155/155 136/136/136 151/151/151
f 155/155/155 138/138/138 136/136/136
f 180/180/180 154/154/154 174/174/174
f 180/180/180 158/158/158 154/154/154
f 171/171/171 181/181/181 167/167/167
f 171/171/171 183/183/183 181/181/181
f 184/184/184 173/173/173 169/169/169
f 184/184/184 169/169/169 182/182/182
f 184/184/184 181/181/181 183/183/183
f 184/184/184 182/182/182 181/181/181
f 152/152/152 135/135/135 137/137/137
f 152/152/152 148/148/148 135/135/135
f 153/153/153 172/172/172 168/168/168
f 153/153/153 168/168/168 149/149/149
f 175/175/175 156/156/156 159/159/159
f 175/175/175 159/159/159 178/178/178
f 177/177/177 172/172/172 153/153/153
f 177/177/177 153/153/153 157/157/157
f 176/176/176 184/184/184 183/183/183
f 176/176/176 179/179/179 184/184/184
f 146/146/146 136/136/136 135/135/135
f 146/146/146 135/135/135 143/143/143
f 163/163/163 149/149/149 168/168/168
f 163/163/163 143/143/143 149/149/149
f 164/164/164 181/181/181 182/182/182
f 164/164/164 161/161/161 181/181/181
f 166/166/166 170/170/170 150/150/150
f 166/166/166 150/150/150 145/145/145
f 165/165/165 147/147/147 144/144/144
f 165/165/165 144/144/144 162/162/162
f 201/201/201 206/206/206 188/188/188
f 189/189/189 185/185/185 194/194/194
f 230/230/230 225/225/225 219/219/219
f 198/198/198 187/187/187 203/203/203
f 222/222/222 229/229/229 217/217/217
f 192/192/192 197/197/197 186/186/186
f 207/207/207 213/213/213 227/227/227
f 210/210/210 228/228/228 215/215/215
f 187/187/187 185/185/185 186/186/186
f 187/187/187 186/186/186 188/188/188
f 206/206/206 187/187/187 188/188/188
f 206/206/206 203/203/203 187/187/187
f 200/200/200 196/196/196 216/216/216
f 200/200/200 216/216/216 220/220/220
f 201/201/201 186/186/186 197/197/197
f 201/201/201 188/188/188 186/186/186
f 226/226/226 200/200/200 220/220/220
f 226/226/226 204/204/204 200/200/200
f 217/217/217 227/227/227 213/213/213
f 217/217/217 229/229/229 227/227/227
f 230/230/230 219/219/219 215/215/215
f 230/230/230 215/215/215 228/228/228
f 230/230/230 227/227/227 229/229/229
f 230/230/230 228/228/228 227/227/227
f 198/198/198 185/185/185 187/187/187
f 198/198/198 194/194/194 185/185/185
f 199/199/199 218/218/218 214/214/214
f 199/199/199 214/214/214 195/195/195
f 221/221/221 202/202/202 205/205/205
f 221/221/221 205/205/205 224/224/224
f 223/223/223 218/218/218 199/199/199
f 223/223/223 199/199/199 203/203/203
f 222/222/222 230/230/230 229/229/229
f 222/222/222 225/225/225 230/230/230
f 192/192/192 186/186/186 185/185/185
f 192/192/192 185/185/185 189/189/189
f 209/209/209 195/195/195 214/214/214
f 209/209/209 189/189/189 195/195/195
f 210/210/210 227/227/227 228/228/228
f 210/210/210 207/207/207 227/227/227
f 212/212/212 216/216/216 196/196/196
f 212/212/212 196/196/196 191/191/191
f 211/211/211 193/193/193 190/190/190
f 211/211/211 190/190/190 208/208/208
f 247/247/247 252/252/252 234/234/234
f 235/235/235 231/231/231 240/240/240
f 276/276/276 271/271/271 265/265/265
f 244/244/244 233/233/233 249/249/249
f 268/268/268 275/275/275 263/263/263
f 238/238/238 243/243/243 232/232/232
f 253/253/253 259/259/259 273/273/273
f 256/256/256 274/274/274 261/261/261
f 233/233/233 231/231/231 232/232/232
f 233/233/233 232/232/232 234/234/234
f 252/252/252 233/233/233 234/234/234
f 252/252/252 249/249/249 233/233/233
f 246/246/246 242/242/242 262/262/262
f 246/246/246 262/262/262 266/266/266
f 247/247/247 232/232/232 243/243/243
f 247/247/247 234/234/234 232/232/232
f 272/272/272 246/246/246 266/266/266
f 272/272/272 250/250/250 246/246/246
f 263/263/263 273/273/273 259/259/259
f 263/263/263 275/275/275 273/273/273
f 276/276/276 265/265/265 261/261/261
f 276/276/276 261/261/261 274/274/274
f 276/276/276 273/273/273 275/275/275
f 276/276/276 274/274/274 273/273/273
f 244/244/244 231/231/231 233/233/233
f 244/244/244 240/240/240 231/231/231
f 245/245/245 264/264/264 260/260/260
f 245/245/245 260/260/260 241/241/241
f 267/267/267 248/248/248 251/251/251
f 267/267/267 251/251/251 270/270/270
f 269/269/269 264/264/264 245/245/245
f 269/269/269 245/245/245 249/249/249
f 268/268/268 276/276/276 275/275/275
f 268/268/268 271/271/271 276/276/276
f 238/238/238 232/232/232 231/231/231
f 238/238/238 231/231/231 235/235/235
f 255/255/255 241/241/241 260/260/260
f 255/255/255 235/235/235 241/241/241
f 256/256/256 273/273/273 274/274/274
f 256/256/256 253/253/253 273/273/273
f 258/258/258 262/262/262 242/242/242
f 258/258/258 242/242/242 237/237/237
f 257/257/257 239/239/239 236/236/236
f 257/257/257 236/236/236 254/254/254
f 293/293/293 298/298/298 280/280/280
f 281/281/281 277/277/277 286/286/286
f 322/322/322 317/317/317 311/311/311
f 290/290/290 279/279/279 295/295/295
f 314/314/314 321/321/321 309/309/309
f 284/284/284 289/289/289 278/278/278
f 299/299/299 305/305/305 319/319/319
f 302/302/302 320/320/320 307/307/307
f 279/279/279 277/277/277 278/278/278
f 279/279/279 278/278/278 280/280/280
f 298/298/298 279/279/279 280/280/280
f 298/298/298 295/295/295 279/279/279
f 292/292/292 288/288/288 308/308/308
f 292/292/292 308/308/308 312/312/312
f 293/293/293 278/278/278 289/289/289
f 293/293/293 280/280/280 278/278/278
f 318/318/318 292/292/292 312/312/312
f 318/318/318 296/296/296 292/292/292
f 309/309/309 319/319/319 305/305/305
f 309/309/309 321/321/321 319/319/319
f 322/322/322 311/311/311 307/307/307
f 322/322/322 307/307/307 320/320/320
f 322/322/322 319/319/319 321/321/321
f 322/322/322 320/320/320 319/319/319
f 290/290/290 277/277/277 279/279/279
f 290/290/290 286/286/286 277/277/277
f 291/291/291 310/310/310 306/306/306
f 291/291/291 306/306/306 287/287/287
f 313/313/313 294/294/294 297/297/297
f 313/313/313 297/297/297 316/316/316
f 315/315/315 310/310/310 291/291/291
f 315/315/315 291/291/291 295/295/295
f 314/314/314 322/322/322 321/321/321
f 314/314/314 317/317/317 322/322/322
f 284/284/284 278/278/278 277/277/277
f 284/284/284 277/277/277 281/281/281
f 301/301/301 287/287/287 306/306/306
f 301/301/301 281/281/281 287/287/287
f 302/302/302 319/319/319 320/320/320
f 302/302/302 299/299/299 319/319/319
f 304/304/304 308/308/308 288/288/288
f 304/304/304 288/288/288 283/283/283
f 303/303/303 285/285/285 282/282/282
f 303/303/303 282/282/282 300/300/300
f 339/339/339 344/344/344 326/326/326
f 327/327/327 323/323/323 332/332/332
f 368/368/368 363/363/363 357/357/357
f 336/336/336 325/325/325 341/341/341
f 360/360/360 367/367/367 355/355/355
f 330/330/330 335/335/335 324/324/324
f 345/345/345 351/351/351 365/365/365
f 348/348/348 366/366/366 353/353/353
f 325/325/325 323/323/323 324/324/324
f 325/325/325 324/324/324 326/326/326
f 344/344/344 325/325/325 326/326/326
f 344/344/344 341/341/341 325/325/325
f 338/338/338 334/334/334 354/354/354
f 338/338/338 354/354/354 358/358/358
f 339/339/339 324/324/324 335/335/335
f 339/339/339 326/326/326 324/324/324
f 364/364/364 338/338/338 358/358/358
f 364/364/364 342/342/342 338/338/338
f 355/355/355 365/365/365 351/351/351
f 355/355/355 367/367/367 365/365/365
f 368/368/368 357/357/357 353/353/353
f 368/368/368 353/353/353 366/366/366
f 368/368/368 365/365/365 367/367/367
f 368/368/368 366/366/366 365/365/365
f 336/336/336 323/323/323 325/325/325
f 336/336/336 332/332/332 323/323/323
f 337/337/337 356/356/356 352/352/352
f 337/337/337 352/352/352 333/333/333
f 359/359/359 340/340/340 343/343/343
f 359/359/359 343/343/343 362/362/362
f 361/361/361 356/356/356 337/337/337
f 361/361/361 337/337/337 341/341/341
f 360/360/360 368/368/368 367/367/367
f 360/360/360 363/363/363 368/368/368
f 330/330/330 324/324/324 323/323/323
f 330/330/330 323/323/323 327/327/327
f 347/347/347 333/333/333 352/352/352
f 347/347/347 327/327/327 333/333/333
f 348/348/348 365/365/365 366/366/366
f 348/348/348 345/345/345 365/365/365
f 350/350/350 354/354/354 334/334/334
f 350/350/350 334/334/334 329/329/329
f 349/349/349 331/331/331 328/328/328
f 349/349/349 328/328/328 346/346/346
f 385/385/385 390/390/390 372/372/372
f 373/373/373 369/369/369 378/378/378
f 414/414/414 409/409/409 403/403/403
f 382/382/382 371/371/371 387/387/387
f 406/406/406 413/413/413 401/401/401
f 376/376/376 381/381/381 370/370/370
f 391/391/391 397/397/397 411/411/411
f 394/394/394 412/412/412 399/399/399
f 371/371/371 369/369/369 370/370/370
f 371/371/371 370/370/370 372/372/372
f 390/390/390 371/371/371 372/372/372
f 390/390/390 387/387/387 371/371/371
f 384/384/384 380/380/380 400/400/400
f 384/384/384 400/400/400 404/404/404
f 385/385/385 370/370/370 381/381/381
f 385/385/385 372/372/372 370/370/370
f 410/410/410 384/384/384 404/404/404
f 410/410/410 388/388/388 384/384/384
f 401/401/401 411/411/411 397/397/397
f 401/401/401 413/413/413 411/411/411
f 414/414/414 403/403/403 399/399/399
f 414/414/414 399/399/399 412/412/412
f 414/414/414 411/411/411 413/413/413
f 414/414/414 412/412/412 411/411/411
f 382/382/382 369/369/369 371/371/371
f 382/382/382 378/378/378 369/369/369
f 383/383/383 402/402/402 398/398/398
f 383/383/383 398/398/398 379/379/379
f 405/405/405 386/386/386 389/389/389
f 405/405/405 389/389/389 408/408/408
f 407/407/407 402/402/402 383/383/383
f 407/407/407 383/383/383 387/387/387
f 406/406/406 414/414/414 413/413/413
f 406/406/406 409/409/409 414/414/414
f 376/376/376 370/370/370 369/369/369
f 376/376/376 369/369/369 373/373/373
f 393/393/393 379/379/379 398/398/398
f 393/393/393 373/373/373 379/379/379
f 394/394/394 411/411/411 412/412/412
f 394/394/394 391/391/391 411/411/411
f 396/396/396 400/400/400 380/380/380
f 396/396/396 380/380/380 375/375/375
f 395/395/395 377/377/377 374/374/374
f 395/395/395 374/374/374 392/392/392
f 431/431/431 436/436/436 418/418/418
f 419/419/419 415/415/415 424/424/424
f 460/460/460 455/455/455 449/449/449
f 428/428/428 417/417/417 433/433/433
f 452/452/452 459/459/459 447/447/447
f 422/422/422 427/427/427 416/416/416
f 437/437/437 443/443/443 457/457/457
f 440/440/440 458/458/458 445/445/445
f 417/417/417 415/415/415 416/416/416
f 417/417/417 416/416/416 418/418/418
f 436/436/436 417/417/417 418/418/418
f 436/436/436 433/433/433 417/417/417
f 430/430/430 426/426/426 446/446/446
f 430/430/430 446/446/446 450/450/450
f 431/431/431 416/416/416 427/427/427
f 431/431/431 418/418/418 416/416/416
f 456/456/456 430/430/430 450/450/450
f 456/456/456 434/434/434 430/430/430
f 447/447/447 457/457/457 443/443/443
f 447/447/447 459/459/459 457/457/457
f 460/460/460 449/449/449 445/445/445
f 460/460/460 445/445/445 458/458/458
f 460/460/460 457/457/457 459/459/459
f 460/460/460 458/458/458 457/457/457
f 428/428/428 415/415/415 417/417/417
f 428/428/428 424/424/424 415/415/415
f 429/429/429 448/448/448 444/444/444
f 429/429/429 444/444/444 425/425/425
f 451/451/451 432/432/432 435/435/435
f 451/451/451 435/435/435 454/454/454
f 453/453/453 448/448/448 429/429/429
f 453/453/453 429/429/429 433/433/433
f 452/452/452 460/460/460 459/459/459
f 452/452/452 455/455/455 460/460/460
f 422/422/422 416/416/416 415/415/415
f 422/422/422 415/415/415 419/419/419
f 439/439/439 425/425/425 444/444/444
f 439/439/439 419/419/419 425/425/425
f 440/440/440 457/457/457 458/458/458
f 440/440/440 437/437/437 457/457/457
f 442/442/442 446/446/446 426/426/426
f 442/442/442 426/426/426 421/421/421
f 441/441/441 423/423/423 420/420/420
f 441/441/441 420/420/420 438/438/438
f 477/477/477 482/482/482 464/464/464
f 465/465/465 461/461/461 470/470/470
f 506/506/506 501/501/501 495/495/495
f 474/474/474 463/463/463 479/479/479
f 498/498/498 505/505/505 493/493/493
f 468/468/468 473/473/473 462/462/462
f 483/483/483 489/489/489 503/503/503
f 486/486/486 504/504/504 491/491/491
f 463/463/463 461/461/461 462/462/462
f 463/463/463 462/462/462 464/464/464
f 482/482/482 463/463/463 464/464/464
f 482/482/482 479/479/479 463/463/463
f 476/476/476 472/472/472 492/492/492
f 476/476/476 492/492/492 496/496/496
f 477/477/477 462/462/462 473/473/473
f 477/477/477 464/464/464 462/462/462
f 502/502/502 476/476/476 496/496/496
f 502/502/502 480/480/480 476/476/476
f 493/493/493 503/503/503 489/489/489
f 493/493/493 505/505/505 503/503/503
f 506/506/506 495/495/495 491/491/491
f 506/506/506 491/491/491 504/504/504
f 506/506/506 503/503/503 505/505/505
f 506/506/506 504/504/504 503/503/503
f 474/474/474 461/461/461 463/463/463
f 474/474/474 470/470/470 461/461/461
f 475/475/475 494/494/494 490/490/490
f 475/475/475 490/490/490 471/471/471
f 497/497/497 478/478/478 481/481/481
f 497/497/497 481/481/481 500/500/500
f 499/499/499 494/494/494 475/475/475
f 499/499/499 475/475/475 479/479/479
f 498/498/498 506/506/506 505/505/505
f 498/498/498 501/501/501 506/506/506
f 468/468/468 462/462/462 461/461/461
f 468/468/468 461/461/461 465/465/465
f 485/485/485 471/471/471 490/490/490
f 485/485/485 465/465/465 471/471/471
f 486/486/486 503/503/503 504/504/504
f 486/486/486 483/483/483 503/503/503
f 488/488/488 492/492/492 472/472/472
f 488/488/488 472/472/472 467/467/467
f 487/487/487 469/469/469 466/466/466
f 487/487/487 466/466/466 484/484/484
f 523/523/523 528/528/528 510/510/510
f 511/511/511 507/507/507 516/516/516
f 552/552/552 547/547/547 541/541/541
f 520/520/520 509/509/509 525/525/525
f 544/544/544 551/551/551 539/539/539
f 514/514/514 519/519/519 508/508/508
f 529/529/529 535/535/535 549/549/549
f 532/532/532 550/550/550 537/537/537
f 509/509/509 507/507/507 508/508/508
f 509/509/509 508/508/508 510/510/510
f 528/528/528 509/509/509 510/510/510
f 528/528/528 525/525/525 509/509/509
f 522/522/522 518/518/518 538/538/538
f 522/522/522 538/538/538 542/542/542
f 523/523/523 508/508/508 519/519/519
f 523/523/523 510/510/510 508/508/508
f 548/548/548 522/522/522 542/542/542
f 548/548/548 526/526/526 522/522/522
f 539/539/539 549/549/549 535/535/535
f 539/539/539 551/551/551 549/549/549
f 552/552/552 541/541/541 537/537/537
f 552/552/552 537/537/537 550/550/550
f 552/552/552 549/549/549 551/551/551
f 552/552/552 550/550/550 549/549/549
f 520/520/520 507/507/507 509/509/509
f 520/520/520 516/516/516 507/507/507
f 521/521/521 540/540/540 536/536/536
f 521/521/521 536/536/536 517/517/517
f 543/543/543 524/524/524 527/527/527
f 543/543/543 527/527/527 546/546/546
f 545/545/545 540/540/540 521/521/521
f 545/545/545 521/521/521 525/525/525
f 544/544/544 552/552/552 551/551/551
f 544/544/544 547/547/547 552/552/552
f 514/514/514 508/508/508 507/507/507
f 514/514/514 507/507/507 511/511/511
f 531/531/531 517/517/517 536/536/536
f 531/531/531 511/511/511 517/517/517
f 532/532/532 549/549/549 550/550/550
f 532/532/532 529/529/529 549/549/549
f 534/534/534 538/538/538 518/518/518
f 534/534/534 518/518/518 513/513/513
f 533/533/533 515/515/515 512/512/512
f 533/533/533 512/512/512 530/530/530
