# metres; Y up; ground-centred pivot
mtllib 10_Valla_Travesanos.mtl
v -1.0950000 1.2539000 -0.0761000
v -1.0950000 1.2539000 0.0761000
v -1.0950000 1.3061000 -0.0761000
v -1.0950000 1.3061000 0.0761000
v -1.0761000 1.2350000 -0.0761000
v -1.0761000 1.2350000 -0.0761000
v -1.0761000 1.2350000 0.0761000
v -1.0761000 1.2350000 0.0761000
v -1.0761000 1.2539000 -0.0950000
v -1.0761000 1.2539000 -0.0950000
v -1.0761000 1.2539000 -0.0950000
v -1.0761000 1.2539000 0.0950000
v -1.0761000 1.2539000 0.0950000
v -1.0761000 1.2539000 0.0950000
v -1.0761000 1.3061000 -0.0950000
v -1.0761000 1.3061000 -0.0950000
v -1.0761000 1.3061000 -0.0950000
v -1.0761000 1.3061000 0.0950000
v -1.0761000 1.3061000 0.0950000
v -1.0761000 1.3061000 0.0950000
v -1.0761000 1.3250000 -0.0761000
v -1.0761000 1.3250000 -0.0761000
v -1.0761000 1.3250000 0.0761000
v -1.0761000 1.3250000 0.0761000
v -1.0650000 0.0250000 -0.0400000
v -1.0650000 0.0250000 0.0400000
v -1.0650000 1.2350000 -0.0400000
v -1.0650000 1.2350000 0.0400000
v -1.0400000 0.0000000 -0.0400000
v -1.0400000 0.0000000 -0.0400000
v -1.0400000 0.0000000 0.0400000
v -1.0400000 0.0000000 0.0400000
v -1.0400000 0.0000000 0.0400000
v -1.0400000 0.0250000 -0.0650000
v -1.0400000 0.0250000 -0.0650000
v -1.0400000 0.0250000 0.0650000
v -1.0400000 0.0250000 0.0650000
v -1.0400000 1.2350000 -0.0650000
v -1.0400000 1.2350000 -0.0650000
v -1.0400000 1.2350000 0.0650000
v -1.0400000 1.2350000 0.0650000
v -1.0400000 1.2600000 -0.0400000
v -1.0400000 1.2600000 -0.0400000
v -1.0400000 1.2600000 0.0400000
v -1.0400000 1.2600000 0.0400000
v -1.0400000 1.2600000 0.0400000
v -1.0000000 0.3139000 -0.0261000
v -1.0000000 0.3139000 -0.0261000
v -1.0000000 0.3139000 0.0261000
v -1.0000000 0.3139000 0.0261000
v -1.0000000 0.3139000 0.0261000
v -1.0000000 0.3861000 -0.0261000
v -1.0000000 0.3861000 -0.0261000
v -1.0000000 0.3861000 -0.0261000
v -1.0000000 0.3861000 0.0261000
v -1.0000000 0.3861000 0.0261000
v -1.0000000 0.3861000 0.0261000
v -1.0000000 0.8839000 -0.0261000
v -1.0000000 0.8839000 -0.0261000
v -1.0000000 0.8839000 0.0261000
v -1.0000000 0.8839000 0.0261000
v -1.0000000 0.8839000 0.0261000
v -1.0000000 0.9561000 -0.0261000
v -1.0000000 0.9561000 -0.0261000
v -1.0000000 0.9561000 -0.0261000
v -1.0000000 0.9561000 0.0261000
v -1.0000000 0.9561000 0.0261000
v -1.0000000 0.9561000 0.0261000
v -0.9811000 0.2950000 -0.0261000
v -0.9811000 0.2950000 0.0261000
v -0.9811000 0.3139000 -0.0450000
v -0.9811000 0.3139000 -0.0450000
v -0.9811000 0.3139000 0.0450000
v -0.9811000 0.3139000 0.0450000
v -0.9811000 0.3861000 -0.0450000
v -0.9811000 0.3861000 -0.0450000
v -0.9811000 0.3861000 0.0450000
v -0.9811000 0.3861000 0.0450000
v -0.9811000 0.4050000 -0.0261000
v -0.9811000 0.4050000 0.0261000
v -0.9811000 0.8650000 -0.0261000
v -0.9811000 0.8650000 0.0261000
v -0.9811000 0.8839000 -0.0450000
v -0.9811000 0.8839000 -0.0450000
v -0.9811000 0.8839000 0.0450000
v -0.9811000 0.8839000 0.0450000
v -0.9811000 0.9561000 -0.0450000
v -0.9811000 0.9561000 -0.0450000
v -0.9811000 0.9561000 0.0450000
v -0.9811000 0.9561000 0.0450000
v -0.9811000 0.9750000 -0.0261000
v -0.9811000 0.9750000 0.0261000
v -0.9600000 0.0000000 -0.0400000
v -0.9600000 0.0000000 -0.0400000
v -0.9600000 0.0000000 -0.0400000
v -0.9600000 0.0000000 0.0400000
v -0.9600000 0.0000000 0.0400000
v -0.9600000 0.0250000 -0.0650000
v -0.9600000 0.0250000 -0.0650000
v -0.9600000 0.0250000 0.0650000
v -0.9600000 0.0250000 0.0650000
v -0.9600000 1.2350000 -0.0650000
v -0.9600000 1.2350000 -0.0650000
v -0.9600000 1.2350000 0.0650000
v -0.9600000 1.2350000 0.0650000
v -0.9600000 1.2600000 -0.0400000
v -0.9600000 1.2600000 -0.0400000
v -0.9600000 1.2600000 -0.0400000
v -0.9600000 1.2600000 0.0400000
v -0.9600000 1.2600000 0.0400000
v -0.9350000 0.0250000 -0.0400000
v -0.9350000 0.0250000 0.0400000
v -0.9350000 1.2350000 -0.0400000
v -0.9350000 1.2350000 0.0400000
v -0.9239000 1.2350000 -0.0761000
v -0.9239000 1.2350000 -0.0761000
v -0.9239000 1.2350000 0.0761000
v -0.9239000 1.2350000 0.0761000
v -0.9239000 1.2539000 -0.0950000
v -0.9239000 1.2539000 -0.0950000
v -0.9239000 1.2539000 -0.0950000
v -0.9239000 1.2539000 0.0950000
v -0.9239000 1.2539000 0.0950000
v -0.9239000 1.2539000 0.0950000
v -0.9239000 1.3061000 -0.0950000
v -0.9239000 1.3061000 -0.0950000
v -0.9239000 1.3061000 -0.0950000
v -0.9239000 1.3061000 0.0950000
v -0.9239000 1.3061000 0.0950000
v -0.9239000 1.3061000 0.0950000
v -0.9239000 1.3250000 -0.0761000
v -0.9239000 1.3250000 -0.0761000
v -0.9239000 1.3250000 0.0761000
v -0.9239000 1.3250000 0.0761000
v -0.9050000 1.2539000 -0.0761000
v -0.9050000 1.2539000 0.0761000
v -0.9050000 1.3061000 -0.0761000
v -0.9050000 1.3061000 0.0761000
v 0.9050000 1.2539000 -0.0761000
v 0.9050000 1.2539000 0.0761000
v 0.9050000 1.3061000 -0.0761000
v 0.9050000 1.3061000 0.0761000
v 0.9239000 1.2350000 -0.0761000
v 0.9239000 1.2350000 -0.0761000
v 0.9239000 1.2350000 0.0761000
v 0.9239000 1.2350000 0.0761000
v 0.9239000 1.2539000 -0.0950000
v 0.9239000 1.2539000 -0.0950000
v 0.9239000 1.2539000 -0.0950000
v 0.9239000 1.2539000 0.0950000
v 0.9239000 1.2539000 0.0950000
v 0.9239000 1.2539000 0.0950000
v 0.9239000 1.3061000 -0.0950000
v 0.9239000 1.3061000 -0.0950000
v 0.9239000 1.3061000 -0.0950000
v 0.9239000 1.3061000 0.0950000
v 0.9239000 1.3061000 0.0950000
v 0.9239000 1.3061000 0.0950000
v 0.9239000 1.3250000 -0.0761000
v 0.9239000 1.3250000 -0.0761000
v 0.9239000 1.3250000 0.0761000
v 0.9239000 1.3250000 0.0761000
v 0.9350000 0.0250000 -0.0400000
v 0.9350000 0.0250000 0.0400000
v 0.9350000 1.2350000 -0.0400000
v 0.9350000 1.2350000 0.0400000
v 0.9600000 0.0000000 -0.0400000
v 0.9600000 0.0000000 -0.0400000
v 0.9600000 0.0000000 0.0400000
v 0.9600000 0.0000000 0.0400000
v 0.9600000 0.0000000 0.0400000
v 0.9600000 0.0250000 -0.0650000
v 0.9600000 0.0250000 -0.0650000
v 0.9600000 0.0250000 0.0650000
v 0.9600000 0.0250000 0.0650000
v 0.9600000 1.2350000 -0.0650000
v 0.9600000 1.2350000 -0.0650000
v 0.9600000 1.2350000 0.0650000
v 0.9600000 1.2350000 0.0650000
v 0.9600000 1.2600000 -0.0400000
v 0.9600000 1.2600000 -0.0400000
v 0.9600000 1.2600000 0.0400000
v 0.9600000 1.2600000 0.0400000
v 0.9600000 1.2600000 0.0400000
v 0.9811000 0.2950000 -0.0261000
v 0.9811000 0.2950000 0.0261000
v 0.9811000 0.3139000 -0.0450000
v 0.9811000 0.3139000 -0.0450000
v 0.9811000 0.3139000 0.0450000
v 0.9811000 0.3139000 0.0450000
v 0.9811000 0.3861000 -0.0450000
v 0.9811000 0.3861000 -0.0450000
v 0.9811000 0.3861000 0.0450000
v 0.9811000 0.3861000 0.0450000
v 0.9811000 0.4050000 -0.0261000
v 0.9811000 0.4050000 0.0261000
v 0.9811000 0.8650000 -0.0261000
v 0.9811000 0.8650000 0.0261000
v 0.9811000 0.8839000 -0.0450000
v 0.9811000 0.8839000 -0.0450000
v 0.9811000 0.8839000 0.0450000
v 0.9811000 0.8839000 0.0450000
v 0.9811000 0.9561000 -0.0450000
v 0.9811000 0.9561000 -0.0450000
v 0.9811000 0.9561000 0.0450000
v 0.9811000 0.9561000 0.0450000
v 0.9811000 0.9750000 -0.0261000
v 0.9811000 0.9750000 0.0261000
v 1.0000000 0.3139000 -0.0261000
v 1.0000000 0.3139000 -0.0261000
v 1.0000000 0.3139000 0.0261000
v 1.0000000 0.3139000 0.0261000
v 1.0000000 0.3139000 0.0261000
v 1.0000000 0.3861000 -0.0261000
v 1.0000000 0.3861000 -0.0261000
v 1.0000000 0.3861000 -0.0261000
v 1.0000000 0.3861000 0.0261000
v 1.0000000 0.3861000 0.0261000
v 1.0000000 0.3861000 0.0261000
v 1.0000000 0.8839000 -0.0261000
v 1.0000000 0.8839000 -0.0261000
v 1.0000000 0.8839000 0.0261000
v 1.0000000 0.8839000 0.0261000
v 1.0000000 0.8839000 0.0261000
v 1.0000000 0.9561000 -0.0261000
v 1.0000000 0.9561000 -0.0261000
v 1.0000000 0.9561000 -0.0261000
v 1.0000000 0.9561000 0.0261000
v 1.0000000 0.9561000 0.0261000
v 1.0000000 0.9561000 0.0261000
v 1.0400000 0.0000000 -0.0400000
v 1.0400000 0.0000000 -0.0400000
v 1.0400000 0.0000000 -0.0400000
v 1.0400000 0.0000000 0.0400000
v 1.0400000 0.0000000 0.0400000
v 1.0400000 0.0250000 -0.0650000
v 1.0400000 0.0250000 -0.0650000
v 1.0400000 0.0250000 0.0650000
v 1.0400000 0.0250000 0.0650000
v 1.0400000 1.2350000 -0.0650000
v 1.0400000 1.2350000 -0.0650000
v 1.0400000 1.2350000 0.0650000
v 1.0400000 1.2350000 0.0650000
v 1.0400000 1.2600000 -0.0400000
v 1.0400000 1.2600000 -0.0400000
v 1.0400000 1.2600000 -0.0400000
v 1.0400000 1.2600000 0.0400000
v 1.0400000 1.2600000 0.0400000
v 1.0650000 0.0250000 -0.0400000
v 1.0650000 0.0250000 0.0400000
v 1.0650000 1.2350000 -0.0400000
v 1.0650000 1.2350000 0.0400000
v 1.0761000 1.2350000 -0.0761000
v 1.0761000 1.2350000 -0.0761000
v 1.0761000 1.2350000 0.0761000
v 1.0761000 1.2350000 0.0761000
v 1.0761000 1.2539000 -0.0950000
v 1.0761000 1.2539000 -0.0950000
v 1.0761000 1.2539000 -0.0950000
v 1.0761000 1.2539000 0.0950000
v 1.0761000 1.2539000 0.0950000
v 1.0761000 1.2539000 0.0950000
v 1.0761000 1.3061000 -0.0950000
v 1.0761000 1.3061000 -0.0950000
v 1.0761000 1.3061000 -0.0950000
v 1.0761000 1.3061000 0.0950000
v 1.0761000 1.3061000 0.0950000
v 1.0761000 1.3061000 0.0950000
v 1.0761000 1.3250000 -0.0761000
v 1.0761000 1.3250000 -0.0761000
v 1.0761000 1.3250000 0.0761000
v 1.0761000 1.3250000 0.0761000
v 1.0950000 1.2539000 -0.0761000
v 1.0950000 1.2539000 0.0761000
v 1.0950000 1.3061000 -0.0761000
v 1.0950000 1.3061000 0.0761000
vt 0.0843980 0.0990798
vt 0.0843980 0.1438446
vt 0.1589695 0.0990798
vt 0.1589695 0.1438446
vt 0.0573980 0.0990798
vt 0.0843980 0.0990798
vt 0.0573980 0.1438446
vt 0.3018266 0.0990798
vt 0.0573980 0.0990798
vt 0.0843980 0.0935210
vt 0.0843980 0.0990798
vt 0.0843980 0.0990798
vt 0.0843980 0.1494034
vt 0.3288266 0.0990798
vt 0.0573980 0.0990798
vt 0.1589695 0.0935210
vt 0.1589695 0.0990798
vt 0.1589695 0.0990798
vt 0.1589695 0.1494034
vt 0.3288266 0.0990798
vt 0.0843980 0.0990798
vt 0.1859695 0.0990798
vt 0.1859695 0.1438446
vt 0.3018266 0.0990798
vt 0.1536003 0.1355999
vt 0.2678860 0.1355999
vt 0.1536003 0.4914822
vt 0.2678860 0.4914822
vt 0.1536003 0.1282469
vt 0.1536003 0.1355999
vt 0.1536003 0.1282469
vt 0.2678860 0.1282469
vt 0.2678860 0.1355999
vt 0.1178860 0.1355999
vt 0.1536003 0.1355999
vt 0.1536003 0.1355999
vt 0.3036003 0.1355999
vt 0.1178860 0.4914822
vt 0.1536003 0.4914822
vt 0.1536003 0.4914822
vt 0.3036003 0.4914822
vt 0.1536003 0.1355999
vt 0.1536003 0.4988351
vt 0.1536003 0.4988351
vt 0.2678860 0.1355999
vt 0.2678860 0.4988351
vt 0.0518324 0.1176415
vt 0.0518324 0.1232003
vt 0.0518324 0.1176415
vt 0.1264039 0.1176415
vt 0.1264039 0.1232003
vt 0.0518324 0.1176415
vt 0.0518324 0.1444356
vt 0.1549753 0.1176415
vt 0.1264039 0.1176415
vt 0.1264039 0.1444356
vt 0.1549753 0.1176415
vt 0.0532719 0.0926663
vt 0.0532719 0.0982252
vt 0.0532719 0.0926663
vt 0.1278433 0.0926663
vt 0.1278433 0.0982252
vt 0.0532719 0.0926663
vt 0.0532719 0.1194605
vt 0.1564148 0.0926663
vt 0.1278433 0.0926663
vt 0.1278433 0.1194605
vt 0.1564148 0.0926663
vt 0.0518324 0.1232003
vt 0.1264039 0.1232003
vt 0.0248324 0.1232003
vt 0.0518324 0.1232003
vt 0.0518324 0.1232003
vt 0.1534039 0.1232003
vt 0.0248324 0.1232003
vt 0.1549753 0.1232003
vt 0.1534039 0.1232003
vt 0.1549753 0.1232003
vt 0.0518324 0.1232003
vt 0.1264039 0.1232003
vt 0.0532719 0.0982252
vt 0.1278433 0.0982252
vt 0.0262719 0.0982252
vt 0.0532719 0.0982252
vt 0.0532719 0.0982252
vt 0.1548433 0.0982252
vt 0.0262719 0.0982252
vt 0.1564148 0.0982252
vt 0.1548433 0.0982252
vt 0.1564148 0.0982252
vt 0.0532719 0.0982252
vt 0.1278433 0.0982252
vt 0.1536003 0.1282469
vt 0.1536003 0.1591293
vt 0.2678860 0.1282469
vt 0.2678860 0.1282469
vt 0.2678860 0.1591293
vt 0.1178860 0.1355999
vt 0.2678860 0.1355999
vt 0.2678860 0.1355999
vt 0.3036003 0.1355999
vt 0.1178860 0.4914822
vt 0.2678860 0.4914822
vt 0.2678860 0.4914822
vt 0.3036003 0.4914822
vt 0.1536003 0.1591293
vt 0.1536003 0.4988351
vt 0.2678860 0.4988351
vt 0.2678860 0.1591293
vt 0.2678860 0.4988351
vt 0.1536003 0.1355999
vt 0.2678860 0.1355999
vt 0.1536003 0.4914822
vt 0.2678860 0.4914822
vt 0.0573980 0.0990798
vt 0.0843980 0.1438446
vt 0.0573980 0.1438446
vt 0.3018266 0.1438446
vt 0.0573980 0.1438446
vt 0.0843980 0.0935210
vt 0.0843980 0.1438446
vt 0.0843980 0.1438446
vt 0.0843980 0.1494034
vt 0.3288266 0.1438446
vt 0.0573980 0.1438446
vt 0.1589695 0.0935210
vt 0.1589695 0.1438446
vt 0.1589695 0.1438446
vt 0.1589695 0.1494034
vt 0.3288266 0.1438446
vt 0.0843980 0.1438446
vt 0.1859695 0.0990798
vt 0.1859695 0.1438446
vt 0.3018266 0.1438446
vt 0.0843980 0.0990798
vt 0.0843980 0.1438446
vt 0.1589695 0.0990798
vt 0.1589695 0.1438446
vt 0.0703012 0.0483632
vt 0.0703012 0.0931279
vt 0.1448726 0.0483632
vt 0.1448726 0.0931279
vt 0.0433012 0.0483632
vt 0.0703012 0.0483632
vt 0.0433012 0.0931279
vt 0.2877297 0.0483632
vt 0.0433012 0.0483632
vt 0.0703012 0.0428044
vt 0.0703012 0.0483632
vt 0.0703012 0.0483632
vt 0.0703012 0.0986867
vt 0.3147297 0.0483632
vt 0.0433012 0.0483632
vt 0.1448726 0.0428044
vt 0.1448726 0.0483632
vt 0.1448726 0.0483632
vt 0.1448726 0.0986867
vt 0.3147297 0.0483632
vt 0.0703012 0.0483632
vt 0.1718726 0.0483632
vt 0.1718726 0.0931279
vt 0.2877297 0.0483632
vt 0.0993962 0.0790918
vt 0.2136819 0.0790918
vt 0.0993962 0.4349742
vt 0.2136819 0.4349742
vt 0.0993962 0.0717389
vt 0.0993962 0.0790918
vt 0.0993962 0.0717389
vt 0.2136819 0.0717389
vt 0.2136819 0.0790918
vt 0.0636819 0.0790918
vt 0.0993962 0.0790918
vt 0.0993962 0.0790918
vt 0.2493962 0.0790918
vt 0.0636819 0.4349742
vt 0.0993962 0.4349742
vt 0.0993962 0.4349742
vt 0.2493962 0.4349742
vt 0.0993962 0.0790918
vt 0.0993962 0.4423271
vt 0.0993962 0.4423271
vt 0.2136819 0.0790918
vt 0.2136819 0.4423271
vt 0.0518324 0.7003179
vt 0.1264039 0.7003179
vt 0.0248324 0.7003179
vt 0.0518324 0.7003179
vt 0.0518324 0.7003179
vt 0.1534039 0.7003179
vt 0.0248324 0.7003179
vt 0.1549753 0.7003179
vt 0.1534039 0.7003179
vt 0.1549753 0.7003179
vt 0.0518324 0.7003179
vt 0.1264039 0.7003179
vt 0.0532719 0.6753428
vt 0.1278433 0.6753428
vt 0.0262719 0.6753428
vt 0.0532719 0.6753428
vt 0.0532719 0.6753428
vt 0.1548433 0.6753428
vt 0.0262719 0.6753428
vt 0.1564148 0.6753428
vt 0.1548433 0.6753428
vt 0.1564148 0.6753428
vt 0.0532719 0.6753428
vt 0.1278433 0.6753428
vt 0.0518324 0.1232003
vt 0.0518324 0.7058767
vt 0.0518324 0.7058767
vt 0.1264039 0.1232003
vt 0.1264039 0.7058767
vt 0.0518324 0.1444356
vt 0.0518324 0.7058767
vt 0.1549753 0.7058767
vt 0.1264039 0.1444356
vt 0.1264039 0.7058767
vt 0.1549753 0.7058767
vt 0.0532719 0.0982252
vt 0.0532719 0.6809016
vt 0.0532719 0.6809016
vt 0.1278433 0.0982252
vt 0.1278433 0.6809016
vt 0.0532719 0.1194605
vt 0.0532719 0.6809016
vt 0.1564148 0.6809016
vt 0.1278433 0.1194605
vt 0.1278433 0.6809016
vt 0.1564148 0.6809016
vt 0.0993962 0.0717389
vt 0.0993962 0.1026212
vt 0.2136819 0.0717389
vt 0.2136819 0.0717389
vt 0.2136819 0.1026212
vt 0.0636819 0.0790918
vt 0.2136819 0.0790918
vt 0.2136819 0.0790918
vt 0.2493962 0.0790918
vt 0.0636819 0.4349742
vt 0.2136819 0.4349742
vt 0.2136819 0.4349742
vt 0.2493962 0.4349742
vt 0.0993962 0.1026212
vt 0.0993962 0.4423271
vt 0.2136819 0.4423271
vt 0.2136819 0.1026212
vt 0.2136819 0.4423271
vt 0.0993962 0.0790918
vt 0.2136819 0.0790918
vt 0.0993962 0.4349742
vt 0.2136819 0.4349742
vt 0.0433012 0.0483632
vt 0.0703012 0.0931279
vt 0.0433012 0.0931279
vt 0.2877297 0.0931279
vt 0.0433012 0.0931279
vt 0.0703012 0.0428044
vt 0.0703012 0.0931279
vt 0.0703012 0.0931279
vt 0.0703012 0.0986867
vt 0.3147297 0.0931279
vt 0.0433012 0.0931279
vt 0.1448726 0.0428044
vt 0.1448726 0.0931279
vt 0.1448726 0.0931279
vt 0.1448726 0.0986867
vt 0.3147297 0.0931279
vt 0.0703012 0.0931279
vt 0.1718726 0.0483632
vt 0.1718726 0.0931279
vt 0.2877297 0.0931279
vt 0.0703012 0.0483632
vt 0.0703012 0.0931279
vt 0.1448726 0.0483632
vt 0.1448726 0.0931279
vn -0.9258987 -0.3529731 -0.1346167
vn -0.9826151 -0.1506198 0.1085414
vn -0.9648989 0.2564921 -0.0564076
vn -0.9609773 0.2554497 0.1061512
vn -0.0614332 -0.9962188 -0.0614332
vn -0.0614332 -0.9962188 -0.0614332
vn -0.1858009 -0.9776548 0.0983314
vn -0.1858009 -0.9776548 0.0983314
vn -0.0824865 -0.3750756 -0.9233170
vn -0.0824865 -0.3750756 -0.9233170
vn -0.0824865 -0.3750756 -0.9233170
vn -0.0824865 -0.3750756 0.9233170
vn -0.0824865 -0.3750756 0.9233170
vn -0.0824865 -0.3750756 0.9233170
vn -0.0937805 0.2458982 -0.9647483
vn -0.0937805 0.2458982 -0.9647483
vn -0.0937805 0.2458982 -0.9647483
vn -0.0937805 0.2458982 0.9647483
vn -0.0937805 0.2458982 0.9647483
vn -0.0937805 0.2458982 0.9647483
vn -0.1091381 0.9880171 -0.1091381
vn -0.1091381 0.9880171 -0.1091381
vn -0.1096090 0.9922807 0.0580084
vn -0.1096090 0.9922807 0.0580084
vn -0.9352274 -0.0267125 -0.3530386
vn -0.9727581 -0.0099464 0.2316091
vn -0.9907931 0.0200565 -0.1338910
vn -0.9726176 0.0196886 0.2315756
vn -0.1473390 -0.9780503 -0.1473390
vn -0.1473390 -0.9780503 -0.1473390
vn -0.3287410 -0.9258057 0.1865827
vn -0.3287410 -0.9258057 0.1865827
vn -0.3287410 -0.9258057 0.1865827
vn -0.2281538 -0.0341769 -0.9730251
vn -0.2281538 -0.0341769 -0.9730251
vn -0.1338910 -0.0200565 0.9907931
vn -0.1338910 -0.0200565 0.9907931
vn -0.2298903 0.0173946 -0.9730611
vn -0.2298903 0.0173946 -0.9730611
vn -0.3569794 0.0153304 0.9339865
vn -0.3569794 0.0153304 0.9339865
vn -0.1473390 0.9780503 -0.1473390
vn -0.1473390 0.9780503 -0.1473390
vn -0.2822369 0.9168886 0.2822369
vn -0.2822369 0.9168886 0.2822369
vn -0.2822369 0.9168886 0.2822369
vn -0.9159695 -0.2417828 -0.3202200
vn -0.9159695 -0.2417828 -0.3202200
vn -0.9604482 -0.1111603 0.2553090
vn -0.9604482 -0.1111603 0.2553090
vn -0.9604482 -0.1111603 0.2553090
vn -0.9683044 0.2008886 -0.1484262
vn -0.9683044 0.2008886 -0.1484262
vn -0.9683044 0.2008886 -0.1484262
vn -0.9475786 0.1965888 0.2518880
vn -0.9475786 0.1965888 0.2518880
vn -0.9475786 0.1965888 0.2518880
vn -0.9159695 -0.2417828 -0.3202200
vn -0.9159695 -0.2417828 -0.3202200
vn -0.9604482 -0.1111603 0.2553090
vn -0.9604482 -0.1111603 0.2553090
vn -0.9604482 -0.1111603 0.2553090
vn -0.9683044 0.2008886 -0.1484262
vn -0.9683044 0.2008886 -0.1484262
vn -0.9683044 0.2008886 -0.1484262
vn -0.9475786 0.1965888 0.2518880
vn -0.9475786 0.1965888 0.2518880
vn -0.9475786 0.1965888 0.2518880
vn -0.0054592 -0.9883480 -0.1521130
vn -0.0158831 -0.9667581 0.2551989
vn -0.0074866 -0.3240626 -0.9460060
vn -0.0074866 -0.3240626 -0.9460060
vn -0.0074866 -0.3240626 0.9460060
vn -0.0074866 -0.3240626 0.9460060
vn -0.0083816 0.2023944 -0.9792682
vn -0.0083816 0.2023944 -0.9792682
vn -0.0083816 0.2023944 0.9792682
vn -0.0083816 0.2023944 0.9792682
vn -0.0054592 0.9883480 -0.1521130
vn -0.0158831 0.9667581 0.2551989
vn -0.0054592 -0.9883480 -0.1521130
vn -0.0158831 -0.9667581 0.2551989
vn -0.0074866 -0.3240626 -0.9460060
vn -0.0074866 -0.3240626 -0.9460060
vn -0.0074866 -0.3240626 0.9460060
vn -0.0074866 -0.3240626 0.9460060
vn -0.0083816 0.2023944 -0.9792682
vn -0.0083816 0.2023944 -0.9792682
vn -0.0083816 0.2023944 0.9792682
vn -0.0083816 0.2023944 0.9792682
vn -0.0054592 0.9883480 -0.1521130
vn -0.0158831 0.9667581 0.2551989
vn 0.1865827 -0.9258057 -0.3287410
vn 0.1865827 -0.9258057 -0.3287410
vn 0.1865827 -0.9258057 -0.3287410
vn 0.2064625 -0.9564238 0.2064625
vn 0.2064625 -0.9564238 0.2064625
vn 0.1350701 -0.0114837 -0.9907695
vn 0.1350701 -0.0114837 -0.9907695
vn 0.2315756 -0.0196886 0.9726176
vn 0.2315756 -0.0196886 0.9726176
vn 0.3569794 0.0153304 -0.9339865
vn 0.3569794 0.0153304 -0.9339865
vn 0.2298903 0.0173946 0.9730611
vn 0.2298903 0.0173946 0.9730611
vn 0.1865827 0.9258057 -0.3287410
vn 0.1865827 0.9258057 -0.3287410
vn 0.1865827 0.9258057 -0.3287410
vn 0.2296447 0.9645077 0.1303389
vn 0.2296447 0.9645077 0.1303389
vn 0.9352274 -0.0267125 -0.3530386
vn 0.9727581 -0.0099464 0.2316091
vn 0.9907931 0.0200565 -0.1338910
vn 0.9726176 0.0196886 0.2315756
vn 0.0983314 -0.9776548 -0.1858009
vn 0.0983314 -0.9776548 -0.1858009
vn 0.1038626 -0.9891537 0.1038626
vn 0.1038626 -0.9891537 0.1038626
vn 0.1085414 -0.1506198 -0.9826151
vn 0.1085414 -0.1506198 -0.9826151
vn 0.1085414 -0.1506198 -0.9826151
vn 0.1085414 -0.1506198 0.9826151
vn 0.1085414 -0.1506198 0.9826151
vn 0.1085414 -0.1506198 0.9826151
vn 0.1061512 0.2554497 -0.9609773
vn 0.1061512 0.2554497 -0.9609773
vn 0.1061512 0.2554497 -0.9609773
vn 0.1061512 0.2554497 0.9609773
vn 0.1061512 0.2554497 0.9609773
vn 0.1061512 0.2554497 0.9609773
vn 0.0580084 0.9922807 -0.1096090
vn 0.0580084 0.9922807 -0.1096090
vn 0.1693631 0.9708925 0.1693631
vn 0.1693631 0.9708925 0.1693631
vn 0.9233170 -0.3750756 -0.0824865
vn 0.9851747 -0.1584207 0.0658312
vn 0.9647483 0.2458982 -0.0937805
vn 0.9570125 0.2353123 0.1695734
vn -0.9258987 -0.3529731 -0.1346167
vn -0.9826151 -0.1506198 0.1085414
vn -0.9648989 0.2564921 -0.0564076
vn -0.9609773 0.2554497 0.1061512
vn -0.0614332 -0.9962188 -0.0614332
vn -0.0614332 -0.9962188 -0.0614332
vn -0.1858009 -0.9776548 0.0983314
vn -0.1858009 -0.9776548 0.0983314
vn -0.0824865 -0.3750756 -0.9233170
vn -0.0824865 -0.3750756 -0.9233170
vn -0.0824865 -0.3750756 -0.9233170
vn -0.0824865 -0.3750756 0.9233170
vn -0.0824865 -0.3750756 0.9233170
vn -0.0824865 -0.3750756 0.9233170
vn -0.0937805 0.2458982 -0.9647483
vn -0.0937805 0.2458982 -0.9647483
vn -0.0937805 0.2458982 -0.9647483
vn -0.0937805 0.2458982 0.9647483
vn -0.0937805 0.2458982 0.9647483
vn -0.0937805 0.2458982 0.9647483
vn -0.1091381 0.9880171 -0.1091381
vn -0.1091381 0.9880171 -0.1091381
vn -0.1096090 0.9922807 0.0580084
vn -0.1096090 0.9922807 0.0580084
vn -0.9352274 -0.0267125 -0.3530386
vn -0.9727581 -0.0099464 0.2316091
vn -0.9907931 0.0200565 -0.1338910
vn -0.9726176 0.0196886 0.2315756
vn -0.1473390 -0.9780503 -0.1473390
vn -0.1473390 -0.9780503 -0.1473390
vn -0.3287410 -0.9258057 0.1865827
vn -0.3287410 -0.9258057 0.1865827
vn -0.3287410 -0.9258057 0.1865827
vn -0.2281538 -0.0341769 -0.9730251
vn -0.2281538 -0.0341769 -0.9730251
vn -0.1338910 -0.0200565 0.9907931
vn -0.1338910 -0.0200565 0.9907931
vn -0.2298903 0.0173946 -0.9730611
vn -0.2298903 0.0173946 -0.9730611
vn -0.3569794 0.0153304 0.9339865
vn -0.3569794 0.0153304 0.9339865
vn -0.1473390 0.9780503 -0.1473390
vn -0.1473390 0.9780503 -0.1473390
vn -0.2822369 0.9168886 0.2822369
vn -0.2822369 0.9168886 0.2822369
vn -0.2822369 0.9168886 0.2822369
vn 0.0069654 -0.9223427 -0.3863100
vn 0.0080063 -0.9666300 0.2560513
vn 0.0094765 -0.1149653 -0.9933243
vn 0.0094765 -0.1149653 -0.9933243
vn 0.0053089 -0.1154493 0.9932992
vn 0.0053089 -0.1154493 0.9932992
vn 0.0093408 0.2031298 -0.9791073
vn 0.0093408 0.2031298 -0.9791073
vn 0.0166217 0.2016487 0.9793169
vn 0.0166217 0.2016487 0.9793169
vn 0.0069654 0.9223427 -0.3863100
vn 0.0080063 0.9666300 0.2560513
vn 0.0069654 -0.9223427 -0.3863100
vn 0.0080063 -0.9666300 0.2560513
vn 0.0094765 -0.1149653 -0.9933243
vn 0.0094765 -0.1149653 -0.9933243
vn 0.0053089 -0.1154493 0.9932992
vn 0.0053089 -0.1154493 0.9932992
vn 0.0093408 0.2031298 -0.9791073
vn 0.0093408 0.2031298 -0.9791073
vn 0.0166217 0.2016487 0.9793169
vn 0.0166217 0.2016487 0.9793169
vn 0.0069654 0.9223427 -0.3863100
vn 0.0080063 0.9666300 0.2560513
vn 0.9322214 -0.2910613 -0.2150502
vn 0.9322214 -0.2910613 -0.2150502
vn 0.9604482 -0.1111603 0.2553090
vn 0.9604482 -0.1111603 0.2553090
vn 0.9604482 -0.1111603 0.2553090
vn 0.9559650 0.1768449 -0.2342155
vn 0.9559650 0.1768449 -0.2342155
vn 0.9559650 0.1768449 -0.2342155
vn 0.9475786 0.1965888 0.2518880
vn 0.9475786 0.1965888 0.2518880
vn 0.9475786 0.1965888 0.2518880
vn 0.9322214 -0.2910613 -0.2150502
vn 0.9322214 -0.2910613 -0.2150502
vn 0.9604482 -0.1111603 0.2553090
vn 0.9604482 -0.1111603 0.2553090
vn 0.9604482 -0.1111603 0.2553090
vn 0.9559650 0.1768449 -0.2342155
vn 0.9559650 0.1768449 -0.2342155
vn 0.9559650 0.1768449 -0.2342155
vn 0.9475786 0.1965888 0.2518880
vn 0.9475786 0.1965888 0.2518880
vn 0.9475786 0.1965888 0.2518880
vn 0.1865827 -0.9258057 -0.3287410
vn 0.1865827 -0.9258057 -0.3287410
vn 0.1865827 -0.9258057 -0.3287410
vn 0.2064625 -0.9564238 0.2064625
vn 0.2064625 -0.9564238 0.2064625
vn 0.1350701 -0.0114837 -0.9907695
vn 0.1350701 -0.0114837 -0.9907695
vn 0.2315756 -0.0196886 0.9726176
vn 0.2315756 -0.0196886 0.9726176
vn 0.3569794 0.0153304 -0.9339865
vn 0.3569794 0.0153304 -0.9339865
vn 0.2298903 0.0173946 0.9730611
vn 0.2298903 0.0173946 0.9730611
vn 0.1865827 0.9258057 -0.3287410
vn 0.1865827 0.9258057 -0.3287410
vn 0.1865827 0.9258057 -0.3287410
vn 0.2296447 0.9645077 0.1303389
vn 0.2296447 0.9645077 0.1303389
vn 0.9352274 -0.0267125 -0.3530386
vn 0.9727581 -0.0099464 0.2316091
vn 0.9907931 0.0200565 -0.1338910
vn 0.9726176 0.0196886 0.2315756
vn 0.0983314 -0.9776548 -0.1858009
vn 0.0983314 -0.9776548 -0.1858009
vn 0.1038626 -0.9891537 0.1038626
vn 0.1038626 -0.9891537 0.1038626
vn 0.1085414 -0.1506198 -0.9826151
vn 0.1085414 -0.1506198 -0.9826151
vn 0.1085414 -0.1506198 -0.9826151
vn 0.1085414 -0.1506198 0.9826151
vn 0.1085414 -0.1506198 0.9826151
vn 0.1085414 -0.1506198 0.9826151
vn 0.1061512 0.2554497 -0.9609773
vn 0.1061512 0.2554497 -0.9609773
vn 0.1061512 0.2554497 -0.9609773
vn 0.1061512 0.2554497 0.9609773
vn 0.1061512 0.2554497 0.9609773
vn 0.1061512 0.2554497 0.9609773
vn 0.0580084 0.9922807 -0.1096090
vn 0.0580084 0.9922807 -0.1096090
vn 0.1693631 0.9708925 0.1693631
vn 0.1693631 0.9708925 0.1693631
vn 0.9233170 -0.3750756 -0.0824865
vn 0.9851747 -0.1584207 0.0658312
vn 0.9647483 0.2458982 -0.0937805
vn 0.9570125 0.2353123 0.1695734
o 10_Valla_Travesanos_Wood
usemtl Wood
s 1
f 41/41/41 46/46/46 28/28/28
f 29/29/29 25/25/25 34/34/34
f 102/102/102 107/107/107 113/113/113
f 93/93/93 98/98/98 111/111/111
f 105/105/105 114/114/114 110/110/110
f 38/38/38 27/27/27 43/43/43
f 32/32/32 37/37/37 26/26/26
f 96/96/96 112/112/112 101/101/101
f 112/112/112 111/111/111 113/113/113
f 112/112/112 113/113/113 114/114/114
f 27/27/27 25/25/25 26/26/26
f 27/27/27 26/26/26 28/28/28
f 46/46/46 27/27/27 28/28/28
f 46/46/46 43/43/43 27/27/27
f 41/41/41 26/26/26 37/37/37
f 41/41/41 28/28/28 26/26/26
f 110/110/110 114/114/114 113/113/113
f 110/110/110 113/113/113 107/107/107
f 109/109/109 42/42/42 45/45/45
f 109/109/109 106/106/106 42/42/42
f 102/102/102 113/113/113 111/111/111
f 102/102/102 111/111/111 98/98/98
f 95/95/95 35/35/35 99/99/99
f 95/95/95 29/29/29 35/35/35
f 104/104/104 110/110/110 44/44/44
f 104/104/104 44/44/44 40/40/40
f 105/105/105 112/112/112 114/114/114
f 105/105/105 101/101/101 112/112/112
f 104/104/104 40/40/40 36/36/36
f 104/104/104 36/36/36 100/100/100
f 39/39/39 43/43/43 108/108/108
f 39/39/39 108/108/108 103/103/103
f 38/38/38 25/25/25 27/27/27
f 38/38/38 34/34/34 25/25/25
f 39/39/39 103/103/103 99/99/99
f 39/39/39 99/99/99 35/35/35
f 32/32/32 26/26/26 25/25/25
f 32/32/32 25/25/25 29/29/29
f 96/96/96 111/111/111 112/112/112
f 96/96/96 93/93/93 111/111/111
f 97/97/97 30/30/30 94/94/94
f 97/97/97 33/33/33 30/30/30
f 96/96/96 100/100/100 36/36/36
f 96/96/96 36/36/36 31/31/31
f 138/138/138 133/133/133 129/129/129
f 5/5/5 1/1/1 10/10/10
f 19/19/19 23/23/23 4/4/4
f 137/137/137 126/126/126 132/132/132
f 16/16/16 3/3/3 22/22/22
f 7/7/7 13/13/13 2/2/2
f 115/115/115 120/120/120 135/135/135
f 117/117/117 136/136/136 123/123/123
f 3/3/3 1/1/1 2/2/2
f 3/3/3 2/2/2 4/4/4
f 24/24/24 134/134/134 131/131/131
f 24/24/24 131/131/131 21/21/21
f 23/23/23 3/3/3 4/4/4
f 23/23/23 22/22/22 3/3/3
f 19/19/19 4/4/4 2/2/2
f 19/19/19 2/2/2 13/13/13
f 20/20/20 134/134/134 24/24/24
f 20/20/20 130/130/130 134/134/134
f 137/137/137 120/120/120 126/126/126
f 137/137/137 135/135/135 120/120/120
f 137/137/137 136/136/136 135/135/135
f 137/137/137 138/138/138 136/136/136
f 137/137/137 132/132/132 133/133/133
f 137/137/137 133/133/133 138/138/138
f 15/15/15 21/21/21 131/131/131
f 15/15/15 131/131/131 125/125/125
f 17/17/17 127/127/127 121/121/121
f 17/17/17 121/121/121 11/11/11
f 16/16/16 1/1/1 3/3/3
f 16/16/16 10/10/10 1/1/1
f 122/122/122 18/18/18 12/12/12
f 122/122/122 128/128/128 18/18/18
f 123/123/123 136/136/136 138/138/138
f 123/123/123 138/138/138 129/129/129
f 7/7/7 2/2/2 1/1/1
f 7/7/7 1/1/1 5/5/5
f 116/116/116 9/9/9 119/119/119
f 116/116/116 6/6/6 9/9/9
f 118/118/118 124/124/124 14/14/14
f 118/118/118 14/14/14 8/8/8
f 118/118/118 8/8/8 6/6/6
f 118/118/118 6/6/6 116/116/116
f 117/117/117 135/135/135 136/136/136
f 117/117/117 115/115/115 135/135/135
f 179/179/179 184/184/184 166/166/166
f 167/167/167 163/163/163 172/172/172
f 240/240/240 245/245/245 251/251/251
f 231/231/231 236/236/236 249/249/249
f 243/243/243 252/252/252 248/248/248
f 176/176/176 165/165/165 181/181/181
f 170/170/170 175/175/175 164/164/164
f 234/234/234 250/250/250 239/239/239
f 250/250/250 249/249/249 251/251/251
f 250/250/250 251/251/251 252/252/252
f 165/165/165 163/163/163 164/164/164
f 165/165/165 164/164/164 166/166/166
f 184/184/184 165/165/165 166/166/166
f 184/184/184 181/181/181 165/165/165
f 179/179/179 164/164/164 175/175/175
f 179/179/179 166/166/166 164/164/164
f 248/248/248 252/252/252 251/251/251
f 248/248/248 251/251/251 245/245/245
f 247/247/247 180/180/180 183/183/183
f 247/247/247 244/244/244 180/180/180
f 240/240/240 251/251/251 249/249/249
f 240/240/240 249/249/249 236/236/236
f 233/233/233 173/173/173 237/237/237
f 233/233/233 167/167/167 173/173/173
f 242/242/242 248/248/248 182/182/182
f 242/242/242 182/182/182 178/178/178
f 243/243/243 250/250/250 252/252/252
f 243/243/243 239/239/239 250/250/250
f 242/242/242 178/178/178 174/174/174
f 242/242/242 174/174/174 238/238/238
f 177/177/177 181/181/181 246/246/246
f 177/177/177 246/246/246 241/241/241
f 176/176/176 163/163/163 165/165/165
f 176/176/176 172/172/172 163/163/163
f 177/177/177 241/241/241 237/237/237
f 177/177/177 237/237/237 173/173/173
f 170/170/170 164/164/164 163/163/163
f 170/170/170 163/163/163 167/167/167
f 234/234/234 249/249/249 250/250/250
f 234/234/234 231/231/231 249/249/249
f 235/235/235 168/168/168 232/232/232
f 235/235/235 171/171/171 168/168/168
f 234/234/234 238/238/238 174/174/174
f 234/234/234 174/174/174 169/169/169
f 276/276/276 271/271/271 267/267/267
f 143/143/143 139/139/139 148/148/148
f 157/157/157 161/161/161 142/142/142
f 275/275/275 264/264/264 270/270/270
f 154/154/154 141/141/141 160/160/160
f 145/145/145 151/151/151 140/140/140
f 253/253/253 258/258/258 273/273/273
f 255/255/255 274/274/274 261/261/261
f 141/141/141 139/139/139 140/140/140
f 141/141/141 140/140/140 142/142/142
f 162/162/162 272/272/272 269/269/269
f 162/162/162 269/269/269 159/159/159
f 161/161/161 141/141/141 142/142/142
f 161/161/161 160/160/160 141/141/141
f 157/157/157 142/142/142 140/140/140
f 157/157/157 140/140/140 151/151/151
f 158/158/158 272/272/272 162/162/162
f 158/158/158 268/268/268 272/272/272
f 275/275/275 258/258/258 264/264/264
f 275/275/275 273/273/273 258/258/258
f 275/275/275 274/274/274 273/273/273
f 275/275/275 276/276/276 274/274/274
f 275/275/275 270/270/270 271/271/271
f 275/275/275 271/271/271 276/276/276
f 153/153/153 159/159/159 269/269/269
f 153/153/153 269/269/269 263/263/263
f 155/155/155 265/265/265 259/259/259
f 155/155/155 259/259/259 149/149/149
f 154/154/154 139/139/139 141/141/141
f 154/154/154 148/148/148 139/139/139
f 260/260/260 156/156/156 150/150/150
f 260/260/260 266/266/266 156/156/156
f 261/261/261 274/274/274 276/276/276
f 261/261/261 276/276/276 267/267/267
f 145/145/145 140/140/140 139/139/139
f 145/145/145 139/139/139 143/143/143
f 254/254/254 147/147/147 257/257/257
f 254/254/254 144/144/144 147/147/147
f 256/256/256 262/262/262 152/152/152
f 256/256/256 152/152/152 146/146/146
f 256/256/256 146/146/146 144/144/144
f 256/256/256 144/144/144 254/254/254
f 255/255/255 273/273/273 274/274/274
f 255/255/255 253/253/253 273/273/273
f 69/69/69 47/47/47 71/71/71
f 196/196/196 193/193/193 218/218/218
f 77/77/77 80/80/80 55/55/55
f 215/215/215 191/191/191 195/195/195
f 75/75/75 52/52/52 79/79/79
f 70/70/70 74/74/74 50/50/50
f 185/185/185 187/187/187 210/210/210
f 186/186/186 213/213/213 190/190/190
f 53/53/53 48/48/48 51/51/51
f 53/53/53 51/51/51 56/56/56
f 80/80/80 52/52/52 55/55/55
f 80/80/80 79/79/79 52/52/52
f 196/196/196 79/79/79 80/80/80
f 196/196/196 195/195/195 79/79/79
f 78/78/78 57/57/57 49/49/49
f 78/78/78 49/49/49 73/73/73
f 78/78/78 73/73/73 189/189/189
f 78/78/78 189/189/189 194/194/194
f 77/77/77 196/196/196 80/80/80
f 77/77/77 193/193/193 196/196/196
f 211/211/211 194/194/194 189/189/189
f 211/211/211 219/219/219 194/194/194
f 214/214/214 217/217/217 212/212/212
f 214/214/214 212/212/212 209/209/209
f 216/216/216 210/210/210 188/188/188
f 216/216/216 188/188/188 192/192/192
f 215/215/215 195/195/195 196/196/196
f 215/215/215 196/196/196 218/218/218
f 75/75/75 79/79/79 195/195/195
f 75/75/75 195/195/195 191/191/191
f 76/76/76 192/192/192 188/188/188
f 76/76/76 188/188/188 72/72/72
f 76/76/76 47/47/47 54/54/54
f 76/76/76 72/72/72 47/47/47
f 70/70/70 50/50/50 47/47/47
f 70/70/70 47/47/47 69/69/69
f 185/185/185 71/71/71 187/187/187
f 185/185/185 69/69/69 71/71/71
f 186/186/186 210/210/210 213/213/213
f 186/186/186 185/185/185 210/210/210
f 186/186/186 190/190/190 74/74/74
f 186/186/186 74/74/74 70/70/70
f 186/186/186 70/70/70 69/69/69
f 186/186/186 69/69/69 185/185/185
f 81/81/81 58/58/58 83/83/83
f 208/208/208 205/205/205 229/229/229
f 89/89/89 92/92/92 66/66/66
f 226/226/226 203/203/203 207/207/207
f 87/87/87 63/63/63 91/91/91
f 82/82/82 86/86/86 61/61/61
f 197/197/197 199/199/199 221/221/221
f 198/198/198 224/224/224 202/202/202
f 64/64/64 59/59/59 62/62/62
f 64/64/64 62/62/62 67/67/67
f 92/92/92 63/63/63 66/66/66
f 92/92/92 91/91/91 63/63/63
f 208/208/208 91/91/91 92/92/92
f 208/208/208 207/207/207 91/91/91
f 90/90/90 68/68/68 60/60/60
f 90/90/90 60/60/60 85/85/85
f 90/90/90 85/85/85 201/201/201
f 90/90/90 201/201/201 206/206/206
f 89/89/89 208/208/208 92/92/92
f 89/89/89 205/205/205 208/208/208
f 222/222/222 206/206/206 201/201/201
f 222/222/222 230/230/230 206/206/206
f 225/225/225 228/228/228 223/223/223
f 225/225/225 223/223/223 220/220/220
f 227/227/227 221/221/221 200/200/200
f 227/227/227 200/200/200 204/204/204
f 226/226/226 207/207/207 208/208/208
f 226/226/226 208/208/208 229/229/229
f 87/87/87 91/91/91 207/207/207
f 87/87/87 207/207/207 203/203/203
f 88/88/88 204/204/204 200/200/200
f 88/88/88 200/200/200 84/84/84
f 88/88/88 58/58/58 65/65/65
f 88/88/88 84/84/84 58/58/58
f 82/82/82 61/61/61 58/58/58
f 82/82/82 58/58/58 81/81/81
f 197/197/197 83/83/83 199/199/199
f 197/197/197 81/81/81 83/83/83
f 198/198/198 221/221/221 224/224/224
f 198/198/198 197/197/197 221/221/221
f 198/198/198 202/202/202 86/86/86
f 198/198/198 86/86/86 82/82/82
f 198/198/198 82/82/82 81/81/81
f 198/198/198 81/81/81 197/197/197
