# metres; Y up; ground-centred pivot
mtllib 11_Valla_Cruzada.mtl
v -1.0950000 1.2539000 -0.0761000
v -1.0950000 1.2539000 0.0761000
v -1.0950000 1.3061000 -0.0761000
v -1.0950000 1.3061000 0.0761000
v -1.0761000 1.2350000 -0.0761000
v -1.0761000 1.2350000 -0.0761000
v -1.0761000 1.2350000 0.0761000
v -1.0761000 1.2350000 0.0761000
v -1.0761000 1.2539000 -0.0950000
v -1.0761000 1.2539000 -0.0950000
v -1.0761000 1.2539000 -0.0950000
v -1.0761000 1.2539000 0.0950000
v -1.0761000 1.2539000 0.0950000
v -1.0761000 1.2539000 0.0950000
v -1.0761000 1.3061000 -0.0950000
v -1.0761000 1.3061000 -0.0950000
v -1.0761000 1.3061000 -0.0950000
v -1.0761000 1.3061000 0.0950000
v -1.0761000 1.3061000 0.0950000
v -1.0761000 1.3061000 0.0950000
v -1.0761000 1.3250000 -0.0761000
v -1.0761000 1.3250000 -0.0761000
v -1.0761000 1.3250000 0.0761000
v -1.0761000 1.3250000 0.0761000
v -1.0650000 0.0250000 -0.0400000
v -1.0650000 0.0250000 0.0400000
v -1.0650000 1.2350000 -0.0400000
v -1.0650000 1.2350000 0.0400000
v -1.0400000 0.0000000 -0.0400000
v -1.0400000 0.0000000 -0.0400000
v -1.0400000 0.0000000 0.0400000
v -1.0400000 0.0000000 0.0400000
v -1.0400000 0.0000000 0.0400000
v -1.0400000 0.0250000 -0.0650000
v -1.0400000 0.0250000 -0.0650000
v -1.0400000 0.0250000 0.0650000
v -1.0400000 0.0250000 0.0650000
v -1.0400000 1.2350000 -0.0650000
v -1.0400000 1.2350000 -0.0650000
v -1.0400000 1.2350000 0.0650000
v -1.0400000 1.2350000 0.0650000
v -1.0400000 1.2600000 -0.0400000
v -1.0400000 1.2600000 -0.0400000
v -1.0400000 1.2600000 0.0400000
v -1.0400000 1.2600000 0.0400000
v -1.0400000 1.2600000 0.0400000
v -1.0150366 0.3581098 -0.0817500
v -1.0150366 0.3581098 -0.0382500
v -1.0150366 0.9418902 0.0382500
v -1.0150366 0.9418902 0.0817500
v -1.0046564 0.3778171 -0.0817500
v -1.0046564 0.3778171 -0.0817500
v -1.0046564 0.3778171 -0.0382500
v -1.0046564 0.3778171 -0.0382500
v -1.0046564 0.9221829 0.0382500
v -1.0046564 0.9221829 0.0382500
v -1.0046564 0.9221829 0.0817500
v -1.0046564 0.9221829 0.0817500
v -1.0021563 0.3165604 -0.0817500
v -1.0021563 0.3165604 -0.0382500
v -1.0021563 0.9834396 0.0382500
v -1.0021563 0.9834396 0.0817500
v -1.0000000 0.3139000 -0.0261000
v -1.0000000 0.3139000 -0.0261000
v -1.0000000 0.3139000 0.0261000
v -1.0000000 0.3139000 0.0261000
v -1.0000000 0.3139000 0.0261000
v -1.0000000 0.3861000 -0.0261000
v -1.0000000 0.3861000 -0.0261000
v -1.0000000 0.3861000 -0.0261000
v -1.0000000 0.3861000 0.0261000
v -1.0000000 0.3861000 0.0261000
v -1.0000000 0.3861000 0.0261000
v -1.0000000 0.8839000 -0.0261000
v -1.0000000 0.8839000 -0.0261000
v -1.0000000 0.8839000 0.0261000
v -1.0000000 0.8839000 0.0261000
v -1.0000000 0.8839000 0.0261000
v -1.0000000 0.9561000 -0.0261000
v -1.0000000 0.9561000 -0.0261000
v -1.0000000 0.9561000 -0.0261000
v -1.0000000 0.9561000 0.0261000
v -1.0000000 0.9561000 0.0261000
v -1.0000000 0.9561000 0.0261000
v -0.9999928 0.3627733 -0.0975000
v -0.9999928 0.3627733 -0.0975000
v -0.9999928 0.3627733 -0.0975000
v -0.9999928 0.3627733 -0.0225000
v -0.9999928 0.3627733 -0.0225000
v -0.9999928 0.3627733 -0.0225000
v -0.9999928 0.9372267 0.0225000
v -0.9999928 0.9372267 0.0225000
v -0.9999928 0.9372267 0.0975000
v -0.9999928 0.9372267 0.0975000
v -0.9871125 0.3212240 -0.0975000
v -0.9871125 0.3212240 -0.0975000
v -0.9871125 0.3212240 -0.0225000
v -0.9871125 0.3212240 -0.0225000
v -0.9871125 0.9787760 0.0225000
v -0.9871125 0.9787760 0.0225000
v -0.9871125 0.9787760 0.0225000
v -0.9871125 0.9787760 0.0975000
v -0.9871125 0.9787760 0.0975000
v -0.9871125 0.9787760 0.0975000
v -0.9824490 0.3061803 -0.0817500
v -0.9824490 0.3061803 -0.0817500
v -0.9824490 0.3061803 -0.0382500
v -0.9824490 0.3061803 -0.0382500
v -0.9824490 0.9938197 0.0382500
v -0.9824490 0.9938197 0.0382500
v -0.9824490 0.9938197 0.0817500
v -0.9824490 0.9938197 0.0817500
v -0.9811000 0.2950000 -0.0261000
v -0.9811000 0.2950000 0.0261000
v -0.9811000 0.3139000 -0.0450000
v -0.9811000 0.3139000 -0.0450000
v -0.9811000 0.3139000 0.0450000
v -0.9811000 0.3139000 0.0450000
v -0.9811000 0.3861000 -0.0450000
v -0.9811000 0.3861000 -0.0450000
v -0.9811000 0.3861000 0.0450000
v -0.9811000 0.3861000 0.0450000
v -0.9811000 0.4050000 -0.0261000
v -0.9811000 0.4050000 0.0261000
v -0.9811000 0.8650000 -0.0261000
v -0.9811000 0.8650000 0.0261000
v -0.9811000 0.8839000 -0.0450000
v -0.9811000 0.8839000 -0.0450000
v -0.9811000 0.8839000 0.0450000
v -0.9811000 0.8839000 0.0450000
v -0.9811000 0.9561000 -0.0450000
v -0.9811000 0.9561000 -0.0450000
v -0.9811000 0.9561000 0.0450000
v -0.9811000 0.9561000 0.0450000
v -0.9811000 0.9750000 -0.0261000
v -0.9811000 0.9750000 0.0261000
v -0.9600000 0.0000000 -0.0400000
v -0.9600000 0.0000000 -0.0400000
v -0.9600000 0.0000000 -0.0400000
v -0.9600000 0.0000000 0.0400000
v -0.9600000 0.0000000 0.0400000
v -0.9600000 0.0250000 -0.0650000
v -0.9600000 0.0250000 -0.0650000
v -0.9600000 0.0250000 0.0650000
v -0.9600000 0.0250000 0.0650000
v -0.9600000 1.2350000 -0.0650000
v -0.9600000 1.2350000 -0.0650000
v -0.9600000 1.2350000 0.0650000
v -0.9600000 1.2350000 0.0650000
v -0.9600000 1.2600000 -0.0400000
v -0.9600000 1.2600000 -0.0400000
v -0.9600000 1.2600000 -0.0400000
v -0.9600000 1.2600000 0.0400000
v -0.9600000 1.2600000 0.0400000
v -0.9350000 0.0250000 -0.0400000
v -0.9350000 0.0250000 0.0400000
v -0.9350000 1.2350000 -0.0400000
v -0.9350000 1.2350000 0.0400000
v -0.9239000 1.2350000 -0.0761000
v -0.9239000 1.2350000 -0.0761000
v -0.9239000 1.2350000 0.0761000
v -0.9239000 1.2350000 0.0761000
v -0.9239000 1.2539000 -0.0950000
v -0.9239000 1.2539000 -0.0950000
v -0.9239000 1.2539000 -0.0950000
v -0.9239000 1.2539000 0.0950000
v -0.9239000 1.2539000 0.0950000
v -0.9239000 1.2539000 0.0950000
v -0.9239000 1.3061000 -0.0950000
v -0.9239000 1.3061000 -0.0950000
v -0.9239000 1.3061000 -0.0950000
v -0.9239000 1.3061000 0.0950000
v -0.9239000 1.3061000 0.0950000
v -0.9239000 1.3061000 0.0950000
v -0.9239000 1.3250000 -0.0761000
v -0.9239000 1.3250000 -0.0761000
v -0.9239000 1.3250000 0.0761000
v -0.9239000 1.3250000 0.0761000
v -0.9050000 1.2539000 -0.0761000
v -0.9050000 1.2539000 0.0761000
v -0.9050000 1.3061000 -0.0761000
v -0.9050000 1.3061000 0.0761000
v 0.9050000 1.2539000 -0.0761000
v 0.9050000 1.2539000 0.0761000
v 0.9050000 1.3061000 -0.0761000
v 0.9050000 1.3061000 0.0761000
v 0.9239000 1.2350000 -0.0761000
v 0.9239000 1.2350000 -0.0761000
v 0.9239000 1.2350000 0.0761000
v 0.9239000 1.2350000 0.0761000
v 0.9239000 1.2539000 -0.0950000
v 0.9239000 1.2539000 -0.0950000
v 0.9239000 1.2539000 -0.0950000
v 0.9239000 1.2539000 0.0950000
v 0.9239000 1.2539000 0.0950000
v 0.9239000 1.2539000 0.0950000
v 0.9239000 1.3061000 -0.0950000
v 0.9239000 1.3061000 -0.0950000
v 0.9239000 1.3061000 -0.0950000
v 0.9239000 1.3061000 0.0950000
v 0.9239000 1.3061000 0.0950000
v 0.9239000 1.3061000 0.0950000
v 0.9239000 1.3250000 -0.0761000
v 0.9239000 1.3250000 -0.0761000
v 0.9239000 1.3250000 0.0761000
v 0.9239000 1.3250000 0.0761000
v 0.9350000 0.0250000 -0.0400000
v 0.9350000 0.0250000 0.0400000
v 0.9350000 1.2350000 -0.0400000
v 0.9350000 1.2350000 0.0400000
v 0.9600000 0.0000000 -0.0400000
v 0.9600000 0.0000000 -0.0400000
v 0.9600000 0.0000000 0.0400000
v 0.9600000 0.0000000 0.0400000
v 0.9600000 0.0000000 0.0400000
v 0.9600000 0.0250000 -0.0650000
v 0.9600000 0.0250000 -0.0650000
v 0.9600000 0.0250000 0.0650000
v 0.9600000 0.0250000 0.0650000
v 0.9600000 1.2350000 -0.0650000
v 0.9600000 1.2350000 -0.0650000
v 0.9600000 1.2350000 0.0650000
v 0.9600000 1.2350000 0.0650000
v 0.9600000 1.2600000 -0.0400000
v 0.9600000 1.2600000 -0.0400000
v 0.9600000 1.2600000 0.0400000
v 0.9600000 1.2600000 0.0400000
v 0.9600000 1.2600000 0.0400000
v 0.9811000 0.2950000 -0.0261000
v 0.9811000 0.2950000 0.0261000
v 0.9811000 0.3139000 -0.0450000
v 0.9811000 0.3139000 -0.0450000
v 0.9811000 0.3139000 0.0450000
v 0.9811000 0.3139000 0.0450000
v 0.9811000 0.3861000 -0.0450000
v 0.9811000 0.3861000 -0.0450000
v 0.9811000 0.3861000 0.0450000
v 0.9811000 0.3861000 0.0450000
v 0.9811000 0.4050000 -0.0261000
v 0.9811000 0.4050000 0.0261000
v 0.9811000 0.8650000 -0.0261000
v 0.9811000 0.8650000 0.0261000
v 0.9811000 0.8839000 -0.0450000
v 0.9811000 0.8839000 -0.0450000
v 0.9811000 0.8839000 0.0450000
v 0.9811000 0.8839000 0.0450000
v 0.9811000 0.9561000 -0.0450000
v 0.9811000 0.9561000 -0.0450000
v 0.9811000 0.9561000 0.0450000
v 0.9811000 0.9561000 0.0450000
v 0.9811000 0.9750000 -0.0261000
v 0.9811000 0.9750000 0.0261000
v 0.9824490 0.3061803 0.0382500
v 0.9824490 0.3061803 0.0382500
v 0.9824490 0.3061803 0.0817500
v 0.9824490 0.3061803 0.0817500
v 0.9824490 0.9938197 -0.0817500
v 0.9824490 0.9938197 -0.0817500
v 0.9824490 0.9938197 -0.0382500
v 0.9824490 0.9938197 -0.0382500
v 0.9871125 0.3212240 0.0225000
v 0.9871125 0.3212240 0.0225000
v 0.9871125 0.3212240 0.0225000
v 0.9871125 0.3212240 0.0975000
v 0.9871125 0.3212240 0.0975000
v 0.9871125 0.3212240 0.0975000
v 0.9871125 0.9787760 -0.0975000
v 0.9871125 0.9787760 -0.0975000
v 0.9871125 0.9787760 -0.0975000
v 0.9871125 0.9787760 -0.0225000
v 0.9871125 0.9787760 -0.0225000
v 0.9871125 0.9787760 -0.0225000
v 0.9999928 0.3627733 0.0225000
v 0.9999928 0.3627733 0.0225000
v 0.9999928 0.3627733 0.0225000
v 0.9999928 0.3627733 0.0975000
v 0.9999928 0.3627733 0.0975000
v 0.9999928 0.3627733 0.0975000
v 0.9999928 0.9372267 -0.0975000
v 0.9999928 0.9372267 -0.0975000
v 0.9999928 0.9372267 -0.0975000
v 0.9999928 0.9372267 -0.0225000
v 0.9999928 0.9372267 -0.0225000
v 0.9999928 0.9372267 -0.0225000
v 1.0000000 0.3139000 -0.0261000
v 1.0000000 0.3139000 -0.0261000
v 1.0000000 0.3139000 0.0261000
v 1.0000000 0.3139000 0.0261000
v 1.0000000 0.3139000 0.0261000
v 1.0000000 0.3861000 -0.0261000
v 1.0000000 0.3861000 -0.0261000
v 1.0000000 0.3861000 -0.0261000
v 1.0000000 0.3861000 0.0261000
v 1.0000000 0.3861000 0.0261000
v 1.0000000 0.3861000 0.0261000
v 1.0000000 0.8839000 -0.0261000
v 1.0000000 0.8839000 -0.0261000
v 1.0000000 0.8839000 0.0261000
v 1.0000000 0.8839000 0.0261000
v 1.0000000 0.8839000 0.0261000
v 1.0000000 0.9561000 -0.0261000
v 1.0000000 0.9561000 -0.0261000
v 1.0000000 0.9561000 -0.0261000
v 1.0000000 0.9561000 0.0261000
v 1.0000000 0.9561000 0.0261000
v 1.0000000 0.9561000 0.0261000
v 1.0021563 0.3165604 0.0382500
v 1.0021563 0.3165604 0.0817500
v 1.0021563 0.9834396 -0.0817500
v 1.0021563 0.9834396 -0.0382500
v 1.0046564 0.3778171 0.0382500
v 1.0046564 0.3778171 0.0382500
v 1.0046564 0.3778171 0.0817500
v 1.0046564 0.3778171 0.0817500
v 1.0046564 0.9221829 -0.0817500
v 1.0046564 0.9221829 -0.0817500
v 1.0046564 0.9221829 -0.0382500
v 1.0046564 0.9221829 -0.0382500
v 1.0150366 0.3581098 0.0382500
v 1.0150366 0.3581098 0.0817500
v 1.0150366 0.9418902 -0.0817500
v 1.0150366 0.9418902 -0.0382500
v 1.0400000 0.0000000 -0.0400000
v 1.0400000 0.0000000 -0.0400000
v 1.0400000 0.0000000 -0.0400000
v 1.0400000 0.0000000 0.0400000
v 1.0400000 0.0000000 0.0400000
v 1.0400000 0.0250000 -0.0650000
v 1.0400000 0.0250000 -0.0650000
v 1.0400000 0.0250000 0.0650000
v 1.0400000 0.0250000 0.0650000
v 1.0400000 1.2350000 -0.0650000
v 1.0400000 1.2350000 -0.0650000
v 1.0400000 1.2350000 0.0650000
v 1.0400000 1.2350000 0.0650000
v 1.0400000 1.2600000 -0.0400000
v 1.0400000 1.2600000 -0.0400000
v 1.0400000 1.2600000 -0.0400000
v 1.0400000 1.2600000 0.0400000
v 1.0400000 1.2600000 0.0400000
v 1.0650000 0.0250000 -0.0400000
v 1.0650000 0.0250000 0.0400000
v 1.0650000 1.2350000 -0.0400000
v 1.0650000 1.2350000 0.0400000
v 1.0761000 1.2350000 -0.0761000
v 1.0761000 1.2350000 -0.0761000
v 1.0761000 1.2350000 0.0761000
v 1.0761000 1.2350000 0.0761000
v 1.0761000 1.2539000 -0.0950000
v 1.0761000 1.2539000 -0.0950000
v 1.0761000 1.2539000 -0.0950000
v 1.0761000 1.2539000 0.0950000
v 1.0761000 1.2539000 0.0950000
v 1.0761000 1.2539000 0.0950000
v 1.0761000 1.3061000 -0.0950000
v 1.0761000 1.3061000 -0.0950000
v 1.0761000 1.3061000 -0.0950000
v 1.0761000 1.3061000 0.0950000
v 1.0761000 1.3061000 0.0950000
v 1.0761000 1.3061000 0.0950000
v 1.0761000 1.3250000 -0.0761000
v 1.0761000 1.3250000 -0.0761000
v 1.0761000 1.3250000 0.0761000
v 1.0761000 1.3250000 0.0761000
v 1.0950000 1.2539000 -0.0761000
v 1.0950000 1.2539000 0.0761000
v 1.0950000 1.3061000 -0.0761000
v 1.0950000 1.3061000 0.0761000
vt 0.0790041 0.0539789
vt 0.0790041 0.0987436
vt 0.1535756 0.0539789
vt 0.1535756 0.0987436
vt 0.0520041 0.0539789
vt 0.0790041 0.0539789
vt 0.0520041 0.0987436
vt 0.2964327 0.0539789
vt 0.0520041 0.0539789
vt 0.0790041 0.0484201
vt 0.0790041 0.0539789
vt 0.0790041 0.0539789
vt 0.0790041 0.1043025
vt 0.3234327 0.0539789
vt 0.0520041 0.0539789
vt 0.1535756 0.0484201
vt 0.1535756 0.0539789
vt 0.1535756 0.0539789
vt 0.1535756 0.1043025
vt 0.3234327 0.0539789
vt 0.0790041 0.0539789
vt 0.1805756 0.0539789
vt 0.1805756 0.0987436
vt 0.2964327 0.0539789
vt 0.0754691 0.1371783
vt 0.1897549 0.1371783
vt 0.0754691 0.4930607
vt 0.1897549 0.4930607
vt 0.0754691 0.1298254
vt 0.0754691 0.1371783
vt 0.0754691 0.1298254
vt 0.1897549 0.1298254
vt 0.1897549 0.1371783
vt 0.0397549 0.1371783
vt 0.0754691 0.1371783
vt 0.0754691 0.1371783
vt 0.2254691 0.1371783
vt 0.0397549 0.4930607
vt 0.0754691 0.4930607
vt 0.0754691 0.4930607
vt 0.2254691 0.4930607
vt 0.0754691 0.1371783
vt 0.0754691 0.5004136
vt 0.0754691 0.5004136
vt 0.1897549 0.1371783
vt 0.1897549 0.5004136
vt 0.1031835 0.0892739
vt 0.1653263 0.0892739
vt 0.0714807 0.0422921
vt 0.1336235 0.0422921
vt 0.1031835 0.0764797
vt 0.1031835 0.0939062
vt 0.1653263 0.0764797
vt 0.1653263 0.0939062
vt 0.0714807 0.0376598
vt 0.0714807 0.0422921
vt 0.1336235 0.0376598
vt 0.1336235 0.0422921
vt 0.1031835 0.0764797
vt 0.1653263 0.0764797
vt 0.0714807 0.0550862
vt 0.1336235 0.0550862
vt 0.1465368 0.1262939
vt 0.1465368 0.1318527
vt 0.1465368 0.1262939
vt 0.2211082 0.1262939
vt 0.2211082 0.1318527
vt 0.1465368 0.1262939
vt 0.1465368 0.1530880
vt 0.2496796 0.1262939
vt 0.2211082 0.1262939
vt 0.2211082 0.1530880
vt 0.2496796 0.1262939
vt 0.1399107 0.1263701
vt 0.1399107 0.1319289
vt 0.1399107 0.1263701
vt 0.2144821 0.1263701
vt 0.2144821 0.1319289
vt 0.1399107 0.1263701
vt 0.1399107 0.1531642
vt 0.2430536 0.1263701
vt 0.2144821 0.1263701
vt 0.2144821 0.1531642
vt 0.2430536 0.1263701
vt 0.0806835 0.0764797
vt 0.0806835 0.0892739
vt 0.1653263 0.0764797
vt 0.1653263 0.0764797
vt 0.1878263 0.0764797
vt 0.1878263 0.0892739
vt 0.0489807 0.0422921
vt 0.0714807 0.0422921
vt 0.0714807 0.0422921
vt 0.1561235 0.0422921
vt 0.0806835 0.0764797
vt 0.1031835 0.0764797
vt 0.1031835 0.0764797
vt 0.1878263 0.0764797
vt 0.0489807 0.0422921
vt 0.0489807 0.0550862
vt 0.1336235 0.0422921
vt 0.1336235 0.0422921
vt 0.1561235 0.0422921
vt 0.1561235 0.0550862
vt 0.1031835 0.0718474
vt 0.1031835 0.0764797
vt 0.1653263 0.0718474
vt 0.1653263 0.0764797
vt 0.0714807 0.0422921
vt 0.0714807 0.0597186
vt 0.1336235 0.0422921
vt 0.1336235 0.0597186
vt 0.1465368 0.1318527
vt 0.2211082 0.1318527
vt 0.1195368 0.1318527
vt 0.1465368 0.1318527
vt 0.1465368 0.1318527
vt 0.2481082 0.1318527
vt 0.1195368 0.1318527
vt 0.2496796 0.1318527
vt 0.2481082 0.1318527
vt 0.2496796 0.1318527
vt 0.1465368 0.1318527
vt 0.2211082 0.1318527
vt 0.1399107 0.1319289
vt 0.2144821 0.1319289
vt 0.1129107 0.1319289
vt 0.1399107 0.1319289
vt 0.1399107 0.1319289
vt 0.2414821 0.1319289
vt 0.1129107 0.1319289
vt 0.2430536 0.1319289
vt 0.2414821 0.1319289
vt 0.2430536 0.1319289
vt 0.1399107 0.1319289
vt 0.2144821 0.1319289
vt 0.0754691 0.1298254
vt 0.0754691 0.1607077
vt 0.1897549 0.1298254
vt 0.1897549 0.1298254
vt 0.1897549 0.1607077
vt 0.0397549 0.1371783
vt 0.1897549 0.1371783
vt 0.1897549 0.1371783
vt 0.2254691 0.1371783
vt 0.0397549 0.4930607
vt 0.1897549 0.4930607
vt 0.1897549 0.4930607
vt 0.2254691 0.4930607
vt 0.0754691 0.1607077
vt 0.0754691 0.5004136
vt 0.1897549 0.5004136
vt 0.1897549 0.1607077
vt 0.1897549 0.5004136
vt 0.0754691 0.1371783
vt 0.1897549 0.1371783
vt 0.0754691 0.4930607
vt 0.1897549 0.4930607
vt 0.0520041 0.0539789
vt 0.0790041 0.0987436
vt 0.0520041 0.0987436
vt 0.2964327 0.0987436
vt 0.0520041 0.0987436
vt 0.0790041 0.0484201
vt 0.0790041 0.0987436
vt 0.0790041 0.0987436
vt 0.0790041 0.1043025
vt 0.3234327 0.0987436
vt 0.0520041 0.0987436
vt 0.1535756 0.0484201
vt 0.1535756 0.0987436
vt 0.1535756 0.0987436
vt 0.1535756 0.1043025
vt 0.3234327 0.0987436
vt 0.0790041 0.0987436
vt 0.1805756 0.0539789
vt 0.1805756 0.0987436
vt 0.2964327 0.0987436
vt 0.0790041 0.0539789
vt 0.0790041 0.0987436
vt 0.1535756 0.0539789
vt 0.1535756 0.0987436
vt 0.0596638 0.0428366
vt 0.0596638 0.0876013
vt 0.1342352 0.0428366
vt 0.1342352 0.0876013
vt 0.0326638 0.0428366
vt 0.0596638 0.0428366
vt 0.0326638 0.0876013
vt 0.2770924 0.0428366
vt 0.0326638 0.0428366
vt 0.0596638 0.0372778
vt 0.0596638 0.0428366
vt 0.0596638 0.0428366
vt 0.0596638 0.0931602
vt 0.3040924 0.0428366
vt 0.0326638 0.0428366
vt 0.1342352 0.0372778
vt 0.1342352 0.0428366
vt 0.1342352 0.0428366
vt 0.1342352 0.0931602
vt 0.3040924 0.0428366
vt 0.0596638 0.0428366
vt 0.1612352 0.0428366
vt 0.1612352 0.0876013
vt 0.2770924 0.0428366
vt 0.0931744 0.0788626
vt 0.2074601 0.0788626
vt 0.0931744 0.4347449
vt 0.2074601 0.4347449
vt 0.0931744 0.0715097
vt 0.0931744 0.0788626
vt 0.0931744 0.0715097
vt 0.2074601 0.0715097
vt 0.2074601 0.0788626
vt 0.0574601 0.0788626
vt 0.0931744 0.0788626
vt 0.0931744 0.0788626
vt 0.2431744 0.0788626
vt 0.0574601 0.4347449
vt 0.0931744 0.4347449
vt 0.0931744 0.4347449
vt 0.2431744 0.4347449
vt 0.0931744 0.0788626
vt 0.0931744 0.4420979
vt 0.0931744 0.4420979
vt 0.2074601 0.0788626
vt 0.2074601 0.4420979
vt 0.1465368 0.7089703
vt 0.2211082 0.7089703
vt 0.1195368 0.7089703
vt 0.1465368 0.7089703
vt 0.1465368 0.7089703
vt 0.2481082 0.7089703
vt 0.1195368 0.7089703
vt 0.2496796 0.7089703
vt 0.2481082 0.7089703
vt 0.2496796 0.7089703
vt 0.1465368 0.7089703
vt 0.2211082 0.7089703
vt 0.1399107 0.7090466
vt 0.2144821 0.7090466
vt 0.1129107 0.7090466
vt 0.1399107 0.7090466
vt 0.1399107 0.7090466
vt 0.2414821 0.7090466
vt 0.1129107 0.7090466
vt 0.2430536 0.7090466
vt 0.2414821 0.7090466
vt 0.2430536 0.7090466
vt 0.1399107 0.7090466
vt 0.2144821 0.7090466
vt 0.0714807 0.0376598
vt 0.0714807 0.6541733
vt 0.1336235 0.0376598
vt 0.1336235 0.6541733
vt 0.1031835 0.0939062
vt 0.1031835 0.6883609
vt 0.1653263 0.0939062
vt 0.1653263 0.6883609
vt 0.0489807 0.0422921
vt 0.0489807 0.6541733
vt 0.0714807 0.6541733
vt 0.0714807 0.6541733
vt 0.1561235 0.0422921
vt 0.1561235 0.6541733
vt 0.0806835 0.0892739
vt 0.0806835 0.6883609
vt 0.1653263 0.6883609
vt 0.1653263 0.6883609
vt 0.1878263 0.0892739
vt 0.1878263 0.6883609
vt 0.0489807 0.0550862
vt 0.0489807 0.6541733
vt 0.1336235 0.6541733
vt 0.1336235 0.6541733
vt 0.1561235 0.0550862
vt 0.1561235 0.6541733
vt 0.0806835 0.0764797
vt 0.0806835 0.6883609
vt 0.1031835 0.6883609
vt 0.1031835 0.6883609
vt 0.1878263 0.0764797
vt 0.1878263 0.6883609
vt 0.1465368 0.1318527
vt 0.1465368 0.7145292
vt 0.1465368 0.7145292
vt 0.2211082 0.1318527
vt 0.2211082 0.7145292
vt 0.1465368 0.1530880
vt 0.1465368 0.7145292
vt 0.2496796 0.7145292
vt 0.2211082 0.1530880
vt 0.2211082 0.7145292
vt 0.2496796 0.7145292
vt 0.1399107 0.1319289
vt 0.1399107 0.7146054
vt 0.1399107 0.7146054
vt 0.2144821 0.1319289
vt 0.2144821 0.7146054
vt 0.1399107 0.1531642
vt 0.1399107 0.7146054
vt 0.2430536 0.7146054
vt 0.2144821 0.1531642
vt 0.2144821 0.7146054
vt 0.2430536 0.7146054
vt 0.0714807 0.0422921
vt 0.1336235 0.0422921
vt 0.1031835 0.0892739
vt 0.1653263 0.0892739
vt 0.0714807 0.0597186
vt 0.0714807 0.6541733
vt 0.1336235 0.0597186
vt 0.1336235 0.6541733
vt 0.1031835 0.0718474
vt 0.1031835 0.6883609
vt 0.1653263 0.0718474
vt 0.1653263 0.6883609
vt 0.0714807 0.0550862
vt 0.1336235 0.0550862
vt 0.1031835 0.0764797
vt 0.1653263 0.0764797
vt 0.0931744 0.0715097
vt 0.0931744 0.1023920
vt 0.2074601 0.0715097
vt 0.2074601 0.0715097
vt 0.2074601 0.1023920
vt 0.0574601 0.0788626
vt 0.2074601 0.0788626
vt 0.2074601 0.0788626
vt 0.2431744 0.0788626
vt 0.0574601 0.4347449
vt 0.2074601 0.4347449
vt 0.2074601 0.4347449
vt 0.2431744 0.4347449
vt 0.0931744 0.1023920
vt 0.0931744 0.4420979
vt 0.2074601 0.4420979
vt 0.2074601 0.1023920
vt 0.2074601 0.4420979
vt 0.0931744 0.0788626
vt 0.2074601 0.0788626
vt 0.0931744 0.4347449
vt 0.2074601 0.4347449
vt 0.0326638 0.0428366
vt 0.0596638 0.0876013
vt 0.0326638 0.0876013
vt 0.2770924 0.0876013
vt 0.0326638 0.0876013
vt 0.0596638 0.0372778
vt 0.0596638 0.0876013
vt 0.0596638 0.0876013
vt 0.0596638 0.0931602
vt 0.3040924 0.0876013
vt 0.0326638 0.0876013
vt 0.1342352 0.0372778
vt 0.1342352 0.0876013
vt 0.1342352 0.0876013
vt 0.1342352 0.0931602
vt 0.3040924 0.0876013
vt 0.0596638 0.0876013
vt 0.1612352 0.0428366
vt 0.1612352 0.0876013
vt 0.2770924 0.0876013
vt 0.0596638 0.0428366
vt 0.0596638 0.0876013
vt 0.1342352 0.0428366
vt 0.1342352 0.0876013
vn -0.9258987 -0.3529731 -0.1346167
vn -0.9826151 -0.1506198 0.1085414
vn -0.9648989 0.2564921 -0.0564076
vn -0.9609773 0.2554497 0.1061512
vn -0.0614332 -0.9962188 -0.0614332
vn -0.0614332 -0.9962188 -0.0614332
vn -0.1858009 -0.9776548 0.0983314
vn -0.1858009 -0.9776548 0.0983314
vn -0.0824865 -0.3750756 -0.9233170
vn -0.0824865 -0.3750756 -0.9233170
vn -0.0824865 -0.3750756 -0.9233170
vn -0.0824865 -0.3750756 0.9233170
vn -0.0824865 -0.3750756 0.9233170
vn -0.0824865 -0.3750756 0.9233170
vn -0.0937805 0.2458982 -0.9647483
vn -0.0937805 0.2458982 -0.9647483
vn -0.0937805 0.2458982 -0.9647483
vn -0.0937805 0.2458982 0.9647483
vn -0.0937805 0.2458982 0.9647483
vn -0.0937805 0.2458982 0.9647483
vn -0.1091381 0.9880171 -0.1091381
vn -0.1091381 0.9880171 -0.1091381
vn -0.1096090 0.9922807 0.0580084
vn -0.1096090 0.9922807 0.0580084
vn -0.9352274 -0.0267125 -0.3530386
vn -0.9727581 -0.0099464 0.2316091
vn -0.9907931 0.0200565 -0.1338910
vn -0.9726176 0.0196886 0.2315756
vn -0.1473390 -0.9780503 -0.1473390
vn -0.1473390 -0.9780503 -0.1473390
vn -0.3287410 -0.9258057 0.1865827
vn -0.3287410 -0.9258057 0.1865827
vn -0.3287410 -0.9258057 0.1865827
vn -0.2281538 -0.0341769 -0.9730251
vn -0.2281538 -0.0341769 -0.9730251
vn -0.1338910 -0.0200565 0.9907931
vn -0.1338910 -0.0200565 0.9907931
vn -0.2298903 0.0173946 -0.9730611
vn -0.2298903 0.0173946 -0.9730611
vn -0.3569794 0.0153304 0.9339865
vn -0.3569794 0.0153304 0.9339865
vn -0.1473390 0.9780503 -0.1473390
vn -0.1473390 0.9780503 -0.1473390
vn -0.2822369 0.9168886 0.2822369
vn -0.2822369 0.9168886 0.2822369
vn -0.2822369 0.9168886 0.2822369
vn -0.9883817 -0.0403398 -0.1465409
vn -0.9677437 -0.0394974 0.2488215
vn -0.9536934 -0.0186505 -0.3002017
vn -0.9565254 0.1431022 0.2541278
vn -0.2930893 0.9209256 -0.2568944
vn -0.2930893 0.9209256 -0.2568944
vn -0.2922285 0.9213832 0.2562334
vn -0.2922285 0.9213832 0.2562334
vn -0.2967595 -0.9427800 -0.1519859
vn -0.2967595 -0.9427800 -0.1519859
vn -0.2982075 -0.9196517 0.2555640
vn -0.2982075 -0.9196517 0.2555640
vn -0.7759147 -0.5548291 -0.3002017
vn -0.8697443 -0.4230414 0.2541278
vn -0.8378879 0.5258038 -0.1465409
vn -0.8203922 0.5148247 0.2488215
vn -0.9159695 -0.2417828 -0.3202200
vn -0.9159695 -0.2417828 -0.3202200
vn -0.9604482 -0.1111603 0.2553090
vn -0.9604482 -0.1111603 0.2553090
vn -0.9604482 -0.1111603 0.2553090
vn -0.9683044 0.2008886 -0.1484262
vn -0.9683044 0.2008886 -0.1484262
vn -0.9683044 0.2008886 -0.1484262
vn -0.9475786 0.1965888 0.2518880
vn -0.9475786 0.1965888 0.2518880
vn -0.9475786 0.1965888 0.2518880
vn -0.9159695 -0.2417828 -0.3202200
vn -0.9159695 -0.2417828 -0.3202200
vn -0.9604482 -0.1111603 0.2553090
vn -0.9604482 -0.1111603 0.2553090
vn -0.9604482 -0.1111603 0.2553090
vn -0.9683044 0.2008886 -0.1484262
vn -0.9683044 0.2008886 -0.1484262
vn -0.9683044 0.2008886 -0.1484262
vn -0.9475786 0.1965888 0.2518880
vn -0.9475786 0.1965888 0.2518880
vn -0.9475786 0.1965888 0.2518880
vn -0.0818915 0.2428767 -0.9665944
vn -0.0818915 0.2428767 -0.9665944
vn -0.0818915 0.2428767 -0.9665944
vn -0.0876378 0.2403945 0.9667110
vn -0.0876378 0.2403945 0.9667110
vn -0.0876378 0.2403945 0.9667110
vn -0.1196818 -0.3675523 -0.9222698
vn -0.1196818 -0.3675523 -0.9222698
vn -0.0795487 -0.2443003 0.9664313
vn -0.0795487 -0.2443003 0.9664313
vn 0.1092073 -0.3707994 -0.9222698
vn 0.1092073 -0.3707994 -0.9222698
vn 0.0725866 -0.2464585 0.9664313
vn 0.0725866 -0.2464585 0.9664313
vn 0.0698493 0.2466097 -0.9665944
vn 0.0698493 0.2466097 -0.9665944
vn 0.0698493 0.2466097 -0.9665944
vn 0.0637066 0.2478132 0.9667110
vn 0.0637066 0.2478132 0.9667110
vn 0.0637066 0.2478132 0.9667110
vn 0.2885527 -0.9453241 -0.1519859
vn 0.2885527 -0.9453241 -0.1519859
vn 0.2742763 -0.9270704 0.2555640
vn 0.2742763 -0.9270704 0.2555640
vn 0.2792177 0.9252258 -0.2568944
vn 0.2792177 0.9252258 -0.2568944
vn 0.2801863 0.9251163 0.2562334
vn 0.2801863 0.9251163 0.2562334
vn -0.0054592 -0.9883480 -0.1521130
vn -0.0158831 -0.9667581 0.2551989
vn -0.0074866 -0.3240626 -0.9460060
vn -0.0074866 -0.3240626 -0.9460060
vn -0.0074866 -0.3240626 0.9460060
vn -0.0074866 -0.3240626 0.9460060
vn -0.0083816 0.2023944 -0.9792682
vn -0.0083816 0.2023944 -0.9792682
vn -0.0083816 0.2023944 0.9792682
vn -0.0083816 0.2023944 0.9792682
vn -0.0054592 0.9883480 -0.1521130
vn -0.0158831 0.9667581 0.2551989
vn -0.0054592 -0.9883480 -0.1521130
vn -0.0158831 -0.9667581 0.2551989
vn -0.0074866 -0.3240626 -0.9460060
vn -0.0074866 -0.3240626 -0.9460060
vn -0.0074866 -0.3240626 0.9460060
vn -0.0074866 -0.3240626 0.9460060
vn -0.0083816 0.2023944 -0.9792682
vn -0.0083816 0.2023944 -0.9792682
vn -0.0083816 0.2023944 0.9792682
vn -0.0083816 0.2023944 0.9792682
vn -0.0054592 0.9883480 -0.1521130
vn -0.0158831 0.9667581 0.2551989
vn 0.1865827 -0.9258057 -0.3287410
vn 0.1865827 -0.9258057 -0.3287410
vn 0.1865827 -0.9258057 -0.3287410
vn 0.2064625 -0.9564238 0.2064625
vn 0.2064625 -0.9564238 0.2064625
vn 0.1350701 -0.0114837 -0.9907695
vn 0.1350701 -0.0114837 -0.9907695
vn 0.2315756 -0.0196886 0.9726176
vn 0.2315756 -0.0196886 0.9726176
vn 0.3569794 0.0153304 -0.9339865
vn 0.3569794 0.0153304 -0.9339865
vn 0.2298903 0.0173946 0.9730611
vn 0.2298903 0.0173946 0.9730611
vn 0.1865827 0.9258057 -0.3287410
vn 0.1865827 0.9258057 -0.3287410
vn 0.1865827 0.9258057 -0.3287410
vn 0.2296447 0.9645077 0.1303389
vn 0.2296447 0.9645077 0.1303389
vn 0.9352274 -0.0267125 -0.3530386
vn 0.9727581 -0.0099464 0.2316091
vn 0.9907931 0.0200565 -0.1338910
vn 0.9726176 0.0196886 0.2315756
vn 0.0983314 -0.9776548 -0.1858009
vn 0.0983314 -0.9776548 -0.1858009
vn 0.1038626 -0.9891537 0.1038626
vn 0.1038626 -0.9891537 0.1038626
vn 0.1085414 -0.1506198 -0.9826151
vn 0.1085414 -0.1506198 -0.9826151
vn 0.1085414 -0.1506198 -0.9826151
vn 0.1085414 -0.1506198 0.9826151
vn 0.1085414 -0.1506198 0.9826151
vn 0.1085414 -0.1506198 0.9826151
vn 0.1061512 0.2554497 -0.9609773
vn 0.1061512 0.2554497 -0.9609773
vn 0.1061512 0.2554497 -0.9609773
vn 0.1061512 0.2554497 0.9609773
vn 0.1061512 0.2554497 0.9609773
vn 0.1061512 0.2554497 0.9609773
vn 0.0580084 0.9922807 -0.1096090
vn 0.0580084 0.9922807 -0.1096090
vn 0.1693631 0.9708925 0.1693631
vn 0.1693631 0.9708925 0.1693631
vn 0.9233170 -0.3750756 -0.0824865
vn 0.9851747 -0.1584207 0.0658312
vn 0.9647483 0.2458982 -0.0937805
vn 0.9570125 0.2353123 0.1695734
vn -0.9258987 -0.3529731 -0.1346167
vn -0.9826151 -0.1506198 0.1085414
vn -0.9648989 0.2564921 -0.0564076
vn -0.9609773 0.2554497 0.1061512
vn -0.0614332 -0.9962188 -0.0614332
vn -0.0614332 -0.9962188 -0.0614332
vn -0.1858009 -0.9776548 0.0983314
vn -0.1858009 -0.9776548 0.0983314
vn -0.0824865 -0.3750756 -0.9233170
vn -0.0824865 -0.3750756 -0.9233170
vn -0.0824865 -0.3750756 -0.9233170
vn -0.0824865 -0.3750756 0.9233170
vn -0.0824865 -0.3750756 0.9233170
vn -0.0824865 -0.3750756 0.9233170
vn -0.0937805 0.2458982 -0.9647483
vn -0.0937805 0.2458982 -0.9647483
vn -0.0937805 0.2458982 -0.9647483
vn -0.0937805 0.2458982 0.9647483
vn -0.0937805 0.2458982 0.9647483
vn -0.0937805 0.2458982 0.9647483
vn -0.1091381 0.9880171 -0.1091381
vn -0.1091381 0.9880171 -0.1091381
vn -0.1096090 0.9922807 0.0580084
vn -0.1096090 0.9922807 0.0580084
vn -0.9352274 -0.0267125 -0.3530386
vn -0.9727581 -0.0099464 0.2316091
vn -0.9907931 0.0200565 -0.1338910
vn -0.9726176 0.0196886 0.2315756
vn -0.1473390 -0.9780503 -0.1473390
vn -0.1473390 -0.9780503 -0.1473390
vn -0.3287410 -0.9258057 0.1865827
vn -0.3287410 -0.9258057 0.1865827
vn -0.3287410 -0.9258057 0.1865827
vn -0.2281538 -0.0341769 -0.9730251
vn -0.2281538 -0.0341769 -0.9730251
vn -0.1338910 -0.0200565 0.9907931
vn -0.1338910 -0.0200565 0.9907931
vn -0.2298903 0.0173946 -0.9730611
vn -0.2298903 0.0173946 -0.9730611
vn -0.3569794 0.0153304 0.9339865
vn -0.3569794 0.0153304 0.9339865
vn -0.1473390 0.9780503 -0.1473390
vn -0.1473390 0.9780503 -0.1473390
vn -0.2822369 0.9168886 0.2822369
vn -0.2822369 0.9168886 0.2822369
vn -0.2822369 0.9168886 0.2822369
vn 0.0069654 -0.9223427 -0.3863100
vn 0.0080063 -0.9666300 0.2560513
vn 0.0094765 -0.1149653 -0.9933243
vn 0.0094765 -0.1149653 -0.9933243
vn 0.0053089 -0.1154493 0.9932992
vn 0.0053089 -0.1154493 0.9932992
vn 0.0093408 0.2031298 -0.9791073
vn 0.0093408 0.2031298 -0.9791073
vn 0.0166217 0.2016487 0.9793169
vn 0.0166217 0.2016487 0.9793169
vn 0.0069654 0.9223427 -0.3863100
vn 0.0080063 0.9666300 0.2560513
vn 0.0069654 -0.9223427 -0.3863100
vn 0.0080063 -0.9666300 0.2560513
vn 0.0094765 -0.1149653 -0.9933243
vn 0.0094765 -0.1149653 -0.9933243
vn 0.0053089 -0.1154493 0.9932992
vn 0.0053089 -0.1154493 0.9932992
vn 0.0093408 0.2031298 -0.9791073
vn 0.0093408 0.2031298 -0.9791073
vn 0.0166217 0.2016487 0.9793169
vn 0.0166217 0.2016487 0.9793169
vn 0.0069654 0.9223427 -0.3863100
vn 0.0080063 0.9666300 0.2560513
vn -0.2678457 -0.8825363 -0.3865079
vn -0.2678457 -0.8825363 -0.3865079
vn -0.2801863 -0.9251163 0.2562334
vn -0.2801863 -0.9251163 0.2562334
vn -0.2826781 0.9241730 -0.2568995
vn -0.2826781 0.9241730 -0.2568995
vn -0.2742763 0.9270704 0.2555640
vn -0.2742763 0.9270704 0.2555640
vn -0.0377684 -0.1469157 -0.9884277
vn -0.0377684 -0.1469157 -0.9884277
vn -0.0377684 -0.1469157 -0.9884277
vn -0.0691303 -0.2475246 0.9664122
vn -0.0691303 -0.2475246 0.9664122
vn -0.0691303 -0.2475246 0.9664122
vn -0.0691303 0.2475246 -0.9664122
vn -0.0691303 0.2475246 -0.9664122
vn -0.0691303 0.2475246 -0.9664122
vn -0.0698493 0.2466097 0.9665944
vn -0.0698493 0.2466097 0.9665944
vn -0.0698493 0.2466097 0.9665944
vn 0.0830019 0.2432245 -0.9664122
vn 0.0830019 0.2432245 -0.9664122
vn 0.0830019 0.2432245 -0.9664122
vn 0.0818915 0.2428767 0.9665944
vn 0.0818915 0.2428767 0.9665944
vn 0.0818915 0.2428767 0.9665944
vn 0.0519560 -0.1425176 -0.9884277
vn 0.0519560 -0.1425176 -0.9884277
vn 0.0519560 -0.1425176 -0.9884277
vn 0.0830019 -0.2432245 0.9664122
vn 0.0830019 -0.2432245 0.9664122
vn 0.0830019 -0.2432245 0.9664122
vn 0.9322214 -0.2910613 -0.2150502
vn 0.9322214 -0.2910613 -0.2150502
vn 0.9604482 -0.1111603 0.2553090
vn 0.9604482 -0.1111603 0.2553090
vn 0.9604482 -0.1111603 0.2553090
vn 0.9559650 0.1768449 -0.2342155
vn 0.9559650 0.1768449 -0.2342155
vn 0.9559650 0.1768449 -0.2342155
vn 0.9475786 0.1965888 0.2518880
vn 0.9475786 0.1965888 0.2518880
vn 0.9475786 0.1965888 0.2518880
vn 0.9322214 -0.2910613 -0.2150502
vn 0.9322214 -0.2910613 -0.2150502
vn 0.9604482 -0.1111603 0.2553090
vn 0.9604482 -0.1111603 0.2553090
vn 0.9604482 -0.1111603 0.2553090
vn 0.9559650 0.1768449 -0.2342155
vn 0.9559650 0.1768449 -0.2342155
vn 0.9559650 0.1768449 -0.2342155
vn 0.9475786 0.1965888 0.2518880
vn 0.9475786 0.1965888 0.2518880
vn 0.9475786 0.1965888 0.2518880
vn 0.7682420 -0.6070582 -0.2031861
vn 0.8697443 -0.4230414 0.2541278
vn 0.8378686 0.4967265 -0.2263601
vn 0.8203922 0.5148247 0.2488215
vn 0.2896402 0.9220148 -0.2568995
vn 0.2896402 0.9220148 -0.2568995
vn 0.2982075 0.9196517 0.2555640
vn 0.2982075 0.9196517 0.2555640
vn 0.2783202 -0.8792892 -0.3865079
vn 0.2783202 -0.8792892 -0.3865079
vn 0.2922285 -0.9213832 0.2562334
vn 0.2922285 -0.9213832 0.2562334
vn 0.9719185 -0.0643075 -0.2263601
vn 0.9677437 -0.0394974 0.2488215
vn 0.9769091 -0.0660614 -0.2031861
vn 0.9565254 0.1431022 0.2541278
vn 0.1865827 -0.9258057 -0.3287410
vn 0.1865827 -0.9258057 -0.3287410
vn 0.1865827 -0.9258057 -0.3287410
vn 0.2064625 -0.9564238 0.2064625
vn 0.2064625 -0.9564238 0.2064625
vn 0.1350701 -0.0114837 -0.9907695
vn 0.1350701 -0.0114837 -0.9907695
vn 0.2315756 -0.0196886 0.9726176
vn 0.2315756 -0.0196886 0.9726176
vn 0.3569794 0.0153304 -0.9339865
vn 0.3569794 0.0153304 -0.9339865
vn 0.2298903 0.0173946 0.9730611
vn 0.2298903 0.0173946 0.9730611
vn 0.1865827 0.9258057 -0.3287410
vn 0.1865827 0.9258057 -0.3287410
vn 0.1865827 0.9258057 -0.3287410
vn 0.2296447 0.9645077 0.1303389
vn 0.2296447 0.9645077 0.1303389
vn 0.9352274 -0.0267125 -0.3530386
vn 0.9727581 -0.0099464 0.2316091
vn 0.9907931 0.0200565 -0.1338910
vn 0.9726176 0.0196886 0.2315756
vn 0.0983314 -0.9776548 -0.1858009
vn 0.0983314 -0.9776548 -0.1858009
vn 0.1038626 -0.9891537 0.1038626
vn 0.1038626 -0.9891537 0.1038626
vn 0.1085414 -0.1506198 -0.9826151
vn 0.1085414 -0.1506198 -0.9826151
vn 0.1085414 -0.1506198 -0.9826151
vn 0.1085414 -0.1506198 0.9826151
vn 0.1085414 -0.1506198 0.9826151
vn 0.1085414 -0.1506198 0.9826151
vn 0.1061512 0.2554497 -0.9609773
vn 0.1061512 0.2554497 -0.9609773
vn 0.1061512 0.2554497 -0.9609773
vn 0.1061512 0.2554497 0.9609773
vn 0.1061512 0.2554497 0.9609773
vn 0.1061512 0.2554497 0.9609773
vn 0.0580084 0.9922807 -0.1096090
vn 0.0580084 0.9922807 -0.1096090
vn 0.1693631 0.9708925 0.1693631
vn 0.1693631 0.9708925 0.1693631
vn 0.9233170 -0.3750756 -0.0824865
vn 0.9851747 -0.1584207 0.0658312
vn 0.9647483 0.2458982 -0.0937805
vn 0.9570125 0.2353123 0.1695734
o 11_Valla_Cruzada_Wood
usemtl Wood
s 1
f 41/41/41 46/46/46 28/28/28
f 29/29/29 25/25/25 34/34/34
f 146/146/146 151/151/151 157/157/157
f 137/137/137 142/142/142 155/155/155
f 149/149/149 158/158/158 154/154/154
f 38/38/38 27/27/27 43/43/43
f 32/32/32 37/37/37 26/26/26
f 140/140/140 156/156/156 145/145/145
f 156/156/156 155/155/155 157/157/157
f 156/156/156 157/157/157 158/158/158
f 27/27/27 25/25/25 26/26/26
f 27/27/27 26/26/26 28/28/28
f 46/46/46 27/27/27 28/28/28
f 46/46/46 43/43/43 27/27/27
f 41/41/41 26/26/26 37/37/37
f 41/41/41 28/28/28 26/26/26
f 154/154/154 158/158/158 157/157/157
f 154/154/154 157/157/157 151/151/151
f 153/153/153 42/42/42 45/45/45
f 153/153/153 150/150/150 42/42/42
f 146/146/146 157/157/157 155/155/155
f 146/146/146 155/155/155 142/142/142
f 139/139/139 35/35/35 143/143/143
f 139/139/139 29/29/29 35/35/35
f 148/148/148 154/154/154 44/44/44
f 148/148/148 44/44/44 40/40/40
f 149/149/149 156/156/156 158/158/158
f 149/149/149 145/145/145 156/156/156
f 148/148/148 40/40/40 36/36/36
f 148/148/148 36/36/36 144/144/144
f 39/39/39 43/43/43 152/152/152
f 39/39/39 152/152/152 147/147/147
f 38/38/38 25/25/25 27/27/27
f 38/38/38 34/34/34 25/25/25
f 39/39/39 147/147/147 143/143/143
f 39/39/39 143/143/143 35/35/35
f 32/32/32 26/26/26 25/25/25
f 32/32/32 25/25/25 29/29/29
f 140/140/140 155/155/155 156/156/156
f 140/140/140 137/137/137 155/155/155
f 141/141/141 30/30/30 138/138/138
f 141/141/141 33/33/33 30/30/30
f 140/140/140 144/144/144 36/36/36
f 140/140/140 36/36/36 31/31/31
f 182/182/182 177/177/177 173/173/173
f 5/5/5 1/1/1 10/10/10
f 19/19/19 23/23/23 4/4/4
f 181/181/181 170/170/170 176/176/176
f 16/16/16 3/3/3 22/22/22
f 7/7/7 13/13/13 2/2/2
f 159/159/159 164/164/164 179/179/179
f 161/161/161 180/180/180 167/167/167
f 3/3/3 1/1/1 2/2/2
f 3/3/3 2/2/2 4/4/4
f 24/24/24 178/178/178 175/175/175
f 24/24/24 175/175/175 21/21/21
f 23/23/23 3/3/3 4/4/4
f 23/23/23 22/22/22 3/3/3
f 19/19/19 4/4/4 2/2/2
f 19/19/19 2/2/2 13/13/13
f 20/20/20 178/178/178 24/24/24
f 20/20/20 174/174/174 178/178/178
f 181/181/181 164/164/164 170/170/170
f 181/181/181 179/179/179 164/164/164
f 181/181/181 180/180/180 179/179/179
f 181/181/181 182/182/182 180/180/180
f 181/181/181 176/176/176 177/177/177
f 181/181/181 177/177/177 182/182/182
f 15/15/15 21/21/21 175/175/175
f 15/15/15 175/175/175 169/169/169
f 17/17/17 171/171/171 165/165/165
f 17/17/17 165/165/165 11/11/11
f 16/16/16 1/1/1 3/3/3
f 16/16/16 10/10/10 1/1/1
f 166/166/166 18/18/18 12/12/12
f 166/166/166 172/172/172 18/18/18
f 167/167/167 180/180/180 182/182/182
f 167/167/167 182/182/182 173/173/173
f 7/7/7 2/2/2 1/1/1
f 7/7/7 1/1/1 5/5/5
f 160/160/160 9/9/9 163/163/163
f 160/160/160 6/6/6 9/9/9
f 162/162/162 168/168/168 14/14/14
f 162/162/162 14/14/14 8/8/8
f 162/162/162 8/8/8 6/6/6
f 162/162/162 6/6/6 160/160/160
f 161/161/161 179/179/179 180/180/180
f 161/161/161 159/159/159 179/179/179
f 223/223/223 228/228/228 210/210/210
f 211/211/211 207/207/207 216/216/216
f 332/332/332 337/337/337 343/343/343
f 323/323/323 328/328/328 341/341/341
f 335/335/335 344/344/344 340/340/340
f 220/220/220 209/209/209 225/225/225
f 214/214/214 219/219/219 208/208/208
f 326/326/326 342/342/342 331/331/331
f 342/342/342 341/341/341 343/343/343
f 342/342/342 343/343/343 344/344/344
f 209/209/209 207/207/207 208/208/208
f 209/209/209 208/208/208 210/210/210
f 228/228/228 209/209/209 210/210/210
f 228/228/228 225/225/225 209/209/209
f 223/223/223 208/208/208 219/219/219
f 223/223/223 210/210/210 208/208/208
f 340/340/340 344/344/344 343/343/343
f 340/340/340 343/343/343 337/337/337
f 339/339/339 224/224/224 227/227/227
f 339/339/339 336/336/336 224/224/224
f 332/332/332 343/343/343 341/341/341
f 332/332/332 341/341/341 328/328/328
f 325/325/325 217/217/217 329/329/329
f 325/325/325 211/211/211 217/217/217
f 334/334/334 340/340/340 226/226/226
f 334/334/334 226/226/226 222/222/222
f 335/335/335 342/342/342 344/344/344
f 335/335/335 331/331/331 342/342/342
f 334/334/334 222/222/222 218/218/218
f 334/334/334 218/218/218 330/330/330
f 221/221/221 225/225/225 338/338/338
f 221/221/221 338/338/338 333/333/333
f 220/220/220 207/207/207 209/209/209
f 220/220/220 216/216/216 207/207/207
f 221/221/221 333/333/333 329/329/329
f 221/221/221 329/329/329 217/217/217
f 214/214/214 208/208/208 207/207/207
f 214/214/214 207/207/207 211/211/211
f 326/326/326 341/341/341 342/342/342
f 326/326/326 323/323/323 341/341/341
f 327/327/327 212/212/212 324/324/324
f 327/327/327 215/215/215 212/212/212
f 326/326/326 330/330/330 218/218/218
f 326/326/326 218/218/218 213/213/213
f 368/368/368 363/363/363 359/359/359
f 187/187/187 183/183/183 192/192/192
f 201/201/201 205/205/205 186/186/186
f 367/367/367 356/356/356 362/362/362
f 198/198/198 185/185/185 204/204/204
f 189/189/189 195/195/195 184/184/184
f 345/345/345 350/350/350 365/365/365
f 347/347/347 366/366/366 353/353/353
f 185/185/185 183/183/183 184/184/184
f 185/185/185 184/184/184 186/186/186
f 206/206/206 364/364/364 361/361/361
f 206/206/206 361/361/361 203/203/203
f 205/205/205 185/185/185 186/186/186
f 205/205/205 204/204/204 185/185/185
f 201/201/201 186/186/186 184/184/184
f 201/201/201 184/184/184 195/195/195
f 202/202/202 364/364/364 206/206/206
f 202/202/202 360/360/360 364/364/364
f 367/367/367 350/350/350 356/356/356
f 367/367/367 365/365/365 350/350/350
f 367/367/367 366/366/366 365/365/365
f 367/367/367 368/368/368 366/366/366
f 367/367/367 362/362/362 363/363/363
f 367/367/367 363/363/363 368/368/368
f 197/197/197 203/203/203 361/361/361
f 197/197/197 361/361/361 355/355/355
f 199/199/199 357/357/357 351/351/351
f 199/199/199 351/351/351 193/193/193
f 198/198/198 183/183/183 185/185/185
f 198/198/198 192/192/192 183/183/183
f 352/352/352 200/200/200 194/194/194
f 352/352/352 358/358/358 200/200/200
f 353/353/353 366/366/366 368/368/368
f 353/353/353 368/368/368 359/359/359
f 189/189/189 184/184/184 183/183/183
f 189/189/189 183/183/183 187/187/187
f 346/346/346 191/191/191 349/349/349
f 346/346/346 188/188/188 191/191/191
f 348/348/348 354/354/354 196/196/196
f 348/348/348 196/196/196 190/190/190
f 348/348/348 190/190/190 188/188/188
f 348/348/348 188/188/188 346/346/346
f 347/347/347 365/365/365 366/366/366
f 347/347/347 345/345/345 365/365/365
f 113/113/113 63/63/63 115/115/115
f 240/240/240 237/237/237 294/294/294
f 121/121/121 124/124/124 71/71/71
f 291/291/291 235/235/235 239/239/239
f 119/119/119 68/68/68 123/123/123
f 114/114/114 118/118/118 66/66/66
f 229/229/229 231/231/231 286/286/286
f 230/230/230 289/289/289 234/234/234
f 69/69/69 64/64/64 67/67/67
f 69/69/69 67/67/67 72/72/72
f 124/124/124 68/68/68 71/71/71
f 124/124/124 123/123/123 68/68/68
f 240/240/240 123/123/123 124/124/124
f 240/240/240 239/239/239 123/123/123
f 122/122/122 73/73/73 65/65/65
f 122/122/122 65/65/65 117/117/117
f 122/122/122 117/117/117 233/233/233
f 122/122/122 233/233/233 238/238/238
f 121/121/121 240/240/240 124/124/124
f 121/121/121 237/237/237 240/240/240
f 287/287/287 238/238/238 233/233/233
f 287/287/287 295/295/295 238/238/238
f 290/290/290 293/293/293 288/288/288
f 290/290/290 288/288/288 285/285/285
f 292/292/292 286/286/286 232/232/232
f 292/292/292 232/232/232 236/236/236
f 291/291/291 239/239/239 240/240/240
f 291/291/291 240/240/240 294/294/294
f 119/119/119 123/123/123 239/239/239
f 119/119/119 239/239/239 235/235/235
f 120/120/120 236/236/236 232/232/232
f 120/120/120 232/232/232 116/116/116
f 120/120/120 63/63/63 70/70/70
f 120/120/120 116/116/116 63/63/63
f 114/114/114 66/66/66 63/63/63
f 114/114/114 63/63/63 113/113/113
f 229/229/229 115/115/115 231/231/231
f 229/229/229 113/113/113 115/115/115
f 230/230/230 286/286/286 289/289/289
f 230/230/230 229/229/229 286/286/286
f 230/230/230 234/234/234 118/118/118
f 230/230/230 118/118/118 114/114/114
f 230/230/230 114/114/114 113/113/113
f 230/230/230 113/113/113 229/229/229
f 125/125/125 74/74/74 127/127/127
f 252/252/252 249/249/249 305/305/305
f 133/133/133 136/136/136 82/82/82
f 302/302/302 247/247/247 251/251/251
f 131/131/131 79/79/79 135/135/135
f 126/126/126 130/130/130 77/77/77
f 241/241/241 243/243/243 297/297/297
f 242/242/242 300/300/300 246/246/246
f 80/80/80 75/75/75 78/78/78
f 80/80/80 78/78/78 83/83/83
f 136/136/136 79/79/79 82/82/82
f 136/136/136 135/135/135 79/79/79
f 252/252/252 135/135/135 136/136/136
f 252/252/252 251/251/251 135/135/135
f 134/134/134 84/84/84 76/76/76
f 134/134/134 76/76/76 129/129/129
f 134/134/134 129/129/129 245/245/245
f 134/134/134 245/245/245 250/250/250
f 133/133/133 252/252/252 136/136/136
f 133/133/133 249/249/249 252/252/252
f 298/298/298 250/250/250 245/245/245
f 298/298/298 306/306/306 250/250/250
f 301/301/301 304/304/304 299/299/299
f 301/301/301 299/299/299 296/296/296
f 303/303/303 297/297/297 244/244/244
f 303/303/303 244/244/244 248/248/248
f 302/302/302 251/251/251 252/252/252
f 302/302/302 252/252/252 305/305/305
f 131/131/131 135/135/135 251/251/251
f 131/131/131 251/251/251 247/247/247
f 132/132/132 248/248/248 244/244/244
f 132/132/132 244/244/244 128/128/128
f 132/132/132 74/74/74 81/81/81
f 132/132/132 128/128/128 74/74/74
f 126/126/126 77/77/77 74/74/74
f 126/126/126 74/74/74 125/125/125
f 241/241/241 127/127/127 243/243/243
f 241/241/241 125/125/125 127/127/127
f 242/242/242 297/297/297 300/300/300
f 242/242/242 241/241/241 297/297/297
f 242/242/242 246/246/246 130/130/130
f 242/242/242 130/130/130 126/126/126
f 242/242/242 126/126/126 125/125/125
f 242/242/242 125/125/125 241/241/241
f 105/105/105 59/59/59 95/95/95
f 90/90/90 54/54/54 48/48/48
f 86/86/86 47/47/47 52/52/52
f 271/271/271 310/310/310 259/259/259
f 309/309/309 267/267/267 257/257/257
f 107/107/107 98/98/98 60/60/60
f 315/315/315 279/279/279 321/321/321
f 317/317/317 322/322/322 283/283/283
f 47/47/47 59/59/59 60/60/60
f 47/47/47 60/60/60 48/48/48
f 53/53/53 260/260/260 258/258/258
f 53/53/53 258/258/258 51/51/51
f 54/54/54 47/47/47 48/48/48
f 54/54/54 52/52/52 47/47/47
f 90/90/90 48/48/48 60/60/60
f 90/90/90 60/60/60 98/98/98
f 85/85/85 51/51/51 258/258/258
f 85/85/85 258/258/258 268/268/268
f 87/87/87 281/281/281 96/96/96
f 87/87/87 269/269/269 281/281/281
f 86/86/86 59/59/59 47/47/47
f 86/86/86 95/95/95 59/59/59
f 271/271/271 322/322/322 310/310/310
f 271/271/271 283/283/283 322/322/322
f 272/272/272 260/260/260 53/53/53
f 272/272/272 53/53/53 89/89/89
f 270/270/270 88/88/88 97/97/97
f 270/270/270 97/97/97 282/282/282
f 309/309/309 279/279/279 267/267/267
f 309/309/309 321/321/321 279/279/279
f 309/309/309 257/257/257 259/259/259
f 309/309/309 259/259/259 310/310/310
f 309/309/309 310/310/310 322/322/322
f 309/309/309 322/322/322 321/321/321
f 107/107/107 60/60/60 59/59/59
f 107/107/107 59/59/59 105/105/105
f 316/316/316 95/95/95 280/280/280
f 316/316/316 106/106/106 95/95/95
f 317/317/317 321/321/321 322/322/322
f 317/317/317 315/315/315 321/321/321
f 318/318/318 284/284/284 98/98/98
f 318/318/318 98/98/98 108/108/108
f 318/318/318 108/108/108 106/106/106
f 318/318/318 106/106/106 316/316/316
f 55/55/55 49/49/49 91/91/91
f 104/104/104 112/112/112 62/62/62
f 100/100/100 61/61/61 110/110/110
f 277/277/277 320/320/320 313/313/313
f 319/319/319 273/273/273 311/311/311
f 57/57/57 94/94/94 50/50/50
f 253/253/253 261/261/261 307/307/307
f 255/255/255 308/308/308 265/265/265
f 61/61/61 49/49/49 50/50/50
f 61/61/61 50/50/50 62/62/62
f 111/111/111 314/314/314 312/312/312
f 111/111/111 312/312/312 109/109/109
f 112/112/112 61/61/61 62/62/62
f 112/112/112 110/110/110 61/61/61
f 104/104/104 62/62/62 50/50/50
f 104/104/104 50/50/50 94/94/94
f 99/99/99 109/109/109 312/312/312
f 99/99/99 312/312/312 274/274/274
f 101/101/101 263/263/263 92/92/92
f 101/101/101 275/275/275 263/263/263
f 100/100/100 49/49/49 61/61/61
f 100/100/100 91/91/91 49/49/49
f 277/277/277 308/308/308 320/320/320
f 277/277/277 265/265/265 308/308/308
f 278/278/278 314/314/314 111/111/111
f 278/278/278 111/111/111 103/103/103
f 276/276/276 102/102/102 93/93/93
f 276/276/276 93/93/93 264/264/264
f 319/319/319 261/261/261 273/273/273
f 319/319/319 307/307/307 261/261/261
f 319/319/319 311/311/311 313/313/313
f 319/319/319 313/313/313 320/320/320
f 319/319/319 320/320/320 308/308/308
f 319/319/319 308/308/308 307/307/307
f 57/57/57 50/50/50 49/49/49
f 57/57/57 49/49/49 55/55/55
f 254/254/254 91/91/91 262/262/262
f 254/254/254 56/56/56 91/91/91
f 255/255/255 307/307/307 308/308/308
f 255/255/255 253/253/253 307/307/307
f 256/256/256 266/266/266 94/94/94
f 256/256/256 94/94/94 58/58/58
f 256/256/256 58/58/58 56/56/56
f 256/256/256 56/56/56 254/254/254
