# metres; Y up; ground-centred pivot
mtllib 12_Valla_Esquina.mtl
v -0.6650000 0.0250000 -0.6400000
v -0.6650000 0.0250000 -0.5600000
v -0.6650000 0.0250000 0.5600000
v -0.6650000 0.0250000 0.6400000
v -0.6650000 1.1750000 -0.6400000
v -0.6650000 1.1750000 -0.5600000
v -0.6650000 1.1750000 0.5600000
v -0.6650000 1.1750000 0.6400000
v -0.6450000 0.3139000 -0.5901000
v -0.6450000 0.3139000 -0.5901000
v -0.6450000 0.3139000 0.5901000
v -0.6450000 0.3139000 0.5901000
v -0.6450000 0.3861000 -0.5901000
v -0.6450000 0.3861000 -0.5901000
v -0.6450000 0.3861000 0.5901000
v -0.6450000 0.3861000 0.5901000
v -0.6450000 0.8839000 -0.5901000
v -0.6450000 0.8839000 -0.5901000
v -0.6450000 0.8839000 0.5901000
v -0.6450000 0.8839000 0.5901000
v -0.6450000 0.9561000 -0.5901000
v -0.6450000 0.9561000 -0.5901000
v -0.6450000 0.9561000 0.5901000
v -0.6450000 0.9561000 0.5901000
v -0.6400000 0.0000000 -0.6400000
v -0.6400000 0.0000000 -0.6400000
v -0.6400000 0.0000000 -0.5600000
v -0.6400000 0.0000000 -0.5600000
v -0.6400000 0.0000000 -0.5600000
v -0.6400000 0.0000000 0.5600000
v -0.6400000 0.0000000 0.5600000
v -0.6400000 0.0000000 0.6400000
v -0.6400000 0.0000000 0.6400000
v -0.6400000 0.0000000 0.6400000
v -0.6400000 0.0250000 -0.6650000
v -0.6400000 0.0250000 -0.6650000
v -0.6400000 0.0250000 -0.5350000
v -0.6400000 0.0250000 -0.5350000
v -0.6400000 0.0250000 0.5350000
v -0.6400000 0.0250000 0.5350000
v -0.6400000 0.0250000 0.6650000
v -0.6400000 0.0250000 0.6650000
v -0.6400000 1.1750000 -0.6650000
v -0.6400000 1.1750000 -0.6650000
v -0.6400000 1.1750000 -0.5350000
v -0.6400000 1.1750000 -0.5350000
v -0.6400000 1.1750000 0.5350000
v -0.6400000 1.1750000 0.5350000
v -0.6400000 1.1750000 0.6650000
v -0.6400000 1.1750000 0.6650000
v -0.6400000 1.2000000 -0.6400000
v -0.6400000 1.2000000 -0.6400000
v -0.6400000 1.2000000 -0.5600000
v -0.6400000 1.2000000 -0.5600000
v -0.6400000 1.2000000 -0.5600000
v -0.6400000 1.2000000 0.5600000
v -0.6400000 1.2000000 0.5600000
v -0.6400000 1.2000000 0.6400000
v -0.6400000 1.2000000 0.6400000
v -0.6400000 1.2000000 0.6400000
v -0.6261000 0.2950000 -0.5901000
v -0.6261000 0.2950000 0.5901000
v -0.6261000 0.3139000 -0.6090000
v -0.6261000 0.3139000 -0.6090000
v -0.6261000 0.3139000 -0.6090000
v -0.6261000 0.3139000 0.6090000
v -0.6261000 0.3139000 0.6090000
v -0.6261000 0.3139000 0.6090000
v -0.6261000 0.3861000 -0.6090000
v -0.6261000 0.3861000 -0.6090000
v -0.6261000 0.3861000 -0.6090000
v -0.6261000 0.3861000 0.6090000
v -0.6261000 0.3861000 0.6090000
v -0.6261000 0.3861000 0.6090000
v -0.6261000 0.4050000 -0.5901000
v -0.6261000 0.4050000 0.5901000
v -0.6261000 0.8650000 -0.5901000
v -0.6261000 0.8650000 0.5901000
v -0.6261000 0.8839000 -0.6090000
v -0.6261000 0.8839000 -0.6090000
v -0.6261000 0.8839000 -0.6090000
v -0.6261000 0.8839000 0.6090000
v -0.6261000 0.8839000 0.6090000
v -0.6261000 0.8839000 0.6090000
v -0.6261000 0.9561000 -0.6090000
v -0.6261000 0.9561000 -0.6090000
v -0.6261000 0.9561000 -0.6090000
v -0.6261000 0.9561000 0.6090000
v -0.6261000 0.9561000 0.6090000
v -0.6261000 0.9561000 0.6090000
v -0.6261000 0.9750000 -0.5901000
v -0.6261000 0.9750000 0.5901000
v -0.6090000 0.3139000 -0.6261000
v -0.6090000 0.3139000 -0.6261000
v -0.6090000 0.3139000 -0.5739000
v -0.6090000 0.3139000 -0.5739000
v -0.6090000 0.3139000 -0.5739000
v -0.6090000 0.3861000 -0.6261000
v -0.6090000 0.3861000 -0.6261000
v -0.6090000 0.3861000 -0.6261000
v -0.6090000 0.3861000 -0.5739000
v -0.6090000 0.3861000 -0.5739000
v -0.6090000 0.3861000 -0.5739000
v -0.6090000 0.8839000 -0.6261000
v -0.6090000 0.8839000 -0.6261000
v -0.6090000 0.8839000 -0.5739000
v -0.6090000 0.8839000 -0.5739000
v -0.6090000 0.8839000 -0.5739000
v -0.6090000 0.9561000 -0.6261000
v -0.6090000 0.9561000 -0.6261000
v -0.6090000 0.9561000 -0.6261000
v -0.6090000 0.9561000 -0.5739000
v -0.6090000 0.9561000 -0.5739000
v -0.6090000 0.9561000 -0.5739000
v -0.5901000 0.2950000 -0.6261000
v -0.5901000 0.2950000 -0.5739000
v -0.5901000 0.3139000 -0.6450000
v -0.5901000 0.3139000 -0.6450000
v -0.5901000 0.3139000 -0.5550000
v -0.5901000 0.3139000 -0.5550000
v -0.5901000 0.3861000 -0.6450000
v -0.5901000 0.3861000 -0.6450000
v -0.5901000 0.3861000 -0.5550000
v -0.5901000 0.3861000 -0.5550000
v -0.5901000 0.4050000 -0.6261000
v -0.5901000 0.4050000 -0.5739000
v -0.5901000 0.8650000 -0.6261000
v -0.5901000 0.8650000 -0.5739000
v -0.5901000 0.8839000 -0.6450000
v -0.5901000 0.8839000 -0.6450000
v -0.5901000 0.8839000 -0.5550000
v -0.5901000 0.8839000 -0.5550000
v -0.5901000 0.9561000 -0.6450000
v -0.5901000 0.9561000 -0.6450000
v -0.5901000 0.9561000 -0.5550000
v -0.5901000 0.9561000 -0.5550000
v -0.5901000 0.9750000 -0.6261000
v -0.5901000 0.9750000 -0.5739000
v -0.5739000 0.2950000 -0.5901000
v -0.5739000 0.2950000 0.5901000
v -0.5739000 0.3139000 -0.6090000
v -0.5739000 0.3139000 -0.6090000
v -0.5739000 0.3139000 0.6090000
v -0.5739000 0.3139000 0.6090000
v -0.5739000 0.3861000 -0.6090000
v -0.5739000 0.3861000 -0.6090000
v -0.5739000 0.3861000 -0.6090000
v -0.5739000 0.3861000 0.6090000
v -0.5739000 0.3861000 0.6090000
v -0.5739000 0.3861000 0.6090000
v -0.5739000 0.4050000 -0.5901000
v -0.5739000 0.4050000 0.5901000
v -0.5739000 0.8650000 -0.5901000
v -0.5739000 0.8650000 0.5901000
v -0.5739000 0.8839000 -0.6090000
v -0.5739000 0.8839000 -0.6090000
v -0.5739000 0.8839000 0.6090000
v -0.5739000 0.8839000 0.6090000
v -0.5739000 0.9561000 -0.6090000
v -0.5739000 0.9561000 -0.6090000
v -0.5739000 0.9561000 -0.6090000
v -0.5739000 0.9561000 0.6090000
v -0.5739000 0.9561000 0.6090000
v -0.5739000 0.9561000 0.6090000
v -0.5739000 0.9750000 -0.5901000
v -0.5739000 0.9750000 0.5901000
v -0.5600000 0.0000000 -0.6400000
v -0.5600000 0.0000000 -0.6400000
v -0.5600000 0.0000000 -0.6400000
v -0.5600000 0.0000000 -0.5600000
v -0.5600000 0.0000000 -0.5600000
v -0.5600000 0.0000000 0.5600000
v -0.5600000 0.0000000 0.5600000
v -0.5600000 0.0000000 0.5600000
v -0.5600000 0.0000000 0.6400000
v -0.5600000 0.0000000 0.6400000
v -0.5600000 0.0250000 -0.6650000
v -0.5600000 0.0250000 -0.6650000
v -0.5600000 0.0250000 -0.5350000
v -0.5600000 0.0250000 -0.5350000
v -0.5600000 0.0250000 0.5350000
v -0.5600000 0.0250000 0.5350000
v -0.5600000 0.0250000 0.6650000
v -0.5600000 0.0250000 0.6650000
v -0.5600000 1.1750000 -0.6650000
v -0.5600000 1.1750000 -0.6650000
v -0.5600000 1.1750000 -0.5350000
v -0.5600000 1.1750000 -0.5350000
v -0.5600000 1.1750000 0.5350000
v -0.5600000 1.1750000 0.5350000
v -0.5600000 1.1750000 0.6650000
v -0.5600000 1.1750000 0.6650000
v -0.5600000 1.2000000 -0.6400000
v -0.5600000 1.2000000 -0.6400000
v -0.5600000 1.2000000 -0.6400000
v -0.5600000 1.2000000 -0.5600000
v -0.5600000 1.2000000 -0.5600000
v -0.5600000 1.2000000 0.5600000
v -0.5600000 1.2000000 0.5600000
v -0.5600000 1.2000000 0.5600000
v -0.5600000 1.2000000 0.6400000
v -0.5600000 1.2000000 0.6400000
v -0.5550000 0.3139000 -0.5901000
v -0.5550000 0.3139000 -0.5901000
v -0.5550000 0.3139000 0.5901000
v -0.5550000 0.3139000 0.5901000
v -0.5550000 0.3861000 -0.5901000
v -0.5550000 0.3861000 -0.5901000
v -0.5550000 0.3861000 0.5901000
v -0.5550000 0.3861000 0.5901000
v -0.5550000 0.8839000 -0.5901000
v -0.5550000 0.8839000 -0.5901000
v -0.5550000 0.8839000 0.5901000
v -0.5550000 0.8839000 0.5901000
v -0.5550000 0.9561000 -0.5901000
v -0.5550000 0.9561000 -0.5901000
v -0.5550000 0.9561000 0.5901000
v -0.5550000 0.9561000 0.5901000
v -0.5350000 0.0250000 -0.6400000
v -0.5350000 0.0250000 -0.5600000
v -0.5350000 0.0250000 0.5600000
v -0.5350000 0.0250000 0.6400000
v -0.5350000 1.1750000 -0.6400000
v -0.5350000 1.1750000 -0.5600000
v -0.5350000 1.1750000 0.5600000
v -0.5350000 1.1750000 0.6400000
v 0.5350000 0.0250000 -0.6400000
v 0.5350000 0.0250000 -0.5600000
v 0.5350000 1.1750000 -0.6400000
v 0.5350000 1.1750000 -0.5600000
v 0.5600000 0.0000000 -0.6400000
v 0.5600000 0.0000000 -0.6400000
v 0.5600000 0.0000000 -0.5600000
v 0.5600000 0.0000000 -0.5600000
v 0.5600000 0.0000000 -0.5600000
v 0.5600000 0.0250000 -0.6650000
v 0.5600000 0.0250000 -0.6650000
v 0.5600000 0.0250000 -0.5350000
v 0.5600000 0.0250000 -0.5350000
v 0.5600000 1.1750000 -0.6650000
v 0.5600000 1.1750000 -0.6650000
v 0.5600000 1.1750000 -0.5350000
v 0.5600000 1.1750000 -0.5350000
v 0.5600000 1.2000000 -0.6400000
v 0.5600000 1.2000000 -0.6400000
v 0.5600000 1.2000000 -0.5600000
v 0.5600000 1.2000000 -0.5600000
v 0.5600000 1.2000000 -0.5600000
v 0.5901000 0.2950000 -0.6261000
v 0.5901000 0.2950000 -0.5739000
v 0.5901000 0.3139000 -0.6450000
v 0.5901000 0.3139000 -0.6450000
v 0.5901000 0.3139000 -0.5550000
v 0.5901000 0.3139000 -0.5550000
v 0.5901000 0.3861000 -0.6450000
v 0.5901000 0.3861000 -0.6450000
v 0.5901000 0.3861000 -0.5550000
v 0.5901000 0.3861000 -0.5550000
v 0.5901000 0.4050000 -0.6261000
v 0.5901000 0.4050000 -0.5739000
v 0.5901000 0.8650000 -0.6261000
v 0.5901000 0.8650000 -0.5739000
v 0.5901000 0.8839000 -0.6450000
v 0.5901000 0.8839000 -0.6450000
v 0.5901000 0.8839000 -0.5550000
v 0.5901000 0.8839000 -0.5550000
v 0.5901000 0.9561000 -0.6450000
v 0.5901000 0.9561000 -0.6450000
v 0.5901000 0.9561000 -0.5550000
v 0.5901000 0.9561000 -0.5550000
v 0.5901000 0.9750000 -0.6261000
v 0.5901000 0.9750000 -0.5739000
v 0.6090000 0.3139000 -0.6261000
v 0.6090000 0.3139000 -0.6261000
v 0.6090000 0.3139000 -0.5739000
v 0.6090000 0.3139000 -0.5739000
v 0.6090000 0.3139000 -0.5739000
v 0.6090000 0.3861000 -0.6261000
v 0.6090000 0.3861000 -0.6261000
v 0.6090000 0.3861000 -0.6261000
v 0.6090000 0.3861000 -0.5739000
v 0.6090000 0.3861000 -0.5739000
v 0.6090000 0.3861000 -0.5739000
v 0.6090000 0.8839000 -0.6261000
v 0.6090000 0.8839000 -0.6261000
v 0.6090000 0.8839000 -0.5739000
v 0.6090000 0.8839000 -0.5739000
v 0.6090000 0.8839000 -0.5739000
v 0.6090000 0.9561000 -0.6261000
v 0.6090000 0.9561000 -0.6261000
v 0.6090000 0.9561000 -0.6261000
v 0.6090000 0.9561000 -0.5739000
v 0.6090000 0.9561000 -0.5739000
v 0.6090000 0.9561000 -0.5739000
v 0.6400000 0.0000000 -0.6400000
v 0.6400000 0.0000000 -0.6400000
v 0.6400000 0.0000000 -0.6400000
v 0.6400000 0.0000000 -0.5600000
v 0.6400000 0.0000000 -0.5600000
v 0.6400000 0.0250000 -0.6650000
v 0.6400000 0.0250000 -0.6650000
v 0.6400000 0.0250000 -0.5350000
v 0.6400000 0.0250000 -0.5350000
v 0.6400000 1.1750000 -0.6650000
v 0.6400000 1.1750000 -0.6650000
v 0.6400000 1.1750000 -0.5350000
v 0.6400000 1.1750000 -0.5350000
v 0.6400000 1.2000000 -0.6400000
v 0.6400000 1.2000000 -0.6400000
v 0.6400000 1.2000000 -0.6400000
v 0.6400000 1.2000000 -0.5600000
v 0.6400000 1.2000000 -0.5600000
v 0.6650000 0.0250000 -0.6400000
v 0.6650000 0.0250000 -0.5600000
v 0.6650000 1.1750000 -0.6400000
v 0.6650000 1.1750000 -0.5600000
vt 0.0790318 0.1216943
vt 0.1933175 0.1216943
vt 0.1497286 0.0386672
vt 0.2640143 0.0386672
vt 0.0790318 0.4599296
vt 0.1933175 0.4599296
vt 0.1497286 0.3769024
vt 0.2640143 0.3769024
vt 0.0597684 0.0995979
vt 0.1613399 0.0995979
vt 0.0597684 0.4467156
vt 0.1613399 0.4467156
vt 0.1613399 0.0995979
vt 0.1629113 0.0995979
vt 0.1613399 0.4467156
vt 0.1629113 0.4467156
vt 0.0627409 0.0813100
vt 0.1643123 0.0813100
vt 0.0627409 0.4284276
vt 0.1643123 0.4284276
vt 0.1643123 0.0813100
vt 0.1658837 0.0813100
vt 0.1643123 0.4284276
vt 0.1658837 0.4284276
vt 0.0790318 0.1143414
vt 0.0790318 0.1216943
vt 0.0790318 0.1143414
vt 0.1933175 0.1143414
vt 0.1933175 0.1216943
vt 0.1497286 0.0313142
vt 0.1497286 0.0386672
vt 0.1497286 0.0313142
vt 0.2640143 0.0313142
vt 0.2640143 0.0386672
vt 0.0433175 0.1216943
vt 0.0790318 0.1216943
vt 0.0790318 0.1216943
vt 0.2290318 0.1216943
vt 0.1140143 0.0386672
vt 0.1497286 0.0386672
vt 0.1497286 0.0386672
vt 0.2997286 0.0386672
vt 0.0433175 0.4599296
vt 0.0790318 0.4599296
vt 0.0790318 0.4599296
vt 0.2290318 0.4599296
vt 0.1140143 0.3769024
vt 0.1497286 0.3769024
vt 0.1497286 0.3769024
vt 0.2997286 0.3769024
vt 0.0790318 0.1216943
vt 0.0790318 0.4672825
vt 0.0790318 0.4672825
vt 0.1933175 0.1216943
vt 0.1933175 0.4672825
vt 0.1497286 0.0386672
vt 0.1497286 0.3842554
vt 0.1497286 0.3842554
vt 0.2640143 0.0386672
vt 0.2640143 0.3842554
vt 0.1343399 0.0995979
vt 0.1343399 0.4467156
vt 0.0597684 0.0940391
vt 0.1343399 0.0940391
vt 0.1343399 0.0995979
vt 0.0597684 0.4522744
vt 0.1343399 0.0995979
vt 0.1343399 0.4522744
vt 0.1343399 0.0940391
vt 0.1343399 0.1208332
vt 0.1629113 0.0940391
vt 0.1343399 0.1208332
vt 0.1343399 0.4522744
vt 0.1629113 0.4522744
vt 0.1343399 0.0995979
vt 0.1343399 0.4467156
vt 0.1373123 0.0813100
vt 0.1373123 0.4284276
vt 0.0627409 0.0757512
vt 0.1373123 0.0757512
vt 0.1373123 0.0813100
vt 0.0627409 0.4339865
vt 0.1373123 0.0813100
vt 0.1373123 0.4339865
vt 0.1373123 0.0757512
vt 0.1373123 0.1025453
vt 0.1658837 0.0757512
vt 0.1373123 0.1025453
vt 0.1373123 0.4339865
vt 0.1658837 0.4339865
vt 0.1373123 0.0813100
vt 0.1373123 0.4284276
vt 0.1114341 0.0451705
vt 0.1114341 0.0507293
vt 0.1114341 0.0451705
vt 0.1860055 0.0451705
vt 0.1860055 0.0507293
vt 0.1114341 0.0451705
vt 0.1114341 0.0719646
vt 0.2145770 0.0451705
vt 0.1860055 0.0451705
vt 0.1860055 0.0719646
vt 0.2145770 0.0451705
vt 0.0558488 0.0541213
vt 0.0558488 0.0596801
vt 0.0558488 0.0541213
vt 0.1304202 0.0541213
vt 0.1304202 0.0596801
vt 0.0558488 0.0541213
vt 0.0558488 0.0809154
vt 0.1589917 0.0541213
vt 0.1304202 0.0541213
vt 0.1304202 0.0809154
vt 0.1589917 0.0541213
vt 0.1114341 0.0507293
vt 0.1860055 0.0507293
vt 0.0844341 0.0507293
vt 0.1114341 0.0507293
vt 0.1114341 0.0507293
vt 0.2130055 0.0507293
vt 0.0844341 0.0507293
vt 0.2145770 0.0507293
vt 0.2130055 0.0507293
vt 0.2145770 0.0507293
vt 0.1114341 0.0507293
vt 0.1860055 0.0507293
vt 0.0558488 0.0596801
vt 0.1304202 0.0596801
vt 0.0288488 0.0596801
vt 0.0558488 0.0596801
vt 0.0558488 0.0596801
vt 0.1574202 0.0596801
vt 0.0288488 0.0596801
vt 0.1589917 0.0596801
vt 0.1574202 0.0596801
vt 0.1589917 0.0596801
vt 0.0558488 0.0596801
vt 0.1304202 0.0596801
vt 0.0597684 0.0995979
vt 0.0597684 0.4467156
vt 0.0597684 0.0940391
vt 0.0597684 0.0995979
vt 0.0597684 0.0995979
vt 0.0597684 0.4522744
vt 0.0597684 0.0940391
vt 0.0597684 0.1208332
vt 0.1629113 0.0940391
vt 0.0597684 0.1208332
vt 0.0597684 0.4522744
vt 0.1629113 0.4522744
vt 0.0597684 0.0995979
vt 0.0597684 0.4467156
vt 0.0627409 0.0813100
vt 0.0627409 0.4284276
vt 0.0627409 0.0757512
vt 0.0627409 0.0813100
vt 0.0627409 0.0813100
vt 0.0627409 0.4339865
vt 0.0627409 0.0757512
vt 0.0627409 0.1025453
vt 0.1658837 0.0757512
vt 0.0627409 0.1025453
vt 0.0627409 0.4339865
vt 0.1658837 0.4339865
vt 0.0627409 0.0813100
vt 0.0627409 0.4284276
vt 0.0790318 0.1143414
vt 0.0790318 0.1452237
vt 0.1933175 0.1143414
vt 0.1933175 0.1143414
vt 0.1933175 0.1452237
vt 0.1497286 0.0313142
vt 0.1497286 0.0621966
vt 0.2640143 0.0313142
vt 0.2640143 0.0313142
vt 0.2640143 0.0621966
vt 0.0433175 0.1216943
vt 0.1933175 0.1216943
vt 0.1933175 0.1216943
vt 0.2290318 0.1216943
vt 0.1140143 0.0386672
vt 0.2640143 0.0386672
vt 0.2640143 0.0386672
vt 0.2997286 0.0386672
vt 0.0433175 0.4599296
vt 0.1933175 0.4599296
vt 0.1933175 0.4599296
vt 0.2290318 0.4599296
vt 0.1140143 0.3769024
vt 0.2640143 0.3769024
vt 0.2640143 0.3769024
vt 0.2997286 0.3769024
vt 0.0790318 0.1452237
vt 0.0790318 0.4672825
vt 0.1933175 0.4672825
vt 0.1933175 0.1452237
vt 0.1933175 0.4672825
vt 0.1497286 0.0621966
vt 0.1497286 0.3842554
vt 0.2640143 0.3842554
vt 0.2640143 0.0621966
vt 0.2640143 0.3842554
vt 0.0327684 0.0995979
vt 0.0597684 0.0995979
vt 0.0327684 0.4467156
vt 0.0597684 0.4467156
vt 0.0327684 0.0995979
vt 0.1629113 0.0995979
vt 0.0327684 0.4467156
vt 0.1629113 0.4467156
vt 0.0357409 0.0813100
vt 0.0627409 0.0813100
vt 0.0357409 0.4284276
vt 0.0627409 0.4284276
vt 0.0357409 0.0813100
vt 0.1658837 0.0813100
vt 0.0357409 0.4284276
vt 0.1658837 0.4284276
vt 0.0790318 0.1216943
vt 0.1933175 0.1216943
vt 0.1497286 0.0386672
vt 0.2640143 0.0386672
vt 0.0790318 0.4599296
vt 0.1933175 0.4599296
vt 0.1497286 0.3769024
vt 0.2640143 0.3769024
vt 0.1477037 0.0463887
vt 0.2619894 0.0463887
vt 0.1477037 0.3846240
vt 0.2619894 0.3846240
vt 0.1477037 0.0390358
vt 0.1477037 0.0463887
vt 0.1477037 0.0390358
vt 0.2619894 0.0390358
vt 0.2619894 0.0463887
vt 0.1119894 0.0463887
vt 0.1477037 0.0463887
vt 0.1477037 0.0463887
vt 0.2977037 0.0463887
vt 0.1119894 0.3846240
vt 0.1477037 0.3846240
vt 0.1477037 0.3846240
vt 0.2977037 0.3846240
vt 0.1477037 0.0463887
vt 0.1477037 0.3919770
vt 0.1477037 0.3919770
vt 0.2619894 0.0463887
vt 0.2619894 0.3919770
vt 0.1114341 0.3978470
vt 0.1860055 0.3978470
vt 0.0844341 0.3978470
vt 0.1114341 0.3978470
vt 0.1114341 0.3978470
vt 0.2130055 0.3978470
vt 0.0844341 0.3978470
vt 0.2145770 0.3978470
vt 0.2130055 0.3978470
vt 0.2145770 0.3978470
vt 0.1114341 0.3978470
vt 0.1860055 0.3978470
vt 0.0558488 0.4067978
vt 0.1304202 0.4067978
vt 0.0288488 0.4067978
vt 0.0558488 0.4067978
vt 0.0558488 0.4067978
vt 0.1574202 0.4067978
vt 0.0288488 0.4067978
vt 0.1589917 0.4067978
vt 0.1574202 0.4067978
vt 0.1589917 0.4067978
vt 0.0558488 0.4067978
vt 0.1304202 0.4067978
vt 0.1114341 0.0507293
vt 0.1114341 0.4034058
vt 0.1114341 0.4034058
vt 0.1860055 0.0507293
vt 0.1860055 0.4034058
vt 0.1114341 0.0719646
vt 0.1114341 0.4034058
vt 0.2145770 0.4034058
vt 0.1860055 0.0719646
vt 0.1860055 0.4034058
vt 0.2145770 0.4034058
vt 0.0558488 0.0596801
vt 0.0558488 0.4123566
vt 0.0558488 0.4123566
vt 0.1304202 0.0596801
vt 0.1304202 0.4123566
vt 0.0558488 0.0809154
vt 0.0558488 0.4123566
vt 0.1589917 0.4123566
vt 0.1304202 0.0809154
vt 0.1304202 0.4123566
vt 0.1589917 0.4123566
vt 0.1477037 0.0390358
vt 0.1477037 0.0699181
vt 0.2619894 0.0390358
vt 0.2619894 0.0390358
vt 0.2619894 0.0699181
vt 0.1119894 0.0463887
vt 0.2619894 0.0463887
vt 0.2619894 0.0463887
vt 0.2977037 0.0463887
vt 0.1119894 0.3846240
vt 0.2619894 0.3846240
vt 0.2619894 0.3846240
vt 0.2977037 0.3846240
vt 0.1477037 0.0699181
vt 0.1477037 0.3919770
vt 0.2619894 0.3919770
vt 0.2619894 0.0699181
vt 0.2619894 0.3919770
vt 0.1477037 0.0463887
vt 0.2619894 0.0463887
vt 0.1477037 0.3846240
vt 0.2619894 0.3846240
vn -0.9353040 -0.0280667 -0.3527302
vn -0.9727530 -0.0104597 0.2316079
vn -0.9353040 -0.0280667 -0.3527302
vn -0.9727530 -0.0104597 0.2316079
vn -0.9907722 0.0210803 -0.1338881
vn -0.9725979 0.0206936 0.2315709
vn -0.9907722 0.0210803 -0.1338881
vn -0.9725979 0.0206936 0.2315709
vn -0.9461642 -0.3234500 -0.0123844
vn -0.9461642 -0.3234500 -0.0123844
vn -0.9932380 -0.1157620 0.0087949
vn -0.9932380 -0.1157620 0.0087949
vn -0.9793080 0.2019004 -0.0138572
vn -0.9793080 0.2019004 -0.0138572
vn -0.9792799 0.2006591 0.0273268
vn -0.9792799 0.2006591 0.0273268
vn -0.9461642 -0.3234500 -0.0123844
vn -0.9461642 -0.3234500 -0.0123844
vn -0.9932380 -0.1157620 0.0087949
vn -0.9932380 -0.1157620 0.0087949
vn -0.9793080 0.2019004 -0.0138572
vn -0.9793080 0.2019004 -0.0138572
vn -0.9792799 0.2006591 0.0273268
vn -0.9792799 0.2006591 0.0273268
vn -0.1473390 -0.9780503 -0.1473390
vn -0.1473390 -0.9780503 -0.1473390
vn -0.3287410 -0.9258057 0.1865827
vn -0.3287410 -0.9258057 0.1865827
vn -0.3287410 -0.9258057 0.1865827
vn -0.1473390 -0.9780503 -0.1473390
vn -0.1473390 -0.9780503 -0.1473390
vn -0.3287410 -0.9258057 0.1865827
vn -0.3287410 -0.9258057 0.1865827
vn -0.3287410 -0.9258057 0.1865827
vn -0.2279724 -0.0358935 -0.9730058
vn -0.2279724 -0.0358935 -0.9730058
vn -0.2279724 -0.0358935 0.9730058
vn -0.2279724 -0.0358935 0.9730058
vn -0.2279724 -0.0358935 -0.9730058
vn -0.2279724 -0.0358935 -0.9730058
vn -0.2279724 -0.0358935 0.9730058
vn -0.2279724 -0.0358935 0.9730058
vn -0.2297998 0.0182851 -0.9730661
vn -0.2297998 0.0182851 -0.9730661
vn -0.2297998 0.0182851 0.9730661
vn -0.2297998 0.0182851 0.9730661
vn -0.2297998 0.0182851 -0.9730661
vn -0.2297998 0.0182851 -0.9730661
vn -0.2297998 0.0182851 0.9730661
vn -0.2297998 0.0182851 0.9730661
vn -0.1473390 0.9780503 -0.1473390
vn -0.1473390 0.9780503 -0.1473390
vn -0.3287410 0.9258057 0.1865827
vn -0.3287410 0.9258057 0.1865827
vn -0.3287410 0.9258057 0.1865827
vn -0.1473390 0.9780503 -0.1473390
vn -0.1473390 0.9780503 -0.1473390
vn -0.3287410 0.9258057 0.1865827
vn -0.3287410 0.9258057 0.1865827
vn -0.3287410 0.9258057 0.1865827
vn -0.2540664 -0.9668339 -0.0261249
vn -0.2554867 -0.9667219 0.0132398
vn -0.2553090 -0.1111603 -0.9604482
vn -0.2553090 -0.1111603 -0.9604482
vn -0.2553090 -0.1111603 -0.9604482
vn -0.2553090 -0.1111603 0.9604482
vn -0.2553090 -0.1111603 0.9604482
vn -0.2553090 -0.1111603 0.9604482
vn -0.2518880 0.1965888 -0.9475786
vn -0.2518880 0.1965888 -0.9475786
vn -0.2518880 0.1965888 -0.9475786
vn -0.2518880 0.1965888 0.9475786
vn -0.2518880 0.1965888 0.9475786
vn -0.2518880 0.1965888 0.9475786
vn -0.2540664 0.9668339 -0.0261249
vn -0.2554867 0.9667219 0.0132398
vn -0.2540664 -0.9668339 -0.0261249
vn -0.2554867 -0.9667219 0.0132398
vn -0.2553090 -0.1111603 -0.9604482
vn -0.2553090 -0.1111603 -0.9604482
vn -0.2553090 -0.1111603 -0.9604482
vn -0.2553090 -0.1111603 0.9604482
vn -0.2553090 -0.1111603 0.9604482
vn -0.2553090 -0.1111603 0.9604482
vn -0.2518880 0.1965888 -0.9475786
vn -0.2518880 0.1965888 -0.9475786
vn -0.2518880 0.1965888 -0.9475786
vn -0.2518880 0.1965888 0.9475786
vn -0.2518880 0.1965888 0.9475786
vn -0.2518880 0.1965888 0.9475786
vn -0.2540664 0.9668339 -0.0261249
vn -0.2554867 0.9667219 0.0132398
vn -0.9159695 -0.2417828 -0.3202200
vn -0.9159695 -0.2417828 -0.3202200
vn -0.9604482 -0.1111603 0.2553090
vn -0.9604482 -0.1111603 0.2553090
vn -0.9604482 -0.1111603 0.2553090
vn -0.9683044 0.2008886 -0.1484262
vn -0.9683044 0.2008886 -0.1484262
vn -0.9683044 0.2008886 -0.1484262
vn -0.9475786 0.1965888 0.2518880
vn -0.9475786 0.1965888 0.2518880
vn -0.9475786 0.1965888 0.2518880
vn -0.9159695 -0.2417828 -0.3202200
vn -0.9159695 -0.2417828 -0.3202200
vn -0.9604482 -0.1111603 0.2553090
vn -0.9604482 -0.1111603 0.2553090
vn -0.9604482 -0.1111603 0.2553090
vn -0.9683044 0.2008886 -0.1484262
vn -0.9683044 0.2008886 -0.1484262
vn -0.9683044 0.2008886 -0.1484262
vn -0.9475786 0.1965888 0.2518880
vn -0.9475786 0.1965888 0.2518880
vn -0.9475786 0.1965888 0.2518880
vn -0.0090426 -0.9882616 -0.1525030
vn -0.0261249 -0.9668339 0.2540664
vn -0.0123844 -0.3234500 -0.9461642
vn -0.0123844 -0.3234500 -0.9461642
vn -0.0123844 -0.3234500 0.9461642
vn -0.0123844 -0.3234500 0.9461642
vn -0.0138572 0.2019004 -0.9793080
vn -0.0138572 0.2019004 -0.9793080
vn -0.0138572 0.2019004 0.9793080
vn -0.0138572 0.2019004 0.9793080
vn -0.0090426 0.9882616 -0.1525030
vn -0.0261249 0.9668339 0.2540664
vn -0.0090426 -0.9882616 -0.1525030
vn -0.0261249 -0.9668339 0.2540664
vn -0.0123844 -0.3234500 -0.9461642
vn -0.0123844 -0.3234500 -0.9461642
vn -0.0123844 -0.3234500 0.9461642
vn -0.0123844 -0.3234500 0.9461642
vn -0.0138572 0.2019004 -0.9793080
vn -0.0138572 0.2019004 -0.9793080
vn -0.0138572 0.2019004 0.9793080
vn -0.0138572 0.2019004 0.9793080
vn -0.0090426 0.9882616 -0.1525030
vn -0.0261249 0.9668339 0.2540664
vn 0.1525030 -0.9882616 -0.0090426
vn 0.3856957 -0.9225541 0.0115256
vn 0.3202200 -0.2417828 -0.9159695
vn 0.3202200 -0.2417828 -0.9159695
vn 0.2150502 -0.2910613 0.9322214
vn 0.2150502 -0.2910613 0.9322214
vn 0.1484262 0.2008886 -0.9683044
vn 0.1484262 0.2008886 -0.9683044
vn 0.1484262 0.2008886 -0.9683044
vn 0.2342155 0.1768449 0.9559650
vn 0.2342155 0.1768449 0.9559650
vn 0.2342155 0.1768449 0.9559650
vn 0.1525030 0.9882616 -0.0090426
vn 0.3856957 0.9225541 0.0115256
vn 0.1525030 -0.9882616 -0.0090426
vn 0.3856957 -0.9225541 0.0115256
vn 0.3202200 -0.2417828 -0.9159695
vn 0.3202200 -0.2417828 -0.9159695
vn 0.2150502 -0.2910613 0.9322214
vn 0.2150502 -0.2910613 0.9322214
vn 0.1484262 0.2008886 -0.9683044
vn 0.1484262 0.2008886 -0.9683044
vn 0.1484262 0.2008886 -0.9683044
vn 0.2342155 0.1768449 0.9559650
vn 0.2342155 0.1768449 0.9559650
vn 0.2342155 0.1768449 0.9559650
vn 0.1525030 0.9882616 -0.0090426
vn 0.3856957 0.9225541 0.0115256
vn 0.1865827 -0.9258057 -0.3287410
vn 0.1865827 -0.9258057 -0.3287410
vn 0.1865827 -0.9258057 -0.3287410
vn 0.2064625 -0.9564238 0.2064625
vn 0.2064625 -0.9564238 0.2064625
vn 0.1865827 -0.9258057 -0.3287410
vn 0.1865827 -0.9258057 -0.3287410
vn 0.1865827 -0.9258057 -0.3287410
vn 0.2064625 -0.9564238 0.2064625
vn 0.2064625 -0.9564238 0.2064625
vn 0.1351290 -0.0120754 -0.9907544
vn 0.1351290 -0.0120754 -0.9907544
vn 0.1351290 -0.0120754 0.9907544
vn 0.1351290 -0.0120754 0.9907544
vn 0.1351290 -0.0120754 -0.9907544
vn 0.1351290 -0.0120754 -0.9907544
vn 0.1351290 -0.0120754 0.9907544
vn 0.1351290 -0.0120754 0.9907544
vn 0.3568744 0.0161169 -0.9340133
vn 0.3568744 0.0161169 -0.9340133
vn 0.3568744 0.0161169 0.9340133
vn 0.3568744 0.0161169 0.9340133
vn 0.3568744 0.0161169 -0.9340133
vn 0.3568744 0.0161169 -0.9340133
vn 0.3568744 0.0161169 0.9340133
vn 0.3568744 0.0161169 0.9340133
vn 0.1865827 0.9258057 -0.3287410
vn 0.1865827 0.9258057 -0.3287410
vn 0.1865827 0.9258057 -0.3287410
vn 0.2064625 0.9564238 0.2064625
vn 0.2064625 0.9564238 0.2064625
vn 0.1865827 0.9258057 -0.3287410
vn 0.1865827 0.9258057 -0.3287410
vn 0.1865827 0.9258057 -0.3287410
vn 0.2064625 0.9564238 0.2064625
vn 0.2064625 0.9564238 0.2064625
vn 0.9461642 -0.3234500 -0.0123844
vn 0.9461642 -0.3234500 -0.0123844
vn 0.9932472 -0.1149563 0.0156554
vn 0.9932472 -0.1149563 0.0156554
vn 0.9793080 0.2019004 -0.0138572
vn 0.9793080 0.2019004 -0.0138572
vn 0.9790334 0.2031145 0.0154313
vn 0.9790334 0.2031145 0.0154313
vn 0.9461642 -0.3234500 -0.0123844
vn 0.9461642 -0.3234500 -0.0123844
vn 0.9932472 -0.1149563 0.0156554
vn 0.9932472 -0.1149563 0.0156554
vn 0.9793080 0.2019004 -0.0138572
vn 0.9793080 0.2019004 -0.0138572
vn 0.9790334 0.2031145 0.0154313
vn 0.9790334 0.2031145 0.0154313
vn 0.9353040 -0.0280667 -0.3527302
vn 0.9727530 -0.0104597 0.2316079
vn 0.9353040 -0.0280667 -0.3527302
vn 0.9727530 -0.0104597 0.2316079
vn 0.9907722 0.0210803 -0.1338881
vn 0.9725979 0.0206936 0.2315709
vn 0.9907722 0.0210803 -0.1338881
vn 0.9725979 0.0206936 0.2315709
vn -0.9353040 -0.0280667 -0.3527302
vn -0.9727530 -0.0104597 0.2316079
vn -0.9907722 0.0210803 -0.1338881
vn -0.9725979 0.0206936 0.2315709
vn -0.1473390 -0.9780503 -0.1473390
vn -0.1473390 -0.9780503 -0.1473390
vn -0.3287410 -0.9258057 0.1865827
vn -0.3287410 -0.9258057 0.1865827
vn -0.3287410 -0.9258057 0.1865827
vn -0.2279724 -0.0358935 -0.9730058
vn -0.2279724 -0.0358935 -0.9730058
vn -0.2279724 -0.0358935 0.9730058
vn -0.2279724 -0.0358935 0.9730058
vn -0.2297998 0.0182851 -0.9730661
vn -0.2297998 0.0182851 -0.9730661
vn -0.2297998 0.0182851 0.9730661
vn -0.2297998 0.0182851 0.9730661
vn -0.1473390 0.9780503 -0.1473390
vn -0.1473390 0.9780503 -0.1473390
vn -0.3287410 0.9258057 0.1865827
vn -0.3287410 0.9258057 0.1865827
vn -0.3287410 0.9258057 0.1865827
vn 0.0115256 -0.9225541 -0.3856957
vn 0.0132398 -0.9667219 0.2554867
vn 0.0156554 -0.1149563 -0.9932472
vn 0.0156554 -0.1149563 -0.9932472
vn 0.0087949 -0.1157620 0.9932380
vn 0.0087949 -0.1157620 0.9932380
vn 0.0154313 0.2031145 -0.9790334
vn 0.0154313 0.2031145 -0.9790334
vn 0.0273268 0.2006591 0.9792799
vn 0.0273268 0.2006591 0.9792799
vn 0.0115256 0.9225541 -0.3856957
vn 0.0132398 0.9667219 0.2554867
vn 0.0115256 -0.9225541 -0.3856957
vn 0.0132398 -0.9667219 0.2554867
vn 0.0156554 -0.1149563 -0.9932472
vn 0.0156554 -0.1149563 -0.9932472
vn 0.0087949 -0.1157620 0.9932380
vn 0.0087949 -0.1157620 0.9932380
vn 0.0154313 0.2031145 -0.9790334
vn 0.0154313 0.2031145 -0.9790334
vn 0.0273268 0.2006591 0.9792799
vn 0.0273268 0.2006591 0.9792799
vn 0.0115256 0.9225541 -0.3856957
vn 0.0132398 0.9667219 0.2554867
vn 0.9322214 -0.2910613 -0.2150502
vn 0.9322214 -0.2910613 -0.2150502
vn 0.9604482 -0.1111603 0.2553090
vn 0.9604482 -0.1111603 0.2553090
vn 0.9604482 -0.1111603 0.2553090
vn 0.9559650 0.1768449 -0.2342155
vn 0.9559650 0.1768449 -0.2342155
vn 0.9559650 0.1768449 -0.2342155
vn 0.9475786 0.1965888 0.2518880
vn 0.9475786 0.1965888 0.2518880
vn 0.9475786 0.1965888 0.2518880
vn 0.9322214 -0.2910613 -0.2150502
vn 0.9322214 -0.2910613 -0.2150502
vn 0.9604482 -0.1111603 0.2553090
vn 0.9604482 -0.1111603 0.2553090
vn 0.9604482 -0.1111603 0.2553090
vn 0.9559650 0.1768449 -0.2342155
vn 0.9559650 0.1768449 -0.2342155
vn 0.9559650 0.1768449 -0.2342155
vn 0.9475786 0.1965888 0.2518880
vn 0.9475786 0.1965888 0.2518880
vn 0.9475786 0.1965888 0.2518880
vn 0.1865827 -0.9258057 -0.3287410
vn 0.1865827 -0.9258057 -0.3287410
vn 0.1865827 -0.9258057 -0.3287410
vn 0.2064625 -0.9564238 0.2064625
vn 0.2064625 -0.9564238 0.2064625
vn 0.1351290 -0.0120754 -0.9907544
vn 0.1351290 -0.0120754 -0.9907544
vn 0.1351290 -0.0120754 0.9907544
vn 0.1351290 -0.0120754 0.9907544
vn 0.3568744 0.0161169 -0.9340133
vn 0.3568744 0.0161169 -0.9340133
vn 0.3568744 0.0161169 0.9340133
vn 0.3568744 0.0161169 0.9340133
vn 0.1865827 0.9258057 -0.3287410
vn 0.1865827 0.9258057 -0.3287410
vn 0.1865827 0.9258057 -0.3287410
vn 0.2064625 0.9564238 0.2064625
vn 0.2064625 0.9564238 0.2064625
vn 0.9353040 -0.0280667 -0.3527302
vn 0.9727530 -0.0104597 0.2316079
vn 0.9907722 0.0210803 -0.1338881
vn 0.9725979 0.0206936 0.2315709
o 12_Valla_Esquina_Wood
usemtl Wood
s 1
f 25/25/25 1/1/1 35/35/35
f 46/46/46 55/55/55 6/6/6
f 185/185/185 194/194/194 223/223/223
f 197/197/197 188/188/188 224/224/224
f 28/28/28 38/38/38 2/2/2
f 43/43/43 5/5/5 52/52/52
f 167/167/167 177/177/177 219/219/219
f 170/170/170 220/220/220 180/180/180
f 5/5/5 1/1/1 2/2/2
f 5/5/5 2/2/2 6/6/6
f 55/55/55 5/5/5 6/6/6
f 55/55/55 52/52/52 5/5/5
f 220/220/220 223/223/223 224/224/224
f 220/220/220 219/219/219 223/223/223
f 188/188/188 180/180/180 220/220/220
f 188/188/188 220/220/220 224/224/224
f 46/46/46 6/6/6 2/2/2
f 46/46/46 2/2/2 38/38/38
f 45/45/45 179/179/179 187/187/187
f 45/45/45 37/37/37 179/179/179
f 185/185/185 223/223/223 219/219/219
f 185/185/185 219/219/219 177/177/177
f 197/197/197 45/45/45 187/187/187
f 197/197/197 53/53/53 45/45/45
f 196/196/196 51/51/51 54/54/54
f 196/196/196 193/193/193 51/51/51
f 197/197/197 224/224/224 223/223/223
f 197/197/197 223/223/223 194/194/194
f 28/28/28 2/2/2 1/1/1
f 28/28/28 1/1/1 25/25/25
f 44/44/44 52/52/52 195/195/195
f 44/44/44 195/195/195 186/186/186
f 43/43/43 1/1/1 5/5/5
f 43/43/43 35/35/35 1/1/1
f 44/44/44 186/186/186 178/178/178
f 44/44/44 178/178/178 36/36/36
f 169/169/169 36/36/36 178/178/178
f 169/169/169 25/25/25 36/36/36
f 170/170/170 179/179/179 37/37/37
f 170/170/170 37/37/37 27/27/27
f 171/171/171 29/29/29 26/26/26
f 171/171/171 26/26/26 168/168/168
f 170/170/170 219/219/219 220/220/220
f 170/170/170 167/167/167 219/219/219
f 231/231/231 227/227/227 236/236/236
f 243/243/243 248/248/248 230/230/230
f 304/304/304 309/309/309 315/315/315
f 312/312/312 307/307/307 316/316/316
f 234/234/234 239/239/239 228/228/228
f 240/240/240 229/229/229 245/245/245
f 295/295/295 300/300/300 313/313/313
f 298/298/298 314/314/314 303/303/303
f 229/229/229 227/227/227 228/228/228
f 229/229/229 228/228/228 230/230/230
f 248/248/248 229/229/229 230/230/230
f 248/248/248 245/245/245 229/229/229
f 314/314/314 315/315/315 316/316/316
f 314/314/314 313/313/313 315/315/315
f 307/307/307 303/303/303 314/314/314
f 307/307/307 314/314/314 316/316/316
f 243/243/243 230/230/230 228/228/228
f 243/243/243 228/228/228 239/239/239
f 242/242/242 302/302/302 306/306/306
f 242/242/242 238/238/238 302/302/302
f 304/304/304 315/315/315 313/313/313
f 304/304/304 313/313/313 300/300/300
f 312/312/312 242/242/242 306/306/306
f 312/312/312 246/246/246 242/242/242
f 311/311/311 244/244/244 247/247/247
f 311/311/311 308/308/308 244/244/244
f 312/312/312 316/316/316 315/315/315
f 312/312/312 315/315/315 309/309/309
f 234/234/234 228/228/228 227/227/227
f 234/234/234 227/227/227 231/231/231
f 241/241/241 245/245/245 310/310/310
f 241/241/241 310/310/310 305/305/305
f 240/240/240 227/227/227 229/229/229
f 240/240/240 236/236/236 227/227/227
f 241/241/241 305/305/305 301/301/301
f 241/241/241 301/301/301 237/237/237
f 297/297/297 237/237/237 301/301/301
f 297/297/297 231/231/231 237/237/237
f 298/298/298 302/302/302 238/238/238
f 298/298/298 238/238/238 233/233/233
f 299/299/299 235/235/235 232/232/232
f 299/299/299 232/232/232 296/296/296
f 298/298/298 313/313/313 314/314/314
f 298/298/298 295/295/295 313/313/313
f 30/30/30 3/3/3 39/39/39
f 50/50/50 60/60/60 8/8/8
f 189/189/189 199/199/199 225/225/225
f 202/202/202 192/192/192 226/226/226
f 33/33/33 42/42/42 4/4/4
f 47/47/47 7/7/7 57/57/57
f 172/172/172 181/181/181 221/221/221
f 175/175/175 222/222/222 184/184/184
f 7/7/7 3/3/3 4/4/4
f 7/7/7 4/4/4 8/8/8
f 60/60/60 7/7/7 8/8/8
f 60/60/60 57/57/57 7/7/7
f 222/222/222 225/225/225 226/226/226
f 222/222/222 221/221/221 225/225/225
f 192/192/192 184/184/184 222/222/222
f 192/192/192 222/222/222 226/226/226
f 50/50/50 8/8/8 4/4/4
f 50/50/50 4/4/4 42/42/42
f 49/49/49 183/183/183 191/191/191
f 49/49/49 41/41/41 183/183/183
f 189/189/189 225/225/225 221/221/221
f 189/189/189 221/221/221 181/181/181
f 202/202/202 49/49/49 191/191/191
f 202/202/202 58/58/58 49/49/49
f 201/201/201 56/56/56 59/59/59
f 201/201/201 198/198/198 56/56/56
f 202/202/202 226/226/226 225/225/225
f 202/202/202 225/225/225 199/199/199
f 33/33/33 4/4/4 3/3/3
f 33/33/33 3/3/3 30/30/30
f 48/48/48 57/57/57 200/200/200
f 48/48/48 200/200/200 190/190/190
f 47/47/47 3/3/3 7/7/7
f 47/47/47 39/39/39 3/3/3
f 48/48/48 190/190/190 182/182/182
f 48/48/48 182/182/182 40/40/40
f 174/174/174 40/40/40 182/182/182
f 174/174/174 30/30/30 40/40/40
f 175/175/175 183/183/183 41/41/41
f 175/175/175 41/41/41 32/32/32
f 176/176/176 34/34/34 31/31/31
f 176/176/176 31/31/31 173/173/173
f 175/175/175 221/221/221 222/222/222
f 175/175/175 172/172/172 221/221/221
f 115/115/115 93/93/93 117/117/117
f 260/260/260 257/257/257 282/282/282
f 123/123/123 126/126/126 101/101/101
f 279/279/279 255/255/255 259/259/259
f 121/121/121 98/98/98 125/125/125
f 116/116/116 120/120/120 96/96/96
f 249/249/249 251/251/251 274/274/274
f 250/250/250 277/277/277 254/254/254
f 99/99/99 94/94/94 97/97/97
f 99/99/99 97/97/97 102/102/102
f 126/126/126 98/98/98 101/101/101
f 126/126/126 125/125/125 98/98/98
f 260/260/260 125/125/125 126/126/126
f 260/260/260 259/259/259 125/125/125
f 124/124/124 103/103/103 95/95/95
f 124/124/124 95/95/95 119/119/119
f 124/124/124 119/119/119 253/253/253
f 124/124/124 253/253/253 258/258/258
f 123/123/123 260/260/260 126/126/126
f 123/123/123 257/257/257 260/260/260
f 275/275/275 258/258/258 253/253/253
f 275/275/275 283/283/283 258/258/258
f 278/278/278 281/281/281 276/276/276
f 278/278/278 276/276/276 273/273/273
f 280/280/280 274/274/274 252/252/252
f 280/280/280 252/252/252 256/256/256
f 279/279/279 259/259/259 260/260/260
f 279/279/279 260/260/260 282/282/282
f 121/121/121 125/125/125 259/259/259
f 121/121/121 259/259/259 255/255/255
f 122/122/122 256/256/256 252/252/252
f 122/122/122 252/252/252 118/118/118
f 122/122/122 93/93/93 100/100/100
f 122/122/122 118/118/118 93/93/93
f 116/116/116 96/96/96 93/93/93
f 116/116/116 93/93/93 115/115/115
f 249/249/249 117/117/117 251/251/251
f 249/249/249 115/115/115 117/117/117
f 250/250/250 274/274/274 277/277/277
f 250/250/250 249/249/249 274/274/274
f 250/250/250 254/254/254 120/120/120
f 250/250/250 120/120/120 116/116/116
f 250/250/250 116/116/116 115/115/115
f 250/250/250 115/115/115 249/249/249
f 139/139/139 141/141/141 203/203/203
f 76/76/76 15/15/15 73/73/73
f 13/13/13 75/75/75 69/69/69
f 149/149/149 209/209/209 152/152/152
f 207/207/207 145/145/145 151/151/151
f 61/61/61 10/10/10 64/64/64
f 140/140/140 205/205/205 144/144/144
f 62/62/62 68/68/68 12/12/12
f 146/146/146 142/142/142 65/65/65
f 146/146/146 65/65/65 70/70/70
f 75/75/75 145/145/145 69/69/69
f 75/75/75 151/151/151 145/145/145
f 76/76/76 151/151/151 75/75/75
f 76/76/76 152/152/152 151/151/151
f 14/14/14 71/71/71 63/63/63
f 14/14/14 63/63/63 9/9/9
f 14/14/14 9/9/9 11/11/11
f 14/14/14 11/11/11 16/16/16
f 13/13/13 76/76/76 75/75/75
f 13/13/13 15/15/15 76/76/76
f 66/66/66 16/16/16 11/11/11
f 66/66/66 74/74/74 16/16/16
f 148/148/148 72/72/72 67/67/67
f 148/148/148 67/67/67 143/143/143
f 150/150/150 144/144/144 206/206/206
f 150/150/150 206/206/206 210/210/210
f 149/149/149 152/152/152 76/76/76
f 149/149/149 76/76/76 73/73/73
f 207/207/207 151/151/151 152/152/152
f 207/207/207 152/152/152 209/209/209
f 208/208/208 210/210/210 206/206/206
f 208/208/208 206/206/206 204/204/204
f 208/208/208 141/141/141 147/147/147
f 208/208/208 204/204/204 141/141/141
f 61/61/61 64/64/64 141/141/141
f 61/61/61 141/141/141 139/139/139
f 140/140/140 203/203/203 205/205/205
f 140/140/140 139/139/139 203/203/203
f 62/62/62 144/144/144 68/68/68
f 62/62/62 140/140/140 144/144/144
f 62/62/62 12/12/12 10/10/10
f 62/62/62 10/10/10 61/61/61
f 62/62/62 61/61/61 139/139/139
f 62/62/62 139/139/139 140/140/140
f 127/127/127 104/104/104 129/129/129
f 272/272/272 269/269/269 293/293/293
f 135/135/135 138/138/138 112/112/112
f 290/290/290 267/267/267 271/271/271
f 133/133/133 109/109/109 137/137/137
f 128/128/128 132/132/132 107/107/107
f 261/261/261 263/263/263 285/285/285
f 262/262/262 288/288/288 266/266/266
f 110/110/110 105/105/105 108/108/108
f 110/110/110 108/108/108 113/113/113
f 138/138/138 109/109/109 112/112/112
f 138/138/138 137/137/137 109/109/109
f 272/272/272 137/137/137 138/138/138
f 272/272/272 271/271/271 137/137/137
f 136/136/136 114/114/114 106/106/106
f 136/136/136 106/106/106 131/131/131
f 136/136/136 131/131/131 265/265/265
f 136/136/136 265/265/265 270/270/270
f 135/135/135 272/272/272 138/138/138
f 135/135/135 269/269/269 272/272/272
f 286/286/286 270/270/270 265/265/265
f 286/286/286 294/294/294 270/270/270
f 289/289/289 292/292/292 287/287/287
f 289/289/289 287/287/287 284/284/284
f 291/291/291 285/285/285 264/264/264
f 291/291/291 264/264/264 268/268/268
f 290/290/290 271/271/271 272/272/272
f 290/290/290 272/272/272 293/293/293
f 133/133/133 137/137/137 271/271/271
f 133/133/133 271/271/271 267/267/267
f 134/134/134 268/268/268 264/264/264
f 134/134/134 264/264/264 130/130/130
f 134/134/134 104/104/104 111/111/111
f 134/134/134 130/130/130 104/104/104
f 128/128/128 107/107/107 104/104/104
f 128/128/128 104/104/104 127/127/127
f 261/261/261 129/129/129 263/263/263
f 261/261/261 127/127/127 129/129/129
f 262/262/262 285/285/285 288/288/288
f 262/262/262 261/261/261 285/285/285
f 262/262/262 266/266/266 132/132/132
f 262/262/262 132/132/132 128/128/128
f 262/262/262 128/128/128 127/127/127
f 262/262/262 127/127/127 261/261/261
f 153/153/153 155/155/155 211/211/211
f 92/92/92 23/23/23 89/89/89
f 21/21/21 91/91/91 85/85/85
f 163/163/163 217/217/217 166/166/166
f 215/215/215 159/159/159 165/165/165
f 77/77/77 18/18/18 80/80/80
f 154/154/154 213/213/213 158/158/158
f 78/78/78 84/84/84 20/20/20
f 160/160/160 156/156/156 81/81/81
f 160/160/160 81/81/81 86/86/86
f 91/91/91 159/159/159 85/85/85
f 91/91/91 165/165/165 159/159/159
f 92/92/92 165/165/165 91/91/91
f 92/92/92 166/166/166 165/165/165
f 22/22/22 87/87/87 79/79/79
f 22/22/22 79/79/79 17/17/17
f 22/22/22 17/17/17 19/19/19
f 22/22/22 19/19/19 24/24/24
f 21/21/21 92/92/92 91/91/91
f 21/21/21 23/23/23 92/92/92
f 82/82/82 24/24/24 19/19/19
f 82/82/82 90/90/90 24/24/24
f 162/162/162 88/88/88 83/83/83
f 162/162/162 83/83/83 157/157/157
f 164/164/164 158/158/158 214/214/214
f 164/164/164 214/214/214 218/218/218
f 163/163/163 166/166/166 92/92/92
f 163/163/163 92/92/92 89/89/89
f 215/215/215 165/165/165 166/166/166
f 215/215/215 166/166/166 217/217/217
f 216/216/216 218/218/218 214/214/214
f 216/216/216 214/214/214 212/212/212
f 216/216/216 155/155/155 161/161/161
f 216/216/216 212/212/212 155/155/155
f 77/77/77 80/80/80 155/155/155
f 77/77/77 155/155/155 153/153/153
f 154/154/154 211/211/211 213/213/213
f 154/154/154 153/153/153 211/211/211
f 78/78/78 158/158/158 84/84/84
f 78/78/78 154/154/154 158/158/158
f 78/78/78 20/20/20 18/18/18
f 78/78/78 18/18/18 77/77/77
f 78/78/78 77/77/77 153/153/153
f 78/78/78 153/153/153 154/154/154
