# metres; Y up; ground-centred pivot
mtllib 13_Portilla.mtl
v -0.9450000 0.0250000 -0.0662500
v -0.9450000 0.0250000 0.0537500
v -0.9450000 1.3350000 -0.0662500
v -0.9450000 1.3350000 0.0537500
v -0.9200000 0.0000000 -0.0662500
v -0.9200000 0.0000000 -0.0662500
v -0.9200000 0.0000000 0.0537500
v -0.9200000 0.0000000 0.0537500
v -0.9200000 0.0000000 0.0537500
v -0.9200000 0.0250000 -0.0912500
v -0.9200000 0.0250000 -0.0912500
v -0.9200000 0.0250000 0.0787500
v -0.9200000 0.0250000 0.0787500
v -0.9200000 1.3350000 -0.0912500
v -0.9200000 1.3350000 -0.0912500
v -0.9200000 1.3350000 0.0787500
v -0.9200000 1.3350000 0.0787500
v -0.9200000 1.3600000 -0.0662500
v -0.9200000 1.3600000 -0.0662500
v -0.9200000 1.3600000 0.0537500
v -0.9200000 1.3600000 0.0537500
v -0.9200000 1.3600000 0.0537500
v -0.8700000 0.2525000 -0.0912500
v -0.8700000 0.2525000 -0.0412500
v -0.8700000 0.2875000 -0.0912500
v -0.8700000 0.2875000 -0.0412500
v -0.8700000 0.9325000 -0.0912500
v -0.8700000 0.9325000 -0.0412500
v -0.8700000 0.9675000 -0.0912500
v -0.8700000 0.9675000 -0.0412500
v -0.8600000 0.2425000 -0.0912500
v -0.8600000 0.2425000 -0.0912500
v -0.8600000 0.2425000 -0.0412500
v -0.8600000 0.2425000 -0.0412500
v -0.8600000 0.2525000 -0.1012500
v -0.8600000 0.2525000 -0.1012500
v -0.8600000 0.2525000 -0.1012500
v -0.8600000 0.2525000 -0.0312500
v -0.8600000 0.2525000 -0.0312500
v -0.8600000 0.2525000 -0.0312500
v -0.8600000 0.2875000 -0.1012500
v -0.8600000 0.2875000 -0.1012500
v -0.8600000 0.2875000 -0.1012500
v -0.8600000 0.2875000 -0.0312500
v -0.8600000 0.2875000 -0.0312500
v -0.8600000 0.2875000 -0.0312500
v -0.8600000 0.2975000 -0.0912500
v -0.8600000 0.2975000 -0.0912500
v -0.8600000 0.2975000 -0.0412500
v -0.8600000 0.2975000 -0.0412500
v -0.8600000 0.9225000 -0.0912500
v -0.8600000 0.9225000 -0.0912500
v -0.8600000 0.9225000 -0.0412500
v -0.8600000 0.9225000 -0.0412500
v -0.8600000 0.9325000 -0.1012500
v -0.8600000 0.9325000 -0.1012500
v -0.8600000 0.9325000 -0.1012500
v -0.8600000 0.9325000 -0.0312500
v -0.8600000 0.9325000 -0.0312500
v -0.8600000 0.9325000 -0.0312500
v -0.8600000 0.9675000 -0.1012500
v -0.8600000 0.9675000 -0.1012500
v -0.8600000 0.9675000 -0.1012500
v -0.8600000 0.9675000 -0.0312500
v -0.8600000 0.9675000 -0.0312500
v -0.8600000 0.9675000 -0.0312500
v -0.8600000 0.9775000 -0.0912500
v -0.8600000 0.9775000 -0.0912500
v -0.8600000 0.9775000 -0.0412500
v -0.8600000 0.9775000 -0.0412500
v -0.8000000 0.0000000 -0.0662500
v -0.8000000 0.0000000 -0.0662500
v -0.8000000 0.0000000 -0.0662500
v -0.8000000 0.0000000 0.0537500
v -0.8000000 0.0000000 0.0537500
v -0.8000000 0.0250000 -0.0912500
v -0.8000000 0.0250000 -0.0912500
v -0.8000000 0.0250000 0.0787500
v -0.8000000 0.0250000 0.0787500
v -0.8000000 1.3350000 -0.0912500
v -0.8000000 1.3350000 -0.0912500
v -0.8000000 1.3350000 0.0787500
v -0.8000000 1.3350000 0.0787500
v -0.8000000 1.3600000 -0.0662500
v -0.8000000 1.3600000 -0.0662500
v -0.8000000 1.3600000 -0.0662500
v -0.8000000 1.3600000 0.0537500
v -0.8000000 1.3600000 0.0537500
v -0.7750000 0.0250000 -0.0662500
v -0.7750000 0.0250000 0.0537500
v -0.7750000 1.3350000 -0.0662500
v -0.7750000 1.3350000 0.0537500
v -0.7500000 0.2089000 -0.0323500
v -0.7500000 0.2089000 -0.0323500
v -0.7500000 0.2089000 0.0198500
v -0.7500000 0.2089000 0.0198500
v -0.7500000 0.2089000 0.0198500
v -0.7500000 0.2911000 -0.0323500
v -0.7500000 0.2911000 -0.0323500
v -0.7500000 0.2911000 -0.0323500
v -0.7500000 0.2911000 0.0198500
v -0.7500000 0.2911000 0.0198500
v -0.7500000 0.2911000 0.0198500
v -0.7500000 0.9589000 -0.0323500
v -0.7500000 0.9589000 -0.0323500
v -0.7500000 0.9589000 0.0198500
v -0.7500000 0.9589000 0.0198500
v -0.7500000 0.9589000 0.0198500
v -0.7500000 1.0411000 -0.0323500
v -0.7500000 1.0411000 -0.0323500
v -0.7500000 1.0411000 -0.0323500
v -0.7500000 1.0411000 0.0198500
v -0.7500000 1.0411000 0.0198500
v -0.7500000 1.0411000 0.0198500
v -0.7311000 0.1900000 -0.0323500
v -0.7311000 0.1900000 0.0198500
v -0.7311000 0.2089000 -0.0512500
v -0.7311000 0.2089000 -0.0512500
v -0.7311000 0.2089000 0.0387500
v -0.7311000 0.2089000 0.0387500
v -0.7311000 0.2911000 -0.0512500
v -0.7311000 0.2911000 -0.0512500
v -0.7311000 0.2911000 0.0387500
v -0.7311000 0.2911000 0.0387500
v -0.7311000 0.3100000 -0.0323500
v -0.7311000 0.3100000 0.0198500
v -0.7311000 0.9400000 -0.0323500
v -0.7311000 0.9400000 0.0198500
v -0.7311000 0.9589000 -0.0512500
v -0.7311000 0.9589000 -0.0512500
v -0.7311000 0.9589000 0.0387500
v -0.7311000 0.9589000 0.0387500
v -0.7311000 1.0411000 -0.0512500
v -0.7311000 1.0411000 -0.0512500
v -0.7311000 1.0411000 0.0387500
v -0.7311000 1.0411000 0.0387500
v -0.7311000 1.0600000 -0.0323500
v -0.7311000 1.0600000 0.0198500
v -0.7020061 0.2712672 0.0420000
v -0.7020061 0.2712672 0.0420000
v -0.7020061 0.2712672 0.0420000
v -0.7020061 0.2712672 0.0855000
v -0.7020061 0.2712672 0.0855000
v -0.7020061 0.2712672 0.0855000
v -0.7000000 0.2457500 -0.0280000
v -0.7000000 0.2457500 -0.0280000
v -0.7000000 0.2457500 0.0155000
v -0.7000000 0.2457500 0.0155000
v -0.7000000 1.0342500 -0.0280000
v -0.7000000 1.0342500 -0.0280000
v -0.7000000 1.0342500 0.0155000
v -0.7000000 1.0342500 0.0155000
v -0.6958200 0.2926648 0.0420000
v -0.6958200 0.2926648 0.0855000
v -0.6882143 0.2788730 0.0262500
v -0.6882143 0.2788730 0.0262500
v -0.6882143 0.2788730 0.1012500
v -0.6882143 0.2788730 0.1012500
v -0.6842500 0.2300000 -0.0280000
v -0.6842500 0.2300000 0.0155000
v -0.6842500 0.2457500 -0.0437500
v -0.6842500 0.2457500 -0.0437500
v -0.6842500 0.2457500 0.0312500
v -0.6842500 0.2457500 0.0312500
v -0.6842500 1.0342500 -0.0437500
v -0.6842500 1.0342500 -0.0437500
v -0.6842500 1.0342500 -0.0437500
v -0.6842500 1.0342500 0.0312500
v -0.6842500 1.0342500 0.0312500
v -0.6842500 1.0342500 0.0312500
v -0.6842500 1.0500000 -0.0280000
v -0.6842500 1.0500000 0.0155000
v -0.6737560 0.2200404 0.0420000
v -0.6737560 0.2200404 0.0420000
v -0.6737560 0.2200404 0.0855000
v -0.6737560 0.2200404 0.0855000
v -0.6737560 0.2200404 0.0855000
v -0.6600000 0.2425000 -0.0912500
v -0.6600000 0.2425000 -0.0912500
v -0.6600000 0.2425000 -0.0412500
v -0.6600000 0.2425000 -0.0412500
v -0.6600000 0.2525000 -0.1012500
v -0.6600000 0.2525000 -0.1012500
v -0.6600000 0.2525000 -0.1012500
v -0.6600000 0.2525000 -0.0312500
v -0.6600000 0.2525000 -0.0312500
v -0.6600000 0.2525000 -0.0312500
v -0.6600000 0.2875000 -0.1012500
v -0.6600000 0.2875000 -0.1012500
v -0.6600000 0.2875000 -0.1012500
v -0.6600000 0.2875000 -0.0312500
v -0.6600000 0.2875000 -0.0312500
v -0.6600000 0.2875000 -0.0312500
v -0.6600000 0.2975000 -0.0912500
v -0.6600000 0.2975000 -0.0912500
v -0.6600000 0.2975000 -0.0412500
v -0.6600000 0.2975000 -0.0412500
v -0.6600000 0.9225000 -0.0912500
v -0.6600000 0.9225000 -0.0912500
v -0.6600000 0.9225000 -0.0412500
v -0.6600000 0.9225000 -0.0412500
v -0.6600000 0.9325000 -0.1012500
v -0.6600000 0.9325000 -0.1012500
v -0.6600000 0.9325000 -0.1012500
v -0.6600000 0.9325000 -0.0312500
v -0.6600000 0.9325000 -0.0312500
v -0.6600000 0.9325000 -0.0312500
v -0.6600000 0.9675000 -0.1012500
v -0.6600000 0.9675000 -0.1012500
v -0.6600000 0.9675000 -0.1012500
v -0.6600000 0.9675000 -0.0312500
v -0.6600000 0.9675000 -0.0312500
v -0.6600000 0.9675000 -0.0312500
v -0.6600000 0.9775000 -0.0912500
v -0.6600000 0.9775000 -0.0912500
v -0.6600000 0.9775000 -0.0412500
v -0.6600000 0.9775000 -0.0412500
v -0.6599642 0.2276462 0.0262500
v -0.6599642 0.2276462 0.0262500
v -0.6599642 0.2276462 0.1012500
v -0.6599642 0.2276462 0.1012500
v -0.6523584 0.2138544 0.0420000
v -0.6523584 0.2138544 0.0855000
v -0.6500000 0.2525000 -0.0912500
v -0.6500000 0.2525000 -0.0412500
v -0.6500000 0.2875000 -0.0912500
v -0.6500000 0.2875000 -0.0412500
v -0.6500000 0.9325000 -0.0912500
v -0.6500000 0.9325000 -0.0412500
v -0.6500000 0.9675000 -0.0912500
v -0.6500000 0.9675000 -0.0412500
v -0.5957500 0.2300000 -0.0280000
v -0.5957500 0.2300000 0.0155000
v -0.5957500 0.2457500 -0.0437500
v -0.5957500 0.2457500 -0.0437500
v -0.5957500 0.2457500 -0.0437500
v -0.5957500 0.2457500 0.0312500
v -0.5957500 0.2457500 0.0312500
v -0.5957500 0.2457500 0.0312500
v -0.5957500 1.0342500 -0.0437500
v -0.5957500 1.0342500 -0.0437500
v -0.5957500 1.0342500 -0.0437500
v -0.5957500 1.0342500 0.0312500
v -0.5957500 1.0342500 0.0312500
v -0.5957500 1.0342500 0.0312500
v -0.5957500 1.0500000 -0.0280000
v -0.5957500 1.0500000 0.0155000
v -0.5800000 0.2457500 -0.0280000
v -0.5800000 0.2457500 -0.0280000
v -0.5800000 0.2457500 0.0155000
v -0.5800000 0.2457500 0.0155000
v -0.5800000 1.0342500 -0.0280000
v -0.5800000 1.0342500 -0.0280000
v -0.5800000 1.0342500 0.0155000
v -0.5800000 1.0342500 0.0155000
v -0.4866667 0.2457500 -0.0280000
v -0.4866667 0.2457500 -0.0280000
v -0.4866667 0.2457500 0.0155000
v -0.4866667 0.2457500 0.0155000
v -0.4866667 1.0342500 -0.0280000
v -0.4866667 1.0342500 -0.0280000
v -0.4866667 1.0342500 0.0155000
v -0.4866667 1.0342500 0.0155000
v -0.4709167 0.2300000 -0.0280000
v -0.4709167 0.2300000 0.0155000
v -0.4709167 0.2457500 -0.0437500
v -0.4709167 0.2457500 -0.0437500
v -0.4709167 0.2457500 0.0312500
v -0.4709167 0.2457500 0.0312500
v -0.4709167 1.0342500 -0.0437500
v -0.4709167 1.0342500 -0.0437500
v -0.4709167 1.0342500 -0.0437500
v -0.4709167 1.0342500 0.0312500
v -0.4709167 1.0342500 0.0312500
v -0.4709167 1.0342500 0.0312500
v -0.4709167 1.0500000 -0.0280000
v -0.4709167 1.0500000 0.0155000
v -0.3824167 0.2300000 -0.0280000
v -0.3824167 0.2300000 0.0155000
v -0.3824167 0.2457500 -0.0437500
v -0.3824167 0.2457500 -0.0437500
v -0.3824167 0.2457500 -0.0437500
v -0.3824167 0.2457500 0.0312500
v -0.3824167 0.2457500 0.0312500
v -0.3824167 0.2457500 0.0312500
v -0.3824167 1.0342500 -0.0437500
v -0.3824167 1.0342500 -0.0437500
v -0.3824167 1.0342500 -0.0437500
v -0.3824167 1.0342500 0.0312500
v -0.3824167 1.0342500 0.0312500
v -0.3824167 1.0342500 0.0312500
v -0.3824167 1.0500000 -0.0280000
v -0.3824167 1.0500000 0.0155000
v -0.3666667 0.2457500 -0.0280000
v -0.3666667 0.2457500 -0.0280000
v -0.3666667 0.2457500 0.0155000
v -0.3666667 0.2457500 0.0155000
v -0.3666667 1.0342500 -0.0280000
v -0.3666667 1.0342500 -0.0280000
v -0.3666667 1.0342500 0.0155000
v -0.3666667 1.0342500 0.0155000
v -0.2733333 0.2457500 -0.0280000
v -0.2733333 0.2457500 -0.0280000
v -0.2733333 0.2457500 0.0155000
v -0.2733333 0.2457500 0.0155000
v -0.2733333 1.0342500 -0.0280000
v -0.2733333 1.0342500 -0.0280000
v -0.2733333 1.0342500 0.0155000
v -0.2733333 1.0342500 0.0155000
v -0.2575833 0.2300000 -0.0280000
v -0.2575833 0.2300000 0.0155000
v -0.2575833 0.2457500 -0.0437500
v -0.2575833 0.2457500 -0.0437500
v -0.2575833 0.2457500 0.0312500
v -0.2575833 0.2457500 0.0312500
v -0.2575833 1.0342500 -0.0437500
v -0.2575833 1.0342500 -0.0437500
v -0.2575833 1.0342500 -0.0437500
v -0.2575833 1.0342500 0.0312500
v -0.2575833 1.0342500 0.0312500
v -0.2575833 1.0342500 0.0312500
v -0.2575833 1.0500000 -0.0280000
v -0.2575833 1.0500000 0.0155000
v -0.1690833 0.2300000 -0.0280000
v -0.1690833 0.2300000 0.0155000
v -0.1690833 0.2457500 -0.0437500
v -0.1690833 0.2457500 -0.0437500
v -0.1690833 0.2457500 -0.0437500
v -0.1690833 0.2457500 0.0312500
v -0.1690833 0.2457500 0.0312500
v -0.1690833 0.2457500 0.0312500
v -0.1690833 1.0342500 -0.0437500
v -0.1690833 1.0342500 -0.0437500
v -0.1690833 1.0342500 -0.0437500
v -0.1690833 1.0342500 0.0312500
v -0.1690833 1.0342500 0.0312500
v -0.1690833 1.0342500 0.0312500
v -0.1690833 1.0500000 -0.0280000
v -0.1690833 1.0500000 0.0155000
v -0.1533333 0.2457500 -0.0280000
v -0.1533333 0.2457500 -0.0280000
v -0.1533333 0.2457500 0.0155000
v -0.1533333 0.2457500 0.0155000
v -0.1533333 1.0342500 -0.0280000
v -0.1533333 1.0342500 -0.0280000
v -0.1533333 1.0342500 0.0155000
v -0.1533333 1.0342500 0.0155000
v -0.0600000 0.2457500 -0.0280000
v -0.0600000 0.2457500 -0.0280000
v -0.0600000 0.2457500 0.0155000
v -0.0600000 0.2457500 0.0155000
v -0.0600000 1.0342500 -0.0280000
v -0.0600000 1.0342500 -0.0280000
v -0.0600000 1.0342500 0.0155000
v -0.0600000 1.0342500 0.0155000
v -0.0442500 0.2300000 -0.0280000
v -0.0442500 0.2300000 0.0155000
v -0.0442500 0.2457500 -0.0437500
v -0.0442500 0.2457500 -0.0437500
v -0.0442500 0.2457500 0.0312500
v -0.0442500 0.2457500 0.0312500
v -0.0442500 1.0342500 -0.0437500
v -0.0442500 1.0342500 -0.0437500
v -0.0442500 1.0342500 -0.0437500
v -0.0442500 1.0342500 0.0312500
v -0.0442500 1.0342500 0.0312500
v -0.0442500 1.0342500 0.0312500
v -0.0442500 1.0500000 -0.0280000
v -0.0442500 1.0500000 0.0155000
v 0.0442500 0.2300000 -0.0280000
v 0.0442500 0.2300000 0.0155000
v 0.0442500 0.2457500 -0.0437500
v 0.0442500 0.2457500 -0.0437500
v 0.0442500 0.2457500 -0.0437500
v 0.0442500 0.2457500 0.0312500
v 0.0442500 0.2457500 0.0312500
v 0.0442500 0.2457500 0.0312500
v 0.0442500 1.0342500 -0.0437500
v 0.0442500 1.0342500 -0.0437500
v 0.0442500 1.0342500 -0.0437500
v 0.0442500 1.0342500 0.0312500
v 0.0442500 1.0342500 0.0312500
v 0.0442500 1.0342500 0.0312500
v 0.0442500 1.0500000 -0.0280000
v 0.0442500 1.0500000 0.0155000
v 0.0600000 0.2457500 -0.0280000
v 0.0600000 0.2457500 -0.0280000
v 0.0600000 0.2457500 0.0155000
v 0.0600000 0.2457500 0.0155000
v 0.0600000 1.0342500 -0.0280000
v 0.0600000 1.0342500 -0.0280000
v 0.0600000 1.0342500 0.0155000
v 0.0600000 1.0342500 0.0155000
v 0.1533333 0.2457500 -0.0280000
v 0.1533333 0.2457500 -0.0280000
v 0.1533333 0.2457500 0.0155000
v 0.1533333 0.2457500 0.0155000
v 0.1533333 1.0342500 -0.0280000
v 0.1533333 1.0342500 -0.0280000
v 0.1533333 1.0342500 0.0155000
v 0.1533333 1.0342500 0.0155000
v 0.1690833 0.2300000 -0.0280000
v 0.1690833 0.2300000 0.0155000
v 0.1690833 0.2457500 -0.0437500
v 0.1690833 0.2457500 -0.0437500
v 0.1690833 0.2457500 0.0312500
v 0.1690833 0.2457500 0.0312500
v 0.1690833 1.0342500 -0.0437500
v 0.1690833 1.0342500 -0.0437500
v 0.1690833 1.0342500 -0.0437500
v 0.1690833 1.0342500 0.0312500
v 0.1690833 1.0342500 0.0312500
v 0.1690833 1.0342500 0.0312500
v 0.1690833 1.0500000 -0.0280000
v 0.1690833 1.0500000 0.0155000
v 0.2575833 0.2300000 -0.0280000
v 0.2575833 0.2300000 0.0155000
v 0.2575833 0.2457500 -0.0437500
v 0.2575833 0.2457500 -0.0437500
v 0.2575833 0.2457500 -0.0437500
v 0.2575833 0.2457500 0.0312500
v 0.2575833 0.2457500 0.0312500
v 0.2575833 0.2457500 0.0312500
v 0.2575833 1.0342500 -0.0437500
v 0.2575833 1.0342500 -0.0437500
v 0.2575833 1.0342500 -0.0437500
v 0.2575833 1.0342500 0.0312500
v 0.2575833 1.0342500 0.0312500
v 0.2575833 1.0342500 0.0312500
v 0.2575833 1.0500000 -0.0280000
v 0.2575833 1.0500000 0.0155000
v 0.2733333 0.2457500 -0.0280000
v 0.2733333 0.2457500 -0.0280000
v 0.2733333 0.2457500 0.0155000
v 0.2733333 0.2457500 0.0155000
v 0.2733333 1.0342500 -0.0280000
v 0.2733333 1.0342500 -0.0280000
v 0.2733333 1.0342500 0.0155000
v 0.2733333 1.0342500 0.0155000
v 0.3666667 0.2457500 -0.0280000
v 0.3666667 0.2457500 -0.0280000
v 0.3666667 0.2457500 0.0155000
v 0.3666667 0.2457500 0.0155000
v 0.3666667 1.0342500 -0.0280000
v 0.3666667 1.0342500 -0.0280000
v 0.3666667 1.0342500 0.0155000
v 0.3666667 1.0342500 0.0155000
v 0.3824167 0.2300000 -0.0280000
v 0.3824167 0.2300000 0.0155000
v 0.3824167 0.2457500 -0.0437500
v 0.3824167 0.2457500 -0.0437500
v 0.3824167 0.2457500 0.0312500
v 0.3824167 0.2457500 0.0312500
v 0.3824167 1.0342500 -0.0437500
v 0.3824167 1.0342500 -0.0437500
v 0.3824167 1.0342500 -0.0437500
v 0.3824167 1.0342500 0.0312500
v 0.3824167 1.0342500 0.0312500
v 0.3824167 1.0342500 0.0312500
v 0.3824167 1.0500000 -0.0280000
v 0.3824167 1.0500000 0.0155000
v 0.4709167 0.2300000 -0.0280000
v 0.4709167 0.2300000 0.0155000
v 0.4709167 0.2457500 -0.0437500
v 0.4709167 0.2457500 -0.0437500
v 0.4709167 0.2457500 -0.0437500
v 0.4709167 0.2457500 0.0312500
v 0.4709167 0.2457500 0.0312500
v 0.4709167 0.2457500 0.0312500
v 0.4709167 1.0342500 -0.0437500
v 0.4709167 1.0342500 -0.0437500
v 0.4709167 1.0342500 -0.0437500
v 0.4709167 1.0342500 0.0312500
v 0.4709167 1.0342500 0.0312500
v 0.4709167 1.0342500 0.0312500
v 0.4709167 1.0500000 -0.0280000
v 0.4709167 1.0500000 0.0155000
v 0.4866667 0.2457500 -0.0280000
v 0.4866667 0.2457500 -0.0280000
v 0.4866667 0.2457500 0.0155000
v 0.4866667 0.2457500 0.0155000
v 0.4866667 1.0342500 -0.0280000
v 0.4866667 1.0342500 -0.0280000
v 0.4866667 1.0342500 0.0155000
v 0.4866667 1.0342500 0.0155000
v 0.5100000 0.6634000 -0.0878500
v 0.5100000 0.6634000 -0.0878500
v 0.5100000 0.6634000 -0.0646500
v 0.5100000 0.6634000 -0.0646500
v 0.5100000 0.6634000 -0.0646500
v 0.5100000 0.7166000 -0.0878500
v 0.5100000 0.7166000 -0.0878500
v 0.5100000 0.7166000 -0.0878500
v 0.5100000 0.7166000 -0.0646500
v 0.5100000 0.7166000 -0.0646500
v 0.5100000 0.7166000 -0.0646500
v 0.5184000 0.6550000 -0.0878500
v 0.5184000 0.6550000 -0.0646500
v 0.5184000 0.6634000 -0.0962500
v 0.5184000 0.6634000 -0.0962500
v 0.5184000 0.6634000 -0.0562500
v 0.5184000 0.6634000 -0.0562500
v 0.5184000 0.7166000 -0.0962500
v 0.5184000 0.7166000 -0.0962500
v 0.5184000 0.7166000 -0.0562500
v 0.5184000 0.7166000 -0.0562500
v 0.5184000 0.7250000 -0.0878500
v 0.5184000 0.7250000 -0.0646500
v 0.5800000 0.2457500 -0.0280000
v 0.5800000 0.2457500 -0.0280000
v 0.5800000 0.2457500 0.0155000
v 0.5800000 0.2457500 0.0155000
v 0.5800000 1.0342500 -0.0280000
v 0.5800000 1.0342500 -0.0280000
v 0.5800000 1.0342500 0.0155000
v 0.5800000 1.0342500 0.0155000
v 0.5957500 0.2300000 -0.0280000
v 0.5957500 0.2300000 0.0155000
v 0.5957500 0.2457500 -0.0437500
v 0.5957500 0.2457500 -0.0437500
v 0.5957500 0.2457500 0.0312500
v 0.5957500 0.2457500 0.0312500
v 0.5957500 1.0342500 -0.0437500
v 0.5957500 1.0342500 -0.0437500
v 0.5957500 1.0342500 -0.0437500
v 0.5957500 1.0342500 0.0312500
v 0.5957500 1.0342500 0.0312500
v 0.5957500 1.0342500 0.0312500
v 0.5957500 1.0500000 -0.0280000
v 0.5957500 1.0500000 0.0155000
v 0.6523584 1.0361456 0.0420000
v 0.6523584 1.0361456 0.0855000
v 0.6599642 1.0223538 0.0262500
v 0.6599642 1.0223538 0.0262500
v 0.6599642 1.0223538 0.1012500
v 0.6599642 1.0223538 0.1012500
v 0.6737560 1.0299596 0.0420000
v 0.6737560 1.0299596 0.0420000
v 0.6737560 1.0299596 0.0420000
v 0.6737560 1.0299596 0.0855000
v 0.6737560 1.0299596 0.0855000
v 0.6737560 1.0299596 0.0855000
v 0.6842500 0.2300000 -0.0280000
v 0.6842500 0.2300000 0.0155000
v 0.6842500 0.2457500 -0.0437500
v 0.6842500 0.2457500 -0.0437500
v 0.6842500 0.2457500 -0.0437500
v 0.6842500 0.2457500 0.0312500
v 0.6842500 0.2457500 0.0312500
v 0.6842500 0.2457500 0.0312500
v 0.6842500 1.0342500 -0.0437500
v 0.6842500 1.0342500 -0.0437500
v 0.6842500 1.0342500 -0.0437500
v 0.6842500 1.0342500 0.0312500
v 0.6842500 1.0342500 0.0312500
v 0.6842500 1.0342500 0.0312500
v 0.6842500 1.0500000 -0.0280000
v 0.6842500 1.0500000 0.0155000
v 0.6882143 0.9711270 0.0262500
v 0.6882143 0.9711270 0.0262500
v 0.6882143 0.9711270 0.1012500
v 0.6882143 0.9711270 0.1012500
v 0.6958200 0.9573352 0.0420000
v 0.6958200 0.9573352 0.0855000
v 0.7000000 0.2457500 -0.0280000
v 0.7000000 0.2457500 -0.0280000
v 0.7000000 0.2457500 0.0155000
v 0.7000000 0.2457500 0.0155000
v 0.7000000 1.0342500 -0.0280000
v 0.7000000 1.0342500 -0.0280000
v 0.7000000 1.0342500 0.0155000
v 0.7000000 1.0342500 0.0155000
v 0.7016000 0.6550000 -0.0878500
v 0.7016000 0.6550000 -0.0646500
v 0.7016000 0.6634000 -0.0962500
v 0.7016000 0.6634000 -0.0962500
v 0.7016000 0.6634000 -0.0562500
v 0.7016000 0.6634000 -0.0562500
v 0.7016000 0.7166000 -0.0962500
v 0.7016000 0.7166000 -0.0962500
v 0.7016000 0.7166000 -0.0562500
v 0.7016000 0.7166000 -0.0562500
v 0.7016000 0.7250000 -0.0878500
v 0.7016000 0.7250000 -0.0646500
v 0.7020061 0.9787328 0.0420000
v 0.7020061 0.9787328 0.0420000
v 0.7020061 0.9787328 0.0855000
v 0.7020061 0.9787328 0.0855000
v 0.7020061 0.9787328 0.0855000
v 0.7100000 0.6634000 -0.0878500
v 0.7100000 0.6634000 -0.0878500
v 0.7100000 0.6634000 -0.0646500
v 0.7100000 0.6634000 -0.0646500
v 0.7100000 0.6634000 -0.0646500
v 0.7100000 0.7166000 -0.0878500
v 0.7100000 0.7166000 -0.0878500
v 0.7100000 0.7166000 -0.0878500
v 0.7100000 0.7166000 -0.0646500
v 0.7100000 0.7166000 -0.0646500
v 0.7100000 0.7166000 -0.0646500
v 0.7311000 0.1900000 -0.0323500
v 0.7311000 0.1900000 0.0198500
v 0.7311000 0.2089000 -0.0512500
v 0.7311000 0.2089000 -0.0512500
v 0.7311000 0.2089000 0.0387500
v 0.7311000 0.2089000 0.0387500
v 0.7311000 0.2911000 -0.0512500
v 0.7311000 0.2911000 -0.0512500
v 0.7311000 0.2911000 0.0387500
v 0.7311000 0.2911000 0.0387500
v 0.7311000 0.3100000 -0.0323500
v 0.7311000 0.3100000 0.0198500
v 0.7311000 0.9400000 -0.0323500
v 0.7311000 0.9400000 0.0198500
v 0.7311000 0.9589000 -0.0512500
v 0.7311000 0.9589000 -0.0512500
v 0.7311000 0.9589000 0.0387500
v 0.7311000 0.9589000 0.0387500
v 0.7311000 1.0411000 -0.0512500
v 0.7311000 1.0411000 -0.0512500
v 0.7311000 1.0411000 0.0387500
v 0.7311000 1.0411000 0.0387500
v 0.7311000 1.0600000 -0.0323500
v 0.7311000 1.0600000 0.0198500
v 0.7500000 0.2089000 -0.0323500
v 0.7500000 0.2089000 -0.0323500
v 0.7500000 0.2089000 0.0198500
v 0.7500000 0.2089000 0.0198500
v 0.7500000 0.2089000 0.0198500
v 0.7500000 0.2911000 -0.0323500
v 0.7500000 0.2911000 -0.0323500
v 0.7500000 0.2911000 -0.0323500
v 0.7500000 0.2911000 0.0198500
v 0.7500000 0.2911000 0.0198500
v 0.7500000 0.2911000 0.0198500
v 0.7500000 0.9589000 -0.0323500
v 0.7500000 0.9589000 -0.0323500
v 0.7500000 0.9589000 0.0198500
v 0.7500000 0.9589000 0.0198500
v 0.7500000 0.9589000 0.0198500
v 0.7500000 1.0411000 -0.0323500
v 0.7500000 1.0411000 -0.0323500
v 0.7500000 1.0411000 -0.0323500
v 0.7500000 1.0411000 0.0198500
v 0.7500000 1.0411000 0.0198500
v 0.7500000 1.0411000 0.0198500
v 0.7750000 0.0250000 -0.0662500
v 0.7750000 0.0250000 0.0537500
v 0.7750000 1.3350000 -0.0662500
v 0.7750000 1.3350000 0.0537500
v 0.8000000 0.0000000 -0.0662500
v 0.8000000 0.0000000 -0.0662500
v 0.8000000 0.0000000 0.0537500
v 0.8000000 0.0000000 0.0537500
v 0.8000000 0.0000000 0.0537500
v 0.8000000 0.0250000 -0.0912500
v 0.8000000 0.0250000 -0.0912500
v 0.8000000 0.0250000 0.0787500
v 0.8000000 0.0250000 0.0787500
v 0.8000000 1.3350000 -0.0912500
v 0.8000000 1.3350000 -0.0912500
v 0.8000000 1.3350000 0.0787500
v 0.8000000 1.3350000 0.0787500
v 0.8000000 1.3600000 -0.0662500
v 0.8000000 1.3600000 -0.0662500
v 0.8000000 1.3600000 0.0537500
v 0.8000000 1.3600000 0.0537500
v 0.8000000 1.3600000 0.0537500
v 0.9200000 0.0000000 -0.0662500
v 0.9200000 0.0000000 -0.0662500
v 0.9200000 0.0000000 -0.0662500
v 0.9200000 0.0000000 0.0537500
v 0.9200000 0.0000000 0.0537500
v 0.9200000 0.0250000 -0.0912500
v 0.9200000 0.0250000 -0.0912500
v 0.9200000 0.0250000 0.0787500
v 0.9200000 0.0250000 0.0787500
v 0.9200000 1.3350000 -0.0912500
v 0.9200000 1.3350000 -0.0912500
v 0.9200000 1.3350000 0.0787500
v 0.9200000 1.3350000 0.0787500
v 0.9200000 1.3600000 -0.0662500
v 0.9200000 1.3600000 -0.0662500
v 0.9200000 1.3600000 -0.0662500
v 0.9200000 1.3600000 0.0537500
v 0.9200000 1.3600000 0.0537500
v 0.9450000 0.0250000 -0.0662500
v 0.9450000 0.0250000 0.0537500
v 0.9450000 1.3350000 -0.0662500
v 0.9450000 1.3350000 0.0537500
vt 0.0802407 0.0685219
vt 0.2516693 0.0685219
vt 0.0802407 0.4538160
vt 0.2516693 0.4538160
vt 0.0802407 0.0611690
vt 0.0802407 0.0685219
vt 0.0802407 0.0611690
vt 0.2516693 0.0611690
vt 0.2516693 0.0685219
vt 0.0445264 0.0685219
vt 0.0802407 0.0685219
vt 0.0802407 0.0685219
vt 0.2873835 0.0685219
vt 0.0445264 0.4538160
vt 0.0802407 0.4538160
vt 0.0802407 0.4538160
vt 0.2873835 0.4538160
vt 0.0802407 0.0685219
vt 0.0802407 0.4611690
vt 0.0802407 0.4611690
vt 0.2516693 0.0685219
vt 0.2516693 0.4611690
vt 0.0505754 0.0411153
vt 0.0505754 0.0558212
vt 0.1005754 0.0411153
vt 0.1005754 0.0558212
vt 0.0948418 0.0590010
vt 0.0948418 0.0737069
vt 0.1448418 0.0590010
vt 0.1448418 0.0737069
vt 0.0362897 0.0411153
vt 0.0505754 0.0411153
vt 0.0362897 0.0558212
vt 0.1220040 0.0411153
vt 0.0362897 0.0411153
vt 0.0505754 0.0381741
vt 0.0505754 0.0411153
vt 0.0505754 0.0411153
vt 0.0505754 0.0587623
vt 0.1362897 0.0411153
vt 0.0362897 0.0411153
vt 0.1005754 0.0381741
vt 0.1005754 0.0411153
vt 0.1005754 0.0411153
vt 0.1005754 0.0587623
vt 0.1362897 0.0411153
vt 0.0505754 0.0411153
vt 0.1148611 0.0411153
vt 0.1148611 0.0558212
vt 0.1220040 0.0411153
vt 0.0805561 0.0590010
vt 0.0948418 0.0590010
vt 0.0805561 0.0737069
vt 0.1662703 0.0590010
vt 0.0805561 0.0590010
vt 0.0948418 0.0560598
vt 0.0948418 0.0590010
vt 0.0948418 0.0590010
vt 0.0948418 0.0766481
vt 0.1805561 0.0590010
vt 0.0805561 0.0590010
vt 0.1448418 0.0560598
vt 0.1448418 0.0590010
vt 0.1448418 0.0590010
vt 0.1448418 0.0766481
vt 0.1805561 0.0590010
vt 0.0948418 0.0590010
vt 0.1591275 0.0590010
vt 0.1591275 0.0737069
vt 0.1662703 0.0590010
vt 0.0802407 0.0611690
vt 0.0802407 0.1038160
vt 0.2516693 0.0611690
vt 0.2516693 0.0611690
vt 0.2516693 0.1038160
vt 0.0445264 0.0685219
vt 0.2516693 0.0685219
vt 0.2516693 0.0685219
vt 0.2873835 0.0685219
vt 0.0445264 0.4538160
vt 0.2516693 0.4538160
vt 0.2516693 0.4538160
vt 0.2873835 0.4538160
vt 0.0802407 0.1038160
vt 0.0802407 0.4611690
vt 0.2516693 0.4611690
vt 0.2516693 0.1038160
vt 0.2516693 0.4611690
vt 0.0802407 0.0685219
vt 0.2516693 0.0685219
vt 0.0802407 0.4538160
vt 0.2516693 0.4538160
vt 0.0927923 0.0312757
vt 0.0927923 0.0368345
vt 0.0927923 0.0312757
vt 0.1673638 0.0312757
vt 0.1673638 0.0368345
vt 0.0927923 0.0312757
vt 0.0927923 0.0610109
vt 0.2102209 0.0312757
vt 0.1673638 0.0312757
vt 0.1673638 0.0610109
vt 0.2102209 0.0312757
vt 0.0938808 0.0858445
vt 0.0938808 0.0914034
vt 0.0938808 0.0858445
vt 0.1684522 0.0858445
vt 0.1684522 0.0914034
vt 0.0938808 0.0858445
vt 0.0938808 0.1155798
vt 0.2113094 0.0858445
vt 0.1684522 0.0858445
vt 0.1684522 0.1155798
vt 0.2113094 0.0858445
vt 0.0927923 0.0368345
vt 0.1673638 0.0368345
vt 0.0657923 0.0368345
vt 0.0927923 0.0368345
vt 0.0927923 0.0368345
vt 0.1943638 0.0368345
vt 0.0657923 0.0368345
vt 0.2102209 0.0368345
vt 0.1943638 0.0368345
vt 0.2102209 0.0368345
vt 0.0927923 0.0368345
vt 0.1673638 0.0368345
vt 0.0938808 0.0914034
vt 0.1684522 0.0914034
vt 0.0668808 0.0914034
vt 0.0938808 0.0914034
vt 0.0938808 0.0914034
vt 0.1954522 0.0914034
vt 0.0668808 0.0914034
vt 0.2113094 0.0914034
vt 0.1954522 0.0914034
vt 0.2113094 0.0914034
vt 0.0938808 0.0914034
vt 0.1684522 0.0914034
vt 0.1484821 0.0278258
vt 0.1484821 0.0496640
vt 0.2320535 0.0278258
vt 0.2106250 0.0278258
vt 0.2106250 0.0496640
vt 0.2320535 0.0278258
vt 0.1239098 0.1220304
vt 0.1239098 0.1266627
vt 0.1860526 0.1220304
vt 0.1860526 0.1266627
vt 0.1239098 0.1220304
vt 0.1239098 0.3585745
vt 0.1860526 0.1220304
vt 0.1860526 0.3585745
vt 0.1484821 0.0324581
vt 0.2106250 0.0324581
vt 0.1259821 0.0324581
vt 0.2320535 0.0324581
vt 0.2320535 0.0324581
vt 0.2331250 0.0324581
vt 0.1239098 0.1266627
vt 0.1860526 0.1266627
vt 0.1014098 0.1266627
vt 0.1239098 0.1266627
vt 0.1239098 0.1266627
vt 0.2085526 0.1266627
vt 0.1014098 0.1266627
vt 0.1014098 0.3585745
vt 0.1239098 0.3585745
vt 0.1239098 0.3585745
vt 0.2085526 0.1266627
vt 0.2085526 0.3585745
vt 0.1239098 0.1266627
vt 0.1860526 0.1266627
vt 0.1484821 0.0278258
vt 0.1484821 0.0324581
vt 0.1484821 0.0278258
vt 0.2106250 0.0278258
vt 0.2106250 0.0324581
vt 0.0362897 0.0411153
vt 0.0505754 0.0999388
vt 0.0362897 0.0558212
vt 0.1220040 0.0999388
vt 0.0362897 0.0999388
vt 0.0505754 0.0381741
vt 0.0505754 0.0999388
vt 0.0505754 0.0587623
vt 0.0505754 0.0999388
vt 0.1362897 0.0999388
vt 0.0362897 0.0999388
vt 0.1005754 0.0381741
vt 0.1005754 0.0999388
vt 0.1005754 0.0587623
vt 0.1005754 0.0999388
vt 0.1362897 0.0999388
vt 0.0505754 0.0999388
vt 0.1148611 0.0411153
vt 0.1148611 0.0558212
vt 0.1220040 0.0999388
vt 0.0805561 0.0590010
vt 0.0948418 0.1178245
vt 0.0805561 0.0737069
vt 0.1662703 0.1178245
vt 0.0805561 0.1178245
vt 0.0948418 0.0560598
vt 0.0948418 0.1178245
vt 0.0948418 0.0766481
vt 0.0948418 0.1178245
vt 0.1805561 0.1178245
vt 0.0805561 0.1178245
vt 0.1448418 0.0560598
vt 0.1448418 0.1178245
vt 0.1448418 0.0766481
vt 0.1448418 0.1178245
vt 0.1805561 0.1178245
vt 0.0948418 0.1178245
vt 0.1591275 0.0590010
vt 0.1591275 0.0737069
vt 0.1662703 0.1178245
vt 0.1259821 0.0324581
vt 0.1484821 0.0324581
vt 0.1484821 0.0324581
vt 0.2331250 0.0324581
vt 0.1484821 0.0324581
vt 0.2106250 0.0324581
vt 0.0505754 0.0411153
vt 0.0505754 0.0558212
vt 0.1005754 0.0411153
vt 0.1005754 0.0558212
vt 0.0948418 0.0590010
vt 0.0948418 0.0737069
vt 0.1448418 0.0590010
vt 0.1448418 0.0737069
vt 0.1239098 0.1526921
vt 0.1860526 0.1526921
vt 0.1014098 0.1266627
vt 0.1014098 0.1526921
vt 0.2503383 0.1266627
vt 0.2085526 0.1266627
vt 0.2085526 0.1526921
vt 0.2503383 0.1266627
vt 0.1014098 0.1526921
vt 0.1014098 0.3585745
vt 0.2503383 0.3585745
vt 0.2085526 0.1526921
vt 0.2085526 0.3585745
vt 0.2503383 0.3585745
vt 0.1239098 0.1526921
vt 0.1860526 0.1526921
vt 0.1239098 0.1266627
vt 0.1239098 0.1573245
vt 0.1860526 0.1266627
vt 0.1860526 0.1573245
vt 0.1239098 0.1573245
vt 0.1239098 0.3585745
vt 0.1860526 0.1573245
vt 0.1860526 0.3585745
vt 0.1168112 0.1012010
vt 0.1168112 0.1058333
vt 0.1789540 0.1012010
vt 0.1789540 0.1058333
vt 0.1168112 0.1012010
vt 0.1168112 0.3377451
vt 0.1789540 0.1012010
vt 0.1789540 0.3377451
vt 0.1168112 0.1058333
vt 0.1789540 0.1058333
vt 0.0943112 0.1058333
vt 0.1168112 0.1058333
vt 0.1168112 0.1058333
vt 0.2014540 0.1058333
vt 0.0943112 0.1058333
vt 0.0943112 0.3377451
vt 0.1168112 0.3377451
vt 0.1168112 0.3377451
vt 0.2014540 0.1058333
vt 0.2014540 0.3377451
vt 0.1168112 0.1058333
vt 0.1789540 0.1058333
vt 0.1168112 0.1318627
vt 0.1789540 0.1318627
vt 0.0943112 0.1058333
vt 0.0943112 0.1318627
vt 0.2432397 0.1058333
vt 0.2014540 0.1058333
vt 0.2014540 0.1318627
vt 0.2432397 0.1058333
vt 0.0943112 0.1318627
vt 0.0943112 0.3377451
vt 0.2432397 0.3377451
vt 0.2014540 0.1318627
vt 0.2014540 0.3377451
vt 0.2432397 0.3377451
vt 0.1168112 0.1318627
vt 0.1789540 0.1318627
vt 0.1168112 0.1058333
vt 0.1168112 0.1364951
vt 0.1789540 0.1058333
vt 0.1789540 0.1364951
vt 0.1168112 0.1364951
vt 0.1168112 0.3377451
vt 0.1789540 0.1364951
vt 0.1789540 0.3377451
vt 0.1349704 0.0631128
vt 0.1349704 0.0677452
vt 0.1971132 0.0631128
vt 0.1971132 0.0677452
vt 0.1349704 0.0631128
vt 0.1349704 0.2996569
vt 0.1971132 0.0631128
vt 0.1971132 0.2996569
vt 0.1349704 0.0677452
vt 0.1971132 0.0677452
vt 0.1124704 0.0677452
vt 0.1349704 0.0677452
vt 0.1349704 0.0677452
vt 0.2196132 0.0677452
vt 0.1124704 0.0677452
vt 0.1124704 0.2996569
vt 0.1349704 0.2996569
vt 0.1349704 0.2996569
vt 0.2196132 0.0677452
vt 0.2196132 0.2996569
vt 0.1349704 0.0677452
vt 0.1971132 0.0677452
vt 0.1349704 0.0937746
vt 0.1971132 0.0937746
vt 0.1124704 0.0677452
vt 0.1124704 0.0937746
vt 0.2613989 0.0677452
vt 0.2196132 0.0677452
vt 0.2196132 0.0937746
vt 0.2613989 0.0677452
vt 0.1124704 0.0937746
vt 0.1124704 0.2996569
vt 0.2613989 0.2996569
vt 0.2196132 0.0937746
vt 0.2196132 0.2996569
vt 0.2613989 0.2996569
vt 0.1349704 0.0937746
vt 0.1971132 0.0937746
vt 0.1349704 0.0677452
vt 0.1349704 0.0984069
vt 0.1971132 0.0677452
vt 0.1971132 0.0984069
vt 0.1349704 0.0984069
vt 0.1349704 0.2996569
vt 0.1971132 0.0984069
vt 0.1971132 0.2996569
vt 0.0465677 0.0390674
vt 0.0465677 0.0436997
vt 0.1087105 0.0390674
vt 0.1087105 0.0436997
vt 0.0465677 0.0390674
vt 0.0465677 0.2756115
vt 0.1087105 0.0390674
vt 0.1087105 0.2756115
vt 0.0465677 0.0436997
vt 0.1087105 0.0436997
vt 0.0240677 0.0436997
vt 0.0465677 0.0436997
vt 0.0465677 0.0436997
vt 0.1312105 0.0436997
vt 0.0240677 0.0436997
vt 0.0240677 0.2756115
vt 0.0465677 0.2756115
vt 0.0465677 0.2756115
vt 0.1312105 0.0436997
vt 0.1312105 0.2756115
vt 0.0465677 0.0436997
vt 0.1087105 0.0436997
vt 0.0465677 0.0697292
vt 0.1087105 0.0697292
vt 0.0240677 0.0436997
vt 0.0240677 0.0697292
vt 0.1729962 0.0436997
vt 0.1312105 0.0436997
vt 0.1312105 0.0697292
vt 0.1729962 0.0436997
vt 0.0240677 0.0697292
vt 0.0240677 0.2756115
vt 0.1729962 0.2756115
vt 0.1312105 0.0697292
vt 0.1312105 0.2756115
vt 0.1729962 0.2756115
vt 0.0465677 0.0697292
vt 0.1087105 0.0697292
vt 0.0465677 0.0436997
vt 0.0465677 0.0743615
vt 0.1087105 0.0436997
vt 0.1087105 0.0743615
vt 0.0465677 0.0743615
vt 0.0465677 0.2756115
vt 0.1087105 0.0743615
vt 0.1087105 0.2756115
vt 0.1143680 0.0500196
vt 0.1143680 0.0546519
vt 0.1765108 0.0500196
vt 0.1765108 0.0546519
vt 0.1143680 0.0500196
vt 0.1143680 0.2865637
vt 0.1765108 0.0500196
vt 0.1765108 0.2865637
vt 0.1143680 0.0546519
vt 0.1765108 0.0546519
vt 0.0918680 0.0546519
vt 0.1143680 0.0546519
vt 0.1143680 0.0546519
vt 0.1990108 0.0546519
vt 0.0918680 0.0546519
vt 0.0918680 0.2865637
vt 0.1143680 0.2865637
vt 0.1143680 0.2865637
vt 0.1990108 0.0546519
vt 0.1990108 0.2865637
vt 0.1143680 0.0546519
vt 0.1765108 0.0546519
vt 0.1143680 0.0806813
vt 0.1765108 0.0806813
vt 0.0918680 0.0546519
vt 0.0918680 0.0806813
vt 0.2407965 0.0546519
vt 0.1990108 0.0546519
vt 0.1990108 0.0806813
vt 0.2407965 0.0546519
vt 0.0918680 0.0806813
vt 0.0918680 0.2865637
vt 0.2407965 0.2865637
vt 0.1990108 0.0806813
vt 0.1990108 0.2865637
vt 0.2407965 0.2865637
vt 0.1143680 0.0806813
vt 0.1765108 0.0806813
vt 0.1143680 0.0546519
vt 0.1143680 0.0853137
vt 0.1765108 0.0546519
vt 0.1765108 0.0853137
vt 0.1143680 0.0853137
vt 0.1143680 0.2865637
vt 0.1765108 0.0853137
vt 0.1765108 0.2865637
vt 0.1061062 0.0709777
vt 0.1061062 0.0756101
vt 0.1682490 0.0709777
vt 0.1682490 0.0756101
vt 0.1061062 0.0709777
vt 0.1061062 0.3075218
vt 0.1682490 0.0709777
vt 0.1682490 0.3075218
vt 0.1061062 0.0756101
vt 0.1682490 0.0756101
vt 0.0836062 0.0756101
vt 0.1061062 0.0756101
vt 0.1061062 0.0756101
vt 0.1907490 0.0756101
vt 0.0836062 0.0756101
vt 0.0836062 0.3075218
vt 0.1061062 0.3075218
vt 0.1061062 0.3075218
vt 0.1907490 0.0756101
vt 0.1907490 0.3075218
vt 0.1061062 0.0756101
vt 0.1682490 0.0756101
vt 0.1061062 0.1016395
vt 0.1682490 0.1016395
vt 0.0836062 0.0756101
vt 0.0836062 0.1016395
vt 0.2325347 0.0756101
vt 0.1907490 0.0756101
vt 0.1907490 0.1016395
vt 0.2325347 0.0756101
vt 0.0836062 0.1016395
vt 0.0836062 0.3075218
vt 0.2325347 0.3075218
vt 0.1907490 0.1016395
vt 0.1907490 0.3075218
vt 0.2325347 0.3075218
vt 0.1061062 0.1016395
vt 0.1682490 0.1016395
vt 0.1061062 0.0756101
vt 0.1061062 0.1062718
vt 0.1682490 0.0756101
vt 0.1682490 0.1062718
vt 0.1061062 0.1062718
vt 0.1061062 0.3075218
vt 0.1682490 0.1062718
vt 0.1682490 0.3075218
vt 0.1366540 0.0618589
vt 0.1366540 0.0643295
vt 0.1366540 0.0618589
vt 0.1697969 0.0618589
vt 0.1697969 0.0643295
vt 0.1366540 0.0618589
vt 0.1366540 0.0799766
vt 0.2126540 0.0618589
vt 0.1697969 0.0618589
vt 0.1697969 0.0799766
vt 0.2126540 0.0618589
vt 0.1366540 0.0643295
vt 0.1697969 0.0643295
vt 0.1246540 0.0643295
vt 0.1366540 0.0643295
vt 0.1366540 0.0643295
vt 0.1817969 0.0643295
vt 0.1246540 0.0643295
vt 0.2126540 0.0643295
vt 0.1817969 0.0643295
vt 0.2126540 0.0643295
vt 0.1366540 0.0643295
vt 0.1697969 0.0643295
vt 0.0603775 0.0559964
vt 0.0603775 0.0606287
vt 0.1225203 0.0559964
vt 0.1225203 0.0606287
vt 0.0603775 0.0559964
vt 0.0603775 0.2925405
vt 0.1225203 0.0559964
vt 0.1225203 0.2925405
vt 0.0603775 0.0606287
vt 0.1225203 0.0606287
vt 0.0378775 0.0606287
vt 0.0603775 0.0606287
vt 0.0603775 0.0606287
vt 0.1450203 0.0606287
vt 0.0378775 0.0606287
vt 0.0378775 0.2925405
vt 0.0603775 0.2925405
vt 0.0603775 0.2925405
vt 0.1450203 0.0606287
vt 0.1450203 0.2925405
vt 0.0603775 0.0606287
vt 0.1225203 0.0606287
vt 0.1484821 0.4852798
vt 0.2106250 0.4852798
vt 0.1259821 0.4852798
vt 0.2320535 0.4852798
vt 0.2320535 0.4852798
vt 0.2331250 0.4852798
vt 0.1484821 0.0496640
vt 0.1484821 0.4899121
vt 0.2320535 0.4899121
vt 0.2106250 0.0496640
vt 0.2106250 0.4899121
vt 0.2320535 0.4899121
vt 0.0603775 0.0866581
vt 0.1225203 0.0866581
vt 0.0378775 0.0606287
vt 0.0378775 0.0866581
vt 0.1868061 0.0606287
vt 0.1450203 0.0606287
vt 0.1450203 0.0866581
vt 0.1868061 0.0606287
vt 0.0378775 0.0866581
vt 0.0378775 0.2925405
vt 0.1868061 0.2925405
vt 0.1450203 0.0866581
vt 0.1450203 0.2925405
vt 0.1868061 0.2925405
vt 0.0603775 0.0866581
vt 0.1225203 0.0866581
vt 0.1259821 0.4852798
vt 0.1484821 0.4852798
vt 0.1484821 0.4852798
vt 0.2331250 0.4852798
vt 0.1484821 0.4852798
vt 0.2106250 0.4852798
vt 0.0603775 0.0606287
vt 0.0603775 0.0912905
vt 0.1225203 0.0606287
vt 0.1225203 0.0912905
vt 0.0603775 0.0912905
vt 0.0603775 0.2925405
vt 0.1225203 0.0912905
vt 0.1225203 0.2925405
vt 0.1366540 0.1182118
vt 0.1697969 0.1182118
vt 0.1246540 0.1182118
vt 0.1366540 0.1182118
vt 0.1366540 0.1182118
vt 0.1817969 0.1182118
vt 0.1246540 0.1182118
vt 0.2126540 0.1182118
vt 0.1817969 0.1182118
vt 0.2126540 0.1182118
vt 0.1366540 0.1182118
vt 0.1697969 0.1182118
vt 0.1484821 0.0324581
vt 0.1484821 0.4899121
vt 0.1484821 0.4899121
vt 0.2106250 0.0324581
vt 0.2106250 0.4899121
vt 0.1366540 0.0643295
vt 0.1366540 0.1206824
vt 0.1366540 0.1206824
vt 0.1697969 0.0643295
vt 0.1697969 0.1206824
vt 0.1366540 0.0799766
vt 0.1366540 0.1206824
vt 0.2126540 0.1206824
vt 0.1697969 0.0799766
vt 0.1697969 0.1206824
vt 0.2126540 0.1206824
vt 0.0927923 0.4668933
vt 0.1673638 0.4668933
vt 0.0657923 0.4668933
vt 0.0927923 0.4668933
vt 0.0927923 0.4668933
vt 0.1943638 0.4668933
vt 0.0657923 0.4668933
vt 0.2102209 0.4668933
vt 0.1943638 0.4668933
vt 0.2102209 0.4668933
vt 0.0927923 0.4668933
vt 0.1673638 0.4668933
vt 0.0938808 0.5214622
vt 0.1684522 0.5214622
vt 0.0668808 0.5214622
vt 0.0938808 0.5214622
vt 0.0938808 0.5214622
vt 0.1954522 0.5214622
vt 0.0668808 0.5214622
vt 0.2113094 0.5214622
vt 0.1954522 0.5214622
vt 0.2113094 0.5214622
vt 0.0938808 0.5214622
vt 0.1684522 0.5214622
vt 0.0927923 0.0368345
vt 0.0927923 0.4724521
vt 0.0927923 0.4724521
vt 0.1673638 0.0368345
vt 0.1673638 0.4724521
vt 0.0927923 0.0610109
vt 0.0927923 0.4724521
vt 0.2102209 0.4724521
vt 0.1673638 0.0610109
vt 0.1673638 0.4724521
vt 0.2102209 0.4724521
vt 0.0938808 0.0914034
vt 0.0938808 0.5270210
vt 0.0938808 0.5270210
vt 0.1684522 0.0914034
vt 0.1684522 0.5270210
vt 0.0938808 0.1155798
vt 0.0938808 0.5270210
vt 0.2113094 0.5270210
vt 0.1684522 0.1155798
vt 0.1684522 0.5270210
vt 0.2113094 0.5270210
vt 0.1556411 0.0937841
vt 0.3270697 0.0937841
vt 0.1556411 0.4790782
vt 0.3270697 0.4790782
vt 0.1556411 0.0864312
vt 0.1556411 0.0937841
vt 0.1556411 0.0864312
vt 0.3270697 0.0864312
vt 0.3270697 0.0937841
vt 0.1199268 0.0937841
vt 0.1556411 0.0937841
vt 0.1556411 0.0937841
vt 0.3627840 0.0937841
vt 0.1199268 0.4790782
vt 0.1556411 0.4790782
vt 0.1556411 0.4790782
vt 0.3627840 0.4790782
vt 0.1556411 0.0937841
vt 0.1556411 0.4864312
vt 0.1556411 0.4864312
vt 0.3270697 0.0937841
vt 0.3270697 0.4864312
vt 0.1556411 0.0864312
vt 0.1556411 0.1290782
vt 0.3270697 0.0864312
vt 0.3270697 0.0864312
vt 0.3270697 0.1290782
vt 0.1199268 0.0937841
vt 0.3270697 0.0937841
vt 0.3270697 0.0937841
vt 0.3627840 0.0937841
vt 0.1199268 0.4790782
vt 0.3270697 0.4790782
vt 0.3270697 0.4790782
vt 0.3627840 0.4790782
vt 0.1556411 0.1290782
vt 0.1556411 0.4864312
vt 0.3270697 0.4864312
vt 0.3270697 0.1290782
vt 0.3270697 0.4864312
vt 0.1556411 0.0937841
vt 0.3270697 0.0937841
vt 0.1556411 0.4790782
vt 0.3270697 0.4790782
vn -0.9604831 -0.0277475 -0.2769517
vn -0.9854174 -0.0093140 0.1698995
vn -0.9954065 0.0186406 -0.0939063
vn -0.9852924 0.0184512 0.1698780
vn -0.1012739 -0.9896905 -0.1012739
vn -0.1012739 -0.9896905 -0.1012739
vn -0.2630643 -0.9539802 0.1439408
vn -0.2630643 -0.9539802 0.1439408
vn -0.2630643 -0.9539802 0.1439408
vn -0.1672948 -0.0332083 -0.9853475
vn -0.1672948 -0.0332083 -0.9853475
vn -0.1672948 -0.0332083 0.9853475
vn -0.1672948 -0.0332083 0.9853475
vn -0.1686018 0.0168920 -0.9855395
vn -0.1686018 0.0168920 -0.9855395
vn -0.1686018 0.0168920 0.9855395
vn -0.1686018 0.0168920 0.9855395
vn -0.1012739 0.9896905 -0.1012739
vn -0.1012739 0.9896905 -0.1012739
vn -0.2630643 0.9539802 0.1439408
vn -0.2630643 0.9539802 0.1439408
vn -0.2630643 0.9539802 0.1439408
vn -0.9338064 -0.2893485 -0.2104353
vn -0.9789804 -0.1223726 0.1631634
vn -0.9723656 0.2160812 -0.0883969
vn -0.9635179 0.2141151 0.1605863
vn -0.9338064 -0.2893485 -0.2104353
vn -0.9789804 -0.1223726 0.1631634
vn -0.9723656 0.2160812 -0.0883969
vn -0.9635179 0.2141151 0.1605863
vn -0.0469194 -0.9853076 -0.1642179
vn -0.0469194 -0.9853076 -0.1642179
vn -0.0432111 -0.9859983 0.1610595
vn -0.0432111 -0.9859983 0.1610595
vn -0.0369754 -0.3368871 -0.9408188
vn -0.0369754 -0.3368871 -0.9408188
vn -0.0369754 -0.3368871 -0.9408188
vn -0.0271254 -0.1265853 0.9915848
vn -0.0271254 -0.1265853 0.9915848
vn -0.0271254 -0.1265853 0.9915848
vn -0.0415401 0.2128930 -0.9761921
vn -0.0415401 0.2128930 -0.9761921
vn -0.0415401 0.2128930 -0.9761921
vn -0.0795675 0.2088648 0.9747023
vn -0.0795675 0.2088648 0.9747023
vn -0.0795675 0.2088648 0.9747023
vn -0.0469194 0.9853076 -0.1642179
vn -0.0469194 0.9853076 -0.1642179
vn -0.0432111 0.9859983 0.1610595
vn -0.0432111 0.9859983 0.1610595
vn -0.0469194 -0.9853076 -0.1642179
vn -0.0469194 -0.9853076 -0.1642179
vn -0.0432111 -0.9859983 0.1610595
vn -0.0432111 -0.9859983 0.1610595
vn -0.0369754 -0.3368871 -0.9408188
vn -0.0369754 -0.3368871 -0.9408188
vn -0.0369754 -0.3368871 -0.9408188
vn -0.0271254 -0.1265853 0.9915848
vn -0.0271254 -0.1265853 0.9915848
vn -0.0271254 -0.1265853 0.9915848
vn -0.0415401 0.2128930 -0.9761921
vn -0.0415401 0.2128930 -0.9761921
vn -0.0415401 0.2128930 -0.9761921
vn -0.0795675 0.2088648 0.9747023
vn -0.0795675 0.2088648 0.9747023
vn -0.0795675 0.2088648 0.9747023
vn -0.0469194 0.9853076 -0.1642179
vn -0.0469194 0.9853076 -0.1642179
vn -0.0432111 0.9859983 0.1610595
vn -0.0432111 0.9859983 0.1610595
vn 0.1439408 -0.9539802 -0.2630643
vn 0.1439408 -0.9539802 -0.2630643
vn 0.1439408 -0.9539802 -0.2630643
vn 0.1559877 -0.9753644 0.1559877
vn 0.1559877 -0.9753644 0.1559877
vn 0.0947137 -0.0102873 -0.9954514
vn 0.0947137 -0.0102873 -0.9954514
vn 0.0947137 -0.0102873 0.9954514
vn 0.0947137 -0.0102873 0.9954514
vn 0.2804106 0.0153722 -0.9597570
vn 0.2804106 0.0153722 -0.9597570
vn 0.2804106 0.0153722 0.9597570
vn 0.2804106 0.0153722 0.9597570
vn 0.1439408 0.9539802 -0.2630643
vn 0.1439408 0.9539802 -0.2630643
vn 0.1439408 0.9539802 -0.2630643
vn 0.1559877 0.9753644 0.1559877
vn 0.1559877 0.9753644 0.1559877
vn 0.9604831 -0.0277475 -0.2769517
vn 0.9854174 -0.0093140 0.1698995
vn 0.9954065 0.0186406 -0.0939063
vn 0.9852924 0.0184512 0.1698780
vn -0.9189424 -0.2201269 -0.3272446
vn -0.9189424 -0.2201269 -0.3272446
vn -0.9616748 -0.0991580 0.2556351
vn -0.9616748 -0.0991580 0.2556351
vn -0.9616748 -0.0991580 0.2556351
vn -0.9719995 0.1817091 -0.1489926
vn -0.9719995 0.1817091 -0.1489926
vn -0.9719995 0.1817091 -0.1489926
vn -0.9510407 0.1777910 0.2528083
vn -0.9510407 0.1777910 0.2528083
vn -0.9510407 0.1777910 0.2528083
vn -0.9189424 -0.2201269 -0.3272446
vn -0.9189424 -0.2201269 -0.3272446
vn -0.9616748 -0.0991580 0.2556351
vn -0.9616748 -0.0991580 0.2556351
vn -0.9616748 -0.0991580 0.2556351
vn -0.9719995 0.1817091 -0.1489926
vn -0.9719995 0.1817091 -0.1489926
vn -0.9719995 0.1817091 -0.1489926
vn -0.9510407 0.1777910 0.2528083
vn -0.9510407 0.1777910 0.2528083
vn -0.9510407 0.1777910 0.2528083
vn -0.0073119 -0.9883050 -0.1523149
vn -0.0211964 -0.9668102 0.2546148
vn -0.0102784 -0.2992331 -0.9541247
vn -0.0102784 -0.2992331 -0.9541247
vn -0.0102784 -0.2992331 0.9541247
vn -0.0102784 -0.2992331 0.9541247
vn -0.0113859 0.1828259 -0.9830794
vn -0.0113859 0.1828259 -0.9830794
vn -0.0113859 0.1828259 0.9830794
vn -0.0113859 0.1828259 0.9830794
vn -0.0073119 0.9883050 -0.1523149
vn -0.0211964 0.9668102 0.2546148
vn -0.0073119 -0.9883050 -0.1523149
vn -0.0211964 -0.9668102 0.2546148
vn -0.0102784 -0.2992331 -0.9541247
vn -0.0102784 -0.2992331 -0.9541247
vn -0.0102784 -0.2992331 0.9541247
vn -0.0102784 -0.2992331 0.9541247
vn -0.0113859 0.1828259 -0.9830794
vn -0.0113859 0.1828259 -0.9830794
vn -0.0113859 0.1828259 0.9830794
vn -0.0113859 0.1828259 0.9830794
vn -0.0073119 0.9883050 -0.1523149
vn -0.0211964 0.9668102 0.2546148
vn -0.9462384 -0.2874768 -0.1482904
vn -0.9462384 -0.2874768 -0.1482904
vn -0.9462384 -0.2874768 -0.1482904
vn -0.9260208 -0.2813345 0.2516673
vn -0.9260208 -0.2813345 0.2516673
vn -0.9260208 -0.2813345 0.2516673
vn -0.9240296 -0.0246128 -0.3815278
vn -0.9240296 -0.0246128 -0.3815278
vn -0.9663936 -0.0095562 0.2568894
vn -0.9663936 -0.0095562 0.2568894
vn -0.9882698 0.0193537 -0.1514866
vn -0.9882698 0.0193537 -0.1514866
vn -0.9662646 0.0189228 0.2568552
vn -0.9662646 0.0189228 0.2568552
vn -0.4823521 0.8626627 -0.1521497
vn -0.4816169 0.8384347 0.2550929
vn -0.1075820 0.1767224 -0.9783636
vn -0.1075820 0.1767224 -0.9783636
vn -0.1075820 0.1767224 0.9783636
vn -0.1075820 0.1767224 0.9783636
vn -0.0914631 -0.9827189 -0.1609288
vn -0.2235591 -0.9479308 0.2268227
vn -0.1469031 -0.0352074 -0.9885241
vn -0.1469031 -0.0352074 -0.9885241
vn -0.1469031 -0.0352074 0.9885241
vn -0.1469031 -0.0352074 0.9885241
vn -0.1481439 0.0179280 -0.9888033
vn -0.1481439 0.0179280 -0.9888033
vn -0.1481439 0.0179280 -0.9888033
vn -0.1481439 0.0179280 0.9888033
vn -0.1481439 0.0179280 0.9888033
vn -0.1481439 0.0179280 0.9888033
vn -0.1444767 0.9562980 -0.2542058
vn -0.1476971 0.9776142 0.1498533
vn -0.6823538 -0.6579307 -0.3186229
vn -0.6823538 -0.6579307 -0.3186229
vn -0.7857624 -0.5634144 0.2552288
vn -0.7857624 -0.5634144 0.2552288
vn -0.7857624 -0.5634144 0.2552288
vn 0.0432111 -0.9859983 -0.1610595
vn 0.0432111 -0.9859983 -0.1610595
vn 0.0469194 -0.9853076 0.1642179
vn 0.0469194 -0.9853076 0.1642179
vn 0.0471987 -0.1238965 -0.9911720
vn 0.0471987 -0.1238965 -0.9911720
vn 0.0471987 -0.1238965 -0.9911720
vn 0.0369754 -0.3368871 0.9408188
vn 0.0369754 -0.3368871 0.9408188
vn 0.0369754 -0.3368871 0.9408188
vn 0.0464350 0.2166965 -0.9751341
vn 0.0464350 0.2166965 -0.9751341
vn 0.0464350 0.2166965 -0.9751341
vn 0.0415401 0.2128930 0.9761921
vn 0.0415401 0.2128930 0.9761921
vn 0.0415401 0.2128930 0.9761921
vn 0.0240514 0.9861086 -0.1643514
vn 0.0240514 0.9861086 -0.1643514
vn 0.0826274 0.9840172 0.1577432
vn 0.0826274 0.9840172 0.1577432
vn 0.0432111 -0.9859983 -0.1610595
vn 0.0432111 -0.9859983 -0.1610595
vn 0.0469194 -0.9853076 0.1642179
vn 0.0469194 -0.9853076 0.1642179
vn 0.0471987 -0.1238965 -0.9911720
vn 0.0471987 -0.1238965 -0.9911720
vn 0.0471987 -0.1238965 -0.9911720
vn 0.0369754 -0.3368871 0.9408188
vn 0.0369754 -0.3368871 0.9408188
vn 0.0369754 -0.3368871 0.9408188
vn 0.0464350 0.2166965 -0.9751341
vn 0.0464350 0.2166965 -0.9751341
vn 0.0464350 0.2166965 -0.9751341
vn 0.0415401 0.2128930 0.9761921
vn 0.0415401 0.2128930 0.9761921
vn 0.0415401 0.2128930 0.9761921
vn 0.0240514 0.9861086 -0.1643514
vn 0.0240514 0.9861086 -0.1643514
vn 0.0826274 0.9840172 0.1577432
vn 0.0826274 0.9840172 0.1577432
vn 0.1521354 -0.2922352 -0.9441681
vn 0.1521354 -0.2922352 -0.9441681
vn 0.1521354 -0.2922352 0.9441681
vn 0.1521354 -0.2922352 0.9441681
vn 0.4722012 -0.8682606 -0.1521497
vn 0.4521031 -0.8547107 0.2550929
vn 0.9635179 -0.2141151 -0.1605863
vn 0.9686123 -0.2010327 0.1462056
vn 0.9686123 0.2010327 -0.1462056
vn 0.9635179 0.2141151 0.1605863
vn 0.9635179 -0.2141151 -0.1605863
vn 0.9686123 -0.2010327 0.1462056
vn 0.9686123 0.2010327 -0.1462056
vn 0.9635179 0.2141151 0.1605863
vn 0.1136663 -0.9221423 -0.3697750
vn 0.1285916 -0.9619116 0.2412266
vn 0.0821699 -0.0106512 -0.9965614
vn 0.0821699 -0.0106512 -0.9965614
vn 0.0821699 -0.0106512 -0.9965614
vn 0.1493768 -0.0097771 0.9887320
vn 0.1493768 -0.0097771 0.9887320
vn 0.1493768 -0.0097771 0.9887320
vn 0.2521429 0.0165035 -0.9675493
vn 0.2521429 0.0165035 -0.9675493
vn 0.2521429 0.0165035 -0.9675493
vn 0.1493559 0.0193601 0.9885939
vn 0.1493559 0.0193601 0.9885939
vn 0.1493559 0.0193601 0.9885939
vn 0.1285916 0.9619116 -0.2412266
vn 0.1136663 0.9221423 0.3697750
vn 0.9667651 -0.0164591 -0.2551359
vn 0.9667651 -0.0164591 -0.2551359
vn 0.9662646 -0.0189228 0.2568552
vn 0.9662646 -0.0189228 0.2568552
vn 0.9662646 0.0189228 -0.2568552
vn 0.9662646 0.0189228 -0.2568552
vn 0.9667651 0.0164591 0.2551359
vn 0.9667651 0.0164591 0.2551359
vn -0.9240296 -0.0246128 -0.3815278
vn -0.9240296 -0.0246128 -0.3815278
vn -0.9663936 -0.0095562 0.2568894
vn -0.9663936 -0.0095562 0.2568894
vn -0.9882698 0.0193537 -0.1514866
vn -0.9882698 0.0193537 -0.1514866
vn -0.9662646 0.0189228 0.2568552
vn -0.9662646 0.0189228 0.2568552
vn -0.0914631 -0.9827189 -0.1609288
vn -0.2235591 -0.9479308 0.2268227
vn -0.1469031 -0.0352074 -0.9885241
vn -0.1469031 -0.0352074 -0.9885241
vn -0.1469031 -0.0352074 0.9885241
vn -0.1469031 -0.0352074 0.9885241
vn -0.1481439 0.0179280 -0.9888033
vn -0.1481439 0.0179280 -0.9888033
vn -0.1481439 0.0179280 -0.9888033
vn -0.1481439 0.0179280 0.9888033
vn -0.1481439 0.0179280 0.9888033
vn -0.1481439 0.0179280 0.9888033
vn -0.1444767 0.9562980 -0.2542058
vn -0.1476971 0.9776142 0.1498533
vn 0.1136663 -0.9221423 -0.3697750
vn 0.1285916 -0.9619116 0.2412266
vn 0.0821699 -0.0106512 -0.9965614
vn 0.0821699 -0.0106512 -0.9965614
vn 0.0821699 -0.0106512 -0.9965614
vn 0.1493768 -0.0097771 0.9887320
vn 0.1493768 -0.0097771 0.9887320
vn 0.1493768 -0.0097771 0.9887320
vn 0.2521429 0.0165035 -0.9675493
vn 0.2521429 0.0165035 -0.9675493
vn 0.2521429 0.0165035 -0.9675493
vn 0.1493559 0.0193601 0.9885939
vn 0.1493559 0.0193601 0.9885939
vn 0.1493559 0.0193601 0.9885939
vn 0.1285916 0.9619116 -0.2412266
vn 0.1136663 0.9221423 0.3697750
vn 0.9667651 -0.0164591 -0.2551359
vn 0.9667651 -0.0164591 -0.2551359
vn 0.9662646 -0.0189228 0.2568552
vn 0.9662646 -0.0189228 0.2568552
vn 0.9662646 0.0189228 -0.2568552
vn 0.9662646 0.0189228 -0.2568552
vn 0.9667651 0.0164591 0.2551359
vn 0.9667651 0.0164591 0.2551359
vn -0.9240296 -0.0246128 -0.3815278
vn -0.9240296 -0.0246128 -0.3815278
vn -0.9663936 -0.0095562 0.2568894
vn -0.9663936 -0.0095562 0.2568894
vn -0.9882698 0.0193537 -0.1514866
vn -0.9882698 0.0193537 -0.1514866
vn -0.9662646 0.0189228 0.2568552
vn -0.9662646 0.0189228 0.2568552
vn -0.0914631 -0.9827189 -0.1609288
vn -0.2235591 -0.9479308 0.2268227
vn -0.1469031 -0.0352074 -0.9885241
vn -0.1469031 -0.0352074 -0.9885241
vn -0.1469031 -0.0352074 0.9885241
vn -0.1469031 -0.0352074 0.9885241
vn -0.1481439 0.0179280 -0.9888033
vn -0.1481439 0.0179280 -0.9888033
vn -0.1481439 0.0179280 -0.9888033
vn -0.1481439 0.0179280 0.9888033
vn -0.1481439 0.0179280 0.9888033
vn -0.1481439 0.0179280 0.9888033
vn -0.1444767 0.9562980 -0.2542058
vn -0.1476971 0.9776142 0.1498533
vn 0.1136663 -0.9221423 -0.3697750
vn 0.1285916 -0.9619116 0.2412266
vn 0.0821699 -0.0106512 -0.9965614
vn 0.0821699 -0.0106512 -0.9965614
vn 0.0821699 -0.0106512 -0.9965614
vn 0.1493768 -0.0097771 0.9887320
vn 0.1493768 -0.0097771 0.9887320
vn 0.1493768 -0.0097771 0.9887320
vn 0.2521429 0.0165035 -0.9675493
vn 0.2521429 0.0165035 -0.9675493
vn 0.2521429 0.0165035 -0.9675493
vn 0.1493559 0.0193601 0.9885939
vn 0.1493559 0.0193601 0.9885939
vn 0.1493559 0.0193601 0.9885939
vn 0.1285916 0.9619116 -0.2412266
vn 0.1136663 0.9221423 0.3697750
vn 0.9667651 -0.0164591 -0.2551359
vn 0.9667651 -0.0164591 -0.2551359
vn 0.9662646 -0.0189228 0.2568552
vn 0.9662646 -0.0189228 0.2568552
vn 0.9662646 0.0189228 -0.2568552
vn 0.9662646 0.0189228 -0.2568552
vn 0.9667651 0.0164591 0.2551359
vn 0.9667651 0.0164591 0.2551359
vn -0.9240296 -0.0246128 -0.3815278
vn -0.9240296 -0.0246128 -0.3815278
vn -0.9663936 -0.0095562 0.2568894
vn -0.9663936 -0.0095562 0.2568894
vn -0.9882698 0.0193537 -0.1514866
vn -0.9882698 0.0193537 -0.1514866
vn -0.9662646 0.0189228 0.2568552
vn -0.9662646 0.0189228 0.2568552
vn -0.0914631 -0.9827189 -0.1609288
vn -0.2235591 -0.9479308 0.2268227
vn -0.1469031 -0.0352074 -0.9885241
vn -0.1469031 -0.0352074 -0.9885241
vn -0.1469031 -0.0352074 0.9885241
vn -0.1469031 -0.0352074 0.9885241
vn -0.1481439 0.0179280 -0.9888033
vn -0.1481439 0.0179280 -0.9888033
vn -0.1481439 0.0179280 -0.9888033
vn -0.1481439 0.0179280 0.9888033
vn -0.1481439 0.0179280 0.9888033
vn -0.1481439 0.0179280 0.9888033
vn -0.1444767 0.9562980 -0.2542058
vn -0.1476971 0.9776142 0.1498533
vn 0.1136663 -0.9221423 -0.3697750
vn 0.1285916 -0.9619116 0.2412266
vn 0.0821699 -0.0106512 -0.9965614
vn 0.0821699 -0.0106512 -0.9965614
vn 0.0821699 -0.0106512 -0.9965614
vn 0.1493768 -0.0097771 0.9887320
vn 0.1493768 -0.0097771 0.9887320
vn 0.1493768 -0.0097771 0.9887320
vn 0.2521429 0.0165035 -0.9675493
vn 0.2521429 0.0165035 -0.9675493
vn 0.2521429 0.0165035 -0.9675493
vn 0.1493559 0.0193601 0.9885939
vn 0.1493559 0.0193601 0.9885939
vn 0.1493559 0.0193601 0.9885939
vn 0.1285916 0.9619116 -0.2412266
vn 0.1136663 0.9221423 0.3697750
vn 0.9667651 -0.0164591 -0.2551359
vn 0.9667651 -0.0164591 -0.2551359
vn 0.9662646 -0.0189228 0.2568552
vn 0.9662646 -0.0189228 0.2568552
vn 0.9662646 0.0189228 -0.2568552
vn 0.9662646 0.0189228 -0.2568552
vn 0.9667651 0.0164591 0.2551359
vn 0.9667651 0.0164591 0.2551359
vn -0.9240296 -0.0246128 -0.3815278
vn -0.9240296 -0.0246128 -0.3815278
vn -0.9663936 -0.0095562 0.2568894
vn -0.9663936 -0.0095562 0.2568894
vn -0.9882698 0.0193537 -0.1514866
vn -0.9882698 0.0193537 -0.1514866
vn -0.9662646 0.0189228 0.2568552
vn -0.9662646 0.0189228 0.2568552
vn -0.0914631 -0.9827189 -0.1609288
vn -0.2235591 -0.9479308 0.2268227
vn -0.1469031 -0.0352074 -0.9885241
vn -0.1469031 -0.0352074 -0.9885241
vn -0.1469031 -0.0352074 0.9885241
vn -0.1469031 -0.0352074 0.9885241
vn -0.1481439 0.0179280 -0.9888033
vn -0.1481439 0.0179280 -0.9888033
vn -0.1481439 0.0179280 -0.9888033
vn -0.1481439 0.0179280 0.9888033
vn -0.1481439 0.0179280 0.9888033
vn -0.1481439 0.0179280 0.9888033
vn -0.1444767 0.9562980 -0.2542058
vn -0.1476971 0.9776142 0.1498533
vn 0.1136663 -0.9221423 -0.3697750
vn 0.1285916 -0.9619116 0.2412266
vn 0.0821699 -0.0106512 -0.9965614
vn 0.0821699 -0.0106512 -0.9965614
vn 0.0821699 -0.0106512 -0.9965614
vn 0.1493768 -0.0097771 0.9887320
vn 0.1493768 -0.0097771 0.9887320
vn 0.1493768 -0.0097771 0.9887320
vn 0.2521429 0.0165035 -0.9675493
vn 0.2521429 0.0165035 -0.9675493
vn 0.2521429 0.0165035 -0.9675493
vn 0.1493559 0.0193601 0.9885939
vn 0.1493559 0.0193601 0.9885939
vn 0.1493559 0.0193601 0.9885939
vn 0.1285916 0.9619116 -0.2412266
vn 0.1136663 0.9221423 0.3697750
vn 0.9667651 -0.0164591 -0.2551359
vn 0.9667651 -0.0164591 -0.2551359
vn 0.9662646 -0.0189228 0.2568552
vn 0.9662646 -0.0189228 0.2568552
vn 0.9662646 0.0189228 -0.2568552
vn 0.9662646 0.0189228 -0.2568552
vn 0.9667651 0.0164591 0.2551359
vn 0.9667651 0.0164591 0.2551359
vn -0.9240296 -0.0246128 -0.3815278
vn -0.9240296 -0.0246128 -0.3815278
vn -0.9663936 -0.0095562 0.2568894
vn -0.9663936 -0.0095562 0.2568894
vn -0.9882698 0.0193537 -0.1514866
vn -0.9882698 0.0193537 -0.1514866
vn -0.9662646 0.0189228 0.2568552
vn -0.9662646 0.0189228 0.2568552
vn -0.0914631 -0.9827189 -0.1609288
vn -0.2235591 -0.9479308 0.2268227
vn -0.1469031 -0.0352074 -0.9885241
vn -0.1469031 -0.0352074 -0.9885241
vn -0.1469031 -0.0352074 0.9885241
vn -0.1469031 -0.0352074 0.9885241
vn -0.1481439 0.0179280 -0.9888033
vn -0.1481439 0.0179280 -0.9888033
vn -0.1481439 0.0179280 -0.9888033
vn -0.1481439 0.0179280 0.9888033
vn -0.1481439 0.0179280 0.9888033
vn -0.1481439 0.0179280 0.9888033
vn -0.1444767 0.9562980 -0.2542058
vn -0.1476971 0.9776142 0.1498533
vn 0.1136663 -0.9221423 -0.3697750
vn 0.1285916 -0.9619116 0.2412266
vn 0.0821699 -0.0106512 -0.9965614
vn 0.0821699 -0.0106512 -0.9965614
vn 0.0821699 -0.0106512 -0.9965614
vn 0.1493768 -0.0097771 0.9887320
vn 0.1493768 -0.0097771 0.9887320
vn 0.1493768 -0.0097771 0.9887320
vn 0.2521429 0.0165035 -0.9675493
vn 0.2521429 0.0165035 -0.9675493
vn 0.2521429 0.0165035 -0.9675493
vn 0.1493559 0.0193601 0.9885939
vn 0.1493559 0.0193601 0.9885939
vn 0.1493559 0.0193601 0.9885939
vn 0.1285916 0.9619116 -0.2412266
vn 0.1136663 0.9221423 0.3697750
vn 0.9667651 -0.0164591 -0.2551359
vn 0.9667651 -0.0164591 -0.2551359
vn 0.9662646 -0.0189228 0.2568552
vn 0.9662646 -0.0189228 0.2568552
vn 0.9662646 0.0189228 -0.2568552
vn 0.9662646 0.0189228 -0.2568552
vn 0.9667651 0.0164591 0.2551359
vn 0.9667651 0.0164591 0.2551359
vn -0.9243288 -0.1643873 -0.3443735
vn -0.9243288 -0.1643873 -0.3443735
vn -0.9640303 -0.0705388 0.2562612
vn -0.9640303 -0.0705388 0.2562612
vn -0.9640303 -0.0705388 0.2562612
vn -0.9795963 0.1335813 -0.1501571
vn -0.9795963 0.1335813 -0.1501571
vn -0.9795963 0.1335813 -0.1501571
vn -0.9581530 0.1306572 0.2546989
vn -0.9581530 0.1306572 0.2546989
vn -0.9581530 0.1306572 0.2546989
vn -0.0254421 -0.9877022 -0.1542628
vn -0.0711496 -0.9659474 0.2487638
vn -0.0377208 -0.2295088 -0.9725754
vn -0.0377208 -0.2295088 -0.9725754
vn -0.0377208 -0.2295088 0.9725754
vn -0.0377208 -0.2295088 0.9725754
vn -0.0405794 0.1324840 -0.9903541
vn -0.0405794 0.1324840 -0.9903541
vn -0.0405794 0.1324840 0.9903541
vn -0.0405794 0.1324840 0.9903541
vn -0.0254421 0.9877022 -0.1542628
vn -0.0711496 0.9659474 0.2487638
vn -0.9240296 -0.0246128 -0.3815278
vn -0.9240296 -0.0246128 -0.3815278
vn -0.9663936 -0.0095562 0.2568894
vn -0.9663936 -0.0095562 0.2568894
vn -0.9882698 0.0193537 -0.1514866
vn -0.9882698 0.0193537 -0.1514866
vn -0.9662646 0.0189228 0.2568552
vn -0.9662646 0.0189228 0.2568552
vn -0.0914631 -0.9827189 -0.1609288
vn -0.2235591 -0.9479308 0.2268227
vn -0.1469031 -0.0352074 -0.9885241
vn -0.1469031 -0.0352074 -0.9885241
vn -0.1469031 -0.0352074 0.9885241
vn -0.1469031 -0.0352074 0.9885241
vn -0.1481439 0.0179280 -0.9888033
vn -0.1481439 0.0179280 -0.9888033
vn -0.1481439 0.0179280 -0.9888033
vn -0.1481439 0.0179280 0.9888033
vn -0.1481439 0.0179280 0.9888033
vn -0.1481439 0.0179280 0.9888033
vn -0.1444767 0.9562980 -0.2542058
vn -0.1476971 0.9776142 0.1498533
vn -0.4389407 0.8112583 -0.3862526
vn -0.4593549 0.8505633 0.2559984
vn -0.0915264 0.1864801 -0.9781861
vn -0.0915264 0.1864801 -0.9781861
vn -0.0840417 0.1887872 0.9784152
vn -0.0840417 0.1887872 0.9784152
vn 0.7492724 0.6196912 -0.2336103
vn 0.7492724 0.6196912 -0.2336103
vn 0.7492724 0.6196912 -0.2336103
vn 0.7320607 0.6330487 0.2516673
vn 0.7320607 0.6330487 0.2516673
vn 0.7320607 0.6330487 0.2516673
vn 0.1136663 -0.9221423 -0.3697750
vn 0.1285916 -0.9619116 0.2412266
vn 0.0821699 -0.0106512 -0.9965614
vn 0.0821699 -0.0106512 -0.9965614
vn 0.0821699 -0.0106512 -0.9965614
vn 0.1493768 -0.0097771 0.9887320
vn 0.1493768 -0.0097771 0.9887320
vn 0.1493768 -0.0097771 0.9887320
vn 0.2521429 0.0165035 -0.9675493
vn 0.2521429 0.0165035 -0.9675493
vn 0.2521429 0.0165035 -0.9675493
vn 0.1493559 0.0193601 0.9885939
vn 0.1493559 0.0193601 0.9885939
vn 0.1493559 0.0193601 0.9885939
vn 0.1285916 0.9619116 -0.2412266
vn 0.1136663 0.9221423 0.3697750
vn 0.0656973 -0.0983086 -0.9929850
vn 0.0656973 -0.0983086 -0.9929850
vn 0.0620924 -0.1008959 0.9929575
vn 0.0620924 -0.1008959 0.9929575
vn 0.4518910 -0.8041166 -0.3862526
vn 0.4742396 -0.8423548 0.2559984
vn 0.9667651 -0.0164591 -0.2551359
vn 0.9667651 -0.0164591 -0.2551359
vn 0.9662646 -0.0189228 0.2568552
vn 0.9662646 -0.0189228 0.2568552
vn 0.9662646 0.0189228 -0.2568552
vn 0.9662646 0.0189228 -0.2568552
vn 0.9667651 0.0164591 0.2551359
vn 0.9667651 0.0164591 0.2551359
vn 0.0322742 -0.9232686 -0.3827969
vn 0.0369677 -0.9668022 0.2528378
vn 0.0436827 -0.0729060 -0.9963817
vn 0.0436827 -0.0729060 -0.9963817
vn 0.0239389 -0.0744594 0.9969367
vn 0.0239389 -0.0744594 0.9969367
vn 0.0433984 0.1349859 -0.9898967
vn 0.0433984 0.1349859 -0.9898967
vn 0.0778161 0.1298742 0.9884722
vn 0.0778161 0.1298742 0.9884722
vn 0.0322742 0.9232686 -0.3827969
vn 0.0369677 0.9668022 0.2528378
vn 0.9581454 0.1900625 -0.2140878
vn 0.9581454 0.1900625 -0.2140878
vn 0.8957838 0.3639089 0.2552288
vn 0.8957838 0.3639089 0.2552288
vn 0.8957838 0.3639089 0.2552288
vn 0.9514783 -0.2045280 -0.2299074
vn 0.9514783 -0.2045280 -0.2299074
vn 0.9640303 -0.0705388 0.2562612
vn 0.9640303 -0.0705388 0.2562612
vn 0.9640303 -0.0705388 0.2562612
vn 0.9630793 0.1159758 -0.2429567
vn 0.9630793 0.1159758 -0.2429567
vn 0.9630793 0.1159758 -0.2429567
vn 0.9581530 0.1306572 0.2546989
vn 0.9581530 0.1306572 0.2546989
vn 0.9581530 0.1306572 0.2546989
vn 0.0093243 -0.9224545 -0.3859933
vn 0.0107142 -0.9666809 0.2557601
vn 0.0126925 -0.1025576 -0.9946461
vn 0.0126925 -0.1025576 -0.9946461
vn 0.0070408 -0.1031474 0.9946412
vn 0.0070408 -0.1031474 0.9946412
vn 0.0125425 0.1837457 -0.9828938
vn 0.0125425 0.1837457 -0.9828938
vn 0.0225106 0.1818899 0.9830612
vn 0.0225106 0.1818899 0.9830612
vn 0.0093243 0.9224545 -0.3859933
vn 0.0107142 0.9666809 0.2557601
vn 0.0093243 -0.9224545 -0.3859933
vn 0.0107142 -0.9666809 0.2557601
vn 0.0126925 -0.1025576 -0.9946461
vn 0.0126925 -0.1025576 -0.9946461
vn 0.0070408 -0.1031474 0.9946412
vn 0.0070408 -0.1031474 0.9946412
vn 0.0125425 0.1837457 -0.9828938
vn 0.0125425 0.1837457 -0.9828938
vn 0.0225106 0.1818899 0.9830612
vn 0.0225106 0.1818899 0.9830612
vn 0.0093243 0.9224545 -0.3859933
vn 0.0107142 0.9666809 0.2557601
vn 0.9382750 -0.2674721 -0.2193141
vn 0.9382750 -0.2674721 -0.2193141
vn 0.9616748 -0.0991580 0.2556351
vn 0.9616748 -0.0991580 0.2556351
vn 0.9616748 -0.0991580 0.2556351
vn 0.9583990 0.1593117 -0.2368357
vn 0.9583990 0.1593117 -0.2368357
vn 0.9583990 0.1593117 -0.2368357
vn 0.9510407 0.1777910 0.2528083
vn 0.9510407 0.1777910 0.2528083
vn 0.9510407 0.1777910 0.2528083
vn 0.9382750 -0.2674721 -0.2193141
vn 0.9382750 -0.2674721 -0.2193141
vn 0.9616748 -0.0991580 0.2556351
vn 0.9616748 -0.0991580 0.2556351
vn 0.9616748 -0.0991580 0.2556351
vn 0.9583990 0.1593117 -0.2368357
vn 0.9583990 0.1593117 -0.2368357
vn 0.9583990 0.1593117 -0.2368357
vn 0.9510407 0.1777910 0.2528083
vn 0.9510407 0.1777910 0.2528083
vn 0.9510407 0.1777910 0.2528083
vn -0.9604831 -0.0277475 -0.2769517
vn -0.9854174 -0.0093140 0.1698995
vn -0.9954065 0.0186406 -0.0939063
vn -0.9852924 0.0184512 0.1698780
vn -0.1012739 -0.9896905 -0.1012739
vn -0.1012739 -0.9896905 -0.1012739
vn -0.2630643 -0.9539802 0.1439408
vn -0.2630643 -0.9539802 0.1439408
vn -0.2630643 -0.9539802 0.1439408
vn -0.1672948 -0.0332083 -0.9853475
vn -0.1672948 -0.0332083 -0.9853475
vn -0.1672948 -0.0332083 0.9853475
vn -0.1672948 -0.0332083 0.9853475
vn -0.1686018 0.0168920 -0.9855395
vn -0.1686018 0.0168920 -0.9855395
vn -0.1686018 0.0168920 0.9855395
vn -0.1686018 0.0168920 0.9855395
vn -0.1012739 0.9896905 -0.1012739
vn -0.1012739 0.9896905 -0.1012739
vn -0.2630643 0.9539802 0.1439408
vn -0.2630643 0.9539802 0.1439408
vn -0.2630643 0.9539802 0.1439408
vn 0.1439408 -0.9539802 -0.2630643
vn 0.1439408 -0.9539802 -0.2630643
vn 0.1439408 -0.9539802 -0.2630643
vn 0.1559877 -0.9753644 0.1559877
vn 0.1559877 -0.9753644 0.1559877
vn 0.0947137 -0.0102873 -0.9954514
vn 0.0947137 -0.0102873 -0.9954514
vn 0.0947137 -0.0102873 0.9954514
vn 0.0947137 -0.0102873 0.9954514
vn 0.2804106 0.0153722 -0.9597570
vn 0.2804106 0.0153722 -0.9597570
vn 0.2804106 0.0153722 0.9597570
vn 0.2804106 0.0153722 0.9597570
vn 0.1439408 0.9539802 -0.2630643
vn 0.1439408 0.9539802 -0.2630643
vn 0.1439408 0.9539802 -0.2630643
vn 0.1559877 0.9753644 0.1559877
vn 0.1559877 0.9753644 0.1559877
vn 0.9604831 -0.0277475 -0.2769517
vn 0.9854174 -0.0093140 0.1698995
vn 0.9954065 0.0186406 -0.0939063
vn 0.9852924 0.0184512 0.1698780
o 13_Portilla_Iron
usemtl Iron
s 1
f 31/31/31 23/23/23 36/36/36
f 45/45/45 49/49/49 26/26/26
f 226/226/226 189/189/189 195/195/195
f 42/42/42 25/25/25 48/48/48
f 191/191/191 227/227/227 196/196/196
f 180/180/180 225/225/225 185/185/185
f 33/33/33 39/39/39 24/24/24
f 178/178/178 183/183/183 224/224/224
f 25/25/25 23/23/23 24/24/24
f 25/25/25 24/24/24 26/26/26
f 50/50/50 197/197/197 194/194/194
f 50/50/50 194/194/194 47/47/47
f 49/49/49 25/25/25 26/26/26
f 49/49/49 48/48/48 25/25/25
f 45/45/45 26/26/26 24/24/24
f 45/45/45 24/24/24 39/39/39
f 226/226/226 183/183/183 189/189/189
f 226/226/226 224/224/224 183/183/183
f 226/226/226 195/195/195 196/196/196
f 226/226/226 196/196/196 227/227/227
f 41/41/41 47/47/47 194/194/194
f 41/41/41 194/194/194 188/188/188
f 43/43/43 190/190/190 184/184/184
f 43/43/43 184/184/184 37/37/37
f 42/42/42 23/23/23 25/25/25
f 42/42/42 36/36/36 23/23/23
f 225/225/225 224/224/224 226/226/226
f 225/225/225 226/226/226 227/227/227
f 191/191/191 225/225/225 227/227/227
f 191/191/191 185/185/185 225/225/225
f 193/193/193 197/197/197 50/50/50
f 193/193/193 50/50/50 46/46/46
f 192/192/192 44/44/44 38/38/38
f 192/192/192 38/38/38 186/186/186
f 33/33/33 24/24/24 23/23/23
f 33/33/33 23/23/23 31/31/31
f 34/34/34 187/187/187 40/40/40
f 34/34/34 181/181/181 187/187/187
f 178/178/178 224/224/224 225/225/225
f 178/178/178 225/225/225 180/180/180
f 179/179/179 35/35/35 182/182/182
f 179/179/179 32/32/32 35/35/35
f 179/179/179 34/34/34 32/32/32
f 179/179/179 181/181/181 34/34/34
f 51/51/51 27/27/27 56/56/56
f 65/65/65 69/69/69 30/30/30
f 230/230/230 209/209/209 215/215/215
f 62/62/62 29/29/29 68/68/68
f 211/211/211 231/231/231 216/216/216
f 200/200/200 229/229/229 205/205/205
f 53/53/53 59/59/59 28/28/28
f 198/198/198 203/203/203 228/228/228
f 29/29/29 27/27/27 28/28/28
f 29/29/29 28/28/28 30/30/30
f 70/70/70 217/217/217 214/214/214
f 70/70/70 214/214/214 67/67/67
f 69/69/69 29/29/29 30/30/30
f 69/69/69 68/68/68 29/29/29
f 65/65/65 30/30/30 28/28/28
f 65/65/65 28/28/28 59/59/59
f 230/230/230 203/203/203 209/209/209
f 230/230/230 228/228/228 203/203/203
f 230/230/230 215/215/215 216/216/216
f 230/230/230 216/216/216 231/231/231
f 61/61/61 67/67/67 214/214/214
f 61/61/61 214/214/214 208/208/208
f 63/63/63 210/210/210 204/204/204
f 63/63/63 204/204/204 57/57/57
f 62/62/62 27/27/27 29/29/29
f 62/62/62 56/56/56 27/27/27
f 229/229/229 228/228/228 230/230/230
f 229/229/229 230/230/230 231/231/231
f 211/211/211 229/229/229 231/231/231
f 211/211/211 205/205/205 229/229/229
f 213/213/213 217/217/217 70/70/70
f 213/213/213 70/70/70 66/66/66
f 212/212/212 64/64/64 58/58/58
f 212/212/212 58/58/58 206/206/206
f 53/53/53 28/28/28 27/27/27
f 53/53/53 27/27/27 51/51/51
f 54/54/54 207/207/207 60/60/60
f 54/54/54 201/201/201 207/207/207
f 198/198/198 228/228/228 229/229/229
f 198/198/198 229/229/229 200/200/200
f 199/199/199 55/55/55 202/202/202
f 199/199/199 52/52/52 55/55/55
f 199/199/199 54/54/54 52/52/52
f 199/199/199 201/201/201 54/54/54
f 497/497/497 486/486/486 499/499/499
f 584/584/584 581/581/581 599/599/599
f 505/505/505 508/508/508 494/494/494
f 596/596/596 579/579/579 583/583/583
f 503/503/503 491/491/491 507/507/507
f 498/498/498 502/502/502 489/489/489
f 573/573/573 575/575/575 591/591/591
f 574/574/574 594/594/594 578/578/578
f 492/492/492 487/487/487 490/490/490
f 492/492/492 490/490/490 495/495/495
f 508/508/508 491/491/491 494/494/494
f 508/508/508 507/507/507 491/491/491
f 584/584/584 507/507/507 508/508/508
f 584/584/584 583/583/583 507/507/507
f 506/506/506 496/496/496 488/488/488
f 506/506/506 488/488/488 501/501/501
f 506/506/506 501/501/501 577/577/577
f 506/506/506 577/577/577 582/582/582
f 505/505/505 584/584/584 508/508/508
f 505/505/505 581/581/581 584/584/584
f 592/592/592 582/582/582 577/577/577
f 592/592/592 600/600/600 582/582/582
f 595/595/595 598/598/598 593/593/593
f 595/595/595 593/593/593 590/590/590
f 597/597/597 591/591/591 576/576/576
f 597/597/597 576/576/576 580/580/580
f 596/596/596 583/583/583 584/584/584
f 596/596/596 584/584/584 599/599/599
f 503/503/503 507/507/507 583/583/583
f 503/503/503 583/583/583 579/579/579
f 504/504/504 580/580/580 576/576/576
f 504/504/504 576/576/576 500/500/500
f 504/504/504 486/486/486 493/493/493
f 504/504/504 500/500/500 486/486/486
f 498/498/498 489/489/489 486/486/486
f 498/498/498 486/486/486 497/497/497
f 573/573/573 499/499/499 575/575/575
f 573/573/573 497/497/497 499/499/499
f 574/574/574 591/591/591 594/594/594
f 574/574/574 573/573/573 591/591/591
f 574/574/574 578/578/578 502/502/502
f 574/574/574 502/502/502 498/498/498
f 574/574/574 498/498/498 497/497/497
f 574/574/574 497/497/497 573/573/573
o 13_Portilla_Wood
usemtl Wood
s 1
f 5/5/5 1/1/1 10/10/10
f 17/17/17 22/22/22 4/4/4
f 80/80/80 85/85/85 91/91/91
f 88/88/88 83/83/83 92/92/92
f 8/8/8 13/13/13 2/2/2
f 14/14/14 3/3/3 19/19/19
f 71/71/71 76/76/76 89/89/89
f 74/74/74 90/90/90 79/79/79
f 3/3/3 1/1/1 2/2/2
f 3/3/3 2/2/2 4/4/4
f 22/22/22 3/3/3 4/4/4
f 22/22/22 19/19/19 3/3/3
f 90/90/90 91/91/91 92/92/92
f 90/90/90 89/89/89 91/91/91
f 83/83/83 79/79/79 90/90/90
f 83/83/83 90/90/90 92/92/92
f 17/17/17 4/4/4 2/2/2
f 17/17/17 2/2/2 13/13/13
f 16/16/16 78/78/78 82/82/82
f 16/16/16 12/12/12 78/78/78
f 80/80/80 91/91/91 89/89/89
f 80/80/80 89/89/89 76/76/76
f 88/88/88 16/16/16 82/82/82
f 88/88/88 20/20/20 16/16/16
f 87/87/87 18/18/18 21/21/21
f 87/87/87 84/84/84 18/18/18
f 88/88/88 92/92/92 91/91/91
f 88/88/88 91/91/91 85/85/85
f 8/8/8 2/2/2 1/1/1
f 8/8/8 1/1/1 5/5/5
f 15/15/15 19/19/19 86/86/86
f 15/15/15 86/86/86 81/81/81
f 14/14/14 1/1/1 3/3/3
f 14/14/14 10/10/10 1/1/1
f 15/15/15 81/81/81 77/77/77
f 15/15/15 77/77/77 11/11/11
f 73/73/73 11/11/11 77/77/77
f 73/73/73 5/5/5 11/11/11
f 74/74/74 78/78/78 12/12/12
f 74/74/74 12/12/12 7/7/7
f 75/75/75 9/9/9 6/6/6
f 75/75/75 6/6/6 72/72/72
f 74/74/74 89/89/89 90/90/90
f 74/74/74 71/71/71 89/89/89
f 651/651/651 647/647/647 656/656/656
f 663/663/663 668/668/668 650/650/650
f 678/678/678 683/683/683 689/689/689
f 686/686/686 681/681/681 690/690/690
f 654/654/654 659/659/659 648/648/648
f 660/660/660 649/649/649 665/665/665
f 669/669/669 674/674/674 687/687/687
f 672/672/672 688/688/688 677/677/677
f 649/649/649 647/647/647 648/648/648
f 649/649/649 648/648/648 650/650/650
f 668/668/668 649/649/649 650/650/650
f 668/668/668 665/665/665 649/649/649
f 688/688/688 689/689/689 690/690/690
f 688/688/688 687/687/687 689/689/689
f 681/681/681 677/677/677 688/688/688
f 681/681/681 688/688/688 690/690/690
f 663/663/663 650/650/650 648/648/648
f 663/663/663 648/648/648 659/659/659
f 662/662/662 676/676/676 680/680/680
f 662/662/662 658/658/658 676/676/676
f 678/678/678 689/689/689 687/687/687
f 678/678/678 687/687/687 674/674/674
f 686/686/686 662/662/662 680/680/680
f 686/686/686 666/666/666 662/662/662
f 685/685/685 664/664/664 667/667/667
f 685/685/685 682/682/682 664/664/664
f 686/686/686 690/690/690 689/689/689
f 686/686/686 689/689/689 683/683/683
f 654/654/654 648/648/648 647/647/647
f 654/654/654 647/647/647 651/651/651
f 661/661/661 665/665/665 684/684/684
f 661/661/661 684/684/684 679/679/679
f 660/660/660 647/647/647 649/649/649
f 660/660/660 656/656/656 647/647/647
f 661/661/661 679/679/679 675/675/675
f 661/661/661 675/675/675 657/657/657
f 671/671/671 657/657/657 675/675/675
f 671/671/671 651/651/651 657/657/657
f 672/672/672 676/676/676 658/658/658
f 672/672/672 658/658/658 653/653/653
f 673/673/673 655/655/655 652/652/652
f 673/673/673 652/652/652 670/670/670
f 672/672/672 687/687/687 688/688/688
f 672/672/672 669/669/669 687/687/687
f 115/115/115 93/93/93 117/117/117
f 612/612/612 609/609/609 634/634/634
f 123/123/123 126/126/126 101/101/101
f 631/631/631 607/607/607 611/611/611
f 121/121/121 98/98/98 125/125/125
f 116/116/116 120/120/120 96/96/96
f 601/601/601 603/603/603 626/626/626
f 602/602/602 629/629/629 606/606/606
f 99/99/99 94/94/94 97/97/97
f 99/99/99 97/97/97 102/102/102
f 126/126/126 98/98/98 101/101/101
f 126/126/126 125/125/125 98/98/98
f 612/612/612 125/125/125 126/126/126
f 612/612/612 611/611/611 125/125/125
f 124/124/124 103/103/103 95/95/95
f 124/124/124 95/95/95 119/119/119
f 124/124/124 119/119/119 605/605/605
f 124/124/124 605/605/605 610/610/610
f 123/123/123 612/612/612 126/126/126
f 123/123/123 609/609/609 612/612/612
f 627/627/627 610/610/610 605/605/605
f 627/627/627 635/635/635 610/610/610
f 630/630/630 633/633/633 628/628/628
f 630/630/630 628/628/628 625/625/625
f 632/632/632 626/626/626 604/604/604
f 632/632/632 604/604/604 608/608/608
f 631/631/631 611/611/611 612/612/612
f 631/631/631 612/612/612 634/634/634
f 121/121/121 125/125/125 611/611/611
f 121/121/121 611/611/611 607/607/607
f 122/122/122 608/608/608 604/604/604
f 122/122/122 604/604/604 118/118/118
f 122/122/122 93/93/93 100/100/100
f 122/122/122 118/118/118 93/93/93
f 116/116/116 96/96/96 93/93/93
f 116/116/116 93/93/93 115/115/115
f 601/601/601 117/117/117 603/603/603
f 601/601/601 115/115/115 117/117/117
f 602/602/602 626/626/626 629/629/629
f 602/602/602 601/601/601 626/626/626
f 602/602/602 606/606/606 120/120/120
f 602/602/602 120/120/120 116/116/116
f 602/602/602 116/116/116 115/115/115
f 602/602/602 115/115/115 601/601/601
f 127/127/127 104/104/104 129/129/129
f 624/624/624 621/621/621 645/645/645
f 135/135/135 138/138/138 112/112/112
f 642/642/642 619/619/619 623/623/623
f 133/133/133 109/109/109 137/137/137
f 128/128/128 132/132/132 107/107/107
f 613/613/613 615/615/615 637/637/637
f 614/614/614 640/640/640 618/618/618
f 110/110/110 105/105/105 108/108/108
f 110/110/110 108/108/108 113/113/113
f 138/138/138 109/109/109 112/112/112
f 138/138/138 137/137/137 109/109/109
f 624/624/624 137/137/137 138/138/138
f 624/624/624 623/623/623 137/137/137
f 136/136/136 114/114/114 106/106/106
f 136/136/136 106/106/106 131/131/131
f 136/136/136 131/131/131 617/617/617
f 136/136/136 617/617/617 622/622/622
f 135/135/135 624/624/624 138/138/138
f 135/135/135 621/621/621 624/624/624
f 638/638/638 622/622/622 617/617/617
f 638/638/638 646/646/646 622/622/622
f 641/641/641 644/644/644 639/639/639
f 641/641/641 639/639/639 636/636/636
f 643/643/643 637/637/637 616/616/616
f 643/643/643 616/616/616 620/620/620
f 642/642/642 623/623/623 624/624/624
f 642/642/642 624/624/624 645/645/645
f 133/133/133 137/137/137 623/623/623
f 133/133/133 623/623/623 619/619/619
f 134/134/134 620/620/620 616/616/616
f 134/134/134 616/616/616 130/130/130
f 134/134/134 104/104/104 111/111/111
f 134/134/134 130/130/130 104/104/104
f 128/128/128 107/107/107 104/104/104
f 128/128/128 104/104/104 127/127/127
f 613/613/613 129/129/129 615/615/615
f 613/613/613 127/127/127 129/129/129
f 614/614/614 637/637/637 640/640/640
f 614/614/614 613/613/613 637/637/637
f 614/614/614 618/618/618 132/132/132
f 614/614/614 132/132/132 128/128/128
f 614/614/614 128/128/128 127/127/127
f 614/614/614 127/127/127 613/613/613
f 169/169/169 172/172/172 151/151/151
f 159/159/159 145/145/145 161/161/161
f 254/254/254 247/247/247 243/243/243
f 165/165/165 149/149/149 171/171/171
f 246/246/246 252/252/252 240/240/240
f 160/160/160 164/164/164 147/147/147
f 232/232/232 235/235/235 249/249/249
f 233/233/233 251/251/251 238/238/238
f 150/150/150 146/146/146 148/148/148
f 150/150/150 148/148/148 152/152/152
f 172/172/172 149/149/149 151/151/151
f 172/172/172 171/171/171 149/149/149
f 168/168/168 163/163/163 239/239/239
f 168/168/168 239/239/239 245/245/245
f 170/170/170 148/148/148 164/164/164
f 170/170/170 152/152/152 148/148/148
f 247/247/247 169/169/169 243/243/243
f 247/247/247 172/172/172 169/169/169
f 241/241/241 248/248/248 234/234/234
f 241/241/241 253/253/253 248/248/248
f 255/255/255 244/244/244 237/237/237
f 255/255/255 237/237/237 250/250/250
f 255/255/255 248/248/248 253/253/253
f 255/255/255 250/250/250 248/248/248
f 166/166/166 146/146/146 150/150/150
f 166/166/166 161/161/161 146/146/146
f 167/167/167 242/242/242 236/236/236
f 167/167/167 236/236/236 162/162/162
f 246/246/246 171/171/171 172/172/172
f 246/246/246 172/172/172 247/247/247
f 246/246/246 240/240/240 165/165/165
f 246/246/246 165/165/165 171/171/171
f 246/246/246 254/254/254 252/252/252
f 246/246/246 247/247/247 254/254/254
f 160/160/160 147/147/147 145/145/145
f 160/160/160 145/145/145 159/159/159
f 232/232/232 161/161/161 235/235/235
f 232/232/232 159/159/159 161/161/161
f 233/233/233 249/249/249 251/251/251
f 233/233/233 232/232/232 249/249/249
f 233/233/233 238/238/238 164/164/164
f 233/233/233 164/164/164 160/160/160
f 233/233/233 160/160/160 159/159/159
f 233/233/233 159/159/159 232/232/232
f 274/274/274 277/277/277 262/262/262
f 264/264/264 256/256/256 266/266/266
f 300/300/300 293/293/293 289/289/289
f 270/270/270 260/260/260 276/276/276
f 292/292/292 298/298/298 286/286/286
f 265/265/265 269/269/269 258/258/258
f 278/278/278 281/281/281 295/295/295
f 279/279/279 297/297/297 284/284/284
f 261/261/261 257/257/257 259/259/259
f 261/261/261 259/259/259 263/263/263
f 277/277/277 260/260/260 262/262/262
f 277/277/277 276/276/276 260/260/260
f 273/273/273 268/268/268 285/285/285
f 273/273/273 285/285/285 291/291/291
f 275/275/275 259/259/259 269/269/269
f 275/275/275 263/263/263 259/259/259
f 293/293/293 274/274/274 289/289/289
f 293/293/293 277/277/277 274/274/274
f 287/287/287 294/294/294 280/280/280
f 287/287/287 299/299/299 294/294/294
f 301/301/301 290/290/290 283/283/283
f 301/301/301 283/283/283 296/296/296
f 301/301/301 294/294/294 299/299/299
f 301/301/301 296/296/296 294/294/294
f 271/271/271 257/257/257 261/261/261
f 271/271/271 266/266/266 257/257/257
f 272/272/272 288/288/288 282/282/282
f 272/272/272 282/282/282 267/267/267
f 292/292/292 276/276/276 277/277/277
f 292/292/292 277/277/277 293/293/293
f 292/292/292 286/286/286 270/270/270
f 292/292/292 270/270/270 276/276/276
f 292/292/292 300/300/300 298/298/298
f 292/292/292 293/293/293 300/300/300
f 265/265/265 258/258/258 256/256/256
f 265/265/265 256/256/256 264/264/264
f 278/278/278 266/266/266 281/281/281
f 278/278/278 264/264/264 266/266/266
f 279/279/279 295/295/295 297/297/297
f 279/279/279 278/278/278 295/295/295
f 279/279/279 284/284/284 269/269/269
f 279/279/279 269/269/269 265/265/265
f 279/279/279 265/265/265 264/264/264
f 279/279/279 264/264/264 278/278/278
f 320/320/320 323/323/323 308/308/308
f 310/310/310 302/302/302 312/312/312
f 346/346/346 339/339/339 335/335/335
f 316/316/316 306/306/306 322/322/322
f 338/338/338 344/344/344 332/332/332
f 311/311/311 315/315/315 304/304/304
f 324/324/324 327/327/327 341/341/341
f 325/325/325 343/343/343 330/330/330
f 307/307/307 303/303/303 305/305/305
f 307/307/307 305/305/305 309/309/309
f 323/323/323 306/306/306 308/308/308
f 323/323/323 322/322/322 306/306/306
f 319/319/319 314/314/314 331/331/331
f 319/319/319 331/331/331 337/337/337
f 321/321/321 305/305/305 315/315/315
f 321/321/321 309/309/309 305/305/305
f 339/339/339 320/320/320 335/335/335
f 339/339/339 323/323/323 320/320/320
f 333/333/333 340/340/340 326/326/326
f 333/333/333 345/345/345 340/340/340
f 347/347/347 336/336/336 329/329/329
f 347/347/347 329/329/329 342/342/342
f 347/347/347 340/340/340 345/345/345
f 347/347/347 342/342/342 340/340/340
f 317/317/317 303/303/303 307/307/307
f 317/317/317 312/312/312 303/303/303
f 318/318/318 334/334/334 328/328/328
f 318/318/318 328/328/328 313/313/313
f 338/338/338 322/322/322 323/323/323
f 338/338/338 323/323/323 339/339/339
f 338/338/338 332/332/332 316/316/316
f 338/338/338 316/316/316 322/322/322
f 338/338/338 346/346/346 344/344/344
f 338/338/338 339/339/339 346/346/346
f 311/311/311 304/304/304 302/302/302
f 311/311/311 302/302/302 310/310/310
f 324/324/324 312/312/312 327/327/327
f 324/324/324 310/310/310 312/312/312
f 325/325/325 341/341/341 343/343/343
f 325/325/325 324/324/324 341/341/341
f 325/325/325 330/330/330 315/315/315
f 325/325/325 315/315/315 311/311/311
f 325/325/325 311/311/311 310/310/310
f 325/325/325 310/310/310 324/324/324
f 366/366/366 369/369/369 354/354/354
f 356/356/356 348/348/348 358/358/358
f 392/392/392 385/385/385 381/381/381
f 362/362/362 352/352/352 368/368/368
f 384/384/384 390/390/390 378/378/378
f 357/357/357 361/361/361 350/350/350
f 370/370/370 373/373/373 387/387/387
f 371/371/371 389/389/389 376/376/376
f 353/353/353 349/349/349 351/351/351
f 353/353/353 351/351/351 355/355/355
f 369/369/369 352/352/352 354/354/354
f 369/369/369 368/368/368 352/352/352
f 365/365/365 360/360/360 377/377/377
f 365/365/365 377/377/377 383/383/383
f 367/367/367 351/351/351 361/361/361
f 367/367/367 355/355/355 351/351/351
f 385/385/385 366/366/366 381/381/381
f 385/385/385 369/369/369 366/366/366
f 379/379/379 386/386/386 372/372/372
f 379/379/379 391/391/391 386/386/386
f 393/393/393 382/382/382 375/375/375
f 393/393/393 375/375/375 388/388/388
f 393/393/393 386/386/386 391/391/391
f 393/393/393 388/388/388 386/386/386
f 363/363/363 349/349/349 353/353/353
f 363/363/363 358/358/358 349/349/349
f 364/364/364 380/380/380 374/374/374
f 364/364/364 374/374/374 359/359/359
f 384/384/384 368/368/368 369/369/369
f 384/384/384 369/369/369 385/385/385
f 384/384/384 378/378/378 362/362/362
f 384/384/384 362/362/362 368/368/368
f 384/384/384 392/392/392 390/390/390
f 384/384/384 385/385/385 392/392/392
f 357/357/357 350/350/350 348/348/348
f 357/357/357 348/348/348 356/356/356
f 370/370/370 358/358/358 373/373/373
f 370/370/370 356/356/356 358/358/358
f 371/371/371 387/387/387 389/389/389
f 371/371/371 370/370/370 387/387/387
f 371/371/371 376/376/376 361/361/361
f 371/371/371 361/361/361 357/357/357
f 371/371/371 357/357/357 356/356/356
f 371/371/371 356/356/356 370/370/370
f 412/412/412 415/415/415 400/400/400
f 402/402/402 394/394/394 404/404/404
f 438/438/438 431/431/431 427/427/427
f 408/408/408 398/398/398 414/414/414
f 430/430/430 436/436/436 424/424/424
f 403/403/403 407/407/407 396/396/396
f 416/416/416 419/419/419 433/433/433
f 417/417/417 435/435/435 422/422/422
f 399/399/399 395/395/395 397/397/397
f 399/399/399 397/397/397 401/401/401
f 415/415/415 398/398/398 400/400/400
f 415/415/415 414/414/414 398/398/398
f 411/411/411 406/406/406 423/423/423
f 411/411/411 423/423/423 429/429/429
f 413/413/413 397/397/397 407/407/407
f 413/413/413 401/401/401 397/397/397
f 431/431/431 412/412/412 427/427/427
f 431/431/431 415/415/415 412/412/412
f 425/425/425 432/432/432 418/418/418
f 425/425/425 437/437/437 432/432/432
f 439/439/439 428/428/428 421/421/421
f 439/439/439 421/421/421 434/434/434
f 439/439/439 432/432/432 437/437/437
f 439/439/439 434/434/434 432/432/432
f 409/409/409 395/395/395 399/399/399
f 409/409/409 404/404/404 395/395/395
f 410/410/410 426/426/426 420/420/420
f 410/410/410 420/420/420 405/405/405
f 430/430/430 414/414/414 415/415/415
f 430/430/430 415/415/415 431/431/431
f 430/430/430 424/424/424 408/408/408
f 430/430/430 408/408/408 414/414/414
f 430/430/430 438/438/438 436/436/436
f 430/430/430 431/431/431 438/438/438
f 403/403/403 396/396/396 394/394/394
f 403/403/403 394/394/394 402/402/402
f 416/416/416 404/404/404 419/419/419
f 416/416/416 402/402/402 404/404/404
f 417/417/417 433/433/433 435/435/435
f 417/417/417 416/416/416 433/433/433
f 417/417/417 422/422/422 407/407/407
f 417/417/417 407/407/407 403/403/403
f 417/417/417 403/403/403 402/402/402
f 417/417/417 402/402/402 416/416/416
f 458/458/458 461/461/461 446/446/446
f 448/448/448 440/440/440 450/450/450
f 484/484/484 477/477/477 473/473/473
f 454/454/454 444/444/444 460/460/460
f 476/476/476 482/482/482 470/470/470
f 449/449/449 453/453/453 442/442/442
f 462/462/462 465/465/465 479/479/479
f 463/463/463 481/481/481 468/468/468
f 445/445/445 441/441/441 443/443/443
f 445/445/445 443/443/443 447/447/447
f 461/461/461 444/444/444 446/446/446
f 461/461/461 460/460/460 444/444/444
f 457/457/457 452/452/452 469/469/469
f 457/457/457 469/469/469 475/475/475
f 459/459/459 443/443/443 453/453/453
f 459/459/459 447/447/447 443/443/443
f 477/477/477 458/458/458 473/473/473
f 477/477/477 461/461/461 458/458/458
f 471/471/471 478/478/478 464/464/464
f 471/471/471 483/483/483 478/478/478
f 485/485/485 474/474/474 467/467/467
f 485/485/485 467/467/467 480/480/480
f 485/485/485 478/478/478 483/483/483
f 485/485/485 480/480/480 478/478/478
f 455/455/455 441/441/441 445/445/445
f 455/455/455 450/450/450 441/441/441
f 456/456/456 472/472/472 466/466/466
f 456/456/456 466/466/466 451/451/451
f 476/476/476 460/460/460 461/461/461
f 476/476/476 461/461/461 477/477/477
f 476/476/476 470/470/470 454/454/454
f 476/476/476 454/454/454 460/460/460
f 476/476/476 484/484/484 482/482/482
f 476/476/476 477/477/477 484/484/484
f 449/449/449 442/442/442 440/440/440
f 449/449/449 440/440/440 448/448/448
f 462/462/462 450/450/450 465/465/465
f 462/462/462 448/448/448 450/450/450
f 463/463/463 479/479/479 481/481/481
f 463/463/463 462/462/462 479/479/479
f 463/463/463 468/468/468 453/453/453
f 463/463/463 453/453/453 449/449/449
f 463/463/463 449/449/449 448/448/448
f 463/463/463 448/448/448 462/462/462
f 527/527/527 530/530/530 515/515/515
f 517/517/517 509/509/509 519/519/519
f 571/571/571 558/558/558 554/554/554
f 523/523/523 513/513/513 529/529/529
f 557/557/557 569/569/569 551/551/551
f 518/518/518 522/522/522 511/511/511
f 543/543/543 546/546/546 566/566/566
f 544/544/544 568/568/568 549/549/549
f 514/514/514 510/510/510 512/512/512
f 514/514/514 512/512/512 516/516/516
f 530/530/530 513/513/513 515/515/515
f 530/530/530 529/529/529 513/513/513
f 526/526/526 521/521/521 550/550/550
f 526/526/526 550/550/550 556/556/556
f 528/528/528 512/512/512 522/522/522
f 528/528/528 516/516/516 512/512/512
f 558/558/558 527/527/527 554/554/554
f 558/558/558 530/530/530 527/527/527
f 552/552/552 565/565/565 545/545/545
f 552/552/552 570/570/570 565/565/565
f 572/572/572 555/555/555 548/548/548
f 572/572/572 548/548/548 567/567/567
f 572/572/572 565/565/565 570/570/570
f 572/572/572 567/567/567 565/565/565
f 524/524/524 510/510/510 514/514/514
f 524/524/524 519/519/519 510/510/510
f 525/525/525 553/553/553 547/547/547
f 525/525/525 547/547/547 520/520/520
f 557/557/557 529/529/529 530/530/530
f 557/557/557 530/530/530 558/558/558
f 557/557/557 551/551/551 523/523/523
f 557/557/557 523/523/523 529/529/529
f 557/557/557 571/571/571 569/569/569
f 557/557/557 558/558/558 571/571/571
f 518/518/518 511/511/511 509/509/509
f 518/518/518 509/509/509 517/517/517
f 543/543/543 519/519/519 546/546/546
f 543/543/543 517/517/517 519/519/519
f 544/544/544 566/566/566 568/568/568
f 544/544/544 543/543/543 566/566/566
f 544/544/544 549/549/549 522/522/522
f 544/544/544 522/522/522 518/518/518
f 544/544/544 518/518/518 517/517/517
f 544/544/544 517/517/517 543/543/543
f 222/222/222 173/173/173 218/218/218
f 532/532/532 536/536/536 541/541/541
f 158/158/158 154/154/154 142/142/142
f 538/538/538 533/533/533 531/531/531
f 155/155/155 139/139/139 153/153/153
f 223/223/223 221/221/221 176/176/176
f 563/563/563 559/559/559 586/586/586
f 564/564/564 589/589/589 562/562/562
f 140/140/140 174/174/174 177/177/177
f 140/140/140 177/177/177 143/143/143
f 154/154/154 139/139/139 142/142/142
f 154/154/154 153/153/153 139/139/139
f 532/532/532 153/153/153 154/154/154
f 532/532/532 531/531/531 153/153/153
f 157/157/157 144/144/144 175/175/175
f 157/157/157 175/175/175 220/220/220
f 157/157/157 220/220/220 561/561/561
f 157/157/157 561/561/561 535/535/535
f 158/158/158 532/532/532 154/154/154
f 158/158/158 536/536/536 532/532/532
f 587/587/587 535/535/535 561/561/561
f 587/587/587 542/542/542 535/535/535
f 537/537/537 540/540/540 588/588/588
f 537/537/537 588/588/588 585/585/585
f 539/539/539 586/586/586 560/560/560
f 539/539/539 560/560/560 534/534/534
f 538/538/538 531/531/531 532/532/532
f 538/538/538 532/532/532 541/541/541
f 155/155/155 153/153/153 531/531/531
f 155/155/155 531/531/531 533/533/533
f 156/156/156 534/534/534 560/560/560
f 156/156/156 560/560/560 219/219/219
f 156/156/156 173/173/173 141/141/141
f 156/156/156 219/219/219 173/173/173
f 223/223/223 176/176/176 173/173/173
f 223/223/223 173/173/173 222/222/222
f 563/563/563 218/218/218 559/559/559
f 563/563/563 222/222/222 218/218/218
f 564/564/564 586/586/586 589/589/589
f 564/564/564 563/563/563 586/586/586
f 564/564/564 562/562/562 221/221/221
f 564/564/564 221/221/221 223/223/223
f 564/564/564 223/223/223 222/222/222
f 564/564/564 222/222/222 563/563/563
