# metres; Y up; ground-centred pivot
mtllib 14_Bolardo.mtl
v -0.1600000 0.0000000 0.0000000
v -0.1600000 0.0000000 0.0000000
v -0.1600000 0.0800000 0.0000000
v -0.1600000 0.0800000 0.0000000
v -0.1521690 0.0000000 -0.0494427
v -0.1521690 0.0000000 -0.0494427
v -0.1521690 0.0000000 0.0494427
v -0.1521690 0.0000000 0.0494427
v -0.1521690 0.0800000 -0.0494427
v -0.1521690 0.0800000 -0.0494427
v -0.1521690 0.0800000 0.0494427
v -0.1521690 0.0800000 0.0494427
v -0.1500000 0.8000000 0.0000000
v -0.1500000 0.8500000 0.0000000
v -0.1500000 0.8500000 0.0000000
v -0.1426585 0.8000000 -0.0463525
v -0.1426585 0.8000000 0.0463525
v -0.1426585 0.8500000 -0.0463525
v -0.1426585 0.8500000 -0.0463525
v -0.1426585 0.8500000 0.0463525
v -0.1426585 0.8500000 0.0463525
v -0.1294427 0.0000000 -0.0940456
v -0.1294427 0.0000000 -0.0940456
v -0.1294427 0.0000000 0.0940456
v -0.1294427 0.0000000 0.0940456
v -0.1294427 0.0800000 -0.0940456
v -0.1294427 0.0800000 -0.0940456
v -0.1294427 0.0800000 0.0940456
v -0.1294427 0.0800000 0.0940456
v -0.1213525 0.8000000 -0.0881678
v -0.1213525 0.8000000 0.0881678
v -0.1213525 0.8500000 -0.0881678
v -0.1213525 0.8500000 -0.0881678
v -0.1213525 0.8500000 0.0881678
v -0.1213525 0.8500000 0.0881678
v -0.1120000 0.1475000 0.0000000
v -0.1120000 0.1475000 0.0000000
v -0.1120000 0.2125000 0.0000000
v -0.1120000 0.2125000 0.0000000
v -0.1098480 0.1475000 -0.0218501
v -0.1098480 0.1475000 -0.0218501
v -0.1098480 0.1475000 0.0218501
v -0.1098480 0.1475000 0.0218501
v -0.1098480 0.2125000 -0.0218501
v -0.1098480 0.2125000 -0.0218501
v -0.1098480 0.2125000 0.0218501
v -0.1098480 0.2125000 0.0218501
v -0.1034745 0.1475000 -0.0428605
v -0.1034745 0.1475000 -0.0428605
v -0.1034745 0.1475000 0.0428605
v -0.1034745 0.1475000 0.0428605
v -0.1034745 0.2125000 -0.0428605
v -0.1034745 0.2125000 -0.0428605
v -0.1034745 0.2125000 0.0428605
v -0.1034745 0.2125000 0.0428605
v -0.1000000 0.1000000 0.0000000
v -0.1000000 0.1000000 0.0000000
v -0.1000000 0.7500000 0.0000000
v -0.0970000 0.1475000 0.0000000
v -0.0970000 0.1475000 0.0000000
v -0.0970000 0.2125000 0.0000000
v -0.0970000 0.2125000 0.0000000
v -0.0951362 0.1475000 -0.0189238
v -0.0951362 0.1475000 -0.0189238
v -0.0951362 0.1475000 0.0189238
v -0.0951362 0.1475000 0.0189238
v -0.0951362 0.2125000 -0.0189238
v -0.0951362 0.2125000 -0.0189238
v -0.0951362 0.2125000 0.0189238
v -0.0951362 0.2125000 0.0189238
v -0.0951057 0.1000000 -0.0309017
v -0.0951057 0.1000000 -0.0309017
v -0.0951057 0.1000000 0.0309017
v -0.0951057 0.1000000 0.0309017
v -0.0951057 0.7500000 -0.0309017
v -0.0951057 0.7500000 0.0309017
v -0.0940456 0.0000000 -0.1294427
v -0.0940456 0.0000000 -0.1294427
v -0.0940456 0.0000000 0.1294427
v -0.0940456 0.0000000 0.1294427
v -0.0940456 0.0800000 -0.1294427
v -0.0940456 0.0800000 -0.1294427
v -0.0940456 0.0800000 0.1294427
v -0.0940456 0.0800000 0.1294427
v -0.0931246 0.1475000 -0.0622239
v -0.0931246 0.1475000 -0.0622239
v -0.0931246 0.1475000 0.0622239
v -0.0931246 0.1475000 0.0622239
v -0.0931246 0.2125000 -0.0622239
v -0.0931246 0.2125000 -0.0622239
v -0.0931246 0.2125000 0.0622239
v -0.0931246 0.2125000 0.0622239
v -0.0896163 0.1475000 -0.0371203
v -0.0896163 0.1475000 -0.0371203
v -0.0896163 0.1475000 0.0371203
v -0.0896163 0.1475000 0.0371203
v -0.0896163 0.2125000 -0.0371203
v -0.0896163 0.2125000 -0.0371203
v -0.0896163 0.2125000 0.0371203
v -0.0896163 0.2125000 0.0371203
v -0.0881678 0.8000000 -0.1213525
v -0.0881678 0.8000000 0.1213525
v -0.0881678 0.8500000 -0.1213525
v -0.0881678 0.8500000 -0.1213525
v -0.0881678 0.8500000 0.1213525
v -0.0881678 0.8500000 0.1213525
v -0.0809017 0.1000000 -0.0587785
v -0.0809017 0.1000000 -0.0587785
v -0.0809017 0.1000000 0.0587785
v -0.0809017 0.1000000 0.0587785
v -0.0809017 0.7500000 -0.0587785
v -0.0809017 0.7500000 0.0587785
v -0.0806526 0.1475000 -0.0538903
v -0.0806526 0.1475000 -0.0538903
v -0.0806526 0.1475000 0.0538903
v -0.0806526 0.1475000 0.0538903
v -0.0806526 0.2125000 -0.0538903
v -0.0806526 0.2125000 -0.0538903
v -0.0806526 0.2125000 0.0538903
v -0.0806526 0.2125000 0.0538903
v -0.0791960 0.1475000 -0.0791960
v -0.0791960 0.1475000 -0.0791960
v -0.0791960 0.1475000 0.0791960
v -0.0791960 0.1475000 0.0791960
v -0.0791960 0.2125000 -0.0791960
v -0.0791960 0.2125000 -0.0791960
v -0.0791960 0.2125000 0.0791960
v -0.0791960 0.2125000 0.0791960
v -0.0685894 0.1475000 -0.0685894
v -0.0685894 0.1475000 -0.0685894
v -0.0685894 0.1475000 0.0685894
v -0.0685894 0.1475000 0.0685894
v -0.0685894 0.2125000 -0.0685894
v -0.0685894 0.2125000 -0.0685894
v -0.0685894 0.2125000 0.0685894
v -0.0685894 0.2125000 0.0685894
v -0.0622239 0.1475000 -0.0931246
v -0.0622239 0.1475000 -0.0931246
v -0.0622239 0.1475000 0.0931246
v -0.0622239 0.1475000 0.0931246
v -0.0622239 0.2125000 -0.0931246
v -0.0622239 0.2125000 -0.0931246
v -0.0622239 0.2125000 0.0931246
v -0.0622239 0.2125000 0.0931246
v -0.0587785 0.1000000 -0.0809017
v -0.0587785 0.1000000 -0.0809017
v -0.0587785 0.1000000 0.0809017
v -0.0587785 0.1000000 0.0809017
v -0.0587785 0.7500000 -0.0809017
v -0.0587785 0.7500000 0.0809017
v -0.0538903 0.1475000 -0.0806526
v -0.0538903 0.1475000 -0.0806526
v -0.0538903 0.1475000 0.0806526
v -0.0538903 0.1475000 0.0806526
v -0.0538903 0.2125000 -0.0806526
v -0.0538903 0.2125000 -0.0806526
v -0.0538903 0.2125000 0.0806526
v -0.0538903 0.2125000 0.0806526
v -0.0494427 0.0000000 -0.1521690
v -0.0494427 0.0000000 -0.1521690
v -0.0494427 0.0000000 0.1521690
v -0.0494427 0.0000000 0.1521690
v -0.0494427 0.0800000 -0.1521690
v -0.0494427 0.0800000 -0.1521690
v -0.0494427 0.0800000 0.1521690
v -0.0494427 0.0800000 0.1521690
v -0.0463525 0.8000000 -0.1426585
v -0.0463525 0.8000000 0.1426585
v -0.0463525 0.8500000 -0.1426585
v -0.0463525 0.8500000 -0.1426585
v -0.0463525 0.8500000 0.1426585
v -0.0463525 0.8500000 0.1426585
v -0.0428605 0.1475000 -0.1034745
v -0.0428605 0.1475000 -0.1034745
v -0.0428605 0.1475000 0.1034745
v -0.0428605 0.1475000 0.1034745
v -0.0428605 0.2125000 -0.1034745
v -0.0428605 0.2125000 -0.1034745
v -0.0428605 0.2125000 0.1034745
v -0.0428605 0.2125000 0.1034745
v -0.0371203 0.1475000 -0.0896163
v -0.0371203 0.1475000 -0.0896163
v -0.0371203 0.1475000 0.0896163
v -0.0371203 0.1475000 0.0896163
v -0.0371203 0.2125000 -0.0896163
v -0.0371203 0.2125000 -0.0896163
v -0.0371203 0.2125000 0.0896163
v -0.0371203 0.2125000 0.0896163
v -0.0309017 0.1000000 -0.0951057
v -0.0309017 0.1000000 -0.0951057
v -0.0309017 0.1000000 0.0951057
v -0.0309017 0.1000000 0.0951057
v -0.0309017 0.7500000 -0.0951057
v -0.0309017 0.7500000 0.0951057
v -0.0218501 0.1475000 -0.1098480
v -0.0218501 0.1475000 -0.1098480
v -0.0218501 0.1475000 0.1098480
v -0.0218501 0.1475000 0.1098480
v -0.0218501 0.2125000 -0.1098480
v -0.0218501 0.2125000 -0.1098480
v -0.0218501 0.2125000 0.1098480
v -0.0218501 0.2125000 0.1098480
v -0.0189238 0.1475000 -0.0951362
v -0.0189238 0.1475000 -0.0951362
v -0.0189238 0.1475000 0.0951362
v -0.0189238 0.1475000 0.0951362
v -0.0189238 0.2125000 -0.0951362
v -0.0189238 0.2125000 -0.0951362
v -0.0189238 0.2125000 0.0951362
v -0.0189238 0.2125000 0.0951362
v -0.0000000 0.0000000 -0.1600000
v -0.0000000 0.0000000 -0.1600000
v 0.0000000 0.0000000 0.0000000
v 0.0000000 0.0000000 0.1600000
v 0.0000000 0.0000000 0.1600000
v -0.0000000 0.0800000 -0.1600000
v -0.0000000 0.0800000 -0.1600000
v 0.0000000 0.0800000 0.1600000
v 0.0000000 0.0800000 0.1600000
v -0.0000000 0.1000000 -0.1000000
v -0.0000000 0.1000000 -0.1000000
v 0.0000000 0.1000000 0.1000000
v 0.0000000 0.1000000 0.1000000
v -0.0000000 0.1475000 -0.1120000
v -0.0000000 0.1475000 -0.1120000
v -0.0000000 0.1475000 -0.0970000
v -0.0000000 0.1475000 -0.0970000
v 0.0000000 0.1475000 0.0970000
v 0.0000000 0.1475000 0.0970000
v 0.0000000 0.1475000 0.1120000
v 0.0000000 0.1475000 0.1120000
v -0.0000000 0.2125000 -0.1120000
v -0.0000000 0.2125000 -0.1120000
v -0.0000000 0.2125000 -0.0970000
v -0.0000000 0.2125000 -0.0970000
v 0.0000000 0.2125000 0.0970000
v 0.0000000 0.2125000 0.0970000
v 0.0000000 0.2125000 0.1120000
v 0.0000000 0.2125000 0.1120000
v -0.0000000 0.7500000 -0.1000000
v 0.0000000 0.7500000 0.1000000
v -0.0000000 0.8000000 -0.1500000
v 0.0000000 0.8000000 0.1500000
v -0.0000000 0.8500000 -0.1500000
v -0.0000000 0.8500000 -0.1500000
v 0.0000000 0.8500000 0.1500000
v 0.0000000 0.8500000 0.1500000
v 0.0000000 0.8800000 0.0000000
v 0.0000000 0.8800000 0.0000000
v 0.0000000 0.8800000 0.0000000
v 0.0000000 0.8800000 0.0000000
v 0.0000000 0.8800000 0.0000000
v 0.0000000 0.8800000 0.0000000
v 0.0000000 0.8800000 0.0000000
v 0.0000000 0.8800000 0.0000000
v 0.0000000 0.8800000 0.0000000
v 0.0000000 0.8800000 0.0000000
v 0.0000000 0.8800000 0.0000000
v 0.0000000 0.8800000 0.0000000
v 0.0000000 0.8800000 0.0000000
v 0.0000000 0.8800000 0.0000000
v 0.0000000 0.8800000 0.0000000
v 0.0000000 0.8800000 0.0000000
v 0.0000000 0.8800000 0.0000000
v 0.0000000 0.8800000 0.0000000
v 0.0000000 0.8800000 0.0000000
v 0.0000000 0.8800000 0.0000000
v 0.0189238 0.1475000 -0.0951362
v 0.0189238 0.1475000 -0.0951362
v 0.0189238 0.1475000 0.0951362
v 0.0189238 0.1475000 0.0951362
v 0.0189238 0.2125000 -0.0951362
v 0.0189238 0.2125000 -0.0951362
v 0.0189238 0.2125000 0.0951362
v 0.0189238 0.2125000 0.0951362
v 0.0218501 0.1475000 -0.1098480
v 0.0218501 0.1475000 -0.1098480
v 0.0218501 0.1475000 0.1098480
v 0.0218501 0.1475000 0.1098480
v 0.0218501 0.2125000 -0.1098480
v 0.0218501 0.2125000 -0.1098480
v 0.0218501 0.2125000 0.1098480
v 0.0218501 0.2125000 0.1098480
v 0.0309017 0.1000000 -0.0951057
v 0.0309017 0.1000000 -0.0951057
v 0.0309017 0.1000000 0.0951057
v 0.0309017 0.1000000 0.0951057
v 0.0309017 0.7500000 -0.0951057
v 0.0309017 0.7500000 0.0951057
v 0.0371203 0.1475000 -0.0896163
v 0.0371203 0.1475000 -0.0896163
v 0.0371203 0.1475000 0.0896163
v 0.0371203 0.1475000 0.0896163
v 0.0371203 0.2125000 -0.0896163
v 0.0371203 0.2125000 -0.0896163
v 0.0371203 0.2125000 0.0896163
v 0.0371203 0.2125000 0.0896163
v 0.0428605 0.1475000 -0.1034745
v 0.0428605 0.1475000 -0.1034745
v 0.0428605 0.1475000 0.1034745
v 0.0428605 0.1475000 0.1034745
v 0.0428605 0.2125000 -0.1034745
v 0.0428605 0.2125000 -0.1034745
v 0.0428605 0.2125000 0.1034745
v 0.0428605 0.2125000 0.1034745
v 0.0463525 0.8000000 -0.1426585
v 0.0463525 0.8000000 0.1426585
v 0.0463525 0.8500000 -0.1426585
v 0.0463525 0.8500000 -0.1426585
v 0.0463525 0.8500000 0.1426585
v 0.0463525 0.8500000 0.1426585
v 0.0494427 0.0000000 -0.1521690
v 0.0494427 0.0000000 -0.1521690
v 0.0494427 0.0000000 0.1521690
v 0.0494427 0.0000000 0.1521690
v 0.0494427 0.0800000 -0.1521690
v 0.0494427 0.0800000 -0.1521690
v 0.0494427 0.0800000 0.1521690
v 0.0494427 0.0800000 0.1521690
v 0.0538903 0.1475000 -0.0806526
v 0.0538903 0.1475000 -0.0806526
v 0.0538903 0.1475000 0.0806526
v 0.0538903 0.1475000 0.0806526
v 0.0538903 0.2125000 -0.0806526
v 0.0538903 0.2125000 -0.0806526
v 0.0538903 0.2125000 0.0806526
v 0.0538903 0.2125000 0.0806526
v 0.0587785 0.1000000 -0.0809017
v 0.0587785 0.1000000 -0.0809017
v 0.0587785 0.1000000 0.0809017
v 0.0587785 0.1000000 0.0809017
v 0.0587785 0.7500000 -0.0809017
v 0.0587785 0.7500000 0.0809017
v 0.0622239 0.1475000 -0.0931246
v 0.0622239 0.1475000 -0.0931246
v 0.0622239 0.1475000 0.0931246
v 0.0622239 0.1475000 0.0931246
v 0.0622239 0.2125000 -0.0931246
v 0.0622239 0.2125000 -0.0931246
v 0.0622239 0.2125000 0.0931246
v 0.0622239 0.2125000 0.0931246
v 0.0685894 0.1475000 -0.0685894
v 0.0685894 0.1475000 -0.0685894
v 0.0685894 0.1475000 0.0685894
v 0.0685894 0.1475000 0.0685894
v 0.0685894 0.2125000 -0.0685894
v 0.0685894 0.2125000 -0.0685894
v 0.0685894 0.2125000 0.0685894
v 0.0685894 0.2125000 0.0685894
v 0.0791960 0.1475000 -0.0791960
v 0.0791960 0.1475000 -0.0791960
v 0.0791960 0.1475000 0.0791960
v 0.0791960 0.1475000 0.0791960
v 0.0791960 0.2125000 -0.0791960
v 0.0791960 0.2125000 -0.0791960
v 0.0791960 0.2125000 0.0791960
v 0.0791960 0.2125000 0.0791960
v 0.0806526 0.1475000 -0.0538903
v 0.0806526 0.1475000 -0.0538903
v 0.0806526 0.1475000 0.0538903
v 0.0806526 0.1475000 0.0538903
v 0.0806526 0.2125000 -0.0538903
v 0.0806526 0.2125000 -0.0538903
v 0.0806526 0.2125000 0.0538903
v 0.0806526 0.2125000 0.0538903
v 0.0809017 0.1000000 -0.0587785
v 0.0809017 0.1000000 -0.0587785
v 0.0809017 0.1000000 0.0587785
v 0.0809017 0.1000000 0.0587785
v 0.0809017 0.7500000 -0.0587785
v 0.0809017 0.7500000 0.0587785
v 0.0881678 0.8000000 -0.1213525
v 0.0881678 0.8000000 0.1213525
v 0.0881678 0.8500000 -0.1213525
v 0.0881678 0.8500000 -0.1213525
v 0.0881678 0.8500000 0.1213525
v 0.0881678 0.8500000 0.1213525
v 0.0896163 0.1475000 -0.0371203
v 0.0896163 0.1475000 -0.0371203
v 0.0896163 0.1475000 0.0371203
v 0.0896163 0.1475000 0.0371203
v 0.0896163 0.2125000 -0.0371203
v 0.0896163 0.2125000 -0.0371203
v 0.0896163 0.2125000 0.0371203
v 0.0896163 0.2125000 0.0371203
v 0.0931246 0.1475000 -0.0622239
v 0.0931246 0.1475000 -0.0622239
v 0.0931246 0.1475000 0.0622239
v 0.0931246 0.1475000 0.0622239
v 0.0931246 0.2125000 -0.0622239
v 0.0931246 0.2125000 -0.0622239
v 0.0931246 0.2125000 0.0622239
v 0.0931246 0.2125000 0.0622239
v 0.0940456 0.0000000 -0.1294427
v 0.0940456 0.0000000 -0.1294427
v 0.0940456 0.0000000 0.1294427
v 0.0940456 0.0000000 0.1294427
v 0.0940456 0.0800000 -0.1294427
v 0.0940456 0.0800000 -0.1294427
v 0.0940456 0.0800000 0.1294427
v 0.0940456 0.0800000 0.1294427
v 0.0951057 0.1000000 -0.0309017
v 0.0951057 0.1000000 -0.0309017
v 0.0951057 0.1000000 0.0309017
v 0.0951057 0.1000000 0.0309017
v 0.0951057 0.7500000 -0.0309017
v 0.0951057 0.7500000 0.0309017
v 0.0951362 0.1475000 -0.0189238
v 0.0951362 0.1475000 -0.0189238
v 0.0951362 0.1475000 0.0189238
v 0.0951362 0.1475000 0.0189238
v 0.0951362 0.2125000 -0.0189238
v 0.0951362 0.2125000 -0.0189238
v 0.0951362 0.2125000 0.0189238
v 0.0951362 0.2125000 0.0189238
v 0.0970000 0.1475000 0.0000000
v 0.0970000 0.1475000 -0.0000000
v 0.0970000 0.1475000 0.0000000
v 0.0970000 0.2125000 0.0000000
v 0.0970000 0.2125000 -0.0000000
v 0.0970000 0.2125000 0.0000000
v 0.1000000 0.1000000 0.0000000
v 0.1000000 0.1000000 -0.0000000
v 0.1000000 0.1000000 0.0000000
v 0.1000000 0.1000000 -0.0000000
v 0.1000000 0.7500000 0.0000000
v 0.1000000 0.7500000 -0.0000000
v 0.1034745 0.1475000 -0.0428605
v 0.1034745 0.1475000 -0.0428605
v 0.1034745 0.1475000 0.0428605
v 0.1034745 0.1475000 0.0428605
v 0.1034745 0.2125000 -0.0428605
v 0.1034745 0.2125000 -0.0428605
v 0.1034745 0.2125000 0.0428605
v 0.1034745 0.2125000 0.0428605
v 0.1098480 0.1475000 -0.0218501
v 0.1098480 0.1475000 -0.0218501
v 0.1098480 0.1475000 0.0218501
v 0.1098480 0.1475000 0.0218501
v 0.1098480 0.2125000 -0.0218501
v 0.1098480 0.2125000 -0.0218501
v 0.1098480 0.2125000 0.0218501
v 0.1098480 0.2125000 0.0218501
v 0.1120000 0.1475000 0.0000000
v 0.1120000 0.1475000 0.0000000
v 0.1120000 0.1475000 -0.0000000
v 0.1120000 0.2125000 -0.0000000
v 0.1120000 0.2125000 0.0000000
v 0.1120000 0.2125000 -0.0000000
v 0.1213525 0.8000000 -0.0881678
v 0.1213525 0.8000000 0.0881678
v 0.1213525 0.8500000 -0.0881678
v 0.1213525 0.8500000 -0.0881678
v 0.1213525 0.8500000 0.0881678
v 0.1213525 0.8500000 0.0881678
v 0.1294427 0.0000000 -0.0940456
v 0.1294427 0.0000000 -0.0940456
v 0.1294427 0.0000000 0.0940456
v 0.1294427 0.0000000 0.0940456
v 0.1294427 0.0800000 -0.0940456
v 0.1294427 0.0800000 -0.0940456
v 0.1294427 0.0800000 0.0940456
v 0.1294427 0.0800000 0.0940456
v 0.1426585 0.8000000 -0.0463525
v 0.1426585 0.8000000 0.0463525
v 0.1426585 0.8500000 -0.0463525
v 0.1426585 0.8500000 -0.0463525
v 0.1426585 0.8500000 0.0463525
v 0.1426585 0.8500000 0.0463525
v 0.1500000 0.8000000 0.0000000
v 0.1500000 0.8000000 -0.0000000
v 0.1500000 0.8500000 0.0000000
v 0.1500000 0.8500000 -0.0000000
v 0.1500000 0.8500000 0.0000000
v 0.1500000 0.8500000 -0.0000000
v 0.1521690 0.0000000 -0.0494427
v 0.1521690 0.0000000 -0.0494427
v 0.1521690 0.0000000 0.0494427
v 0.1521690 0.0000000 0.0494427
v 0.1521690 0.0800000 -0.0494427
v 0.1521690 0.0800000 -0.0494427
v 0.1521690 0.0800000 0.0494427
v 0.1521690 0.0800000 0.0494427
v 0.1600000 0.0000000 0.0000000
v 0.1600000 0.0000000 0.0000000
v 0.1600000 0.0000000 -0.0000000
v 0.1600000 0.0800000 0.0000000
v 0.1600000 0.0800000 -0.0000000
v 0.1600000 0.0800000 0.0000000
v 0.1600000 0.0800000 -0.0000000
vt 0.5000000 0.0000000
vt 0.0000000 0.5000000
vt 0.5000000 0.0500000
vt 0.5000000 0.0500000
vt 0.5500000 0.0000000
vt 0.0244717 0.3454915
vt 0.4500000 0.0000000
vt 0.0244717 0.6545085
vt 0.5500000 0.0500000
vt 0.5500000 0.0500000
vt 0.4500000 0.0500000
vt 0.4500000 0.0500000
vt 0.5000000 0.5000000
vt 0.5000000 0.5312500
vt 0.5000000 0.5312500
vt 0.5500000 0.5000000
vt 0.4500000 0.5000000
vt 0.5500000 0.5312500
vt 0.5500000 0.5312500
vt 0.4500000 0.5312500
vt 0.4500000 0.5312500
vt 0.6000000 0.0000000
vt 0.0954915 0.2061074
vt 0.4000000 0.0000000
vt 0.0954915 0.7938926
vt 0.6000000 0.0500000
vt 0.6000000 0.0500000
vt 0.4000000 0.0500000
vt 0.4000000 0.0500000
vt 0.6000000 0.5000000
vt 0.4000000 0.5000000
vt 0.6000000 0.5312500
vt 0.6000000 0.5312500
vt 0.4000000 0.5312500
vt 0.4000000 0.5312500
vt 0.5000000 -0.0203125
vt 0.0000000 0.5000000
vt 0.5000000 0.0203125
vt 0.0000000 0.5000000
vt 0.5312500 -0.0203125
vt 0.0096074 0.4024548
vt 0.4687500 -0.0203125
vt 0.0096074 0.5975452
vt 0.5312500 0.0203125
vt 0.0096074 0.4024548
vt 0.4687500 0.0203125
vt 0.0096074 0.5975452
vt 0.5625000 -0.0203125
vt 0.0380602 0.3086583
vt 0.4375000 -0.0203125
vt 0.0380602 0.6913417
vt 0.5625000 0.0203125
vt 0.0380602 0.3086583
vt 0.4375000 0.0203125
vt 0.0380602 0.6913417
vt 0.5000000 0.0625000
vt 0.5000000 0.0625000
vt 0.5000000 0.4687500
vt 0.0669643 0.5000000
vt 0.5000000 -0.0203125
vt 0.0669643 0.5000000
vt 0.5000000 0.0203125
vt 0.0752849 0.4155189
vt 0.5312500 -0.0203125
vt 0.0752849 0.5844811
vt 0.4687500 -0.0203125
vt 0.0752849 0.4155189
vt 0.5312500 0.0203125
vt 0.0752849 0.5844811
vt 0.4687500 0.0203125
vt 0.5500000 0.0625000
vt 0.5500000 0.0625000
vt 0.4500000 0.0625000
vt 0.4500000 0.0625000
vt 0.5500000 0.4687500
vt 0.4500000 0.4687500
vt 0.6500000 0.0000000
vt 0.2061074 0.0954915
vt 0.3500000 0.0000000
vt 0.2061074 0.9045085
vt 0.6500000 0.0500000
vt 0.6500000 0.0500000
vt 0.3500000 0.0500000
vt 0.3500000 0.0500000
vt 0.5937500 -0.0203125
vt 0.0842652 0.2222149
vt 0.4062500 -0.0203125
vt 0.0842652 0.7777851
vt 0.5937500 0.0203125
vt 0.0842652 0.2222149
vt 0.4062500 0.0203125
vt 0.0842652 0.7777851
vt 0.0999272 0.3342844
vt 0.5625000 -0.0203125
vt 0.0999272 0.6657156
vt 0.4375000 -0.0203125
vt 0.0999272 0.3342844
vt 0.5625000 0.0203125
vt 0.0999272 0.6657156
vt 0.4375000 0.0203125
vt 0.6500000 0.5000000
vt 0.3500000 0.5000000
vt 0.6500000 0.5312500
vt 0.6500000 0.5312500
vt 0.3500000 0.5312500
vt 0.3500000 0.5312500
vt 0.6000000 0.0625000
vt 0.6000000 0.0625000
vt 0.4000000 0.0625000
vt 0.4000000 0.0625000
vt 0.6000000 0.4687500
vt 0.4000000 0.4687500
vt 0.1399440 0.2594182
vt 0.5937500 -0.0203125
vt 0.1399440 0.7405818
vt 0.4062500 -0.0203125
vt 0.1399440 0.2594182
vt 0.5937500 0.0203125
vt 0.1399440 0.7405818
vt 0.4062500 0.0203125
vt 0.6250000 -0.0203125
vt 0.1464466 0.1464466
vt 0.3750000 -0.0203125
vt 0.1464466 0.8535534
vt 0.6250000 0.0203125
vt 0.1464466 0.1464466
vt 0.3750000 0.0203125
vt 0.1464466 0.8535534
vt 0.1937975 0.1937975
vt 0.6250000 -0.0203125
vt 0.1937975 0.8062025
vt 0.3750000 -0.0203125
vt 0.1937975 0.1937975
vt 0.6250000 0.0203125
vt 0.1937975 0.8062025
vt 0.3750000 0.0203125
vt 0.6562500 -0.0203125
vt 0.2222149 0.0842652
vt 0.3437500 -0.0203125
vt 0.2222149 0.9157348
vt 0.6562500 0.0203125
vt 0.2222149 0.0842652
vt 0.3437500 0.0203125
vt 0.2222149 0.9157348
vt 0.6500000 0.0625000
vt 0.6500000 0.0625000
vt 0.3500000 0.0625000
vt 0.3500000 0.0625000
vt 0.6500000 0.4687500
vt 0.3500000 0.4687500
vt 0.2594182 0.1399440
vt 0.6562500 -0.0203125
vt 0.2594182 0.8600560
vt 0.3437500 -0.0203125
vt 0.2594182 0.1399440
vt 0.6562500 0.0203125
vt 0.2594182 0.8600560
vt 0.3437500 0.0203125
vt 0.7000000 0.0000000
vt 0.3454915 0.0244717
vt 0.3000000 0.0000000
vt 0.3454915 0.9755283
vt 0.7000000 0.0500000
vt 0.7000000 0.0500000
vt 0.3000000 0.0500000
vt 0.3000000 0.0500000
vt 0.7000000 0.5000000
vt 0.3000000 0.5000000
vt 0.7000000 0.5312500
vt 0.7000000 0.5312500
vt 0.3000000 0.5312500
vt 0.3000000 0.5312500
vt 0.6875000 -0.0203125
vt 0.3086583 0.0380602
vt 0.3125000 -0.0203125
vt 0.3086583 0.9619398
vt 0.6875000 0.0203125
vt 0.3086583 0.0380602
vt 0.3125000 0.0203125
vt 0.3086583 0.9619398
vt 0.3342844 0.0999272
vt 0.6875000 -0.0203125
vt 0.3342844 0.9000728
vt 0.3125000 -0.0203125
vt 0.3342844 0.0999272
vt 0.6875000 0.0203125
vt 0.3342844 0.9000728
vt 0.3125000 0.0203125
vt 0.7000000 0.0625000
vt 0.7000000 0.0625000
vt 0.3000000 0.0625000
vt 0.3000000 0.0625000
vt 0.7000000 0.4687500
vt 0.3000000 0.4687500
vt 0.7187500 -0.0203125
vt 0.4024548 0.0096074
vt 0.2812500 -0.0203125
vt 0.4024548 0.9903926
vt 0.7187500 0.0203125
vt 0.4024548 0.0096074
vt 0.2812500 0.0203125
vt 0.4024548 0.9903926
vt 0.4155189 0.0752849
vt 0.7187500 -0.0203125
vt 0.4155189 0.9247151
vt 0.2812500 -0.0203125
vt 0.4155189 0.0752849
vt 0.7187500 0.0203125
vt 0.4155189 0.9247151
vt 0.2812500 0.0203125
vt 0.5000000 0.0000000
vt 0.7500000 0.0000000
vt 0.5000000 0.5000000
vt 0.5000000 1.0000000
vt 0.2500000 0.0000000
vt 0.7500000 0.0500000
vt 0.7500000 0.0500000
vt 0.2500000 0.0500000
vt 0.2500000 0.0500000
vt 0.7500000 0.0625000
vt 0.7500000 0.0625000
vt 0.2500000 0.0625000
vt 0.2500000 0.0625000
vt 0.5000000 0.0000000
vt 0.7500000 -0.0203125
vt 0.5000000 0.0669643
vt 0.7500000 -0.0203125
vt 0.5000000 0.9330357
vt 0.2500000 -0.0203125
vt 0.5000000 1.0000000
vt 0.2500000 -0.0203125
vt 0.7500000 0.0203125
vt 0.5000000 0.0000000
vt 0.7500000 0.0203125
vt 0.5000000 0.0669643
vt 0.2500000 0.0203125
vt 0.5000000 0.9330357
vt 0.2500000 0.0203125
vt 0.5000000 1.0000000
vt 0.7500000 0.4687500
vt 0.2500000 0.4687500
vt 0.7500000 0.5000000
vt 0.2500000 0.5000000
vt 0.7500000 0.5312500
vt 0.7500000 0.5312500
vt 0.2500000 0.5312500
vt 0.2500000 0.5312500
vt 0.5000000 0.5500000
vt 0.5500000 0.5500000
vt 0.4500000 0.5500000
vt 0.6000000 0.5500000
vt 0.4000000 0.5500000
vt 0.6500000 0.5500000
vt 0.3500000 0.5500000
vt 0.7000000 0.5500000
vt 0.3000000 0.5500000
vt 0.7500000 0.5500000
vt 0.2500000 0.5500000
vt 0.8000000 0.5500000
vt 0.2000000 0.5500000
vt 0.8500000 0.5500000
vt 0.1500000 0.5500000
vt 0.9000000 0.5500000
vt 0.1000000 0.5500000
vt 0.9500000 0.5500000
vt 0.0500000 0.5500000
vt 1.0000000 0.5500000
vt 0.7812500 -0.0203125
vt 0.5844811 0.0752849
vt 0.2187500 -0.0203125
vt 0.5844811 0.9247151
vt 0.7812500 0.0203125
vt 0.5844811 0.0752849
vt 0.2187500 0.0203125
vt 0.5844811 0.9247151
vt 0.5975452 0.0096074
vt 0.7812500 -0.0203125
vt 0.5975452 0.9903926
vt 0.2187500 -0.0203125
vt 0.5975452 0.0096074
vt 0.7812500 0.0203125
vt 0.5975452 0.9903926
vt 0.2187500 0.0203125
vt 0.8000000 0.0625000
vt 0.8000000 0.0625000
vt 0.2000000 0.0625000
vt 0.2000000 0.0625000
vt 0.8000000 0.4687500
vt 0.2000000 0.4687500
vt 0.8125000 -0.0203125
vt 0.6657156 0.0999272
vt 0.1875000 -0.0203125
vt 0.6657156 0.9000728
vt 0.8125000 0.0203125
vt 0.6657156 0.0999272
vt 0.1875000 0.0203125
vt 0.6657156 0.9000728
vt 0.6913417 0.0380602
vt 0.8125000 -0.0203125
vt 0.6913417 0.9619398
vt 0.1875000 -0.0203125
vt 0.6913417 0.0380602
vt 0.8125000 0.0203125
vt 0.6913417 0.9619398
vt 0.1875000 0.0203125
vt 0.8000000 0.5000000
vt 0.2000000 0.5000000
vt 0.8000000 0.5312500
vt 0.8000000 0.5312500
vt 0.2000000 0.5312500
vt 0.2000000 0.5312500
vt 0.6545085 0.0244717
vt 0.8000000 0.0000000
vt 0.6545085 0.9755283
vt 0.2000000 0.0000000
vt 0.8000000 0.0500000
vt 0.8000000 0.0500000
vt 0.2000000 0.0500000
vt 0.2000000 0.0500000
vt 0.8437500 -0.0203125
vt 0.7405818 0.1399440
vt 0.1562500 -0.0203125
vt 0.7405818 0.8600560
vt 0.8437500 0.0203125
vt 0.7405818 0.1399440
vt 0.1562500 0.0203125
vt 0.7405818 0.8600560
vt 0.8500000 0.0625000
vt 0.8500000 0.0625000
vt 0.1500000 0.0625000
vt 0.1500000 0.0625000
vt 0.8500000 0.4687500
vt 0.1500000 0.4687500
vt 0.7777851 0.0842652
vt 0.8437500 -0.0203125
vt 0.7777851 0.9157348
vt 0.1562500 -0.0203125
vt 0.7777851 0.0842652
vt 0.8437500 0.0203125
vt 0.7777851 0.9157348
vt 0.1562500 0.0203125
vt 0.8750000 -0.0203125
vt 0.8062025 0.1937975
vt 0.1250000 -0.0203125
vt 0.8062025 0.8062025
vt 0.8750000 0.0203125
vt 0.8062025 0.1937975
vt 0.1250000 0.0203125
vt 0.8062025 0.8062025
vt 0.8535534 0.1464466
vt 0.8750000 -0.0203125
vt 0.8535534 0.8535534
vt 0.1250000 -0.0203125
vt 0.8535534 0.1464466
vt 0.8750000 0.0203125
vt 0.8535534 0.8535534
vt 0.1250000 0.0203125
vt 0.9062500 -0.0203125
vt 0.8600560 0.2594182
vt 0.0937500 -0.0203125
vt 0.8600560 0.7405818
vt 0.9062500 0.0203125
vt 0.8600560 0.2594182
vt 0.0937500 0.0203125
vt 0.8600560 0.7405818
vt 0.9000000 0.0625000
vt 0.9000000 0.0625000
vt 0.1000000 0.0625000
vt 0.1000000 0.0625000
vt 0.9000000 0.4687500
vt 0.1000000 0.4687500
vt 0.8500000 0.5000000
vt 0.1500000 0.5000000
vt 0.8500000 0.5312500
vt 0.8500000 0.5312500
vt 0.1500000 0.5312500
vt 0.1500000 0.5312500
vt 0.9375000 -0.0203125
vt 0.9000728 0.3342844
vt 0.0625000 -0.0203125
vt 0.9000728 0.6657156
vt 0.9375000 0.0203125
vt 0.9000728 0.3342844
vt 0.0625000 0.0203125
vt 0.9000728 0.6657156
vt 0.9157348 0.2222149
vt 0.9062500 -0.0203125
vt 0.9157348 0.7777851
vt 0.0937500 -0.0203125
vt 0.9157348 0.2222149
vt 0.9062500 0.0203125
vt 0.9157348 0.7777851
vt 0.0937500 0.0203125
vt 0.7938926 0.0954915
vt 0.8500000 0.0000000
vt 0.7938926 0.9045085
vt 0.1500000 0.0000000
vt 0.8500000 0.0500000
vt 0.8500000 0.0500000
vt 0.1500000 0.0500000
vt 0.1500000 0.0500000
vt 0.9500000 0.0625000
vt 0.9500000 0.0625000
vt 0.0500000 0.0625000
vt 0.0500000 0.0625000
vt 0.9500000 0.4687500
vt 0.0500000 0.4687500
vt 0.9687500 -0.0203125
vt 0.9247151 0.4155189
vt 0.0312500 -0.0203125
vt 0.9247151 0.5844811
vt 0.9687500 0.0203125
vt 0.9247151 0.4155189
vt 0.0312500 0.0203125
vt 0.9247151 0.5844811
vt 0.0000000 -0.0203125
vt 1.0000000 -0.0203125
vt 0.9330357 0.5000000
vt 0.0000000 0.0203125
vt 1.0000000 0.0203125
vt 0.9330357 0.5000000
vt 0.0000000 0.0625000
vt 1.0000000 0.0625000
vt 0.0000000 0.0625000
vt 1.0000000 0.0625000
vt 0.0000000 0.4687500
vt 1.0000000 0.4687500
vt 0.9619398 0.3086583
vt 0.9375000 -0.0203125
vt 0.9619398 0.6913417
vt 0.0625000 -0.0203125
vt 0.9619398 0.3086583
vt 0.9375000 0.0203125
vt 0.9619398 0.6913417
vt 0.0625000 0.0203125
vt 0.9903926 0.4024548
vt 0.9687500 -0.0203125
vt 0.9903926 0.5975452
vt 0.0312500 -0.0203125
vt 0.9903926 0.4024548
vt 0.9687500 0.0203125
vt 0.9903926 0.5975452
vt 0.0312500 0.0203125
vt 1.0000000 0.5000000
vt 0.0000000 -0.0203125
vt 1.0000000 -0.0203125
vt 1.0000000 0.5000000
vt 0.0000000 0.0203125
vt 1.0000000 0.0203125
vt 0.9000000 0.5000000
vt 0.1000000 0.5000000
vt 0.9000000 0.5312500
vt 0.9000000 0.5312500
vt 0.1000000 0.5312500
vt 0.1000000 0.5312500
vt 0.9045085 0.2061074
vt 0.9000000 0.0000000
vt 0.9045085 0.7938926
vt 0.1000000 0.0000000
vt 0.9000000 0.0500000
vt 0.9000000 0.0500000
vt 0.1000000 0.0500000
vt 0.1000000 0.0500000
vt 0.9500000 0.5000000
vt 0.0500000 0.5000000
vt 0.9500000 0.5312500
vt 0.9500000 0.5312500
vt 0.0500000 0.5312500
vt 0.0500000 0.5312500
vt 0.0000000 0.5000000
vt 1.0000000 0.5000000
vt 0.0000000 0.5312500
vt 1.0000000 0.5312500
vt 0.0000000 0.5312500
vt 1.0000000 0.5312500
vt 0.9755283 0.3454915
vt 0.9500000 0.0000000
vt 0.9755283 0.6545085
vt 0.0500000 0.0000000
vt 0.9500000 0.0500000
vt 0.9500000 0.0500000
vt 0.0500000 0.0500000
vt 0.0500000 0.0500000
vt 1.0000000 0.5000000
vt 0.0000000 0.0000000
vt 1.0000000 0.0000000
vt 0.0000000 0.0500000
vt 1.0000000 0.0500000
vt 0.0000000 0.0500000
vt 1.0000000 0.0500000
vn -1.0000000 0.0000000 0.0000000
vn 0.0000000 -1.0000000 0.0000000
vn -1.0000000 0.0000000 0.0000000
vn -0.3162278 0.9486833 0.0000000
vn -0.9510565 0.0000000 -0.3090170
vn 0.0000000 -1.0000000 0.0000000
vn -0.9510565 0.0000000 0.3090170
vn 0.0000000 -1.0000000 0.0000000
vn -0.9510565 0.0000000 -0.3090170
vn -0.3007505 0.9486833 -0.0977198
vn -0.9510565 0.0000000 0.3090170
vn -0.3007505 0.9486833 0.0977198
vn -0.9238795 -0.3826834 0.0000000
vn -1.0000000 0.0000000 0.0000000
vn -0.1961161 0.9805807 0.0000000
vn -0.8786616 -0.3826834 -0.2854945
vn -0.8786616 -0.3826834 0.2854945
vn -0.9510565 0.0000000 -0.3090170
vn -0.1865175 0.9805807 -0.0606032
vn -0.9510565 0.0000000 0.3090170
vn -0.1865175 0.9805807 0.0606032
vn -0.8090170 0.0000000 -0.5877853
vn 0.0000000 -1.0000000 0.0000000
vn -0.8090170 0.0000000 0.5877853
vn 0.0000000 -1.0000000 0.0000000
vn -0.8090170 0.0000000 -0.5877853
vn -0.2558336 0.9486833 -0.1858740
vn -0.8090170 0.0000000 0.5877853
vn -0.2558336 0.9486833 0.1858740
vn -0.7474342 -0.3826834 -0.5430428
vn -0.7474342 -0.3826834 0.5430428
vn -0.8090170 0.0000000 -0.5877853
vn -0.1586613 0.9805807 -0.1152742
vn -0.8090170 0.0000000 0.5877853
vn -0.1586613 0.9805807 0.1152742
vn -1.0000000 0.0000000 0.0000000
vn 0.0000000 -1.0000000 0.0000000
vn -1.0000000 0.0000000 0.0000000
vn 0.0000000 1.0000000 0.0000000
vn -0.9807853 0.0000000 -0.1950903
vn 0.0000000 -1.0000000 0.0000000
vn -0.9807853 0.0000000 0.1950903
vn 0.0000000 -1.0000000 0.0000000
vn -0.9807853 0.0000000 -0.1950903
vn 0.0000000 1.0000000 0.0000000
vn -0.9807853 0.0000000 0.1950903
vn 0.0000000 1.0000000 0.0000000
vn -0.9238795 0.0000000 -0.3826834
vn 0.0000000 -1.0000000 0.0000000
vn -0.9238795 0.0000000 0.3826834
vn 0.0000000 -1.0000000 0.0000000
vn -0.9238795 0.0000000 -0.3826834
vn 0.0000000 1.0000000 0.0000000
vn -0.9238795 0.0000000 0.3826834
vn 0.0000000 1.0000000 0.0000000
vn -1.0000000 0.0000000 0.0000000
vn -0.3162278 0.9486833 0.0000000
vn -0.9238795 -0.3826834 0.0000000
vn 0.0000000 -1.0000000 0.0000000
vn 1.0000000 0.0000000 -0.0000000
vn 0.0000000 1.0000000 0.0000000
vn 1.0000000 0.0000000 -0.0000000
vn 0.0000000 -1.0000000 0.0000000
vn 0.9807853 0.0000000 0.1950903
vn 0.0000000 -1.0000000 0.0000000
vn 0.9807853 0.0000000 -0.1950903
vn 0.0000000 1.0000000 0.0000000
vn 0.9807853 0.0000000 0.1950903
vn 0.0000000 1.0000000 0.0000000
vn 0.9807853 0.0000000 -0.1950903
vn -0.9510565 0.0000000 -0.3090170
vn -0.3007505 0.9486833 -0.0977198
vn -0.9510565 0.0000000 0.3090170
vn -0.3007505 0.9486833 0.0977198
vn -0.8786616 -0.3826834 -0.2854945
vn -0.8786616 -0.3826834 0.2854945
vn -0.5877853 0.0000000 -0.8090170
vn 0.0000000 -1.0000000 0.0000000
vn -0.5877853 0.0000000 0.8090170
vn 0.0000000 -1.0000000 0.0000000
vn -0.5877853 0.0000000 -0.8090170
vn -0.1858740 0.9486833 -0.2558336
vn -0.5877853 0.0000000 0.8090170
vn -0.1858740 0.9486833 0.2558336
vn -0.8314696 0.0000000 -0.5555702
vn 0.0000000 -1.0000000 0.0000000
vn -0.8314696 0.0000000 0.5555702
vn 0.0000000 -1.0000000 0.0000000
vn -0.8314696 0.0000000 -0.5555702
vn 0.0000000 1.0000000 0.0000000
vn -0.8314696 0.0000000 0.5555702
vn 0.0000000 1.0000000 0.0000000
vn 0.0000000 -1.0000000 0.0000000
vn 0.9238795 0.0000000 0.3826834
vn 0.0000000 -1.0000000 0.0000000
vn 0.9238795 0.0000000 -0.3826834
vn 0.0000000 1.0000000 0.0000000
vn 0.9238795 0.0000000 0.3826834
vn 0.0000000 1.0000000 0.0000000
vn 0.9238795 0.0000000 -0.3826834
vn -0.5430428 -0.3826834 -0.7474342
vn -0.5430428 -0.3826834 0.7474342
vn -0.5877853 0.0000000 -0.8090170
vn -0.1152742 0.9805807 -0.1586613
vn -0.5877853 0.0000000 0.8090170
vn -0.1152742 0.9805807 0.1586613
vn -0.8090170 0.0000000 -0.5877853
vn -0.2558336 0.9486833 -0.1858740
vn -0.8090170 0.0000000 0.5877853
vn -0.2558336 0.9486833 0.1858740
vn -0.7474342 -0.3826834 -0.5430428
vn -0.7474342 -0.3826834 0.5430428
vn 0.0000000 -1.0000000 0.0000000
vn 0.8314696 0.0000000 0.5555702
vn 0.0000000 -1.0000000 0.0000000
vn 0.8314696 0.0000000 -0.5555702
vn 0.0000000 1.0000000 0.0000000
vn 0.8314696 0.0000000 0.5555702
vn 0.0000000 1.0000000 0.0000000
vn 0.8314696 0.0000000 -0.5555702
vn -0.7071068 0.0000000 -0.7071068
vn 0.0000000 -1.0000000 0.0000000
vn -0.7071068 0.0000000 0.7071068
vn 0.0000000 -1.0000000 0.0000000
vn -0.7071068 0.0000000 -0.7071068
vn 0.0000000 1.0000000 0.0000000
vn -0.7071068 0.0000000 0.7071068
vn 0.0000000 1.0000000 0.0000000
vn 0.0000000 -1.0000000 0.0000000
vn 0.7071068 0.0000000 0.7071068
vn 0.0000000 -1.0000000 0.0000000
vn 0.7071068 0.0000000 -0.7071068
vn 0.0000000 1.0000000 0.0000000
vn 0.7071068 0.0000000 0.7071068
vn 0.0000000 1.0000000 0.0000000
vn 0.7071068 0.0000000 -0.7071068
vn -0.5555702 0.0000000 -0.8314696
vn 0.0000000 -1.0000000 0.0000000
vn -0.5555702 0.0000000 0.8314696
vn 0.0000000 -1.0000000 0.0000000
vn -0.5555702 0.0000000 -0.8314696
vn 0.0000000 1.0000000 0.0000000
vn -0.5555702 0.0000000 0.8314696
vn 0.0000000 1.0000000 0.0000000
vn -0.5877853 0.0000000 -0.8090170
vn -0.1858740 0.9486833 -0.2558336
vn -0.5877853 0.0000000 0.8090170
vn -0.1858740 0.9486833 0.2558336
vn -0.5430428 -0.3826834 -0.7474342
vn -0.5430428 -0.3826834 0.7474342
vn 0.0000000 -1.0000000 0.0000000
vn 0.5555702 0.0000000 0.8314696
vn 0.0000000 -1.0000000 0.0000000
vn 0.5555702 0.0000000 -0.8314696
vn 0.0000000 1.0000000 0.0000000
vn 0.5555702 0.0000000 0.8314696
vn 0.0000000 1.0000000 0.0000000
vn 0.5555702 0.0000000 -0.8314696
vn -0.3090170 0.0000000 -0.9510565
vn 0.0000000 -1.0000000 0.0000000
vn -0.3090170 0.0000000 0.9510565
vn 0.0000000 -1.0000000 0.0000000
vn -0.3090170 0.0000000 -0.9510565
vn -0.0977198 0.9486833 -0.3007505
vn -0.3090170 0.0000000 0.9510565
vn -0.0977198 0.9486833 0.3007505
vn -0.2854945 -0.3826834 -0.8786616
vn -0.2854945 -0.3826834 0.8786616
vn -0.3090170 0.0000000 -0.9510565
vn -0.0606032 0.9805807 -0.1865175
vn -0.3090170 0.0000000 0.9510565
vn -0.0606032 0.9805807 0.1865175
vn -0.3826834 0.0000000 -0.9238795
vn 0.0000000 -1.0000000 0.0000000
vn -0.3826834 0.0000000 0.9238795
vn 0.0000000 -1.0000000 0.0000000
vn -0.3826834 0.0000000 -0.9238795
vn 0.0000000 1.0000000 0.0000000
vn -0.3826834 0.0000000 0.9238795
vn 0.0000000 1.0000000 0.0000000
vn 0.0000000 -1.0000000 0.0000000
vn 0.3826834 0.0000000 0.9238795
vn 0.0000000 -1.0000000 0.0000000
vn 0.3826834 0.0000000 -0.9238795
vn 0.0000000 1.0000000 0.0000000
vn 0.3826834 0.0000000 0.9238795
vn 0.0000000 1.0000000 0.0000000
vn 0.3826834 0.0000000 -0.9238795
vn -0.3090170 0.0000000 -0.9510565
vn -0.0977198 0.9486833 -0.3007505
vn -0.3090170 0.0000000 0.9510565
vn -0.0977198 0.9486833 0.3007505
vn -0.2854945 -0.3826834 -0.8786616
vn -0.2854945 -0.3826834 0.8786616
vn -0.1950903 0.0000000 -0.9807853
vn 0.0000000 -1.0000000 0.0000000
vn -0.1950903 0.0000000 0.9807853
vn 0.0000000 -1.0000000 0.0000000
vn -0.1950903 0.0000000 -0.9807853
vn 0.0000000 1.0000000 0.0000000
vn -0.1950903 0.0000000 0.9807853
vn 0.0000000 1.0000000 0.0000000
vn 0.0000000 -1.0000000 0.0000000
vn 0.1950903 0.0000000 0.9807853
vn 0.0000000 -1.0000000 0.0000000
vn 0.1950903 0.0000000 -0.9807853
vn 0.0000000 1.0000000 0.0000000
vn 0.1950903 0.0000000 0.9807853
vn 0.0000000 1.0000000 0.0000000
vn 0.1950903 0.0000000 -0.9807853
vn 0.0000000 -1.0000000 0.0000000
vn -0.0000000 0.0000000 -1.0000000
vn 0.0000000 -1.0000000 0.0000000
vn 0.0000000 -1.0000000 0.0000000
vn 0.0000000 0.0000000 1.0000000
vn -0.0000000 0.0000000 -1.0000000
vn -0.0000000 0.9486833 -0.3162278
vn 0.0000000 0.0000000 1.0000000
vn 0.0000000 0.9486833 0.3162278
vn -0.0000000 0.0000000 -1.0000000
vn -0.0000000 0.9486833 -0.3162278
vn 0.0000000 0.0000000 1.0000000
vn 0.0000000 0.9486833 0.3162278
vn 0.0000000 -1.0000000 0.0000000
vn -0.0000000 0.0000000 -1.0000000
vn 0.0000000 -1.0000000 0.0000000
vn 0.0000000 0.0000000 1.0000000
vn 0.0000000 -1.0000000 0.0000000
vn -0.0000000 0.0000000 -1.0000000
vn 0.0000000 -1.0000000 0.0000000
vn 0.0000000 0.0000000 1.0000000
vn -0.0000000 0.0000000 -1.0000000
vn 0.0000000 1.0000000 0.0000000
vn 0.0000000 0.0000000 1.0000000
vn 0.0000000 1.0000000 0.0000000
vn -0.0000000 0.0000000 -1.0000000
vn 0.0000000 1.0000000 0.0000000
vn 0.0000000 0.0000000 1.0000000
vn 0.0000000 1.0000000 0.0000000
vn -0.0000000 -0.3826834 -0.9238795
vn 0.0000000 -0.3826834 0.9238795
vn -0.0000000 -0.3826834 -0.9238795
vn 0.0000000 -0.3826834 0.9238795
vn -0.0000000 0.0000000 -1.0000000
vn -0.0000000 0.9805807 -0.1961161
vn 0.0000000 0.0000000 1.0000000
vn 0.0000000 0.9805807 0.1961161
vn -0.1961161 0.9805807 0.0000000
vn -0.1865175 0.9805807 -0.0606032
vn -0.1865175 0.9805807 0.0606032
vn -0.1586613 0.9805807 -0.1152742
vn -0.1586613 0.9805807 0.1152742
vn -0.1152742 0.9805807 -0.1586613
vn -0.1152742 0.9805807 0.1586613
vn -0.0606032 0.9805807 -0.1865175
vn -0.0606032 0.9805807 0.1865175
vn -0.0000000 0.9805807 -0.1961161
vn 0.0000000 0.9805807 0.1961161
vn 0.0606032 0.9805807 -0.1865175
vn 0.0606032 0.9805807 0.1865175
vn 0.1152742 0.9805807 -0.1586613
vn 0.1152742 0.9805807 0.1586613
vn 0.1586613 0.9805807 -0.1152742
vn 0.1586613 0.9805807 0.1152742
vn 0.1865175 0.9805807 -0.0606032
vn 0.1865175 0.9805807 0.0606032
vn 0.1961161 0.9805807 -0.0000000
vn -0.1950903 0.0000000 0.9807853
vn 0.0000000 -1.0000000 0.0000000
vn -0.1950903 0.0000000 -0.9807853
vn 0.0000000 -1.0000000 0.0000000
vn -0.1950903 0.0000000 0.9807853
vn 0.0000000 1.0000000 0.0000000
vn -0.1950903 0.0000000 -0.9807853
vn 0.0000000 1.0000000 0.0000000
vn 0.0000000 -1.0000000 0.0000000
vn 0.1950903 0.0000000 -0.9807853
vn 0.0000000 -1.0000000 0.0000000
vn 0.1950903 0.0000000 0.9807853
vn 0.0000000 1.0000000 0.0000000
vn 0.1950903 0.0000000 -0.9807853
vn 0.0000000 1.0000000 0.0000000
vn 0.1950903 0.0000000 0.9807853
vn 0.0977198 0.9486833 -0.3007505
vn 0.3090170 0.0000000 -0.9510565
vn 0.0977198 0.9486833 0.3007505
vn 0.3090170 0.0000000 0.9510565
vn 0.2854945 -0.3826834 -0.8786616
vn 0.2854945 -0.3826834 0.8786616
vn -0.3826834 0.0000000 0.9238795
vn 0.0000000 -1.0000000 0.0000000
vn -0.3826834 0.0000000 -0.9238795
vn 0.0000000 -1.0000000 0.0000000
vn -0.3826834 0.0000000 0.9238795
vn 0.0000000 1.0000000 0.0000000
vn -0.3826834 0.0000000 -0.9238795
vn 0.0000000 1.0000000 0.0000000
vn 0.0000000 -1.0000000 0.0000000
vn 0.3826834 0.0000000 -0.9238795
vn 0.0000000 -1.0000000 0.0000000
vn 0.3826834 0.0000000 0.9238795
vn 0.0000000 1.0000000 0.0000000
vn 0.3826834 0.0000000 -0.9238795
vn 0.0000000 1.0000000 0.0000000
vn 0.3826834 0.0000000 0.9238795
vn 0.2854945 -0.3826834 -0.8786616
vn 0.2854945 -0.3826834 0.8786616
vn 0.0606032 0.9805807 -0.1865175
vn 0.3090170 0.0000000 -0.9510565
vn 0.0606032 0.9805807 0.1865175
vn 0.3090170 0.0000000 0.9510565
vn 0.0000000 -1.0000000 0.0000000
vn 0.3090170 0.0000000 -0.9510565
vn 0.0000000 -1.0000000 0.0000000
vn 0.3090170 0.0000000 0.9510565
vn 0.0977198 0.9486833 -0.3007505
vn 0.3090170 0.0000000 -0.9510565
vn 0.0977198 0.9486833 0.3007505
vn 0.3090170 0.0000000 0.9510565
vn -0.5555702 0.0000000 0.8314696
vn 0.0000000 -1.0000000 0.0000000
vn -0.5555702 0.0000000 -0.8314696
vn 0.0000000 -1.0000000 0.0000000
vn -0.5555702 0.0000000 0.8314696
vn 0.0000000 1.0000000 0.0000000
vn -0.5555702 0.0000000 -0.8314696
vn 0.0000000 1.0000000 0.0000000
vn 0.1858740 0.9486833 -0.2558336
vn 0.5877853 0.0000000 -0.8090170
vn 0.1858740 0.9486833 0.2558336
vn 0.5877853 0.0000000 0.8090170
vn 0.5430428 -0.3826834 -0.7474342
vn 0.5430428 -0.3826834 0.7474342
vn 0.0000000 -1.0000000 0.0000000
vn 0.5555702 0.0000000 -0.8314696
vn 0.0000000 -1.0000000 0.0000000
vn 0.5555702 0.0000000 0.8314696
vn 0.0000000 1.0000000 0.0000000
vn 0.5555702 0.0000000 -0.8314696
vn 0.0000000 1.0000000 0.0000000
vn 0.5555702 0.0000000 0.8314696
vn -0.7071068 0.0000000 0.7071068
vn 0.0000000 -1.0000000 0.0000000
vn -0.7071068 0.0000000 -0.7071068
vn 0.0000000 -1.0000000 0.0000000
vn -0.7071068 0.0000000 0.7071068
vn 0.0000000 1.0000000 0.0000000
vn -0.7071068 0.0000000 -0.7071068
vn 0.0000000 1.0000000 0.0000000
vn 0.0000000 -1.0000000 0.0000000
vn 0.7071068 0.0000000 -0.7071068
vn 0.0000000 -1.0000000 0.0000000
vn 0.7071068 0.0000000 0.7071068
vn 0.0000000 1.0000000 0.0000000
vn 0.7071068 0.0000000 -0.7071068
vn 0.0000000 1.0000000 0.0000000
vn 0.7071068 0.0000000 0.7071068
vn -0.8314696 0.0000000 0.5555702
vn 0.0000000 -1.0000000 0.0000000
vn -0.8314696 0.0000000 -0.5555702
vn 0.0000000 -1.0000000 0.0000000
vn -0.8314696 0.0000000 0.5555702
vn 0.0000000 1.0000000 0.0000000
vn -0.8314696 0.0000000 -0.5555702
vn 0.0000000 1.0000000 0.0000000
vn 0.2558336 0.9486833 -0.1858740
vn 0.8090170 0.0000000 -0.5877853
vn 0.2558336 0.9486833 0.1858740
vn 0.8090170 0.0000000 0.5877853
vn 0.7474342 -0.3826834 -0.5430428
vn 0.7474342 -0.3826834 0.5430428
vn 0.5430428 -0.3826834 -0.7474342
vn 0.5430428 -0.3826834 0.7474342
vn 0.1152742 0.9805807 -0.1586613
vn 0.5877853 0.0000000 -0.8090170
vn 0.1152742 0.9805807 0.1586613
vn 0.5877853 0.0000000 0.8090170
vn -0.9238795 0.0000000 0.3826834
vn 0.0000000 -1.0000000 0.0000000
vn -0.9238795 0.0000000 -0.3826834
vn 0.0000000 -1.0000000 0.0000000
vn -0.9238795 0.0000000 0.3826834
vn 0.0000000 1.0000000 0.0000000
vn -0.9238795 0.0000000 -0.3826834
vn 0.0000000 1.0000000 0.0000000
vn 0.0000000 -1.0000000 0.0000000
vn 0.8314696 0.0000000 -0.5555702
vn 0.0000000 -1.0000000 0.0000000
vn 0.8314696 0.0000000 0.5555702
vn 0.0000000 1.0000000 0.0000000
vn 0.8314696 0.0000000 -0.5555702
vn 0.0000000 1.0000000 0.0000000
vn 0.8314696 0.0000000 0.5555702
vn 0.0000000 -1.0000000 0.0000000
vn 0.5877853 0.0000000 -0.8090170
vn 0.0000000 -1.0000000 0.0000000
vn 0.5877853 0.0000000 0.8090170
vn 0.1858740 0.9486833 -0.2558336
vn 0.5877853 0.0000000 -0.8090170
vn 0.1858740 0.9486833 0.2558336
vn 0.5877853 0.0000000 0.8090170
vn 0.3007505 0.9486833 -0.0977198
vn 0.9510565 0.0000000 -0.3090170
vn 0.3007505 0.9486833 0.0977198
vn 0.9510565 0.0000000 0.3090170
vn 0.8786616 -0.3826834 -0.2854945
vn 0.8786616 -0.3826834 0.2854945
vn -0.9807853 0.0000000 0.1950903
vn 0.0000000 -1.0000000 0.0000000
vn -0.9807853 0.0000000 -0.1950903
vn 0.0000000 -1.0000000 0.0000000
vn -0.9807853 0.0000000 0.1950903
vn 0.0000000 1.0000000 0.0000000
vn -0.9807853 0.0000000 -0.1950903
vn 0.0000000 1.0000000 0.0000000
vn -1.0000000 0.0000000 0.0000000
vn -1.0000000 0.0000000 0.0000000
vn 0.0000000 -1.0000000 0.0000000
vn -1.0000000 0.0000000 0.0000000
vn -1.0000000 0.0000000 0.0000000
vn 0.0000000 1.0000000 0.0000000
vn 0.3162278 0.9486833 0.0000000
vn 0.3162278 0.9486833 -0.0000000
vn 1.0000000 0.0000000 0.0000000
vn 1.0000000 0.0000000 -0.0000000
vn 0.9238795 -0.3826834 0.0000000
vn 0.9238795 -0.3826834 -0.0000000
vn 0.0000000 -1.0000000 0.0000000
vn 0.9238795 0.0000000 -0.3826834
vn 0.0000000 -1.0000000 0.0000000
vn 0.9238795 0.0000000 0.3826834
vn 0.0000000 1.0000000 0.0000000
vn 0.9238795 0.0000000 -0.3826834
vn 0.0000000 1.0000000 0.0000000
vn 0.9238795 0.0000000 0.3826834
vn 0.0000000 -1.0000000 0.0000000
vn 0.9807853 0.0000000 -0.1950903
vn 0.0000000 -1.0000000 0.0000000
vn 0.9807853 0.0000000 0.1950903
vn 0.0000000 1.0000000 0.0000000
vn 0.9807853 0.0000000 -0.1950903
vn 0.0000000 1.0000000 0.0000000
vn 0.9807853 0.0000000 0.1950903
vn 0.0000000 -1.0000000 0.0000000
vn 1.0000000 0.0000000 0.0000000
vn 1.0000000 0.0000000 -0.0000000
vn 0.0000000 1.0000000 0.0000000
vn 1.0000000 0.0000000 0.0000000
vn 1.0000000 0.0000000 -0.0000000
vn 0.7474342 -0.3826834 -0.5430428
vn 0.7474342 -0.3826834 0.5430428
vn 0.1586613 0.9805807 -0.1152742
vn 0.8090170 0.0000000 -0.5877853
vn 0.1586613 0.9805807 0.1152742
vn 0.8090170 0.0000000 0.5877853
vn 0.0000000 -1.0000000 0.0000000
vn 0.8090170 0.0000000 -0.5877853
vn 0.0000000 -1.0000000 0.0000000
vn 0.8090170 0.0000000 0.5877853
vn 0.2558336 0.9486833 -0.1858740
vn 0.8090170 0.0000000 -0.5877853
vn 0.2558336 0.9486833 0.1858740
vn 0.8090170 0.0000000 0.5877853
vn 0.8786616 -0.3826834 -0.2854945
vn 0.8786616 -0.3826834 0.2854945
vn 0.1865175 0.9805807 -0.0606032
vn 0.9510565 0.0000000 -0.3090170
vn 0.1865175 0.9805807 0.0606032
vn 0.9510565 0.0000000 0.3090170
vn 0.9238795 -0.3826834 0.0000000
vn 0.9238795 -0.3826834 -0.0000000
vn 0.1961161 0.9805807 0.0000000
vn 0.1961161 0.9805807 -0.0000000
vn 1.0000000 0.0000000 0.0000000
vn 1.0000000 0.0000000 -0.0000000
vn 0.0000000 -1.0000000 0.0000000
vn 0.9510565 0.0000000 -0.3090170
vn 0.0000000 -1.0000000 0.0000000
vn 0.9510565 0.0000000 0.3090170
vn 0.3007505 0.9486833 -0.0977198
vn 0.9510565 0.0000000 -0.3090170
vn 0.3007505 0.9486833 0.0977198
vn 0.9510565 0.0000000 0.3090170
vn 0.0000000 -1.0000000 0.0000000
vn 1.0000000 0.0000000 0.0000000
vn 1.0000000 0.0000000 -0.0000000
vn 0.3162278 0.9486833 0.0000000
vn 0.3162278 0.9486833 -0.0000000
vn 1.0000000 0.0000000 0.0000000
vn 1.0000000 0.0000000 -0.0000000
o 14_Bolardo_Iron
usemtl Iron
s 1
f 418/418/418 438/438/438 411/411/411
f 418/418/418 444/444/444 438/438/438
f 411/411/411 430/430/430 381/381/381
f 411/411/411 438/438/438 430/430/430
f 381/381/381 388/388/388 361/361/361
f 381/381/381 430/430/430 388/388/388
f 361/361/361 352/352/352 345/345/345
f 361/361/361 388/388/388 352/352/352
f 345/345/345 336/336/336 323/323/323
f 345/345/345 352/352/352 336/336/336
f 323/323/323 300/300/300 293/293/293
f 323/323/323 336/336/336 300/300/300
f 293/293/293 278/278/278 271/271/271
f 293/293/293 300/300/300 278/278/278
f 271/271/271 230/230/230 228/228/228
f 271/271/271 278/278/278 230/230/230
f 228/228/228 198/198/198 205/205/205
f 228/228/228 230/230/230 198/198/198
f 205/205/205 176/176/176 183/183/183
f 205/205/205 198/198/198 176/176/176
f 183/183/183 140/140/140 153/153/153
f 183/183/183 176/176/176 140/140/140
f 153/153/153 124/124/124 131/131/131
f 153/153/153 140/140/140 124/124/124
f 131/131/131 88/88/88 115/115/115
f 131/131/131 124/124/124 88/88/88
f 115/115/115 51/51/51 95/95/95
f 115/115/115 88/88/88 51/51/51
f 95/95/95 43/43/43 65/65/65
f 95/95/95 51/51/51 43/43/43
f 65/65/65 37/37/37 59/59/59
f 65/65/65 43/43/43 37/37/37
f 59/59/59 41/41/41 63/63/63
f 59/59/59 37/37/37 41/41/41
f 63/63/63 49/49/49 93/93/93
f 63/63/63 41/41/41 49/49/49
f 93/93/93 86/86/86 113/113/113
f 93/93/93 49/49/49 86/86/86
f 113/113/113 122/122/122 129/129/129
f 113/113/113 86/86/86 122/122/122
f 129/129/129 138/138/138 151/151/151
f 129/129/129 122/122/122 138/138/138
f 151/151/151 174/174/174 181/181/181
f 151/151/151 138/138/138 174/174/174
f 181/181/181 196/196/196 203/203/203
f 181/181/181 174/174/174 196/196/196
f 203/203/203 224/224/224 226/226/226
f 203/203/203 196/196/196 224/224/224
f 226/226/226 276/276/276 269/269/269
f 226/226/226 224/224/224 276/276/276
f 269/269/269 298/298/298 291/291/291
f 269/269/269 276/276/276 298/298/298
f 291/291/291 334/334/334 321/321/321
f 291/291/291 298/298/298 334/334/334
f 321/321/321 350/350/350 343/343/343
f 321/321/321 334/334/334 350/350/350
f 343/343/343 386/386/386 359/359/359
f 343/343/343 350/350/350 386/386/386
f 359/359/359 428/428/428 379/379/379
f 359/359/359 386/386/386 428/428/428
f 379/379/379 436/436/436 409/409/409
f 379/379/379 428/428/428 436/436/436
f 409/409/409 444/444/444 418/418/418
f 409/409/409 436/436/436 444/444/444
f 445/445/445 443/443/443 439/439/439
f 445/445/445 448/448/448 443/443/443
f 439/439/439 435/435/435 431/431/431
f 439/439/439 443/443/443 435/435/435
f 431/431/431 393/393/393 389/389/389
f 431/431/431 435/435/435 393/393/393
f 389/389/389 357/357/357 353/353/353
f 389/389/389 393/393/393 357/357/357
f 353/353/353 341/341/341 337/337/337
f 353/353/353 357/357/357 341/341/341
f 337/337/337 305/305/305 301/301/301
f 337/337/337 341/341/341 305/305/305
f 301/301/301 283/283/283 279/279/279
f 301/301/301 305/305/305 283/283/283
f 279/279/279 238/238/238 231/231/231
f 279/279/279 283/283/283 238/238/238
f 231/231/231 201/201/201 197/197/197
f 231/231/231 238/238/238 201/201/201
f 197/197/197 179/179/179 175/175/175
f 197/197/197 201/201/201 179/179/179
f 175/175/175 143/143/143 139/139/139
f 175/175/175 179/179/179 143/143/143
f 139/139/139 127/127/127 123/123/123
f 139/139/139 143/143/143 127/127/127
f 123/123/123 91/91/91 87/87/87
f 123/123/123 127/127/127 91/91/91
f 87/87/87 54/54/54 50/50/50
f 87/87/87 91/91/91 54/54/54
f 50/50/50 46/46/46 42/42/42
f 50/50/50 54/54/54 46/46/46
f 42/42/42 38/38/38 36/36/36
f 42/42/42 46/46/46 38/38/38
f 36/36/36 44/44/44 40/40/40
f 36/36/36 38/38/38 44/44/44
f 40/40/40 52/52/52 48/48/48
f 40/40/40 44/44/44 52/52/52
f 48/48/48 89/89/89 85/85/85
f 48/48/48 52/52/52 89/89/89
f 85/85/85 125/125/125 121/121/121
f 85/85/85 89/89/89 125/125/125
f 121/121/121 141/141/141 137/137/137
f 121/121/121 125/125/125 141/141/141
f 137/137/137 177/177/177 173/173/173
f 137/137/137 141/141/141 177/177/177
f 173/173/173 199/199/199 195/195/195
f 173/173/173 177/177/177 199/199/199
f 195/195/195 232/232/232 225/225/225
f 195/195/195 199/199/199 232/232/232
f 225/225/225 281/281/281 277/277/277
f 225/225/225 232/232/232 281/281/281
f 277/277/277 303/303/303 299/299/299
f 277/277/277 281/281/281 303/303/303
f 299/299/299 339/339/339 335/335/335
f 299/299/299 303/303/303 339/339/339
f 335/335/335 355/355/355 351/351/351
f 335/335/335 339/339/339 355/355/355
f 351/351/351 391/391/391 387/387/387
f 351/351/351 355/355/355 391/391/391
f 387/387/387 433/433/433 429/429/429
f 387/387/387 391/391/391 433/433/433
f 429/429/429 441/441/441 437/437/437
f 429/429/429 433/433/433 441/441/441
f 437/437/437 449/449/449 446/446/446
f 437/437/437 441/441/441 449/449/449
f 447/447/447 415/415/415 442/442/442
f 447/447/447 421/421/421 415/415/415
f 442/442/442 385/385/385 434/434/434
f 442/442/442 415/415/415 385/385/385
f 434/434/434 365/365/365 392/392/392
f 434/434/434 385/385/385 365/365/365
f 392/392/392 349/349/349 356/356/356
f 392/392/392 365/365/365 349/349/349
f 356/356/356 327/327/327 340/340/340
f 356/356/356 349/349/349 327/327/327
f 340/340/340 297/297/297 304/304/304
f 340/340/340 327/327/327 297/297/297
f 304/304/304 275/275/275 282/282/282
f 304/304/304 297/297/297 275/275/275
f 282/282/282 237/237/237 239/239/239
f 282/282/282 275/275/275 237/237/237
f 239/239/239 209/209/209 202/202/202
f 239/239/239 237/237/237 209/209/209
f 202/202/202 187/187/187 180/180/180
f 202/202/202 209/209/209 187/187/187
f 180/180/180 157/157/157 144/144/144
f 180/180/180 187/187/187 157/157/157
f 144/144/144 135/135/135 128/128/128
f 144/144/144 157/157/157 135/135/135
f 128/128/128 119/119/119 92/92/92
f 128/128/128 135/135/135 119/119/119
f 92/92/92 99/99/99 55/55/55
f 92/92/92 119/119/119 99/99/99
f 55/55/55 69/69/69 47/47/47
f 55/55/55 99/99/99 69/69/69
f 47/47/47 61/61/61 39/39/39
f 47/47/47 69/69/69 61/61/61
f 39/39/39 67/67/67 45/45/45
f 39/39/39 61/61/61 67/67/67
f 45/45/45 97/97/97 53/53/53
f 45/45/45 67/67/67 97/97/97
f 53/53/53 117/117/117 90/90/90
f 53/53/53 97/97/97 117/117/117
f 90/90/90 133/133/133 126/126/126
f 90/90/90 117/117/117 133/133/133
f 126/126/126 155/155/155 142/142/142
f 126/126/126 133/133/133 155/155/155
f 142/142/142 185/185/185 178/178/178
f 142/142/142 155/155/155 185/185/185
f 178/178/178 207/207/207 200/200/200
f 178/178/178 185/185/185 207/207/207
f 200/200/200 235/235/235 233/233/233
f 200/200/200 207/207/207 235/235/235
f 233/233/233 273/273/273 280/280/280
f 233/233/233 235/235/235 273/273/273
f 280/280/280 295/295/295 302/302/302
f 280/280/280 273/273/273 295/295/295
f 302/302/302 325/325/325 338/338/338
f 302/302/302 295/295/295 325/325/325
f 338/338/338 347/347/347 354/354/354
f 338/338/338 325/325/325 347/347/347
f 354/354/354 363/363/363 390/390/390
f 354/354/354 347/347/347 363/363/363
f 390/390/390 383/383/383 432/432/432
f 390/390/390 363/363/363 383/383/383
f 432/432/432 413/413/413 440/440/440
f 432/432/432 383/383/383 413/413/413
f 440/440/440 421/421/421 447/447/447
f 440/440/440 413/413/413 421/421/421
f 419/419/419 410/410/410 414/414/414
f 419/419/419 416/416/416 410/410/410
f 414/414/414 380/380/380 384/384/384
f 414/414/414 410/410/410 380/380/380
f 384/384/384 360/360/360 364/364/364
f 384/384/384 380/380/380 360/360/360
f 364/364/364 344/344/344 348/348/348
f 364/364/364 360/360/360 344/344/344
f 348/348/348 322/322/322 326/326/326
f 348/348/348 344/344/344 322/322/322
f 326/326/326 292/292/292 296/296/296
f 326/326/326 322/322/322 292/292/292
f 296/296/296 270/270/270 274/274/274
f 296/296/296 292/292/292 270/270/270
f 274/274/274 229/229/229 236/236/236
f 274/274/274 270/270/270 229/229/229
f 236/236/236 206/206/206 210/210/210
f 236/236/236 229/229/229 206/206/206
f 210/210/210 184/184/184 188/188/188
f 210/210/210 206/206/206 184/184/184
f 188/188/188 154/154/154 158/158/158
f 188/188/188 184/184/184 154/154/154
f 158/158/158 132/132/132 136/136/136
f 158/158/158 154/154/154 132/132/132
f 136/136/136 116/116/116 120/120/120
f 136/136/136 132/132/132 116/116/116
f 120/120/120 96/96/96 100/100/100
f 120/120/120 116/116/116 96/96/96
f 100/100/100 66/66/66 70/70/70
f 100/100/100 96/96/96 66/66/66
f 70/70/70 60/60/60 62/62/62
f 70/70/70 66/66/66 60/60/60
f 62/62/62 64/64/64 68/68/68
f 62/62/62 60/60/60 64/64/64
f 68/68/68 94/94/94 98/98/98
f 68/68/68 64/64/64 94/94/94
f 98/98/98 114/114/114 118/118/118
f 98/98/98 94/94/94 114/114/114
f 118/118/118 130/130/130 134/134/134
f 118/118/118 114/114/114 130/130/130
f 134/134/134 152/152/152 156/156/156
f 134/134/134 130/130/130 152/152/152
f 156/156/156 182/182/182 186/186/186
f 156/156/156 152/152/152 182/182/182
f 186/186/186 204/204/204 208/208/208
f 186/186/186 182/182/182 204/204/204
f 208/208/208 227/227/227 234/234/234
f 208/208/208 204/204/204 227/227/227
f 234/234/234 268/268/268 272/272/272
f 234/234/234 227/227/227 268/268/268
f 272/272/272 290/290/290 294/294/294
f 272/272/272 268/268/268 290/290/290
f 294/294/294 320/320/320 324/324/324
f 294/294/294 290/290/290 320/320/320
f 324/324/324 342/342/342 346/346/346
f 324/324/324 320/320/320 342/342/342
f 346/346/346 358/358/358 362/362/362
f 346/346/346 342/342/342 358/358/358
f 362/362/362 378/378/378 382/382/382
f 362/362/362 358/358/358 378/378/378
f 382/382/382 408/408/408 412/412/412
f 382/382/382 378/378/378 408/408/408
f 412/412/412 417/417/417 420/420/420
f 412/412/412 408/408/408 417/417/417
o 14_Bolardo_Wood
usemtl Wood
s 1
f 213/213/213 484/484/484 478/478/478
f 213/213/213 478/478/478 458/458/458
f 213/213/213 458/458/458 396/396/396
f 213/213/213 396/396/396 314/314/314
f 213/213/213 314/314/314 214/214/214
f 213/213/213 214/214/214 162/162/162
f 213/213/213 162/162/162 80/80/80
f 213/213/213 80/80/80 25/25/25
f 213/213/213 25/25/25 8/8/8
f 213/213/213 8/8/8 2/2/2
f 213/213/213 2/2/2 6/6/6
f 213/213/213 6/6/6 23/23/23
f 213/213/213 23/23/23 78/78/78
f 213/213/213 78/78/78 160/160/160
f 213/213/213 160/160/160 211/211/211
f 213/213/213 211/211/211 312/312/312
f 213/213/213 312/312/312 394/394/394
f 213/213/213 394/394/394 456/456/456
f 213/213/213 456/456/456 476/476/476
f 213/213/213 476/476/476 484/484/484
f 485/485/485 483/483/483 479/479/479
f 485/485/485 489/489/489 483/483/483
f 479/479/479 463/463/463 459/459/459
f 479/479/479 483/483/483 463/463/463
f 459/459/459 401/401/401 397/397/397
f 459/459/459 463/463/463 401/401/401
f 397/397/397 319/319/319 315/315/315
f 397/397/397 401/401/401 319/319/319
f 315/315/315 218/218/218 215/215/215
f 315/315/315 319/319/319 218/218/218
f 215/215/215 165/165/165 161/161/161
f 215/215/215 218/218/218 165/165/165
f 161/161/161 83/83/83 79/79/79
f 161/161/161 165/165/165 83/83/83
f 79/79/79 28/28/28 24/24/24
f 79/79/79 83/83/83 28/28/28
f 24/24/24 11/11/11 7/7/7
f 24/24/24 28/28/28 11/11/11
f 7/7/7 3/3/3 1/1/1
f 7/7/7 11/11/11 3/3/3
f 1/1/1 9/9/9 5/5/5
f 1/1/1 3/3/3 9/9/9
f 5/5/5 26/26/26 22/22/22
f 5/5/5 9/9/9 26/26/26
f 22/22/22 81/81/81 77/77/77
f 22/22/22 26/26/26 81/81/81
f 77/77/77 163/163/163 159/159/159
f 77/77/77 81/81/81 163/163/163
f 159/159/159 216/216/216 212/212/212
f 159/159/159 163/163/163 216/216/216
f 212/212/212 317/317/317 313/313/313
f 212/212/212 216/216/216 317/317/317
f 313/313/313 399/399/399 395/395/395
f 313/313/313 317/317/317 399/399/399
f 395/395/395 461/461/461 457/457/457
f 395/395/395 399/399/399 461/461/461
f 457/457/457 481/481/481 477/477/477
f 457/457/457 461/461/461 481/481/481
f 477/477/477 490/490/490 486/486/486
f 477/477/477 481/481/481 490/490/490
f 487/487/487 404/404/404 482/482/482
f 487/487/487 422/422/422 404/404/404
f 482/482/482 368/368/368 462/462/462
f 482/482/482 404/404/404 368/368/368
f 462/462/462 330/330/330 400/400/400
f 462/462/462 368/368/368 330/330/330
f 400/400/400 286/286/286 318/318/318
f 400/400/400 330/330/330 286/286/286
f 318/318/318 223/223/223 219/219/219
f 318/318/318 286/286/286 223/223/223
f 219/219/219 192/192/192 166/166/166
f 219/219/219 223/223/223 192/192/192
f 166/166/166 148/148/148 84/84/84
f 166/166/166 192/192/192 148/148/148
f 84/84/84 110/110/110 29/29/29
f 84/84/84 148/148/148 110/110/110
f 29/29/29 74/74/74 12/12/12
f 29/29/29 110/110/110 74/74/74
f 12/12/12 57/57/57 4/4/4
f 12/12/12 74/74/74 57/57/57
f 4/4/4 72/72/72 10/10/10
f 4/4/4 57/57/57 72/72/72
f 10/10/10 108/108/108 27/27/27
f 10/10/10 72/72/72 108/108/108
f 27/27/27 146/146/146 82/82/82
f 27/27/27 108/108/108 146/146/146
f 82/82/82 190/190/190 164/164/164
f 82/82/82 146/146/146 190/190/190
f 164/164/164 221/221/221 217/217/217
f 164/164/164 190/190/190 221/221/221
f 217/217/217 284/284/284 316/316/316
f 217/217/217 221/221/221 284/284/284
f 316/316/316 328/328/328 398/398/398
f 316/316/316 284/284/284 328/328/328
f 398/398/398 366/366/366 460/460/460
f 398/398/398 328/328/328 366/366/366
f 460/460/460 402/402/402 480/480/480
f 460/460/460 366/366/366 402/402/402
f 480/480/480 423/423/423 488/488/488
f 480/480/480 402/402/402 423/423/423
f 424/424/424 407/407/407 405/405/405
f 424/424/424 426/426/426 407/407/407
f 405/405/405 371/371/371 369/369/369
f 405/405/405 407/407/407 371/371/371
f 369/369/369 333/333/333 331/331/331
f 369/369/369 371/371/371 333/333/333
f 331/331/331 289/289/289 287/287/287
f 331/331/331 333/333/333 289/289/289
f 287/287/287 241/241/241 222/222/222
f 287/287/287 289/289/289 241/241/241
f 222/222/222 194/194/194 191/191/191
f 222/222/222 241/241/241 194/194/194
f 191/191/191 150/150/150 147/147/147
f 191/191/191 194/194/194 150/150/150
f 147/147/147 112/112/112 109/109/109
f 147/147/147 150/150/150 112/112/112
f 109/109/109 76/76/76 73/73/73
f 109/109/109 112/112/112 76/76/76
f 73/73/73 58/58/58 56/56/56
f 73/73/73 76/76/76 58/58/58
f 56/56/56 75/75/75 71/71/71
f 56/56/56 58/58/58 75/75/75
f 71/71/71 111/111/111 107/107/107
f 71/71/71 75/75/75 111/111/111
f 107/107/107 149/149/149 145/145/145
f 107/107/107 111/111/111 149/149/149
f 145/145/145 193/193/193 189/189/189
f 145/145/145 149/149/149 193/193/193
f 189/189/189 240/240/240 220/220/220
f 189/189/189 193/193/193 240/240/240
f 220/220/220 288/288/288 285/285/285
f 220/220/220 240/240/240 288/288/288
f 285/285/285 332/332/332 329/329/329
f 285/285/285 288/288/288 332/332/332
f 329/329/329 370/370/370 367/367/367
f 329/329/329 332/332/332 370/370/370
f 367/367/367 406/406/406 403/403/403
f 367/367/367 370/370/370 406/406/406
f 403/403/403 427/427/427 425/425/425
f 403/403/403 406/406/406 427/427/427
f 426/426/426 465/465/465 407/407/407
f 426/426/426 470/470/470 465/465/465
f 407/407/407 451/451/451 371/371/371
f 407/407/407 465/465/465 451/451/451
f 371/371/371 373/373/373 333/333/333
f 371/371/371 451/451/451 373/373/373
f 333/333/333 307/307/307 289/289/289
f 333/333/333 373/373/373 307/307/307
f 289/289/289 243/243/243 241/241/241
f 289/289/289 307/307/307 243/243/243
f 241/241/241 168/168/168 194/194/194
f 241/241/241 243/243/243 168/168/168
f 194/194/194 102/102/102 150/150/150
f 194/194/194 168/168/168 102/102/102
f 150/150/150 31/31/31 112/112/112
f 150/150/150 102/102/102 31/31/31
f 112/112/112 17/17/17 76/76/76
f 112/112/112 31/31/31 17/17/17
f 76/76/76 13/13/13 58/58/58
f 76/76/76 17/17/17 13/13/13
f 58/58/58 16/16/16 75/75/75
f 58/58/58 13/13/13 16/16/16
f 75/75/75 30/30/30 111/111/111
f 75/75/75 16/16/16 30/30/30
f 111/111/111 101/101/101 149/149/149
f 111/111/111 30/30/30 101/101/101
f 149/149/149 167/167/167 193/193/193
f 149/149/149 101/101/101 167/167/167
f 193/193/193 242/242/242 240/240/240
f 193/193/193 167/167/167 242/242/242
f 240/240/240 306/306/306 288/288/288
f 240/240/240 242/242/242 306/306/306
f 288/288/288 372/372/372 332/332/332
f 288/288/288 306/306/306 372/372/372
f 332/332/332 450/450/450 370/370/370
f 332/332/332 372/372/372 450/450/450
f 370/370/370 464/464/464 406/406/406
f 370/370/370 450/450/450 464/464/464
f 406/406/406 471/471/471 427/427/427
f 406/406/406 464/464/464 471/471/471
f 470/470/470 469/469/469 465/465/465
f 470/470/470 474/474/474 469/469/469
f 465/465/465 455/455/455 451/451/451
f 465/465/465 469/469/469 455/455/455
f 451/451/451 377/377/377 373/373/373
f 451/451/451 455/455/455 377/377/377
f 373/373/373 311/311/311 307/307/307
f 373/373/373 377/377/377 311/311/311
f 307/307/307 246/246/246 243/243/243
f 307/307/307 311/311/311 246/246/246
f 243/243/243 171/171/171 168/168/168
f 243/243/243 246/246/246 171/171/171
f 168/168/168 105/105/105 102/102/102
f 168/168/168 171/171/171 105/105/105
f 102/102/102 34/34/34 31/31/31
f 102/102/102 105/105/105 34/34/34
f 31/31/31 20/20/20 17/17/17
f 31/31/31 34/34/34 20/20/20
f 17/17/17 14/14/14 13/13/13
f 17/17/17 20/20/20 14/14/14
f 13/13/13 18/18/18 16/16/16
f 13/13/13 14/14/14 18/18/18
f 16/16/16 32/32/32 30/30/30
f 16/16/16 18/18/18 32/32/32
f 30/30/30 103/103/103 101/101/101
f 30/30/30 32/32/32 103/103/103
f 101/101/101 169/169/169 167/167/167
f 101/101/101 103/103/103 169/169/169
f 167/167/167 244/244/244 242/242/242
f 167/167/167 169/169/169 244/244/244
f 242/242/242 309/309/309 306/306/306
f 242/242/242 244/244/244 309/309/309
f 306/306/306 375/375/375 372/372/372
f 306/306/306 309/309/309 375/375/375
f 372/372/372 453/453/453 450/450/450
f 372/372/372 375/375/375 453/453/453
f 450/450/450 467/467/467 464/464/464
f 450/450/450 453/453/453 467/467/467
f 464/464/464 475/475/475 471/471/471
f 464/464/464 467/467/467 475/475/475
f 472/472/472 266/266/266 468/468/468
f 468/468/468 264/264/264 454/454/454
f 454/454/454 262/262/262 376/376/376
f 376/376/376 260/260/260 310/310/310
f 310/310/310 258/258/258 247/247/247
f 247/247/247 256/256/256 172/172/172
f 172/172/172 254/254/254 106/106/106
f 106/106/106 252/252/252 35/35/35
f 35/35/35 250/250/250 21/21/21
f 21/21/21 248/248/248 15/15/15
f 15/15/15 249/249/249 19/19/19
f 19/19/19 251/251/251 33/33/33
f 33/33/33 253/253/253 104/104/104
f 104/104/104 255/255/255 170/170/170
f 170/170/170 257/257/257 245/245/245
f 245/245/245 259/259/259 308/308/308
f 308/308/308 261/261/261 374/374/374
f 374/374/374 263/263/263 452/452/452
f 452/452/452 265/265/265 466/466/466
f 466/466/466 267/267/267 473/473/473
