# metres; Y up; ground-centred pivot
mtllib 15_Senal_Blanca.mtl
v -0.6750000 1.2168000 -0.0232000
v -0.6750000 1.2168000 -0.0232000
v -0.6750000 1.2168000 0.0232000
v -0.6750000 1.2168000 0.0232000
v -0.6750000 1.2168000 0.0232000
v -0.6750000 1.4032000 -0.0232000
v -0.6750000 1.4032000 -0.0232000
v -0.6750000 1.4032000 -0.0232000
v -0.6750000 1.4032000 0.0232000
v -0.6750000 1.4032000 0.0232000
v -0.6750000 1.4032000 0.0232000
v -0.6582000 1.2000000 -0.0232000
v -0.6582000 1.2000000 0.0232000
v -0.6582000 1.2168000 -0.0400000
v -0.6582000 1.2168000 -0.0400000
v -0.6582000 1.2168000 0.0400000
v -0.6582000 1.2168000 0.0400000
v -0.6582000 1.4032000 -0.0400000
v -0.6582000 1.4032000 -0.0400000
v -0.6582000 1.4032000 0.0400000
v -0.6582000 1.4032000 0.0400000
v -0.6582000 1.4200000 -0.0232000
v -0.6582000 1.4200000 0.0232000
v -0.3650000 1.5368000 -0.0232000
v -0.3650000 1.5368000 -0.0232000
v -0.3650000 1.5368000 0.0232000
v -0.3650000 1.5368000 0.0232000
v -0.3650000 1.5368000 0.0232000
v -0.3650000 1.7232000 -0.0232000
v -0.3650000 1.7232000 -0.0232000
v -0.3650000 1.7232000 -0.0232000
v -0.3650000 1.7232000 0.0232000
v -0.3650000 1.7232000 0.0232000
v -0.3650000 1.7232000 0.0232000
v -0.3482000 1.5200000 -0.0232000
v -0.3482000 1.5200000 0.0232000
v -0.3482000 1.5368000 -0.0400000
v -0.3482000 1.5368000 -0.0400000
v -0.3482000 1.5368000 0.0400000
v -0.3482000 1.5368000 0.0400000
v -0.3482000 1.7232000 -0.0400000
v -0.3482000 1.7232000 -0.0400000
v -0.3482000 1.7232000 0.0400000
v -0.3482000 1.7232000 0.0400000
v -0.3482000 1.7400000 -0.0232000
v -0.3482000 1.7400000 0.0232000
v -0.0750000 0.0200000 -0.0400000
v -0.0750000 0.0200000 0.0400000
v -0.0750000 1.8800000 -0.0400000
v -0.0750000 1.8800000 0.0400000
v -0.0550000 0.0000000 -0.0400000
v -0.0550000 0.0000000 -0.0400000
v -0.0550000 0.0000000 0.0400000
v -0.0550000 0.0000000 0.0400000
v -0.0550000 0.0000000 0.0400000
v -0.0550000 0.0200000 -0.0600000
v -0.0550000 0.0200000 -0.0600000
v -0.0550000 0.0200000 0.0600000
v -0.0550000 0.0200000 0.0600000
v -0.0550000 1.8800000 -0.0600000
v -0.0550000 1.8800000 -0.0600000
v -0.0550000 1.8800000 0.0600000
v -0.0550000 1.8800000 0.0600000
v -0.0550000 1.9000000 -0.0400000
v -0.0550000 1.9000000 -0.0400000
v -0.0550000 1.9000000 0.0400000
v -0.0550000 1.9000000 0.0400000
v -0.0550000 1.9000000 0.0400000
v 0.0250000 0.0000000 -0.0400000
v 0.0250000 0.0000000 -0.0400000
v 0.0250000 0.0000000 -0.0400000
v 0.0250000 0.0000000 0.0400000
v 0.0250000 0.0000000 0.0400000
v 0.0250000 0.0200000 -0.0600000
v 0.0250000 0.0200000 -0.0600000
v 0.0250000 0.0200000 0.0600000
v 0.0250000 0.0200000 0.0600000
v 0.0250000 1.8800000 -0.0600000
v 0.0250000 1.8800000 -0.0600000
v 0.0250000 1.8800000 0.0600000
v 0.0250000 1.8800000 0.0600000
v 0.0250000 1.9000000 -0.0400000
v 0.0250000 1.9000000 -0.0400000
v 0.0250000 1.9000000 -0.0400000
v 0.0250000 1.9000000 0.0400000
v 0.0250000 1.9000000 0.0400000
v 0.0450000 0.0200000 -0.0400000
v 0.0450000 0.0200000 0.0400000
v 0.0450000 1.8800000 -0.0400000
v 0.0450000 1.8800000 0.0400000
v 0.3482000 1.2000000 -0.0232000
v 0.3482000 1.2000000 0.0232000
v 0.3482000 1.2168000 -0.0400000
v 0.3482000 1.2168000 -0.0400000
v 0.3482000 1.2168000 0.0400000
v 0.3482000 1.2168000 0.0400000
v 0.3482000 1.4032000 -0.0400000
v 0.3482000 1.4032000 -0.0400000
v 0.3482000 1.4032000 0.0400000
v 0.3482000 1.4032000 0.0400000
v 0.3482000 1.4200000 -0.0232000
v 0.3482000 1.4200000 0.0232000
v 0.3650000 1.2168000 -0.0232000
v 0.3650000 1.2168000 -0.0232000
v 0.3650000 1.2168000 0.0232000
v 0.3650000 1.2168000 0.0232000
v 0.3650000 1.2168000 0.0232000
v 0.3650000 1.4032000 -0.0232000
v 0.3650000 1.4032000 -0.0232000
v 0.3650000 1.4032000 -0.0232000
v 0.3650000 1.4032000 0.0232000
v 0.3650000 1.4032000 0.0232000
v 0.3650000 1.4032000 0.0232000
v 0.6582000 1.5200000 -0.0232000
v 0.6582000 1.5200000 0.0232000
v 0.6582000 1.5368000 -0.0400000
v 0.6582000 1.5368000 -0.0400000
v 0.6582000 1.5368000 0.0400000
v 0.6582000 1.5368000 0.0400000
v 0.6582000 1.7232000 -0.0400000
v 0.6582000 1.7232000 -0.0400000
v 0.6582000 1.7232000 0.0400000
v 0.6582000 1.7232000 0.0400000
v 0.6582000 1.7400000 -0.0232000
v 0.6582000 1.7400000 0.0232000
v 0.6750000 1.5368000 -0.0232000
v 0.6750000 1.5368000 -0.0232000
v 0.6750000 1.5368000 0.0232000
v 0.6750000 1.5368000 0.0232000
v 0.6750000 1.5368000 0.0232000
v 0.6750000 1.7232000 -0.0232000
v 0.6750000 1.7232000 -0.0232000
v 0.6750000 1.7232000 -0.0232000
v 0.6750000 1.7232000 0.0232000
v 0.6750000 1.7232000 0.0232000
v 0.6750000 1.7232000 0.0232000
vt 0.0655905 0.0359796
vt 0.0655905 0.0409208
vt 0.0655905 0.0359796
vt 0.1318762 0.0359796
vt 0.1318762 0.0409208
vt 0.0655905 0.0359796
vt 0.0655905 0.0957443
vt 0.3318762 0.0359796
vt 0.1318762 0.0359796
vt 0.1318762 0.0957443
vt 0.3318762 0.0359796
vt 0.0655905 0.0409208
vt 0.1318762 0.0409208
vt 0.0415905 0.0409208
vt 0.0655905 0.0409208
vt 0.0655905 0.0409208
vt 0.1558762 0.0409208
vt 0.0415905 0.0409208
vt 0.3318762 0.0409208
vt 0.1558762 0.0409208
vt 0.3318762 0.0409208
vt 0.0655905 0.0409208
vt 0.1318762 0.0409208
vt 0.1419433 0.1027631
vt 0.1419433 0.1077043
vt 0.1419433 0.1027631
vt 0.2082290 0.1027631
vt 0.2082290 0.1077043
vt 0.1419433 0.1027631
vt 0.1419433 0.1625278
vt 0.4082290 0.1027631
vt 0.2082290 0.1027631
vt 0.2082290 0.1625278
vt 0.4082290 0.1027631
vt 0.1419433 0.1077043
vt 0.2082290 0.1077043
vt 0.1179433 0.1077043
vt 0.1419433 0.1077043
vt 0.1419433 0.1077043
vt 0.2322290 0.1077043
vt 0.1179433 0.1077043
vt 0.4082290 0.1077043
vt 0.2322290 0.1077043
vt 0.4082290 0.1077043
vt 0.1419433 0.1077043
vt 0.2082290 0.1077043
vt 0.0553093 0.0297016
vt 0.1695950 0.0297016
vt 0.0553093 0.5767604
vt 0.1695950 0.5767604
vt 0.0553093 0.0238192
vt 0.0553093 0.0297016
vt 0.0553093 0.0238192
vt 0.1695950 0.0238192
vt 0.1695950 0.0297016
vt 0.0267379 0.0297016
vt 0.0553093 0.0297016
vt 0.0553093 0.0297016
vt 0.1981665 0.0297016
vt 0.0267379 0.5767604
vt 0.0553093 0.5767604
vt 0.0553093 0.5767604
vt 0.1981665 0.5767604
vt 0.0553093 0.0297016
vt 0.0553093 0.5826428
vt 0.0553093 0.5826428
vt 0.1695950 0.0297016
vt 0.1695950 0.5826428
vt 0.0553093 0.0238192
vt 0.0553093 0.0532310
vt 0.1695950 0.0238192
vt 0.1695950 0.0238192
vt 0.1695950 0.0532310
vt 0.0267379 0.0297016
vt 0.1695950 0.0297016
vt 0.1695950 0.0297016
vt 0.1981665 0.0297016
vt 0.0267379 0.5767604
vt 0.1695950 0.5767604
vt 0.1695950 0.5767604
vt 0.1981665 0.5767604
vt 0.0553093 0.0532310
vt 0.0553093 0.5826428
vt 0.1695950 0.5826428
vt 0.1695950 0.0532310
vt 0.1695950 0.5826428
vt 0.0553093 0.0297016
vt 0.1695950 0.0297016
vt 0.0553093 0.5767604
vt 0.1695950 0.5767604
vt 0.0655905 0.3369208
vt 0.1318762 0.3369208
vt 0.0415905 0.3369208
vt 0.0655905 0.3369208
vt 0.0655905 0.3369208
vt 0.1558762 0.3369208
vt 0.0415905 0.3369208
vt 0.3318762 0.3369208
vt 0.1558762 0.3369208
vt 0.3318762 0.3369208
vt 0.0655905 0.3369208
vt 0.1318762 0.3369208
vt 0.0655905 0.0409208
vt 0.0655905 0.3418620
vt 0.0655905 0.3418620
vt 0.1318762 0.0409208
vt 0.1318762 0.3418620
vt 0.0655905 0.0957443
vt 0.0655905 0.3418620
vt 0.3318762 0.3418620
vt 0.1318762 0.0957443
vt 0.1318762 0.3418620
vt 0.3318762 0.3418620
vt 0.1419433 0.4037043
vt 0.2082290 0.4037043
vt 0.1179433 0.4037043
vt 0.1419433 0.4037043
vt 0.1419433 0.4037043
vt 0.2322290 0.4037043
vt 0.1179433 0.4037043
vt 0.4082290 0.4037043
vt 0.2322290 0.4037043
vt 0.4082290 0.4037043
vt 0.1419433 0.4037043
vt 0.2082290 0.4037043
vt 0.1419433 0.1077043
vt 0.1419433 0.4086455
vt 0.1419433 0.4086455
vt 0.2082290 0.1077043
vt 0.2082290 0.4086455
vt 0.1419433 0.1625278
vt 0.1419433 0.4086455
vt 0.4082290 0.4086455
vt 0.2082290 0.1625278
vt 0.2082290 0.4086455
vt 0.4082290 0.4086455
vn -0.9265954 -0.1018381 -0.3620083
vn -0.9265954 -0.1018381 -0.3620083
vn -0.9655996 -0.0416378 0.2566784
vn -0.9655996 -0.0416378 0.2566784
vn -0.9655996 -0.0416378 0.2566784
vn -0.9851707 0.0814511 -0.1510116
vn -0.9851707 0.0814511 -0.1510116
vn -0.9851707 0.0814511 -0.1510116
vn -0.9633673 0.0796485 0.2560850
vn -0.9633673 0.0796485 0.2560850
vn -0.9633673 0.0796485 0.2560850
vn -0.0094222 -0.9882517 -0.1525442
vn -0.0272014 -0.9668359 0.2539458
vn -0.0150109 -0.1499320 -0.9885824
vn -0.0150109 -0.1499320 -0.9885824
vn -0.0150109 -0.1499320 0.9885824
vn -0.0150109 -0.1499320 0.9885824
vn -0.0156963 0.0817692 -0.9965277
vn -0.0156963 0.0817692 -0.9965277
vn -0.0156963 0.0817692 0.9965277
vn -0.0156963 0.0817692 0.9965277
vn -0.0094222 0.9882517 -0.1525442
vn -0.0272014 0.9668359 0.2539458
vn -0.9265954 -0.1018381 -0.3620083
vn -0.9265954 -0.1018381 -0.3620083
vn -0.9655996 -0.0416378 0.2566784
vn -0.9655996 -0.0416378 0.2566784
vn -0.9655996 -0.0416378 0.2566784
vn -0.9851707 0.0814511 -0.1510116
vn -0.9851707 0.0814511 -0.1510116
vn -0.9851707 0.0814511 -0.1510116
vn -0.9633673 0.0796485 0.2560850
vn -0.9633673 0.0796485 0.2560850
vn -0.9633673 0.0796485 0.2560850
vn -0.0094222 -0.9882517 -0.1525442
vn -0.0272014 -0.9668359 0.2539458
vn -0.0150109 -0.1499320 -0.9885824
vn -0.0150109 -0.1499320 -0.9885824
vn -0.0150109 -0.1499320 0.9885824
vn -0.0150109 -0.1499320 0.9885824
vn -0.0156963 0.0817692 -0.9965277
vn -0.0156963 0.0817692 -0.9965277
vn -0.0156963 0.0817692 0.9965277
vn -0.0156963 0.0817692 0.9965277
vn -0.0094222 0.9882517 -0.1525442
vn -0.0272014 0.9668359 0.2539458
vn -0.9495756 -0.0150726 -0.3131757
vn -0.9805672 -0.0052437 0.1961134
vn -0.9938282 0.0105726 -0.1104254
vn -0.9805273 0.0104311 0.1961055
vn -0.1201770 -0.9854517 -0.1201770
vn -0.1201770 -0.9854517 -0.1201770
vn -0.2924607 -0.9423734 0.1624782
vn -0.2924607 -0.9423734 0.1624782
vn -0.2924607 -0.9423734 0.1624782
vn -0.1944903 -0.0186214 -0.9807277
vn -0.1944903 -0.0186214 -0.9807277
vn -0.1944903 -0.0186214 0.9807277
vn -0.1944903 -0.0186214 0.9807277
vn -0.1953040 0.0093997 -0.9806977
vn -0.1953040 0.0093997 -0.9806977
vn -0.1953040 0.0093997 0.9806977
vn -0.1953040 0.0093997 0.9806977
vn -0.1201770 0.9854517 -0.1201770
vn -0.1201770 0.9854517 -0.1201770
vn -0.2924607 0.9423734 0.1624782
vn -0.2924607 0.9423734 0.1624782
vn -0.2924607 0.9423734 0.1624782
vn 0.1624782 -0.9423734 -0.2924607
vn 0.1624782 -0.9423734 -0.2924607
vn 0.1624782 -0.9423734 -0.2924607
vn 0.1777740 -0.9678806 0.1777740
vn 0.1777740 -0.9678806 0.1777740
vn 0.1109478 -0.0059015 -0.9938087
vn 0.1109478 -0.0059015 -0.9938087
vn 0.1109478 -0.0059015 0.9938087
vn 0.1109478 -0.0059015 0.9938087
vn 0.3152050 0.0084279 -0.9489862
vn 0.3152050 0.0084279 -0.9489862
vn 0.3152050 0.0084279 0.9489862
vn 0.3152050 0.0084279 0.9489862
vn 0.1624782 0.9423734 -0.2924607
vn 0.1624782 0.9423734 -0.2924607
vn 0.1624782 0.9423734 -0.2924607
vn 0.1777740 0.9678806 0.1777740
vn 0.1777740 0.9678806 0.1777740
vn 0.9495756 -0.0150726 -0.3131757
vn 0.9805672 -0.0052437 0.1961134
vn 0.9938282 0.0105726 -0.1104254
vn 0.9805273 0.0104311 0.1961055
vn 0.0120082 -0.9225753 -0.3856302
vn 0.0137932 -0.9667301 0.2554266
vn 0.0164016 -0.0430753 -0.9989372
vn 0.0164016 -0.0430753 -0.9989372
vn 0.0086229 -0.0434200 0.9990197
vn 0.0086229 -0.0434200 0.9990197
vn 0.0163611 0.0823850 -0.9964663
vn 0.0163611 0.0823850 -0.9964663
vn 0.0308964 0.0811428 0.9962235
vn 0.0308964 0.0811428 0.9962235
vn 0.0120082 0.9225753 -0.3856302
vn 0.0137932 0.9667301 0.2554266
vn 0.9617709 -0.1300045 -0.2410302
vn 0.9617709 -0.1300045 -0.2410302
vn 0.9655996 -0.0416378 0.2566784
vn 0.9655996 -0.0416378 0.2566784
vn 0.9655996 -0.0416378 0.2566784
vn 0.9659940 0.0700200 -0.2489033
vn 0.9659940 0.0700200 -0.2489033
vn 0.9659940 0.0700200 -0.2489033
vn 0.9633673 0.0796485 0.2560850
vn 0.9633673 0.0796485 0.2560850
vn 0.9633673 0.0796485 0.2560850
vn 0.0120082 -0.9225753 -0.3856302
vn 0.0137932 -0.9667301 0.2554266
vn 0.0164016 -0.0430753 -0.9989372
vn 0.0164016 -0.0430753 -0.9989372
vn 0.0086229 -0.0434200 0.9990197
vn 0.0086229 -0.0434200 0.9990197
vn 0.0163611 0.0823850 -0.9964663
vn 0.0163611 0.0823850 -0.9964663
vn 0.0308964 0.0811428 0.9962235
vn 0.0308964 0.0811428 0.9962235
vn 0.0120082 0.9225753 -0.3856302
vn 0.0137932 0.9667301 0.2554266
vn 0.9617709 -0.1300045 -0.2410302
vn 0.9617709 -0.1300045 -0.2410302
vn 0.9655996 -0.0416378 0.2566784
vn 0.9655996 -0.0416378 0.2566784
vn 0.9655996 -0.0416378 0.2566784
vn 0.9659940 0.0700200 -0.2489033
vn 0.9659940 0.0700200 -0.2489033
vn 0.9659940 0.0700200 -0.2489033
vn 0.9633673 0.0796485 0.2560850
vn 0.9633673 0.0796485 0.2560850
vn 0.9633673 0.0796485 0.2560850
o 15_Senal_Blanca_Wood
usemtl Wood
s 1
f 51/51/51 47/47/47 56/56/56
f 63/63/63 68/68/68 50/50/50
f 78/78/78 83/83/83 89/89/89
f 86/86/86 81/81/81 90/90/90
f 54/54/54 59/59/59 48/48/48
f 60/60/60 49/49/49 65/65/65
f 69/69/69 74/74/74 87/87/87
f 72/72/72 88/88/88 77/77/77
f 49/49/49 47/47/47 48/48/48
f 49/49/49 48/48/48 50/50/50
f 68/68/68 49/49/49 50/50/50
f 68/68/68 65/65/65 49/49/49
f 88/88/88 89/89/89 90/90/90
f 88/88/88 87/87/87 89/89/89
f 81/81/81 77/77/77 88/88/88
f 81/81/81 88/88/88 90/90/90
f 63/63/63 50/50/50 48/48/48
f 63/63/63 48/48/48 59/59/59
f 62/62/62 76/76/76 80/80/80
f 62/62/62 58/58/58 76/76/76
f 78/78/78 89/89/89 87/87/87
f 78/78/78 87/87/87 74/74/74
f 86/86/86 62/62/62 80/80/80
f 86/86/86 66/66/66 62/62/62
f 85/85/85 64/64/64 67/67/67
f 85/85/85 82/82/82 64/64/64
f 86/86/86 90/90/90 89/89/89
f 86/86/86 89/89/89 83/83/83
f 54/54/54 48/48/48 47/47/47
f 54/54/54 47/47/47 51/51/51
f 61/61/61 65/65/65 84/84/84
f 61/61/61 84/84/84 79/79/79
f 60/60/60 47/47/47 49/49/49
f 60/60/60 56/56/56 47/47/47
f 61/61/61 79/79/79 75/75/75
f 61/61/61 75/75/75 57/57/57
f 71/71/71 57/57/57 75/75/75
f 71/71/71 51/51/51 57/57/57
f 72/72/72 76/76/76 58/58/58
f 72/72/72 58/58/58 53/53/53
f 73/73/73 55/55/55 52/52/52
f 73/73/73 52/52/52 70/70/70
f 72/72/72 87/87/87 88/88/88
f 72/72/72 69/69/69 87/87/87
f 35/35/35 24/24/24 37/37/37
f 125/125/125 122/122/122 135/135/135
f 43/43/43 46/46/46 32/32/32
f 132/132/132 120/120/120 124/124/124
f 41/41/41 29/29/29 45/45/45
f 36/36/36 40/40/40 27/27/27
f 114/114/114 116/116/116 127/127/127
f 115/115/115 130/130/130 119/119/119
f 30/30/30 25/25/25 28/28/28
f 30/30/30 28/28/28 33/33/33
f 46/46/46 29/29/29 32/32/32
f 46/46/46 45/45/45 29/29/29
f 125/125/125 45/45/45 46/46/46
f 125/125/125 124/124/124 45/45/45
f 44/44/44 34/34/34 26/26/26
f 44/44/44 26/26/26 39/39/39
f 44/44/44 39/39/39 118/118/118
f 44/44/44 118/118/118 123/123/123
f 43/43/43 125/125/125 46/46/46
f 43/43/43 122/122/122 125/125/125
f 128/128/128 123/123/123 118/118/118
f 128/128/128 136/136/136 123/123/123
f 131/131/131 134/134/134 129/129/129
f 131/131/131 129/129/129 126/126/126
f 133/133/133 127/127/127 117/117/117
f 133/133/133 117/117/117 121/121/121
f 132/132/132 124/124/124 125/125/125
f 132/132/132 125/125/125 135/135/135
f 41/41/41 45/45/45 124/124/124
f 41/41/41 124/124/124 120/120/120
f 42/42/42 121/121/121 117/117/117
f 42/42/42 117/117/117 38/38/38
f 42/42/42 24/24/24 31/31/31
f 42/42/42 38/38/38 24/24/24
f 36/36/36 27/27/27 24/24/24
f 36/36/36 24/24/24 35/35/35
f 114/114/114 37/37/37 116/116/116
f 114/114/114 35/35/35 37/37/37
f 115/115/115 127/127/127 130/130/130
f 115/115/115 114/114/114 127/127/127
f 115/115/115 119/119/119 40/40/40
f 115/115/115 40/40/40 36/36/36
f 115/115/115 36/36/36 35/35/35
f 115/115/115 35/35/35 114/114/114
f 12/12/12 1/1/1 14/14/14
f 102/102/102 99/99/99 112/112/112
f 20/20/20 23/23/23 9/9/9
f 109/109/109 97/97/97 101/101/101
f 18/18/18 6/6/6 22/22/22
f 13/13/13 17/17/17 4/4/4
f 91/91/91 93/93/93 104/104/104
f 92/92/92 107/107/107 96/96/96
f 7/7/7 2/2/2 5/5/5
f 7/7/7 5/5/5 10/10/10
f 23/23/23 6/6/6 9/9/9
f 23/23/23 22/22/22 6/6/6
f 102/102/102 22/22/22 23/23/23
f 102/102/102 101/101/101 22/22/22
f 21/21/21 11/11/11 3/3/3
f 21/21/21 3/3/3 16/16/16
f 21/21/21 16/16/16 95/95/95
f 21/21/21 95/95/95 100/100/100
f 20/20/20 102/102/102 23/23/23
f 20/20/20 99/99/99 102/102/102
f 105/105/105 100/100/100 95/95/95
f 105/105/105 113/113/113 100/100/100
f 108/108/108 111/111/111 106/106/106
f 108/108/108 106/106/106 103/103/103
f 110/110/110 104/104/104 94/94/94
f 110/110/110 94/94/94 98/98/98
f 109/109/109 101/101/101 102/102/102
f 109/109/109 102/102/102 112/112/112
f 18/18/18 22/22/22 101/101/101
f 18/18/18 101/101/101 97/97/97
f 19/19/19 98/98/98 94/94/94
f 19/19/19 94/94/94 15/15/15
f 19/19/19 1/1/1 8/8/8
f 19/19/19 15/15/15 1/1/1
f 13/13/13 4/4/4 1/1/1
f 13/13/13 1/1/1 12/12/12
f 91/91/91 14/14/14 93/93/93
f 91/91/91 12/12/12 14/14/14
f 92/92/92 104/104/104 107/107/107
f 92/92/92 91/91/91 104/104/104
f 92/92/92 96/96/96 17/17/17
f 92/92/92 17/17/17 13/13/13
f 92/92/92 13/13/13 12/12/12
f 92/92/92 12/12/12 91/91/91
