# metres; Y up; ground-centred pivot
mtllib 25_Abrevadero.mtl
v -0.9100000 0.1736000 -0.2914000
v -0.9100000 0.1736000 -0.2914000
v -0.9100000 0.1736000 0.2914000
v -0.9100000 0.1736000 0.2914000
v -0.9100000 0.6064000 -0.2914000
v -0.9100000 0.6064000 -0.2914000
v -0.9100000 0.6064000 0.2914000
v -0.9100000 0.6064000 0.2914000
v -0.9000000 0.1694000 -0.3906000
v -0.9000000 0.1694000 -0.3094000
v -0.9000000 0.1694000 0.3094000
v -0.9000000 0.1694000 0.3906000
v -0.9000000 0.6106000 -0.3906000
v -0.9000000 0.6106000 -0.3094000
v -0.9000000 0.6106000 0.3094000
v -0.9000000 0.6106000 0.3906000
v -0.8764000 0.1400000 -0.2914000
v -0.8764000 0.1400000 0.2914000
v -0.8764000 0.1736000 -0.3250000
v -0.8764000 0.1736000 -0.3250000
v -0.8764000 0.1736000 0.3250000
v -0.8764000 0.1736000 0.3250000
v -0.8764000 0.6064000 -0.3250000
v -0.8764000 0.6064000 -0.3250000
v -0.8764000 0.6064000 -0.3250000
v -0.8764000 0.6064000 0.3250000
v -0.8764000 0.6064000 0.3250000
v -0.8764000 0.6064000 0.3250000
v -0.8764000 0.6400000 -0.2914000
v -0.8764000 0.6400000 0.2914000
v -0.8750000 0.0533000 -0.3017000
v -0.8750000 0.0533000 -0.3017000
v -0.8750000 0.0533000 0.3017000
v -0.8750000 0.0533000 0.3017000
v -0.8750000 0.1867000 -0.3017000
v -0.8750000 0.1867000 -0.3017000
v -0.8750000 0.1867000 0.3017000
v -0.8750000 0.1867000 0.3017000
v -0.8706000 0.1400000 -0.3906000
v -0.8706000 0.1400000 -0.3906000
v -0.8706000 0.1400000 -0.3906000
v -0.8706000 0.1400000 -0.3094000
v -0.8706000 0.1400000 -0.3094000
v -0.8706000 0.1400000 -0.3094000
v -0.8706000 0.1400000 0.3094000
v -0.8706000 0.1400000 0.3094000
v -0.8706000 0.1400000 0.3094000
v -0.8706000 0.1400000 0.3906000
v -0.8706000 0.1400000 0.3906000
v -0.8706000 0.1400000 0.3906000
v -0.8706000 0.1694000 -0.4200000
v -0.8706000 0.1694000 -0.4200000
v -0.8706000 0.1694000 -0.2800000
v -0.8706000 0.1694000 -0.2800000
v -0.8706000 0.1694000 0.2800000
v -0.8706000 0.1694000 0.2800000
v -0.8706000 0.1694000 0.4200000
v -0.8706000 0.1694000 0.4200000
v -0.8706000 0.6106000 -0.4200000
v -0.8706000 0.6106000 -0.4200000
v -0.8706000 0.6106000 -0.2800000
v -0.8706000 0.6106000 -0.2800000
v -0.8706000 0.6106000 0.2800000
v -0.8706000 0.6106000 0.2800000
v -0.8706000 0.6106000 0.4200000
v -0.8706000 0.6106000 0.4200000
v -0.8706000 0.6400000 -0.3906000
v -0.8706000 0.6400000 -0.3906000
v -0.8706000 0.6400000 -0.3906000
v -0.8706000 0.6400000 -0.3094000
v -0.8706000 0.6400000 -0.3094000
v -0.8706000 0.6400000 -0.3094000
v -0.8706000 0.6400000 0.3094000
v -0.8706000 0.6400000 0.3094000
v -0.8706000 0.6400000 0.3094000
v -0.8706000 0.6400000 0.3906000
v -0.8706000 0.6400000 0.3906000
v -0.8706000 0.6400000 0.3906000
v -0.8267000 0.0050000 -0.3017000
v -0.8267000 0.0050000 0.3017000
v -0.8267000 0.0533000 -0.3500000
v -0.8267000 0.0533000 -0.3500000
v -0.8267000 0.0533000 -0.3500000
v -0.8267000 0.0533000 0.3500000
v -0.8267000 0.0533000 0.3500000
v -0.8267000 0.0533000 0.3500000
v -0.8267000 0.1867000 -0.3500000
v -0.8267000 0.1867000 -0.3500000
v -0.8267000 0.1867000 -0.3500000
v -0.8267000 0.1867000 0.3500000
v -0.8267000 0.1867000 0.3500000
v -0.8267000 0.1867000 0.3500000
v -0.8267000 0.2350000 -0.3017000
v -0.8267000 0.2350000 0.3017000
v -0.7836000 0.1400000 -0.2914000
v -0.7836000 0.1400000 0.2914000
v -0.7836000 0.1736000 -0.3250000
v -0.7836000 0.1736000 -0.3250000
v -0.7836000 0.1736000 -0.3250000
v -0.7836000 0.1736000 0.3250000
v -0.7836000 0.1736000 0.3250000
v -0.7836000 0.1736000 0.3250000
v -0.7836000 0.6064000 -0.3250000
v -0.7836000 0.6064000 -0.3250000
v -0.7836000 0.6064000 -0.3250000
v -0.7836000 0.6064000 0.3250000
v -0.7836000 0.6064000 0.3250000
v -0.7836000 0.6064000 0.3250000
v -0.7836000 0.6400000 -0.2914000
v -0.7836000 0.6400000 0.2914000
v -0.7500000 0.1736000 -0.2914000
v -0.7500000 0.1736000 -0.2914000
v -0.7500000 0.1736000 0.2914000
v -0.7500000 0.1736000 0.2914000
v -0.7500000 0.6064000 -0.2914000
v -0.7500000 0.6064000 -0.2914000
v -0.7500000 0.6064000 0.2914000
v -0.7500000 0.6064000 0.2914000
v -0.6950000 0.0252000 -0.2898000
v -0.6950000 0.0252000 0.2898000
v -0.6950000 0.0948000 -0.2898000
v -0.6950000 0.0948000 0.2898000
v -0.6698000 0.0000000 -0.2898000
v -0.6698000 0.0000000 -0.2898000
v -0.6698000 0.0000000 0.2898000
v -0.6698000 0.0000000 0.2898000
v -0.6698000 0.0252000 -0.3150000
v -0.6698000 0.0252000 -0.3150000
v -0.6698000 0.0252000 0.3150000
v -0.6698000 0.0252000 0.3150000
v -0.6698000 0.0948000 -0.3150000
v -0.6698000 0.0948000 -0.3150000
v -0.6698000 0.0948000 -0.3150000
v -0.6698000 0.0948000 0.3150000
v -0.6698000 0.0948000 0.3150000
v -0.6698000 0.0948000 0.3150000
v -0.6698000 0.1200000 -0.2898000
v -0.6698000 0.1200000 -0.2898000
v -0.6698000 0.1200000 0.2898000
v -0.6698000 0.1200000 0.2898000
v -0.4502000 0.0000000 -0.2898000
v -0.4502000 0.0000000 -0.2898000
v -0.4502000 0.0000000 0.2898000
v -0.4502000 0.0000000 0.2898000
v -0.4502000 0.0252000 -0.3150000
v -0.4502000 0.0252000 -0.3150000
v -0.4502000 0.0252000 -0.3150000
v -0.4502000 0.0252000 0.3150000
v -0.4502000 0.0252000 0.3150000
v -0.4502000 0.0252000 0.3150000
v -0.4502000 0.0948000 -0.3150000
v -0.4502000 0.0948000 -0.3150000
v -0.4502000 0.0948000 -0.3150000
v -0.4502000 0.0948000 0.3150000
v -0.4502000 0.0948000 0.3150000
v -0.4502000 0.0948000 0.3150000
v -0.4502000 0.1200000 -0.2898000
v -0.4502000 0.1200000 -0.2898000
v -0.4502000 0.1200000 0.2898000
v -0.4502000 0.1200000 0.2898000
v -0.4250000 0.0252000 -0.2898000
v -0.4250000 0.0252000 0.2898000
v -0.4250000 0.0948000 -0.2898000
v -0.4250000 0.0948000 0.2898000
v 0.4250000 0.0252000 -0.2898000
v 0.4250000 0.0252000 0.2898000
v 0.4250000 0.0948000 -0.2898000
v 0.4250000 0.0948000 0.2898000
v 0.4502000 0.0000000 -0.2898000
v 0.4502000 0.0000000 -0.2898000
v 0.4502000 0.0000000 0.2898000
v 0.4502000 0.0000000 0.2898000
v 0.4502000 0.0252000 -0.3150000
v 0.4502000 0.0252000 -0.3150000
v 0.4502000 0.0252000 0.3150000
v 0.4502000 0.0252000 0.3150000
v 0.4502000 0.0948000 -0.3150000
v 0.4502000 0.0948000 -0.3150000
v 0.4502000 0.0948000 -0.3150000
v 0.4502000 0.0948000 0.3150000
v 0.4502000 0.0948000 0.3150000
v 0.4502000 0.0948000 0.3150000
v 0.4502000 0.1200000 -0.2898000
v 0.4502000 0.1200000 -0.2898000
v 0.4502000 0.1200000 0.2898000
v 0.4502000 0.1200000 0.2898000
v 0.6698000 0.0000000 -0.2898000
v 0.6698000 0.0000000 -0.2898000
v 0.6698000 0.0000000 0.2898000
v 0.6698000 0.0000000 0.2898000
v 0.6698000 0.0252000 -0.3150000
v 0.6698000 0.0252000 -0.3150000
v 0.6698000 0.0252000 -0.3150000
v 0.6698000 0.0252000 0.3150000
v 0.6698000 0.0252000 0.3150000
v 0.6698000 0.0252000 0.3150000
v 0.6698000 0.0948000 -0.3150000
v 0.6698000 0.0948000 -0.3150000
v 0.6698000 0.0948000 -0.3150000
v 0.6698000 0.0948000 0.3150000
v 0.6698000 0.0948000 0.3150000
v 0.6698000 0.0948000 0.3150000
v 0.6698000 0.1200000 -0.2898000
v 0.6698000 0.1200000 -0.2898000
v 0.6698000 0.1200000 0.2898000
v 0.6698000 0.1200000 0.2898000
v 0.6950000 0.0252000 -0.2898000
v 0.6950000 0.0252000 0.2898000
v 0.6950000 0.0948000 -0.2898000
v 0.6950000 0.0948000 0.2898000
v 0.7500000 0.1736000 -0.2914000
v 0.7500000 0.1736000 -0.2914000
v 0.7500000 0.1736000 0.2914000
v 0.7500000 0.1736000 0.2914000
v 0.7500000 0.6064000 -0.2914000
v 0.7500000 0.6064000 -0.2914000
v 0.7500000 0.6064000 0.2914000
v 0.7500000 0.6064000 0.2914000
v 0.7836000 0.1400000 -0.2914000
v 0.7836000 0.1400000 0.2914000
v 0.7836000 0.1736000 -0.3250000
v 0.7836000 0.1736000 -0.3250000
v 0.7836000 0.1736000 0.3250000
v 0.7836000 0.1736000 0.3250000
v 0.7836000 0.6064000 -0.3250000
v 0.7836000 0.6064000 -0.3250000
v 0.7836000 0.6064000 -0.3250000
v 0.7836000 0.6064000 0.3250000
v 0.7836000 0.6064000 0.3250000
v 0.7836000 0.6064000 0.3250000
v 0.7836000 0.6400000 -0.2914000
v 0.7836000 0.6400000 0.2914000
v 0.8267000 0.0050000 -0.3017000
v 0.8267000 0.0050000 0.3017000
v 0.8267000 0.0533000 -0.3500000
v 0.8267000 0.0533000 -0.3500000
v 0.8267000 0.0533000 -0.3500000
v 0.8267000 0.0533000 0.3500000
v 0.8267000 0.0533000 0.3500000
v 0.8267000 0.0533000 0.3500000
v 0.8267000 0.1867000 -0.3500000
v 0.8267000 0.1867000 -0.3500000
v 0.8267000 0.1867000 -0.3500000
v 0.8267000 0.1867000 0.3500000
v 0.8267000 0.1867000 0.3500000
v 0.8267000 0.1867000 0.3500000
v 0.8267000 0.2350000 -0.3017000
v 0.8267000 0.2350000 0.3017000
v 0.8706000 0.1400000 -0.3906000
v 0.8706000 0.1400000 -0.3906000
v 0.8706000 0.1400000 -0.3906000
v 0.8706000 0.1400000 -0.3094000
v 0.8706000 0.1400000 -0.3094000
v 0.8706000 0.1400000 -0.3094000
v 0.8706000 0.1400000 0.3094000
v 0.8706000 0.1400000 0.3094000
v 0.8706000 0.1400000 0.3094000
v 0.8706000 0.1400000 0.3906000
v 0.8706000 0.1400000 0.3906000
v 0.8706000 0.1400000 0.3906000
v 0.8706000 0.1694000 -0.4200000
v 0.8706000 0.1694000 -0.4200000
v 0.8706000 0.1694000 -0.2800000
v 0.8706000 0.1694000 -0.2800000
v 0.8706000 0.1694000 0.2800000
v 0.8706000 0.1694000 0.2800000
v 0.8706000 0.1694000 0.4200000
v 0.8706000 0.1694000 0.4200000
v 0.8706000 0.6106000 -0.4200000
v 0.8706000 0.6106000 -0.4200000
v 0.8706000 0.6106000 -0.2800000
v 0.8706000 0.6106000 -0.2800000
v 0.8706000 0.6106000 0.2800000
v 0.8706000 0.6106000 0.2800000
v 0.8706000 0.6106000 0.4200000
v 0.8706000 0.6106000 0.4200000
v 0.8706000 0.6400000 -0.3906000
v 0.8706000 0.6400000 -0.3906000
v 0.8706000 0.6400000 -0.3906000
v 0.8706000 0.6400000 -0.3094000
v 0.8706000 0.6400000 -0.3094000
v 0.8706000 0.6400000 -0.3094000
v 0.8706000 0.6400000 0.3094000
v 0.8706000 0.6400000 0.3094000
v 0.8706000 0.6400000 0.3094000
v 0.8706000 0.6400000 0.3906000
v 0.8706000 0.6400000 0.3906000
v 0.8706000 0.6400000 0.3906000
v 0.8750000 0.0533000 -0.3017000
v 0.8750000 0.0533000 -0.3017000
v 0.8750000 0.0533000 0.3017000
v 0.8750000 0.0533000 0.3017000
v 0.8750000 0.1867000 -0.3017000
v 0.8750000 0.1867000 -0.3017000
v 0.8750000 0.1867000 0.3017000
v 0.8750000 0.1867000 0.3017000
v 0.8764000 0.1400000 -0.2914000
v 0.8764000 0.1400000 0.2914000
v 0.8764000 0.1736000 -0.3250000
v 0.8764000 0.1736000 -0.3250000
v 0.8764000 0.1736000 -0.3250000
v 0.8764000 0.1736000 0.3250000
v 0.8764000 0.1736000 0.3250000
v 0.8764000 0.1736000 0.3250000
v 0.8764000 0.6064000 -0.3250000
v 0.8764000 0.6064000 -0.3250000
v 0.8764000 0.6064000 -0.3250000
v 0.8764000 0.6064000 0.3250000
v 0.8764000 0.6064000 0.3250000
v 0.8764000 0.6064000 0.3250000
v 0.8764000 0.6400000 -0.2914000
v 0.8764000 0.6400000 0.2914000
v 0.9000000 0.1694000 -0.3906000
v 0.9000000 0.1694000 -0.3094000
v 0.9000000 0.1694000 0.3094000
v 0.9000000 0.1694000 0.3906000
v 0.9000000 0.6106000 -0.3906000
v 0.9000000 0.6106000 -0.3094000
v 0.9000000 0.6106000 0.3094000
v 0.9000000 0.6106000 0.3906000
v 0.9100000 0.1736000 -0.2914000
v 0.9100000 0.1736000 -0.2914000
v 0.9100000 0.1736000 0.2914000
v 0.9100000 0.1736000 0.2914000
v 0.9100000 0.6064000 -0.2914000
v 0.9100000 0.6064000 -0.2914000
v 0.9100000 0.6064000 0.2914000
v 0.9100000 0.6064000 0.2914000
vt 0.0388966 0.0356021
vt 0.0868966 0.0356021
vt 0.0388966 0.2070139
vt 0.0868966 0.2070139
vt 0.0388966 0.0356021
vt 0.7051824 0.0356021
vt 0.0388966 0.2070139
vt 0.7051824 0.2070139
vt 0.1274432 0.0352334
vt 0.2434432 0.0352334
vt 0.1057897 0.1031421
vt 0.2217897 0.1031421
vt 0.1274432 0.1649981
vt 0.2434432 0.1649981
vt 0.1057897 0.2329068
vt 0.2217897 0.2329068
vt 0.0868966 0.0356021
vt 0.0868966 0.2070139
vt 0.0868966 0.0257198
vt 0.0868966 0.0356021
vt 0.0868966 0.0356021
vt 0.0868966 0.2168962
vt 0.0868966 0.0257198
vt 0.0868966 0.1628962
vt 0.7051824 0.0257198
vt 0.0868966 0.1628962
vt 0.0868966 0.2168962
vt 0.7051824 0.2168962
vt 0.0868966 0.0356021
vt 0.0868966 0.2070139
vt 0.1193284 0.1236723
vt 0.1193284 0.1378782
vt 0.1193284 0.3153488
vt 0.9813284 0.1236723
vt 0.1193284 0.1236723
vt 0.3098999 0.1378782
vt 0.3098999 0.3153488
vt 0.9813284 0.1236723
vt 0.0854432 0.0352334
vt 0.1274432 0.0265864
vt 0.1274432 0.0352334
vt 0.0854432 0.0352334
vt 0.2434432 0.0265864
vt 0.2434432 0.0352334
vt 0.0637897 0.1031421
vt 0.1057897 0.0944950
vt 0.1057897 0.1031421
vt 0.0637897 0.1031421
vt 0.2217897 0.0944950
vt 0.2217897 0.1031421
vt 0.0854432 0.0352334
vt 0.1274432 0.0352334
vt 0.1274432 0.0352334
vt 0.2854432 0.0352334
vt 0.0637897 0.1031421
vt 0.1057897 0.1031421
vt 0.1057897 0.1031421
vt 0.2637897 0.1031421
vt 0.0854432 0.1649981
vt 0.7577289 0.0352334
vt 0.2854432 0.1649981
vt 0.7577289 0.0352334
vt 0.0637897 0.2329068
vt 0.7360754 0.1031421
vt 0.2637897 0.2329068
vt 0.7360754 0.1031421
vt 0.1274432 0.0352334
vt 0.1274432 0.1736452
vt 0.7997289 0.0352334
vt 0.2434432 0.0352334
vt 0.2434432 0.1736452
vt 0.7997289 0.0352334
vt 0.1057897 0.1031421
vt 0.1057897 0.2415538
vt 0.7780754 0.1031421
vt 0.2217897 0.1031421
vt 0.2217897 0.2415538
vt 0.7780754 0.1031421
vt 0.1193284 0.1378782
vt 0.9813284 0.1378782
vt 0.0503284 0.1378782
vt 0.1193284 0.1236723
vt 0.1193284 0.1378782
vt 0.1193284 0.1378782
vt 0.1193284 0.3295547
vt 1.0503284 0.1378782
vt 0.0503284 0.1378782
vt 0.3098999 0.1236723
vt 0.3098999 0.1378782
vt 0.3098999 0.1378782
vt 0.3098999 0.3295547
vt 1.0503284 0.1378782
vt 0.1193284 0.1378782
vt 0.9813284 0.1378782
vt 0.2194681 0.0356021
vt 0.2194681 0.2070139
vt 0.0868966 0.0257198
vt 0.2194681 0.0257198
vt 0.2194681 0.0356021
vt 0.0868966 0.2168962
vt 0.2194681 0.0356021
vt 0.2194681 0.2168962
vt 0.2194681 0.0257198
vt 0.2194681 0.1628962
vt 0.7051824 0.0257198
vt 0.2194681 0.1628962
vt 0.2194681 0.2168962
vt 0.7051824 0.2168962
vt 0.2194681 0.0356021
vt 0.2194681 0.2070139
vt 0.0868966 0.0356021
vt 0.2674681 0.0356021
vt 0.0868966 0.2070139
vt 0.2674681 0.2070139
vt 0.2674681 0.0356021
vt 0.7051824 0.0356021
vt 0.2674681 0.2070139
vt 0.7051824 0.2070139
vt 0.0712122 0.1018459
vt 0.0712122 0.2723164
vt 0.1706408 0.1018459
vt 0.1706408 0.2723164
vt 0.0352122 0.1018459
vt 0.0712122 0.1018459
vt 0.0352122 0.2723164
vt 0.0712122 0.2723164
vt 0.0712122 0.0944341
vt 0.0712122 0.1018459
vt 0.0712122 0.1018459
vt 0.0712122 0.2797282
vt 0.0712122 0.0944341
vt 0.1706408 0.0944341
vt 0.1706408 0.1018459
vt 0.0712122 0.2797282
vt 0.1706408 0.1018459
vt 0.1706408 0.2797282
vt 0.0712122 0.1018459
vt 0.2066408 0.1018459
vt 0.0712122 0.2723164
vt 0.2066408 0.2723164
vt 0.0352122 0.1018459
vt 0.3849265 0.1018459
vt 0.0352122 0.2723164
vt 0.3849265 0.2723164
vt 0.0712122 0.0944341
vt 0.0712122 0.1664341
vt 0.3849265 0.0944341
vt 0.0712122 0.1664341
vt 0.0712122 0.2797282
vt 0.3849265 0.2797282
vt 0.1706408 0.0944341
vt 0.1706408 0.1664341
vt 0.3849265 0.0944341
vt 0.1706408 0.1664341
vt 0.1706408 0.2797282
vt 0.3849265 0.2797282
vt 0.2066408 0.1018459
vt 0.3849265 0.1018459
vt 0.2066408 0.2723164
vt 0.3849265 0.2723164
vt 0.0712122 0.1018459
vt 0.0712122 0.2723164
vt 0.1706408 0.1018459
vt 0.1706408 0.2723164
vt 0.1244541 0.0829188
vt 0.1244541 0.2533894
vt 0.2238827 0.0829188
vt 0.2238827 0.2533894
vt 0.0884541 0.0829188
vt 0.1244541 0.0829188
vt 0.0884541 0.2533894
vt 0.1244541 0.2533894
vt 0.1244541 0.0755071
vt 0.1244541 0.0829188
vt 0.1244541 0.0829188
vt 0.1244541 0.2608012
vt 0.1244541 0.0755071
vt 0.2238827 0.0755071
vt 0.2238827 0.0829188
vt 0.1244541 0.2608012
vt 0.2238827 0.0829188
vt 0.2238827 0.2608012
vt 0.1244541 0.0829188
vt 0.2598827 0.0829188
vt 0.1244541 0.2533894
vt 0.2598827 0.2533894
vt 0.0884541 0.0829188
vt 0.4381684 0.0829188
vt 0.0884541 0.2533894
vt 0.4381684 0.2533894
vt 0.1244541 0.0755071
vt 0.1244541 0.1475071
vt 0.4381684 0.0755071
vt 0.1244541 0.1475071
vt 0.1244541 0.2608012
vt 0.4381684 0.2608012
vt 0.2238827 0.0755071
vt 0.2238827 0.1475071
vt 0.4381684 0.0755071
vt 0.2238827 0.1475071
vt 0.2238827 0.2608012
vt 0.4381684 0.2608012
vt 0.2598827 0.0829188
vt 0.4381684 0.0829188
vt 0.2598827 0.2533894
vt 0.4381684 0.2533894
vt 0.1244541 0.0829188
vt 0.1244541 0.2533894
vt 0.2238827 0.0829188
vt 0.2238827 0.2533894
vt 0.1205953 0.1104894
vt 0.1685953 0.1104894
vt 0.1205953 0.2819012
vt 0.1685953 0.2819012
vt 0.1205953 0.1104894
vt 0.7868810 0.1104894
vt 0.1205953 0.2819012
vt 0.7868810 0.2819012
vt 0.1685953 0.1104894
vt 0.1685953 0.2819012
vt 0.1685953 0.1006071
vt 0.1685953 0.1104894
vt 0.1685953 0.1104894
vt 0.1685953 0.2917835
vt 0.1685953 0.1006071
vt 0.1685953 0.2377835
vt 0.7868810 0.1006071
vt 0.1685953 0.2377835
vt 0.1685953 0.2917835
vt 0.7868810 0.2917835
vt 0.1685953 0.1104894
vt 0.1685953 0.2819012
vt 0.1193284 0.6241723
vt 0.9813284 0.6241723
vt 0.0503284 0.6241723
vt 0.1193284 0.1236723
vt 0.1193284 0.6241723
vt 0.1193284 0.3295547
vt 0.1193284 0.6241723
vt 1.0503284 0.6241723
vt 0.0503284 0.6241723
vt 0.3098999 0.1236723
vt 0.3098999 0.6241723
vt 0.3098999 0.3295547
vt 0.3098999 0.6241723
vt 1.0503284 0.6241723
vt 0.1193284 0.6241723
vt 0.9813284 0.6241723
vt 0.0854432 0.5473511
vt 0.1274432 0.0265864
vt 0.1274432 0.5473511
vt 0.0854432 0.5473511
vt 0.2434432 0.0265864
vt 0.2434432 0.5473511
vt 0.0637897 0.6152597
vt 0.1057897 0.0944950
vt 0.1057897 0.6152597
vt 0.0637897 0.6152597
vt 0.2217897 0.0944950
vt 0.2217897 0.6152597
vt 0.0854432 0.0352334
vt 0.1274432 0.5473511
vt 0.1274432 0.5473511
vt 0.2854432 0.0352334
vt 0.0637897 0.1031421
vt 0.1057897 0.6152597
vt 0.1057897 0.6152597
vt 0.2637897 0.1031421
vt 0.0854432 0.1649981
vt 0.7577289 0.5473511
vt 0.2854432 0.1649981
vt 0.7577289 0.5473511
vt 0.0637897 0.2329068
vt 0.7360754 0.6152597
vt 0.2637897 0.2329068
vt 0.7360754 0.6152597
vt 0.1274432 0.1736452
vt 0.1274432 0.5473511
vt 0.7997289 0.5473511
vt 0.2434432 0.1736452
vt 0.2434432 0.5473511
vt 0.7997289 0.5473511
vt 0.1057897 0.2415538
vt 0.1057897 0.6152597
vt 0.7780754 0.6152597
vt 0.2217897 0.2415538
vt 0.2217897 0.6152597
vt 0.7780754 0.6152597
vt 0.1193284 0.1378782
vt 0.1193284 0.6383782
vt 0.1193284 0.3153488
vt 0.9813284 0.6383782
vt 0.1193284 0.6383782
vt 0.3098999 0.1378782
vt 0.3098999 0.3153488
vt 0.9813284 0.6383782
vt 0.3011667 0.1104894
vt 0.3011667 0.2819012
vt 0.1685953 0.1006071
vt 0.3011667 0.1006071
vt 0.3011667 0.1104894
vt 0.1685953 0.2917835
vt 0.3011667 0.1104894
vt 0.3011667 0.2917835
vt 0.3011667 0.1006071
vt 0.3011667 0.2377835
vt 0.7868810 0.1006071
vt 0.3011667 0.2377835
vt 0.3011667 0.2917835
vt 0.7868810 0.2917835
vt 0.3011667 0.1104894
vt 0.3011667 0.2819012
vt 0.1274432 0.0352334
vt 0.2434432 0.0352334
vt 0.1057897 0.1031421
vt 0.2217897 0.1031421
vt 0.1274432 0.1649981
vt 0.2434432 0.1649981
vt 0.1057897 0.2329068
vt 0.2217897 0.2329068
vt 0.1685953 0.1104894
vt 0.3491667 0.1104894
vt 0.1685953 0.2819012
vt 0.3491667 0.2819012
vt 0.3491667 0.1104894
vt 0.7868810 0.1104894
vt 0.3491667 0.2819012
vt 0.7868810 0.2819012
vn -0.9879603 -0.1237761 -0.0928114
vn -0.9879603 -0.1237761 -0.0928114
vn -0.9978233 -0.0372852 0.0543914
vn -0.9978233 -0.0372852 0.0543914
vn -0.9970258 0.0718269 -0.0279353
vn -0.9970258 0.0718269 -0.0279353
vn -0.9959442 0.0717490 0.0542890
vn -0.9959442 0.0717490 0.0542890
vn -0.9264209 -0.0774997 -0.3684264
vn -0.9659688 -0.0311466 0.2567765
vn -0.9264209 -0.0774997 -0.3684264
vn -0.9659688 -0.0311466 0.2567765
vn -0.9865757 0.0616348 -0.1512269
vn -0.9646810 0.0602669 0.2564342
vn -0.9865757 0.0616348 -0.1512269
vn -0.9646810 0.0602669 0.2564342
vn -0.1549309 -0.9874143 -0.0317704
vn -0.3816407 -0.9234350 0.0402263
vn -0.2431844 -0.1142925 -0.9632230
vn -0.2431844 -0.1142925 -0.9632230
vn -0.1511323 -0.0710296 0.9859583
vn -0.1511323 -0.0710296 0.9859583
vn -0.2500119 0.0609460 -0.9663228
vn -0.2500119 0.0609460 -0.9663228
vn -0.2500119 0.0609460 -0.9663228
vn -0.3654046 0.0890755 0.9265771
vn -0.3654046 0.0890755 0.9265771
vn -0.3654046 0.0890755 0.9265771
vn -0.1549309 0.9874143 -0.0317704
vn -0.3816407 0.9234350 0.0402263
vn -0.9265934 -0.3647457 -0.0915715
vn -0.9265934 -0.3647457 -0.0915715
vn -0.9858132 -0.1511101 0.0730624
vn -0.9858132 -0.1511101 0.0730624
vn -0.9657700 0.2567237 -0.0371657
vn -0.9657700 0.2567237 -0.0371657
vn -0.9639681 0.2562447 0.0714434
vn -0.9639681 0.2562447 0.0714434
vn -0.0095294 -0.9882489 -0.1525558
vn -0.0095294 -0.9882489 -0.1525558
vn -0.0095294 -0.9882489 -0.1525558
vn -0.0275050 -0.9668362 0.2539117
vn -0.0275050 -0.9668362 0.2539117
vn -0.0275050 -0.9668362 0.2539117
vn -0.0095294 -0.9882489 -0.1525558
vn -0.0095294 -0.9882489 -0.1525558
vn -0.0095294 -0.9882489 -0.1525558
vn -0.0275050 -0.9668362 0.2539117
vn -0.0275050 -0.9668362 0.2539117
vn -0.0275050 -0.9668362 0.2539117
vn -0.0155361 -0.1159362 -0.9931351
vn -0.0155361 -0.1159362 -0.9931351
vn -0.0155361 -0.1159362 0.9931351
vn -0.0155361 -0.1159362 0.9931351
vn -0.0155361 -0.1159362 -0.9931351
vn -0.0155361 -0.1159362 -0.9931351
vn -0.0155361 -0.1159362 0.9931351
vn -0.0155361 -0.1159362 0.9931351
vn -0.0160613 0.0618602 -0.9979556
vn -0.0160613 0.0618602 -0.9979556
vn -0.0160613 0.0618602 0.9979556
vn -0.0160613 0.0618602 0.9979556
vn -0.0160613 0.0618602 -0.9979556
vn -0.0160613 0.0618602 -0.9979556
vn -0.0160613 0.0618602 0.9979556
vn -0.0160613 0.0618602 0.9979556
vn -0.0095294 0.9882489 -0.1525558
vn -0.0095294 0.9882489 -0.1525558
vn -0.0095294 0.9882489 -0.1525558
vn -0.0275050 0.9668362 0.2539117
vn -0.0275050 0.9668362 0.2539117
vn -0.0275050 0.9668362 0.2539117
vn -0.0095294 0.9882489 -0.1525558
vn -0.0095294 0.9882489 -0.1525558
vn -0.0095294 0.9882489 -0.1525558
vn -0.0275050 0.9668362 0.2539117
vn -0.0275050 0.9668362 0.2539117
vn -0.0275050 0.9668362 0.2539117
vn -0.0282944 -0.9968656 -0.0738816
vn -0.0272773 -0.9969649 0.0729170
vn -0.0208187 -0.3844184 -0.9229242
vn -0.0208187 -0.3844184 -0.9229242
vn -0.0208187 -0.3844184 -0.9229242
vn -0.0163681 -0.1532942 0.9880450
vn -0.0163681 -0.1532942 0.9880450
vn -0.0163681 -0.1532942 0.9880450
vn -0.0238846 0.2543165 -0.9668261
vn -0.0238846 0.2543165 -0.9668261
vn -0.0238846 0.2543165 -0.9668261
vn -0.0466103 0.2517194 0.9666772
vn -0.0466103 0.2517194 0.9666772
vn -0.0466103 0.2517194 0.9666772
vn -0.0282944 0.9968656 -0.0738816
vn -0.0272773 0.9969649 0.0729170
vn 0.2466785 -0.9651189 -0.0877221
vn 0.2517881 -0.9666874 0.0460240
vn 0.1560273 -0.0422853 -0.9868472
vn 0.1560273 -0.0422853 -0.9868472
vn 0.1560273 -0.0422853 -0.9868472
vn 0.2562808 -0.0694552 0.9641038
vn 0.2562808 -0.0694552 0.9641038
vn 0.2562808 -0.0694552 0.9641038
vn 0.3796748 0.0533707 -0.9235793
vn 0.3796748 0.0533707 -0.9235793
vn 0.3796748 0.0533707 -0.9235793
vn 0.2567338 0.0360889 0.9658081
vn 0.2567338 0.0360889 0.9658081
vn 0.2567338 0.0360889 0.9658081
vn 0.2466785 0.9651189 -0.0877221
vn 0.2517881 0.9666874 0.0460240
vn 0.9879603 -0.1237761 -0.0928114
vn 0.9879603 -0.1237761 -0.0928114
vn 0.9978233 -0.0372852 0.0543914
vn 0.9978233 -0.0372852 0.0543914
vn 0.9970258 0.0718269 -0.0279353
vn 0.9970258 0.0718269 -0.0279353
vn 0.9959442 0.0717490 0.0542890
vn 0.9959442 0.0717490 0.0542890
vn -0.9256124 -0.3748787 -0.0520348
vn -0.9876177 -0.1513867 0.0411507
vn -0.9662334 0.2568469 -0.0205582
vn -0.9656551 0.2566931 0.0402356
vn -0.0552558 -0.9982217 -0.0223654
vn -0.0552558 -0.9982217 -0.0223654
vn -0.1803528 -0.9828954 0.0372766
vn -0.1803528 -0.9828954 0.0372766
vn -0.0767560 -0.3760075 -0.9234321
vn -0.0767560 -0.3760075 -0.9234321
vn -0.0767560 -0.3760075 0.9234321
vn -0.0767560 -0.3760075 0.9234321
vn -0.0873427 0.2467271 -0.9651409
vn -0.0873427 0.2467271 -0.9651409
vn -0.0873427 0.2467271 -0.9651409
vn -0.0873427 0.2467271 0.9651409
vn -0.0873427 0.2467271 0.9651409
vn -0.0873427 0.2467271 0.9651409
vn -0.1023122 0.9938900 -0.0414121
vn -0.1023122 0.9938900 -0.0414121
vn -0.1023771 0.9945206 0.0211600
vn -0.1023771 0.9945206 0.0211600
vn 0.0984645 -0.9922643 -0.0756067
vn 0.0984645 -0.9922643 -0.0756067
vn 0.1004238 -0.9941653 0.0393759
vn 0.1004238 -0.9941653 0.0393759
vn 0.1012300 -0.1507367 -0.9833773
vn 0.1012300 -0.1507367 -0.9833773
vn 0.1012300 -0.1507367 -0.9833773
vn 0.1012300 -0.1507367 0.9833773
vn 0.1012300 -0.1507367 0.9833773
vn 0.1012300 -0.1507367 0.9833773
vn 0.0989975 0.2556392 -0.9616902
vn 0.0989975 0.2556392 -0.9616902
vn 0.0989975 0.2556392 -0.9616902
vn 0.0989975 0.2556392 0.9616902
vn 0.0989975 0.2556392 0.9616902
vn 0.0989975 0.2556392 0.9616902
vn 0.0541370 0.9976679 -0.0415695
vn 0.0541370 0.9976679 -0.0415695
vn 0.1743158 0.9823148 0.0683488
vn 0.1743158 0.9823148 0.0683488
vn 0.9232275 -0.3830288 -0.0306578
vn 0.9877557 -0.1541266 0.0241587
vn 0.9668157 0.2530488 -0.0351243
vn 0.9660844 0.2491845 0.0677347
vn -0.9256124 -0.3748787 -0.0520348
vn -0.9876177 -0.1513867 0.0411507
vn -0.9662334 0.2568469 -0.0205582
vn -0.9656551 0.2566931 0.0402356
vn -0.0552558 -0.9982217 -0.0223654
vn -0.0552558 -0.9982217 -0.0223654
vn -0.1803528 -0.9828954 0.0372766
vn -0.1803528 -0.9828954 0.0372766
vn -0.0767560 -0.3760075 -0.9234321
vn -0.0767560 -0.3760075 -0.9234321
vn -0.0767560 -0.3760075 0.9234321
vn -0.0767560 -0.3760075 0.9234321
vn -0.0873427 0.2467271 -0.9651409
vn -0.0873427 0.2467271 -0.9651409
vn -0.0873427 0.2467271 -0.9651409
vn -0.0873427 0.2467271 0.9651409
vn -0.0873427 0.2467271 0.9651409
vn -0.0873427 0.2467271 0.9651409
vn -0.1023122 0.9938900 -0.0414121
vn -0.1023122 0.9938900 -0.0414121
vn -0.1023771 0.9945206 0.0211600
vn -0.1023771 0.9945206 0.0211600
vn 0.0984645 -0.9922643 -0.0756067
vn 0.0984645 -0.9922643 -0.0756067
vn 0.1004238 -0.9941653 0.0393759
vn 0.1004238 -0.9941653 0.0393759
vn 0.1012300 -0.1507367 -0.9833773
vn 0.1012300 -0.1507367 -0.9833773
vn 0.1012300 -0.1507367 -0.9833773
vn 0.1012300 -0.1507367 0.9833773
vn 0.1012300 -0.1507367 0.9833773
vn 0.1012300 -0.1507367 0.9833773
vn 0.0989975 0.2556392 -0.9616902
vn 0.0989975 0.2556392 -0.9616902
vn 0.0989975 0.2556392 -0.9616902
vn 0.0989975 0.2556392 0.9616902
vn 0.0989975 0.2556392 0.9616902
vn 0.0989975 0.2556392 0.9616902
vn 0.0541370 0.9976679 -0.0415695
vn 0.0541370 0.9976679 -0.0415695
vn 0.1743158 0.9823148 0.0683488
vn 0.1743158 0.9823148 0.0683488
vn 0.9232275 -0.3830288 -0.0306578
vn 0.9877557 -0.1541266 0.0241587
vn 0.9668157 0.2530488 -0.0351243
vn 0.9660844 0.2491845 0.0677347
vn -0.9879603 -0.1237761 -0.0928114
vn -0.9879603 -0.1237761 -0.0928114
vn -0.9978233 -0.0372852 0.0543914
vn -0.9978233 -0.0372852 0.0543914
vn -0.9970258 0.0718269 -0.0279353
vn -0.9970258 0.0718269 -0.0279353
vn -0.9959442 0.0717490 0.0542890
vn -0.9959442 0.0717490 0.0542890
vn -0.1549309 -0.9874143 -0.0317704
vn -0.3816407 -0.9234350 0.0402263
vn -0.2431844 -0.1142925 -0.9632230
vn -0.2431844 -0.1142925 -0.9632230
vn -0.1511323 -0.0710296 0.9859583
vn -0.1511323 -0.0710296 0.9859583
vn -0.2500119 0.0609460 -0.9663228
vn -0.2500119 0.0609460 -0.9663228
vn -0.2500119 0.0609460 -0.9663228
vn -0.3654046 0.0890755 0.9265771
vn -0.3654046 0.0890755 0.9265771
vn -0.3654046 0.0890755 0.9265771
vn -0.1549309 0.9874143 -0.0317704
vn -0.3816407 0.9234350 0.0402263
vn 0.0272773 -0.9969649 -0.0729170
vn 0.0282944 -0.9968656 0.0738816
vn 0.0280447 -0.1514554 -0.9880662
vn 0.0280447 -0.1514554 -0.9880662
vn 0.0280447 -0.1514554 -0.9880662
vn 0.0208187 -0.3844184 0.9229242
vn 0.0208187 -0.3844184 0.9229242
vn 0.0208187 -0.3844184 0.9229242
vn 0.0274205 0.2568046 -0.9660743
vn 0.0274205 0.2568046 -0.9660743
vn 0.0274205 0.2568046 -0.9660743
vn 0.0238846 0.2543165 0.9668261
vn 0.0238846 0.2543165 0.9668261
vn 0.0238846 0.2543165 0.9668261
vn 0.0143551 0.9971621 -0.0739035
vn 0.0530503 0.9959981 0.0719270
vn 0.0121444 -0.9225812 -0.3856117
vn 0.0121444 -0.9225812 -0.3856117
vn 0.0121444 -0.9225812 -0.3856117
vn 0.0139494 -0.9667323 0.2554096
vn 0.0139494 -0.9667323 0.2554096
vn 0.0139494 -0.9667323 0.2554096
vn 0.0121444 -0.9225812 -0.3856117
vn 0.0121444 -0.9225812 -0.3856117
vn 0.0121444 -0.9225812 -0.3856117
vn 0.0139494 -0.9667323 0.2554096
vn 0.0139494 -0.9667323 0.2554096
vn 0.0139494 -0.9667323 0.2554096
vn 0.0165936 -0.0322227 -0.9993430
vn 0.0165936 -0.0322227 -0.9993430
vn 0.0086345 -0.0324867 0.9994349
vn 0.0086345 -0.0324867 0.9994349
vn 0.0165936 -0.0322227 -0.9993430
vn 0.0165936 -0.0322227 -0.9993430
vn 0.0086345 -0.0324867 0.9994349
vn 0.0086345 -0.0324867 0.9994349
vn 0.0165700 0.0623433 -0.9979172
vn 0.0165700 0.0623433 -0.9979172
vn 0.0316030 0.0613691 0.9976147
vn 0.0316030 0.0613691 0.9976147
vn 0.0165700 0.0623433 -0.9979172
vn 0.0165700 0.0623433 -0.9979172
vn 0.0316030 0.0613691 0.9976147
vn 0.0316030 0.0613691 0.9976147
vn 0.0121444 0.9225812 -0.3856117
vn 0.0121444 0.9225812 -0.3856117
vn 0.0121444 0.9225812 -0.3856117
vn 0.0139494 0.9667323 0.2554096
vn 0.0139494 0.9667323 0.2554096
vn 0.0139494 0.9667323 0.2554096
vn 0.0121444 0.9225812 -0.3856117
vn 0.0121444 0.9225812 -0.3856117
vn 0.0121444 0.9225812 -0.3856117
vn 0.0139494 0.9667323 0.2554096
vn 0.0139494 0.9667323 0.2554096
vn 0.0139494 0.9667323 0.2554096
vn 0.9639681 -0.2562447 -0.0714434
vn 0.9639681 -0.2562447 -0.0714434
vn 0.9662651 -0.2497977 0.0627131
vn 0.9662651 -0.2497977 0.0627131
vn 0.9662651 0.2497977 -0.0627131
vn 0.9662651 0.2497977 -0.0627131
vn 0.9639681 0.2562447 0.0714434
vn 0.9639681 0.2562447 0.0714434
vn 0.2466785 -0.9651189 -0.0877221
vn 0.2517881 -0.9666874 0.0460240
vn 0.1560273 -0.0422853 -0.9868472
vn 0.1560273 -0.0422853 -0.9868472
vn 0.1560273 -0.0422853 -0.9868472
vn 0.2562808 -0.0694552 0.9641038
vn 0.2562808 -0.0694552 0.9641038
vn 0.2562808 -0.0694552 0.9641038
vn 0.3796748 0.0533707 -0.9235793
vn 0.3796748 0.0533707 -0.9235793
vn 0.3796748 0.0533707 -0.9235793
vn 0.2567338 0.0360889 0.9658081
vn 0.2567338 0.0360889 0.9658081
vn 0.2567338 0.0360889 0.9658081
vn 0.2466785 0.9651189 -0.0877221
vn 0.2517881 0.9666874 0.0460240
vn 0.9643374 -0.0998945 -0.2451009
vn 0.9659688 -0.0311466 0.2567765
vn 0.9643374 -0.0998945 -0.2451009
vn 0.9659688 -0.0311466 0.2567765
vn 0.9665490 0.0527964 -0.2509891
vn 0.9646810 0.0602669 0.2564342
vn 0.9665490 0.0527964 -0.2509891
vn 0.9646810 0.0602669 0.2564342
vn 0.9879603 -0.1237761 -0.0928114
vn 0.9879603 -0.1237761 -0.0928114
vn 0.9978233 -0.0372852 0.0543914
vn 0.9978233 -0.0372852 0.0543914
vn 0.9970258 0.0718269 -0.0279353
vn 0.9970258 0.0718269 -0.0279353
vn 0.9959442 0.0717490 0.0542890
vn 0.9959442 0.0717490 0.0542890
o 25_Abrevadero_Stone
usemtl Stone
s 1
f 79/79/79 31/31/31 81/81/81
f 92/92/92 94/94/94 38/38/38
f 293/293/293 241/241/241 247/247/247
f 87/87/87 35/35/35 93/93/93
f 246/246/246 296/296/296 248/248/248
f 234/234/234 292/292/292 240/240/240
f 80/80/80 86/86/86 34/34/34
f 233/233/233 235/235/235 290/290/290
f 36/36/36 32/32/32 33/33/33
f 36/36/36 33/33/33 37/37/37
f 94/94/94 248/248/248 247/247/247
f 94/94/94 247/247/247 93/93/93
f 94/94/94 35/35/35 38/38/38
f 94/94/94 93/93/93 35/35/35
f 91/91/91 37/37/37 33/33/33
f 91/91/91 33/33/33 85/85/85
f 294/294/294 236/236/236 242/242/242
f 294/294/294 289/289/289 236/236/236
f 293/293/293 247/247/247 248/248/248
f 293/293/293 248/248/248 296/296/296
f 87/87/87 93/93/93 247/247/247
f 87/87/87 247/247/247 241/241/241
f 89/89/89 243/243/243 237/237/237
f 89/89/89 237/237/237 83/83/83
f 88/88/88 32/32/32 36/36/36
f 88/88/88 82/82/82 32/32/32
f 291/291/291 289/289/289 294/294/294
f 291/291/291 294/294/294 295/295/295
f 244/244/244 291/291/291 295/295/295
f 244/244/244 238/238/238 291/291/291
f 246/246/246 248/248/248 94/94/94
f 246/246/246 94/94/94 92/92/92
f 245/245/245 90/90/90 84/84/84
f 245/245/245 84/84/84 239/239/239
f 80/80/80 34/34/34 31/31/31
f 80/80/80 31/31/31 79/79/79
f 80/80/80 240/240/240 86/86/86
f 80/80/80 234/234/234 240/240/240
f 233/233/233 290/290/290 292/292/292
f 233/233/233 292/292/292 234/234/234
f 233/233/233 81/81/81 235/235/235
f 233/233/233 79/79/79 81/81/81
f 233/233/233 80/80/80 79/79/79
f 233/233/233 234/234/234 80/80/80
f 40/40/40 9/9/9 51/51/51
f 280/280/280 271/271/271 318/318/318
f 61/61/61 71/71/71 14/14/14
f 317/317/317 269/269/269 277/277/277
f 59/59/59 13/13/13 68/68/68
f 43/43/43 54/54/54 10/10/10
f 250/250/250 261/261/261 313/313/313
f 253/253/253 314/314/314 264/264/264
f 13/13/13 9/9/9 10/10/10
f 13/13/13 10/10/10 14/14/14
f 71/71/71 13/13/13 14/14/14
f 71/71/71 68/68/68 13/13/13
f 281/281/281 67/67/67 70/70/70
f 281/281/281 278/278/278 67/67/67
f 61/61/61 14/14/14 10/10/10
f 61/61/61 10/10/10 54/54/54
f 62/62/62 53/53/53 263/263/263
f 62/62/62 263/263/263 272/272/272
f 62/62/62 282/282/282 72/72/72
f 62/62/62 272/272/272 282/282/282
f 314/314/314 271/271/271 264/264/264
f 314/314/314 318/318/318 271/271/271
f 317/317/317 318/318/318 314/314/314
f 317/317/317 314/314/314 313/313/313
f 317/317/317 313/313/313 261/261/261
f 317/317/317 261/261/261 269/269/269
f 317/317/317 277/277/277 280/280/280
f 317/317/317 280/280/280 318/318/318
f 60/60/60 69/69/69 279/279/279
f 60/60/60 279/279/279 270/270/270
f 60/60/60 270/270/270 262/262/262
f 60/60/60 262/262/262 52/52/52
f 59/59/59 9/9/9 13/13/13
f 59/59/59 51/51/51 9/9/9
f 43/43/43 10/10/10 9/9/9
f 43/43/43 9/9/9 40/40/40
f 249/249/249 52/52/52 262/262/262
f 249/249/249 39/39/39 52/52/52
f 253/253/253 313/313/313 314/314/314
f 253/253/253 250/250/250 313/313/313
f 252/252/252 263/263/263 53/53/53
f 252/252/252 53/53/53 42/42/42
f 254/254/254 44/44/44 41/41/41
f 254/254/254 41/41/41 251/251/251
f 46/46/46 11/11/11 55/55/55
f 286/286/286 275/275/275 320/320/320
f 65/65/65 77/77/77 16/16/16
f 319/319/319 273/273/273 283/283/283
f 63/63/63 15/15/15 74/74/74
f 49/49/49 58/58/58 12/12/12
f 256/256/256 265/265/265 315/315/315
f 259/259/259 316/316/316 268/268/268
f 15/15/15 11/11/11 12/12/12
f 15/15/15 12/12/12 16/16/16
f 77/77/77 15/15/15 16/16/16
f 77/77/77 74/74/74 15/15/15
f 287/287/287 73/73/73 76/76/76
f 287/287/287 284/284/284 73/73/73
f 65/65/65 16/16/16 12/12/12
f 65/65/65 12/12/12 58/58/58
f 66/66/66 57/57/57 267/267/267
f 66/66/66 267/267/267 276/276/276
f 66/66/66 288/288/288 78/78/78
f 66/66/66 276/276/276 288/288/288
f 316/316/316 275/275/275 268/268/268
f 316/316/316 320/320/320 275/275/275
f 319/319/319 320/320/320 316/316/316
f 319/319/319 316/316/316 315/315/315
f 319/319/319 315/315/315 265/265/265
f 319/319/319 265/265/265 273/273/273
f 319/319/319 283/283/283 286/286/286
f 319/319/319 286/286/286 320/320/320
f 64/64/64 75/75/75 285/285/285
f 64/64/64 285/285/285 274/274/274
f 64/64/64 274/274/274 266/266/266
f 64/64/64 266/266/266 56/56/56
f 63/63/63 11/11/11 15/15/15
f 63/63/63 55/55/55 11/11/11
f 49/49/49 12/12/12 11/11/11
f 49/49/49 11/11/11 46/46/46
f 255/255/255 56/56/56 266/266/266
f 255/255/255 45/45/45 56/56/56
f 259/259/259 315/315/315 316/316/316
f 259/259/259 256/256/256 315/315/315
f 258/258/258 267/267/267 57/57/57
f 258/258/258 57/57/57 48/48/48
f 260/260/260 50/50/50 47/47/47
f 260/260/260 47/47/47 257/257/257
f 27/27/27 30/30/30 7/7/7
f 17/17/17 1/1/1 19/19/19
f 103/103/103 109/109/109 115/115/115
f 95/95/95 98/98/98 112/112/112
f 110/110/110 107/107/107 117/117/117
f 23/23/23 5/5/5 29/29/29
f 18/18/18 22/22/22 3/3/3
f 96/96/96 114/114/114 102/102/102
f 113/113/113 111/111/111 116/116/116
f 113/113/113 116/116/116 118/118/118
f 6/6/6 2/2/2 4/4/4
f 6/6/6 4/4/4 8/8/8
f 30/30/30 5/5/5 7/7/7
f 30/30/30 29/29/29 5/5/5
f 28/28/28 4/4/4 22/22/22
f 28/28/28 8/8/8 4/4/4
f 108/108/108 113/113/113 118/118/118
f 108/108/108 100/100/100 113/113/113
f 106/106/106 26/26/26 21/21/21
f 106/106/106 21/21/21 101/101/101
f 105/105/105 116/116/116 111/111/111
f 105/105/105 111/111/111 97/97/97
f 95/95/95 19/19/19 98/98/98
f 95/95/95 17/17/17 19/19/19
f 110/110/110 27/27/27 107/107/107
f 110/110/110 30/30/30 27/27/27
f 110/110/110 117/117/117 115/115/115
f 110/110/110 115/115/115 109/109/109
f 110/110/110 29/29/29 30/30/30
f 110/110/110 109/109/109 29/29/29
f 23/23/23 29/29/29 109/109/109
f 23/23/23 109/109/109 103/103/103
f 25/25/25 2/2/2 6/6/6
f 25/25/25 19/19/19 2/2/2
f 24/24/24 104/104/104 99/99/99
f 24/24/24 99/99/99 20/20/20
f 18/18/18 3/3/3 1/1/1
f 18/18/18 1/1/1 17/17/17
f 96/96/96 102/102/102 22/22/22
f 96/96/96 22/22/22 18/18/18
f 96/96/96 112/112/112 114/114/114
f 96/96/96 95/95/95 112/112/112
f 96/96/96 17/17/17 95/95/95
f 96/96/96 18/18/18 17/17/17
f 229/229/229 232/232/232 217/217/217
f 219/219/219 211/211/211 221/221/221
f 305/305/305 311/311/311 325/325/325
f 297/297/297 300/300/300 322/322/322
f 312/312/312 309/309/309 327/327/327
f 225/225/225 215/215/215 231/231/231
f 220/220/220 224/224/224 213/213/213
f 298/298/298 324/324/324 304/304/304
f 323/323/323 321/321/321 326/326/326
f 323/323/323 326/326/326 328/328/328
f 216/216/216 212/212/212 214/214/214
f 216/216/216 214/214/214 218/218/218
f 232/232/232 215/215/215 217/217/217
f 232/232/232 231/231/231 215/215/215
f 230/230/230 214/214/214 224/224/224
f 230/230/230 218/218/218 214/214/214
f 310/310/310 323/323/323 328/328/328
f 310/310/310 302/302/302 323/323/323
f 308/308/308 228/228/228 223/223/223
f 308/308/308 223/223/223 303/303/303
f 307/307/307 326/326/326 321/321/321
f 307/307/307 321/321/321 299/299/299
f 297/297/297 221/221/221 300/300/300
f 297/297/297 219/219/219 221/221/221
f 312/312/312 229/229/229 309/309/309
f 312/312/312 232/232/232 229/229/229
f 312/312/312 327/327/327 325/325/325
f 312/312/312 325/325/325 311/311/311
f 312/312/312 231/231/231 232/232/232
f 312/312/312 311/311/311 231/231/231
f 225/225/225 231/231/231 311/311/311
f 225/225/225 311/311/311 305/305/305
f 227/227/227 212/212/212 216/216/216
f 227/227/227 221/221/221 212/212/212
f 226/226/226 306/306/306 301/301/301
f 226/226/226 301/301/301 222/222/222
f 220/220/220 213/213/213 211/211/211
f 220/220/220 211/211/211 219/219/219
f 298/298/298 304/304/304 224/224/224
f 298/298/298 224/224/224 220/220/220
f 298/298/298 322/322/322 324/324/324
f 298/298/298 297/297/297 322/322/322
f 298/298/298 219/219/219 297/297/297
f 298/298/298 220/220/220 219/219/219
f 164/164/164 159/159/159 155/155/155
f 123/123/123 119/119/119 127/127/127
f 136/136/136 140/140/140 122/122/122
f 163/163/163 151/151/151 157/157/157
f 132/132/132 121/121/121 138/138/138
f 125/125/125 130/130/130 120/120/120
f 141/141/141 145/145/145 161/161/161
f 143/143/143 162/162/162 149/149/149
f 121/121/121 119/119/119 120/120/120
f 121/121/121 120/120/120 122/122/122
f 139/139/139 160/160/160 158/158/158
f 139/139/139 158/158/158 137/137/137
f 140/140/140 121/121/121 122/122/122
f 140/140/140 138/138/138 121/121/121
f 136/136/136 122/122/122 120/120/120
f 136/136/136 120/120/120 130/130/130
f 134/134/134 160/160/160 139/139/139
f 134/134/134 156/156/156 160/160/160
f 163/163/163 145/145/145 151/151/151
f 163/163/163 161/161/161 145/145/145
f 163/163/163 162/162/162 161/161/161
f 163/163/163 164/164/164 162/162/162
f 163/163/163 157/157/157 159/159/159
f 163/163/163 159/159/159 164/164/164
f 131/131/131 137/137/137 158/158/158
f 131/131/131 158/158/158 153/153/153
f 133/133/133 152/152/152 146/146/146
f 133/133/133 146/146/146 128/128/128
f 132/132/132 119/119/119 121/121/121
f 132/132/132 127/127/127 119/119/119
f 148/148/148 135/135/135 129/129/129
f 148/148/148 154/154/154 135/135/135
f 149/149/149 162/162/162 164/164/164
f 149/149/149 164/164/164 155/155/155
f 125/125/125 120/120/120 119/119/119
f 125/125/125 119/119/119 123/123/123
f 142/142/142 127/127/127 147/147/147
f 142/142/142 124/124/124 127/127/127
f 144/144/144 150/150/150 130/130/130
f 144/144/144 130/130/130 126/126/126
f 143/143/143 161/161/161 162/162/162
f 143/143/143 141/141/141 161/161/161
f 144/144/144 126/126/126 124/124/124
f 144/144/144 124/124/124 142/142/142
f 210/210/210 205/205/205 201/201/201
f 169/169/169 165/165/165 173/173/173
f 182/182/182 186/186/186 168/168/168
f 209/209/209 197/197/197 203/203/203
f 178/178/178 167/167/167 184/184/184
f 171/171/171 176/176/176 166/166/166
f 187/187/187 191/191/191 207/207/207
f 189/189/189 208/208/208 195/195/195
f 167/167/167 165/165/165 166/166/166
f 167/167/167 166/166/166 168/168/168
f 185/185/185 206/206/206 204/204/204
f 185/185/185 204/204/204 183/183/183
f 186/186/186 167/167/167 168/168/168
f 186/186/186 184/184/184 167/167/167
f 182/182/182 168/168/168 166/166/166
f 182/182/182 166/166/166 176/176/176
f 180/180/180 206/206/206 185/185/185
f 180/180/180 202/202/202 206/206/206
f 209/209/209 191/191/191 197/197/197
f 209/209/209 207/207/207 191/191/191
f 209/209/209 208/208/208 207/207/207
f 209/209/209 210/210/210 208/208/208
f 209/209/209 203/203/203 205/205/205
f 209/209/209 205/205/205 210/210/210
f 177/177/177 183/183/183 204/204/204
f 177/177/177 204/204/204 199/199/199
f 179/179/179 198/198/198 192/192/192
f 179/179/179 192/192/192 174/174/174
f 178/178/178 165/165/165 167/167/167
f 178/178/178 173/173/173 165/165/165
f 194/194/194 181/181/181 175/175/175
f 194/194/194 200/200/200 181/181/181
f 195/195/195 208/208/208 210/210/210
f 195/195/195 210/210/210 201/201/201
f 171/171/171 166/166/166 165/165/165
f 171/171/171 165/165/165 169/169/169
f 188/188/188 173/173/173 193/193/193
f 188/188/188 170/170/170 173/173/173
f 190/190/190 196/196/196 176/176/176
f 190/190/190 176/176/176 172/172/172
f 189/189/189 207/207/207 208/208/208
f 189/189/189 187/187/187 207/207/207
f 190/190/190 172/172/172 170/170/170
f 190/190/190 170/170/170 188/188/188
