# metres; Y up; ground-centred pivot
mtllib 27_Saco.mtl
v -0.3401358 0.3500000 0.0626905
v -0.3398642 0.3500000 -0.0035271
v -0.3332378 0.3500000 -0.0683726
v -0.3275731 0.3500000 0.1291603
v -0.3203532 0.3500000 -0.1332239
v -0.3160706 0.1000000 0.0579037
v -0.3149470 0.1000000 -0.0035271
v -0.3039950 0.1000000 -0.0625559
v -0.3007693 0.1000000 0.1180578
v -0.3001162 0.6300000 -0.0035271
v -0.2995120 0.6300000 -0.0616641
v -0.2966358 0.3500000 0.1898427
v -0.2956733 0.6300000 0.0538464
v -0.2952637 0.3500000 -0.1959801
v -0.2889278 0.6300000 -0.1202071
v -0.2881301 0.1000000 -0.1198767
v -0.2849100 0.6300000 0.1114887
v -0.2680616 0.1000000 0.1707501
v -0.2656596 0.1000000 -0.1761994
v -0.2628672 0.6300000 -0.1743335
v -0.2621037 0.6300000 0.1667691
v -0.2534549 0.3500000 -0.2497446
v -0.2492255 0.3500000 0.2384611
v -0.2312875 0.1000000 -0.2275773
v -0.2241067 0.6300000 0.2133423
v -0.2238836 0.1000000 0.2131192
v -0.2217531 0.6300000 -0.2180429
v -0.1976366 0.3500000 -0.2884798
v -0.1974601 0.0000000 0.0343106
v -0.1974601 0.0000000 0.0343106
v -0.1972373 0.0000000 -0.0035271
v -0.1972373 0.0000000 -0.0035271
v -0.1930275 0.3500000 0.2745276
v -0.1897129 0.0000000 -0.0398238
v -0.1897129 0.0000000 -0.0398238
v -0.1868288 0.0000000 0.0708621
v -0.1868288 0.0000000 0.0708621
v -0.1832502 0.1000000 -0.2669490
v -0.1787201 0.0000000 -0.0745576
v -0.1787201 0.0000000 -0.0745576
v -0.1751815 0.1000000 0.2478192
v -0.1747177 0.7800000 -0.0368410
v -0.1744190 0.6300000 0.2466780
v -0.1741839 0.7800000 -0.0035271
v -0.1718541 0.6300000 -0.2498935
v -0.1698963 0.7800000 0.0288278
v -0.1678996 0.7800000 -0.0700756
v -0.1659871 0.0000000 0.1025461
v -0.1659871 0.0000000 0.1025461
v -0.1644460 0.0000000 -0.1085706
v -0.1644460 0.0000000 -0.1085706
v -0.1628532 0.7800000 0.0609311
v -0.1515568 0.7800000 -0.0999583
v -0.1505977 0.7800000 0.0922633
v -0.1439626 0.0000000 -0.1402524
v -0.1439626 0.0000000 -0.1402524
v -0.1392126 0.0000000 0.1284482
v -0.1392126 0.0000000 0.1284482
v -0.1372373 0.7725000 -0.0035271
v -0.1372373 0.7725000 -0.0035271
v -0.1372373 0.8275000 -0.0035271
v -0.1372373 0.8275000 -0.0035271
v -0.1363787 0.9000000 -0.0292149
v -0.1363787 0.9000000 -0.0292149
v -0.1358483 0.9000000 -0.0035271
v -0.1358483 0.9000000 -0.0035271
v -0.1353623 0.3500000 -0.3128481
v -0.1347394 0.7725000 -0.0288888
v -0.1347394 0.7725000 -0.0288888
v -0.1347394 0.7725000 0.0218346
v -0.1347394 0.7725000 0.0218346
v -0.1347394 0.8275000 -0.0288888
v -0.1347394 0.8275000 -0.0288888
v -0.1347394 0.8275000 0.0218346
v -0.1347394 0.8275000 0.0218346
v -0.1341235 0.3500000 0.3028033
v -0.1315865 0.9000000 0.0212075
v -0.1315865 0.9000000 0.0212075
v -0.1304503 0.7800000 0.1196859
v -0.1303407 0.9000000 -0.0545182
v -0.1303407 0.9000000 -0.0545182
v -0.1274941 0.7800000 -0.1237839
v -0.1273417 0.7725000 -0.0532759
v -0.1273417 0.7725000 -0.0532759
v -0.1273417 0.7725000 0.0462217
v -0.1273417 0.7725000 0.0462217
v -0.1273417 0.8275000 -0.0532759
v -0.1273417 0.8275000 -0.0532759
v -0.1273417 0.8275000 0.0462217
v -0.1273417 0.8275000 0.0462217
v -0.1261437 0.1000000 -0.2905925
v -0.1253248 0.9000000 0.0453863
v -0.1253248 0.9000000 0.0453863
v -0.1239752 0.1000000 0.2783030
v -0.1198693 0.6300000 0.2683906
v -0.1191800 0.6300000 -0.2737806
v -0.1169377 0.9000000 -0.0768265
v -0.1169377 0.9000000 -0.0768265
v -0.1159845 0.9000000 0.0691354
v -0.1159845 0.9000000 0.0691354
v -0.1159212 0.8200000 -0.0251457
v -0.1159212 0.8200000 -0.0251457
v -0.1155047 0.8200000 -0.0035271
v -0.1155047 0.8200000 -0.0035271
v -0.1153839 0.0000000 -0.1653799
v -0.1153839 0.0000000 -0.1653799
v -0.1153284 0.7725000 -0.0757512
v -0.1153284 0.7725000 -0.0757512
v -0.1153284 0.7725000 0.0686970
v -0.1153284 0.7725000 0.0686970
v -0.1153284 0.8275000 -0.0757512
v -0.1153284 0.8275000 -0.0757512
v -0.1153284 0.8275000 0.0686970
v -0.1153284 0.8275000 0.0686970
v -0.1124381 0.8200000 0.0173986
v -0.1124381 0.8200000 0.0173986
v -0.1122373 0.7725000 -0.0035271
v -0.1122373 0.7725000 -0.0035271
v -0.1122373 0.8275000 -0.0035271
v -0.1122373 0.8275000 -0.0035271
v -0.1112995 0.8200000 -0.0466310
v -0.1112995 0.8200000 -0.0466310
v -0.1102198 0.7725000 -0.0240116
v -0.1102198 0.7725000 -0.0240116
v -0.1102198 0.7725000 0.0169574
v -0.1102198 0.7725000 0.0169574
v -0.1102198 0.8275000 -0.0240116
v -0.1102198 0.8275000 -0.0240116
v -0.1102198 0.8275000 0.0169574
v -0.1102198 0.8275000 0.0169574
v -0.1102074 0.0000000 0.1505785
v -0.1102074 0.0000000 0.1505785
v -0.1076538 0.8200000 0.0380668
v -0.1076538 0.8200000 0.0380668
v -0.1042447 0.7725000 -0.0437089
v -0.1042447 0.7725000 -0.0437089
v -0.1042447 0.7725000 0.0366547
v -0.1042447 0.7725000 0.0366547
v -0.1042447 0.8275000 -0.0437089
v -0.1042447 0.8275000 -0.0437089
v -0.1042447 0.8275000 0.0366547
v -0.1042447 0.8275000 0.0366547
v -0.1029641 0.7800000 0.1397381
v -0.1013248 0.9000000 0.0905604
v -0.1013248 0.9000000 0.0905604
v -0.1004583 0.8200000 -0.0658154
v -0.1004583 0.8200000 -0.0658154
v -0.0997655 0.8200000 0.0582982
v -0.0997655 0.8200000 0.0582982
v -0.0997425 0.7800000 -0.1419709
v -0.0991612 0.7725000 -0.0954510
v -0.0991612 0.7725000 -0.0954510
v -0.0991612 0.7725000 0.0883968
v -0.0991612 0.7725000 0.0883968
v -0.0991612 0.8275000 -0.0954510
v -0.0991612 0.8275000 -0.0954510
v -0.0991612 0.8275000 0.0883968
v -0.0991612 0.8275000 0.0883968
v -0.0983866 0.9000000 -0.0946764
v -0.0983866 0.9000000 -0.0946764
v -0.0945416 0.7725000 -0.0618620
v -0.0945416 0.7725000 -0.0618620
v -0.0945416 0.7725000 0.0548078
v -0.0945416 0.7725000 0.0548078
v -0.0945416 0.8275000 -0.0618620
v -0.0945416 0.8275000 -0.0618620
v -0.0945416 0.8275000 0.0548078
v -0.0945416 0.8275000 0.0548078
v -0.0869532 0.8200000 0.0761887
v -0.0869532 0.8200000 0.0761887
v -0.0848176 0.8200000 -0.0811074
v -0.0848176 0.8200000 -0.0811074
v -0.0814835 0.7725000 -0.0777733
v -0.0814835 0.7725000 -0.0777733
v -0.0814835 0.7725000 0.0707191
v -0.0814835 0.7725000 0.0707191
v -0.0814835 0.8275000 -0.0777733
v -0.0814835 0.8275000 -0.0777733
v -0.0814835 0.8275000 0.0707191
v -0.0814835 0.8275000 0.0707191
v -0.0809119 0.9000000 0.1067347
v -0.0809119 0.9000000 0.1067347
v -0.0806428 0.0000000 -0.1807436
v -0.0806428 0.0000000 -0.1807436
v -0.0794615 0.7725000 -0.1116182
v -0.0794615 0.7725000 -0.1116182
v -0.0794615 0.7725000 0.1045639
v -0.0794615 0.7725000 0.1045639
v -0.0794615 0.8275000 -0.1116182
v -0.0794615 0.8275000 -0.1116182
v -0.0794615 0.8275000 0.1045639
v -0.0794615 0.8275000 0.1045639
v -0.0792516 0.0000000 0.1703306
v -0.0792516 0.0000000 0.1703306
v -0.0777099 0.9000000 -0.1089967
v -0.0777099 0.9000000 -0.1089967
v -0.0728304 0.3500000 0.3262317
v -0.0719136 0.3500000 -0.3286768
v -0.0716469 0.7800000 0.1519713
v -0.0707810 0.7800000 -0.1569352
v -0.0693259 0.8200000 0.0893951
v -0.0693259 0.8200000 0.0893951
v -0.0681463 0.1000000 0.3026830
v -0.0669986 0.8200000 -0.0929662
v -0.0669986 0.8200000 -0.0929662
v -0.0665413 0.1000000 -0.3016685
v -0.0655722 0.7725000 -0.0908314
v -0.0655722 0.7725000 -0.0908314
v -0.0655722 0.7725000 0.0837772
v -0.0655722 0.7725000 0.0837772
v -0.0655722 0.8275000 -0.0908314
v -0.0655722 0.8275000 -0.0908314
v -0.0655722 0.8275000 0.0837772
v -0.0655722 0.8275000 0.0837772
v -0.0648644 0.6300000 -0.2932379
v -0.0643542 0.6300000 0.2836188
v -0.0569862 0.7725000 -0.1236314
v -0.0569862 0.7725000 -0.1236314
v -0.0569862 0.7725000 0.1165772
v -0.0569862 0.7725000 0.1165772
v -0.0569862 0.8275000 -0.1236314
v -0.0569862 0.8275000 -0.1236314
v -0.0569862 0.8275000 0.1165772
v -0.0569862 0.8275000 0.1165772
v -0.0569254 0.9000000 0.1164305
v -0.0569254 0.9000000 0.1164305
v -0.0560648 0.9000000 -0.1214070
v -0.0560648 0.9000000 -0.1214070
v -0.0490327 0.8200000 0.0973758
v -0.0490327 0.8200000 0.0973758
v -0.0484072 0.8200000 -0.1029200
v -0.0484072 0.8200000 -0.1029200
v -0.0474191 0.7725000 -0.1005345
v -0.0474191 0.7725000 -0.1005345
v -0.0474191 0.7725000 0.0934802
v -0.0474191 0.7725000 0.0934802
v -0.0474191 0.8275000 -0.1005345
v -0.0474191 0.8275000 -0.1005345
v -0.0474191 0.8275000 0.0934802
v -0.0474191 0.8275000 0.0934802
v -0.0448193 0.0000000 0.1854104
v -0.0448193 0.0000000 0.1854104
v -0.0437897 0.0000000 -0.1872881
v -0.0437897 0.0000000 -0.1872881
v -0.0402278 0.7800000 -0.1693813
v -0.0395870 0.7800000 0.1591055
v -0.0326922 0.9000000 -0.1314975
v -0.0326922 0.9000000 -0.1314975
v -0.0325991 0.7725000 -0.1310292
v -0.0325991 0.7725000 -0.1310292
v -0.0325991 0.7725000 0.1239750
v -0.0325991 0.7725000 0.1239750
v -0.0325991 0.8275000 -0.1310292
v -0.0325991 0.8275000 -0.1310292
v -0.0325991 0.8275000 0.1239750
v -0.0325991 0.8275000 0.1239750
v -0.0320553 0.9000000 0.1212412
v -0.0320553 0.9000000 0.1212412
v -0.0286477 0.8200000 -0.1111642
v -0.0286477 0.8200000 -0.1111642
v -0.0281848 0.8200000 0.1017827
v -0.0281848 0.8200000 0.1017827
v -0.0277218 0.7725000 -0.1065096
v -0.0277218 0.7725000 -0.1065096
v -0.0277218 0.7725000 0.0994554
v -0.0277218 0.7725000 0.0994554
v -0.0277218 0.8275000 -0.1065096
v -0.0277218 0.8275000 -0.1065096
v -0.0277218 0.8275000 0.0994554
v -0.0277218 0.8275000 0.0994554
v -0.0072373 0.0000000 -0.1887771
v -0.0072373 0.0000000 -0.1887771
v -0.0072373 0.0000000 -0.0035271
v -0.0072373 0.0000000 0.1912229
v -0.0072373 0.0000000 0.1912229
v -0.0072373 0.1000000 -0.3061232
v -0.0072373 0.1000000 0.3138768
v -0.0072373 0.3500000 -0.3392977
v -0.0072373 0.3500000 0.3407023
v -0.0072373 0.6300000 -0.3058807
v -0.0072373 0.6300000 0.2941193
v -0.0072373 0.7725000 -0.1335271
v -0.0072373 0.7725000 -0.1335271
v -0.0072373 0.7725000 -0.1085271
v -0.0072373 0.7725000 -0.1085271
v -0.0072373 0.7725000 0.1014729
v -0.0072373 0.7725000 0.1014729
v -0.0072373 0.7725000 0.1264729
v -0.0072373 0.7725000 0.1264729
v -0.0072373 0.7800000 -0.1764832
v -0.0072373 0.7800000 0.1635168
v -0.0072373 0.8200000 -0.1156627
v -0.0072373 0.8200000 -0.1156627
v -0.0072373 0.8200000 0.1043373
v -0.0072373 0.8200000 0.1043373
v -0.0072373 0.8275000 -0.1335271
v -0.0072373 0.8275000 -0.1335271
v -0.0072373 0.8275000 -0.1085271
v -0.0072373 0.8275000 -0.1085271
v -0.0072373 0.8275000 0.1014729
v -0.0072373 0.8275000 0.1014729
v -0.0072373 0.8275000 0.1264729
v -0.0072373 0.8275000 0.1264729
v -0.0072373 0.9000000 -0.1364653
v -0.0072373 0.9000000 -0.1364653
v -0.0072373 0.9000000 0.1235347
v -0.0072373 0.9000000 0.1235347
v -0.0072373 0.9100000 -0.0035271
v -0.0072373 0.9100000 -0.0035271
v -0.0072373 0.9100000 -0.0035271
v -0.0072373 0.9100000 -0.0035271
v -0.0072373 0.9100000 -0.0035271
v -0.0072373 0.9100000 -0.0035271
v -0.0072373 0.9100000 -0.0035271
v -0.0072373 0.9100000 -0.0035271
v -0.0072373 0.9100000 -0.0035271
v -0.0072373 0.9100000 -0.0035271
v -0.0072373 0.9100000 -0.0035271
v -0.0072373 0.9100000 -0.0035271
v -0.0072373 0.9100000 -0.0035271
v -0.0072373 0.9100000 -0.0035271
v -0.0072373 0.9100000 -0.0035271
v -0.0072373 0.9100000 -0.0035271
v -0.0072373 0.9100000 -0.0035271
v -0.0072373 0.9100000 -0.0035271
v -0.0072373 0.9100000 -0.0035271
v -0.0072373 0.9100000 -0.0035271
v -0.0072373 0.9100000 -0.0035271
v -0.0072373 0.9100000 -0.0035271
v -0.0072373 0.9100000 -0.0035271
v -0.0072373 0.9100000 -0.0035271
v -0.0072373 0.9100000 -0.0035271
v -0.0072373 0.9100000 -0.0035271
v -0.0072373 0.9100000 -0.0035271
v -0.0072373 0.9100000 -0.0035271
v -0.0072373 0.9100000 -0.0035271
v -0.0072373 0.9100000 -0.0035271
v -0.0072373 0.9100000 -0.0035271
v -0.0072373 0.9100000 -0.0035271
v 0.0132472 0.7725000 -0.1065096
v 0.0132472 0.7725000 -0.1065096
v 0.0132472 0.7725000 0.0994554
v 0.0132472 0.7725000 0.0994554
v 0.0132472 0.8275000 -0.1065096
v 0.0132472 0.8275000 -0.1065096
v 0.0132472 0.8275000 0.0994554
v 0.0132472 0.8275000 0.0994554
v 0.0142722 0.8200000 0.1046085
v 0.0142722 0.8200000 0.1046085
v 0.0147351 0.8200000 -0.1139901
v 0.0147351 0.8200000 -0.1139901
v 0.0180313 0.9000000 0.1235067
v 0.0180313 0.9000000 0.1235067
v 0.0181244 0.7725000 -0.1310292
v 0.0181244 0.7725000 -0.1310292
v 0.0181244 0.7725000 0.1239750
v 0.0181244 0.7725000 0.1239750
v 0.0181244 0.8275000 -0.1310292
v 0.0181244 0.8275000 -0.1310292
v 0.0181244 0.8275000 0.1239750
v 0.0181244 0.8275000 0.1239750
v 0.0186682 0.9000000 -0.1337629
v 0.0186682 0.9000000 -0.1337629
v 0.0261029 0.7800000 0.1640857
v 0.0267437 0.7800000 -0.1743615
v 0.0293150 0.0000000 -0.1872881
v 0.0293150 0.0000000 -0.1872881
v 0.0303447 0.0000000 0.1854104
v 0.0303447 0.0000000 0.1854104
v 0.0329444 0.7725000 -0.1005345
v 0.0329444 0.7725000 -0.1005345
v 0.0329444 0.7725000 0.0934802
v 0.0329444 0.7725000 0.0934802
v 0.0329444 0.8275000 -0.1005345
v 0.0329444 0.8275000 -0.1005345
v 0.0329444 0.8275000 0.0934802
v 0.0329444 0.8275000 0.0934802
v 0.0351577 0.8200000 -0.1058777
v 0.0351577 0.8200000 -0.1058777
v 0.0357832 0.8200000 0.1003335
v 0.0357832 0.8200000 0.1003335
v 0.0425115 0.7725000 -0.1236314
v 0.0425115 0.7725000 -0.1236314
v 0.0425115 0.7725000 0.1165772
v 0.0425115 0.7725000 0.1165772
v 0.0425115 0.8275000 -0.1236314
v 0.0425115 0.8275000 -0.1236314
v 0.0425115 0.8275000 0.1165772
v 0.0425115 0.8275000 0.1165772
v 0.0425723 0.9000000 -0.1237782
v 0.0425723 0.9000000 -0.1237782
v 0.0434329 0.9000000 0.1188016
v 0.0434329 0.9000000 0.1188016
v 0.0510975 0.7725000 -0.0908314
v 0.0510975 0.7725000 -0.0908314
v 0.0510975 0.7725000 0.0837772
v 0.0510975 0.7725000 0.0837772
v 0.0510975 0.8275000 -0.0908314
v 0.0510975 0.8275000 -0.0908314
v 0.0510975 0.8275000 0.0837772
v 0.0510975 0.8275000 0.0837772
v 0.0521898 0.6300000 0.2952333
v 0.0527000 0.6300000 -0.3048524
v 0.0528097 0.1000000 -0.3054039
v 0.0528995 0.8200000 -0.0935283
v 0.0528995 0.8200000 -0.0935283
v 0.0544147 0.1000000 0.3064184
v 0.0552268 0.8200000 0.0899571
v 0.0552268 0.8200000 0.0899571
v 0.0584655 0.7800000 -0.1621478
v 0.0593313 0.7800000 0.1571839
v 0.0598310 0.3500000 -0.3407023
v 0.0607478 0.3500000 0.3382572
v 0.0635363 0.9000000 -0.1094474
v 0.0635363 0.9000000 -0.1094474
v 0.0647769 0.0000000 0.1703306
v 0.0647769 0.0000000 0.1703306
v 0.0649868 0.7725000 -0.1116182
v 0.0649868 0.7725000 -0.1116182
v 0.0649868 0.7725000 0.1045639
v 0.0649868 0.7725000 0.1045639
v 0.0649868 0.8275000 -0.1116182
v 0.0649868 0.8275000 -0.1116182
v 0.0649868 0.8275000 0.1045639
v 0.0649868 0.8275000 0.1045639
v 0.0661681 0.0000000 -0.1807436
v 0.0661681 0.0000000 -0.1807436
v 0.0667384 0.9000000 0.1071854
v 0.0667384 0.9000000 0.1071854
v 0.0670089 0.7725000 -0.0777733
v 0.0670089 0.7725000 -0.0777733
v 0.0670089 0.7725000 0.0707191
v 0.0670089 0.7725000 0.0707191
v 0.0670089 0.8275000 -0.0777733
v 0.0670089 0.8275000 -0.0777733
v 0.0670089 0.8275000 0.0707191
v 0.0670089 0.8275000 0.0707191
v 0.0686103 0.8200000 -0.0793748
v 0.0686103 0.8200000 -0.0793748
v 0.0707459 0.8200000 0.0744561
v 0.0707459 0.8200000 0.0744561
v 0.0800670 0.7725000 -0.0618620
v 0.0800670 0.7725000 -0.0618620
v 0.0800670 0.7725000 0.0548078
v 0.0800670 0.7725000 0.0548078
v 0.0800670 0.8275000 -0.0618620
v 0.0800670 0.8275000 -0.0618620
v 0.0800670 0.8275000 0.0548078
v 0.0800670 0.8275000 0.0548078
v 0.0824650 0.8200000 0.0564101
v 0.0824650 0.8200000 0.0564101
v 0.0825229 0.9000000 -0.0932874
v 0.0825229 0.9000000 -0.0932874
v 0.0831578 0.8200000 -0.0639272
v 0.0831578 0.8200000 -0.0639272
v 0.0846866 0.7725000 -0.0954510
v 0.0846866 0.7725000 -0.0954510
v 0.0846866 0.7725000 0.0883968
v 0.0846866 0.7725000 0.0883968
v 0.0846866 0.8275000 -0.0954510
v 0.0846866 0.8275000 -0.0954510
v 0.0846866 0.8275000 0.0883968
v 0.0846866 0.8275000 0.0883968
v 0.0854612 0.9000000 0.0891714
v 0.0854612 0.9000000 0.0891714
v 0.0859298 0.7800000 -0.1429615
v 0.0891514 0.7800000 0.1407288
v 0.0897700 0.7725000 -0.0437089
v 0.0897700 0.7725000 -0.0437089
v 0.0897700 0.7725000 0.0366547
v 0.0897700 0.7725000 0.0366547
v 0.0897700 0.8275000 -0.0437089
v 0.0897700 0.8275000 -0.0437089
v 0.0897700 0.8275000 0.0366547
v 0.0897700 0.8275000 0.0366547
v 0.0919540 0.8200000 0.0375593
v 0.0919540 0.8200000 0.0375593
v 0.0955997 0.8200000 -0.0461236
v 0.0955997 0.8200000 -0.0461236
v 0.0957328 0.0000000 0.1505785
v 0.0957328 0.0000000 0.1505785
v 0.0957451 0.7725000 -0.0240116
v 0.0957451 0.7725000 -0.0240116
v 0.0957451 0.7725000 0.0169574
v 0.0957451 0.7725000 0.0169574
v 0.0957451 0.8275000 -0.0240116
v 0.0957451 0.8275000 -0.0240116
v 0.0957451 0.8275000 0.0169574
v 0.0957451 0.8275000 0.0169574
v 0.0977627 0.7725000 -0.0035271
v 0.0977627 0.7725000 -0.0035271
v 0.0977627 0.7725000 -0.0035271
v 0.0977627 0.8275000 -0.0035271
v 0.0977627 0.8275000 -0.0035271
v 0.0977627 0.8275000 -0.0035271
v 0.0992444 0.9000000 0.0676217
v 0.0992444 0.9000000 0.0676217
v 0.0998516 0.8200000 0.0177742
v 0.0998516 0.8200000 0.0177742
v 0.1001976 0.9000000 -0.0753128
v 0.1001976 0.9000000 -0.0753128
v 0.1008537 0.7725000 -0.0757512
v 0.1008537 0.7725000 -0.0757512
v 0.1008537 0.7725000 0.0686970
v 0.1008537 0.7725000 0.0686970
v 0.1008537 0.8275000 -0.0757512
v 0.1008537 0.8275000 -0.0757512
v 0.1008537 0.8275000 0.0686970
v 0.1008537 0.8275000 0.0686970
v 0.1009093 0.0000000 -0.1653799
v 0.1009093 0.0000000 -0.1653799
v 0.1033347 0.8200000 -0.0255212
v 0.1033347 0.8200000 -0.0255212
v 0.1044953 0.8200000 -0.0035271
v 0.1044953 0.8200000 -0.0035271
v 0.1044953 0.8200000 -0.0035271
v 0.1044953 0.8200000 -0.0035271
v 0.1097407 0.6300000 -0.2859371
v 0.1098680 0.9000000 0.0449795
v 0.1098680 0.9000000 0.0449795
v 0.1099660 0.7800000 -0.1207304
v 0.1104301 0.6300000 0.2805471
v 0.1111200 0.1000000 0.2822128
v 0.1128670 0.7725000 -0.0532759
v 0.1128670 0.7725000 -0.0532759
v 0.1128670 0.7725000 0.0462217
v 0.1128670 0.7725000 0.0462217
v 0.1128670 0.8275000 -0.0532759
v 0.1128670 0.8275000 -0.0532759
v 0.1128670 0.8275000 0.0462217
v 0.1128670 0.8275000 0.0462217
v 0.1129222 0.7800000 0.1166324
v 0.1132885 0.1000000 -0.2945023
v 0.1148839 0.9000000 -0.0541114
v 0.1148839 0.9000000 -0.0541114
v 0.1186255 0.9000000 0.0215086
v 0.1186255 0.9000000 0.0215086
v 0.1202648 0.7725000 -0.0288888
v 0.1202648 0.7725000 -0.0288888
v 0.1202648 0.7725000 0.0218346
v 0.1202648 0.7725000 0.0218346
v 0.1202648 0.8275000 -0.0288888
v 0.1202648 0.8275000 -0.0288888
v 0.1202648 0.8275000 0.0218346
v 0.1202648 0.8275000 0.0218346
v 0.1227627 0.7725000 -0.0035271
v 0.1227627 0.7725000 -0.0035271
v 0.1227627 0.7725000 -0.0035271
v 0.1227627 0.8275000 -0.0035271
v 0.1227627 0.8275000 -0.0035271
v 0.1227627 0.8275000 -0.0035271
v 0.1234177 0.9000000 -0.0295160
v 0.1234177 0.9000000 -0.0295160
v 0.1241517 0.9000000 -0.0035271
v 0.1241517 0.9000000 -0.0035271
v 0.1241517 0.9000000 -0.0035271
v 0.1241517 0.9000000 -0.0035271
v 0.1247380 0.0000000 0.1284482
v 0.1247380 0.0000000 0.1284482
v 0.1248624 0.3500000 0.3153900
v 0.1261012 0.3500000 -0.3254348
v 0.1294880 0.0000000 -0.1402524
v 0.1294880 0.0000000 -0.1402524
v 0.1311429 0.7800000 0.0889356
v 0.1321019 0.7800000 -0.0966306
v 0.1462194 0.7800000 0.0600368
v 0.1499714 0.0000000 -0.1085706
v 0.1499714 0.0000000 -0.1085706
v 0.1512659 0.7800000 -0.0691813
v 0.1515124 0.0000000 0.1025461
v 0.1515124 0.0000000 0.1025461
v 0.1587493 0.7800000 0.0294897
v 0.1589231 0.6300000 -0.2522038
v 0.1612034 0.1000000 0.2485622
v 0.1614880 0.6300000 0.2489882
v 0.1635707 0.7800000 -0.0375029
v 0.1642454 0.0000000 -0.0745576
v 0.1642454 0.0000000 -0.0745576
v 0.1658161 0.7800000 -0.0035271
v 0.1658161 0.7800000 -0.0035271
v 0.1692720 0.1000000 -0.2676920
v 0.1723542 0.0000000 0.0708621
v 0.1723542 0.0000000 0.0708621
v 0.1752383 0.0000000 -0.0398238
v 0.1752383 0.0000000 -0.0398238
v 0.1801511 0.3500000 0.2769196
v 0.1827627 0.0000000 -0.0035271
v 0.1827627 0.0000000 -0.0035271
v 0.1827627 0.0000000 -0.0035271
v 0.1829855 0.0000000 0.0343106
v 0.1829855 0.0000000 0.0343106
v 0.1847602 0.3500000 -0.2908718
v 0.2001573 0.6300000 -0.2109218
v 0.2025109 0.6300000 0.2062212
v 0.2071187 0.1000000 0.2108289
v 0.2145226 0.1000000 -0.2252870
v 0.2273778 0.3500000 0.2310880
v 0.2316071 0.3500000 -0.2423715
v 0.2360145 0.6300000 0.1590086
v 0.2367781 0.6300000 -0.1665730
v 0.2474495 0.1000000 -0.1737034
v 0.2498515 0.1000000 0.1682542
v 0.2653999 0.6300000 0.1094029
v 0.2687636 0.3500000 -0.1879450
v 0.2694177 0.6300000 -0.1181214
v 0.2701357 0.3500000 0.1818076
v 0.2720360 0.1000000 -0.1192059
v 0.2846752 0.1000000 0.1173870
v 0.2889592 0.6300000 0.0553901
v 0.2920163 0.1000000 -0.0630523
v 0.2927979 0.6300000 -0.0632078
v 0.2998838 0.6300000 -0.0035271
v 0.2998838 0.6300000 -0.0035271
v 0.3006649 0.3500000 -0.1310644
v 0.3040919 0.1000000 0.0584001
v 0.3050530 0.1000000 -0.0035271
v 0.3050530 0.1000000 -0.0035271
v 0.3078849 0.3500000 0.1270008
v 0.3267982 0.3500000 -0.0699709
v 0.3336962 0.3500000 0.0642888
v 0.3401358 0.3500000 -0.0035271
v 0.3401358 0.3500000 -0.0035271
vt 0.4687500 0.2187500
vt 0.5000000 0.2187500
vt 0.5312500 0.2187500
vt 0.4375000 0.2187500
vt 0.5625000 0.2187500
vt 0.4687500 0.0625000
vt 0.5000000 0.0625000
vt 0.5312500 0.0625000
vt 0.4375000 0.0625000
vt 0.5000000 0.3937500
vt 0.5312500 0.3937500
vt 0.4062500 0.2187500
vt 0.4687500 0.3937500
vt 0.5937500 0.2187500
vt 0.5625000 0.3937500
vt 0.5625000 0.0625000
vt 0.4375000 0.3937500
vt 0.4062500 0.0625000
vt 0.5937500 0.0625000
vt 0.5937500 0.3937500
vt 0.4062500 0.3937500
vt 0.6250000 0.2187500
vt 0.3750000 0.2187500
vt 0.6250000 0.0625000
vt 0.3750000 0.3937500
vt 0.3750000 0.0625000
vt 0.6250000 0.3937500
vt 0.6562500 0.2187500
vt 0.2202606 0.5556436
vt 0.4687500 0.0000000
vt 0.2205882 0.5000000
vt 0.5000000 0.0000000
vt 0.3437500 0.2187500
vt 0.2316535 0.4466226
vt 0.5312500 0.0000000
vt 0.2358949 0.6093959
vt 0.4375000 0.0000000
vt 0.6562500 0.0625000
vt 0.2478195 0.3955434
vt 0.5625000 0.0000000
vt 0.3437500 0.0625000
vt 0.5312500 0.4875000
vt 0.3437500 0.3937500
vt 0.5000000 0.4875000
vt 0.6562500 0.3937500
vt 0.4687500 0.4875000
vt 0.5625000 0.4875000
vt 0.2665445 0.6559900
vt 0.4062500 0.0000000
vt 0.2688107 0.3455243
vt 0.5937500 0.0000000
vt 0.4375000 0.4875000
vt 0.5937500 0.4875000
vt 0.4062500 0.4875000
vt 0.2989334 0.2989334
vt 0.6250000 0.0000000
vt 0.3059187 0.6940813
vt 0.3750000 0.0000000
vt 0.5000000 -0.0171875
vt 0.0000000 0.5000000
vt 0.5000000 0.0171875
vt 0.0000000 0.5000000
vt 0.5312500 0.5625000
vt 0.5312500 0.5625000
vt 0.5000000 0.5625000
vt 0.5000000 0.5625000
vt 0.6875000 0.2187500
vt 0.5312500 -0.0171875
vt 0.0096074 0.4024548
vt 0.4687500 -0.0171875
vt 0.0096074 0.5975452
vt 0.5312500 0.0171875
vt 0.0096074 0.4024548
vt 0.4687500 0.0171875
vt 0.0096074 0.5975452
vt 0.3125000 0.2187500
vt 0.4687500 0.5625000
vt 0.4687500 0.5625000
vt 0.3750000 0.4875000
vt 0.5625000 0.5625000
vt 0.5625000 0.5625000
vt 0.6250000 0.4875000
vt 0.5625000 -0.0171875
vt 0.0380602 0.3086583
vt 0.4375000 -0.0171875
vt 0.0380602 0.6913417
vt 0.5625000 0.0171875
vt 0.0380602 0.3086583
vt 0.4375000 0.0171875
vt 0.0380602 0.6913417
vt 0.6875000 0.0625000
vt 0.4375000 0.5625000
vt 0.4375000 0.5625000
vt 0.3125000 0.0625000
vt 0.3125000 0.3937500
vt 0.6875000 0.3937500
vt 0.5937500 0.5625000
vt 0.5937500 0.5625000
vt 0.4062500 0.5625000
vt 0.4062500 0.5625000
vt 0.5312500 0.5125000
vt 0.5312500 0.5125000
vt 0.5000000 0.5125000
vt 0.5000000 0.5125000
vt 0.3409609 0.2619811
vt 0.6562500 0.0000000
vt 0.5937500 -0.0171875
vt 0.0842652 0.2222149
vt 0.4062500 -0.0171875
vt 0.0842652 0.7777851
vt 0.5937500 0.0171875
vt 0.0842652 0.2222149
vt 0.4062500 0.0171875
vt 0.0842652 0.7777851
vt 0.4687500 0.5125000
vt 0.4687500 0.5125000
vt 0.0961538 0.5000000
vt 0.5000000 -0.0171875
vt 0.0961538 0.5000000
vt 0.5000000 0.0171875
vt 0.5625000 0.5125000
vt 0.5625000 0.5125000
vt 0.1039136 0.4212135
vt 0.5312500 -0.0171875
vt 0.1039136 0.5787865
vt 0.4687500 -0.0171875
vt 0.1039136 0.4212135
vt 0.5312500 0.0171875
vt 0.1039136 0.5787865
vt 0.4687500 0.0171875
vt 0.3437500 0.0000000
vt 0.3485734 0.7266259
vt 0.4375000 0.5125000
vt 0.4375000 0.5125000
vt 0.1268948 0.3454548
vt 0.5625000 -0.0171875
vt 0.1268948 0.6545452
vt 0.4375000 -0.0171875
vt 0.1268948 0.3454548
vt 0.5625000 0.0171875
vt 0.1268948 0.6545452
vt 0.4375000 0.0171875
vt 0.3437500 0.4875000
vt 0.3750000 0.5625000
vt 0.3750000 0.5625000
vt 0.5937500 0.5125000
vt 0.5937500 0.5125000
vt 0.4062500 0.5125000
vt 0.4062500 0.5125000
vt 0.6562500 0.4875000
vt 0.6250000 -0.0171875
vt 0.1464466 0.1464466
vt 0.3750000 -0.0171875
vt 0.1464466 0.8535534
vt 0.6250000 0.0171875
vt 0.1464466 0.1464466
vt 0.3750000 0.0171875
vt 0.1464466 0.8535534
vt 0.6250000 0.5625000
vt 0.6250000 0.5625000
vt 0.1642142 0.2756351
vt 0.5937500 -0.0171875
vt 0.1642142 0.7243649
vt 0.4062500 -0.0171875
vt 0.1642142 0.2756351
vt 0.5937500 0.0171875
vt 0.1642142 0.7243649
vt 0.4062500 0.0171875
vt 0.3750000 0.5125000
vt 0.3750000 0.5125000
vt 0.6250000 0.5125000
vt 0.6250000 0.5125000
vt 0.2144376 0.2144376
vt 0.6250000 -0.0171875
vt 0.2144376 0.7855624
vt 0.3750000 -0.0171875
vt 0.2144376 0.2144376
vt 0.6250000 0.0171875
vt 0.2144376 0.7855624
vt 0.3750000 0.0171875
vt 0.3437500 0.5625000
vt 0.3437500 0.5625000
vt 0.3920508 0.2393875
vt 0.6875000 0.0000000
vt 0.6562500 -0.0171875
vt 0.2222149 0.0842652
vt 0.3437500 -0.0171875
vt 0.2222149 0.9157348
vt 0.6562500 0.0171875
vt 0.2222149 0.0842652
vt 0.3437500 0.0171875
vt 0.2222149 0.9157348
vt 0.3125000 0.0000000
vt 0.3940967 0.7556731
vt 0.6562500 0.5625000
vt 0.6562500 0.5625000
vt 0.2812500 0.2187500
vt 0.7187500 0.2187500
vt 0.3125000 0.4875000
vt 0.6875000 0.4875000
vt 0.3437500 0.5125000
vt 0.3437500 0.5125000
vt 0.2812500 0.0625000
vt 0.6562500 0.5125000
vt 0.6562500 0.5125000
vt 0.7187500 0.0625000
vt 0.2756351 0.1642142
vt 0.6562500 -0.0171875
vt 0.2756351 0.8357858
vt 0.3437500 -0.0171875
vt 0.2756351 0.1642142
vt 0.6562500 0.0171875
vt 0.2756351 0.8357858
vt 0.3437500 0.0171875
vt 0.7187500 0.3937500
vt 0.2812500 0.3937500
vt 0.6875000 -0.0171875
vt 0.3086583 0.0380602
vt 0.3125000 -0.0171875
vt 0.3086583 0.9619398
vt 0.6875000 0.0171875
vt 0.3086583 0.0380602
vt 0.3125000 0.0171875
vt 0.3086583 0.9619398
vt 0.3125000 0.5625000
vt 0.3125000 0.5625000
vt 0.6875000 0.5625000
vt 0.6875000 0.5625000
vt 0.3125000 0.5125000
vt 0.3125000 0.5125000
vt 0.6875000 0.5125000
vt 0.6875000 0.5125000
vt 0.3454548 0.1268948
vt 0.6875000 -0.0171875
vt 0.3454548 0.8731052
vt 0.3125000 -0.0171875
vt 0.3454548 0.1268948
vt 0.6875000 0.0171875
vt 0.3454548 0.8731052
vt 0.3125000 0.0171875
vt 0.2812500 0.0000000
vt 0.4447324 0.7778492
vt 0.4462466 0.2297633
vt 0.7187500 0.0000000
vt 0.7187500 0.4875000
vt 0.2812500 0.4875000
vt 0.7187500 0.5625000
vt 0.7187500 0.5625000
vt 0.7187500 -0.0171875
vt 0.4024548 0.0096074
vt 0.2812500 -0.0171875
vt 0.4024548 0.9903926
vt 0.7187500 0.0171875
vt 0.4024548 0.0096074
vt 0.2812500 0.0171875
vt 0.4024548 0.9903926
vt 0.2812500 0.5625000
vt 0.2812500 0.5625000
vt 0.7187500 0.5125000
vt 0.7187500 0.5125000
vt 0.2812500 0.5125000
vt 0.2812500 0.5125000
vt 0.4212135 0.1039136
vt 0.7187500 -0.0171875
vt 0.4212135 0.8960864
vt 0.2812500 -0.0171875
vt 0.4212135 0.1039136
vt 0.7187500 0.0171875
vt 0.4212135 0.8960864
vt 0.2812500 0.0171875
vt 0.5000000 0.2275735
vt 0.7500000 0.0000000
vt 0.5000000 0.5000000
vt 0.2500000 0.0000000
vt 0.5000000 0.7863971
vt 0.7500000 0.0625000
vt 0.2500000 0.0625000
vt 0.7500000 0.2187500
vt 0.2500000 0.2187500
vt 0.7500000 0.3937500
vt 0.2500000 0.3937500
vt 0.5000000 0.0000000
vt 0.7500000 -0.0171875
vt 0.5000000 0.0961538
vt 0.7500000 -0.0171875
vt 0.5000000 0.9038462
vt 0.2500000 -0.0171875
vt 0.5000000 1.0000000
vt 0.2500000 -0.0171875
vt 0.7500000 0.4875000
vt 0.2500000 0.4875000
vt 0.7500000 0.5125000
vt 0.7500000 0.5125000
vt 0.2500000 0.5125000
vt 0.2500000 0.5125000
vt 0.7500000 0.0171875
vt 0.5000000 0.0000000
vt 0.7500000 0.0171875
vt 0.5000000 0.0961538
vt 0.2500000 0.0171875
vt 0.5000000 0.9038462
vt 0.2500000 0.0171875
vt 0.5000000 1.0000000
vt 0.7500000 0.5625000
vt 0.7500000 0.5625000
vt 0.2500000 0.5625000
vt 0.2500000 0.5625000
vt 0.5000000 0.5687500
vt 0.5312500 0.5687500
vt 0.4687500 0.5687500
vt 0.5625000 0.5687500
vt 0.4375000 0.5687500
vt 0.5937500 0.5687500
vt 0.4062500 0.5687500
vt 0.6250000 0.5687500
vt 0.3750000 0.5687500
vt 0.6562500 0.5687500
vt 0.3437500 0.5687500
vt 0.6875000 0.5687500
vt 0.3125000 0.5687500
vt 0.7187500 0.5687500
vt 0.2812500 0.5687500
vt 0.7500000 0.5687500
vt 0.2500000 0.5687500
vt 0.7812500 0.5687500
vt 0.2187500 0.5687500
vt 0.8125000 0.5687500
vt 0.1875000 0.5687500
vt 0.8437500 0.5687500
vt 0.1562500 0.5687500
vt 0.8750000 0.5687500
vt 0.1250000 0.5687500
vt 0.9062500 0.5687500
vt 0.0937500 0.5687500
vt 0.9375000 0.5687500
vt 0.0625000 0.5687500
vt 0.9687500 0.5687500
vt 0.0312500 0.5687500
vt 1.0000000 0.5687500
vt 0.7812500 -0.0171875
vt 0.5787865 0.1039136
vt 0.2187500 -0.0171875
vt 0.5787865 0.8960864
vt 0.7812500 0.0171875
vt 0.5787865 0.1039136
vt 0.2187500 0.0171875
vt 0.5787865 0.8960864
vt 0.2187500 0.5125000
vt 0.2187500 0.5125000
vt 0.7812500 0.5125000
vt 0.7812500 0.5125000
vt 0.2187500 0.5625000
vt 0.2187500 0.5625000
vt 0.5975452 0.0096074
vt 0.7812500 -0.0171875
vt 0.5975452 0.9903926
vt 0.2187500 -0.0171875
vt 0.5975452 0.0096074
vt 0.7812500 0.0171875
vt 0.5975452 0.9903926
vt 0.2187500 0.0171875
vt 0.7812500 0.5625000
vt 0.7812500 0.5625000
vt 0.2187500 0.4875000
vt 0.7812500 0.4875000
vt 0.5537534 0.2297633
vt 0.7812500 0.0000000
vt 0.2187500 0.0000000
vt 0.5552676 0.7778492
vt 0.8125000 -0.0171875
vt 0.6545452 0.1268948
vt 0.1875000 -0.0171875
vt 0.6545452 0.8731052
vt 0.8125000 0.0171875
vt 0.6545452 0.1268948
vt 0.1875000 0.0171875
vt 0.6545452 0.8731052
vt 0.8125000 0.5125000
vt 0.8125000 0.5125000
vt 0.1875000 0.5125000
vt 0.1875000 0.5125000
vt 0.6913417 0.0380602
vt 0.8125000 -0.0171875
vt 0.6913417 0.9619398
vt 0.1875000 -0.0171875
vt 0.6913417 0.0380602
vt 0.8125000 0.0171875
vt 0.6913417 0.9619398
vt 0.1875000 0.0171875
vt 0.8125000 0.5625000
vt 0.8125000 0.5625000
vt 0.1875000 0.5625000
vt 0.1875000 0.5625000
vt 0.8437500 -0.0171875
vt 0.7243649 0.1642142
vt 0.1562500 -0.0171875
vt 0.7243649 0.8357858
vt 0.8437500 0.0171875
vt 0.7243649 0.1642142
vt 0.1562500 0.0171875
vt 0.7243649 0.8357858
vt 0.2187500 0.3937500
vt 0.7812500 0.3937500
vt 0.7812500 0.0625000
vt 0.8437500 0.5125000
vt 0.8437500 0.5125000
vt 0.2187500 0.0625000
vt 0.1562500 0.5125000
vt 0.1562500 0.5125000
vt 0.8125000 0.4875000
vt 0.1875000 0.4875000
vt 0.7812500 0.2187500
vt 0.2187500 0.2187500
vt 0.8437500 0.5625000
vt 0.8437500 0.5625000
vt 0.1875000 0.0000000
vt 0.6059033 0.7556731
vt 0.7777851 0.0842652
vt 0.8437500 -0.0171875
vt 0.7777851 0.9157348
vt 0.1562500 -0.0171875
vt 0.7777851 0.0842652
vt 0.8437500 0.0171875
vt 0.7777851 0.9157348
vt 0.1562500 0.0171875
vt 0.6079492 0.2393875
vt 0.8125000 0.0000000
vt 0.1562500 0.5625000
vt 0.1562500 0.5625000
vt 0.8750000 -0.0171875
vt 0.7855624 0.2144376
vt 0.1250000 -0.0171875
vt 0.7855624 0.7855624
vt 0.8750000 0.0171875
vt 0.7855624 0.2144376
vt 0.1250000 0.0171875
vt 0.7855624 0.7855624
vt 0.8750000 0.5125000
vt 0.8750000 0.5125000
vt 0.1250000 0.5125000
vt 0.1250000 0.5125000
vt 0.9062500 -0.0171875
vt 0.8357858 0.2756351
vt 0.0937500 -0.0171875
vt 0.8357858 0.7243649
vt 0.9062500 0.0171875
vt 0.8357858 0.2756351
vt 0.0937500 0.0171875
vt 0.8357858 0.7243649
vt 0.0937500 0.5125000
vt 0.0937500 0.5125000
vt 0.8750000 0.5625000
vt 0.8750000 0.5625000
vt 0.9062500 0.5125000
vt 0.9062500 0.5125000
vt 0.8535534 0.1464466
vt 0.8750000 -0.0171875
vt 0.8535534 0.8535534
vt 0.1250000 -0.0171875
vt 0.8535534 0.1464466
vt 0.8750000 0.0171875
vt 0.8535534 0.8535534
vt 0.1250000 0.0171875
vt 0.1250000 0.5625000
vt 0.1250000 0.5625000
vt 0.8437500 0.4875000
vt 0.1562500 0.4875000
vt 0.9375000 -0.0171875
vt 0.8731052 0.3454548
vt 0.0625000 -0.0171875
vt 0.8731052 0.6545452
vt 0.9375000 0.0171875
vt 0.8731052 0.3454548
vt 0.0625000 0.0171875
vt 0.8731052 0.6545452
vt 0.0625000 0.5125000
vt 0.0625000 0.5125000
vt 0.9375000 0.5125000
vt 0.9375000 0.5125000
vt 0.1562500 0.0000000
vt 0.6514266 0.7266259
vt 0.9687500 -0.0171875
vt 0.8960864 0.4212135
vt 0.0312500 -0.0171875
vt 0.8960864 0.5787865
vt 0.9687500 0.0171875
vt 0.8960864 0.4212135
vt 0.0312500 0.0171875
vt 0.8960864 0.5787865
vt 0.0000000 -0.0171875
vt 1.0000000 -0.0171875
vt 0.9038462 0.5000000
vt 0.0000000 0.0171875
vt 1.0000000 0.0171875
vt 0.9038462 0.5000000
vt 0.0937500 0.5625000
vt 0.0937500 0.5625000
vt 0.0312500 0.5125000
vt 0.0312500 0.5125000
vt 0.9062500 0.5625000
vt 0.9062500 0.5625000
vt 0.9157348 0.2222149
vt 0.9062500 -0.0171875
vt 0.9157348 0.7777851
vt 0.0937500 -0.0171875
vt 0.9157348 0.2222149
vt 0.9062500 0.0171875
vt 0.9157348 0.7777851
vt 0.0937500 0.0171875
vt 0.6590391 0.2619811
vt 0.8437500 0.0000000
vt 0.9687500 0.5125000
vt 0.9687500 0.5125000
vt 0.0000000 0.5125000
vt 1.0000000 0.5125000
vt 0.0000000 0.5125000
vt 1.0000000 0.5125000
vt 0.8125000 0.3937500
vt 0.0625000 0.5625000
vt 0.0625000 0.5625000
vt 0.8750000 0.4875000
vt 0.1875000 0.3937500
vt 0.1875000 0.0625000
vt 0.9619398 0.3086583
vt 0.9375000 -0.0171875
vt 0.9619398 0.6913417
vt 0.0625000 -0.0171875
vt 0.9619398 0.3086583
vt 0.9375000 0.0171875
vt 0.9619398 0.6913417
vt 0.0625000 0.0171875
vt 0.1250000 0.4875000
vt 0.8125000 0.0625000
vt 0.9375000 0.5625000
vt 0.9375000 0.5625000
vt 0.0312500 0.5625000
vt 0.0312500 0.5625000
vt 0.9903926 0.4024548
vt 0.9687500 -0.0171875
vt 0.9903926 0.5975452
vt 0.0312500 -0.0171875
vt 0.9903926 0.4024548
vt 0.9687500 0.0171875
vt 0.9903926 0.5975452
vt 0.0312500 0.0171875
vt 1.0000000 0.5000000
vt 0.0000000 -0.0171875
vt 1.0000000 -0.0171875
vt 1.0000000 0.5000000
vt 0.0000000 0.0171875
vt 1.0000000 0.0171875
vt 0.9687500 0.5625000
vt 0.9687500 0.5625000
vt 0.0000000 0.5625000
vt 1.0000000 0.5625000
vt 0.0000000 0.5625000
vt 1.0000000 0.5625000
vt 0.1250000 0.0000000
vt 0.6940813 0.6940813
vt 0.1875000 0.2187500
vt 0.8125000 0.2187500
vt 0.7010666 0.2989334
vt 0.8750000 0.0000000
vt 0.0937500 0.4875000
vt 0.9062500 0.4875000
vt 0.0625000 0.4875000
vt 0.7311893 0.3455243
vt 0.9062500 0.0000000
vt 0.9375000 0.4875000
vt 0.0937500 0.0000000
vt 0.7334555 0.6559900
vt 0.0312500 0.4875000
vt 0.8437500 0.3937500
vt 0.1562500 0.0625000
vt 0.1562500 0.3937500
vt 0.9687500 0.4875000
vt 0.7521805 0.3955434
vt 0.9375000 0.0000000
vt 0.0000000 0.4875000
vt 1.0000000 0.4875000
vt 0.8437500 0.0625000
vt 0.0625000 0.0000000
vt 0.7641051 0.6093959
vt 0.7683465 0.4466226
vt 0.9687500 0.0000000
vt 0.1562500 0.2187500
vt 0.0000000 0.0000000
vt 0.7794118 0.5000000
vt 1.0000000 0.0000000
vt 0.0312500 0.0000000
vt 0.7797394 0.5556436
vt 0.8437500 0.2187500
vt 0.8750000 0.3937500
vt 0.1250000 0.3937500
vt 0.1250000 0.0625000
vt 0.8750000 0.0625000
vt 0.1250000 0.2187500
vt 0.8750000 0.2187500
vt 0.0937500 0.3937500
vt 0.9062500 0.3937500
vt 0.9062500 0.0625000
vt 0.0937500 0.0625000
vt 0.0625000 0.3937500
vt 0.9062500 0.2187500
vt 0.9375000 0.3937500
vt 0.0937500 0.2187500
vt 0.9375000 0.0625000
vt 0.0625000 0.0625000
vt 0.0312500 0.3937500
vt 0.9687500 0.0625000
vt 0.9687500 0.3937500
vt 0.0000000 0.3937500
vt 1.0000000 0.3937500
vt 0.9375000 0.2187500
vt 0.0312500 0.0625000
vt 0.0000000 0.0625000
vt 1.0000000 0.0625000
vt 0.0625000 0.2187500
vt 0.9687500 0.2187500
vt 0.0312500 0.2187500
vt 0.0000000 0.2187500
vt 1.0000000 0.2187500
vn -0.9807234 0.0112338 0.1950780
vn -0.9999369 0.0112338 0.0000000
vn -0.9807234 0.0112338 -0.1950780
vn -0.9238212 0.0112338 0.3826593
vn -0.9238212 0.0112338 -0.3826593
vn -0.8617789 -0.4774440 0.1714185
vn -0.8786622 -0.4774440 0.0000000
vn -0.8617789 -0.4774440 -0.1714185
vn -0.8117780 -0.4774440 0.3362494
vn -0.9098002 0.4150465 0.0000000
vn -0.8923187 0.4150465 -0.1774932
vn -0.8314171 0.0112338 0.5555352
vn -0.8923187 0.4150465 0.1774932
vn -0.8314171 0.0112338 -0.5555352
vn -0.8405458 0.4150465 -0.3481655
vn -0.8117780 -0.4774440 -0.3362494
vn -0.8405458 0.4150465 0.3481655
vn -0.7305809 -0.4774440 0.4881585
vn -0.7305809 -0.4774440 -0.4881585
vn -0.7564712 0.4150465 -0.5054579
vn -0.7564712 0.4150465 0.5054579
vn -0.7070622 0.0112338 -0.7070622
vn -0.7070622 0.0112338 0.7070622
vn -0.6213080 -0.4774440 -0.6213080
vn -0.6433259 0.4150465 0.6433259
vn -0.6213080 -0.4774440 0.6213080
vn -0.6433259 0.4150465 -0.6433259
vn -0.5555352 0.0112338 -0.8314171
vn -0.3338841 -0.9402716 0.0664137
vn -0.3338841 -0.9402716 0.0664137
vn -0.3404253 -0.9402716 0.0000000
vn -0.3404253 -0.9402716 0.0000000
vn -0.5555352 0.0112338 0.8314171
vn -0.3338841 -0.9402716 -0.0664137
vn -0.3338841 -0.9402716 -0.0664137
vn -0.3145119 -0.9402716 0.1302751
vn -0.3145119 -0.9402716 0.1302751
vn -0.4881585 -0.4774440 -0.7305809
vn -0.3145119 -0.9402716 -0.1302751
vn -0.3145119 -0.9402716 -0.1302751
vn -0.4881585 -0.4774440 0.7305809
vn -0.6484488 0.7502514 -0.1289845
vn -0.5054579 0.4150465 0.7564712
vn -0.6611527 0.7502514 0.0000000
vn -0.5054579 0.4150465 -0.7564712
vn -0.6484488 0.7502514 0.1289845
vn -0.6108254 0.7502514 -0.2530122
vn -0.2830533 -0.9402716 0.1891301
vn -0.2830533 -0.9402716 0.1891301
vn -0.2830533 -0.9402716 -0.1891301
vn -0.2830533 -0.9402716 -0.1891301
vn -0.6108254 0.7502514 0.2530122
vn -0.5497284 0.7502514 -0.3673167
vn -0.5497284 0.7502514 0.3673167
vn -0.2407170 -0.9402716 -0.2407170
vn -0.2407170 -0.9402716 -0.2407170
vn -0.2407170 -0.9402716 0.2407170
vn -0.2407170 -0.9402716 0.2407170
vn -1.0000000 0.0000000 0.0000000
vn 0.0000000 -1.0000000 0.0000000
vn -1.0000000 0.0000000 0.0000000
vn 0.0000000 1.0000000 0.0000000
vn -0.9515015 -0.2425356 -0.1892654
vn -0.0752228 0.9970545 -0.0149627
vn -0.9701425 -0.2425356 0.0000000
vn -0.0766965 0.9970545 0.0000000
vn -0.3826593 0.0112338 -0.9238212
vn -0.9807853 0.0000000 -0.1950903
vn 0.0000000 -1.0000000 0.0000000
vn -0.9807853 0.0000000 0.1950903
vn 0.0000000 -1.0000000 0.0000000
vn -0.9807853 0.0000000 -0.1950903
vn 0.0000000 1.0000000 0.0000000
vn -0.9807853 0.0000000 0.1950903
vn 0.0000000 1.0000000 0.0000000
vn -0.3826593 0.0112338 0.9238212
vn -0.9515015 -0.2425356 0.1892654
vn -0.0752228 0.9970545 0.0149627
vn -0.4675055 0.7502514 0.4675055
vn -0.8962948 -0.2425356 -0.3712575
vn -0.0708583 0.9970545 -0.0293505
vn -0.4675055 0.7502514 -0.4675055
vn -0.9238795 0.0000000 -0.3826834
vn 0.0000000 -1.0000000 0.0000000
vn -0.9238795 0.0000000 0.3826834
vn 0.0000000 -1.0000000 0.0000000
vn -0.9238795 0.0000000 -0.3826834
vn 0.0000000 1.0000000 0.0000000
vn -0.9238795 0.0000000 0.3826834
vn 0.0000000 1.0000000 0.0000000
vn -0.3362494 -0.4774440 -0.8117780
vn -0.8962948 -0.2425356 0.3712575
vn -0.0708583 0.9970545 0.0293505
vn -0.3362494 -0.4774440 0.8117780
vn -0.3481655 0.4150465 0.8405458
vn -0.3481655 0.4150465 -0.8405458
vn -0.8066440 -0.2425356 -0.5389823
vn -0.0637708 0.9970545 -0.0426103
vn -0.8066440 -0.2425356 0.5389823
vn -0.0637708 0.9970545 0.0426103
vn -0.9515015 -0.2425356 -0.1892654
vn -0.5440418 0.8320503 -0.1082166
vn -0.9701425 -0.2425356 0.0000000
vn -0.5547002 0.8320503 0.0000000
vn -0.1891301 -0.9402716 -0.2830533
vn -0.1891301 -0.9402716 -0.2830533
vn -0.8314696 0.0000000 -0.5555702
vn 0.0000000 -1.0000000 0.0000000
vn -0.8314696 0.0000000 0.5555702
vn 0.0000000 -1.0000000 0.0000000
vn -0.8314696 0.0000000 -0.5555702
vn 0.0000000 1.0000000 0.0000000
vn -0.8314696 0.0000000 0.5555702
vn 0.0000000 1.0000000 0.0000000
vn -0.9515015 -0.2425356 0.1892654
vn -0.5440418 0.8320503 0.1082166
vn 0.0000000 -1.0000000 0.0000000
vn 1.0000000 0.0000000 -0.0000000
vn 0.0000000 1.0000000 0.0000000
vn 1.0000000 0.0000000 -0.0000000
vn -0.8962948 -0.2425356 -0.3712575
vn -0.5124762 0.8320503 -0.2122746
vn 0.0000000 -1.0000000 0.0000000
vn 0.9807853 0.0000000 0.1950903
vn 0.0000000 -1.0000000 0.0000000
vn 0.9807853 0.0000000 -0.1950903
vn 0.0000000 1.0000000 0.0000000
vn 0.9807853 0.0000000 0.1950903
vn 0.0000000 1.0000000 0.0000000
vn 0.9807853 0.0000000 -0.1950903
vn -0.1891301 -0.9402716 0.2830533
vn -0.1891301 -0.9402716 0.2830533
vn -0.8962948 -0.2425356 0.3712575
vn -0.5124762 0.8320503 0.2122746
vn 0.0000000 -1.0000000 0.0000000
vn 0.9238795 0.0000000 0.3826834
vn 0.0000000 -1.0000000 0.0000000
vn 0.9238795 0.0000000 -0.3826834
vn 0.0000000 1.0000000 0.0000000
vn 0.9238795 0.0000000 0.3826834
vn 0.0000000 1.0000000 0.0000000
vn 0.9238795 0.0000000 -0.3826834
vn -0.3673167 0.7502514 0.5497284
vn -0.6859943 -0.2425356 0.6859943
vn -0.0542326 0.9970545 0.0542326
vn -0.8066440 -0.2425356 -0.5389823
vn -0.4612164 0.8320503 -0.3081749
vn -0.8066440 -0.2425356 0.5389823
vn -0.4612164 0.8320503 0.3081749
vn -0.3673167 0.7502514 -0.5497284
vn -0.7071068 0.0000000 -0.7071068
vn 0.0000000 -1.0000000 0.0000000
vn -0.7071068 0.0000000 0.7071068
vn 0.0000000 -1.0000000 0.0000000
vn -0.7071068 0.0000000 -0.7071068
vn 0.0000000 1.0000000 0.0000000
vn -0.7071068 0.0000000 0.7071068
vn 0.0000000 1.0000000 0.0000000
vn -0.6859943 -0.2425356 -0.6859943
vn -0.0542326 0.9970545 -0.0542326
vn 0.0000000 -1.0000000 0.0000000
vn 0.8314696 0.0000000 0.5555702
vn 0.0000000 -1.0000000 0.0000000
vn 0.8314696 0.0000000 -0.5555702
vn 0.0000000 1.0000000 0.0000000
vn 0.8314696 0.0000000 0.5555702
vn 0.0000000 1.0000000 0.0000000
vn 0.8314696 0.0000000 -0.5555702
vn -0.6859943 -0.2425356 0.6859943
vn -0.3922323 0.8320503 0.3922323
vn -0.6859943 -0.2425356 -0.6859943
vn -0.3922323 0.8320503 -0.3922323
vn 0.0000000 -1.0000000 0.0000000
vn 0.7071068 0.0000000 0.7071068
vn 0.0000000 -1.0000000 0.0000000
vn 0.7071068 0.0000000 -0.7071068
vn 0.0000000 1.0000000 0.0000000
vn 0.7071068 0.0000000 0.7071068
vn 0.0000000 1.0000000 0.0000000
vn 0.7071068 0.0000000 -0.7071068
vn -0.5389823 -0.2425356 0.8066440
vn -0.0426103 0.9970545 0.0637708
vn -0.1302751 -0.9402716 -0.3145119
vn -0.1302751 -0.9402716 -0.3145119
vn -0.5555702 0.0000000 -0.8314696
vn 0.0000000 -1.0000000 0.0000000
vn -0.5555702 0.0000000 0.8314696
vn 0.0000000 -1.0000000 0.0000000
vn -0.5555702 0.0000000 -0.8314696
vn 0.0000000 1.0000000 0.0000000
vn -0.5555702 0.0000000 0.8314696
vn 0.0000000 1.0000000 0.0000000
vn -0.1302751 -0.9402716 0.3145119
vn -0.1302751 -0.9402716 0.3145119
vn -0.5389823 -0.2425356 -0.8066440
vn -0.0426103 0.9970545 -0.0637708
vn -0.1950780 0.0112338 0.9807234
vn -0.1950780 0.0112338 -0.9807234
vn -0.2530122 0.7502514 0.6108254
vn -0.2530122 0.7502514 -0.6108254
vn -0.5389823 -0.2425356 0.8066440
vn -0.3081749 0.8320503 0.4612164
vn -0.1714185 -0.4774440 0.8617789
vn -0.5389823 -0.2425356 -0.8066440
vn -0.3081749 0.8320503 -0.4612164
vn -0.1714185 -0.4774440 -0.8617789
vn 0.0000000 -1.0000000 0.0000000
vn 0.5555702 0.0000000 0.8314696
vn 0.0000000 -1.0000000 0.0000000
vn 0.5555702 0.0000000 -0.8314696
vn 0.0000000 1.0000000 0.0000000
vn 0.5555702 0.0000000 0.8314696
vn 0.0000000 1.0000000 0.0000000
vn 0.5555702 0.0000000 -0.8314696
vn -0.1774932 0.4150465 -0.8923187
vn -0.1774932 0.4150465 0.8923187
vn -0.3826834 0.0000000 -0.9238795
vn 0.0000000 -1.0000000 0.0000000
vn -0.3826834 0.0000000 0.9238795
vn 0.0000000 -1.0000000 0.0000000
vn -0.3826834 0.0000000 -0.9238795
vn 0.0000000 1.0000000 0.0000000
vn -0.3826834 0.0000000 0.9238795
vn 0.0000000 1.0000000 0.0000000
vn -0.3712575 -0.2425356 0.8962948
vn -0.0293505 0.9970545 0.0708583
vn -0.3712575 -0.2425356 -0.8962948
vn -0.0293505 0.9970545 -0.0708583
vn -0.3712575 -0.2425356 0.8962948
vn -0.2122746 0.8320503 0.5124762
vn -0.3712575 -0.2425356 -0.8962948
vn -0.2122746 0.8320503 -0.5124762
vn 0.0000000 -1.0000000 0.0000000
vn 0.3826834 0.0000000 0.9238795
vn 0.0000000 -1.0000000 0.0000000
vn 0.3826834 0.0000000 -0.9238795
vn 0.0000000 1.0000000 0.0000000
vn 0.3826834 0.0000000 0.9238795
vn 0.0000000 1.0000000 0.0000000
vn 0.3826834 0.0000000 -0.9238795
vn -0.0664137 -0.9402716 0.3338841
vn -0.0664137 -0.9402716 0.3338841
vn -0.0664137 -0.9402716 -0.3338841
vn -0.0664137 -0.9402716 -0.3338841
vn -0.1289845 0.7502514 -0.6484488
vn -0.1289845 0.7502514 0.6484488
vn -0.1892654 -0.2425356 -0.9515015
vn -0.0149627 0.9970545 -0.0752228
vn -0.1950903 0.0000000 -0.9807853
vn 0.0000000 -1.0000000 0.0000000
vn -0.1950903 0.0000000 0.9807853
vn 0.0000000 -1.0000000 0.0000000
vn -0.1950903 0.0000000 -0.9807853
vn 0.0000000 1.0000000 0.0000000
vn -0.1950903 0.0000000 0.9807853
vn 0.0000000 1.0000000 0.0000000
vn -0.1892654 -0.2425356 0.9515015
vn -0.0149627 0.9970545 0.0752228
vn -0.1892654 -0.2425356 -0.9515015
vn -0.1082166 0.8320503 -0.5440418
vn -0.1892654 -0.2425356 0.9515015
vn -0.1082166 0.8320503 0.5440418
vn 0.0000000 -1.0000000 0.0000000
vn 0.1950903 0.0000000 0.9807853
vn 0.0000000 -1.0000000 0.0000000
vn 0.1950903 0.0000000 -0.9807853
vn 0.0000000 1.0000000 0.0000000
vn 0.1950903 0.0000000 0.9807853
vn 0.0000000 1.0000000 0.0000000
vn 0.1950903 0.0000000 -0.9807853
vn -0.0000000 -0.9402716 -0.3404253
vn -0.0000000 -0.9402716 -0.3404253
vn 0.0000000 -1.0000000 0.0000000
vn 0.0000000 -0.9402716 0.3404253
vn 0.0000000 -0.9402716 0.3404253
vn -0.0000000 -0.4774440 -0.8786622
vn 0.0000000 -0.4774440 0.8786622
vn -0.0000000 0.0112338 -0.9999369
vn 0.0000000 0.0112338 0.9999369
vn -0.0000000 0.4150465 -0.9098002
vn 0.0000000 0.4150465 0.9098002
vn 0.0000000 -1.0000000 0.0000000
vn -0.0000000 0.0000000 -1.0000000
vn 0.0000000 -1.0000000 0.0000000
vn 0.0000000 0.0000000 1.0000000
vn 0.0000000 -1.0000000 0.0000000
vn -0.0000000 0.0000000 -1.0000000
vn 0.0000000 -1.0000000 0.0000000
vn 0.0000000 0.0000000 1.0000000
vn -0.0000000 0.7502514 -0.6611527
vn 0.0000000 0.7502514 0.6611527
vn -0.0000000 -0.2425356 -0.9701425
vn -0.0000000 0.8320503 -0.5547002
vn 0.0000000 -0.2425356 0.9701425
vn 0.0000000 0.8320503 0.5547002
vn -0.0000000 0.0000000 -1.0000000
vn 0.0000000 1.0000000 0.0000000
vn 0.0000000 0.0000000 1.0000000
vn 0.0000000 1.0000000 0.0000000
vn -0.0000000 0.0000000 -1.0000000
vn 0.0000000 1.0000000 0.0000000
vn 0.0000000 0.0000000 1.0000000
vn 0.0000000 1.0000000 0.0000000
vn -0.0000000 -0.2425356 -0.9701425
vn -0.0000000 0.9970545 -0.0766965
vn 0.0000000 -0.2425356 0.9701425
vn 0.0000000 0.9970545 0.0766965
vn -0.0766965 0.9970545 0.0000000
vn -0.0752228 0.9970545 -0.0149627
vn -0.0752228 0.9970545 0.0149627
vn -0.0708583 0.9970545 -0.0293505
vn -0.0708583 0.9970545 0.0293505
vn -0.0637708 0.9970545 -0.0426103
vn -0.0637708 0.9970545 0.0426103
vn -0.0542326 0.9970545 -0.0542326
vn -0.0542326 0.9970545 0.0542326
vn -0.0426103 0.9970545 -0.0637708
vn -0.0426103 0.9970545 0.0637708
vn -0.0293505 0.9970545 -0.0708583
vn -0.0293505 0.9970545 0.0708583
vn -0.0149627 0.9970545 -0.0752228
vn -0.0149627 0.9970545 0.0752228
vn -0.0000000 0.9970545 -0.0766965
vn 0.0000000 0.9970545 0.0766965
vn 0.0149627 0.9970545 -0.0752228
vn 0.0149627 0.9970545 0.0752228
vn 0.0293505 0.9970545 -0.0708583
vn 0.0293505 0.9970545 0.0708583
vn 0.0426103 0.9970545 -0.0637708
vn 0.0426103 0.9970545 0.0637708
vn 0.0542326 0.9970545 -0.0542326
vn 0.0542326 0.9970545 0.0542326
vn 0.0637708 0.9970545 -0.0426103
vn 0.0637708 0.9970545 0.0426103
vn 0.0708583 0.9970545 -0.0293505
vn 0.0708583 0.9970545 0.0293505
vn 0.0752228 0.9970545 -0.0149627
vn 0.0752228 0.9970545 0.0149627
vn 0.0766965 0.9970545 -0.0000000
vn -0.1950903 0.0000000 0.9807853
vn 0.0000000 -1.0000000 0.0000000
vn -0.1950903 0.0000000 -0.9807853
vn 0.0000000 -1.0000000 0.0000000
vn -0.1950903 0.0000000 0.9807853
vn 0.0000000 1.0000000 0.0000000
vn -0.1950903 0.0000000 -0.9807853
vn 0.0000000 1.0000000 0.0000000
vn 0.1082166 0.8320503 0.5440418
vn 0.1892654 -0.2425356 0.9515015
vn 0.1082166 0.8320503 -0.5440418
vn 0.1892654 -0.2425356 -0.9515015
vn 0.0149627 0.9970545 0.0752228
vn 0.1892654 -0.2425356 0.9515015
vn 0.0000000 -1.0000000 0.0000000
vn 0.1950903 0.0000000 -0.9807853
vn 0.0000000 -1.0000000 0.0000000
vn 0.1950903 0.0000000 0.9807853
vn 0.0000000 1.0000000 0.0000000
vn 0.1950903 0.0000000 -0.9807853
vn 0.0000000 1.0000000 0.0000000
vn 0.1950903 0.0000000 0.9807853
vn 0.0149627 0.9970545 -0.0752228
vn 0.1892654 -0.2425356 -0.9515015
vn 0.1289845 0.7502514 0.6484488
vn 0.1289845 0.7502514 -0.6484488
vn 0.0664137 -0.9402716 -0.3338841
vn 0.0664137 -0.9402716 -0.3338841
vn 0.0664137 -0.9402716 0.3338841
vn 0.0664137 -0.9402716 0.3338841
vn -0.3826834 0.0000000 0.9238795
vn 0.0000000 -1.0000000 0.0000000
vn -0.3826834 0.0000000 -0.9238795
vn 0.0000000 -1.0000000 0.0000000
vn -0.3826834 0.0000000 0.9238795
vn 0.0000000 1.0000000 0.0000000
vn -0.3826834 0.0000000 -0.9238795
vn 0.0000000 1.0000000 0.0000000
vn 0.2122746 0.8320503 -0.5124762
vn 0.3712575 -0.2425356 -0.8962948
vn 0.2122746 0.8320503 0.5124762
vn 0.3712575 -0.2425356 0.8962948
vn 0.0000000 -1.0000000 0.0000000
vn 0.3826834 0.0000000 -0.9238795
vn 0.0000000 -1.0000000 0.0000000
vn 0.3826834 0.0000000 0.9238795
vn 0.0000000 1.0000000 0.0000000
vn 0.3826834 0.0000000 -0.9238795
vn 0.0000000 1.0000000 0.0000000
vn 0.3826834 0.0000000 0.9238795
vn 0.0293505 0.9970545 -0.0708583
vn 0.3712575 -0.2425356 -0.8962948
vn 0.0293505 0.9970545 0.0708583
vn 0.3712575 -0.2425356 0.8962948
vn -0.5555702 0.0000000 0.8314696
vn 0.0000000 -1.0000000 0.0000000
vn -0.5555702 0.0000000 -0.8314696
vn 0.0000000 -1.0000000 0.0000000
vn -0.5555702 0.0000000 0.8314696
vn 0.0000000 1.0000000 0.0000000
vn -0.5555702 0.0000000 -0.8314696
vn 0.0000000 1.0000000 0.0000000
vn 0.1774932 0.4150465 0.8923187
vn 0.1774932 0.4150465 -0.8923187
vn 0.1714185 -0.4774440 -0.8617789
vn 0.3081749 0.8320503 -0.4612164
vn 0.5389823 -0.2425356 -0.8066440
vn 0.1714185 -0.4774440 0.8617789
vn 0.3081749 0.8320503 0.4612164
vn 0.5389823 -0.2425356 0.8066440
vn 0.2530122 0.7502514 -0.6108254
vn 0.2530122 0.7502514 0.6108254
vn 0.1950780 0.0112338 -0.9807234
vn 0.1950780 0.0112338 0.9807234
vn 0.0426103 0.9970545 -0.0637708
vn 0.5389823 -0.2425356 -0.8066440
vn 0.1302751 -0.9402716 0.3145119
vn 0.1302751 -0.9402716 0.3145119
vn 0.0000000 -1.0000000 0.0000000
vn 0.5555702 0.0000000 -0.8314696
vn 0.0000000 -1.0000000 0.0000000
vn 0.5555702 0.0000000 0.8314696
vn 0.0000000 1.0000000 0.0000000
vn 0.5555702 0.0000000 -0.8314696
vn 0.0000000 1.0000000 0.0000000
vn 0.5555702 0.0000000 0.8314696
vn 0.1302751 -0.9402716 -0.3145119
vn 0.1302751 -0.9402716 -0.3145119
vn 0.0426103 0.9970545 0.0637708
vn 0.5389823 -0.2425356 0.8066440
vn -0.7071068 0.0000000 0.7071068
vn 0.0000000 -1.0000000 0.0000000
vn -0.7071068 0.0000000 -0.7071068
vn 0.0000000 -1.0000000 0.0000000
vn -0.7071068 0.0000000 0.7071068
vn 0.0000000 1.0000000 0.0000000
vn -0.7071068 0.0000000 -0.7071068
vn 0.0000000 1.0000000 0.0000000
vn 0.3922323 0.8320503 -0.3922323
vn 0.6859943 -0.2425356 -0.6859943
vn 0.3922323 0.8320503 0.3922323
vn 0.6859943 -0.2425356 0.6859943
vn -0.8314696 0.0000000 0.5555702
vn 0.0000000 -1.0000000 0.0000000
vn -0.8314696 0.0000000 -0.5555702
vn 0.0000000 -1.0000000 0.0000000
vn -0.8314696 0.0000000 0.5555702
vn 0.0000000 1.0000000 0.0000000
vn -0.8314696 0.0000000 -0.5555702
vn 0.0000000 1.0000000 0.0000000
vn 0.4612164 0.8320503 0.3081749
vn 0.8066440 -0.2425356 0.5389823
vn 0.0542326 0.9970545 -0.0542326
vn 0.6859943 -0.2425356 -0.6859943
vn 0.4612164 0.8320503 -0.3081749
vn 0.8066440 -0.2425356 -0.5389823
vn 0.0000000 -1.0000000 0.0000000
vn 0.7071068 0.0000000 -0.7071068
vn 0.0000000 -1.0000000 0.0000000
vn 0.7071068 0.0000000 0.7071068
vn 0.0000000 1.0000000 0.0000000
vn 0.7071068 0.0000000 -0.7071068
vn 0.0000000 1.0000000 0.0000000
vn 0.7071068 0.0000000 0.7071068
vn 0.0542326 0.9970545 0.0542326
vn 0.6859943 -0.2425356 0.6859943
vn 0.3673167 0.7502514 -0.5497284
vn 0.3673167 0.7502514 0.5497284
vn -0.9238795 0.0000000 0.3826834
vn 0.0000000 -1.0000000 0.0000000
vn -0.9238795 0.0000000 -0.3826834
vn 0.0000000 -1.0000000 0.0000000
vn -0.9238795 0.0000000 0.3826834
vn 0.0000000 1.0000000 0.0000000
vn -0.9238795 0.0000000 -0.3826834
vn 0.0000000 1.0000000 0.0000000
vn 0.5124762 0.8320503 0.2122746
vn 0.8962948 -0.2425356 0.3712575
vn 0.5124762 0.8320503 -0.2122746
vn 0.8962948 -0.2425356 -0.3712575
vn 0.1891301 -0.9402716 0.2830533
vn 0.1891301 -0.9402716 0.2830533
vn -0.9807853 0.0000000 0.1950903
vn 0.0000000 -1.0000000 0.0000000
vn -0.9807853 0.0000000 -0.1950903
vn 0.0000000 -1.0000000 0.0000000
vn -0.9807853 0.0000000 0.1950903
vn 0.0000000 1.0000000 0.0000000
vn -0.9807853 0.0000000 -0.1950903
vn 0.0000000 1.0000000 0.0000000
vn -1.0000000 0.0000000 0.0000000
vn -1.0000000 0.0000000 0.0000000
vn 0.0000000 -1.0000000 0.0000000
vn -1.0000000 0.0000000 0.0000000
vn -1.0000000 0.0000000 0.0000000
vn 0.0000000 1.0000000 0.0000000
vn 0.0637708 0.9970545 0.0426103
vn 0.8066440 -0.2425356 0.5389823
vn 0.5440418 0.8320503 0.1082166
vn 0.9515015 -0.2425356 0.1892654
vn 0.0637708 0.9970545 -0.0426103
vn 0.8066440 -0.2425356 -0.5389823
vn 0.0000000 -1.0000000 0.0000000
vn 0.8314696 0.0000000 -0.5555702
vn 0.0000000 -1.0000000 0.0000000
vn 0.8314696 0.0000000 0.5555702
vn 0.0000000 1.0000000 0.0000000
vn 0.8314696 0.0000000 -0.5555702
vn 0.0000000 1.0000000 0.0000000
vn 0.8314696 0.0000000 0.5555702
vn 0.1891301 -0.9402716 -0.2830533
vn 0.1891301 -0.9402716 -0.2830533
vn 0.5440418 0.8320503 -0.1082166
vn 0.9515015 -0.2425356 -0.1892654
vn 0.5547002 0.8320503 0.0000000
vn 0.5547002 0.8320503 -0.0000000
vn 0.9701425 -0.2425356 0.0000000
vn 0.9701425 -0.2425356 -0.0000000
vn 0.3481655 0.4150465 -0.8405458
vn 0.0708583 0.9970545 0.0293505
vn 0.8962948 -0.2425356 0.3712575
vn 0.4675055 0.7502514 -0.4675055
vn 0.3481655 0.4150465 0.8405458
vn 0.3362494 -0.4774440 0.8117780
vn 0.0000000 -1.0000000 0.0000000
vn 0.9238795 0.0000000 -0.3826834
vn 0.0000000 -1.0000000 0.0000000
vn 0.9238795 0.0000000 0.3826834
vn 0.0000000 1.0000000 0.0000000
vn 0.9238795 0.0000000 -0.3826834
vn 0.0000000 1.0000000 0.0000000
vn 0.9238795 0.0000000 0.3826834
vn 0.4675055 0.7502514 0.4675055
vn 0.3362494 -0.4774440 -0.8117780
vn 0.0708583 0.9970545 -0.0293505
vn 0.8962948 -0.2425356 -0.3712575
vn 0.0752228 0.9970545 0.0149627
vn 0.9515015 -0.2425356 0.1892654
vn 0.0000000 -1.0000000 0.0000000
vn 0.9807853 0.0000000 -0.1950903
vn 0.0000000 -1.0000000 0.0000000
vn 0.9807853 0.0000000 0.1950903
vn 0.0000000 1.0000000 0.0000000
vn 0.9807853 0.0000000 -0.1950903
vn 0.0000000 1.0000000 0.0000000
vn 0.9807853 0.0000000 0.1950903
vn 0.0000000 -1.0000000 0.0000000
vn 1.0000000 0.0000000 0.0000000
vn 1.0000000 0.0000000 -0.0000000
vn 0.0000000 1.0000000 0.0000000
vn 1.0000000 0.0000000 0.0000000
vn 1.0000000 0.0000000 -0.0000000
vn 0.0752228 0.9970545 -0.0149627
vn 0.9515015 -0.2425356 -0.1892654
vn 0.0766965 0.9970545 0.0000000
vn 0.0766965 0.9970545 -0.0000000
vn 0.9701425 -0.2425356 0.0000000
vn 0.9701425 -0.2425356 -0.0000000
vn 0.2407170 -0.9402716 0.2407170
vn 0.2407170 -0.9402716 0.2407170
vn 0.3826593 0.0112338 0.9238212
vn 0.3826593 0.0112338 -0.9238212
vn 0.2407170 -0.9402716 -0.2407170
vn 0.2407170 -0.9402716 -0.2407170
vn 0.5497284 0.7502514 0.3673167
vn 0.5497284 0.7502514 -0.3673167
vn 0.6108254 0.7502514 0.2530122
vn 0.2830533 -0.9402716 -0.1891301
vn 0.2830533 -0.9402716 -0.1891301
vn 0.6108254 0.7502514 -0.2530122
vn 0.2830533 -0.9402716 0.1891301
vn 0.2830533 -0.9402716 0.1891301
vn 0.6484488 0.7502514 0.1289845
vn 0.5054579 0.4150465 -0.7564712
vn 0.4881585 -0.4774440 0.7305809
vn 0.5054579 0.4150465 0.7564712
vn 0.6484488 0.7502514 -0.1289845
vn 0.3145119 -0.9402716 -0.1302751
vn 0.3145119 -0.9402716 -0.1302751
vn 0.6611527 0.7502514 0.0000000
vn 0.6611527 0.7502514 -0.0000000
vn 0.4881585 -0.4774440 -0.7305809
vn 0.3145119 -0.9402716 0.1302751
vn 0.3145119 -0.9402716 0.1302751
vn 0.3338841 -0.9402716 -0.0664137
vn 0.3338841 -0.9402716 -0.0664137
vn 0.5555352 0.0112338 0.8314171
vn 0.3404253 -0.9402716 0.0000000
vn 0.3404253 -0.9402716 -0.0000000
vn 0.3404253 -0.9402716 -0.0000000
vn 0.3338841 -0.9402716 0.0664137
vn 0.3338841 -0.9402716 0.0664137
vn 0.5555352 0.0112338 -0.8314171
vn 0.6433259 0.4150465 -0.6433259
vn 0.6433259 0.4150465 0.6433259
vn 0.6213080 -0.4774440 0.6213080
vn 0.6213080 -0.4774440 -0.6213080
vn 0.7070622 0.0112338 0.7070622
vn 0.7070622 0.0112338 -0.7070622
vn 0.7564712 0.4150465 0.5054579
vn 0.7564712 0.4150465 -0.5054579
vn 0.7305809 -0.4774440 -0.4881585
vn 0.7305809 -0.4774440 0.4881585
vn 0.8405458 0.4150465 0.3481655
vn 0.8314171 0.0112338 -0.5555352
vn 0.8405458 0.4150465 -0.3481655
vn 0.8314171 0.0112338 0.5555352
vn 0.8117780 -0.4774440 -0.3362494
vn 0.8117780 -0.4774440 0.3362494
vn 0.8923187 0.4150465 0.1774932
vn 0.8617789 -0.4774440 -0.1714185
vn 0.8923187 0.4150465 -0.1774932
vn 0.9098002 0.4150465 0.0000000
vn 0.9098002 0.4150465 -0.0000000
vn 0.9238212 0.0112338 -0.3826593
vn 0.8617789 -0.4774440 0.1714185
vn 0.8786622 -0.4774440 0.0000000
vn 0.8786622 -0.4774440 -0.0000000
vn 0.9238212 0.0112338 0.3826593
vn 0.9807234 0.0112338 -0.1950780
vn 0.9807234 0.0112338 0.1950780
vn 0.9999369 0.0112338 0.0000000
vn 0.9999369 0.0112338 -0.0000000
o 27_Saco_Cloth
usemtl Cloth
s 1
f 273/273/273 588/588/588 591/591/591
f 273/273/273 591/591/591 583/583/583
f 273/273/273 583/583/583 571/571/571
f 273/273/273 571/571/571 559/559/559
f 273/273/273 559/559/559 481/481/481
f 273/273/273 481/481/481 417/417/417
f 273/273/273 417/417/417 369/369/369
f 273/273/273 369/369/369 275/275/275
f 273/273/273 275/275/275 242/242/242
f 273/273/273 242/242/242 194/194/194
f 273/273/273 194/194/194 132/132/132
f 273/273/273 132/132/132 57/57/57
f 273/273/273 57/57/57 48/48/48
f 273/273/273 48/48/48 36/36/36
f 273/273/273 36/36/36 29/29/29
f 273/273/273 29/29/29 31/31/31
f 273/273/273 31/31/31 34/34/34
f 273/273/273 34/34/34 39/39/39
f 273/273/273 39/39/39 50/50/50
f 273/273/273 50/50/50 55/55/55
f 273/273/273 55/55/55 105/105/105
f 273/273/273 105/105/105 183/183/183
f 273/273/273 183/183/183 243/243/243
f 273/273/273 243/243/243 271/271/271
f 273/273/273 271/271/271 366/366/366
f 273/273/273 366/366/366 426/426/426
f 273/273/273 426/426/426 510/510/510
f 273/273/273 510/510/510 562/562/562
f 273/273/273 562/562/562 567/567/567
f 273/273/273 567/567/567 577/577/577
f 273/273/273 577/577/577 584/584/584
f 273/273/273 584/584/584 588/588/588
f 587/587/587 615/615/615 590/590/590
f 587/587/587 616/616/616 615/615/615
f 590/590/590 608/608/608 582/582/582
f 590/590/590 615/615/615 608/608/608
f 582/582/582 602/602/602 570/570/570
f 582/582/582 608/608/608 602/602/602
f 570/570/570 595/595/595 558/558/558
f 570/570/570 602/602/602 595/595/595
f 558/558/558 574/574/574 480/480/480
f 558/558/558 595/595/595 574/574/574
f 480/480/480 523/523/523 416/416/416
f 480/480/480 574/574/574 523/523/523
f 416/416/416 407/407/407 368/368/368
f 416/416/416 523/523/523 407/407/407
f 368/368/368 277/277/277 274/274/274
f 368/368/368 407/407/407 277/277/277
f 274/274/274 203/203/203 241/241/241
f 274/274/274 277/277/277 203/203/203
f 241/241/241 94/94/94 193/193/193
f 241/241/241 203/203/203 94/94/94
f 193/193/193 41/41/41 131/131/131
f 193/193/193 94/94/94 41/41/41
f 131/131/131 26/26/26 58/58/58
f 131/131/131 41/41/41 26/26/26
f 58/58/58 18/18/18 49/49/49
f 58/58/58 26/26/26 18/18/18
f 49/49/49 9/9/9 37/37/37
f 49/49/49 18/18/18 9/9/9
f 37/37/37 6/6/6 30/30/30
f 37/37/37 9/9/9 6/6/6
f 30/30/30 7/7/7 32/32/32
f 30/30/30 6/6/6 7/7/7
f 32/32/32 8/8/8 35/35/35
f 32/32/32 7/7/7 8/8/8
f 35/35/35 16/16/16 40/40/40
f 35/35/35 8/8/8 16/16/16
f 40/40/40 19/19/19 51/51/51
f 40/40/40 16/16/16 19/19/19
f 51/51/51 24/24/24 56/56/56
f 51/51/51 19/19/19 24/24/24
f 56/56/56 38/38/38 106/106/106
f 56/56/56 24/24/24 38/38/38
f 106/106/106 91/91/91 184/184/184
f 106/106/106 38/38/38 91/91/91
f 184/184/184 206/206/206 244/244/244
f 184/184/184 91/91/91 206/206/206
f 244/244/244 276/276/276 272/272/272
f 244/244/244 206/206/206 276/276/276
f 272/272/272 404/404/404 367/367/367
f 272/272/272 276/276/276 404/404/404
f 367/367/367 533/533/533 427/427/427
f 367/367/367 404/404/404 533/533/533
f 427/427/427 581/581/581 511/511/511
f 427/427/427 533/533/533 581/581/581
f 511/511/511 596/596/596 563/563/563
f 511/511/511 581/581/581 596/596/596
f 563/563/563 601/601/601 568/568/568
f 563/563/563 596/596/596 601/601/601
f 568/568/568 607/607/607 578/578/578
f 568/568/568 601/601/601 607/607/607
f 578/578/578 610/610/610 585/585/585
f 578/578/578 607/607/607 610/610/610
f 585/585/585 617/617/617 589/589/589
f 585/585/585 610/610/610 617/617/617
f 616/616/616 620/620/620 615/615/615
f 616/616/616 621/621/621 620/620/620
f 615/615/615 618/618/618 608/608/608
f 615/615/615 620/620/620 618/618/618
f 608/608/608 606/606/606 602/602/602
f 608/608/608 618/618/618 606/606/606
f 602/602/602 597/597/597 595/595/595
f 602/602/602 606/606/606 597/597/597
f 595/595/595 586/586/586 574/574/574
f 595/595/595 597/597/597 586/586/586
f 574/574/574 560/560/560 523/523/523
f 574/574/574 586/586/586 560/560/560
f 523/523/523 413/413/413 407/407/407
f 523/523/523 560/560/560 413/413/413
f 407/407/407 279/279/279 277/277/277
f 407/407/407 413/413/413 279/279/279
f 277/277/277 197/197/197 203/203/203
f 277/277/277 279/279/279 197/197/197
f 203/203/203 76/76/76 94/94/94
f 203/203/203 197/197/197 76/76/76
f 94/94/94 33/33/33 41/41/41
f 94/94/94 76/76/76 33/33/33
f 41/41/41 23/23/23 26/26/26
f 41/41/41 33/33/33 23/23/23
f 26/26/26 12/12/12 18/18/18
f 26/26/26 23/23/23 12/12/12
f 18/18/18 4/4/4 9/9/9
f 18/18/18 12/12/12 4/4/4
f 9/9/9 1/1/1 6/6/6
f 9/9/9 4/4/4 1/1/1
f 6/6/6 2/2/2 7/7/7
f 6/6/6 1/1/1 2/2/2
f 7/7/7 3/3/3 8/8/8
f 7/7/7 2/2/2 3/3/3
f 8/8/8 5/5/5 16/16/16
f 8/8/8 3/3/3 5/5/5
f 16/16/16 14/14/14 19/19/19
f 16/16/16 5/5/5 14/14/14
f 19/19/19 22/22/22 24/24/24
f 19/19/19 14/14/14 22/22/22
f 24/24/24 28/28/28 38/38/38
f 24/24/24 22/22/22 28/28/28
f 38/38/38 67/67/67 91/91/91
f 38/38/38 28/28/28 67/67/67
f 91/91/91 198/198/198 206/206/206
f 91/91/91 67/67/67 198/198/198
f 206/206/206 278/278/278 276/276/276
f 206/206/206 198/198/198 278/278/278
f 276/276/276 412/412/412 404/404/404
f 276/276/276 278/278/278 412/412/412
f 404/404/404 561/561/561 533/533/533
f 404/404/404 412/412/412 561/561/561
f 533/533/533 592/592/592 581/581/581
f 533/533/533 561/561/561 592/592/592
f 581/581/581 598/598/598 596/596/596
f 581/581/581 592/592/592 598/598/598
f 596/596/596 604/604/604 601/601/601
f 596/596/596 598/598/598 604/604/604
f 601/601/601 614/614/614 607/607/607
f 601/601/601 604/604/604 614/614/614
f 607/607/607 619/619/619 610/610/610
f 607/607/607 614/614/614 619/619/619
f 610/610/610 622/622/622 617/617/617
f 610/610/610 619/619/619 622/622/622
f 621/621/621 609/609/609 620/620/620
f 621/621/621 612/612/612 609/609/609
f 620/620/620 603/603/603 618/618/618
f 620/620/620 609/609/609 603/603/603
f 618/618/618 599/599/599 606/606/606
f 618/618/618 603/603/603 599/599/599
f 606/606/606 594/594/594 597/597/597
f 606/606/606 599/599/599 594/594/594
f 597/597/597 575/575/575 586/586/586
f 597/597/597 594/594/594 575/575/575
f 586/586/586 522/522/522 560/560/560
f 586/586/586 575/575/575 522/522/522
f 560/560/560 402/402/402 413/413/413
f 560/560/560 522/522/522 402/402/402
f 413/413/413 281/281/281 279/279/279
f 413/413/413 402/402/402 281/281/281
f 279/279/279 216/216/216 197/197/197
f 279/279/279 281/281/281 216/216/216
f 197/197/197 95/95/95 76/76/76
f 197/197/197 216/216/216 95/95/95
f 76/76/76 43/43/43 33/33/33
f 76/76/76 95/95/95 43/43/43
f 33/33/33 25/25/25 23/23/23
f 33/33/33 43/43/43 25/25/25
f 23/23/23 21/21/21 12/12/12
f 23/23/23 25/25/25 21/21/21
f 12/12/12 17/17/17 4/4/4
f 12/12/12 21/21/21 17/17/17
f 4/4/4 13/13/13 1/1/1
f 4/4/4 17/17/17 13/13/13
f 1/1/1 10/10/10 2/2/2
f 1/1/1 13/13/13 10/10/10
f 2/2/2 11/11/11 3/3/3
f 2/2/2 10/10/10 11/11/11
f 3/3/3 15/15/15 5/5/5
f 3/3/3 11/11/11 15/15/15
f 5/5/5 20/20/20 14/14/14
f 5/5/5 15/15/15 20/20/20
f 14/14/14 27/27/27 22/22/22
f 14/14/14 20/20/20 27/27/27
f 22/22/22 45/45/45 28/28/28
f 22/22/22 27/27/27 45/45/45
f 28/28/28 96/96/96 67/67/67
f 28/28/28 45/45/45 96/96/96
f 67/67/67 215/215/215 198/198/198
f 67/67/67 96/96/96 215/215/215
f 198/198/198 280/280/280 278/278/278
f 198/198/198 215/215/215 280/280/280
f 278/278/278 403/403/403 412/412/412
f 278/278/278 280/280/280 403/403/403
f 412/412/412 518/518/518 561/561/561
f 412/412/412 403/403/403 518/518/518
f 561/561/561 573/573/573 592/592/592
f 561/561/561 518/518/518 573/573/573
f 592/592/592 593/593/593 598/598/598
f 592/592/592 573/573/573 593/593/593
f 598/598/598 600/600/600 604/604/604
f 598/598/598 593/593/593 600/600/600
f 604/604/604 605/605/605 614/614/614
f 604/604/604 600/600/600 605/605/605
f 614/614/614 611/611/611 619/619/619
f 614/614/614 605/605/605 611/611/611
f 619/619/619 613/613/613 622/622/622
f 619/619/619 611/611/611 613/613/613
f 612/612/612 572/572/572 609/609/609
f 612/612/612 579/579/579 572/572/572
f 609/609/609 566/566/566 603/603/603
f 609/609/609 572/572/572 566/566/566
f 603/603/603 564/564/564 599/599/599
f 603/603/603 566/566/566 564/564/564
f 599/599/599 532/532/532 594/594/594
f 599/599/599 564/564/564 532/532/532
f 594/594/594 467/467/467 575/575/575
f 594/594/594 532/532/532 467/467/467
f 575/575/575 411/411/411 522/522/522
f 575/575/575 467/467/467 411/411/411
f 522/522/522 364/364/364 402/402/402
f 522/522/522 411/411/411 364/364/364
f 402/402/402 291/291/291 281/281/281
f 402/402/402 364/364/364 291/291/291
f 281/281/281 246/246/246 216/216/216
f 281/281/281 291/291/291 246/246/246
f 216/216/216 199/199/199 95/95/95
f 216/216/216 246/246/246 199/199/199
f 95/95/95 143/143/143 43/43/43
f 95/95/95 199/199/199 143/143/143
f 43/43/43 79/79/79 25/25/25
f 43/43/43 143/143/143 79/79/79
f 25/25/25 54/54/54 21/21/21
f 25/25/25 79/79/79 54/54/54
f 21/21/21 52/52/52 17/17/17
f 21/21/21 54/54/54 52/52/52
f 17/17/17 46/46/46 13/13/13
f 17/17/17 52/52/52 46/46/46
f 13/13/13 44/44/44 10/10/10
f 13/13/13 46/46/46 44/44/44
f 10/10/10 42/42/42 11/11/11
f 10/10/10 44/44/44 42/42/42
f 11/11/11 47/47/47 15/15/15
f 11/11/11 42/42/42 47/47/47
f 15/15/15 53/53/53 20/20/20
f 15/15/15 47/47/47 53/53/53
f 20/20/20 82/82/82 27/27/27
f 20/20/20 53/53/53 82/82/82
f 27/27/27 150/150/150 45/45/45
f 27/27/27 82/82/82 150/150/150
f 45/45/45 200/200/200 96/96/96
f 45/45/45 150/150/150 200/200/200
f 96/96/96 245/245/245 215/215/215
f 96/96/96 200/200/200 245/245/245
f 215/215/215 290/290/290 280/280/280
f 215/215/215 245/245/245 290/290/290
f 280/280/280 365/365/365 403/403/403
f 280/280/280 290/290/290 365/365/365
f 403/403/403 410/410/410 518/518/518
f 403/403/403 365/365/365 410/410/410
f 518/518/518 466/466/466 573/573/573
f 518/518/518 410/410/410 466/466/466
f 573/573/573 521/521/521 593/593/593
f 573/573/573 466/466/466 521/521/521
f 593/593/593 565/565/565 600/600/600
f 593/593/593 521/521/521 565/565/565
f 600/600/600 569/569/569 605/605/605
f 600/600/600 565/565/565 569/569/569
f 605/605/605 576/576/576 611/611/611
f 605/605/605 569/569/569 576/576/576
f 611/611/611 580/580/580 613/613/613
f 611/611/611 576/576/576 580/580/580
f 579/579/579 498/498/498 572/572/572
f 579/579/579 514/514/514 498/498/498
f 572/572/572 476/476/476 566/566/566
f 572/572/572 498/498/498 476/476/476
f 566/566/566 450/450/450 564/564/564
f 566/566/566 476/476/476 450/450/450
f 564/564/564 440/440/440 532/532/532
f 564/564/564 450/450/450 440/440/440
f 532/532/532 408/408/408 467/467/467
f 532/532/532 440/440/440 408/408/408
f 467/467/467 380/380/380 411/411/411
f 467/467/467 408/408/408 380/380/380
f 411/411/411 348/348/348 364/364/364
f 411/411/411 380/380/380 348/348/348
f 364/364/364 295/295/295 291/291/291
f 364/364/364 348/348/348 295/295/295
f 291/291/291 262/262/262 246/246/246
f 291/291/291 295/295/295 262/262/262
f 246/246/246 230/230/230 199/199/199
f 246/246/246 262/262/262 230/230/230
f 199/199/199 202/202/202 143/143/143
f 199/199/199 230/230/230 202/202/202
f 143/143/143 170/170/170 79/79/79
f 143/143/143 202/202/202 170/170/170
f 79/79/79 149/149/149 54/54/54
f 79/79/79 170/170/170 149/149/149
f 54/54/54 134/134/134 52/52/52
f 54/54/54 149/149/149 134/134/134
f 52/52/52 116/116/116 46/46/46
f 52/52/52 134/134/134 116/116/116
f 46/46/46 104/104/104 44/44/44
f 46/46/46 116/116/116 104/104/104
f 44/44/44 102/102/102 42/42/42
f 44/44/44 104/104/104 102/102/102
f 42/42/42 122/122/122 47/47/47
f 42/42/42 102/102/102 122/122/122
f 47/47/47 147/147/147 53/53/53
f 47/47/47 122/122/122 147/147/147
f 53/53/53 172/172/172 82/82/82
f 53/53/53 147/147/147 172/172/172
f 82/82/82 205/205/205 150/150/150
f 82/82/82 172/172/172 205/205/205
f 150/150/150 232/232/232 200/200/200
f 150/150/150 205/205/205 232/232/232
f 200/200/200 260/260/260 245/245/245
f 200/200/200 232/232/232 260/260/260
f 245/245/245 293/293/293 290/290/290
f 245/245/245 260/260/260 293/293/293
f 290/290/290 350/350/350 365/365/365
f 290/290/290 293/293/293 350/350/350
f 365/365/365 378/378/378 410/410/410
f 365/365/365 350/350/350 378/378/378
f 410/410/410 405/405/405 466/466/466
f 410/410/410 378/378/378 405/405/405
f 466/466/466 438/438/438 521/521/521
f 466/466/466 405/405/405 438/438/438
f 521/521/521 454/454/454 565/565/565
f 521/521/521 438/438/438 454/454/454
f 565/565/565 478/478/478 569/569/569
f 565/565/565 454/454/454 478/478/478
f 569/569/569 512/512/512 576/576/576
f 569/569/569 478/478/478 512/512/512
f 576/576/576 515/515/515 580/580/580
f 576/576/576 512/512/512 515/515/515
f 516/516/516 537/537/537 499/499/499
f 516/516/516 556/556/556 537/537/537
f 499/499/499 520/520/520 477/477/477
f 499/499/499 537/537/537 520/520/520
f 477/477/477 497/497/497 451/451/451
f 477/477/477 520/520/520 497/497/497
f 451/451/451 465/465/465 441/441/441
f 451/451/451 497/497/497 465/465/465
f 441/441/441 429/429/429 409/409/409
f 441/441/441 465/465/465 429/429/429
f 409/409/409 393/393/393 381/381/381
f 409/409/409 429/429/429 393/393/393
f 381/381/381 353/353/353 349/349/349
f 381/381/381 393/393/393 353/353/353
f 349/349/349 306/306/306 294/294/294
f 349/349/349 353/353/353 306/306/306
f 294/294/294 257/257/257 261/261/261
f 294/294/294 306/306/306 257/257/257
f 261/261/261 225/225/225 229/229/229
f 261/261/261 257/257/257 225/225/225
f 229/229/229 181/181/181 201/201/201
f 229/229/229 225/225/225 181/181/181
f 201/201/201 144/144/144 169/169/169
f 201/201/201 181/181/181 144/144/144
f 169/169/169 99/99/99 148/148/148
f 169/169/169 144/144/144 99/99/99
f 148/148/148 92/92/92 133/133/133
f 148/148/148 99/99/99 92/92/92
f 133/133/133 77/77/77 115/115/115
f 133/133/133 92/92/92 77/77/77
f 115/115/115 65/65/65 103/103/103
f 115/115/115 77/77/77 65/65/65
f 103/103/103 63/63/63 101/101/101
f 103/103/103 65/65/65 63/63/63
f 101/101/101 80/80/80 121/121/121
f 101/101/101 63/63/63 80/80/80
f 121/121/121 97/97/97 146/146/146
f 121/121/121 80/80/80 97/97/97
f 146/146/146 159/159/159 171/171/171
f 146/146/146 97/97/97 159/159/159
f 171/171/171 195/195/195 204/204/204
f 171/171/171 159/159/159 195/195/195
f 204/204/204 227/227/227 231/231/231
f 204/204/204 195/195/195 227/227/227
f 231/231/231 247/247/247 259/259/259
f 231/231/231 227/227/227 247/247/247
f 259/259/259 304/304/304 292/292/292
f 259/259/259 247/247/247 304/304/304
f 292/292/292 363/363/363 351/351/351
f 292/292/292 304/304/304 363/363/363
f 351/351/351 391/391/391 379/379/379
f 351/351/351 363/363/363 391/391/391
f 379/379/379 415/415/415 406/406/406
f 379/379/379 391/391/391 415/415/415
f 406/406/406 453/453/453 439/439/439
f 406/406/406 415/415/415 453/453/453
f 439/439/439 501/501/501 455/455/455
f 439/439/439 453/453/453 501/501/501
f 455/455/455 535/535/535 479/479/479
f 455/455/455 501/501/501 535/535/535
f 479/479/479 553/553/553 513/513/513
f 479/479/479 535/535/535 553/553/553
f 513/513/513 557/557/557 517/517/517
f 513/513/513 553/553/553 557/557/557
f 554/554/554 338/338/338 536/536/536
f 536/536/536 336/336/336 519/519/519
f 519/519/519 334/334/334 496/496/496
f 496/496/496 332/332/332 464/464/464
f 464/464/464 330/330/330 428/428/428
f 428/428/428 328/328/328 392/392/392
f 392/392/392 326/326/326 352/352/352
f 352/352/352 324/324/324 307/307/307
f 307/307/307 322/322/322 258/258/258
f 258/258/258 320/320/320 226/226/226
f 226/226/226 318/318/318 182/182/182
f 182/182/182 316/316/316 145/145/145
f 145/145/145 314/314/314 100/100/100
f 100/100/100 312/312/312 93/93/93
f 93/93/93 310/310/310 78/78/78
f 78/78/78 308/308/308 66/66/66
f 66/66/66 309/309/309 64/64/64
f 64/64/64 311/311/311 81/81/81
f 81/81/81 313/313/313 98/98/98
f 98/98/98 315/315/315 160/160/160
f 160/160/160 317/317/317 196/196/196
f 196/196/196 319/319/319 228/228/228
f 228/228/228 321/321/321 248/248/248
f 248/248/248 323/323/323 305/305/305
f 305/305/305 325/325/325 362/362/362
f 362/362/362 327/327/327 390/390/390
f 390/390/390 329/329/329 414/414/414
f 414/414/414 331/331/331 452/452/452
f 452/452/452 333/333/333 500/500/500
f 500/500/500 335/335/335 534/534/534
f 534/534/534 337/337/337 552/552/552
f 552/552/552 339/339/339 555/555/555
o 27_Saco_Rope
usemtl Rope
s 1
f 492/492/492 540/540/540 485/485/485
f 492/492/492 546/546/546 540/540/540
f 485/485/485 526/526/526 471/471/471
f 485/485/485 540/540/540 526/526/526
f 471/471/471 504/504/504 445/445/445
f 471/471/471 526/526/526 504/504/504
f 445/445/445 458/458/458 433/433/433
f 445/445/445 504/504/504 458/458/458
f 433/433/433 420/420/420 397/397/397
f 433/433/433 458/458/458 420/420/420
f 397/397/397 384/384/384 373/373/373
f 397/397/397 420/420/420 384/384/384
f 373/373/373 356/356/356 343/343/343
f 373/373/373 384/384/384 356/356/356
f 343/343/343 288/288/288 286/286/286
f 343/343/343 356/356/356 288/288/288
f 286/286/286 252/252/252 265/265/265
f 286/286/286 288/288/288 252/252/252
f 265/265/265 220/220/220 235/235/235
f 265/265/265 252/252/252 220/220/220
f 235/235/235 188/188/188 209/209/209
f 235/235/235 220/220/220 188/188/188
f 209/209/209 154/154/154 175/175/175
f 209/209/209 188/188/188 154/154/154
f 175/175/175 110/110/110 163/163/163
f 175/175/175 154/154/154 110/110/110
f 163/163/163 86/86/86 137/137/137
f 163/163/163 110/110/110 86/86/86
f 137/137/137 71/71/71 125/125/125
f 137/137/137 86/86/86 71/71/71
f 125/125/125 60/60/60 117/117/117
f 125/125/125 71/71/71 60/60/60
f 117/117/117 69/69/69 123/123/123
f 117/117/117 60/60/60 69/69/69
f 123/123/123 84/84/84 135/135/135
f 123/123/123 69/69/69 84/84/84
f 135/135/135 108/108/108 161/161/161
f 135/135/135 84/84/84 108/108/108
f 161/161/161 152/152/152 173/173/173
f 161/161/161 108/108/108 152/152/152
f 173/173/173 186/186/186 207/207/207
f 173/173/173 152/152/152 186/186/186
f 207/207/207 218/218/218 233/233/233
f 207/207/207 186/186/186 218/218/218
f 233/233/233 250/250/250 263/263/263
f 233/233/233 218/218/218 250/250/250
f 263/263/263 282/282/282 284/284/284
f 263/263/263 250/250/250 282/282/282
f 284/284/284 354/354/354 341/341/341
f 284/284/284 282/282/282 354/354/354
f 341/341/341 382/382/382 371/371/371
f 341/341/341 354/354/354 382/382/382
f 371/371/371 418/418/418 395/395/395
f 371/371/371 382/382/382 418/418/418
f 395/395/395 456/456/456 431/431/431
f 395/395/395 418/418/418 456/456/456
f 431/431/431 502/502/502 443/443/443
f 431/431/431 456/456/456 502/502/502
f 443/443/443 524/524/524 469/469/469
f 443/443/443 502/502/502 524/524/524
f 469/469/469 538/538/538 483/483/483
f 469/469/469 524/524/524 538/538/538
f 483/483/483 546/546/546 492/492/492
f 483/483/483 538/538/538 546/546/546
f 547/547/547 545/545/545 541/541/541
f 547/547/547 550/550/550 545/545/545
f 541/541/541 531/531/531 527/527/527
f 541/541/541 545/545/545 531/531/531
f 527/527/527 509/509/509 505/505/505
f 527/527/527 531/531/531 509/509/509
f 505/505/505 463/463/463 459/459/459
f 505/505/505 509/509/509 463/463/463
f 459/459/459 425/425/425 421/421/421
f 459/459/459 463/463/463 425/425/425
f 421/421/421 389/389/389 385/385/385
f 421/421/421 425/425/425 389/389/389
f 385/385/385 361/361/361 357/357/357
f 385/385/385 389/389/389 361/361/361
f 357/357/357 302/302/302 289/289/289
f 357/357/357 361/361/361 302/302/302
f 289/289/289 255/255/255 251/251/251
f 289/289/289 302/302/302 255/255/255
f 251/251/251 223/223/223 219/219/219
f 251/251/251 255/255/255 223/223/223
f 219/219/219 191/191/191 187/187/187
f 219/219/219 223/223/223 191/191/191
f 187/187/187 157/157/157 153/153/153
f 187/187/187 191/191/191 157/157/157
f 153/153/153 113/113/113 109/109/109
f 153/153/153 157/157/157 113/113/113
f 109/109/109 89/89/89 85/85/85
f 109/109/109 113/113/113 89/89/89
f 85/85/85 74/74/74 70/70/70
f 85/85/85 89/89/89 74/74/74
f 70/70/70 61/61/61 59/59/59
f 70/70/70 74/74/74 61/61/61
f 59/59/59 72/72/72 68/68/68
f 59/59/59 61/61/61 72/72/72
f 68/68/68 87/87/87 83/83/83
f 68/68/68 72/72/72 87/87/87
f 83/83/83 111/111/111 107/107/107
f 83/83/83 87/87/87 111/111/111
f 107/107/107 155/155/155 151/151/151
f 107/107/107 111/111/111 155/155/155
f 151/151/151 189/189/189 185/185/185
f 151/151/151 155/155/155 189/189/189
f 185/185/185 221/221/221 217/217/217
f 185/185/185 189/189/189 221/221/221
f 217/217/217 253/253/253 249/249/249
f 217/217/217 221/221/221 253/253/253
f 249/249/249 296/296/296 283/283/283
f 249/249/249 253/253/253 296/296/296
f 283/283/283 359/359/359 355/355/355
f 283/283/283 296/296/296 359/359/359
f 355/355/355 387/387/387 383/383/383
f 355/355/355 359/359/359 387/387/387
f 383/383/383 423/423/423 419/419/419
f 383/383/383 387/387/387 423/423/423
f 419/419/419 461/461/461 457/457/457
f 419/419/419 423/423/423 461/461/461
f 457/457/457 507/507/507 503/503/503
f 457/457/457 461/461/461 507/507/507
f 503/503/503 529/529/529 525/525/525
f 503/503/503 507/507/507 529/529/529
f 525/525/525 543/543/543 539/539/539
f 525/525/525 529/529/529 543/543/543
f 539/539/539 551/551/551 548/548/548
f 539/539/539 543/543/543 551/551/551
f 549/549/549 489/489/489 544/544/544
f 549/549/549 495/495/495 489/489/489
f 544/544/544 475/475/475 530/530/530
f 544/544/544 489/489/489 475/475/475
f 530/530/530 449/449/449 508/508/508
f 530/530/530 475/475/475 449/449/449
f 508/508/508 437/437/437 462/462/462
f 508/508/508 449/449/449 437/437/437
f 462/462/462 401/401/401 424/424/424
f 462/462/462 437/437/437 401/401/401
f 424/424/424 377/377/377 388/388/388
f 424/424/424 401/401/401 377/377/377
f 388/388/388 347/347/347 360/360/360
f 388/388/388 377/377/377 347/347/347
f 360/360/360 301/301/301 303/303/303
f 360/360/360 347/347/347 301/301/301
f 303/303/303 269/269/269 256/256/256
f 303/303/303 301/301/301 269/269/269
f 256/256/256 239/239/239 224/224/224
f 256/256/256 269/269/269 239/239/239
f 224/224/224 213/213/213 192/192/192
f 224/224/224 239/239/239 213/213/213
f 192/192/192 179/179/179 158/158/158
f 192/192/192 213/213/213 179/179/179
f 158/158/158 167/167/167 114/114/114
f 158/158/158 179/179/179 167/167/167
f 114/114/114 141/141/141 90/90/90
f 114/114/114 167/167/167 141/141/141
f 90/90/90 129/129/129 75/75/75
f 90/90/90 141/141/141 129/129/129
f 75/75/75 119/119/119 62/62/62
f 75/75/75 129/129/129 119/119/119
f 62/62/62 127/127/127 73/73/73
f 62/62/62 119/119/119 127/127/127
f 73/73/73 139/139/139 88/88/88
f 73/73/73 127/127/127 139/139/139
f 88/88/88 165/165/165 112/112/112
f 88/88/88 139/139/139 165/165/165
f 112/112/112 177/177/177 156/156/156
f 112/112/112 165/165/165 177/177/177
f 156/156/156 211/211/211 190/190/190
f 156/156/156 177/177/177 211/211/211
f 190/190/190 237/237/237 222/222/222
f 190/190/190 211/211/211 237/237/237
f 222/222/222 267/267/267 254/254/254
f 222/222/222 237/237/237 267/267/267
f 254/254/254 299/299/299 297/297/297
f 254/254/254 267/267/267 299/299/299
f 297/297/297 345/345/345 358/358/358
f 297/297/297 299/299/299 345/345/345
f 358/358/358 375/375/375 386/386/386
f 358/358/358 345/345/345 375/375/375
f 386/386/386 399/399/399 422/422/422
f 386/386/386 375/375/375 399/399/399
f 422/422/422 435/435/435 460/460/460
f 422/422/422 399/399/399 435/435/435
f 460/460/460 447/447/447 506/506/506
f 460/460/460 435/435/435 447/447/447
f 506/506/506 473/473/473 528/528/528
f 506/506/506 447/447/447 473/473/473
f 528/528/528 487/487/487 542/542/542
f 528/528/528 473/473/473 487/487/487
f 542/542/542 495/495/495 549/549/549
f 542/542/542 487/487/487 495/495/495
f 493/493/493 484/484/484 488/488/488
f 493/493/493 490/490/490 484/484/484
f 488/488/488 470/470/470 474/474/474
f 488/488/488 484/484/484 470/470/470
f 474/474/474 444/444/444 448/448/448
f 474/474/474 470/470/470 444/444/444
f 448/448/448 432/432/432 436/436/436
f 448/448/448 444/444/444 432/432/432
f 436/436/436 396/396/396 400/400/400
f 436/436/436 432/432/432 396/396/396
f 400/400/400 372/372/372 376/376/376
f 400/400/400 396/396/396 372/372/372
f 376/376/376 342/342/342 346/346/346
f 376/376/376 372/372/372 342/342/342
f 346/346/346 287/287/287 300/300/300
f 346/346/346 342/342/342 287/287/287
f 300/300/300 266/266/266 270/270/270
f 300/300/300 287/287/287 266/266/266
f 270/270/270 236/236/236 240/240/240
f 270/270/270 266/266/266 236/236/236
f 240/240/240 210/210/210 214/214/214
f 240/240/240 236/236/236 210/210/210
f 214/214/214 176/176/176 180/180/180
f 214/214/214 210/210/210 176/176/176
f 180/180/180 164/164/164 168/168/168
f 180/180/180 176/176/176 164/164/164
f 168/168/168 138/138/138 142/142/142
f 168/168/168 164/164/164 138/138/138
f 142/142/142 126/126/126 130/130/130
f 142/142/142 138/138/138 126/126/126
f 130/130/130 118/118/118 120/120/120
f 130/130/130 126/126/126 118/118/118
f 120/120/120 124/124/124 128/128/128
f 120/120/120 118/118/118 124/124/124
f 128/128/128 136/136/136 140/140/140
f 128/128/128 124/124/124 136/136/136
f 140/140/140 162/162/162 166/166/166
f 140/140/140 136/136/136 162/162/162
f 166/166/166 174/174/174 178/178/178
f 166/166/166 162/162/162 174/174/174
f 178/178/178 208/208/208 212/212/212
f 178/178/178 174/174/174 208/208/208
f 212/212/212 234/234/234 238/238/238
f 212/212/212 208/208/208 234/234/234
f 238/238/238 264/264/264 268/268/268
f 238/238/238 234/234/234 264/264/264
f 268/268/268 285/285/285 298/298/298
f 268/268/268 264/264/264 285/285/285
f 298/298/298 340/340/340 344/344/344
f 298/298/298 285/285/285 340/340/340
f 344/344/344 370/370/370 374/374/374
f 344/344/344 340/340/340 370/370/370
f 374/374/374 394/394/394 398/398/398
f 374/374/374 370/370/370 394/394/394
f 398/398/398 430/430/430 434/434/434
f 398/398/398 394/394/394 430/430/430
f 434/434/434 442/442/442 446/446/446
f 434/434/434 430/430/430 442/442/442
f 446/446/446 468/468/468 472/472/472
f 446/446/446 442/442/442 468/468/468
f 472/472/472 482/482/482 486/486/486
f 472/472/472 468/468/468 482/482/482
f 486/486/486 491/491/491 494/494/494
f 486/486/486 482/482/482 491/491/491
