# metres; Y up; ground-centred pivot
mtllib 29_Puesto_Sencillo.mtl
v -1.0350000 1.9152500 0.6177457
v -1.0350000 1.9152500 0.6322457
v -1.0350000 2.0529631 -0.6268173
v -1.0350000 2.0729705 -0.6302517
v -1.0350000 2.0847500 0.6177457
v -1.0350000 2.0847500 0.6322457
v -1.0350000 2.2670295 0.6202431
v -1.0350000 2.2870369 0.6168087
v -1.0297500 1.9100000 0.6177457
v -1.0297500 1.9100000 0.6177457
v -1.0297500 1.9100000 0.6177457
v -1.0297500 1.9100000 0.6322457
v -1.0297500 1.9100000 0.6322457
v -1.0297500 1.9100000 0.6322457
v -1.0297500 1.9152500 0.6124957
v -1.0297500 1.9152500 0.6124957
v -1.0297500 1.9152500 0.6374957
v -1.0297500 1.9152500 0.6374957
v -1.0297500 2.0847500 0.6124957
v -1.0297500 2.0847500 0.6124957
v -1.0297500 2.0847500 0.6374957
v -1.0297500 2.0847500 0.6374957
v -1.0297500 2.0900000 0.6177457
v -1.0297500 2.0900000 0.6177457
v -1.0297500 2.0900000 0.6177457
v -1.0297500 2.0900000 0.6322457
v -1.0297500 2.0900000 0.6322457
v -1.0297500 2.0900000 0.6322457
v -1.0276500 2.0457191 -0.6255738
v -1.0276500 2.0457191 -0.6255738
v -1.0276500 2.0517196 -0.6340613
v -1.0276500 2.0517196 -0.6340613
v -1.0276500 2.0717270 -0.6374957
v -1.0276500 2.0717270 -0.6374957
v -1.0276500 2.0802145 -0.6314952
v -1.0276500 2.0802145 -0.6314952
v -1.0276500 2.2597855 0.6214866
v -1.0276500 2.2597855 0.6214866
v -1.0276500 2.2597855 0.6214866
v -1.0276500 2.2682730 0.6274872
v -1.0276500 2.2682730 0.6274872
v -1.0276500 2.2882804 0.6240528
v -1.0276500 2.2882804 0.6240528
v -1.0276500 2.2942809 0.6155652
v -1.0276500 2.2942809 0.6155652
v -1.0276500 2.2942809 0.6155652
v -0.9550000 0.8897000 -0.5103043
v -0.9550000 0.8897000 -0.5103043
v -0.9550000 0.8897000 -0.4197043
v -0.9550000 0.8897000 -0.4197043
v -0.9550000 0.8897000 -0.4197043
v -0.9550000 0.8897000 -0.3669709
v -0.9550000 0.8897000 -0.3669709
v -0.9550000 0.8897000 -0.2763709
v -0.9550000 0.8897000 -0.2763709
v -0.9550000 0.8897000 -0.2763709
v -0.9550000 0.8897000 -0.2236376
v -0.9550000 0.8897000 -0.2236376
v -0.9550000 0.8897000 -0.1330376
v -0.9550000 0.8897000 -0.1330376
v -0.9550000 0.8897000 -0.1330376
v -0.9550000 0.8897000 -0.0803043
v -0.9550000 0.8897000 -0.0803043
v -0.9550000 0.8897000 0.0102957
v -0.9550000 0.8897000 0.0102957
v -0.9550000 0.8897000 0.0102957
v -0.9550000 0.8897000 0.0630291
v -0.9550000 0.8897000 0.0630291
v -0.9550000 0.8897000 0.1536291
v -0.9550000 0.8897000 0.1536291
v -0.9550000 0.8897000 0.1536291
v -0.9550000 0.8897000 0.2063624
v -0.9550000 0.8897000 0.2063624
v -0.9550000 0.8897000 0.2969624
v -0.9550000 0.8897000 0.2969624
v -0.9550000 0.8897000 0.2969624
v -0.9550000 0.8897000 0.3496957
v -0.9550000 0.8897000 0.3496957
v -0.9550000 0.8897000 0.4402957
v -0.9550000 0.8897000 0.4402957
v -0.9550000 0.8897000 0.4402957
v -0.9550000 0.9303000 -0.5103043
v -0.9550000 0.9303000 -0.5103043
v -0.9550000 0.9303000 -0.5103043
v -0.9550000 0.9303000 -0.4197043
v -0.9550000 0.9303000 -0.4197043
v -0.9550000 0.9303000 -0.4197043
v -0.9550000 0.9303000 -0.3669709
v -0.9550000 0.9303000 -0.3669709
v -0.9550000 0.9303000 -0.3669709
v -0.9550000 0.9303000 -0.2763709
v -0.9550000 0.9303000 -0.2763709
v -0.9550000 0.9303000 -0.2763709
v -0.9550000 0.9303000 -0.2236376
v -0.9550000 0.9303000 -0.2236376
v -0.9550000 0.9303000 -0.2236376
v -0.9550000 0.9303000 -0.1330376
v -0.9550000 0.9303000 -0.1330376
v -0.9550000 0.9303000 -0.1330376
v -0.9550000 0.9303000 -0.0803043
v -0.9550000 0.9303000 -0.0803043
v -0.9550000 0.9303000 -0.0803043
v -0.9550000 0.9303000 0.0102957
v -0.9550000 0.9303000 0.0102957
v -0.9550000 0.9303000 0.0102957
v -0.9550000 0.9303000 0.0630291
v -0.9550000 0.9303000 0.0630291
v -0.9550000 0.9303000 0.0630291
v -0.9550000 0.9303000 0.1536291
v -0.9550000 0.9303000 0.1536291
v -0.9550000 0.9303000 0.1536291
v -0.9550000 0.9303000 0.2063624
v -0.9550000 0.9303000 0.2063624
v -0.9550000 0.9303000 0.2063624
v -0.9550000 0.9303000 0.2969624
v -0.9550000 0.9303000 0.2969624
v -0.9550000 0.9303000 0.2969624
v -0.9550000 0.9303000 0.3496957
v -0.9550000 0.9303000 0.3496957
v -0.9550000 0.9303000 0.3496957
v -0.9550000 0.9303000 0.4402957
v -0.9550000 0.9303000 0.4402957
v -0.9550000 0.9303000 0.4402957
v -0.9403000 0.8750000 -0.5103043
v -0.9403000 0.8750000 -0.4197043
v -0.9403000 0.8750000 -0.3669709
v -0.9403000 0.8750000 -0.2763709
v -0.9403000 0.8750000 -0.2236376
v -0.9403000 0.8750000 -0.1330376
v -0.9403000 0.8750000 -0.0803043
v -0.9403000 0.8750000 0.0102957
v -0.9403000 0.8750000 0.0630291
v -0.9403000 0.8750000 0.1536291
v -0.9403000 0.8750000 0.2063624
v -0.9403000 0.8750000 0.2969624
v -0.9403000 0.8750000 0.3496957
v -0.9403000 0.8750000 0.4402957
v -0.9403000 0.8897000 -0.5250043
v -0.9403000 0.8897000 -0.5250043
v -0.9403000 0.8897000 -0.4050043
v -0.9403000 0.8897000 -0.4050043
v -0.9403000 0.8897000 -0.3816709
v -0.9403000 0.8897000 -0.3816709
v -0.9403000 0.8897000 -0.2616709
v -0.9403000 0.8897000 -0.2616709
v -0.9403000 0.8897000 -0.2383376
v -0.9403000 0.8897000 -0.2383376
v -0.9403000 0.8897000 -0.1183376
v -0.9403000 0.8897000 -0.1183376
v -0.9403000 0.8897000 -0.0950043
v -0.9403000 0.8897000 -0.0950043
v -0.9403000 0.8897000 0.0249957
v -0.9403000 0.8897000 0.0249957
v -0.9403000 0.8897000 0.0483291
v -0.9403000 0.8897000 0.0483291
v -0.9403000 0.8897000 0.1683291
v -0.9403000 0.8897000 0.1683291
v -0.9403000 0.8897000 0.1916624
v -0.9403000 0.8897000 0.1916624
v -0.9403000 0.8897000 0.3116624
v -0.9403000 0.8897000 0.3116624
v -0.9403000 0.8897000 0.3349957
v -0.9403000 0.8897000 0.3349957
v -0.9403000 0.8897000 0.4549957
v -0.9403000 0.8897000 0.4549957
v -0.9403000 0.9303000 -0.5250043
v -0.9403000 0.9303000 -0.5250043
v -0.9403000 0.9303000 -0.4050043
v -0.9403000 0.9303000 -0.4050043
v -0.9403000 0.9303000 -0.3816709
v -0.9403000 0.9303000 -0.3816709
v -0.9403000 0.9303000 -0.2616709
v -0.9403000 0.9303000 -0.2616709
v -0.9403000 0.9303000 -0.2383376
v -0.9403000 0.9303000 -0.2383376
v -0.9403000 0.9303000 -0.1183376
v -0.9403000 0.9303000 -0.1183376
v -0.9403000 0.9303000 -0.0950043
v -0.9403000 0.9303000 -0.0950043
v -0.9403000 0.9303000 0.0249957
v -0.9403000 0.9303000 0.0249957
v -0.9403000 0.9303000 0.0483291
v -0.9403000 0.9303000 0.0483291
v -0.9403000 0.9303000 0.1683291
v -0.9403000 0.9303000 0.1683291
v -0.9403000 0.9303000 0.1916624
v -0.9403000 0.9303000 0.1916624
v -0.9403000 0.9303000 0.3116624
v -0.9403000 0.9303000 0.3116624
v -0.9403000 0.9303000 0.3349957
v -0.9403000 0.9303000 0.3349957
v -0.9403000 0.9303000 0.4549957
v -0.9403000 0.9303000 0.4549957
v -0.9403000 0.9450000 -0.5103043
v -0.9403000 0.9450000 -0.4197043
v -0.9403000 0.9450000 -0.3669709
v -0.9403000 0.9450000 -0.2763709
v -0.9403000 0.9450000 -0.2236376
v -0.9403000 0.9450000 -0.1330376
v -0.9403000 0.9450000 -0.0803043
v -0.9403000 0.9450000 0.0102957
v -0.9403000 0.9450000 0.0630291
v -0.9403000 0.9450000 0.1536291
v -0.9403000 0.9450000 0.2063624
v -0.9403000 0.9450000 0.2969624
v -0.9403000 0.9450000 0.3496957
v -0.9403000 0.9450000 0.4402957
v -0.8650000 0.0189000 -0.4511043
v -0.8650000 0.0189000 -0.4511043
v -0.8650000 0.0189000 -0.3989043
v -0.8650000 0.0189000 -0.3989043
v -0.8650000 0.0189000 0.3288957
v -0.8650000 0.0189000 0.3288957
v -0.8650000 0.0189000 0.3810957
v -0.8650000 0.0189000 0.3810957
v -0.8650000 2.2211000 -0.4511043
v -0.8650000 2.2211000 -0.4511043
v -0.8650000 2.2211000 -0.3989043
v -0.8650000 2.2211000 -0.3989043
v -0.8650000 2.2211000 0.3288957
v -0.8650000 2.2211000 0.3288957
v -0.8650000 2.2211000 0.3810957
v -0.8650000 2.2211000 0.3810957
v -0.8600000 2.0335546 0.5782676
v -0.8600000 2.0335546 0.5782676
v -0.8600000 2.0335546 0.5782676
v -0.8600000 2.0677651 0.5846458
v -0.8600000 2.0677651 0.5846458
v -0.8600000 2.0677651 0.5846458
v -0.8600000 2.2522349 -0.5946544
v -0.8600000 2.2522349 -0.5946544
v -0.8600000 2.2864454 -0.5882761
v -0.8600000 2.2864454 -0.5882761
v -0.8600000 2.2864454 -0.5882761
v -0.8474000 2.0211680 0.5759582
v -0.8474000 2.0211680 0.5759582
v -0.8474000 2.0312452 0.5906542
v -0.8474000 2.0654557 0.5970324
v -0.8474000 2.0801516 0.5869552
v -0.8474000 2.0801516 0.5869552
v -0.8474000 2.2398484 -0.5969637
v -0.8474000 2.2398484 -0.5969637
v -0.8474000 2.2545443 -0.6070409
v -0.8474000 2.2887548 -0.6006627
v -0.8474000 2.2988320 -0.5859668
v -0.8474000 2.2988320 -0.5859668
v -0.8461000 0.0000000 -0.4511043
v -0.8461000 0.0000000 -0.3989043
v -0.8461000 0.0000000 0.3288957
v -0.8461000 0.0000000 0.3810957
v -0.8461000 0.0189000 -0.4700043
v -0.8461000 0.0189000 -0.4700043
v -0.8461000 0.0189000 -0.3800043
v -0.8461000 0.0189000 -0.3800043
v -0.8461000 0.0189000 0.3099957
v -0.8461000 0.0189000 0.3099957
v -0.8461000 0.0189000 0.3999957
v -0.8461000 0.0189000 0.3999957
v -0.8461000 2.2211000 -0.4700043
v -0.8461000 2.2211000 -0.4700043
v -0.8461000 2.2211000 -0.4700043
v -0.8461000 2.2211000 -0.3800043
v -0.8461000 2.2211000 -0.3800043
v -0.8461000 2.2211000 -0.3800043
v -0.8461000 2.2211000 0.3099957
v -0.8461000 2.2211000 0.3099957
v -0.8461000 2.2211000 0.3099957
v -0.8461000 2.2211000 0.3999957
v -0.8461000 2.2211000 0.3999957
v -0.8461000 2.2211000 0.3999957
v -0.8461000 2.2400000 -0.4511043
v -0.8461000 2.2400000 -0.3989043
v -0.8461000 2.2400000 0.3288957
v -0.8461000 2.2400000 0.3810957
v -0.8126000 2.0211680 0.5759582
v -0.8126000 2.0211680 0.5759582
v -0.8126000 2.0312452 0.5906542
v -0.8126000 2.0654557 0.5970324
v -0.8126000 2.0801516 0.5869552
v -0.8126000 2.0801516 0.5869552
v -0.8126000 2.2398484 -0.5969637
v -0.8126000 2.2398484 -0.5969637
v -0.8126000 2.2545443 -0.6070409
v -0.8126000 2.2887548 -0.6006627
v -0.8126000 2.2988320 -0.5859668
v -0.8126000 2.2988320 -0.5859668
v -0.8000000 2.0335546 0.5782676
v -0.8000000 2.0335546 0.5782676
v -0.8000000 2.0335546 0.5782676
v -0.8000000 2.0677651 0.5846458
v -0.8000000 2.0677651 0.5846458
v -0.8000000 2.0677651 0.5846458
v -0.8000000 2.2522349 -0.5946544
v -0.8000000 2.2522349 -0.5946544
v -0.8000000 2.2864454 -0.5882761
v -0.8000000 2.2864454 -0.5882761
v -0.8000000 2.2864454 -0.5882761
v -0.7939000 0.0000000 -0.4511043
v -0.7939000 0.0000000 -0.3989043
v -0.7939000 0.0000000 0.3288957
v -0.7939000 0.0000000 0.3810957
v -0.7939000 0.0189000 -0.4700043
v -0.7939000 0.0189000 -0.4700043
v -0.7939000 0.0189000 -0.4700043
v -0.7939000 0.0189000 -0.3800043
v -0.7939000 0.0189000 -0.3800043
v -0.7939000 0.0189000 -0.3800043
v -0.7939000 0.0189000 0.3099957
v -0.7939000 0.0189000 0.3099957
v -0.7939000 0.0189000 0.3099957
v -0.7939000 0.0189000 0.3999957
v -0.7939000 0.0189000 0.3999957
v -0.7939000 0.0189000 0.3999957
v -0.7939000 2.2211000 -0.4700043
v -0.7939000 2.2211000 -0.4700043
v -0.7939000 2.2211000 -0.4700043
v -0.7939000 2.2211000 -0.3800043
v -0.7939000 2.2211000 -0.3800043
v -0.7939000 2.2211000 -0.3800043
v -0.7939000 2.2211000 0.3099957
v -0.7939000 2.2211000 0.3099957
v -0.7939000 2.2211000 0.3099957
v -0.7939000 2.2211000 0.3999957
v -0.7939000 2.2211000 0.3999957
v -0.7939000 2.2211000 0.3999957
v -0.7939000 2.2400000 -0.4511043
v -0.7939000 2.2400000 -0.3989043
v -0.7939000 2.2400000 0.3288957
v -0.7939000 2.2400000 0.3810957
v -0.7750000 0.0189000 -0.4511043
v -0.7750000 0.0189000 -0.4511043
v -0.7750000 0.0189000 -0.3989043
v -0.7750000 0.0189000 -0.3989043
v -0.7750000 0.0189000 0.3288957
v -0.7750000 0.0189000 0.3288957
v -0.7750000 0.0189000 0.3810957
v -0.7750000 0.0189000 0.3810957
v -0.7750000 2.2211000 -0.4511043
v -0.7750000 2.2211000 -0.4511043
v -0.7750000 2.2211000 -0.3989043
v -0.7750000 2.2211000 -0.3989043
v -0.7750000 2.2211000 0.3288957
v -0.7750000 2.2211000 0.3288957
v -0.7750000 2.2211000 0.3810957
v -0.7750000 2.2211000 0.3810957
v 0.7750000 0.0189000 -0.4511043
v 0.7750000 0.0189000 -0.4511043
v 0.7750000 0.0189000 -0.3989043
v 0.7750000 0.0189000 -0.3989043
v 0.7750000 0.0189000 0.3288957
v 0.7750000 0.0189000 0.3288957
v 0.7750000 0.0189000 0.3810957
v 0.7750000 0.0189000 0.3810957
v 0.7750000 2.2211000 -0.4511043
v 0.7750000 2.2211000 -0.4511043
v 0.7750000 2.2211000 -0.3989043
v 0.7750000 2.2211000 -0.3989043
v 0.7750000 2.2211000 0.3288957
v 0.7750000 2.2211000 0.3288957
v 0.7750000 2.2211000 0.3810957
v 0.7750000 2.2211000 0.3810957
v 0.7939000 0.0000000 -0.4511043
v 0.7939000 0.0000000 -0.3989043
v 0.7939000 0.0000000 0.3288957
v 0.7939000 0.0000000 0.3810957
v 0.7939000 0.0189000 -0.4700043
v 0.7939000 0.0189000 -0.4700043
v 0.7939000 0.0189000 -0.3800043
v 0.7939000 0.0189000 -0.3800043
v 0.7939000 0.0189000 0.3099957
v 0.7939000 0.0189000 0.3099957
v 0.7939000 0.0189000 0.3999957
v 0.7939000 0.0189000 0.3999957
v 0.7939000 2.2211000 -0.4700043
v 0.7939000 2.2211000 -0.4700043
v 0.7939000 2.2211000 -0.4700043
v 0.7939000 2.2211000 -0.3800043
v 0.7939000 2.2211000 -0.3800043
v 0.7939000 2.2211000 -0.3800043
v 0.7939000 2.2211000 0.3099957
v 0.7939000 2.2211000 0.3099957
v 0.7939000 2.2211000 0.3099957
v 0.7939000 2.2211000 0.3999957
v 0.7939000 2.2211000 0.3999957
v 0.7939000 2.2211000 0.3999957
v 0.7939000 2.2400000 -0.4511043
v 0.7939000 2.2400000 -0.3989043
v 0.7939000 2.2400000 0.3288957
v 0.7939000 2.2400000 0.3810957
v 0.8000000 2.0335546 0.5782676
v 0.8000000 2.0335546 0.5782676
v 0.8000000 2.0335546 0.5782676
v 0.8000000 2.0677651 0.5846458
v 0.8000000 2.0677651 0.5846458
v 0.8000000 2.0677651 0.5846458
v 0.8000000 2.2522349 -0.5946544
v 0.8000000 2.2522349 -0.5946544
v 0.8000000 2.2864454 -0.5882761
v 0.8000000 2.2864454 -0.5882761
v 0.8000000 2.2864454 -0.5882761
v 0.8126000 2.0211680 0.5759582
v 0.8126000 2.0211680 0.5759582
v 0.8126000 2.0312452 0.5906542
v 0.8126000 2.0654557 0.5970324
v 0.8126000 2.0801516 0.5869552
v 0.8126000 2.0801516 0.5869552
v 0.8126000 2.2398484 -0.5969637
v 0.8126000 2.2398484 -0.5969637
v 0.8126000 2.2545443 -0.6070409
v 0.8126000 2.2887548 -0.6006627
v 0.8126000 2.2988320 -0.5859668
v 0.8126000 2.2988320 -0.5859668
v 0.8461000 0.0000000 -0.4511043
v 0.8461000 0.0000000 -0.3989043
v 0.8461000 0.0000000 0.3288957
v 0.8461000 0.0000000 0.3810957
v 0.8461000 0.0189000 -0.4700043
v 0.8461000 0.0189000 -0.4700043
v 0.8461000 0.0189000 -0.4700043
v 0.8461000 0.0189000 -0.3800043
v 0.8461000 0.0189000 -0.3800043
v 0.8461000 0.0189000 -0.3800043
v 0.8461000 0.0189000 0.3099957
v 0.8461000 0.0189000 0.3099957
v 0.8461000 0.0189000 0.3099957
v 0.8461000 0.0189000 0.3999957
v 0.8461000 0.0189000 0.3999957
v 0.8461000 0.0189000 0.3999957
v 0.8461000 2.2211000 -0.4700043
v 0.8461000 2.2211000 -0.4700043
v 0.8461000 2.2211000 -0.4700043
v 0.8461000 2.2211000 -0.3800043
v 0.8461000 2.2211000 -0.3800043
v 0.8461000 2.2211000 -0.3800043
v 0.8461000 2.2211000 0.3099957
v 0.8461000 2.2211000 0.3099957
v 0.8461000 2.2211000 0.3099957
v 0.8461000 2.2211000 0.3999957
v 0.8461000 2.2211000 0.3999957
v 0.8461000 2.2211000 0.3999957
v 0.8461000 2.2400000 -0.4511043
v 0.8461000 2.2400000 -0.3989043
v 0.8461000 2.2400000 0.3288957
v 0.8461000 2.2400000 0.3810957
v 0.8474000 2.0211680 0.5759582
v 0.8474000 2.0211680 0.5759582
v 0.8474000 2.0312452 0.5906542
v 0.8474000 2.0654557 0.5970324
v 0.8474000 2.0801516 0.5869552
v 0.8474000 2.0801516 0.5869552
v 0.8474000 2.2398484 -0.5969637
v 0.8474000 2.2398484 -0.5969637
v 0.8474000 2.2545443 -0.6070409
v 0.8474000 2.2887548 -0.6006627
v 0.8474000 2.2988320 -0.5859668
v 0.8474000 2.2988320 -0.5859668
v 0.8600000 2.0335546 0.5782676
v 0.8600000 2.0335546 0.5782676
v 0.8600000 2.0335546 0.5782676
v 0.8600000 2.0677651 0.5846458
v 0.8600000 2.0677651 0.5846458
v 0.8600000 2.0677651 0.5846458
v 0.8600000 2.2522349 -0.5946544
v 0.8600000 2.2522349 -0.5946544
v 0.8600000 2.2864454 -0.5882761
v 0.8600000 2.2864454 -0.5882761
v 0.8600000 2.2864454 -0.5882761
v 0.8650000 0.0189000 -0.4511043
v 0.8650000 0.0189000 -0.4511043
v 0.8650000 0.0189000 -0.3989043
v 0.8650000 0.0189000 -0.3989043
v 0.8650000 0.0189000 0.3288957
v 0.8650000 0.0189000 0.3288957
v 0.8650000 0.0189000 0.3810957
v 0.8650000 0.0189000 0.3810957
v 0.8650000 2.2211000 -0.4511043
v 0.8650000 2.2211000 -0.4511043
v 0.8650000 2.2211000 -0.3989043
v 0.8650000 2.2211000 -0.3989043
v 0.8650000 2.2211000 0.3288957
v 0.8650000 2.2211000 0.3288957
v 0.8650000 2.2211000 0.3810957
v 0.8650000 2.2211000 0.3810957
v 0.9403000 0.8750000 -0.5103043
v 0.9403000 0.8750000 -0.4197043
v 0.9403000 0.8750000 -0.3669709
v 0.9403000 0.8750000 -0.2763709
v 0.9403000 0.8750000 -0.2236376
v 0.9403000 0.8750000 -0.1330376
v 0.9403000 0.8750000 -0.0803043
v 0.9403000 0.8750000 0.0102957
v 0.9403000 0.8750000 0.0630291
v 0.9403000 0.8750000 0.1536291
v 0.9403000 0.8750000 0.2063624
v 0.9403000 0.8750000 0.2969624
v 0.9403000 0.8750000 0.3496957
v 0.9403000 0.8750000 0.4402957
v 0.9403000 0.8897000 -0.5250043
v 0.9403000 0.8897000 -0.5250043
v 0.9403000 0.8897000 -0.4050043
v 0.9403000 0.8897000 -0.4050043
v 0.9403000 0.8897000 -0.3816709
v 0.9403000 0.8897000 -0.3816709
v 0.9403000 0.8897000 -0.2616709
v 0.9403000 0.8897000 -0.2616709
v 0.9403000 0.8897000 -0.2383376
v 0.9403000 0.8897000 -0.2383376
v 0.9403000 0.8897000 -0.1183376
v 0.9403000 0.8897000 -0.1183376
v 0.9403000 0.8897000 -0.0950043
v 0.9403000 0.8897000 -0.0950043
v 0.9403000 0.8897000 0.0249957
v 0.9403000 0.8897000 0.0249957
v 0.9403000 0.8897000 0.0483291
v 0.9403000 0.8897000 0.0483291
v 0.9403000 0.8897000 0.1683291
v 0.9403000 0.8897000 0.1683291
v 0.9403000 0.8897000 0.1916624
v 0.9403000 0.8897000 0.1916624
v 0.9403000 0.8897000 0.3116624
v 0.9403000 0.8897000 0.3116624
v 0.9403000 0.8897000 0.3349957
v 0.9403000 0.8897000 0.3349957
v 0.9403000 0.8897000 0.4549957
v 0.9403000 0.8897000 0.4549957
v 0.9403000 0.9303000 -0.5250043
v 0.9403000 0.9303000 -0.5250043
v 0.9403000 0.9303000 -0.4050043
v 0.9403000 0.9303000 -0.4050043
v 0.9403000 0.9303000 -0.3816709
v 0.9403000 0.9303000 -0.3816709
v 0.9403000 0.9303000 -0.2616709
v 0.9403000 0.9303000 -0.2616709
v 0.9403000 0.9303000 -0.2383376
v 0.9403000 0.9303000 -0.2383376
v 0.9403000 0.9303000 -0.1183376
v 0.9403000 0.9303000 -0.1183376
v 0.9403000 0.9303000 -0.0950043
v 0.9403000 0.9303000 -0.0950043
v 0.9403000 0.9303000 0.0249957
v 0.9403000 0.9303000 0.0249957
v 0.9403000 0.9303000 0.0483291
v 0.9403000 0.9303000 0.0483291
v 0.9403000 0.9303000 0.1683291
v 0.9403000 0.9303000 0.1683291
v 0.9403000 0.9303000 0.1916624
v 0.9403000 0.9303000 0.1916624
v 0.9403000 0.9303000 0.3116624
v 0.9403000 0.9303000 0.3116624
v 0.9403000 0.9303000 0.3349957
v 0.9403000 0.9303000 0.3349957
v 0.9403000 0.9303000 0.4549957
v 0.9403000 0.9303000 0.4549957
v 0.9403000 0.9450000 -0.5103043
v 0.9403000 0.9450000 -0.4197043
v 0.9403000 0.9450000 -0.3669709
v 0.9403000 0.9450000 -0.2763709
v 0.9403000 0.9450000 -0.2236376
v 0.9403000 0.9450000 -0.1330376
v 0.9403000 0.9450000 -0.0803043
v 0.9403000 0.9450000 0.0102957
v 0.9403000 0.9450000 0.0630291
v 0.9403000 0.9450000 0.1536291
v 0.9403000 0.9450000 0.2063624
v 0.9403000 0.9450000 0.2969624
v 0.9403000 0.9450000 0.3496957
v 0.9403000 0.9450000 0.4402957
v 0.9550000 0.8897000 -0.5103043
v 0.9550000 0.8897000 -0.5103043
v 0.9550000 0.8897000 -0.4197043
v 0.9550000 0.8897000 -0.4197043
v 0.9550000 0.8897000 -0.4197043
v 0.9550000 0.8897000 -0.3669709
v 0.9550000 0.8897000 -0.3669709
v 0.9550000 0.8897000 -0.2763709
v 0.9550000 0.8897000 -0.2763709
v 0.9550000 0.8897000 -0.2763709
v 0.9550000 0.8897000 -0.2236376
v 0.9550000 0.8897000 -0.2236376
v 0.9550000 0.8897000 -0.1330376
v 0.9550000 0.8897000 -0.1330376
v 0.9550000 0.8897000 -0.1330376
v 0.9550000 0.8897000 -0.0803043
v 0.9550000 0.8897000 -0.0803043
v 0.9550000 0.8897000 0.0102957
v 0.9550000 0.8897000 0.0102957
v 0.9550000 0.8897000 0.0102957
v 0.9550000 0.8897000 0.0630291
v 0.9550000 0.8897000 0.0630291
v 0.9550000 0.8897000 0.1536291
v 0.9550000 0.8897000 0.1536291
v 0.9550000 0.8897000 0.1536291
v 0.9550000 0.8897000 0.2063624
v 0.9550000 0.8897000 0.2063624
v 0.9550000 0.8897000 0.2969624
v 0.9550000 0.8897000 0.2969624
v 0.9550000 0.8897000 0.2969624
v 0.9550000 0.8897000 0.3496957
v 0.9550000 0.8897000 0.3496957
v 0.9550000 0.8897000 0.4402957
v 0.9550000 0.8897000 0.4402957
v 0.9550000 0.8897000 0.4402957
v 0.9550000 0.9303000 -0.5103043
v 0.9550000 0.9303000 -0.5103043
v 0.9550000 0.9303000 -0.5103043
v 0.9550000 0.9303000 -0.4197043
v 0.9550000 0.9303000 -0.4197043
v 0.9550000 0.9303000 -0.4197043
v 0.9550000 0.9303000 -0.3669709
v 0.9550000 0.9303000 -0.3669709
v 0.9550000 0.9303000 -0.3669709
v 0.9550000 0.9303000 -0.2763709
v 0.9550000 0.9303000 -0.2763709
v 0.9550000 0.9303000 -0.2763709
v 0.9550000 0.9303000 -0.2236376
v 0.9550000 0.9303000 -0.2236376
v 0.9550000 0.9303000 -0.2236376
v 0.9550000 0.9303000 -0.1330376
v 0.9550000 0.9303000 -0.1330376
v 0.9550000 0.9303000 -0.1330376
v 0.9550000 0.9303000 -0.0803043
v 0.9550000 0.9303000 -0.0803043
v 0.9550000 0.9303000 -0.0803043
v 0.9550000 0.9303000 0.0102957
v 0.9550000 0.9303000 0.0102957
v 0.9550000 0.9303000 0.0102957
v 0.9550000 0.9303000 0.0630291
v 0.9550000 0.9303000 0.0630291
v 0.9550000 0.9303000 0.0630291
v 0.9550000 0.9303000 0.1536291
v 0.9550000 0.9303000 0.1536291
v 0.9550000 0.9303000 0.1536291
v 0.9550000 0.9303000 0.2063624
v 0.9550000 0.9303000 0.2063624
v 0.9550000 0.9303000 0.2063624
v 0.9550000 0.9303000 0.2969624
v 0.9550000 0.9303000 0.2969624
v 0.9550000 0.9303000 0.2969624
v 0.9550000 0.9303000 0.3496957
v 0.9550000 0.9303000 0.3496957
v 0.9550000 0.9303000 0.3496957
v 0.9550000 0.9303000 0.4402957
v 0.9550000 0.9303000 0.4402957
v 0.9550000 0.9303000 0.4402957
v 1.0276500 2.0457191 -0.6255738
v 1.0276500 2.0457191 -0.6255738
v 1.0276500 2.0457191 -0.6255738
v 1.0276500 2.0517196 -0.6340613
v 1.0276500 2.0517196 -0.6340613
v 1.0276500 2.0717270 -0.6374957
v 1.0276500 2.0717270 -0.6374957
v 1.0276500 2.0802145 -0.6314952
v 1.0276500 2.0802145 -0.6314952
v 1.0276500 2.0802145 -0.6314952
v 1.0276500 2.2597855 0.6214866
v 1.0276500 2.2597855 0.6214866
v 1.0276500 2.2597855 0.6214866
v 1.0276500 2.2682730 0.6274872
v 1.0276500 2.2682730 0.6274872
v 1.0276500 2.2882804 0.6240528
v 1.0276500 2.2882804 0.6240528
v 1.0276500 2.2942809 0.6155652
v 1.0276500 2.2942809 0.6155652
v 1.0276500 2.2942809 0.6155652
v 1.0297500 1.9100000 0.6177457
v 1.0297500 1.9100000 0.6177457
v 1.0297500 1.9100000 0.6177457
v 1.0297500 1.9100000 0.6322457
v 1.0297500 1.9100000 0.6322457
v 1.0297500 1.9100000 0.6322457
v 1.0297500 1.9152500 0.6124957
v 1.0297500 1.9152500 0.6124957
v 1.0297500 1.9152500 0.6374957
v 1.0297500 1.9152500 0.6374957
v 1.0297500 2.0847500 0.6124957
v 1.0297500 2.0847500 0.6124957
v 1.0297500 2.0847500 0.6374957
v 1.0297500 2.0847500 0.6374957
v 1.0297500 2.0900000 0.6177457
v 1.0297500 2.0900000 0.6177457
v 1.0297500 2.0900000 0.6177457
v 1.0297500 2.0900000 0.6322457
v 1.0297500 2.0900000 0.6322457
v 1.0297500 2.0900000 0.6322457
v 1.0350000 1.9152500 0.6177457
v 1.0350000 1.9152500 0.6322457
v 1.0350000 2.0529631 -0.6268173
v 1.0350000 2.0729705 -0.6302517
v 1.0350000 2.0847500 0.6177457
v 1.0350000 2.0847500 0.6322457
v 1.0350000 2.2670295 0.6202431
v 1.0350000 2.2870369 0.6168087
vt 0.0669970 0.1285830
vt 0.0877113 0.1285830
vt 0.0700436 0.0650026
vt 0.0990436 0.0650026
vt 0.0669970 0.1784359
vt 0.0877113 0.1784359
vt 0.0700436 0.4371497
vt 0.0990436 0.4371497
vt 0.0594970 0.1285830
vt 0.0669970 0.1270389
vt 0.0669970 0.1285830
vt 0.0594970 0.1285830
vt 0.0877113 0.1270389
vt 0.0877113 0.1285830
vt 0.0594970 0.1285830
vt 0.0669970 0.1285830
vt 0.0669970 0.1285830
vt 0.0952113 0.1285830
vt 0.0594970 0.1784359
vt 0.3091399 0.1285830
vt 0.0952113 0.1784359
vt 0.3091399 0.1285830
vt 0.0669970 0.1285830
vt 0.0669970 0.1799800
vt 0.3166399 0.1285830
vt 0.0877113 0.1285830
vt 0.0877113 0.1799800
vt 0.3166399 0.1285830
vt 0.0595436 0.0650026
vt 0.0700436 0.0650026
vt 0.0700436 0.0628409
vt 0.0700436 0.0650026
vt 0.0990436 0.0628409
vt 0.0990436 0.0650026
vt 0.0700436 0.0650026
vt 0.1095436 0.0650026
vt 0.0595436 0.0650026
vt 0.0595436 0.4371497
vt 1.8776151 0.0650026
vt 0.0700436 0.0650026
vt 0.0700436 0.4393115
vt 0.0990436 0.0650026
vt 0.0990436 0.4393115
vt 0.1095436 0.0650026
vt 0.1095436 0.4371497
vt 1.8776151 0.0650026
vt 0.1365192 0.0589747
vt 0.1365192 0.0632982
vt 0.1365192 0.0589747
vt 0.1365192 0.0899453
vt 0.2659478 0.0589747
vt 0.1508809 0.0659112
vt 0.1508809 0.0702347
vt 0.1508809 0.0659112
vt 0.1508809 0.0968817
vt 0.2803095 0.0659112
vt 0.0611789 0.1265518
vt 0.0611789 0.1308754
vt 0.0611789 0.1265518
vt 0.0611789 0.1575224
vt 0.1906074 0.1265518
vt 0.0670607 0.1264522
vt 0.0670607 0.1307758
vt 0.0670607 0.1264522
vt 0.0670607 0.1574228
vt 0.1964893 0.1264522
vt 0.0461444 0.0328135
vt 0.0461444 0.0371371
vt 0.0461444 0.0328135
vt 0.0461444 0.0637841
vt 0.1755729 0.0328135
vt 0.1003367 0.1268186
vt 0.1003367 0.1311422
vt 0.1003367 0.1268186
vt 0.1003367 0.1577892
vt 0.2297653 0.1268186
vt 0.0482191 0.1037700
vt 0.0482191 0.1080936
vt 0.0482191 0.1037700
vt 0.0482191 0.1347406
vt 0.1776477 0.1037700
vt 0.1365192 0.0589747
vt 0.1945192 0.0589747
vt 0.1945192 0.0632982
vt 0.1945192 0.0589747
vt 0.1945192 0.0899453
vt 0.2659478 0.0589747
vt 0.1508809 0.0659112
vt 0.2088809 0.0659112
vt 0.2088809 0.0702347
vt 0.2088809 0.0659112
vt 0.2088809 0.0968817
vt 0.2803095 0.0659112
vt 0.0611789 0.1265518
vt 0.1191789 0.1265518
vt 0.1191789 0.1308754
vt 0.1191789 0.1265518
vt 0.1191789 0.1575224
vt 0.1906074 0.1265518
vt 0.0670607 0.1264522
vt 0.1250607 0.1264522
vt 0.1250607 0.1307758
vt 0.1250607 0.1264522
vt 0.1250607 0.1574228
vt 0.1964893 0.1264522
vt 0.0461444 0.0328135
vt 0.1041444 0.0328135
vt 0.1041444 0.0371371
vt 0.1041444 0.0328135
vt 0.1041444 0.0637841
vt 0.1755729 0.0328135
vt 0.1003367 0.1268186
vt 0.1583367 0.1268186
vt 0.1583367 0.1311422
vt 0.1583367 0.1268186
vt 0.1583367 0.1577892
vt 0.2297653 0.1268186
vt 0.0482191 0.1037700
vt 0.1062191 0.1037700
vt 0.1062191 0.1080936
vt 0.1062191 0.1037700
vt 0.1062191 0.1347406
vt 0.1776477 0.1037700
vt 0.1365192 0.0632982
vt 0.2659478 0.0632982
vt 0.1508809 0.0702347
vt 0.2803095 0.0702347
vt 0.0611789 0.1308754
vt 0.1906074 0.1308754
vt 0.0670607 0.1307758
vt 0.1964893 0.1307758
vt 0.0461444 0.0371371
vt 0.1755729 0.0371371
vt 0.1003367 0.1311422
vt 0.2297653 0.1311422
vt 0.0482191 0.1080936
vt 0.1776477 0.1080936
vt 0.1155192 0.0632982
vt 0.1365192 0.0632982
vt 0.1365192 0.0632982
vt 0.2869478 0.0632982
vt 0.1298809 0.0702347
vt 0.1508809 0.0702347
vt 0.1508809 0.0702347
vt 0.3013095 0.0702347
vt 0.0401789 0.1308754
vt 0.0611789 0.1308754
vt 0.0611789 0.1308754
vt 0.2116074 0.1308754
vt 0.0460607 0.1307758
vt 0.0670607 0.1307758
vt 0.0670607 0.1307758
vt 0.2174893 0.1307758
vt 0.0251444 0.0371371
vt 0.0461444 0.0371371
vt 0.0461444 0.0371371
vt 0.1965729 0.0371371
vt 0.0793367 0.1311422
vt 0.1003367 0.1311422
vt 0.1003367 0.1311422
vt 0.2507653 0.1311422
vt 0.0272191 0.1080936
vt 0.0482191 0.1080936
vt 0.0482191 0.1080936
vt 0.1986477 0.1080936
vt 0.1155192 0.0632982
vt 0.1945192 0.0632982
vt 0.1945192 0.0632982
vt 0.2869478 0.0632982
vt 0.1298809 0.0702347
vt 0.2088809 0.0702347
vt 0.2088809 0.0702347
vt 0.3013095 0.0702347
vt 0.0401789 0.1308754
vt 0.1191789 0.1308754
vt 0.1191789 0.1308754
vt 0.2116074 0.1308754
vt 0.0460607 0.1307758
vt 0.1250607 0.1307758
vt 0.1250607 0.1307758
vt 0.2174893 0.1307758
vt 0.0251444 0.0371371
vt 0.1041444 0.0371371
vt 0.1041444 0.0371371
vt 0.1965729 0.0371371
vt 0.0793367 0.1311422
vt 0.1583367 0.1311422
vt 0.1583367 0.1311422
vt 0.2507653 0.1311422
vt 0.0272191 0.1080936
vt 0.1062191 0.1080936
vt 0.1062191 0.1080936
vt 0.1986477 0.1080936
vt 0.1365192 0.0632982
vt 0.2659478 0.0632982
vt 0.1508809 0.0702347
vt 0.2803095 0.0702347
vt 0.0611789 0.1308754
vt 0.1906074 0.1308754
vt 0.0670607 0.1307758
vt 0.1964893 0.1307758
vt 0.0461444 0.0371371
vt 0.1755729 0.0371371
vt 0.1003367 0.1311422
vt 0.2297653 0.1311422
vt 0.0482191 0.1080936
vt 0.1776477 0.1080936
vt 0.0660077 0.0217664
vt 0.0660077 0.0273252
vt 0.1405792 0.0217664
vt 0.1405792 0.0273252
vt 0.0527580 0.0344355
vt 0.0527580 0.0399943
vt 0.1273294 0.0344355
vt 0.1273294 0.0399943
vt 0.0660077 0.0217664
vt 0.0660077 0.6750311
vt 0.1405792 0.0217664
vt 0.1405792 0.6750311
vt 0.0527580 0.0344355
vt 0.0527580 0.6877002
vt 0.1273294 0.0344355
vt 0.1273294 0.6877002
vt 0.1279747 0.3950427
vt 0.1956890 0.0441211
vt 0.1956890 0.3950427
vt 0.1776890 0.3950427
vt 0.1956890 0.0543564
vt 0.1956890 0.3950427
vt 0.1279747 0.0441211
vt 0.1956890 0.0441211
vt 0.1776890 0.0441211
vt 0.1956890 0.0441211
vt 0.1956890 0.0543564
vt 0.1776890 0.0404152
vt 0.1776890 0.3950427
vt 0.1776890 0.0441211
vt 0.1776890 0.0543564
vt 0.1776890 0.0580623
vt 0.1776890 0.3950427
vt 0.1776890 0.0404152
vt 0.1776890 0.0441211
vt 0.1776890 0.0441211
vt 0.1776890 0.0543564
vt 0.1776890 0.0441211
vt 0.1776890 0.0580623
vt 0.0660077 0.0273252
vt 0.1405792 0.0273252
vt 0.0527580 0.0399943
vt 0.1273294 0.0399943
vt 0.0390077 0.0273252
vt 0.0660077 0.0273252
vt 0.0660077 0.0273252
vt 0.1675792 0.0273252
vt 0.0257580 0.0399943
vt 0.0527580 0.0399943
vt 0.0527580 0.0399943
vt 0.1543294 0.0399943
vt 0.0390077 0.0273252
vt 0.0390077 0.6750311
vt 0.0660077 0.6750311
vt 0.0660077 0.6750311
vt 0.1675792 0.0273252
vt 0.1675792 0.6750311
vt 0.0257580 0.0399943
vt 0.0257580 0.6877002
vt 0.0527580 0.6877002
vt 0.0527580 0.6877002
vt 0.1543294 0.0399943
vt 0.1543294 0.6877002
vt 0.0660077 0.0273252
vt 0.1405792 0.0273252
vt 0.0527580 0.0399943
vt 0.1273294 0.0399943
vt 0.1279747 0.0404152
vt 0.1279747 0.3950427
vt 0.1279747 0.0441211
vt 0.1279747 0.0543564
vt 0.1279747 0.0580623
vt 0.1279747 0.3950427
vt 0.1279747 0.0404152
vt 0.1279747 0.0441211
vt 0.1279747 0.0441211
vt 0.1279747 0.0543564
vt 0.1279747 0.0441211
vt 0.1279747 0.0580623
vt 0.1099747 0.0441211
vt 0.1099747 0.3950427
vt 0.1279747 0.3950427
vt 0.1099747 0.0543564
vt 0.1099747 0.3950427
vt 0.1776890 0.3950427
vt 0.1099747 0.0441211
vt 0.1279747 0.0441211
vt 0.1099747 0.0441211
vt 0.1099747 0.0543564
vt 0.1776890 0.0441211
vt 0.0660077 0.0426781
vt 0.1405792 0.0426781
vt 0.0527580 0.0553472
vt 0.1273294 0.0553472
vt 0.0390077 0.0273252
vt 0.0390077 0.0426781
vt 0.1405792 0.0273252
vt 0.1405792 0.0273252
vt 0.1675792 0.0273252
vt 0.1675792 0.0426781
vt 0.0257580 0.0399943
vt 0.0257580 0.0553472
vt 0.1273294 0.0399943
vt 0.1273294 0.0399943
vt 0.1543294 0.0399943
vt 0.1543294 0.0553472
vt 0.0390077 0.0426781
vt 0.0390077 0.6750311
vt 0.1405792 0.6750311
vt 0.1405792 0.6750311
vt 0.1675792 0.0426781
vt 0.1675792 0.6750311
vt 0.0257580 0.0553472
vt 0.0257580 0.6877002
vt 0.1273294 0.6877002
vt 0.1273294 0.6877002
vt 0.1543294 0.0553472
vt 0.1543294 0.6877002
vt 0.0660077 0.0426781
vt 0.1405792 0.0426781
vt 0.0527580 0.0553472
vt 0.1273294 0.0553472
vt 0.0660077 0.0273252
vt 0.0660077 0.0482369
vt 0.1405792 0.0273252
vt 0.1405792 0.0482369
vt 0.0527580 0.0399943
vt 0.0527580 0.0609061
vt 0.1273294 0.0399943
vt 0.1273294 0.0609061
vt 0.0660077 0.0482369
vt 0.0660077 0.6750311
vt 0.1405792 0.0482369
vt 0.1405792 0.6750311
vt 0.0527580 0.0609061
vt 0.0527580 0.6877002
vt 0.1273294 0.0609061
vt 0.1273294 0.6877002
vt 0.1478851 0.0835677
vt 0.1478851 0.0891265
vt 0.2224565 0.0835677
vt 0.2224565 0.0891265
vt 0.1485077 0.0651744
vt 0.1485077 0.0707333
vt 0.2230791 0.0651744
vt 0.2230791 0.0707333
vt 0.1478851 0.0835677
vt 0.1478851 0.7368324
vt 0.2224565 0.0835677
vt 0.2224565 0.7368324
vt 0.1485077 0.0651744
vt 0.1485077 0.7184391
vt 0.2230791 0.0651744
vt 0.2230791 0.7184391
vt 0.1478851 0.0891265
vt 0.2224565 0.0891265
vt 0.1485077 0.0707333
vt 0.2230791 0.0707333
vt 0.1208851 0.0891265
vt 0.1478851 0.0891265
vt 0.1478851 0.0891265
vt 0.2494565 0.0891265
vt 0.1215077 0.0707333
vt 0.1485077 0.0707333
vt 0.1485077 0.0707333
vt 0.2500791 0.0707333
vt 0.1208851 0.0891265
vt 0.1208851 0.7368324
vt 0.1478851 0.7368324
vt 0.1478851 0.7368324
vt 0.2494565 0.0891265
vt 0.2494565 0.7368324
vt 0.1215077 0.0707333
vt 0.1215077 0.7184391
vt 0.1485077 0.7184391
vt 0.1485077 0.7184391
vt 0.2500791 0.0707333
vt 0.2500791 0.7184391
vt 0.1478851 0.0891265
vt 0.2224565 0.0891265
vt 0.1485077 0.0707333
vt 0.2230791 0.0707333
vt 0.0571851 0.3833957
vt 0.1248994 0.0324741
vt 0.1248994 0.3833957
vt 0.1068994 0.3833957
vt 0.1248994 0.0427094
vt 0.1248994 0.3833957
vt 0.0571851 0.0324741
vt 0.1248994 0.0324741
vt 0.1068994 0.0324741
vt 0.1248994 0.0324741
vt 0.1248994 0.0427094
vt 0.1068994 0.0287682
vt 0.1068994 0.3833957
vt 0.1068994 0.0324741
vt 0.1068994 0.0427094
vt 0.1068994 0.0464153
vt 0.1068994 0.3833957
vt 0.1068994 0.0287682
vt 0.1068994 0.0324741
vt 0.1068994 0.0324741
vt 0.1068994 0.0427094
vt 0.1068994 0.0324741
vt 0.1068994 0.0464153
vt 0.1478851 0.1044795
vt 0.2224565 0.1044795
vt 0.1485077 0.0860862
vt 0.2230791 0.0860862
vt 0.1208851 0.0891265
vt 0.1208851 0.1044795
vt 0.2224565 0.0891265
vt 0.2224565 0.0891265
vt 0.2494565 0.0891265
vt 0.2494565 0.1044795
vt 0.1215077 0.0707333
vt 0.1215077 0.0860862
vt 0.2230791 0.0707333
vt 0.2230791 0.0707333
vt 0.2500791 0.0707333
vt 0.2500791 0.0860862
vt 0.1208851 0.1044795
vt 0.1208851 0.7368324
vt 0.2224565 0.7368324
vt 0.2224565 0.7368324
vt 0.2494565 0.1044795
vt 0.2494565 0.7368324
vt 0.1215077 0.0860862
vt 0.1215077 0.7184391
vt 0.2230791 0.7184391
vt 0.2230791 0.7184391
vt 0.2500791 0.0860862
vt 0.2500791 0.7184391
vt 0.1478851 0.1044795
vt 0.2224565 0.1044795
vt 0.1485077 0.0860862
vt 0.2230791 0.0860862
vt 0.0571851 0.0287682
vt 0.0571851 0.3833957
vt 0.0571851 0.0324741
vt 0.0571851 0.0427094
vt 0.0571851 0.0464153
vt 0.0571851 0.3833957
vt 0.0571851 0.0287682
vt 0.0571851 0.0324741
vt 0.0571851 0.0324741
vt 0.0571851 0.0427094
vt 0.0571851 0.0324741
vt 0.0571851 0.0464153
vt 0.0391851 0.0324741
vt 0.0391851 0.3833957
vt 0.0571851 0.3833957
vt 0.0391851 0.0427094
vt 0.0391851 0.3833957
vt 0.1068994 0.3833957
vt 0.0391851 0.0324741
vt 0.0571851 0.0324741
vt 0.0391851 0.0324741
vt 0.0391851 0.0427094
vt 0.1068994 0.0324741
vt 0.1478851 0.0891265
vt 0.1478851 0.1100383
vt 0.2224565 0.0891265
vt 0.2224565 0.1100383
vt 0.1485077 0.0707333
vt 0.1485077 0.0916450
vt 0.2230791 0.0707333
vt 0.2230791 0.0916450
vt 0.1478851 0.1100383
vt 0.1478851 0.7368324
vt 0.2224565 0.1100383
vt 0.2224565 0.7368324
vt 0.1485077 0.0916450
vt 0.1485077 0.7184391
vt 0.2230791 0.0916450
vt 0.2230791 0.7184391
vt 0.1365192 0.6164159
vt 0.2659478 0.6164159
vt 0.1508809 0.6233523
vt 0.2803095 0.6233523
vt 0.0611789 0.6839930
vt 0.1906074 0.6839930
vt 0.0670607 0.6838934
vt 0.1964893 0.6838934
vt 0.0461444 0.5902547
vt 0.1755729 0.5902547
vt 0.1003367 0.6842598
vt 0.2297653 0.6842598
vt 0.0482191 0.6612112
vt 0.1776477 0.6612112
vt 0.1155192 0.6164159
vt 0.1365192 0.6164159
vt 0.1365192 0.6164159
vt 0.2869478 0.6164159
vt 0.1298809 0.6233523
vt 0.1508809 0.6233523
vt 0.1508809 0.6233523
vt 0.3013095 0.6233523
vt 0.0401789 0.6839930
vt 0.0611789 0.6839930
vt 0.0611789 0.6839930
vt 0.2116074 0.6839930
vt 0.0460607 0.6838934
vt 0.0670607 0.6838934
vt 0.0670607 0.6838934
vt 0.2174893 0.6838934
vt 0.0251444 0.5902547
vt 0.0461444 0.5902547
vt 0.0461444 0.5902547
vt 0.1965729 0.5902547
vt 0.0793367 0.6842598
vt 0.1003367 0.6842598
vt 0.1003367 0.6842598
vt 0.2507653 0.6842598
vt 0.0272191 0.6612112
vt 0.0482191 0.6612112
vt 0.0482191 0.6612112
vt 0.1986477 0.6612112
vt 0.1155192 0.6164159
vt 0.1945192 0.6164159
vt 0.1945192 0.6164159
vt 0.2869478 0.6164159
vt 0.1298809 0.6233523
vt 0.2088809 0.6233523
vt 0.2088809 0.6233523
vt 0.3013095 0.6233523
vt 0.0401789 0.6839930
vt 0.1191789 0.6839930
vt 0.1191789 0.6839930
vt 0.2116074 0.6839930
vt 0.0460607 0.6838934
vt 0.1250607 0.6838934
vt 0.1250607 0.6838934
vt 0.2174893 0.6838934
vt 0.0251444 0.5902547
vt 0.1041444 0.5902547
vt 0.1041444 0.5902547
vt 0.1965729 0.5902547
vt 0.0793367 0.6842598
vt 0.1583367 0.6842598
vt 0.1583367 0.6842598
vt 0.2507653 0.6842598
vt 0.0272191 0.6612112
vt 0.1062191 0.6612112
vt 0.1062191 0.6612112
vt 0.1986477 0.6612112
vt 0.1365192 0.6164159
vt 0.2659478 0.6164159
vt 0.1508809 0.6233523
vt 0.2803095 0.6233523
vt 0.0611789 0.6839930
vt 0.1906074 0.6839930
vt 0.0670607 0.6838934
vt 0.1964893 0.6838934
vt 0.0461444 0.5902547
vt 0.1755729 0.5902547
vt 0.1003367 0.6842598
vt 0.2297653 0.6842598
vt 0.0482191 0.6612112
vt 0.1776477 0.6612112
vt 0.1365192 0.0632982
vt 0.1365192 0.6207394
vt 0.1365192 0.0899453
vt 0.1365192 0.6207394
vt 0.2659478 0.6207394
vt 0.1508809 0.0702347
vt 0.1508809 0.6276759
vt 0.1508809 0.0968817
vt 0.1508809 0.6276759
vt 0.2803095 0.6276759
vt 0.0611789 0.1308754
vt 0.0611789 0.6883166
vt 0.0611789 0.1575224
vt 0.0611789 0.6883166
vt 0.1906074 0.6883166
vt 0.0670607 0.1307758
vt 0.0670607 0.6882169
vt 0.0670607 0.1574228
vt 0.0670607 0.6882169
vt 0.1964893 0.6882169
vt 0.0461444 0.0371371
vt 0.0461444 0.5945782
vt 0.0461444 0.0637841
vt 0.0461444 0.5945782
vt 0.1755729 0.5945782
vt 0.1003367 0.1311422
vt 0.1003367 0.6885833
vt 0.1003367 0.1577892
vt 0.1003367 0.6885833
vt 0.2297653 0.6885833
vt 0.0482191 0.1080936
vt 0.0482191 0.6655348
vt 0.0482191 0.1347406
vt 0.0482191 0.6655348
vt 0.1776477 0.6655348
vt 0.1365192 0.6207394
vt 0.1945192 0.0632982
vt 0.1945192 0.6207394
vt 0.1945192 0.0899453
vt 0.1945192 0.6207394
vt 0.2659478 0.6207394
vt 0.1508809 0.6276759
vt 0.2088809 0.0702347
vt 0.2088809 0.6276759
vt 0.2088809 0.0968817
vt 0.2088809 0.6276759
vt 0.2803095 0.6276759
vt 0.0611789 0.6883166
vt 0.1191789 0.1308754
vt 0.1191789 0.6883166
vt 0.1191789 0.1575224
vt 0.1191789 0.6883166
vt 0.1906074 0.6883166
vt 0.0670607 0.6882169
vt 0.1250607 0.1307758
vt 0.1250607 0.6882169
vt 0.1250607 0.1574228
vt 0.1250607 0.6882169
vt 0.1964893 0.6882169
vt 0.0461444 0.5945782
vt 0.1041444 0.0371371
vt 0.1041444 0.5945782
vt 0.1041444 0.0637841
vt 0.1041444 0.5945782
vt 0.1755729 0.5945782
vt 0.1003367 0.6885833
vt 0.1583367 0.1311422
vt 0.1583367 0.6885833
vt 0.1583367 0.1577892
vt 0.1583367 0.6885833
vt 0.2297653 0.6885833
vt 0.0482191 0.6655348
vt 0.1062191 0.1080936
vt 0.1062191 0.6655348
vt 0.1062191 0.1347406
vt 0.1062191 0.6655348
vt 0.1776477 0.6655348
vt 0.0595436 0.0650026
vt 0.0595436 0.6695026
vt 0.0700436 0.6695026
vt 0.0700436 0.0628409
vt 0.0700436 0.6695026
vt 0.0990436 0.0628409
vt 0.0990436 0.6695026
vt 0.0700436 0.6695026
vt 0.1095436 0.0650026
vt 0.1095436 0.6695026
vt 0.0595436 0.4371497
vt 0.0595436 0.6695026
vt 1.8776151 0.6695026
vt 0.0700436 0.4393115
vt 0.0700436 0.6695026
vt 0.0990436 0.4393115
vt 0.0990436 0.6695026
vt 0.1095436 0.4371497
vt 0.1095436 0.6695026
vt 1.8776151 0.6695026
vt 0.0594970 0.7343183
vt 0.0669970 0.1270389
vt 0.0669970 0.7343183
vt 0.0594970 0.7343183
vt 0.0877113 0.1270389
vt 0.0877113 0.7343183
vt 0.0594970 0.1285830
vt 0.0669970 0.7343183
vt 0.0669970 0.7343183
vt 0.0952113 0.1285830
vt 0.0594970 0.1784359
vt 0.3091399 0.7343183
vt 0.0952113 0.1784359
vt 0.3091399 0.7343183
vt 0.0669970 0.1799800
vt 0.0669970 0.7343183
vt 0.3166399 0.7343183
vt 0.0877113 0.1799800
vt 0.0877113 0.7343183
vt 0.3166399 0.7343183
vt 0.0669970 0.1285830
vt 0.0877113 0.1285830
vt 0.0700436 0.0650026
vt 0.0990436 0.0650026
vt 0.0669970 0.1784359
vt 0.0877113 0.1784359
vt 0.0700436 0.4371497
vt 0.0990436 0.4371497
vn -0.9248739 -0.0376482 -0.3784057
vn -0.9663327 -0.0147371 0.2568733
vn -0.9226498 -0.3812444 0.0580520
vn -0.9664339 0.2527234 -0.0462215
vn -0.9880194 0.0296830 -0.1514482
vn -0.9660306 0.0290224 0.2567929
vn -0.9884389 -0.1483626 0.0312595
vn -0.9664226 0.2541382 -0.0379615
vn -0.0014508 -0.9884295 -0.1516744
vn -0.0014508 -0.9884295 -0.1516744
vn -0.0014508 -0.9884295 -0.1516744
vn -0.0042540 -0.9665477 0.2564517
vn -0.0042540 -0.9665477 0.2564517
vn -0.0042540 -0.9665477 0.2564517
vn -0.0024645 -0.0581647 -0.9983040
vn -0.0024645 -0.0581647 -0.9983040
vn -0.0024645 -0.0581647 0.9983040
vn -0.0024645 -0.0581647 0.9983040
vn -0.0025034 0.0299923 -0.9995470
vn -0.0025034 0.0299923 -0.9995470
vn -0.0025034 0.0299923 0.9995470
vn -0.0025034 0.0299923 0.9995470
vn -0.0014508 0.9884295 -0.1516744
vn -0.0014508 0.9884295 -0.1516744
vn -0.0014508 0.9884295 -0.1516744
vn -0.0042540 0.9665477 0.2564517
vn -0.0042540 0.9665477 0.2564517
vn -0.0042540 0.9665477 0.2564517
vn -0.0035633 -0.9865391 0.1634865
vn -0.0035633 -0.9865391 0.1634865
vn -0.0025978 -0.5373203 -0.8433742
vn -0.0025978 -0.5373203 -0.8433742
vn -0.0029877 0.0893696 -0.9959940
vn -0.0029877 0.0893696 -0.9959940
vn -0.0035633 0.9845850 -0.1748704
vn -0.0035633 0.9845850 -0.1748704
vn -0.0035530 -0.9845868 0.1748604
vn -0.0035530 -0.9845868 0.1748604
vn -0.0035530 -0.9845868 0.1748604
vn -0.0020341 0.0176720 0.9998418
vn -0.0020341 0.0176720 0.9998418
vn -0.0059575 0.4161056 0.9092968
vn -0.0059575 0.4161056 0.9092968
vn -0.0035530 0.9865375 -0.1634966
vn -0.0035530 0.9865375 -0.1634966
vn -0.0035530 0.9865375 -0.1634966
vn -0.9240733 -0.3432887 -0.1680520
vn -0.9240733 -0.3432887 -0.1680520
vn -0.9791766 -0.1500928 0.1366942
vn -0.9791766 -0.1500928 0.1366942
vn -0.9791766 -0.1500928 0.1366942
vn -0.9240733 -0.3432887 -0.1680520
vn -0.9240733 -0.3432887 -0.1680520
vn -0.9791766 -0.1500928 0.1366942
vn -0.9791766 -0.1500928 0.1366942
vn -0.9791766 -0.1500928 0.1366942
vn -0.9240733 -0.3432887 -0.1680520
vn -0.9240733 -0.3432887 -0.1680520
vn -0.9791766 -0.1500928 0.1366942
vn -0.9791766 -0.1500928 0.1366942
vn -0.9791766 -0.1500928 0.1366942
vn -0.9240733 -0.3432887 -0.1680520
vn -0.9240733 -0.3432887 -0.1680520
vn -0.9791766 -0.1500928 0.1366942
vn -0.9791766 -0.1500928 0.1366942
vn -0.9791766 -0.1500928 0.1366942
vn -0.9240733 -0.3432887 -0.1680520
vn -0.9240733 -0.3432887 -0.1680520
vn -0.9791766 -0.1500928 0.1366942
vn -0.9791766 -0.1500928 0.1366942
vn -0.9791766 -0.1500928 0.1366942
vn -0.9240733 -0.3432887 -0.1680520
vn -0.9240733 -0.3432887 -0.1680520
vn -0.9791766 -0.1500928 0.1366942
vn -0.9791766 -0.1500928 0.1366942
vn -0.9791766 -0.1500928 0.1366942
vn -0.9240733 -0.3432887 -0.1680520
vn -0.9240733 -0.3432887 -0.1680520
vn -0.9791766 -0.1500928 0.1366942
vn -0.9791766 -0.1500928 0.1366942
vn -0.9791766 -0.1500928 0.1366942
vn -0.9639064 0.2562283 -0.0723299
vn -0.9639064 0.2562283 -0.0723299
vn -0.9639064 0.2562283 -0.0723299
vn -0.9577603 0.2545945 0.1337044
vn -0.9577603 0.2545945 0.1337044
vn -0.9577603 0.2545945 0.1337044
vn -0.9639064 0.2562283 -0.0723299
vn -0.9639064 0.2562283 -0.0723299
vn -0.9639064 0.2562283 -0.0723299
vn -0.9577603 0.2545945 0.1337044
vn -0.9577603 0.2545945 0.1337044
vn -0.9577603 0.2545945 0.1337044
vn -0.9639064 0.2562283 -0.0723299
vn -0.9639064 0.2562283 -0.0723299
vn -0.9639064 0.2562283 -0.0723299
vn -0.9577603 0.2545945 0.1337044
vn -0.9577603 0.2545945 0.1337044
vn -0.9577603 0.2545945 0.1337044
vn -0.9639064 0.2562283 -0.0723299
vn -0.9639064 0.2562283 -0.0723299
vn -0.9639064 0.2562283 -0.0723299
vn -0.9577603 0.2545945 0.1337044
vn -0.9577603 0.2545945 0.1337044
vn -0.9577603 0.2545945 0.1337044
vn -0.9639064 0.2562283 -0.0723299
vn -0.9639064 0.2562283 -0.0723299
vn -0.9639064 0.2562283 -0.0723299
vn -0.9577603 0.2545945 0.1337044
vn -0.9577603 0.2545945 0.1337044
vn -0.9577603 0.2545945 0.1337044
vn -0.9639064 0.2562283 -0.0723299
vn -0.9639064 0.2562283 -0.0723299
vn -0.9639064 0.2562283 -0.0723299
vn -0.9577603 0.2545945 0.1337044
vn -0.9577603 0.2545945 0.1337044
vn -0.9577603 0.2545945 0.1337044
vn -0.9639064 0.2562283 -0.0723299
vn -0.9639064 0.2562283 -0.0723299
vn -0.9639064 0.2562283 -0.0723299
vn -0.9577603 0.2545945 0.1337044
vn -0.9577603 0.2545945 0.1337044
vn -0.9577603 0.2545945 0.1337044
vn -0.0041722 -0.9971676 -0.0750951
vn -0.0141964 -0.9904212 0.1373474
vn -0.0041722 -0.9971676 -0.0750951
vn -0.0141964 -0.9904212 0.1373474
vn -0.0041722 -0.9971676 -0.0750951
vn -0.0141964 -0.9904212 0.1373474
vn -0.0041722 -0.9971676 -0.0750951
vn -0.0141964 -0.9904212 0.1373474
vn -0.0041722 -0.9971676 -0.0750951
vn -0.0141964 -0.9904212 0.1373474
vn -0.0041722 -0.9971676 -0.0750951
vn -0.0141964 -0.9904212 0.1373474
vn -0.0041722 -0.9971676 -0.0750951
vn -0.0141964 -0.9904212 0.1373474
vn -0.0056603 -0.3864843 -0.9222786
vn -0.0056603 -0.3864843 -0.9222786
vn -0.0037624 -0.2568993 0.9664308
vn -0.0037624 -0.2568993 0.9664308
vn -0.0056603 -0.3864843 -0.9222786
vn -0.0056603 -0.3864843 -0.9222786
vn -0.0037624 -0.2568993 0.9664308
vn -0.0037624 -0.2568993 0.9664308
vn -0.0056603 -0.3864843 -0.9222786
vn -0.0056603 -0.3864843 -0.9222786
vn -0.0037624 -0.2568993 0.9664308
vn -0.0037624 -0.2568993 0.9664308
vn -0.0056603 -0.3864843 -0.9222786
vn -0.0056603 -0.3864843 -0.9222786
vn -0.0037624 -0.2568993 0.9664308
vn -0.0037624 -0.2568993 0.9664308
vn -0.0056603 -0.3864843 -0.9222786
vn -0.0056603 -0.3864843 -0.9222786
vn -0.0037624 -0.2568993 0.9664308
vn -0.0037624 -0.2568993 0.9664308
vn -0.0056603 -0.3864843 -0.9222786
vn -0.0056603 -0.3864843 -0.9222786
vn -0.0037624 -0.2568993 0.9664308
vn -0.0037624 -0.2568993 0.9664308
vn -0.0056603 -0.3864843 -0.9222786
vn -0.0056603 -0.3864843 -0.9222786
vn -0.0037624 -0.2568993 0.9664308
vn -0.0037624 -0.2568993 0.9664308
vn -0.0065072 0.2562117 -0.9665988
vn -0.0065072 0.2562117 -0.9665988
vn -0.0129290 0.2555204 0.9667172
vn -0.0129290 0.2555204 0.9667172
vn -0.0065072 0.2562117 -0.9665988
vn -0.0065072 0.2562117 -0.9665988
vn -0.0129290 0.2555204 0.9667172
vn -0.0129290 0.2555204 0.9667172
vn -0.0065072 0.2562117 -0.9665988
vn -0.0065072 0.2562117 -0.9665988
vn -0.0129290 0.2555204 0.9667172
vn -0.0129290 0.2555204 0.9667172
vn -0.0065072 0.2562117 -0.9665988
vn -0.0065072 0.2562117 -0.9665988
vn -0.0129290 0.2555204 0.9667172
vn -0.0129290 0.2555204 0.9667172
vn -0.0065072 0.2562117 -0.9665988
vn -0.0065072 0.2562117 -0.9665988
vn -0.0129290 0.2555204 0.9667172
vn -0.0129290 0.2555204 0.9667172
vn -0.0065072 0.2562117 -0.9665988
vn -0.0065072 0.2562117 -0.9665988
vn -0.0129290 0.2555204 0.9667172
vn -0.0129290 0.2555204 0.9667172
vn -0.0065072 0.2562117 -0.9665988
vn -0.0065072 0.2562117 -0.9665988
vn -0.0129290 0.2555204 0.9667172
vn -0.0129290 0.2555204 0.9667172
vn -0.0076813 0.9903667 -0.1382563
vn -0.0071495 0.9904337 0.1378041
vn -0.0076813 0.9903667 -0.1382563
vn -0.0071495 0.9904337 0.1378041
vn -0.0076813 0.9903667 -0.1382563
vn -0.0071495 0.9904337 0.1378041
vn -0.0076813 0.9903667 -0.1382563
vn -0.0071495 0.9904337 0.1378041
vn -0.0076813 0.9903667 -0.1382563
vn -0.0071495 0.9904337 0.1378041
vn -0.0076813 0.9903667 -0.1382563
vn -0.0071495 0.9904337 0.1378041
vn -0.0076813 0.9903667 -0.1382563
vn -0.0071495 0.9904337 0.1378041
vn -0.9229472 -0.0107257 -0.3847771
vn -0.9229472 -0.0107257 -0.3847771
vn -0.9664294 -0.0041294 0.2568990
vn -0.9664294 -0.0041294 0.2568990
vn -0.9229472 -0.0107257 -0.3847771
vn -0.9229472 -0.0107257 -0.3847771
vn -0.9664294 -0.0041294 0.2568990
vn -0.9664294 -0.0041294 0.2568990
vn -0.9884200 0.0084108 -0.1515096
vn -0.9884200 0.0084108 -0.1515096
vn -0.9664050 0.0082234 0.2568925
vn -0.9664050 0.0082234 0.2568925
vn -0.9884200 0.0084108 -0.1515096
vn -0.9884200 0.0084108 -0.1515096
vn -0.9664050 0.0082234 0.2568925
vn -0.9664050 0.0082234 0.2568925
vn -0.9663884 -0.2543874 -0.0371553
vn -0.9663884 -0.2543874 -0.0371553
vn -0.9663884 -0.2543874 -0.0371553
vn -0.9666451 0.2500256 0.0555372
vn -0.9666451 0.2500256 0.0555372
vn -0.9666451 0.2500256 0.0555372
vn -0.9664252 -0.2516157 -0.0520750
vn -0.9664252 -0.2516157 -0.0520750
vn -0.9667757 0.2539008 0.0296511
vn -0.9667757 0.2539008 0.0296511
vn -0.9667757 0.2539008 0.0296511
vn -0.2559692 -0.9518780 -0.1685466
vn -0.2559692 -0.9518780 -0.1685466
vn -0.2541278 -0.3192773 0.9129518
vn -0.2488215 0.0730463 0.9657909
vn -0.2550343 0.9472121 0.1942852
vn -0.2550343 0.9472121 0.1942852
vn -0.2550343 -0.9472121 -0.1942852
vn -0.2550343 -0.9472121 -0.1942852
vn -0.2541278 0.0311604 -0.9666686
vn -0.2488215 0.4161667 -0.8745817
vn -0.2559692 0.9518780 0.1685466
vn -0.2559692 0.9518780 0.1685466
vn -0.1677894 -0.9714389 -0.1677894
vn -0.3523606 -0.9135411 0.2031861
vn -0.1677894 -0.9714389 -0.1677894
vn -0.3523606 -0.9135411 0.2031861
vn -0.2553849 -0.0141772 -0.9667355
vn -0.2553849 -0.0141772 -0.9667355
vn -0.2553849 -0.0141772 0.9667355
vn -0.2553849 -0.0141772 0.9667355
vn -0.2553849 -0.0141772 -0.9667355
vn -0.2553849 -0.0141772 -0.9667355
vn -0.2553849 -0.0141772 0.9667355
vn -0.2553849 -0.0141772 0.9667355
vn -0.2561440 0.0071400 -0.9666123
vn -0.2561440 0.0071400 -0.9666123
vn -0.2561440 0.0071400 -0.9666123
vn -0.2561440 0.0071400 0.9666123
vn -0.2561440 0.0071400 0.9666123
vn -0.2561440 0.0071400 0.9666123
vn -0.2561440 0.0071400 -0.9666123
vn -0.2561440 0.0071400 -0.9666123
vn -0.2561440 0.0071400 -0.9666123
vn -0.2561440 0.0071400 0.9666123
vn -0.2561440 0.0071400 0.9666123
vn -0.2561440 0.0071400 0.9666123
vn -0.1677894 0.9714389 -0.1677894
vn -0.3523606 0.9135411 0.2031861
vn -0.1677894 0.9714389 -0.1677894
vn -0.3523606 0.9135411 0.2031861
vn 0.3862208 -0.9081487 -0.1615529
vn 0.3862208 -0.9081487 -0.1615529
vn 0.2031861 -0.5138278 0.8334845
vn 0.2263601 0.0488882 0.9728160
vn 0.2568978 0.9491239 0.1821189
vn 0.2568978 0.9491239 0.1821189
vn 0.1521700 -0.9704977 -0.1870255
vn 0.1521700 -0.9704977 -0.1870255
vn 0.3002017 -0.1291715 -0.9450892
vn 0.1465409 0.4250418 -0.8932330
vn 0.2568881 0.9518690 0.1671943
vn 0.2568881 0.9518690 0.1671943
vn 0.9884022 -0.1508335 -0.0176146
vn 0.9884022 -0.1508335 -0.0176146
vn 0.9884022 -0.1508335 -0.0176146
vn 0.9663884 0.2506855 0.0570108
vn 0.9663884 0.2506855 0.0570108
vn 0.9663884 0.2506855 0.0570108
vn 0.9223748 -0.3782796 -0.0782897
vn 0.9223748 -0.3782796 -0.0782897
vn 0.9666451 0.2532408 0.0382922
vn 0.9666451 0.2532408 0.0382922
vn 0.9666451 0.2532408 0.0382922
vn 0.2031861 -0.9135411 -0.3523606
vn 0.2263601 -0.9473765 0.2263601
vn 0.2031861 -0.9135411 -0.3523606
vn 0.2263601 -0.9473765 0.2263601
vn 0.1520484 -0.0048672 -0.9883611
vn 0.1520484 -0.0048672 -0.9883611
vn 0.1520484 -0.0048672 -0.9883611
vn 0.1520484 -0.0048672 0.9883611
vn 0.1520484 -0.0048672 0.9883611
vn 0.1520484 -0.0048672 0.9883611
vn 0.1520484 -0.0048672 -0.9883611
vn 0.1520484 -0.0048672 -0.9883611
vn 0.1520484 -0.0048672 -0.9883611
vn 0.1520484 -0.0048672 0.9883611
vn 0.1520484 -0.0048672 0.9883611
vn 0.1520484 -0.0048672 0.9883611
vn 0.3864108 0.0062112 -0.9223059
vn 0.3864108 0.0062112 -0.9223059
vn 0.3864108 0.0062112 -0.9223059
vn 0.3864108 0.0062112 0.9223059
vn 0.3864108 0.0062112 0.9223059
vn 0.3864108 0.0062112 0.9223059
vn 0.3864108 0.0062112 -0.9223059
vn 0.3864108 0.0062112 -0.9223059
vn 0.3864108 0.0062112 -0.9223059
vn 0.3864108 0.0062112 0.9223059
vn 0.3864108 0.0062112 0.9223059
vn 0.3864108 0.0062112 0.9223059
vn 0.2031861 0.9135411 -0.3523606
vn 0.2263601 0.9473765 0.2263601
vn 0.2031861 0.9135411 -0.3523606
vn 0.2263601 0.9473765 0.2263601
vn 0.9229472 -0.0107257 -0.3847771
vn 0.9229472 -0.0107257 -0.3847771
vn 0.9664294 -0.0041294 0.2568990
vn 0.9664294 -0.0041294 0.2568990
vn 0.9229472 -0.0107257 -0.3847771
vn 0.9229472 -0.0107257 -0.3847771
vn 0.9664294 -0.0041294 0.2568990
vn 0.9664294 -0.0041294 0.2568990
vn 0.9884200 0.0084108 -0.1515096
vn 0.9884200 0.0084108 -0.1515096
vn 0.9664050 0.0082234 0.2568925
vn 0.9664050 0.0082234 0.2568925
vn 0.9884200 0.0084108 -0.1515096
vn 0.9884200 0.0084108 -0.1515096
vn 0.9664050 0.0082234 0.2568925
vn 0.9664050 0.0082234 0.2568925
vn -0.9229472 -0.0107257 -0.3847771
vn -0.9229472 -0.0107257 -0.3847771
vn -0.9664294 -0.0041294 0.2568990
vn -0.9664294 -0.0041294 0.2568990
vn -0.9229472 -0.0107257 -0.3847771
vn -0.9229472 -0.0107257 -0.3847771
vn -0.9664294 -0.0041294 0.2568990
vn -0.9664294 -0.0041294 0.2568990
vn -0.9884200 0.0084108 -0.1515096
vn -0.9884200 0.0084108 -0.1515096
vn -0.9664050 0.0082234 0.2568925
vn -0.9664050 0.0082234 0.2568925
vn -0.9884200 0.0084108 -0.1515096
vn -0.9884200 0.0084108 -0.1515096
vn -0.9664050 0.0082234 0.2568925
vn -0.9664050 0.0082234 0.2568925
vn -0.1677894 -0.9714389 -0.1677894
vn -0.3523606 -0.9135411 0.2031861
vn -0.1677894 -0.9714389 -0.1677894
vn -0.3523606 -0.9135411 0.2031861
vn -0.2553849 -0.0141772 -0.9667355
vn -0.2553849 -0.0141772 -0.9667355
vn -0.2553849 -0.0141772 0.9667355
vn -0.2553849 -0.0141772 0.9667355
vn -0.2553849 -0.0141772 -0.9667355
vn -0.2553849 -0.0141772 -0.9667355
vn -0.2553849 -0.0141772 0.9667355
vn -0.2553849 -0.0141772 0.9667355
vn -0.2561440 0.0071400 -0.9666123
vn -0.2561440 0.0071400 -0.9666123
vn -0.2561440 0.0071400 -0.9666123
vn -0.2561440 0.0071400 0.9666123
vn -0.2561440 0.0071400 0.9666123
vn -0.2561440 0.0071400 0.9666123
vn -0.2561440 0.0071400 -0.9666123
vn -0.2561440 0.0071400 -0.9666123
vn -0.2561440 0.0071400 -0.9666123
vn -0.2561440 0.0071400 0.9666123
vn -0.2561440 0.0071400 0.9666123
vn -0.2561440 0.0071400 0.9666123
vn -0.1677894 0.9714389 -0.1677894
vn -0.3523606 0.9135411 0.2031861
vn -0.1677894 0.9714389 -0.1677894
vn -0.3523606 0.9135411 0.2031861
vn -0.9663884 -0.2543874 -0.0371553
vn -0.9663884 -0.2543874 -0.0371553
vn -0.9663884 -0.2543874 -0.0371553
vn -0.9666451 0.2500256 0.0555372
vn -0.9666451 0.2500256 0.0555372
vn -0.9666451 0.2500256 0.0555372
vn -0.9664252 -0.2516157 -0.0520750
vn -0.9664252 -0.2516157 -0.0520750
vn -0.9667757 0.2539008 0.0296511
vn -0.9667757 0.2539008 0.0296511
vn -0.9667757 0.2539008 0.0296511
vn -0.2559692 -0.9518780 -0.1685466
vn -0.2559692 -0.9518780 -0.1685466
vn -0.2541278 -0.3192773 0.9129518
vn -0.2488215 0.0730463 0.9657909
vn -0.2550343 0.9472121 0.1942852
vn -0.2550343 0.9472121 0.1942852
vn -0.2550343 -0.9472121 -0.1942852
vn -0.2550343 -0.9472121 -0.1942852
vn -0.2541278 0.0311604 -0.9666686
vn -0.2488215 0.4161667 -0.8745817
vn -0.2559692 0.9518780 0.1685466
vn -0.2559692 0.9518780 0.1685466
vn 0.2031861 -0.9135411 -0.3523606
vn 0.2263601 -0.9473765 0.2263601
vn 0.2031861 -0.9135411 -0.3523606
vn 0.2263601 -0.9473765 0.2263601
vn 0.1520484 -0.0048672 -0.9883611
vn 0.1520484 -0.0048672 -0.9883611
vn 0.1520484 -0.0048672 -0.9883611
vn 0.1520484 -0.0048672 0.9883611
vn 0.1520484 -0.0048672 0.9883611
vn 0.1520484 -0.0048672 0.9883611
vn 0.1520484 -0.0048672 -0.9883611
vn 0.1520484 -0.0048672 -0.9883611
vn 0.1520484 -0.0048672 -0.9883611
vn 0.1520484 -0.0048672 0.9883611
vn 0.1520484 -0.0048672 0.9883611
vn 0.1520484 -0.0048672 0.9883611
vn 0.3864108 0.0062112 -0.9223059
vn 0.3864108 0.0062112 -0.9223059
vn 0.3864108 0.0062112 -0.9223059
vn 0.3864108 0.0062112 0.9223059
vn 0.3864108 0.0062112 0.9223059
vn 0.3864108 0.0062112 0.9223059
vn 0.3864108 0.0062112 -0.9223059
vn 0.3864108 0.0062112 -0.9223059
vn 0.3864108 0.0062112 -0.9223059
vn 0.3864108 0.0062112 0.9223059
vn 0.3864108 0.0062112 0.9223059
vn 0.3864108 0.0062112 0.9223059
vn 0.2031861 0.9135411 -0.3523606
vn 0.2263601 0.9473765 0.2263601
vn 0.2031861 0.9135411 -0.3523606
vn 0.2263601 0.9473765 0.2263601
vn 0.3862208 -0.9081487 -0.1615529
vn 0.3862208 -0.9081487 -0.1615529
vn 0.2031861 -0.5138278 0.8334845
vn 0.2263601 0.0488882 0.9728160
vn 0.2568978 0.9491239 0.1821189
vn 0.2568978 0.9491239 0.1821189
vn 0.1521700 -0.9704977 -0.1870255
vn 0.1521700 -0.9704977 -0.1870255
vn 0.3002017 -0.1291715 -0.9450892
vn 0.1465409 0.4250418 -0.8932330
vn 0.2568881 0.9518690 0.1671943
vn 0.2568881 0.9518690 0.1671943
vn 0.9884022 -0.1508335 -0.0176146
vn 0.9884022 -0.1508335 -0.0176146
vn 0.9884022 -0.1508335 -0.0176146
vn 0.9663884 0.2506855 0.0570108
vn 0.9663884 0.2506855 0.0570108
vn 0.9663884 0.2506855 0.0570108
vn 0.9223748 -0.3782796 -0.0782897
vn 0.9223748 -0.3782796 -0.0782897
vn 0.9666451 0.2532408 0.0382922
vn 0.9666451 0.2532408 0.0382922
vn 0.9666451 0.2532408 0.0382922
vn 0.9229472 -0.0107257 -0.3847771
vn 0.9229472 -0.0107257 -0.3847771
vn 0.9664294 -0.0041294 0.2568990
vn 0.9664294 -0.0041294 0.2568990
vn 0.9229472 -0.0107257 -0.3847771
vn 0.9229472 -0.0107257 -0.3847771
vn 0.9664294 -0.0041294 0.2568990
vn 0.9664294 -0.0041294 0.2568990
vn 0.9884200 0.0084108 -0.1515096
vn 0.9884200 0.0084108 -0.1515096
vn 0.9664050 0.0082234 0.2568925
vn 0.9664050 0.0082234 0.2568925
vn 0.9884200 0.0084108 -0.1515096
vn 0.9884200 0.0084108 -0.1515096
vn 0.9664050 0.0082234 0.2568925
vn 0.9664050 0.0082234 0.2568925
vn 0.0066176 -0.9714141 -0.2372990
vn 0.0071495 -0.9904337 0.1378041
vn 0.0066176 -0.9714141 -0.2372990
vn 0.0071495 -0.9904337 0.1378041
vn 0.0066176 -0.9714141 -0.2372990
vn 0.0071495 -0.9904337 0.1378041
vn 0.0066176 -0.9714141 -0.2372990
vn 0.0071495 -0.9904337 0.1378041
vn 0.0066176 -0.9714141 -0.2372990
vn 0.0071495 -0.9904337 0.1378041
vn 0.0066176 -0.9714141 -0.2372990
vn 0.0071495 -0.9904337 0.1378041
vn 0.0066176 -0.9714141 -0.2372990
vn 0.0071495 -0.9904337 0.1378041
vn 0.0076663 -0.1515105 -0.9884259
vn 0.0076663 -0.1515105 -0.9884259
vn 0.0074955 -0.2568939 0.9664105
vn 0.0074955 -0.2568939 0.9664105
vn 0.0076663 -0.1515105 -0.9884259
vn 0.0076663 -0.1515105 -0.9884259
vn 0.0074955 -0.2568939 0.9664105
vn 0.0074955 -0.2568939 0.9664105
vn 0.0076663 -0.1515105 -0.9884259
vn 0.0076663 -0.1515105 -0.9884259
vn 0.0074955 -0.2568939 0.9664105
vn 0.0074955 -0.2568939 0.9664105
vn 0.0076663 -0.1515105 -0.9884259
vn 0.0076663 -0.1515105 -0.9884259
vn 0.0074955 -0.2568939 0.9664105
vn 0.0074955 -0.2568939 0.9664105
vn 0.0076663 -0.1515105 -0.9884259
vn 0.0076663 -0.1515105 -0.9884259
vn 0.0074955 -0.2568939 0.9664105
vn 0.0074955 -0.2568939 0.9664105
vn 0.0076663 -0.1515105 -0.9884259
vn 0.0076663 -0.1515105 -0.9884259
vn 0.0074955 -0.2568939 0.9664105
vn 0.0074955 -0.2568939 0.9664105
vn 0.0076663 -0.1515105 -0.9884259
vn 0.0076663 -0.1515105 -0.9884259
vn 0.0074955 -0.2568939 0.9664105
vn 0.0074955 -0.2568939 0.9664105
vn 0.0074955 0.2568939 -0.9664105
vn 0.0074955 0.2568939 -0.9664105
vn 0.0065072 0.2562117 0.9665988
vn 0.0065072 0.2562117 0.9665988
vn 0.0074955 0.2568939 -0.9664105
vn 0.0074955 0.2568939 -0.9664105
vn 0.0065072 0.2562117 0.9665988
vn 0.0065072 0.2562117 0.9665988
vn 0.0074955 0.2568939 -0.9664105
vn 0.0074955 0.2568939 -0.9664105
vn 0.0065072 0.2562117 0.9665988
vn 0.0065072 0.2562117 0.9665988
vn 0.0074955 0.2568939 -0.9664105
vn 0.0074955 0.2568939 -0.9664105
vn 0.0065072 0.2562117 0.9665988
vn 0.0065072 0.2562117 0.9665988
vn 0.0074955 0.2568939 -0.9664105
vn 0.0074955 0.2568939 -0.9664105
vn 0.0065072 0.2562117 0.9665988
vn 0.0065072 0.2562117 0.9665988
vn 0.0074955 0.2568939 -0.9664105
vn 0.0074955 0.2568939 -0.9664105
vn 0.0065072 0.2562117 0.9665988
vn 0.0065072 0.2562117 0.9665988
vn 0.0074955 0.2568939 -0.9664105
vn 0.0074955 0.2568939 -0.9664105
vn 0.0065072 0.2562117 0.9665988
vn 0.0065072 0.2562117 0.9665988
vn 0.0038557 0.9903886 -0.1382594
vn 0.0141964 0.9904212 0.1373474
vn 0.0038557 0.9903886 -0.1382594
vn 0.0141964 0.9904212 0.1373474
vn 0.0038557 0.9903886 -0.1382594
vn 0.0141964 0.9904212 0.1373474
vn 0.0038557 0.9903886 -0.1382594
vn 0.0141964 0.9904212 0.1373474
vn 0.0038557 0.9903886 -0.1382594
vn 0.0141964 0.9904212 0.1373474
vn 0.0038557 0.9903886 -0.1382594
vn 0.0141964 0.9904212 0.1373474
vn 0.0038557 0.9903886 -0.1382594
vn 0.0141964 0.9904212 0.1373474
vn 0.9225700 -0.3713188 -0.1048184
vn 0.9225700 -0.3713188 -0.1048184
vn 0.9791766 -0.1500928 0.1366942
vn 0.9791766 -0.1500928 0.1366942
vn 0.9791766 -0.1500928 0.1366942
vn 0.9225700 -0.3713188 -0.1048184
vn 0.9225700 -0.3713188 -0.1048184
vn 0.9791766 -0.1500928 0.1366942
vn 0.9791766 -0.1500928 0.1366942
vn 0.9791766 -0.1500928 0.1366942
vn 0.9225700 -0.3713188 -0.1048184
vn 0.9225700 -0.3713188 -0.1048184
vn 0.9791766 -0.1500928 0.1366942
vn 0.9791766 -0.1500928 0.1366942
vn 0.9791766 -0.1500928 0.1366942
vn 0.9225700 -0.3713188 -0.1048184
vn 0.9225700 -0.3713188 -0.1048184
vn 0.9791766 -0.1500928 0.1366942
vn 0.9791766 -0.1500928 0.1366942
vn 0.9791766 -0.1500928 0.1366942
vn 0.9225700 -0.3713188 -0.1048184
vn 0.9225700 -0.3713188 -0.1048184
vn 0.9791766 -0.1500928 0.1366942
vn 0.9791766 -0.1500928 0.1366942
vn 0.9791766 -0.1500928 0.1366942
vn 0.9225700 -0.3713188 -0.1048184
vn 0.9225700 -0.3713188 -0.1048184
vn 0.9791766 -0.1500928 0.1366942
vn 0.9791766 -0.1500928 0.1366942
vn 0.9791766 -0.1500928 0.1366942
vn 0.9225700 -0.3713188 -0.1048184
vn 0.9225700 -0.3713188 -0.1048184
vn 0.9791766 -0.1500928 0.1366942
vn 0.9791766 -0.1500928 0.1366942
vn 0.9791766 -0.1500928 0.1366942
vn 0.9628360 0.2425797 -0.1187514
vn 0.9628360 0.2425797 -0.1187514
vn 0.9628360 0.2425797 -0.1187514
vn 0.9577603 0.2545945 0.1337044
vn 0.9577603 0.2545945 0.1337044
vn 0.9577603 0.2545945 0.1337044
vn 0.9628360 0.2425797 -0.1187514
vn 0.9628360 0.2425797 -0.1187514
vn 0.9628360 0.2425797 -0.1187514
vn 0.9577603 0.2545945 0.1337044
vn 0.9577603 0.2545945 0.1337044
vn 0.9577603 0.2545945 0.1337044
vn 0.9628360 0.2425797 -0.1187514
vn 0.9628360 0.2425797 -0.1187514
vn 0.9628360 0.2425797 -0.1187514
vn 0.9577603 0.2545945 0.1337044
vn 0.9577603 0.2545945 0.1337044
vn 0.9577603 0.2545945 0.1337044
vn 0.9628360 0.2425797 -0.1187514
vn 0.9628360 0.2425797 -0.1187514
vn 0.9628360 0.2425797 -0.1187514
vn 0.9577603 0.2545945 0.1337044
vn 0.9577603 0.2545945 0.1337044
vn 0.9577603 0.2545945 0.1337044
vn 0.9628360 0.2425797 -0.1187514
vn 0.9628360 0.2425797 -0.1187514
vn 0.9628360 0.2425797 -0.1187514
vn 0.9577603 0.2545945 0.1337044
vn 0.9577603 0.2545945 0.1337044
vn 0.9577603 0.2545945 0.1337044
vn 0.9628360 0.2425797 -0.1187514
vn 0.9628360 0.2425797 -0.1187514
vn 0.9628360 0.2425797 -0.1187514
vn 0.9577603 0.2545945 0.1337044
vn 0.9577603 0.2545945 0.1337044
vn 0.9577603 0.2545945 0.1337044
vn 0.9628360 0.2425797 -0.1187514
vn 0.9628360 0.2425797 -0.1187514
vn 0.9628360 0.2425797 -0.1187514
vn 0.9577603 0.2545945 0.1337044
vn 0.9577603 0.2545945 0.1337044
vn 0.9577603 0.2545945 0.1337044
vn 0.0035530 -0.9865375 0.1634966
vn 0.0035530 -0.9865375 0.1634966
vn 0.0035530 -0.9865375 0.1634966
vn 0.0035222 -0.3165580 -0.9485666
vn 0.0035222 -0.3165580 -0.9485666
vn 0.0034438 0.0896931 -0.9959635
vn 0.0034438 0.0896931 -0.9959635
vn 0.0017848 0.9845897 -0.1748713
vn 0.0017848 0.9845897 -0.1748713
vn 0.0017848 0.9845897 -0.1748713
vn 0.0035633 -0.9845850 0.1748704
vn 0.0035633 -0.9845850 0.1748704
vn 0.0035633 -0.9845850 0.1748704
vn 0.0025978 -0.2253068 0.9742844
vn 0.0025978 -0.2253068 0.9742844
vn 0.0029877 0.4164048 0.9091744
vn 0.0029877 0.4164048 0.9091744
vn 0.0070808 0.9865173 -0.1635035
vn 0.0070808 0.9865173 -0.1635035
vn 0.0070808 0.9865173 -0.1635035
vn 0.0018532 -0.9220825 -0.3869889
vn 0.0018532 -0.9220825 -0.3869889
vn 0.0018532 -0.9220825 -0.3869889
vn 0.0021316 -0.9664950 0.2566765
vn 0.0021316 -0.9664950 0.2566765
vn 0.0021316 -0.9664950 0.2566765
vn 0.0025424 -0.0152487 -0.9998805
vn 0.0025424 -0.0152487 -0.9998805
vn 0.0012922 -0.0152679 0.9998826
vn 0.0012922 -0.0152679 0.9998826
vn 0.0025415 0.0300293 -0.9995458
vn 0.0025415 0.0300293 -0.9995458
vn 0.0049943 0.0299552 0.9995388
vn 0.0049943 0.0299552 0.9995388
vn 0.0018532 0.9220825 -0.3869889
vn 0.0018532 0.9220825 -0.3869889
vn 0.0018532 0.9220825 -0.3869889
vn 0.0021316 0.9664950 0.2566765
vn 0.0021316 0.9664950 0.2566765
vn 0.0021316 0.9664950 0.2566765
vn 0.9666266 -0.0492742 -0.2514062
vn 0.9663327 -0.0147371 0.2568733
vn 0.9664226 -0.2541382 0.0379615
vn 0.9665616 0.2518735 -0.0481507
vn 0.9668315 0.0252868 -0.2541601
vn 0.9660306 0.0290224 0.2567929
vn 0.9665616 -0.2518735 0.0481507
vn 0.9664226 0.2541382 -0.0379615
o 29_Puesto_Sencillo_Cloth
usemtl Cloth
s 1
f 29/29/29 3/3/3 31/31/31
f 43/43/43 45/45/45 8/8/8
f 688/688/688 650/650/650 653/653/653
f 33/33/33 4/4/4 36/36/36
f 660/660/660 692/692/692 662/662/662
f 655/655/655 691/691/691 658/658/658
f 38/38/38 41/41/41 7/7/7
f 645/645/645 648/648/648 687/687/687
f 4/4/4 3/3/3 7/7/7
f 4/4/4 7/7/7 8/8/8
f 46/46/46 664/664/664 652/652/652
f 46/46/46 652/652/652 35/35/35
f 45/45/45 4/4/4 8/8/8
f 45/45/45 36/36/36 4/4/4
f 43/43/43 8/8/8 7/7/7
f 43/43/43 7/7/7 41/41/41
f 688/688/688 648/648/648 650/650/650
f 688/688/688 687/687/687 648/648/648
f 688/688/688 653/653/653 662/662/662
f 688/688/688 662/662/662 692/692/692
f 34/34/34 36/36/36 654/654/654
f 34/34/34 654/654/654 651/651/651
f 34/34/34 651/651/651 649/649/649
f 34/34/34 649/649/649 32/32/32
f 33/33/33 3/3/3 4/4/4
f 33/33/33 31/31/31 3/3/3
f 691/691/691 687/687/687 688/688/688
f 691/691/691 688/688/688 692/692/692
f 660/660/660 691/691/691 692/692/692
f 660/660/660 658/658/658 691/691/691
f 661/661/661 663/663/663 44/44/44
f 661/661/661 44/44/44 42/42/42
f 661/661/661 42/42/42 40/40/40
f 661/661/661 40/40/40 659/659/659
f 38/38/38 7/7/7 3/3/3
f 38/38/38 3/3/3 29/29/29
f 37/37/37 659/659/659 40/40/40
f 37/37/37 656/656/656 659/659/659
f 645/645/645 687/687/687 691/691/691
f 645/645/645 691/691/691 655/655/655
f 646/646/646 32/32/32 649/649/649
f 646/646/646 29/29/29 32/32/32
f 647/647/647 39/39/39 30/30/30
f 647/647/647 657/657/657 39/39/39
f 10/10/10 1/1/1 15/15/15
f 682/682/682 677/677/677 690/690/690
f 21/21/21 27/27/27 6/6/6
f 689/689/689 675/675/675 679/679/679
f 19/19/19 5/5/5 24/24/24
f 13/13/13 18/18/18 2/2/2
f 666/666/666 671/671/671 685/685/685
f 669/669/669 686/686/686 674/674/674
f 5/5/5 1/1/1 2/2/2
f 5/5/5 2/2/2 6/6/6
f 27/27/27 5/5/5 6/6/6
f 27/27/27 24/24/24 5/5/5
f 683/683/683 23/23/23 26/26/26
f 683/683/683 680/680/680 23/23/23
f 21/21/21 6/6/6 2/2/2
f 21/21/21 2/2/2 18/18/18
f 22/22/22 17/17/17 673/673/673
f 22/22/22 673/673/673 678/678/678
f 22/22/22 684/684/684 28/28/28
f 22/22/22 678/678/678 684/684/684
f 686/686/686 677/677/677 674/674/674
f 686/686/686 690/690/690 677/677/677
f 689/689/689 690/690/690 686/686/686
f 689/689/689 686/686/686 685/685/685
f 689/689/689 685/685/685 671/671/671
f 689/689/689 671/671/671 675/675/675
f 689/689/689 679/679/679 682/682/682
f 689/689/689 682/682/682 690/690/690
f 20/20/20 25/25/25 681/681/681
f 20/20/20 681/681/681 676/676/676
f 20/20/20 676/676/676 672/672/672
f 20/20/20 672/672/672 16/16/16
f 19/19/19 1/1/1 5/5/5
f 19/19/19 15/15/15 1/1/1
f 13/13/13 2/2/2 1/1/1
f 13/13/13 1/1/1 10/10/10
f 665/665/665 16/16/16 672/672/672
f 665/665/665 9/9/9 16/16/16
f 669/669/669 685/685/685 686/686/686
f 669/669/669 666/666/666 685/685/685
f 668/668/668 673/673/673 17/17/17
f 668/668/668 17/17/17 12/12/12
f 670/670/670 14/14/14 11/11/11
f 670/670/670 11/11/11 667/667/667
o 29_Puesto_Sencillo_Wood
usemtl Wood
s 1
f 247/247/247 208/208/208 251/251/251
f 263/263/263 272/272/272 218/218/218
f 314/314/314 326/326/326 338/338/338
f 327/327/327 318/318/318 340/340/340
f 248/248/248 254/254/254 210/210/210
f 259/259/259 216/216/216 271/271/271
f 298/298/298 303/303/303 331/331/331
f 299/299/299 333/333/333 307/307/307
f 217/217/217 209/209/209 211/211/211
f 217/217/217 211/211/211 219/219/219
f 272/272/272 216/216/216 218/218/218
f 272/272/272 271/271/271 216/216/216
f 332/332/332 339/339/339 341/341/341
f 332/332/332 330/330/330 339/339/339
f 319/319/319 306/306/306 332/332/332
f 319/319/319 332/332/332 341/341/341
f 264/264/264 219/219/219 211/211/211
f 264/264/264 211/211/211 254/254/254
f 262/262/262 305/305/305 317/317/317
f 262/262/262 253/253/253 305/305/305
f 315/315/315 339/339/339 330/330/330
f 315/315/315 330/330/330 302/302/302
f 327/327/327 263/263/263 318/318/318
f 327/327/327 272/272/272 263/263/263
f 327/327/327 271/271/271 272/272/272
f 327/327/327 326/326/326 271/271/271
f 327/327/327 340/340/340 338/338/338
f 327/327/327 338/338/338 326/326/326
f 248/248/248 210/210/210 208/208/208
f 248/248/248 208/208/208 247/247/247
f 259/259/259 271/271/271 326/326/326
f 259/259/259 326/326/326 314/314/314
f 260/260/260 209/209/209 217/217/217
f 260/260/260 251/251/251 209/209/209
f 261/261/261 316/316/316 304/304/304
f 261/261/261 304/304/304 252/252/252
f 298/298/298 251/251/251 303/303/303
f 298/298/298 247/247/247 251/251/251
f 299/299/299 307/307/307 254/254/254
f 299/299/299 254/254/254 248/248/248
f 299/299/299 248/248/248 247/247/247
f 299/299/299 247/247/247 298/298/298
f 299/299/299 331/331/331 333/333/333
f 299/299/299 298/298/298 331/331/331
f 249/249/249 212/212/212 255/255/255
f 269/269/269 274/274/274 222/222/222
f 320/320/320 328/328/328 342/342/342
f 329/329/329 324/324/324 344/344/344
f 250/250/250 258/258/258 214/214/214
f 265/265/265 220/220/220 273/273/273
f 300/300/300 309/309/309 335/335/335
f 301/301/301 337/337/337 313/313/313
f 221/221/221 213/213/213 215/215/215
f 221/221/221 215/215/215 223/223/223
f 274/274/274 220/220/220 222/222/222
f 274/274/274 273/273/273 220/220/220
f 336/336/336 343/343/343 345/345/345
f 336/336/336 334/334/334 343/343/343
f 325/325/325 312/312/312 336/336/336
f 325/325/325 336/336/336 345/345/345
f 270/270/270 223/223/223 215/215/215
f 270/270/270 215/215/215 258/258/258
f 268/268/268 311/311/311 323/323/323
f 268/268/268 257/257/257 311/311/311
f 321/321/321 343/343/343 334/334/334
f 321/321/321 334/334/334 308/308/308
f 329/329/329 269/269/269 324/324/324
f 329/329/329 274/274/274 269/269/269
f 329/329/329 273/273/273 274/274/274
f 329/329/329 328/328/328 273/273/273
f 329/329/329 344/344/344 342/342/342
f 329/329/329 342/342/342 328/328/328
f 250/250/250 214/214/214 212/212/212
f 250/250/250 212/212/212 249/249/249
f 265/265/265 273/273/273 328/328/328
f 265/265/265 328/328/328 320/320/320
f 266/266/266 213/213/213 221/221/221
f 266/266/266 255/255/255 213/213/213
f 267/267/267 322/322/322 310/310/310
f 267/267/267 310/310/310 256/256/256
f 300/300/300 255/255/255 309/309/309
f 300/300/300 249/249/249 255/255/255
f 301/301/301 313/313/313 258/258/258
f 301/301/301 258/258/258 250/250/250
f 301/301/301 250/250/250 249/249/249
f 301/301/301 249/249/249 300/300/300
f 301/301/301 335/335/335 337/337/337
f 301/301/301 300/300/300 335/335/335
f 362/362/362 346/346/346 366/366/366
f 378/378/378 387/387/387 356/356/356
f 429/429/429 441/441/441 476/476/476
f 442/442/442 433/433/433 478/478/478
f 363/363/363 369/369/369 348/348/348
f 374/374/374 354/354/354 386/386/386
f 413/413/413 418/418/418 469/469/469
f 414/414/414 471/471/471 422/422/422
f 355/355/355 347/347/347 349/349/349
f 355/355/355 349/349/349 357/357/357
f 387/387/387 354/354/354 356/356/356
f 387/387/387 386/386/386 354/354/354
f 470/470/470 477/477/477 479/479/479
f 470/470/470 468/468/468 477/477/477
f 434/434/434 421/421/421 470/470/470
f 434/434/434 470/470/470 479/479/479
f 379/379/379 357/357/357 349/349/349
f 379/379/379 349/349/349 369/369/369
f 377/377/377 420/420/420 432/432/432
f 377/377/377 368/368/368 420/420/420
f 430/430/430 477/477/477 468/468/468
f 430/430/430 468/468/468 417/417/417
f 442/442/442 378/378/378 433/433/433
f 442/442/442 387/387/387 378/378/378
f 442/442/442 386/386/386 387/387/387
f 442/442/442 441/441/441 386/386/386
f 442/442/442 478/478/478 476/476/476
f 442/442/442 476/476/476 441/441/441
f 363/363/363 348/348/348 346/346/346
f 363/363/363 346/346/346 362/362/362
f 374/374/374 386/386/386 441/441/441
f 374/374/374 441/441/441 429/429/429
f 375/375/375 347/347/347 355/355/355
f 375/375/375 366/366/366 347/347/347
f 376/376/376 431/431/431 419/419/419
f 376/376/376 419/419/419 367/367/367
f 413/413/413 366/366/366 418/418/418
f 413/413/413 362/362/362 366/366/366
f 414/414/414 422/422/422 369/369/369
f 414/414/414 369/369/369 363/363/363
f 414/414/414 363/363/363 362/362/362
f 414/414/414 362/362/362 413/413/413
f 414/414/414 469/469/469 471/471/471
f 414/414/414 413/413/413 469/469/469
f 364/364/364 350/350/350 370/370/370
f 384/384/384 389/389/389 360/360/360
f 435/435/435 443/443/443 480/480/480
f 444/444/444 439/439/439 482/482/482
f 365/365/365 373/373/373 352/352/352
f 380/380/380 358/358/358 388/388/388
f 415/415/415 424/424/424 473/473/473
f 416/416/416 475/475/475 428/428/428
f 359/359/359 351/351/351 353/353/353
f 359/359/359 353/353/353 361/361/361
f 389/389/389 358/358/358 360/360/360
f 389/389/389 388/388/388 358/358/358
f 474/474/474 481/481/481 483/483/483
f 474/474/474 472/472/472 481/481/481
f 440/440/440 427/427/427 474/474/474
f 440/440/440 474/474/474 483/483/483
f 385/385/385 361/361/361 353/353/353
f 385/385/385 353/353/353 373/373/373
f 383/383/383 426/426/426 438/438/438
f 383/383/383 372/372/372 426/426/426
f 436/436/436 481/481/481 472/472/472
f 436/436/436 472/472/472 423/423/423
f 444/444/444 384/384/384 439/439/439
f 444/444/444 389/389/389 384/384/384
f 444/444/444 388/388/388 389/389/389
f 444/444/444 443/443/443 388/388/388
f 444/444/444 482/482/482 480/480/480
f 444/444/444 480/480/480 443/443/443
f 365/365/365 352/352/352 350/350/350
f 365/365/365 350/350/350 364/364/364
f 380/380/380 388/388/388 443/443/443
f 380/380/380 443/443/443 435/435/435
f 381/381/381 351/351/351 359/359/359
f 381/381/381 370/370/370 351/351/351
f 382/382/382 437/437/437 425/425/425
f 382/382/382 425/425/425 371/371/371
f 415/415/415 370/370/370 424/424/424
f 415/415/415 364/364/364 370/370/370
f 416/416/416 428/428/428 373/373/373
f 416/416/416 373/373/373 365/365/365
f 416/416/416 365/365/365 364/364/364
f 416/416/416 364/364/364 415/415/415
f 416/416/416 473/473/473 475/475/475
f 416/416/416 415/415/415 473/473/473
f 124/124/124 47/47/47 138/138/138
f 169/169/169 195/195/195 87/87/87
f 603/603/603 526/526/526 554/554/554
f 166/166/166 82/82/82 194/194/194
f 529/529/529 608/608/608 555/555/555
f 125/125/125 141/141/141 51/51/51
f 484/484/484 498/498/498 569/569/569
f 485/485/485 572/572/572 501/501/501
f 84/84/84 48/48/48 50/50/50
f 84/84/84 50/50/50 86/86/86
f 195/195/195 555/555/555 554/554/554
f 195/195/195 554/554/554 194/194/194
f 195/195/195 82/82/82 87/87/87
f 195/195/195 194/194/194 82/82/82
f 168/168/168 85/85/85 49/49/49
f 168/168/168 49/49/49 140/140/140
f 605/605/605 499/499/499 527/527/527
f 605/605/605 569/569/569 499/499/499
f 603/603/603 554/554/554 555/555/555
f 603/603/603 555/555/555 608/608/608
f 166/166/166 194/194/194 554/554/554
f 166/166/166 554/554/554 526/526/526
f 167/167/167 527/527/527 499/499/499
f 167/167/167 499/499/499 139/139/139
f 167/167/167 47/47/47 83/83/83
f 167/167/167 139/139/139 47/47/47
f 570/570/570 568/568/568 604/604/604
f 570/570/570 604/604/604 606/606/606
f 528/528/528 571/571/571 607/607/607
f 528/528/528 500/500/500 571/571/571
f 529/529/529 555/555/555 195/195/195
f 529/529/529 195/195/195 169/169/169
f 528/528/528 168/168/168 140/140/140
f 528/528/528 140/140/140 500/500/500
f 125/125/125 51/51/51 47/47/47
f 125/125/125 47/47/47 124/124/124
f 484/484/484 138/138/138 498/498/498
f 484/484/484 124/124/124 138/138/138
f 485/485/485 569/569/569 572/572/572
f 485/485/485 484/484/484 569/569/569
f 485/485/485 501/501/501 141/141/141
f 485/485/485 141/141/141 125/125/125
f 485/485/485 125/125/125 124/124/124
f 485/485/485 124/124/124 484/484/484
f 126/126/126 52/52/52 142/142/142
f 173/173/173 197/197/197 93/93/93
f 609/609/609 530/530/530 556/556/556
f 170/170/170 88/88/88 196/196/196
f 533/533/533 614/614/614 557/557/557
f 127/127/127 145/145/145 56/56/56
f 486/486/486 502/502/502 574/574/574
f 487/487/487 577/577/577 505/505/505
f 90/90/90 53/53/53 55/55/55
f 90/90/90 55/55/55 92/92/92
f 197/197/197 557/557/557 556/556/556
f 197/197/197 556/556/556 196/196/196
f 197/197/197 88/88/88 93/93/93
f 197/197/197 196/196/196 88/88/88
f 172/172/172 91/91/91 54/54/54
f 172/172/172 54/54/54 144/144/144
f 611/611/611 503/503/503 531/531/531
f 611/611/611 574/574/574 503/503/503
f 609/609/609 556/556/556 557/557/557
f 609/609/609 557/557/557 614/614/614
f 170/170/170 196/196/196 556/556/556
f 170/170/170 556/556/556 530/530/530
f 171/171/171 531/531/531 503/503/503
f 171/171/171 503/503/503 143/143/143
f 171/171/171 52/52/52 89/89/89
f 171/171/171 143/143/143 52/52/52
f 575/575/575 573/573/573 610/610/610
f 575/575/575 610/610/610 612/612/612
f 532/532/532 576/576/576 613/613/613
f 532/532/532 504/504/504 576/576/576
f 533/533/533 557/557/557 197/197/197
f 533/533/533 197/197/197 173/173/173
f 532/532/532 172/172/172 144/144/144
f 532/532/532 144/144/144 504/504/504
f 127/127/127 56/56/56 52/52/52
f 127/127/127 52/52/52 126/126/126
f 486/486/486 142/142/142 502/502/502
f 486/486/486 126/126/126 142/142/142
f 487/487/487 574/574/574 577/577/577
f 487/487/487 486/486/486 574/574/574
f 487/487/487 505/505/505 145/145/145
f 487/487/487 145/145/145 127/127/127
f 487/487/487 127/127/127 126/126/126
f 487/487/487 126/126/126 486/486/486
f 128/128/128 57/57/57 146/146/146
f 177/177/177 199/199/199 99/99/99
f 615/615/615 534/534/534 558/558/558
f 174/174/174 94/94/94 198/198/198
f 537/537/537 620/620/620 559/559/559
f 129/129/129 149/149/149 61/61/61
f 488/488/488 506/506/506 579/579/579
f 489/489/489 582/582/582 509/509/509
f 96/96/96 58/58/58 60/60/60
f 96/96/96 60/60/60 98/98/98
f 199/199/199 559/559/559 558/558/558
f 199/199/199 558/558/558 198/198/198
f 199/199/199 94/94/94 99/99/99
f 199/199/199 198/198/198 94/94/94
f 176/176/176 97/97/97 59/59/59
f 176/176/176 59/59/59 148/148/148
f 617/617/617 507/507/507 535/535/535
f 617/617/617 579/579/579 507/507/507
f 615/615/615 558/558/558 559/559/559
f 615/615/615 559/559/559 620/620/620
f 174/174/174 198/198/198 558/558/558
f 174/174/174 558/558/558 534/534/534
f 175/175/175 535/535/535 507/507/507
f 175/175/175 507/507/507 147/147/147
f 175/175/175 57/57/57 95/95/95
f 175/175/175 147/147/147 57/57/57
f 580/580/580 578/578/578 616/616/616
f 580/580/580 616/616/616 618/618/618
f 536/536/536 581/581/581 619/619/619
f 536/536/536 508/508/508 581/581/581
f 537/537/537 559/559/559 199/199/199
f 537/537/537 199/199/199 177/177/177
f 536/536/536 176/176/176 148/148/148
f 536/536/536 148/148/148 508/508/508
f 129/129/129 61/61/61 57/57/57
f 129/129/129 57/57/57 128/128/128
f 488/488/488 146/146/146 506/506/506
f 488/488/488 128/128/128 146/146/146
f 489/489/489 579/579/579 582/582/582
f 489/489/489 488/488/488 579/579/579
f 489/489/489 509/509/509 149/149/149
f 489/489/489 149/149/149 129/129/129
f 489/489/489 129/129/129 128/128/128
f 489/489/489 128/128/128 488/488/488
f 130/130/130 62/62/62 150/150/150
f 181/181/181 201/201/201 105/105/105
f 621/621/621 538/538/538 560/560/560
f 178/178/178 100/100/100 200/200/200
f 541/541/541 626/626/626 561/561/561
f 131/131/131 153/153/153 66/66/66
f 490/490/490 510/510/510 584/584/584
f 491/491/491 587/587/587 513/513/513
f 102/102/102 63/63/63 65/65/65
f 102/102/102 65/65/65 104/104/104
f 201/201/201 561/561/561 560/560/560
f 201/201/201 560/560/560 200/200/200
f 201/201/201 100/100/100 105/105/105
f 201/201/201 200/200/200 100/100/100
f 180/180/180 103/103/103 64/64/64
f 180/180/180 64/64/64 152/152/152
f 623/623/623 511/511/511 539/539/539
f 623/623/623 584/584/584 511/511/511
f 621/621/621 560/560/560 561/561/561
f 621/621/621 561/561/561 626/626/626
f 178/178/178 200/200/200 560/560/560
f 178/178/178 560/560/560 538/538/538
f 179/179/179 539/539/539 511/511/511
f 179/179/179 511/511/511 151/151/151
f 179/179/179 62/62/62 101/101/101
f 179/179/179 151/151/151 62/62/62
f 585/585/585 583/583/583 622/622/622
f 585/585/585 622/622/622 624/624/624
f 540/540/540 586/586/586 625/625/625
f 540/540/540 512/512/512 586/586/586
f 541/541/541 561/561/561 201/201/201
f 541/541/541 201/201/201 181/181/181
f 540/540/540 180/180/180 152/152/152
f 540/540/540 152/152/152 512/512/512
f 131/131/131 66/66/66 62/62/62
f 131/131/131 62/62/62 130/130/130
f 490/490/490 150/150/150 510/510/510
f 490/490/490 130/130/130 150/150/150
f 491/491/491 584/584/584 587/587/587
f 491/491/491 490/490/490 584/584/584
f 491/491/491 513/513/513 153/153/153
f 491/491/491 153/153/153 131/131/131
f 491/491/491 131/131/131 130/130/130
f 491/491/491 130/130/130 490/490/490
f 132/132/132 67/67/67 154/154/154
f 185/185/185 203/203/203 111/111/111
f 627/627/627 542/542/542 562/562/562
f 182/182/182 106/106/106 202/202/202
f 545/545/545 632/632/632 563/563/563
f 133/133/133 157/157/157 71/71/71
f 492/492/492 514/514/514 589/589/589
f 493/493/493 592/592/592 517/517/517
f 108/108/108 68/68/68 70/70/70
f 108/108/108 70/70/70 110/110/110
f 203/203/203 563/563/563 562/562/562
f 203/203/203 562/562/562 202/202/202
f 203/203/203 106/106/106 111/111/111
f 203/203/203 202/202/202 106/106/106
f 184/184/184 109/109/109 69/69/69
f 184/184/184 69/69/69 156/156/156
f 629/629/629 515/515/515 543/543/543
f 629/629/629 589/589/589 515/515/515
f 627/627/627 562/562/562 563/563/563
f 627/627/627 563/563/563 632/632/632
f 182/182/182 202/202/202 562/562/562
f 182/182/182 562/562/562 542/542/542
f 183/183/183 543/543/543 515/515/515
f 183/183/183 515/515/515 155/155/155
f 183/183/183 67/67/67 107/107/107
f 183/183/183 155/155/155 67/67/67
f 590/590/590 588/588/588 628/628/628
f 590/590/590 628/628/628 630/630/630
f 544/544/544 591/591/591 631/631/631
f 544/544/544 516/516/516 591/591/591
f 545/545/545 563/563/563 203/203/203
f 545/545/545 203/203/203 185/185/185
f 544/544/544 184/184/184 156/156/156
f 544/544/544 156/156/156 516/516/516
f 133/133/133 71/71/71 67/67/67
f 133/133/133 67/67/67 132/132/132
f 492/492/492 154/154/154 514/514/514
f 492/492/492 132/132/132 154/154/154
f 493/493/493 589/589/589 592/592/592
f 493/493/493 492/492/492 589/589/589
f 493/493/493 517/517/517 157/157/157
f 493/493/493 157/157/157 133/133/133
f 493/493/493 133/133/133 132/132/132
f 493/493/493 132/132/132 492/492/492
f 134/134/134 72/72/72 158/158/158
f 189/189/189 205/205/205 117/117/117
f 633/633/633 546/546/546 564/564/564
f 186/186/186 112/112/112 204/204/204
f 549/549/549 638/638/638 565/565/565
f 135/135/135 161/161/161 76/76/76
f 494/494/494 518/518/518 594/594/594
f 495/495/495 597/597/597 521/521/521
f 114/114/114 73/73/73 75/75/75
f 114/114/114 75/75/75 116/116/116
f 205/205/205 565/565/565 564/564/564
f 205/205/205 564/564/564 204/204/204
f 205/205/205 112/112/112 117/117/117
f 205/205/205 204/204/204 112/112/112
f 188/188/188 115/115/115 74/74/74
f 188/188/188 74/74/74 160/160/160
f 635/635/635 519/519/519 547/547/547
f 635/635/635 594/594/594 519/519/519
f 633/633/633 564/564/564 565/565/565
f 633/633/633 565/565/565 638/638/638
f 186/186/186 204/204/204 564/564/564
f 186/186/186 564/564/564 546/546/546
f 187/187/187 547/547/547 519/519/519
f 187/187/187 519/519/519 159/159/159
f 187/187/187 72/72/72 113/113/113
f 187/187/187 159/159/159 72/72/72
f 595/595/595 593/593/593 634/634/634
f 595/595/595 634/634/634 636/636/636
f 548/548/548 596/596/596 637/637/637
f 548/548/548 520/520/520 596/596/596
f 549/549/549 565/565/565 205/205/205
f 549/549/549 205/205/205 189/189/189
f 548/548/548 188/188/188 160/160/160
f 548/548/548 160/160/160 520/520/520
f 135/135/135 76/76/76 72/72/72
f 135/135/135 72/72/72 134/134/134
f 494/494/494 158/158/158 518/518/518
f 494/494/494 134/134/134 158/158/158
f 495/495/495 594/594/594 597/597/597
f 495/495/495 494/494/494 594/594/594
f 495/495/495 521/521/521 161/161/161
f 495/495/495 161/161/161 135/135/135
f 495/495/495 135/135/135 134/134/134
f 495/495/495 134/134/134 494/494/494
f 136/136/136 77/77/77 162/162/162
f 193/193/193 207/207/207 123/123/123
f 639/639/639 550/550/550 566/566/566
f 190/190/190 118/118/118 206/206/206
f 553/553/553 644/644/644 567/567/567
f 137/137/137 165/165/165 81/81/81
f 496/496/496 522/522/522 599/599/599
f 497/497/497 602/602/602 525/525/525
f 120/120/120 78/78/78 80/80/80
f 120/120/120 80/80/80 122/122/122
f 207/207/207 567/567/567 566/566/566
f 207/207/207 566/566/566 206/206/206
f 207/207/207 118/118/118 123/123/123
f 207/207/207 206/206/206 118/118/118
f 192/192/192 121/121/121 79/79/79
f 192/192/192 79/79/79 164/164/164
f 641/641/641 523/523/523 551/551/551
f 641/641/641 599/599/599 523/523/523
f 639/639/639 566/566/566 567/567/567
f 639/639/639 567/567/567 644/644/644
f 190/190/190 206/206/206 566/566/566
f 190/190/190 566/566/566 550/550/550
f 191/191/191 551/551/551 523/523/523
f 191/191/191 523/523/523 163/163/163
f 191/191/191 77/77/77 119/119/119
f 191/191/191 163/163/163 77/77/77
f 600/600/600 598/598/598 640/640/640
f 600/600/600 640/640/640 642/642/642
f 552/552/552 601/601/601 643/643/643
f 552/552/552 524/524/524 601/601/601
f 553/553/553 567/567/567 207/207/207
f 553/553/553 207/207/207 193/193/193
f 552/552/552 192/192/192 164/164/164
f 552/552/552 164/164/164 524/524/524
f 137/137/137 81/81/81 77/77/77
f 137/137/137 77/77/77 136/136/136
f 496/496/496 162/162/162 522/522/522
f 496/496/496 136/136/136 162/162/162
f 497/497/497 599/599/599 602/602/602
f 497/497/497 496/496/496 599/599/599
f 497/497/497 525/525/525 165/165/165
f 497/497/497 165/165/165 137/137/137
f 497/497/497 137/137/137 136/136/136
f 497/497/497 136/136/136 496/496/496
f 281/281/281 283/283/283 293/293/293
f 234/234/234 246/246/246 244/244/244
f 296/296/296 284/284/284 286/286/286
f 228/228/228 238/238/238 239/239/239
f 278/278/278 290/290/290 279/279/279
f 241/241/241 231/231/231 243/243/243
f 275/275/275 287/287/287 277/277/277
f 235/235/235 237/237/237 225/225/225
f 284/284/284 283/283/283 243/243/243
f 284/284/284 243/243/243 244/244/244
f 245/245/245 240/240/240 280/280/280
f 245/245/245 280/280/280 285/285/285
f 246/246/246 284/284/284 244/244/244
f 246/246/246 286/286/286 284/284/284
f 234/234/234 244/244/244 243/243/243
f 234/234/234 243/243/243 231/231/231
f 295/295/295 285/285/285 280/280/280
f 295/295/295 280/280/280 291/291/291
f 297/297/297 289/289/289 294/294/294
f 297/297/297 292/292/292 289/289/289
f 296/296/296 283/283/283 284/284/284
f 296/296/296 293/293/293 283/283/283
f 228/228/228 237/237/237 238/238/238
f 228/228/228 225/225/225 237/237/237
f 229/229/229 240/240/240 245/245/245
f 229/229/229 245/245/245 233/233/233
f 227/227/227 232/232/232 230/230/230
f 227/227/227 230/230/230 224/224/224
f 278/278/278 287/287/287 290/290/290
f 278/278/278 277/277/277 287/287/287
f 278/278/278 279/279/279 239/239/239
f 278/278/278 239/239/239 238/238/238
f 278/278/278 238/238/238 237/237/237
f 278/278/278 237/237/237 277/277/277
f 241/241/241 243/243/243 283/283/283
f 241/241/241 283/283/283 281/281/281
f 276/276/276 293/293/293 288/288/288
f 276/276/276 282/282/282 293/293/293
f 235/235/235 277/277/277 237/237/237
f 235/235/235 275/275/275 277/277/277
f 236/236/236 226/226/226 231/231/231
f 236/236/236 231/231/231 242/242/242
f 236/236/236 242/242/242 282/282/282
f 236/236/236 282/282/282 276/276/276
f 451/451/451 453/453/453 463/463/463
f 400/400/400 412/412/412 410/410/410
f 466/466/466 454/454/454 456/456/456
f 394/394/394 404/404/404 405/405/405
f 448/448/448 460/460/460 449/449/449
f 407/407/407 397/397/397 409/409/409
f 445/445/445 457/457/457 447/447/447
f 401/401/401 403/403/403 391/391/391
f 454/454/454 453/453/453 409/409/409
f 454/454/454 409/409/409 410/410/410
f 411/411/411 406/406/406 450/450/450
f 411/411/411 450/450/450 455/455/455
f 412/412/412 454/454/454 410/410/410
f 412/412/412 456/456/456 454/454/454
f 400/400/400 410/410/410 409/409/409
f 400/400/400 409/409/409 397/397/397
f 465/465/465 455/455/455 450/450/450
f 465/465/465 450/450/450 461/461/461
f 467/467/467 459/459/459 464/464/464
f 467/467/467 462/462/462 459/459/459
f 466/466/466 453/453/453 454/454/454
f 466/466/466 463/463/463 453/453/453
f 394/394/394 403/403/403 404/404/404
f 394/394/394 391/391/391 403/403/403
f 395/395/395 406/406/406 411/411/411
f 395/395/395 411/411/411 399/399/399
f 393/393/393 398/398/398 396/396/396
f 393/393/393 396/396/396 390/390/390
f 448/448/448 457/457/457 460/460/460
f 448/448/448 447/447/447 457/457/457
f 448/448/448 449/449/449 405/405/405
f 448/448/448 405/405/405 404/404/404
f 448/448/448 404/404/404 403/403/403
f 448/448/448 403/403/403 447/447/447
f 407/407/407 409/409/409 453/453/453
f 407/407/407 453/453/453 451/451/451
f 446/446/446 463/463/463 458/458/458
f 446/446/446 452/452/452 463/463/463
f 401/401/401 447/447/447 403/403/403
f 401/401/401 445/445/445 447/447/447
f 402/402/402 392/392/392 397/397/397
f 402/402/402 397/397/397 408/408/408
f 402/402/402 408/408/408 452/452/452
f 402/402/402 452/452/452 446/446/446
