# metres; Y up; ground-centred pivot
mtllib 30_Jardinera.mtl
v -0.6250000 0.0997000 -0.2553000
v -0.6250000 0.0997000 -0.2553000
v -0.6250000 0.0997000 0.2553000
v -0.6250000 0.0997000 0.2553000
v -0.6250000 0.2003000 -0.2553000
v -0.6250000 0.2003000 -0.2553000
v -0.6250000 0.2003000 0.2553000
v -0.6250000 0.2003000 0.2553000
v -0.6250000 0.2497000 -0.2553000
v -0.6250000 0.2497000 -0.2553000
v -0.6250000 0.2497000 0.2553000
v -0.6250000 0.2497000 0.2553000
v -0.6250000 0.3503000 -0.2553000
v -0.6250000 0.3503000 -0.2553000
v -0.6250000 0.3503000 0.2553000
v -0.6250000 0.3503000 0.2553000
v -0.6250000 0.3997000 -0.2553000
v -0.6250000 0.3997000 -0.2553000
v -0.6250000 0.3997000 0.2553000
v -0.6250000 0.3997000 0.2553000
v -0.6250000 0.5003000 -0.2553000
v -0.6250000 0.5003000 -0.2553000
v -0.6250000 0.5003000 0.2553000
v -0.6250000 0.5003000 0.2553000
v -0.6200000 0.0997000 -0.2903000
v -0.6200000 0.0997000 -0.2903000
v -0.6200000 0.0997000 -0.2497000
v -0.6200000 0.0997000 -0.2497000
v -0.6200000 0.0997000 -0.2497000
v -0.6200000 0.0997000 0.2497000
v -0.6200000 0.0997000 0.2497000
v -0.6200000 0.0997000 0.2903000
v -0.6200000 0.0997000 0.2903000
v -0.6200000 0.0997000 0.2903000
v -0.6200000 0.2003000 -0.2903000
v -0.6200000 0.2003000 -0.2903000
v -0.6200000 0.2003000 -0.2903000
v -0.6200000 0.2003000 -0.2497000
v -0.6200000 0.2003000 -0.2497000
v -0.6200000 0.2003000 -0.2497000
v -0.6200000 0.2003000 0.2497000
v -0.6200000 0.2003000 0.2497000
v -0.6200000 0.2003000 0.2497000
v -0.6200000 0.2003000 0.2903000
v -0.6200000 0.2003000 0.2903000
v -0.6200000 0.2003000 0.2903000
v -0.6200000 0.2497000 -0.2903000
v -0.6200000 0.2497000 -0.2903000
v -0.6200000 0.2497000 -0.2497000
v -0.6200000 0.2497000 -0.2497000
v -0.6200000 0.2497000 -0.2497000
v -0.6200000 0.2497000 0.2497000
v -0.6200000 0.2497000 0.2497000
v -0.6200000 0.2497000 0.2903000
v -0.6200000 0.2497000 0.2903000
v -0.6200000 0.2497000 0.2903000
v -0.6200000 0.3503000 -0.2903000
v -0.6200000 0.3503000 -0.2903000
v -0.6200000 0.3503000 -0.2903000
v -0.6200000 0.3503000 -0.2497000
v -0.6200000 0.3503000 -0.2497000
v -0.6200000 0.3503000 -0.2497000
v -0.6200000 0.3503000 0.2497000
v -0.6200000 0.3503000 0.2497000
v -0.6200000 0.3503000 0.2497000
v -0.6200000 0.3503000 0.2903000
v -0.6200000 0.3503000 0.2903000
v -0.6200000 0.3503000 0.2903000
v -0.6200000 0.3997000 -0.2903000
v -0.6200000 0.3997000 -0.2903000
v -0.6200000 0.3997000 -0.2497000
v -0.6200000 0.3997000 -0.2497000
v -0.6200000 0.3997000 -0.2497000
v -0.6200000 0.3997000 0.2497000
v -0.6200000 0.3997000 0.2497000
v -0.6200000 0.3997000 0.2903000
v -0.6200000 0.3997000 0.2903000
v -0.6200000 0.3997000 0.2903000
v -0.6200000 0.5003000 -0.2903000
v -0.6200000 0.5003000 -0.2903000
v -0.6200000 0.5003000 -0.2903000
v -0.6200000 0.5003000 -0.2497000
v -0.6200000 0.5003000 -0.2497000
v -0.6200000 0.5003000 -0.2497000
v -0.6200000 0.5003000 0.2497000
v -0.6200000 0.5003000 0.2497000
v -0.6200000 0.5003000 0.2497000
v -0.6200000 0.5003000 0.2903000
v -0.6200000 0.5003000 0.2903000
v -0.6200000 0.5003000 0.2903000
v -0.6103000 0.0850000 -0.2553000
v -0.6103000 0.0850000 -0.2553000
v -0.6103000 0.0850000 -0.2553000
v -0.6103000 0.0850000 0.2553000
v -0.6103000 0.0850000 0.2553000
v -0.6103000 0.0850000 0.2553000
v -0.6103000 0.0997000 -0.2700000
v -0.6103000 0.0997000 0.2700000
v -0.6103000 0.2003000 -0.2700000
v -0.6103000 0.2003000 0.2700000
v -0.6103000 0.2150000 -0.2553000
v -0.6103000 0.2150000 -0.2553000
v -0.6103000 0.2150000 -0.2553000
v -0.6103000 0.2150000 0.2553000
v -0.6103000 0.2150000 0.2553000
v -0.6103000 0.2150000 0.2553000
v -0.6103000 0.2350000 -0.2553000
v -0.6103000 0.2350000 -0.2553000
v -0.6103000 0.2350000 -0.2553000
v -0.6103000 0.2350000 0.2553000
v -0.6103000 0.2350000 0.2553000
v -0.6103000 0.2350000 0.2553000
v -0.6103000 0.2497000 -0.2700000
v -0.6103000 0.2497000 0.2700000
v -0.6103000 0.3503000 -0.2700000
v -0.6103000 0.3503000 0.2700000
v -0.6103000 0.3650000 -0.2553000
v -0.6103000 0.3650000 -0.2553000
v -0.6103000 0.3650000 -0.2553000
v -0.6103000 0.3650000 0.2553000
v -0.6103000 0.3650000 0.2553000
v -0.6103000 0.3650000 0.2553000
v -0.6103000 0.3850000 -0.2553000
v -0.6103000 0.3850000 -0.2553000
v -0.6103000 0.3850000 -0.2553000
v -0.6103000 0.3850000 0.2553000
v -0.6103000 0.3850000 0.2553000
v -0.6103000 0.3850000 0.2553000
v -0.6103000 0.3997000 -0.2700000
v -0.6103000 0.3997000 0.2700000
v -0.6103000 0.5003000 -0.2700000
v -0.6103000 0.5003000 0.2700000
v -0.6103000 0.5150000 -0.2553000
v -0.6103000 0.5150000 -0.2553000
v -0.6103000 0.5150000 -0.2553000
v -0.6103000 0.5150000 0.2553000
v -0.6103000 0.5150000 0.2553000
v -0.6103000 0.5150000 0.2553000
v -0.6053000 0.0850000 -0.2903000
v -0.6053000 0.0850000 -0.2903000
v -0.6053000 0.0850000 -0.2497000
v -0.6053000 0.0850000 -0.2497000
v -0.6053000 0.0850000 0.2497000
v -0.6053000 0.0850000 0.2497000
v -0.6053000 0.0850000 0.2903000
v -0.6053000 0.0850000 0.2903000
v -0.6053000 0.0997000 -0.3050000
v -0.6053000 0.0997000 -0.2350000
v -0.6053000 0.0997000 0.2350000
v -0.6053000 0.0997000 0.3050000
v -0.6053000 0.2003000 -0.3050000
v -0.6053000 0.2003000 -0.2350000
v -0.6053000 0.2003000 0.2350000
v -0.6053000 0.2003000 0.3050000
v -0.6053000 0.2150000 -0.2903000
v -0.6053000 0.2150000 -0.2903000
v -0.6053000 0.2150000 -0.2497000
v -0.6053000 0.2150000 -0.2497000
v -0.6053000 0.2150000 0.2497000
v -0.6053000 0.2150000 0.2497000
v -0.6053000 0.2150000 0.2903000
v -0.6053000 0.2150000 0.2903000
v -0.6053000 0.2350000 -0.2903000
v -0.6053000 0.2350000 -0.2903000
v -0.6053000 0.2350000 -0.2497000
v -0.6053000 0.2350000 -0.2497000
v -0.6053000 0.2350000 0.2497000
v -0.6053000 0.2350000 0.2497000
v -0.6053000 0.2350000 0.2903000
v -0.6053000 0.2350000 0.2903000
v -0.6053000 0.2497000 -0.3050000
v -0.6053000 0.2497000 -0.2350000
v -0.6053000 0.2497000 0.2350000
v -0.6053000 0.2497000 0.3050000
v -0.6053000 0.3503000 -0.3050000
v -0.6053000 0.3503000 -0.2350000
v -0.6053000 0.3503000 0.2350000
v -0.6053000 0.3503000 0.3050000
v -0.6053000 0.3650000 -0.2903000
v -0.6053000 0.3650000 -0.2903000
v -0.6053000 0.3650000 -0.2497000
v -0.6053000 0.3650000 -0.2497000
v -0.6053000 0.3650000 0.2497000
v -0.6053000 0.3650000 0.2497000
v -0.6053000 0.3650000 0.2903000
v -0.6053000 0.3650000 0.2903000
v -0.6053000 0.3850000 -0.2903000
v -0.6053000 0.3850000 -0.2903000
v -0.6053000 0.3850000 -0.2497000
v -0.6053000 0.3850000 -0.2497000
v -0.6053000 0.3850000 0.2497000
v -0.6053000 0.3850000 0.2497000
v -0.6053000 0.3850000 0.2903000
v -0.6053000 0.3850000 0.2903000
v -0.6053000 0.3997000 -0.3050000
v -0.6053000 0.3997000 -0.2350000
v -0.6053000 0.3997000 0.2350000
v -0.6053000 0.3997000 0.3050000
v -0.6053000 0.5003000 -0.3050000
v -0.6053000 0.5003000 -0.2350000
v -0.6053000 0.5003000 0.2350000
v -0.6053000 0.5003000 0.3050000
v -0.6053000 0.5150000 -0.2903000
v -0.6053000 0.5150000 -0.2903000
v -0.6053000 0.5150000 -0.2497000
v -0.6053000 0.5150000 -0.2497000
v -0.6053000 0.5150000 0.2497000
v -0.6053000 0.5150000 0.2497000
v -0.6053000 0.5150000 0.2903000
v -0.6053000 0.5150000 0.2903000
v -0.6000000 0.0511500 -0.2063500
v -0.6000000 0.0511500 -0.2063500
v -0.6000000 0.0511500 -0.0936500
v -0.6000000 0.0511500 -0.0936500
v -0.6000000 0.0511500 -0.0936500
v -0.6000000 0.0511500 -0.0563500
v -0.6000000 0.0511500 -0.0563500
v -0.6000000 0.0511500 0.0563500
v -0.6000000 0.0511500 0.0563500
v -0.6000000 0.0511500 0.0563500
v -0.6000000 0.0511500 0.0936500
v -0.6000000 0.0511500 0.0936500
v -0.6000000 0.0511500 0.2063500
v -0.6000000 0.0511500 0.2063500
v -0.6000000 0.0511500 0.2063500
v -0.6000000 0.0888500 -0.2063500
v -0.6000000 0.0888500 -0.2063500
v -0.6000000 0.0888500 -0.2063500
v -0.6000000 0.0888500 -0.0936500
v -0.6000000 0.0888500 -0.0936500
v -0.6000000 0.0888500 -0.0936500
v -0.6000000 0.0888500 -0.0563500
v -0.6000000 0.0888500 -0.0563500
v -0.6000000 0.0888500 -0.0563500
v -0.6000000 0.0888500 0.0563500
v -0.6000000 0.0888500 0.0563500
v -0.6000000 0.0888500 0.0563500
v -0.6000000 0.0888500 0.0936500
v -0.6000000 0.0888500 0.0936500
v -0.6000000 0.0888500 0.0936500
v -0.6000000 0.0888500 0.2063500
v -0.6000000 0.0888500 0.2063500
v -0.6000000 0.0888500 0.2063500
v -0.5863500 0.0375000 -0.2063500
v -0.5863500 0.0375000 -0.0936500
v -0.5863500 0.0375000 -0.0563500
v -0.5863500 0.0375000 0.0563500
v -0.5863500 0.0375000 0.0936500
v -0.5863500 0.0375000 0.2063500
v -0.5863500 0.0511500 -0.2200000
v -0.5863500 0.0511500 -0.2200000
v -0.5863500 0.0511500 -0.0800000
v -0.5863500 0.0511500 -0.0800000
v -0.5863500 0.0511500 -0.0700000
v -0.5863500 0.0511500 -0.0700000
v -0.5863500 0.0511500 0.0700000
v -0.5863500 0.0511500 0.0700000
v -0.5863500 0.0511500 0.0800000
v -0.5863500 0.0511500 0.0800000
v -0.5863500 0.0511500 0.2200000
v -0.5863500 0.0511500 0.2200000
v -0.5863500 0.0888500 -0.2200000
v -0.5863500 0.0888500 -0.2200000
v -0.5863500 0.0888500 -0.0800000
v -0.5863500 0.0888500 -0.0800000
v -0.5863500 0.0888500 -0.0700000
v -0.5863500 0.0888500 -0.0700000
v -0.5863500 0.0888500 0.0700000
v -0.5863500 0.0888500 0.0700000
v -0.5863500 0.0888500 0.0800000
v -0.5863500 0.0888500 0.0800000
v -0.5863500 0.0888500 0.2200000
v -0.5863500 0.0888500 0.2200000
v -0.5863500 0.1025000 -0.2063500
v -0.5863500 0.1025000 -0.0936500
v -0.5863500 0.1025000 -0.0563500
v -0.5863500 0.1025000 0.0563500
v -0.5863500 0.1025000 0.0936500
v -0.5863500 0.1025000 0.2063500
v -0.5697000 0.0850000 -0.2553000
v -0.5697000 0.0850000 -0.2553000
v -0.5697000 0.0850000 -0.2553000
v -0.5697000 0.0850000 0.2553000
v -0.5697000 0.0850000 0.2553000
v -0.5697000 0.0850000 0.2553000
v -0.5697000 0.0997000 -0.2700000
v -0.5697000 0.0997000 0.2700000
v -0.5697000 0.2003000 -0.2700000
v -0.5697000 0.2003000 0.2700000
v -0.5697000 0.2150000 -0.2553000
v -0.5697000 0.2150000 -0.2553000
v -0.5697000 0.2150000 -0.2553000
v -0.5697000 0.2150000 0.2553000
v -0.5697000 0.2150000 0.2553000
v -0.5697000 0.2150000 0.2553000
v -0.5697000 0.2350000 -0.2553000
v -0.5697000 0.2350000 -0.2553000
v -0.5697000 0.2350000 -0.2553000
v -0.5697000 0.2350000 0.2553000
v -0.5697000 0.2350000 0.2553000
v -0.5697000 0.2350000 0.2553000
v -0.5697000 0.2497000 -0.2700000
v -0.5697000 0.2497000 0.2700000
v -0.5697000 0.3503000 -0.2700000
v -0.5697000 0.3503000 0.2700000
v -0.5697000 0.3650000 -0.2553000
v -0.5697000 0.3650000 -0.2553000
v -0.5697000 0.3650000 -0.2553000
v -0.5697000 0.3650000 0.2553000
v -0.5697000 0.3650000 0.2553000
v -0.5697000 0.3650000 0.2553000
v -0.5697000 0.3850000 -0.2553000
v -0.5697000 0.3850000 -0.2553000
v -0.5697000 0.3850000 -0.2553000
v -0.5697000 0.3850000 0.2553000
v -0.5697000 0.3850000 0.2553000
v -0.5697000 0.3850000 0.2553000
v -0.5697000 0.3997000 -0.2700000
v -0.5697000 0.3997000 0.2700000
v -0.5697000 0.5003000 -0.2700000
v -0.5697000 0.5003000 0.2700000
v -0.5697000 0.5150000 -0.2553000
v -0.5697000 0.5150000 -0.2553000
v -0.5697000 0.5150000 -0.2553000
v -0.5697000 0.5150000 0.2553000
v -0.5697000 0.5150000 0.2553000
v -0.5697000 0.5150000 0.2553000
v -0.5550000 0.0997000 -0.2553000
v -0.5550000 0.0997000 -0.2553000
v -0.5550000 0.0997000 0.2553000
v -0.5550000 0.0997000 0.2553000
v -0.5550000 0.2003000 -0.2553000
v -0.5550000 0.2003000 -0.2553000
v -0.5550000 0.2003000 0.2553000
v -0.5550000 0.2003000 0.2553000
v -0.5550000 0.2497000 -0.2553000
v -0.5550000 0.2497000 -0.2553000
v -0.5550000 0.2497000 0.2553000
v -0.5550000 0.2497000 0.2553000
v -0.5550000 0.3503000 -0.2553000
v -0.5550000 0.3503000 -0.2553000
v -0.5550000 0.3503000 0.2553000
v -0.5550000 0.3503000 0.2553000
v -0.5550000 0.3997000 -0.2553000
v -0.5550000 0.3997000 -0.2553000
v -0.5550000 0.3997000 0.2553000
v -0.5550000 0.3997000 0.2553000
v -0.5550000 0.5003000 -0.2553000
v -0.5550000 0.5003000 -0.2553000
v -0.5550000 0.5003000 0.2553000
v -0.5550000 0.5003000 0.2553000
v -0.5200000 0.0147000 -0.2903000
v -0.5200000 0.0147000 -0.2903000
v -0.5200000 0.0147000 -0.2903000
v -0.5200000 0.0147000 0.2903000
v -0.5200000 0.0147000 0.2903000
v -0.5200000 0.0147000 0.2903000
v -0.5200000 0.0553000 -0.2903000
v -0.5200000 0.0553000 -0.2903000
v -0.5200000 0.0553000 -0.2903000
v -0.5200000 0.0553000 0.2903000
v -0.5200000 0.0553000 0.2903000
v -0.5200000 0.0553000 0.2903000
v -0.5053000 0.0000000 -0.2903000
v -0.5053000 0.0000000 -0.2903000
v -0.5053000 0.0000000 0.2903000
v -0.5053000 0.0000000 0.2903000
v -0.5053000 0.0147000 -0.3050000
v -0.5053000 0.0147000 0.3050000
v -0.5053000 0.0553000 -0.3050000
v -0.5053000 0.0553000 0.3050000
v -0.5053000 0.0700000 -0.2903000
v -0.5053000 0.0700000 -0.2903000
v -0.5053000 0.0700000 0.2903000
v -0.5053000 0.0700000 0.2903000
v -0.3947000 0.0000000 -0.2903000
v -0.3947000 0.0000000 -0.2903000
v -0.3947000 0.0000000 0.2903000
v -0.3947000 0.0000000 0.2903000
v -0.3947000 0.0147000 -0.3050000
v -0.3947000 0.0147000 0.3050000
v -0.3947000 0.0553000 -0.3050000
v -0.3947000 0.0553000 0.3050000
v -0.3947000 0.0700000 -0.2903000
v -0.3947000 0.0700000 -0.2903000
v -0.3947000 0.0700000 0.2903000
v -0.3947000 0.0700000 0.2903000
v -0.3800000 0.0147000 -0.2903000
v -0.3800000 0.0147000 -0.2903000
v -0.3800000 0.0147000 -0.2903000
v -0.3800000 0.0147000 0.2903000
v -0.3800000 0.0147000 0.2903000
v -0.3800000 0.0147000 0.2903000
v -0.3800000 0.0553000 -0.2903000
v -0.3800000 0.0553000 -0.2903000
v -0.3800000 0.0553000 -0.2903000
v -0.3800000 0.0553000 0.2903000
v -0.3800000 0.0553000 0.2903000
v -0.3800000 0.0553000 0.2903000
v 0.3800000 0.0147000 -0.2903000
v 0.3800000 0.0147000 -0.2903000
v 0.3800000 0.0147000 -0.2903000
v 0.3800000 0.0147000 0.2903000
v 0.3800000 0.0147000 0.2903000
v 0.3800000 0.0147000 0.2903000
v 0.3800000 0.0553000 -0.2903000
v 0.3800000 0.0553000 -0.2903000
v 0.3800000 0.0553000 -0.2903000
v 0.3800000 0.0553000 0.2903000
v 0.3800000 0.0553000 0.2903000
v 0.3800000 0.0553000 0.2903000
v 0.3947000 0.0000000 -0.2903000
v 0.3947000 0.0000000 -0.2903000
v 0.3947000 0.0000000 0.2903000
v 0.3947000 0.0000000 0.2903000
v 0.3947000 0.0147000 -0.3050000
v 0.3947000 0.0147000 0.3050000
v 0.3947000 0.0553000 -0.3050000
v 0.3947000 0.0553000 0.3050000
v 0.3947000 0.0700000 -0.2903000
v 0.3947000 0.0700000 -0.2903000
v 0.3947000 0.0700000 0.2903000
v 0.3947000 0.0700000 0.2903000
v 0.5053000 0.0000000 -0.2903000
v 0.5053000 0.0000000 -0.2903000
v 0.5053000 0.0000000 0.2903000
v 0.5053000 0.0000000 0.2903000
v 0.5053000 0.0147000 -0.3050000
v 0.5053000 0.0147000 0.3050000
v 0.5053000 0.0553000 -0.3050000
v 0.5053000 0.0553000 0.3050000
v 0.5053000 0.0700000 -0.2903000
v 0.5053000 0.0700000 -0.2903000
v 0.5053000 0.0700000 0.2903000
v 0.5053000 0.0700000 0.2903000
v 0.5200000 0.0147000 -0.2903000
v 0.5200000 0.0147000 -0.2903000
v 0.5200000 0.0147000 -0.2903000
v 0.5200000 0.0147000 0.2903000
v 0.5200000 0.0147000 0.2903000
v 0.5200000 0.0147000 0.2903000
v 0.5200000 0.0553000 -0.2903000
v 0.5200000 0.0553000 -0.2903000
v 0.5200000 0.0553000 -0.2903000
v 0.5200000 0.0553000 0.2903000
v 0.5200000 0.0553000 0.2903000
v 0.5200000 0.0553000 0.2903000
v 0.5550000 0.0997000 -0.2553000
v 0.5550000 0.0997000 -0.2553000
v 0.5550000 0.0997000 0.2553000
v 0.5550000 0.0997000 0.2553000
v 0.5550000 0.2003000 -0.2553000
v 0.5550000 0.2003000 -0.2553000
v 0.5550000 0.2003000 0.2553000
v 0.5550000 0.2003000 0.2553000
v 0.5550000 0.2497000 -0.2553000
v 0.5550000 0.2497000 -0.2553000
v 0.5550000 0.2497000 0.2553000
v 0.5550000 0.2497000 0.2553000
v 0.5550000 0.3503000 -0.2553000
v 0.5550000 0.3503000 -0.2553000
v 0.5550000 0.3503000 0.2553000
v 0.5550000 0.3503000 0.2553000
v 0.5550000 0.3997000 -0.2553000
v 0.5550000 0.3997000 -0.2553000
v 0.5550000 0.3997000 0.2553000
v 0.5550000 0.3997000 0.2553000
v 0.5550000 0.5003000 -0.2553000
v 0.5550000 0.5003000 -0.2553000
v 0.5550000 0.5003000 0.2553000
v 0.5550000 0.5003000 0.2553000
v 0.5697000 0.0850000 -0.2553000
v 0.5697000 0.0850000 -0.2553000
v 0.5697000 0.0850000 -0.2553000
v 0.5697000 0.0850000 0.2553000
v 0.5697000 0.0850000 0.2553000
v 0.5697000 0.0850000 0.2553000
v 0.5697000 0.0997000 -0.2700000
v 0.5697000 0.0997000 0.2700000
v 0.5697000 0.2003000 -0.2700000
v 0.5697000 0.2003000 0.2700000
v 0.5697000 0.2150000 -0.2553000
v 0.5697000 0.2150000 -0.2553000
v 0.5697000 0.2150000 -0.2553000
v 0.5697000 0.2150000 0.2553000
v 0.5697000 0.2150000 0.2553000
v 0.5697000 0.2150000 0.2553000
v 0.5697000 0.2350000 -0.2553000
v 0.5697000 0.2350000 -0.2553000
v 0.5697000 0.2350000 -0.2553000
v 0.5697000 0.2350000 0.2553000
v 0.5697000 0.2350000 0.2553000
v 0.5697000 0.2350000 0.2553000
v 0.5697000 0.2497000 -0.2700000
v 0.5697000 0.2497000 0.2700000
v 0.5697000 0.3503000 -0.2700000
v 0.5697000 0.3503000 0.2700000
v 0.5697000 0.3650000 -0.2553000
v 0.5697000 0.3650000 -0.2553000
v 0.5697000 0.3650000 -0.2553000
v 0.5697000 0.3650000 0.2553000
v 0.5697000 0.3650000 0.2553000
v 0.5697000 0.3650000 0.2553000
v 0.5697000 0.3850000 -0.2553000
v 0.5697000 0.3850000 -0.2553000
v 0.5697000 0.3850000 -0.2553000
v 0.5697000 0.3850000 0.2553000
v 0.5697000 0.3850000 0.2553000
v 0.5697000 0.3850000 0.2553000
v 0.5697000 0.3997000 -0.2700000
v 0.5697000 0.3997000 0.2700000
v 0.5697000 0.5003000 -0.2700000
v 0.5697000 0.5003000 0.2700000
v 0.5697000 0.5150000 -0.2553000
v 0.5697000 0.5150000 -0.2553000
v 0.5697000 0.5150000 -0.2553000
v 0.5697000 0.5150000 0.2553000
v 0.5697000 0.5150000 0.2553000
v 0.5697000 0.5150000 0.2553000
v 0.5863500 0.0375000 -0.2063500
v 0.5863500 0.0375000 -0.0936500
v 0.5863500 0.0375000 -0.0563500
v 0.5863500 0.0375000 0.0563500
v 0.5863500 0.0375000 0.0936500
v 0.5863500 0.0375000 0.2063500
v 0.5863500 0.0511500 -0.2200000
v 0.5863500 0.0511500 -0.2200000
v 0.5863500 0.0511500 -0.0800000
v 0.5863500 0.0511500 -0.0800000
v 0.5863500 0.0511500 -0.0700000
v 0.5863500 0.0511500 -0.0700000
v 0.5863500 0.0511500 0.0700000
v 0.5863500 0.0511500 0.0700000
v 0.5863500 0.0511500 0.0800000
v 0.5863500 0.0511500 0.0800000
v 0.5863500 0.0511500 0.2200000
v 0.5863500 0.0511500 0.2200000
v 0.5863500 0.0888500 -0.2200000
v 0.5863500 0.0888500 -0.2200000
v 0.5863500 0.0888500 -0.0800000
v 0.5863500 0.0888500 -0.0800000
v 0.5863500 0.0888500 -0.0700000
v 0.5863500 0.0888500 -0.0700000
v 0.5863500 0.0888500 0.0700000
v 0.5863500 0.0888500 0.0700000
v 0.5863500 0.0888500 0.0800000
v 0.5863500 0.0888500 0.0800000
v 0.5863500 0.0888500 0.2200000
v 0.5863500 0.0888500 0.2200000
v 0.5863500 0.1025000 -0.2063500
v 0.5863500 0.1025000 -0.0936500
v 0.5863500 0.1025000 -0.0563500
v 0.5863500 0.1025000 0.0563500
v 0.5863500 0.1025000 0.0936500
v 0.5863500 0.1025000 0.2063500
v 0.6000000 0.0511500 -0.2063500
v 0.6000000 0.0511500 -0.2063500
v 0.6000000 0.0511500 -0.0936500
v 0.6000000 0.0511500 -0.0936500
v 0.6000000 0.0511500 -0.0936500
v 0.6000000 0.0511500 -0.0563500
v 0.6000000 0.0511500 -0.0563500
v 0.6000000 0.0511500 0.0563500
v 0.6000000 0.0511500 0.0563500
v 0.6000000 0.0511500 0.0563500
v 0.6000000 0.0511500 0.0936500
v 0.6000000 0.0511500 0.0936500
v 0.6000000 0.0511500 0.2063500
v 0.6000000 0.0511500 0.2063500
v 0.6000000 0.0511500 0.2063500
v 0.6000000 0.0888500 -0.2063500
v 0.6000000 0.0888500 -0.2063500
v 0.6000000 0.0888500 -0.2063500
v 0.6000000 0.0888500 -0.0936500
v 0.6000000 0.0888500 -0.0936500
v 0.6000000 0.0888500 -0.0936500
v 0.6000000 0.0888500 -0.0563500
v 0.6000000 0.0888500 -0.0563500
v 0.6000000 0.0888500 -0.0563500
v 0.6000000 0.0888500 0.0563500
v 0.6000000 0.0888500 0.0563500
v 0.6000000 0.0888500 0.0563500
v 0.6000000 0.0888500 0.0936500
v 0.6000000 0.0888500 0.0936500
v 0.6000000 0.0888500 0.0936500
v 0.6000000 0.0888500 0.2063500
v 0.6000000 0.0888500 0.2063500
v 0.6000000 0.0888500 0.2063500
v 0.6053000 0.0850000 -0.2903000
v 0.6053000 0.0850000 -0.2903000
v 0.6053000 0.0850000 -0.2497000
v 0.6053000 0.0850000 -0.2497000
v 0.6053000 0.0850000 0.2497000
v 0.6053000 0.0850000 0.2497000
v 0.6053000 0.0850000 0.2903000
v 0.6053000 0.0850000 0.2903000
v 0.6053000 0.0997000 -0.3050000
v 0.6053000 0.0997000 -0.2350000
v 0.6053000 0.0997000 0.2350000
v 0.6053000 0.0997000 0.3050000
v 0.6053000 0.2003000 -0.3050000
v 0.6053000 0.2003000 -0.2350000
v 0.6053000 0.2003000 0.2350000
v 0.6053000 0.2003000 0.3050000
v 0.6053000 0.2150000 -0.2903000
v 0.6053000 0.2150000 -0.2903000
v 0.6053000 0.2150000 -0.2497000
v 0.6053000 0.2150000 -0.2497000
v 0.6053000 0.2150000 0.2497000
v 0.6053000 0.2150000 0.2497000
v 0.6053000 0.2150000 0.2903000
v 0.6053000 0.2150000 0.2903000
v 0.6053000 0.2350000 -0.2903000
v 0.6053000 0.2350000 -0.2903000
v 0.6053000 0.2350000 -0.2497000
v 0.6053000 0.2350000 -0.2497000
v 0.6053000 0.2350000 0.2497000
v 0.6053000 0.2350000 0.2497000
v 0.6053000 0.2350000 0.2903000
v 0.6053000 0.2350000 0.2903000
v 0.6053000 0.2497000 -0.3050000
v 0.6053000 0.2497000 -0.2350000
v 0.6053000 0.2497000 0.2350000
v 0.6053000 0.2497000 0.3050000
v 0.6053000 0.3503000 -0.3050000
v 0.6053000 0.3503000 -0.2350000
v 0.6053000 0.3503000 0.2350000
v 0.6053000 0.3503000 0.3050000
v 0.6053000 0.3650000 -0.2903000
v 0.6053000 0.3650000 -0.2903000
v 0.6053000 0.3650000 -0.2497000
v 0.6053000 0.3650000 -0.2497000
v 0.6053000 0.3650000 0.2497000
v 0.6053000 0.3650000 0.2497000
v 0.6053000 0.3650000 0.2903000
v 0.6053000 0.3650000 0.2903000
v 0.6053000 0.3850000 -0.2903000
v 0.6053000 0.3850000 -0.2903000
v 0.6053000 0.3850000 -0.2497000
v 0.6053000 0.3850000 -0.2497000
v 0.6053000 0.3850000 0.2497000
v 0.6053000 0.3850000 0.2497000
v 0.6053000 0.3850000 0.2903000
v 0.6053000 0.3850000 0.2903000
v 0.6053000 0.3997000 -0.3050000
v 0.6053000 0.3997000 -0.2350000
v 0.6053000 0.3997000 0.2350000
v 0.6053000 0.3997000 0.3050000
v 0.6053000 0.5003000 -0.3050000
v 0.6053000 0.5003000 -0.2350000
v 0.6053000 0.5003000 0.2350000
v 0.6053000 0.5003000 0.3050000
v 0.6053000 0.5150000 -0.2903000
v 0.6053000 0.5150000 -0.2903000
v 0.6053000 0.5150000 -0.2497000
v 0.6053000 0.5150000 -0.2497000
v 0.6053000 0.5150000 0.2497000
v 0.6053000 0.5150000 0.2497000
v 0.6053000 0.5150000 0.2903000
v 0.6053000 0.5150000 0.2903000
v 0.6103000 0.0850000 -0.2553000
v 0.6103000 0.0850000 -0.2553000
v 0.6103000 0.0850000 -0.2553000
v 0.6103000 0.0850000 0.2553000
v 0.6103000 0.0850000 0.2553000
v 0.6103000 0.0850000 0.2553000
v 0.6103000 0.0997000 -0.2700000
v 0.6103000 0.0997000 0.2700000
v 0.6103000 0.2003000 -0.2700000
v 0.6103000 0.2003000 0.2700000
v 0.6103000 0.2150000 -0.2553000
v 0.6103000 0.2150000 -0.2553000
v 0.6103000 0.2150000 -0.2553000
v 0.6103000 0.2150000 0.2553000
v 0.6103000 0.2150000 0.2553000
v 0.6103000 0.2150000 0.2553000
v 0.6103000 0.2350000 -0.2553000
v 0.6103000 0.2350000 -0.2553000
v 0.6103000 0.2350000 -0.2553000
v 0.6103000 0.2350000 0.2553000
v 0.6103000 0.2350000 0.2553000
v 0.6103000 0.2350000 0.2553000
v 0.6103000 0.2497000 -0.2700000
v 0.6103000 0.2497000 0.2700000
v 0.6103000 0.3503000 -0.2700000
v 0.6103000 0.3503000 0.2700000
v 0.6103000 0.3650000 -0.2553000
v 0.6103000 0.3650000 -0.2553000
v 0.6103000 0.3650000 -0.2553000
v 0.6103000 0.3650000 0.2553000
v 0.6103000 0.3650000 0.2553000
v 0.6103000 0.3650000 0.2553000
v 0.6103000 0.3850000 -0.2553000
v 0.6103000 0.3850000 -0.2553000
v 0.6103000 0.3850000 -0.2553000
v 0.6103000 0.3850000 0.2553000
v 0.6103000 0.3850000 0.2553000
v 0.6103000 0.3850000 0.2553000
v 0.6103000 0.3997000 -0.2700000
v 0.6103000 0.3997000 0.2700000
v 0.6103000 0.5003000 -0.2700000
v 0.6103000 0.5003000 0.2700000
v 0.6103000 0.5150000 -0.2553000
v 0.6103000 0.5150000 -0.2553000
v 0.6103000 0.5150000 -0.2553000
v 0.6103000 0.5150000 0.2553000
v 0.6103000 0.5150000 0.2553000
v 0.6103000 0.5150000 0.2553000
v 0.6200000 0.0997000 -0.2903000
v 0.6200000 0.0997000 -0.2903000
v 0.6200000 0.0997000 -0.2497000
v 0.6200000 0.0997000 -0.2497000
v 0.6200000 0.0997000 -0.2497000
v 0.6200000 0.0997000 0.2497000
v 0.6200000 0.0997000 0.2497000
v 0.6200000 0.0997000 0.2903000
v 0.6200000 0.0997000 0.2903000
v 0.6200000 0.0997000 0.2903000
v 0.6200000 0.2003000 -0.2903000
v 0.6200000 0.2003000 -0.2903000
v 0.6200000 0.2003000 -0.2903000
v 0.6200000 0.2003000 -0.2497000
v 0.6200000 0.2003000 -0.2497000
v 0.6200000 0.2003000 -0.2497000
v 0.6200000 0.2003000 0.2497000
v 0.6200000 0.2003000 0.2497000
v 0.6200000 0.2003000 0.2497000
v 0.6200000 0.2003000 0.2903000
v 0.6200000 0.2003000 0.2903000
v 0.6200000 0.2003000 0.2903000
v 0.6200000 0.2497000 -0.2903000
v 0.6200000 0.2497000 -0.2903000
v 0.6200000 0.2497000 -0.2497000
v 0.6200000 0.2497000 -0.2497000
v 0.6200000 0.2497000 -0.2497000
v 0.6200000 0.2497000 0.2497000
v 0.6200000 0.2497000 0.2497000
v 0.6200000 0.2497000 0.2903000
v 0.6200000 0.2497000 0.2903000
v 0.6200000 0.2497000 0.2903000
v 0.6200000 0.3503000 -0.2903000
v 0.6200000 0.3503000 -0.2903000
v 0.6200000 0.3503000 -0.2903000
v 0.6200000 0.3503000 -0.2497000
v 0.6200000 0.3503000 -0.2497000
v 0.6200000 0.3503000 -0.2497000
v 0.6200000 0.3503000 0.2497000
v 0.6200000 0.3503000 0.2497000
v 0.6200000 0.3503000 0.2497000
v 0.6200000 0.3503000 0.2903000
v 0.6200000 0.3503000 0.2903000
v 0.6200000 0.3503000 0.2903000
v 0.6200000 0.3997000 -0.2903000
v 0.6200000 0.3997000 -0.2903000
v 0.6200000 0.3997000 -0.2497000
v 0.6200000 0.3997000 -0.2497000
v 0.6200000 0.3997000 -0.2497000
v 0.6200000 0.3997000 0.2497000
v 0.6200000 0.3997000 0.2497000
v 0.6200000 0.3997000 0.2903000
v 0.6200000 0.3997000 0.2903000
v 0.6200000 0.3997000 0.2903000
v 0.6200000 0.5003000 -0.2903000
v 0.6200000 0.5003000 -0.2903000
v 0.6200000 0.5003000 -0.2903000
v 0.6200000 0.5003000 -0.2497000
v 0.6200000 0.5003000 -0.2497000
v 0.6200000 0.5003000 -0.2497000
v 0.6200000 0.5003000 0.2497000
v 0.6200000 0.5003000 0.2497000
v 0.6200000 0.5003000 0.2497000
v 0.6200000 0.5003000 0.2903000
v 0.6200000 0.5003000 0.2903000
v 0.6200000 0.5003000 0.2903000
v 0.6250000 0.0997000 -0.2553000
v 0.6250000 0.0997000 -0.2553000
v 0.6250000 0.0997000 0.2553000
v 0.6250000 0.0997000 0.2553000
v 0.6250000 0.2003000 -0.2553000
v 0.6250000 0.2003000 -0.2553000
v 0.6250000 0.2003000 0.2553000
v 0.6250000 0.2003000 0.2553000
v 0.6250000 0.2497000 -0.2553000
v 0.6250000 0.2497000 -0.2553000
v 0.6250000 0.2497000 0.2553000
v 0.6250000 0.2497000 0.2553000
v 0.6250000 0.3503000 -0.2553000
v 0.6250000 0.3503000 -0.2553000
v 0.6250000 0.3503000 0.2553000
v 0.6250000 0.3503000 0.2553000
v 0.6250000 0.3997000 -0.2553000
v 0.6250000 0.3997000 -0.2553000
v 0.6250000 0.3997000 0.2553000
v 0.6250000 0.3997000 0.2553000
v 0.6250000 0.5003000 -0.2553000
v 0.6250000 0.5003000 -0.2553000
v 0.6250000 0.5003000 0.2553000
v 0.6250000 0.5003000 0.2553000
vt 0.0874034 0.1100397
vt 0.1084034 0.1100397
vt 0.0874034 0.1100397
vt 0.1084034 0.2602161
vt 0.0874034 0.1396279
vt 0.2521176 0.1100397
vt 0.0874034 0.1396279
vt 0.2521176 0.2602161
vt 0.0282703 0.0912022
vt 0.0492703 0.0912022
vt 0.0282703 0.0912022
vt 0.0492703 0.2413787
vt 0.0282703 0.1207904
vt 0.1929846 0.0912022
vt 0.0282703 0.1207904
vt 0.1929846 0.2413787
vt 0.0871771 0.0482505
vt 0.1081771 0.0482505
vt 0.0871771 0.0482505
vt 0.1081771 0.1984269
vt 0.0871771 0.0778387
vt 0.2518914 0.0482505
vt 0.0871771 0.0778387
vt 0.2518914 0.1984269
vt 0.1443158 0.1131320
vt 0.1443158 0.1174555
vt 0.1443158 0.1131320
vt 0.2023158 0.1131320
vt 0.2023158 0.1174555
vt 0.1324777 0.0362194
vt 0.1324777 0.0405429
vt 0.1324777 0.0362194
vt 0.1904777 0.0362194
vt 0.1904777 0.0405429
vt 0.1443158 0.1131320
vt 0.1443158 0.1470437
vt 0.2880301 0.1131320
vt 0.2023158 0.1131320
vt 0.2023158 0.1470437
vt 0.2880301 0.1131320
vt 0.1324777 0.0362194
vt 0.1324777 0.0701312
vt 0.2761920 0.0362194
vt 0.1904777 0.0362194
vt 0.1904777 0.0701312
vt 0.2761920 0.0362194
vt 0.1492885 0.1281369
vt 0.1492885 0.1324605
vt 0.1492885 0.1281369
vt 0.2072885 0.1281369
vt 0.2072885 0.1324605
vt 0.0787102 0.0755575
vt 0.0787102 0.0798810
vt 0.0787102 0.0755575
vt 0.1367102 0.0755575
vt 0.1367102 0.0798810
vt 0.1492885 0.1281369
vt 0.1492885 0.1620487
vt 0.2930028 0.1281369
vt 0.2072885 0.1281369
vt 0.2072885 0.1620487
vt 0.2930028 0.1281369
vt 0.0787102 0.0755575
vt 0.0787102 0.1094692
vt 0.2224245 0.0755575
vt 0.1367102 0.0755575
vt 0.1367102 0.1094692
vt 0.2224245 0.0755575
vt 0.0885259 0.1185406
vt 0.0885259 0.1228641
vt 0.0885259 0.1185406
vt 0.1465259 0.1185406
vt 0.1465259 0.1228641
vt 0.0652984 0.0418416
vt 0.0652984 0.0461651
vt 0.0652984 0.0418416
vt 0.1232984 0.0418416
vt 0.1232984 0.0461651
vt 0.0885259 0.1185406
vt 0.0885259 0.1524523
vt 0.2322402 0.1185406
vt 0.1465259 0.1185406
vt 0.1465259 0.1524523
vt 0.2322402 0.1185406
vt 0.0652984 0.0418416
vt 0.0652984 0.0757534
vt 0.2090127 0.0418416
vt 0.1232984 0.0418416
vt 0.1232984 0.0757534
vt 0.2090127 0.0418416
vt 0.0874034 0.1100397
vt 0.1084034 0.1057161
vt 0.1084034 0.1100397
vt 0.0874034 0.2602161
vt 0.1084034 0.1057161
vt 0.1084034 0.2602161
vt 0.1084034 0.1100397
vt 0.1084034 0.1100397
vt 0.1084034 0.1396279
vt 0.1084034 0.1396279
vt 0.1084034 0.1100397
vt 0.1084034 0.1439514
vt 0.2731176 0.1100397
vt 0.1084034 0.1439514
vt 0.1084034 0.2602161
vt 0.2731176 0.2602161
vt 0.0282703 0.0912022
vt 0.0492703 0.0868787
vt 0.0492703 0.0912022
vt 0.0282703 0.2413787
vt 0.0492703 0.0868787
vt 0.0492703 0.2413787
vt 0.0492703 0.0912022
vt 0.0492703 0.0912022
vt 0.0492703 0.1207904
vt 0.0492703 0.1207904
vt 0.0492703 0.0912022
vt 0.0492703 0.1251140
vt 0.2139846 0.0912022
vt 0.0492703 0.1251140
vt 0.0492703 0.2413787
vt 0.2139846 0.2413787
vt 0.0871771 0.0482505
vt 0.1081771 0.0439269
vt 0.1081771 0.0482505
vt 0.0871771 0.1984269
vt 0.1081771 0.0439269
vt 0.1081771 0.1984269
vt 0.1081771 0.0482505
vt 0.1081771 0.0482505
vt 0.1081771 0.0778387
vt 0.1081771 0.0778387
vt 0.1081771 0.0482505
vt 0.1081771 0.0821622
vt 0.2728914 0.0482505
vt 0.1081771 0.0821622
vt 0.1081771 0.1984269
vt 0.2728914 0.1984269
vt 0.1233158 0.1174555
vt 0.1443158 0.1174555
vt 0.1233158 0.1174555
vt 0.2023158 0.1174555
vt 0.1114777 0.0405429
vt 0.1324777 0.0405429
vt 0.1114777 0.0405429
vt 0.1904777 0.0405429
vt 0.1443158 0.1174555
vt 0.1443158 0.1174555
vt 0.1324777 0.0405429
vt 0.1324777 0.0405429
vt 0.2880301 0.1174555
vt 0.2880301 0.1174555
vt 0.2761920 0.0405429
vt 0.2761920 0.0405429
vt 0.1443158 0.1174555
vt 0.3090301 0.1174555
vt 0.2023158 0.1174555
vt 0.3090301 0.1174555
vt 0.1324777 0.0405429
vt 0.2971920 0.0405429
vt 0.1904777 0.0405429
vt 0.2971920 0.0405429
vt 0.1282885 0.1324605
vt 0.1492885 0.1324605
vt 0.1282885 0.1324605
vt 0.2072885 0.1324605
vt 0.0577102 0.0798810
vt 0.0787102 0.0798810
vt 0.0577102 0.0798810
vt 0.1367102 0.0798810
vt 0.1492885 0.1324605
vt 0.1492885 0.1324605
vt 0.0787102 0.0798810
vt 0.0787102 0.0798810
vt 0.2930028 0.1324605
vt 0.2930028 0.1324605
vt 0.2224245 0.0798810
vt 0.2224245 0.0798810
vt 0.1492885 0.1324605
vt 0.3140028 0.1324605
vt 0.2072885 0.1324605
vt 0.3140028 0.1324605
vt 0.0787102 0.0798810
vt 0.2434245 0.0798810
vt 0.1367102 0.0798810
vt 0.2434245 0.0798810
vt 0.0675259 0.1228641
vt 0.0885259 0.1228641
vt 0.0675259 0.1228641
vt 0.1465259 0.1228641
vt 0.0442984 0.0461651
vt 0.0652984 0.0461651
vt 0.0442984 0.0461651
vt 0.1232984 0.0461651
vt 0.0885259 0.1228641
vt 0.0885259 0.1228641
vt 0.0652984 0.0461651
vt 0.0652984 0.0461651
vt 0.2322402 0.1228641
vt 0.2322402 0.1228641
vt 0.2090127 0.0461651
vt 0.2090127 0.0461651
vt 0.0885259 0.1228641
vt 0.2532402 0.1228641
vt 0.1465259 0.1228641
vt 0.2532402 0.1228641
vt 0.0652984 0.0461651
vt 0.2300127 0.0461651
vt 0.1232984 0.0461651
vt 0.2300127 0.0461651
vt 0.1183899 0.0547937
vt 0.1183899 0.0588084
vt 0.1183899 0.0547937
vt 0.1183899 0.0919555
vt 0.2793899 0.0547937
vt 0.1474808 0.0339006
vt 0.1474808 0.0379153
vt 0.1474808 0.0339006
vt 0.1474808 0.0710623
vt 0.3084808 0.0339006
vt 0.1484427 0.0249899
vt 0.1484427 0.0290046
vt 0.1484427 0.0249899
vt 0.1484427 0.0621516
vt 0.3094427 0.0249899
vt 0.1183899 0.0547937
vt 0.1722470 0.0547937
vt 0.1722470 0.0588084
vt 0.1722470 0.0547937
vt 0.1722470 0.0919555
vt 0.2793899 0.0547937
vt 0.1474808 0.0339006
vt 0.2013380 0.0339006
vt 0.2013380 0.0379153
vt 0.2013380 0.0339006
vt 0.2013380 0.0710623
vt 0.3084808 0.0339006
vt 0.1484427 0.0249899
vt 0.2022998 0.0249899
vt 0.2022998 0.0290046
vt 0.2022998 0.0249899
vt 0.2022998 0.0621516
vt 0.3094427 0.0249899
vt 0.1183899 0.0588084
vt 0.2793899 0.0588084
vt 0.1474808 0.0379153
vt 0.3084808 0.0379153
vt 0.1484427 0.0290046
vt 0.3094427 0.0290046
vt 0.0988899 0.0588084
vt 0.1183899 0.0588084
vt 0.1183899 0.0588084
vt 0.2988899 0.0588084
vt 0.1279808 0.0379153
vt 0.1474808 0.0379153
vt 0.1474808 0.0379153
vt 0.3279808 0.0379153
vt 0.1289427 0.0290046
vt 0.1484427 0.0290046
vt 0.1484427 0.0290046
vt 0.3289427 0.0290046
vt 0.0988899 0.0588084
vt 0.1722470 0.0588084
vt 0.1722470 0.0588084
vt 0.2988899 0.0588084
vt 0.1279808 0.0379153
vt 0.2013380 0.0379153
vt 0.2013380 0.0379153
vt 0.3279808 0.0379153
vt 0.1289427 0.0290046
vt 0.2022998 0.0290046
vt 0.2022998 0.0290046
vt 0.3289427 0.0290046
vt 0.1183899 0.0588084
vt 0.2793899 0.0588084
vt 0.1474808 0.0379153
vt 0.3084808 0.0379153
vt 0.1484427 0.0290046
vt 0.3094427 0.0290046
vt 0.0874034 0.1100397
vt 0.1664034 0.1057161
vt 0.1664034 0.1100397
vt 0.0874034 0.2602161
vt 0.1664034 0.1057161
vt 0.1664034 0.2602161
vt 0.1664034 0.1100397
vt 0.1664034 0.1100397
vt 0.1664034 0.1396279
vt 0.1664034 0.1396279
vt 0.1664034 0.1100397
vt 0.1664034 0.1439514
vt 0.2731176 0.1100397
vt 0.1664034 0.1439514
vt 0.1664034 0.2602161
vt 0.2731176 0.2602161
vt 0.0282703 0.0912022
vt 0.1072703 0.0868787
vt 0.1072703 0.0912022
vt 0.0282703 0.2413787
vt 0.1072703 0.0868787
vt 0.1072703 0.2413787
vt 0.1072703 0.0912022
vt 0.1072703 0.0912022
vt 0.1072703 0.1207904
vt 0.1072703 0.1207904
vt 0.1072703 0.0912022
vt 0.1072703 0.1251140
vt 0.2139846 0.0912022
vt 0.1072703 0.1251140
vt 0.1072703 0.2413787
vt 0.2139846 0.2413787
vt 0.0871771 0.0482505
vt 0.1661771 0.0439269
vt 0.1661771 0.0482505
vt 0.0871771 0.1984269
vt 0.1661771 0.0439269
vt 0.1661771 0.1984269
vt 0.1661771 0.0482505
vt 0.1661771 0.0482505
vt 0.1661771 0.0778387
vt 0.1661771 0.0778387
vt 0.1661771 0.0482505
vt 0.1661771 0.0821622
vt 0.2728914 0.0482505
vt 0.1661771 0.0821622
vt 0.1661771 0.1984269
vt 0.2728914 0.1984269
vt 0.1084034 0.1100397
vt 0.1874034 0.1100397
vt 0.1084034 0.2602161
vt 0.1874034 0.1100397
vt 0.1874034 0.1396279
vt 0.2521176 0.1100397
vt 0.1874034 0.1396279
vt 0.2521176 0.2602161
vt 0.0492703 0.0912022
vt 0.1282703 0.0912022
vt 0.0492703 0.2413787
vt 0.1282703 0.0912022
vt 0.1282703 0.1207904
vt 0.1929846 0.0912022
vt 0.1282703 0.1207904
vt 0.1929846 0.2413787
vt 0.1081771 0.0482505
vt 0.1871771 0.0482505
vt 0.1081771 0.1984269
vt 0.1871771 0.0482505
vt 0.1871771 0.0778387
vt 0.2518914 0.0482505
vt 0.1871771 0.0778387
vt 0.2518914 0.1984269
vt 0.1097676 0.0950752
vt 0.1307676 0.0907517
vt 0.1307676 0.0950752
vt 0.1097676 0.2658399
vt 0.1307676 0.0907517
vt 0.1307676 0.2658399
vt 0.1097676 0.0950752
vt 0.1887676 0.0907517
vt 0.1887676 0.0950752
vt 0.1097676 0.2658399
vt 0.1887676 0.0907517
vt 0.1887676 0.2658399
vt 0.1097676 0.0950752
vt 0.1307676 0.0950752
vt 0.1097676 0.0950752
vt 0.1307676 0.2658399
vt 0.1307676 0.0950752
vt 0.1307676 0.0950752
vt 0.1887676 0.0950752
vt 0.1887676 0.0950752
vt 0.1307676 0.0950752
vt 0.2097676 0.0950752
vt 0.1307676 0.2658399
vt 0.2097676 0.0950752
vt 0.1097676 0.1276046
vt 0.2887676 0.0950752
vt 0.1097676 0.1276046
vt 0.2887676 0.2658399
vt 0.1307676 0.1276046
vt 0.1307676 0.1276046
vt 0.1887676 0.1276046
vt 0.1887676 0.1276046
vt 0.2097676 0.1276046
vt 0.2887676 0.0950752
vt 0.2097676 0.1276046
vt 0.2887676 0.2658399
vt 0.1307676 0.0950752
vt 0.1307676 0.1319281
vt 0.3097676 0.0950752
vt 0.1307676 0.1319281
vt 0.1307676 0.2658399
vt 0.3097676 0.2658399
vt 0.1887676 0.0950752
vt 0.1887676 0.1319281
vt 0.3097676 0.0950752
vt 0.1887676 0.1319281
vt 0.1887676 0.2658399
vt 0.3097676 0.2658399
vt 0.1044185 0.1154127
vt 0.1254185 0.1110892
vt 0.1254185 0.1154127
vt 0.1044185 0.2861774
vt 0.1254185 0.1110892
vt 0.1254185 0.2861774
vt 0.1044185 0.1154127
vt 0.1834185 0.1110892
vt 0.1834185 0.1154127
vt 0.1044185 0.2861774
vt 0.1834185 0.1110892
vt 0.1834185 0.2861774
vt 0.1044185 0.1154127
vt 0.1254185 0.1154127
vt 0.1044185 0.1154127
vt 0.1254185 0.2861774
vt 0.1254185 0.1154127
vt 0.1254185 0.1154127
vt 0.1834185 0.1154127
vt 0.1834185 0.1154127
vt 0.1254185 0.1154127
vt 0.2044185 0.1154127
vt 0.1254185 0.2861774
vt 0.2044185 0.1154127
vt 0.1044185 0.1479421
vt 0.2834185 0.1154127
vt 0.1044185 0.1479421
vt 0.2834185 0.2861774
vt 0.1254185 0.1479421
vt 0.1254185 0.1479421
vt 0.1834185 0.1479421
vt 0.1834185 0.1479421
vt 0.2044185 0.1479421
vt 0.2834185 0.1154127
vt 0.2044185 0.1479421
vt 0.2834185 0.2861774
vt 0.1254185 0.1154127
vt 0.1254185 0.1522656
vt 0.3044185 0.1154127
vt 0.1254185 0.1522656
vt 0.1254185 0.2861774
vt 0.3044185 0.2861774
vt 0.1834185 0.1154127
vt 0.1834185 0.1522656
vt 0.3044185 0.1154127
vt 0.1834185 0.1522656
vt 0.1834185 0.2861774
vt 0.3044185 0.2861774
vt 0.0811902 0.0891309
vt 0.1021902 0.0891309
vt 0.0811902 0.0891309
vt 0.1021902 0.2393073
vt 0.0811902 0.1187191
vt 0.2459045 0.0891309
vt 0.0811902 0.1187191
vt 0.2459045 0.2393073
vt 0.1299522 0.1184209
vt 0.1509522 0.1184209
vt 0.1299522 0.1184209
vt 0.1509522 0.2685974
vt 0.1299522 0.1480091
vt 0.2946665 0.1184209
vt 0.1299522 0.1480091
vt 0.2946665 0.2685974
vt 0.1268081 0.0392595
vt 0.1478081 0.0392595
vt 0.1268081 0.0392595
vt 0.1478081 0.1894360
vt 0.1268081 0.0688477
vt 0.2915224 0.0392595
vt 0.1268081 0.0688477
vt 0.2915224 0.1894360
vt 0.0811902 0.0891309
vt 0.1021902 0.0848073
vt 0.1021902 0.0891309
vt 0.0811902 0.2393073
vt 0.1021902 0.0848073
vt 0.1021902 0.2393073
vt 0.1021902 0.0891309
vt 0.1021902 0.0891309
vt 0.1021902 0.1187191
vt 0.1021902 0.1187191
vt 0.1021902 0.0891309
vt 0.1021902 0.1230426
vt 0.2669045 0.0891309
vt 0.1021902 0.1230426
vt 0.1021902 0.2393073
vt 0.2669045 0.2393073
vt 0.1299522 0.1184209
vt 0.1509522 0.1140974
vt 0.1509522 0.1184209
vt 0.1299522 0.2685974
vt 0.1509522 0.1140974
vt 0.1509522 0.2685974
vt 0.1509522 0.1184209
vt 0.1509522 0.1184209
vt 0.1509522 0.1480091
vt 0.1509522 0.1480091
vt 0.1509522 0.1184209
vt 0.1509522 0.1523326
vt 0.3156665 0.1184209
vt 0.1509522 0.1523326
vt 0.1509522 0.2685974
vt 0.3156665 0.2685974
vt 0.1268081 0.0392595
vt 0.1478081 0.0349360
vt 0.1478081 0.0392595
vt 0.1268081 0.1894360
vt 0.1478081 0.0349360
vt 0.1478081 0.1894360
vt 0.1478081 0.0392595
vt 0.1478081 0.0392595
vt 0.1478081 0.0688477
vt 0.1478081 0.0688477
vt 0.1478081 0.0392595
vt 0.1478081 0.0731712
vt 0.3125224 0.0392595
vt 0.1478081 0.0731712
vt 0.1478081 0.1894360
vt 0.3125224 0.1894360
vt 0.1183899 0.4037202
vt 0.2793899 0.4037202
vt 0.1474808 0.3828271
vt 0.3084808 0.3828271
vt 0.1484427 0.3739164
vt 0.3094427 0.3739164
vt 0.0988899 0.4037202
vt 0.1183899 0.4037202
vt 0.1183899 0.4037202
vt 0.2988899 0.4037202
vt 0.1279808 0.3828271
vt 0.1474808 0.3828271
vt 0.1474808 0.3828271
vt 0.3279808 0.3828271
vt 0.1289427 0.3739164
vt 0.1484427 0.3739164
vt 0.1484427 0.3739164
vt 0.3289427 0.3739164
vt 0.0988899 0.4037202
vt 0.1722470 0.4037202
vt 0.1722470 0.4037202
vt 0.2988899 0.4037202
vt 0.1279808 0.3828271
vt 0.2013380 0.3828271
vt 0.2013380 0.3828271
vt 0.3279808 0.3828271
vt 0.1289427 0.3739164
vt 0.2022998 0.3739164
vt 0.2022998 0.3739164
vt 0.3289427 0.3739164
vt 0.1183899 0.4037202
vt 0.2793899 0.4037202
vt 0.1474808 0.3828271
vt 0.3084808 0.3828271
vt 0.1484427 0.3739164
vt 0.3094427 0.3739164
vt 0.1183899 0.0588084
vt 0.1183899 0.4077349
vt 0.1183899 0.0919555
vt 0.1183899 0.4077349
vt 0.2793899 0.4077349
vt 0.1474808 0.0379153
vt 0.1474808 0.3868418
vt 0.1474808 0.0710623
vt 0.1474808 0.3868418
vt 0.3084808 0.3868418
vt 0.1484427 0.0290046
vt 0.1484427 0.3779311
vt 0.1484427 0.0621516
vt 0.1484427 0.3779311
vt 0.3094427 0.3779311
vt 0.1183899 0.4077349
vt 0.1722470 0.0588084
vt 0.1722470 0.4077349
vt 0.1722470 0.0919555
vt 0.1722470 0.4077349
vt 0.2793899 0.4077349
vt 0.1474808 0.3868418
vt 0.2013380 0.0379153
vt 0.2013380 0.3868418
vt 0.2013380 0.0710623
vt 0.2013380 0.3868418
vt 0.3084808 0.3868418
vt 0.1484427 0.3779311
vt 0.2022998 0.0290046
vt 0.2022998 0.3779311
vt 0.2022998 0.0621516
vt 0.2022998 0.3779311
vt 0.3094427 0.3779311
vt 0.1233158 0.4735143
vt 0.1443158 0.4735143
vt 0.1233158 0.4735143
vt 0.2023158 0.4735143
vt 0.1114777 0.3966018
vt 0.1324777 0.3966018
vt 0.1114777 0.3966018
vt 0.1904777 0.3966018
vt 0.1443158 0.4735143
vt 0.1443158 0.4735143
vt 0.1324777 0.3966018
vt 0.1324777 0.3966018
vt 0.2880301 0.4735143
vt 0.2880301 0.4735143
vt 0.2761920 0.3966018
vt 0.2761920 0.3966018
vt 0.1443158 0.4735143
vt 0.3090301 0.4735143
vt 0.2023158 0.4735143
vt 0.3090301 0.4735143
vt 0.1324777 0.3966018
vt 0.2971920 0.3966018
vt 0.1904777 0.3966018
vt 0.2971920 0.3966018
vt 0.1282885 0.4885193
vt 0.1492885 0.4885193
vt 0.1282885 0.4885193
vt 0.2072885 0.4885193
vt 0.0577102 0.4359398
vt 0.0787102 0.4359398
vt 0.0577102 0.4359398
vt 0.1367102 0.4359398
vt 0.1492885 0.4885193
vt 0.1492885 0.4885193
vt 0.0787102 0.4359398
vt 0.0787102 0.4359398
vt 0.2930028 0.4885193
vt 0.2930028 0.4885193
vt 0.2224245 0.4359398
vt 0.2224245 0.4359398
vt 0.1492885 0.4885193
vt 0.3140028 0.4885193
vt 0.2072885 0.4885193
vt 0.3140028 0.4885193
vt 0.0787102 0.4359398
vt 0.2434245 0.4359398
vt 0.1367102 0.4359398
vt 0.2434245 0.4359398
vt 0.0675259 0.4789229
vt 0.0885259 0.4789229
vt 0.0675259 0.4789229
vt 0.1465259 0.4789229
vt 0.0442984 0.4022239
vt 0.0652984 0.4022239
vt 0.0442984 0.4022239
vt 0.1232984 0.4022239
vt 0.0885259 0.4789229
vt 0.0885259 0.4789229
vt 0.0652984 0.4022239
vt 0.0652984 0.4022239
vt 0.2322402 0.4789229
vt 0.2322402 0.4789229
vt 0.2090127 0.4022239
vt 0.2090127 0.4022239
vt 0.0885259 0.4789229
vt 0.2532402 0.4789229
vt 0.1465259 0.4789229
vt 0.2532402 0.4789229
vt 0.0652984 0.4022239
vt 0.2300127 0.4022239
vt 0.1232984 0.4022239
vt 0.2300127 0.4022239
vt 0.0811902 0.0891309
vt 0.1601902 0.0848073
vt 0.1601902 0.0891309
vt 0.0811902 0.2393073
vt 0.1601902 0.0848073
vt 0.1601902 0.2393073
vt 0.1601902 0.0891309
vt 0.1601902 0.0891309
vt 0.1601902 0.1187191
vt 0.1601902 0.1187191
vt 0.1601902 0.0891309
vt 0.1601902 0.1230426
vt 0.2669045 0.0891309
vt 0.1601902 0.1230426
vt 0.1601902 0.2393073
vt 0.2669045 0.2393073
vt 0.1299522 0.1184209
vt 0.2089522 0.1140974
vt 0.2089522 0.1184209
vt 0.1299522 0.2685974
vt 0.2089522 0.1140974
vt 0.2089522 0.2685974
vt 0.2089522 0.1184209
vt 0.2089522 0.1184209
vt 0.2089522 0.1480091
vt 0.2089522 0.1480091
vt 0.2089522 0.1184209
vt 0.2089522 0.1523326
vt 0.3156665 0.1184209
vt 0.2089522 0.1523326
vt 0.2089522 0.2685974
vt 0.3156665 0.2685974
vt 0.1268081 0.0392595
vt 0.2058081 0.0349360
vt 0.2058081 0.0392595
vt 0.1268081 0.1894360
vt 0.2058081 0.0349360
vt 0.2058081 0.1894360
vt 0.2058081 0.0392595
vt 0.2058081 0.0392595
vt 0.2058081 0.0688477
vt 0.2058081 0.0688477
vt 0.2058081 0.0392595
vt 0.2058081 0.0731712
vt 0.3125224 0.0392595
vt 0.2058081 0.0731712
vt 0.2058081 0.1894360
vt 0.3125224 0.1894360
vt 0.1443158 0.1174555
vt 0.1443158 0.4778379
vt 0.1443158 0.4778379
vt 0.2023158 0.1174555
vt 0.2023158 0.4778379
vt 0.1324777 0.0405429
vt 0.1324777 0.4009253
vt 0.1324777 0.4009253
vt 0.1904777 0.0405429
vt 0.1904777 0.4009253
vt 0.1443158 0.1470437
vt 0.1443158 0.4778379
vt 0.2880301 0.4778379
vt 0.2023158 0.1470437
vt 0.2023158 0.4778379
vt 0.2880301 0.4778379
vt 0.1324777 0.0701312
vt 0.1324777 0.4009253
vt 0.2761920 0.4009253
vt 0.1904777 0.0701312
vt 0.1904777 0.4009253
vt 0.2761920 0.4009253
vt 0.1492885 0.1324605
vt 0.1492885 0.4928428
vt 0.1492885 0.4928428
vt 0.2072885 0.1324605
vt 0.2072885 0.4928428
vt 0.0787102 0.0798810
vt 0.0787102 0.4402634
vt 0.0787102 0.4402634
vt 0.1367102 0.0798810
vt 0.1367102 0.4402634
vt 0.1492885 0.1620487
vt 0.1492885 0.4928428
vt 0.2930028 0.4928428
vt 0.2072885 0.1620487
vt 0.2072885 0.4928428
vt 0.2930028 0.4928428
vt 0.0787102 0.1094692
vt 0.0787102 0.4402634
vt 0.2224245 0.4402634
vt 0.1367102 0.1094692
vt 0.1367102 0.4402634
vt 0.2224245 0.4402634
vt 0.0885259 0.1228641
vt 0.0885259 0.4832464
vt 0.0885259 0.4832464
vt 0.1465259 0.1228641
vt 0.1465259 0.4832464
vt 0.0652984 0.0461651
vt 0.0652984 0.4065475
vt 0.0652984 0.4065475
vt 0.1232984 0.0461651
vt 0.1232984 0.4065475
vt 0.0885259 0.1524523
vt 0.0885259 0.4832464
vt 0.2322402 0.4832464
vt 0.1465259 0.1524523
vt 0.1465259 0.4832464
vt 0.2322402 0.4832464
vt 0.0652984 0.0757534
vt 0.0652984 0.4065475
vt 0.2090127 0.4065475
vt 0.1232984 0.0757534
vt 0.1232984 0.4065475
vt 0.2090127 0.4065475
vt 0.1021902 0.0891309
vt 0.1811902 0.0891309
vt 0.1021902 0.2393073
vt 0.1811902 0.0891309
vt 0.1811902 0.1187191
vt 0.2459045 0.0891309
vt 0.1811902 0.1187191
vt 0.2459045 0.2393073
vt 0.1509522 0.1184209
vt 0.2299522 0.1184209
vt 0.1509522 0.2685974
vt 0.2299522 0.1184209
vt 0.2299522 0.1480091
vt 0.2946665 0.1184209
vt 0.2299522 0.1480091
vt 0.2946665 0.2685974
vt 0.1478081 0.0392595
vt 0.2268081 0.0392595
vt 0.1478081 0.1894360
vt 0.2268081 0.0392595
vt 0.2268081 0.0688477
vt 0.2915224 0.0392595
vt 0.2268081 0.0688477
vt 0.2915224 0.1894360
vn -0.9758920 -0.2136628 -0.0445311
vn -0.9758920 -0.2136628 -0.0445311
vn -0.9973015 -0.0679033 0.0279085
vn -0.9973015 -0.0679033 0.0279085
vn -0.9918722 0.1264573 -0.0140752
vn -0.9918722 0.1264573 -0.0140752
vn -0.9915885 0.1264211 0.0277486
vn -0.9915885 0.1264211 0.0277486
vn -0.9758920 -0.2136628 -0.0445311
vn -0.9758920 -0.2136628 -0.0445311
vn -0.9973015 -0.0679033 0.0279085
vn -0.9973015 -0.0679033 0.0279085
vn -0.9918722 0.1264573 -0.0140752
vn -0.9918722 0.1264573 -0.0140752
vn -0.9915885 0.1264211 0.0277486
vn -0.9915885 0.1264211 0.0277486
vn -0.9758920 -0.2136628 -0.0445311
vn -0.9758920 -0.2136628 -0.0445311
vn -0.9973015 -0.0679033 0.0279085
vn -0.9973015 -0.0679033 0.0279085
vn -0.9918722 0.1264573 -0.0140752
vn -0.9918722 0.1264573 -0.0140752
vn -0.9915885 0.1264211 0.0277486
vn -0.9915885 0.1264211 0.0277486
vn -0.9249625 -0.1542817 -0.3473349
vn -0.9249625 -0.1542817 -0.3473349
vn -0.9643522 -0.0656599 0.2563468
vn -0.9643522 -0.0656599 0.2563468
vn -0.9643522 -0.0656599 0.2563468
vn -0.9249625 -0.1542817 -0.3473349
vn -0.9249625 -0.1542817 -0.3473349
vn -0.9643522 -0.0656599 0.2563468
vn -0.9643522 -0.0656599 0.2563468
vn -0.9643522 -0.0656599 0.2563468
vn -0.9806982 0.1250326 -0.1503260
vn -0.9806982 0.1250326 -0.1503260
vn -0.9806982 0.1250326 -0.1503260
vn -0.9591840 0.1222897 0.2549730
vn -0.9591840 0.1222897 0.2549730
vn -0.9591840 0.1222897 0.2549730
vn -0.9806982 0.1250326 -0.1503260
vn -0.9806982 0.1250326 -0.1503260
vn -0.9806982 0.1250326 -0.1503260
vn -0.9591840 0.1222897 0.2549730
vn -0.9591840 0.1222897 0.2549730
vn -0.9591840 0.1222897 0.2549730
vn -0.9249625 -0.1542817 -0.3473349
vn -0.9249625 -0.1542817 -0.3473349
vn -0.9643522 -0.0656599 0.2563468
vn -0.9643522 -0.0656599 0.2563468
vn -0.9643522 -0.0656599 0.2563468
vn -0.9249625 -0.1542817 -0.3473349
vn -0.9249625 -0.1542817 -0.3473349
vn -0.9643522 -0.0656599 0.2563468
vn -0.9643522 -0.0656599 0.2563468
vn -0.9643522 -0.0656599 0.2563468
vn -0.9806982 0.1250326 -0.1503260
vn -0.9806982 0.1250326 -0.1503260
vn -0.9806982 0.1250326 -0.1503260
vn -0.9591840 0.1222897 0.2549730
vn -0.9591840 0.1222897 0.2549730
vn -0.9591840 0.1222897 0.2549730
vn -0.9806982 0.1250326 -0.1503260
vn -0.9806982 0.1250326 -0.1503260
vn -0.9806982 0.1250326 -0.1503260
vn -0.9591840 0.1222897 0.2549730
vn -0.9591840 0.1222897 0.2549730
vn -0.9591840 0.1222897 0.2549730
vn -0.9249625 -0.1542817 -0.3473349
vn -0.9249625 -0.1542817 -0.3473349
vn -0.9643522 -0.0656599 0.2563468
vn -0.9643522 -0.0656599 0.2563468
vn -0.9643522 -0.0656599 0.2563468
vn -0.9249625 -0.1542817 -0.3473349
vn -0.9249625 -0.1542817 -0.3473349
vn -0.9643522 -0.0656599 0.2563468
vn -0.9643522 -0.0656599 0.2563468
vn -0.9643522 -0.0656599 0.2563468
vn -0.9806982 0.1250326 -0.1503260
vn -0.9806982 0.1250326 -0.1503260
vn -0.9806982 0.1250326 -0.1503260
vn -0.9591840 0.1222897 0.2549730
vn -0.9591840 0.1222897 0.2549730
vn -0.9591840 0.1222897 0.2549730
vn -0.9806982 0.1250326 -0.1503260
vn -0.9806982 0.1250326 -0.1503260
vn -0.9806982 0.1250326 -0.1503260
vn -0.9591840 0.1222897 0.2549730
vn -0.9591840 0.1222897 0.2549730
vn -0.9591840 0.1222897 0.2549730
vn -0.1532692 -0.9880527 -0.0161351
vn -0.1532692 -0.9880527 -0.0161351
vn -0.1532692 -0.9880527 -0.0161351
vn -0.3844595 -0.9229137 0.0205238
vn -0.3844595 -0.9229137 0.0205238
vn -0.3844595 -0.9229137 0.0205238
vn -0.2317633 -0.1927676 -0.9534812
vn -0.1503260 -0.1250326 0.9806982
vn -0.2439790 0.1083724 -0.9637062
vn -0.3473349 0.1542817 0.9249625
vn -0.1532692 0.9880527 -0.0161351
vn -0.1532692 0.9880527 -0.0161351
vn -0.1532692 0.9880527 -0.0161351
vn -0.3844595 0.9229137 0.0205238
vn -0.3844595 0.9229137 0.0205238
vn -0.3844595 0.9229137 0.0205238
vn -0.1532692 -0.9880527 -0.0161351
vn -0.1532692 -0.9880527 -0.0161351
vn -0.1532692 -0.9880527 -0.0161351
vn -0.3844595 -0.9229137 0.0205238
vn -0.3844595 -0.9229137 0.0205238
vn -0.3844595 -0.9229137 0.0205238
vn -0.2317633 -0.1927676 -0.9534812
vn -0.1503260 -0.1250326 0.9806982
vn -0.2439790 0.1083724 -0.9637062
vn -0.3473349 0.1542817 0.9249625
vn -0.1532692 0.9880527 -0.0161351
vn -0.1532692 0.9880527 -0.0161351
vn -0.1532692 0.9880527 -0.0161351
vn -0.3844595 0.9229137 0.0205238
vn -0.3844595 0.9229137 0.0205238
vn -0.3844595 0.9229137 0.0205238
vn -0.1532692 -0.9880527 -0.0161351
vn -0.1532692 -0.9880527 -0.0161351
vn -0.1532692 -0.9880527 -0.0161351
vn -0.3844595 -0.9229137 0.0205238
vn -0.3844595 -0.9229137 0.0205238
vn -0.3844595 -0.9229137 0.0205238
vn -0.2317633 -0.1927676 -0.9534812
vn -0.1503260 -0.1250326 0.9806982
vn -0.2439790 0.1083724 -0.9637062
vn -0.3473349 0.1542817 0.9249625
vn -0.1532692 0.9880527 -0.0161351
vn -0.1532692 0.9880527 -0.0161351
vn -0.1532692 0.9880527 -0.0161351
vn -0.3844595 0.9229137 0.0205238
vn -0.3844595 0.9229137 0.0205238
vn -0.3844595 0.9229137 0.0205238
vn -0.0068721 -0.9883155 -0.1522670
vn -0.0068721 -0.9883155 -0.1522670
vn -0.0199387 -0.9668004 0.2547537
vn -0.0199387 -0.9668004 0.2547537
vn -0.0068721 -0.9883155 -0.1522670
vn -0.0068721 -0.9883155 -0.1522670
vn -0.0199387 -0.9668004 0.2547537
vn -0.0199387 -0.9668004 0.2547537
vn -0.0103943 -0.2195956 -0.9755356
vn -0.0103943 -0.2195956 0.9755356
vn -0.0103943 -0.2195956 -0.9755356
vn -0.0103943 -0.2195956 0.9755356
vn -0.0111509 0.1258101 -0.9919917
vn -0.0111509 0.1258101 0.9919917
vn -0.0111509 0.1258101 -0.9919917
vn -0.0111509 0.1258101 0.9919917
vn -0.0068721 0.9883155 -0.1522670
vn -0.0068721 0.9883155 -0.1522670
vn -0.0199387 0.9668004 0.2547537
vn -0.0199387 0.9668004 0.2547537
vn -0.0068721 0.9883155 -0.1522670
vn -0.0068721 0.9883155 -0.1522670
vn -0.0199387 0.9668004 0.2547537
vn -0.0199387 0.9668004 0.2547537
vn -0.0068721 -0.9883155 -0.1522670
vn -0.0068721 -0.9883155 -0.1522670
vn -0.0199387 -0.9668004 0.2547537
vn -0.0199387 -0.9668004 0.2547537
vn -0.0068721 -0.9883155 -0.1522670
vn -0.0068721 -0.9883155 -0.1522670
vn -0.0199387 -0.9668004 0.2547537
vn -0.0199387 -0.9668004 0.2547537
vn -0.0103943 -0.2195956 -0.9755356
vn -0.0103943 -0.2195956 0.9755356
vn -0.0103943 -0.2195956 -0.9755356
vn -0.0103943 -0.2195956 0.9755356
vn -0.0111509 0.1258101 -0.9919917
vn -0.0111509 0.1258101 0.9919917
vn -0.0111509 0.1258101 -0.9919917
vn -0.0111509 0.1258101 0.9919917
vn -0.0068721 0.9883155 -0.1522670
vn -0.0068721 0.9883155 -0.1522670
vn -0.0199387 0.9668004 0.2547537
vn -0.0199387 0.9668004 0.2547537
vn -0.0068721 0.9883155 -0.1522670
vn -0.0068721 0.9883155 -0.1522670
vn -0.0199387 0.9668004 0.2547537
vn -0.0199387 0.9668004 0.2547537
vn -0.0068721 -0.9883155 -0.1522670
vn -0.0068721 -0.9883155 -0.1522670
vn -0.0199387 -0.9668004 0.2547537
vn -0.0199387 -0.9668004 0.2547537
vn -0.0068721 -0.9883155 -0.1522670
vn -0.0068721 -0.9883155 -0.1522670
vn -0.0199387 -0.9668004 0.2547537
vn -0.0199387 -0.9668004 0.2547537
vn -0.0103943 -0.2195956 -0.9755356
vn -0.0103943 -0.2195956 0.9755356
vn -0.0103943 -0.2195956 -0.9755356
vn -0.0103943 -0.2195956 0.9755356
vn -0.0111509 0.1258101 -0.9919917
vn -0.0111509 0.1258101 0.9919917
vn -0.0111509 0.1258101 -0.9919917
vn -0.0111509 0.1258101 0.9919917
vn -0.0068721 0.9883155 -0.1522670
vn -0.0068721 0.9883155 -0.1522670
vn -0.0199387 0.9668004 0.2547537
vn -0.0199387 0.9668004 0.2547537
vn -0.0068721 0.9883155 -0.1522670
vn -0.0068721 0.9883155 -0.1522670
vn -0.0199387 0.9668004 0.2547537
vn -0.0199387 0.9668004 0.2547537
vn -0.9260013 -0.3537713 -0.1317856
vn -0.9260013 -0.3537713 -0.1317856
vn -0.9828669 -0.1506584 0.1061823
vn -0.9828669 -0.1506584 0.1061823
vn -0.9828669 -0.1506584 0.1061823
vn -0.9260013 -0.3537713 -0.1317856
vn -0.9260013 -0.3537713 -0.1317856
vn -0.9828669 -0.1506584 0.1061823
vn -0.9828669 -0.1506584 0.1061823
vn -0.9828669 -0.1506584 0.1061823
vn -0.9260013 -0.3537713 -0.1317856
vn -0.9260013 -0.3537713 -0.1317856
vn -0.9828669 -0.1506584 0.1061823
vn -0.9828669 -0.1506584 0.1061823
vn -0.9828669 -0.1506584 0.1061823
vn -0.9649695 0.2565109 -0.0551007
vn -0.9649695 0.2565109 -0.0551007
vn -0.9649695 0.2565109 -0.0551007
vn -0.9612128 0.2555123 0.1038429
vn -0.9612128 0.2555123 0.1038429
vn -0.9612128 0.2555123 0.1038429
vn -0.9649695 0.2565109 -0.0551007
vn -0.9649695 0.2565109 -0.0551007
vn -0.9649695 0.2565109 -0.0551007
vn -0.9612128 0.2555123 0.1038429
vn -0.9612128 0.2555123 0.1038429
vn -0.9612128 0.2555123 0.1038429
vn -0.9649695 0.2565109 -0.0551007
vn -0.9649695 0.2565109 -0.0551007
vn -0.9649695 0.2565109 -0.0551007
vn -0.9612128 0.2555123 0.1038429
vn -0.9612128 0.2555123 0.1038429
vn -0.9612128 0.2555123 0.1038429
vn -0.0061044 -0.9983374 -0.0573170
vn -0.0214205 -0.9941028 0.1063052
vn -0.0061044 -0.9983374 -0.0573170
vn -0.0214205 -0.9941028 0.1063052
vn -0.0061044 -0.9983374 -0.0573170
vn -0.0214205 -0.9941028 0.1063052
vn -0.0084047 -0.3861170 -0.9224115
vn -0.0084047 -0.3861170 -0.9224115
vn -0.0055919 -0.2568971 0.9664226
vn -0.0055919 -0.2568971 0.9664226
vn -0.0084047 -0.3861170 -0.9224115
vn -0.0084047 -0.3861170 -0.9224115
vn -0.0055919 -0.2568971 0.9664226
vn -0.0055919 -0.2568971 0.9664226
vn -0.0084047 -0.3861170 -0.9224115
vn -0.0084047 -0.3861170 -0.9224115
vn -0.0055919 -0.2568971 0.9664226
vn -0.0055919 -0.2568971 0.9664226
vn -0.0096588 0.2558738 -0.9666619
vn -0.0096588 0.2558738 -0.9666619
vn -0.0191291 0.2548429 0.9667932
vn -0.0191291 0.2548429 0.9667932
vn -0.0096588 0.2558738 -0.9666619
vn -0.0096588 0.2558738 -0.9666619
vn -0.0191291 0.2548429 0.9667932
vn -0.0191291 0.2548429 0.9667932
vn -0.0096588 0.2558738 -0.9666619
vn -0.0096588 0.2558738 -0.9666619
vn -0.0191291 0.2548429 0.9667932
vn -0.0191291 0.2548429 0.9667932
vn -0.0114386 0.9941500 -0.1074012
vn -0.0108281 0.9942155 0.1068568
vn -0.0114386 0.9941500 -0.1074012
vn -0.0108281 0.9942155 0.1068568
vn -0.0114386 0.9941500 -0.1074012
vn -0.0108281 0.9942155 0.1068568
vn 0.2517946 -0.9666884 -0.0459682
vn 0.2517946 -0.9666884 -0.0459682
vn 0.2517946 -0.9666884 -0.0459682
vn 0.2543540 -0.9668245 0.0235472
vn 0.2543540 -0.9668245 0.0235472
vn 0.2543540 -0.9668245 0.0235472
vn 0.1594758 -0.0764875 -0.9842343
vn 0.2549730 -0.1222897 0.9591840
vn 0.3729080 0.0955156 -0.9229390
vn 0.2563468 0.0656599 0.9643522
vn 0.2517946 0.9666884 -0.0459682
vn 0.2517946 0.9666884 -0.0459682
vn 0.2517946 0.9666884 -0.0459682
vn 0.2543540 0.9668245 0.0235472
vn 0.2543540 0.9668245 0.0235472
vn 0.2543540 0.9668245 0.0235472
vn 0.2517946 -0.9666884 -0.0459682
vn 0.2517946 -0.9666884 -0.0459682
vn 0.2517946 -0.9666884 -0.0459682
vn 0.2543540 -0.9668245 0.0235472
vn 0.2543540 -0.9668245 0.0235472
vn 0.2543540 -0.9668245 0.0235472
vn 0.1594758 -0.0764875 -0.9842343
vn 0.2549730 -0.1222897 0.9591840
vn 0.3729080 0.0955156 -0.9229390
vn 0.2563468 0.0656599 0.9643522
vn 0.2517946 0.9666884 -0.0459682
vn 0.2517946 0.9666884 -0.0459682
vn 0.2517946 0.9666884 -0.0459682
vn 0.2543540 0.9668245 0.0235472
vn 0.2543540 0.9668245 0.0235472
vn 0.2543540 0.9668245 0.0235472
vn 0.2517946 -0.9666884 -0.0459682
vn 0.2517946 -0.9666884 -0.0459682
vn 0.2517946 -0.9666884 -0.0459682
vn 0.2543540 -0.9668245 0.0235472
vn 0.2543540 -0.9668245 0.0235472
vn 0.2543540 -0.9668245 0.0235472
vn 0.1594758 -0.0764875 -0.9842343
vn 0.2549730 -0.1222897 0.9591840
vn 0.3729080 0.0955156 -0.9229390
vn 0.2563468 0.0656599 0.9643522
vn 0.2517946 0.9666884 -0.0459682
vn 0.2517946 0.9666884 -0.0459682
vn 0.2517946 0.9666884 -0.0459682
vn 0.2543540 0.9668245 0.0235472
vn 0.2543540 0.9668245 0.0235472
vn 0.2543540 0.9668245 0.0235472
vn 0.9758920 -0.2136628 -0.0445311
vn 0.9758920 -0.2136628 -0.0445311
vn 0.9973015 -0.0679033 0.0279085
vn 0.9973015 -0.0679033 0.0279085
vn 0.9918722 0.1264573 -0.0140752
vn 0.9918722 0.1264573 -0.0140752
vn 0.9915885 0.1264211 0.0277486
vn 0.9915885 0.1264211 0.0277486
vn 0.9758920 -0.2136628 -0.0445311
vn 0.9758920 -0.2136628 -0.0445311
vn 0.9973015 -0.0679033 0.0279085
vn 0.9973015 -0.0679033 0.0279085
vn 0.9918722 0.1264573 -0.0140752
vn 0.9918722 0.1264573 -0.0140752
vn 0.9915885 0.1264211 0.0277486
vn 0.9915885 0.1264211 0.0277486
vn 0.9758920 -0.2136628 -0.0445311
vn 0.9758920 -0.2136628 -0.0445311
vn 0.9973015 -0.0679033 0.0279085
vn 0.9973015 -0.0679033 0.0279085
vn 0.9918722 0.1264573 -0.0140752
vn 0.9918722 0.1264573 -0.0140752
vn 0.9915885 0.1264211 0.0277486
vn 0.9915885 0.1264211 0.0277486
vn -0.9244635 -0.3800088 -0.0309914
vn -0.9244635 -0.3800088 -0.0309914
vn -0.9244635 -0.3800088 -0.0309914
vn -0.9881606 -0.1514699 0.0244011
vn -0.9881606 -0.1514699 0.0244011
vn -0.9881606 -0.1514699 0.0244011
vn -0.9663672 0.2568824 -0.0120806
vn -0.9663672 0.2568824 -0.0120806
vn -0.9663672 0.2568824 -0.0120806
vn -0.9661626 0.2568280 0.0238579
vn -0.9661626 0.2568280 0.0238579
vn -0.9661626 0.2568280 0.0238579
vn -0.0629140 -0.9979311 -0.0132423
vn -0.0629140 -0.9979311 -0.0132423
vn -0.2035432 -0.9788257 0.0216889
vn -0.2035432 -0.9788257 0.0216889
vn -0.0877234 -0.3742125 -0.9231845
vn -0.0877234 -0.3742125 0.9231845
vn -0.0996533 0.2451326 -0.9643543
vn -0.0996533 0.2451326 0.9643543
vn -0.1164843 0.9928899 -0.0245179
vn -0.1164843 0.9928899 -0.0245179
vn -0.1165103 0.9931119 0.0124150
vn -0.1165103 0.9931119 0.0124150
vn 0.1139501 -0.9924598 -0.0451551
vn 0.1139501 -0.9924598 -0.0451551
vn 0.1152338 -0.9930694 0.0231173
vn 0.1152338 -0.9930694 0.0231173
vn 0.1151920 -0.1505064 -0.9818751
vn 0.1151920 -0.1505064 0.9818751
vn 0.1126591 0.2552656 -0.9602850
vn 0.1126591 0.2552656 0.9602850
vn 0.0621750 0.9977611 -0.0246381
vn 0.0621750 0.9977611 -0.0246381
vn 0.1996826 0.9790414 0.0400588
vn 0.1996826 0.9790414 0.0400588
vn 0.9228242 -0.3847961 -0.0180961
vn 0.9228242 -0.3847961 -0.0180961
vn 0.9228242 -0.3847961 -0.0180961
vn 0.9881142 -0.1530629 0.0142187
vn 0.9881142 -0.1530629 0.0142187
vn 0.9881142 -0.1530629 0.0142187
vn 0.9668071 0.2546621 -0.0207689
vn 0.9668071 0.2546621 -0.0207689
vn 0.9668071 0.2546621 -0.0207689
vn 0.9667651 0.2524121 0.0406624
vn 0.9667651 0.2524121 0.0406624
vn 0.9667651 0.2524121 0.0406624
vn -0.9244635 -0.3800088 -0.0309914
vn -0.9244635 -0.3800088 -0.0309914
vn -0.9244635 -0.3800088 -0.0309914
vn -0.9881606 -0.1514699 0.0244011
vn -0.9881606 -0.1514699 0.0244011
vn -0.9881606 -0.1514699 0.0244011
vn -0.9663672 0.2568824 -0.0120806
vn -0.9663672 0.2568824 -0.0120806
vn -0.9663672 0.2568824 -0.0120806
vn -0.9661626 0.2568280 0.0238579
vn -0.9661626 0.2568280 0.0238579
vn -0.9661626 0.2568280 0.0238579
vn -0.0629140 -0.9979311 -0.0132423
vn -0.0629140 -0.9979311 -0.0132423
vn -0.2035432 -0.9788257 0.0216889
vn -0.2035432 -0.9788257 0.0216889
vn -0.0877234 -0.3742125 -0.9231845
vn -0.0877234 -0.3742125 0.9231845
vn -0.0996533 0.2451326 -0.9643543
vn -0.0996533 0.2451326 0.9643543
vn -0.1164843 0.9928899 -0.0245179
vn -0.1164843 0.9928899 -0.0245179
vn -0.1165103 0.9931119 0.0124150
vn -0.1165103 0.9931119 0.0124150
vn 0.1139501 -0.9924598 -0.0451551
vn 0.1139501 -0.9924598 -0.0451551
vn 0.1152338 -0.9930694 0.0231173
vn 0.1152338 -0.9930694 0.0231173
vn 0.1151920 -0.1505064 -0.9818751
vn 0.1151920 -0.1505064 0.9818751
vn 0.1126591 0.2552656 -0.9602850
vn 0.1126591 0.2552656 0.9602850
vn 0.0621750 0.9977611 -0.0246381
vn 0.0621750 0.9977611 -0.0246381
vn 0.1996826 0.9790414 0.0400588
vn 0.1996826 0.9790414 0.0400588
vn 0.9228242 -0.3847961 -0.0180961
vn 0.9228242 -0.3847961 -0.0180961
vn 0.9228242 -0.3847961 -0.0180961
vn 0.9881142 -0.1530629 0.0142187
vn 0.9881142 -0.1530629 0.0142187
vn 0.9881142 -0.1530629 0.0142187
vn 0.9668071 0.2546621 -0.0207689
vn 0.9668071 0.2546621 -0.0207689
vn 0.9668071 0.2546621 -0.0207689
vn 0.9667651 0.2524121 0.0406624
vn 0.9667651 0.2524121 0.0406624
vn 0.9667651 0.2524121 0.0406624
vn -0.9758920 -0.2136628 -0.0445311
vn -0.9758920 -0.2136628 -0.0445311
vn -0.9973015 -0.0679033 0.0279085
vn -0.9973015 -0.0679033 0.0279085
vn -0.9918722 0.1264573 -0.0140752
vn -0.9918722 0.1264573 -0.0140752
vn -0.9915885 0.1264211 0.0277486
vn -0.9915885 0.1264211 0.0277486
vn -0.9758920 -0.2136628 -0.0445311
vn -0.9758920 -0.2136628 -0.0445311
vn -0.9973015 -0.0679033 0.0279085
vn -0.9973015 -0.0679033 0.0279085
vn -0.9918722 0.1264573 -0.0140752
vn -0.9918722 0.1264573 -0.0140752
vn -0.9915885 0.1264211 0.0277486
vn -0.9915885 0.1264211 0.0277486
vn -0.9758920 -0.2136628 -0.0445311
vn -0.9758920 -0.2136628 -0.0445311
vn -0.9973015 -0.0679033 0.0279085
vn -0.9973015 -0.0679033 0.0279085
vn -0.9918722 0.1264573 -0.0140752
vn -0.9918722 0.1264573 -0.0140752
vn -0.9915885 0.1264211 0.0277486
vn -0.9915885 0.1264211 0.0277486
vn -0.1532692 -0.9880527 -0.0161351
vn -0.1532692 -0.9880527 -0.0161351
vn -0.1532692 -0.9880527 -0.0161351
vn -0.3844595 -0.9229137 0.0205238
vn -0.3844595 -0.9229137 0.0205238
vn -0.3844595 -0.9229137 0.0205238
vn -0.2317633 -0.1927676 -0.9534812
vn -0.1503260 -0.1250326 0.9806982
vn -0.2439790 0.1083724 -0.9637062
vn -0.3473349 0.1542817 0.9249625
vn -0.1532692 0.9880527 -0.0161351
vn -0.1532692 0.9880527 -0.0161351
vn -0.1532692 0.9880527 -0.0161351
vn -0.3844595 0.9229137 0.0205238
vn -0.3844595 0.9229137 0.0205238
vn -0.3844595 0.9229137 0.0205238
vn -0.1532692 -0.9880527 -0.0161351
vn -0.1532692 -0.9880527 -0.0161351
vn -0.1532692 -0.9880527 -0.0161351
vn -0.3844595 -0.9229137 0.0205238
vn -0.3844595 -0.9229137 0.0205238
vn -0.3844595 -0.9229137 0.0205238
vn -0.2317633 -0.1927676 -0.9534812
vn -0.1503260 -0.1250326 0.9806982
vn -0.2439790 0.1083724 -0.9637062
vn -0.3473349 0.1542817 0.9249625
vn -0.1532692 0.9880527 -0.0161351
vn -0.1532692 0.9880527 -0.0161351
vn -0.1532692 0.9880527 -0.0161351
vn -0.3844595 0.9229137 0.0205238
vn -0.3844595 0.9229137 0.0205238
vn -0.3844595 0.9229137 0.0205238
vn -0.1532692 -0.9880527 -0.0161351
vn -0.1532692 -0.9880527 -0.0161351
vn -0.1532692 -0.9880527 -0.0161351
vn -0.3844595 -0.9229137 0.0205238
vn -0.3844595 -0.9229137 0.0205238
vn -0.3844595 -0.9229137 0.0205238
vn -0.2317633 -0.1927676 -0.9534812
vn -0.1503260 -0.1250326 0.9806982
vn -0.2439790 0.1083724 -0.9637062
vn -0.3473349 0.1542817 0.9249625
vn -0.1532692 0.9880527 -0.0161351
vn -0.1532692 0.9880527 -0.0161351
vn -0.1532692 0.9880527 -0.0161351
vn -0.3844595 0.9229137 0.0205238
vn -0.3844595 0.9229137 0.0205238
vn -0.3844595 0.9229137 0.0205238
vn 0.0102047 -0.9816283 -0.1905301
vn 0.0108281 -0.9942155 0.1068568
vn 0.0102047 -0.9816283 -0.1905301
vn 0.0108281 -0.9942155 0.1068568
vn 0.0102047 -0.9816283 -0.1905301
vn 0.0108281 -0.9942155 0.1068568
vn 0.0113723 -0.1515052 -0.9883910
vn 0.0113723 -0.1515052 -0.9883910
vn 0.0111190 -0.2568853 0.9663779
vn 0.0111190 -0.2568853 0.9663779
vn 0.0113723 -0.1515052 -0.9883910
vn 0.0113723 -0.1515052 -0.9883910
vn 0.0111190 -0.2568853 0.9663779
vn 0.0111190 -0.2568853 0.9663779
vn 0.0113723 -0.1515052 -0.9883910
vn 0.0113723 -0.1515052 -0.9883910
vn 0.0111190 -0.2568853 0.9663779
vn 0.0111190 -0.2568853 0.9663779
vn 0.0111190 0.2568853 -0.9663779
vn 0.0111190 0.2568853 -0.9663779
vn 0.0096588 0.2558738 0.9666619
vn 0.0096588 0.2558738 0.9666619
vn 0.0111190 0.2568853 -0.9663779
vn 0.0111190 0.2568853 -0.9663779
vn 0.0096588 0.2558738 0.9666619
vn 0.0096588 0.2558738 0.9666619
vn 0.0111190 0.2568853 -0.9663779
vn 0.0111190 0.2568853 -0.9663779
vn 0.0096588 0.2558738 0.9666619
vn 0.0096588 0.2558738 0.9666619
vn 0.0057527 0.9941985 -0.1074065
vn 0.0214205 0.9941028 0.1063052
vn 0.0057527 0.9941985 -0.1074065
vn 0.0214205 0.9941028 0.1063052
vn 0.0057527 0.9941985 -0.1074065
vn 0.0214205 0.9941028 0.1063052
vn 0.9233576 -0.3753782 -0.0806345
vn 0.9233576 -0.3753782 -0.0806345
vn 0.9828669 -0.1506584 0.1061823
vn 0.9828669 -0.1506584 0.1061823
vn 0.9828669 -0.1506584 0.1061823
vn 0.9233576 -0.3753782 -0.0806345
vn 0.9233576 -0.3753782 -0.0806345
vn 0.9828669 -0.1506584 0.1061823
vn 0.9828669 -0.1506584 0.1061823
vn 0.9828669 -0.1506584 0.1061823
vn 0.9233576 -0.3753782 -0.0806345
vn 0.9233576 -0.3753782 -0.0806345
vn 0.9828669 -0.1506584 0.1061823
vn 0.9828669 -0.1506584 0.1061823
vn 0.9828669 -0.1506584 0.1061823
vn 0.9648796 0.2461671 -0.0917012
vn 0.9648796 0.2461671 -0.0917012
vn 0.9648796 0.2461671 -0.0917012
vn 0.9612128 0.2555123 0.1038429
vn 0.9612128 0.2555123 0.1038429
vn 0.9612128 0.2555123 0.1038429
vn 0.9648796 0.2461671 -0.0917012
vn 0.9648796 0.2461671 -0.0917012
vn 0.9648796 0.2461671 -0.0917012
vn 0.9612128 0.2555123 0.1038429
vn 0.9612128 0.2555123 0.1038429
vn 0.9612128 0.2555123 0.1038429
vn 0.9648796 0.2461671 -0.0917012
vn 0.9648796 0.2461671 -0.0917012
vn 0.9648796 0.2461671 -0.0917012
vn 0.9612128 0.2555123 0.1038429
vn 0.9612128 0.2555123 0.1038429
vn 0.9612128 0.2555123 0.1038429
vn 0.0087646 -0.9224284 -0.3860686
vn 0.0087646 -0.9224284 -0.3860686
vn 0.0100719 -0.9666695 0.2558293
vn 0.0100719 -0.9666695 0.2558293
vn 0.0087646 -0.9224284 -0.3860686
vn 0.0087646 -0.9224284 -0.3860686
vn 0.0100719 -0.9666695 0.2558293
vn 0.0100719 -0.9666695 0.2558293
vn 0.0119685 -0.0679249 -0.9976186
vn 0.0064278 -0.0683085 0.9976435
vn 0.0119685 -0.0679249 -0.9976186
vn 0.0064278 -0.0683085 0.9976435
vn 0.0118999 0.1264608 -0.9919002
vn 0.0220516 0.1251499 0.9918928
vn 0.0118999 0.1264608 -0.9919002
vn 0.0220516 0.1251499 0.9918928
vn 0.0087646 0.9224284 -0.3860686
vn 0.0087646 0.9224284 -0.3860686
vn 0.0100719 0.9666695 0.2558293
vn 0.0100719 0.9666695 0.2558293
vn 0.0087646 0.9224284 -0.3860686
vn 0.0087646 0.9224284 -0.3860686
vn 0.0100719 0.9666695 0.2558293
vn 0.0100719 0.9666695 0.2558293
vn 0.0087646 -0.9224284 -0.3860686
vn 0.0087646 -0.9224284 -0.3860686
vn 0.0100719 -0.9666695 0.2558293
vn 0.0100719 -0.9666695 0.2558293
vn 0.0087646 -0.9224284 -0.3860686
vn 0.0087646 -0.9224284 -0.3860686
vn 0.0100719 -0.9666695 0.2558293
vn 0.0100719 -0.9666695 0.2558293
vn 0.0119685 -0.0679249 -0.9976186
vn 0.0064278 -0.0683085 0.9976435
vn 0.0119685 -0.0679249 -0.9976186
vn 0.0064278 -0.0683085 0.9976435
vn 0.0118999 0.1264608 -0.9919002
vn 0.0220516 0.1251499 0.9918928
vn 0.0118999 0.1264608 -0.9919002
vn 0.0220516 0.1251499 0.9918928
vn 0.0087646 0.9224284 -0.3860686
vn 0.0087646 0.9224284 -0.3860686
vn 0.0100719 0.9666695 0.2558293
vn 0.0100719 0.9666695 0.2558293
vn 0.0087646 0.9224284 -0.3860686
vn 0.0087646 0.9224284 -0.3860686
vn 0.0100719 0.9666695 0.2558293
vn 0.0100719 0.9666695 0.2558293
vn 0.0087646 -0.9224284 -0.3860686
vn 0.0087646 -0.9224284 -0.3860686
vn 0.0100719 -0.9666695 0.2558293
vn 0.0100719 -0.9666695 0.2558293
vn 0.0087646 -0.9224284 -0.3860686
vn 0.0087646 -0.9224284 -0.3860686
vn 0.0100719 -0.9666695 0.2558293
vn 0.0100719 -0.9666695 0.2558293
vn 0.0119685 -0.0679249 -0.9976186
vn 0.0064278 -0.0683085 0.9976435
vn 0.0119685 -0.0679249 -0.9976186
vn 0.0064278 -0.0683085 0.9976435
vn 0.0118999 0.1264608 -0.9919002
vn 0.0220516 0.1251499 0.9918928
vn 0.0118999 0.1264608 -0.9919002
vn 0.0220516 0.1251499 0.9918928
vn 0.0087646 0.9224284 -0.3860686
vn 0.0087646 0.9224284 -0.3860686
vn 0.0100719 0.9666695 0.2558293
vn 0.0100719 0.9666695 0.2558293
vn 0.0087646 0.9224284 -0.3860686
vn 0.0087646 0.9224284 -0.3860686
vn 0.0100719 0.9666695 0.2558293
vn 0.0100719 0.9666695 0.2558293
vn 0.2517946 -0.9666884 -0.0459682
vn 0.2517946 -0.9666884 -0.0459682
vn 0.2517946 -0.9666884 -0.0459682
vn 0.2543540 -0.9668245 0.0235472
vn 0.2543540 -0.9668245 0.0235472
vn 0.2543540 -0.9668245 0.0235472
vn 0.1594758 -0.0764875 -0.9842343
vn 0.2549730 -0.1222897 0.9591840
vn 0.3729080 0.0955156 -0.9229390
vn 0.2563468 0.0656599 0.9643522
vn 0.2517946 0.9666884 -0.0459682
vn 0.2517946 0.9666884 -0.0459682
vn 0.2517946 0.9666884 -0.0459682
vn 0.2543540 0.9668245 0.0235472
vn 0.2543540 0.9668245 0.0235472
vn 0.2543540 0.9668245 0.0235472
vn 0.2517946 -0.9666884 -0.0459682
vn 0.2517946 -0.9666884 -0.0459682
vn 0.2517946 -0.9666884 -0.0459682
vn 0.2543540 -0.9668245 0.0235472
vn 0.2543540 -0.9668245 0.0235472
vn 0.2543540 -0.9668245 0.0235472
vn 0.1594758 -0.0764875 -0.9842343
vn 0.2549730 -0.1222897 0.9591840
vn 0.3729080 0.0955156 -0.9229390
vn 0.2563468 0.0656599 0.9643522
vn 0.2517946 0.9666884 -0.0459682
vn 0.2517946 0.9666884 -0.0459682
vn 0.2517946 0.9666884 -0.0459682
vn 0.2543540 0.9668245 0.0235472
vn 0.2543540 0.9668245 0.0235472
vn 0.2543540 0.9668245 0.0235472
vn 0.2517946 -0.9666884 -0.0459682
vn 0.2517946 -0.9666884 -0.0459682
vn 0.2517946 -0.9666884 -0.0459682
vn 0.2543540 -0.9668245 0.0235472
vn 0.2543540 -0.9668245 0.0235472
vn 0.2543540 -0.9668245 0.0235472
vn 0.1594758 -0.0764875 -0.9842343
vn 0.2549730 -0.1222897 0.9591840
vn 0.3729080 0.0955156 -0.9229390
vn 0.2563468 0.0656599 0.9643522
vn 0.2517946 0.9666884 -0.0459682
vn 0.2517946 0.9666884 -0.0459682
vn 0.2517946 0.9666884 -0.0459682
vn 0.2543540 0.9668245 0.0235472
vn 0.2543540 0.9668245 0.0235472
vn 0.2543540 0.9668245 0.0235472
vn 0.9534812 -0.1927676 -0.2317633
vn 0.9534812 -0.1927676 -0.2317633
vn 0.9643522 -0.0656599 0.2563468
vn 0.9643522 -0.0656599 0.2563468
vn 0.9643522 -0.0656599 0.2563468
vn 0.9534812 -0.1927676 -0.2317633
vn 0.9534812 -0.1927676 -0.2317633
vn 0.9643522 -0.0656599 0.2563468
vn 0.9643522 -0.0656599 0.2563468
vn 0.9643522 -0.0656599 0.2563468
vn 0.9637062 0.1083724 -0.2439790
vn 0.9637062 0.1083724 -0.2439790
vn 0.9637062 0.1083724 -0.2439790
vn 0.9591840 0.1222897 0.2549730
vn 0.9591840 0.1222897 0.2549730
vn 0.9591840 0.1222897 0.2549730
vn 0.9637062 0.1083724 -0.2439790
vn 0.9637062 0.1083724 -0.2439790
vn 0.9637062 0.1083724 -0.2439790
vn 0.9591840 0.1222897 0.2549730
vn 0.9591840 0.1222897 0.2549730
vn 0.9591840 0.1222897 0.2549730
vn 0.9534812 -0.1927676 -0.2317633
vn 0.9534812 -0.1927676 -0.2317633
vn 0.9643522 -0.0656599 0.2563468
vn 0.9643522 -0.0656599 0.2563468
vn 0.9643522 -0.0656599 0.2563468
vn 0.9534812 -0.1927676 -0.2317633
vn 0.9534812 -0.1927676 -0.2317633
vn 0.9643522 -0.0656599 0.2563468
vn 0.9643522 -0.0656599 0.2563468
vn 0.9643522 -0.0656599 0.2563468
vn 0.9637062 0.1083724 -0.2439790
vn 0.9637062 0.1083724 -0.2439790
vn 0.9637062 0.1083724 -0.2439790
vn 0.9591840 0.1222897 0.2549730
vn 0.9591840 0.1222897 0.2549730
vn 0.9591840 0.1222897 0.2549730
vn 0.9637062 0.1083724 -0.2439790
vn 0.9637062 0.1083724 -0.2439790
vn 0.9637062 0.1083724 -0.2439790
vn 0.9591840 0.1222897 0.2549730
vn 0.9591840 0.1222897 0.2549730
vn 0.9591840 0.1222897 0.2549730
vn 0.9534812 -0.1927676 -0.2317633
vn 0.9534812 -0.1927676 -0.2317633
vn 0.9643522 -0.0656599 0.2563468
vn 0.9643522 -0.0656599 0.2563468
vn 0.9643522 -0.0656599 0.2563468
vn 0.9534812 -0.1927676 -0.2317633
vn 0.9534812 -0.1927676 -0.2317633
vn 0.9643522 -0.0656599 0.2563468
vn 0.9643522 -0.0656599 0.2563468
vn 0.9643522 -0.0656599 0.2563468
vn 0.9637062 0.1083724 -0.2439790
vn 0.9637062 0.1083724 -0.2439790
vn 0.9637062 0.1083724 -0.2439790
vn 0.9591840 0.1222897 0.2549730
vn 0.9591840 0.1222897 0.2549730
vn 0.9591840 0.1222897 0.2549730
vn 0.9637062 0.1083724 -0.2439790
vn 0.9637062 0.1083724 -0.2439790
vn 0.9637062 0.1083724 -0.2439790
vn 0.9591840 0.1222897 0.2549730
vn 0.9591840 0.1222897 0.2549730
vn 0.9591840 0.1222897 0.2549730
vn 0.9758920 -0.2136628 -0.0445311
vn 0.9758920 -0.2136628 -0.0445311
vn 0.9973015 -0.0679033 0.0279085
vn 0.9973015 -0.0679033 0.0279085
vn 0.9918722 0.1264573 -0.0140752
vn 0.9918722 0.1264573 -0.0140752
vn 0.9915885 0.1264211 0.0277486
vn 0.9915885 0.1264211 0.0277486
vn 0.9758920 -0.2136628 -0.0445311
vn 0.9758920 -0.2136628 -0.0445311
vn 0.9973015 -0.0679033 0.0279085
vn 0.9973015 -0.0679033 0.0279085
vn 0.9918722 0.1264573 -0.0140752
vn 0.9918722 0.1264573 -0.0140752
vn 0.9915885 0.1264211 0.0277486
vn 0.9915885 0.1264211 0.0277486
vn 0.9758920 -0.2136628 -0.0445311
vn 0.9758920 -0.2136628 -0.0445311
vn 0.9973015 -0.0679033 0.0279085
vn 0.9973015 -0.0679033 0.0279085
vn 0.9918722 0.1264573 -0.0140752
vn 0.9918722 0.1264573 -0.0140752
vn 0.9915885 0.1264211 0.0277486
vn 0.9915885 0.1264211 0.0277486
o 30_Jardinera_Wood
usemtl Wood
s 1
f 139/139/139 25/25/25 147/147/147
f 608/608/608 602/602/602 724/724/724
f 152/152/152 158/158/158 40/40/40
f 721/721/721 601/601/601 606/606/606
f 151/151/151 37/37/37 156/156/156
f 141/141/141 148/148/148 27/27/27
f 589/589/589 597/597/597 710/710/710
f 591/591/591 711/711/711 598/598/598
f 36/36/36 26/26/26 29/29/29
f 36/36/36 29/29/29 39/39/39
f 157/157/157 35/35/35 38/38/38
f 157/157/157 155/155/155 35/35/35
f 607/607/607 155/155/155 157/157/157
f 607/607/607 605/605/605 155/155/155
f 152/152/152 40/40/40 27/27/27
f 152/152/152 27/27/27 148/148/148
f 152/152/152 148/148/148 598/598/598
f 152/152/152 598/598/598 602/602/602
f 152/152/152 608/608/608 158/158/158
f 152/152/152 602/602/602 608/608/608
f 711/711/711 602/602/602 598/598/598
f 711/711/711 724/724/724 602/602/602
f 719/719/719 722/722/722 712/712/712
f 719/719/719 712/712/712 709/709/709
f 721/721/721 710/710/710 597/597/597
f 721/721/721 597/597/597 601/601/601
f 720/720/720 605/605/605 607/607/607
f 720/720/720 607/607/607 723/723/723
f 151/151/151 156/156/156 606/606/606
f 151/151/151 606/606/606 601/601/601
f 151/151/151 601/601/601 597/597/597
f 151/151/151 597/597/597 147/147/147
f 151/151/151 25/25/25 37/37/37
f 151/151/151 147/147/147 25/25/25
f 142/142/142 28/28/28 25/25/25
f 142/142/142 25/25/25 140/140/140
f 589/589/589 147/147/147 597/597/597
f 589/589/589 139/139/139 147/147/147
f 592/592/592 710/710/710 713/713/713
f 592/592/592 590/590/590 710/710/710
f 591/591/591 598/598/598 148/148/148
f 591/591/591 148/148/148 141/141/141
f 592/592/592 142/142/142 140/140/140
f 592/592/592 140/140/140 590/590/590
f 163/163/163 47/47/47 171/171/171
f 632/632/632 626/626/626 746/746/746
f 176/176/176 182/182/182 62/62/62
f 743/743/743 625/625/625 630/630/630
f 175/175/175 59/59/59 180/180/180
f 165/165/165 172/172/172 49/49/49
f 613/613/613 621/621/621 732/732/732
f 615/615/615 733/733/733 622/622/622
f 58/58/58 48/48/48 51/51/51
f 58/58/58 51/51/51 61/61/61
f 181/181/181 57/57/57 60/60/60
f 181/181/181 179/179/179 57/57/57
f 631/631/631 179/179/179 181/181/181
f 631/631/631 629/629/629 179/179/179
f 176/176/176 62/62/62 49/49/49
f 176/176/176 49/49/49 172/172/172
f 176/176/176 172/172/172 622/622/622
f 176/176/176 622/622/622 626/626/626
f 176/176/176 632/632/632 182/182/182
f 176/176/176 626/626/626 632/632/632
f 733/733/733 626/626/626 622/622/622
f 733/733/733 746/746/746 626/626/626
f 741/741/741 744/744/744 734/734/734
f 741/741/741 734/734/734 731/731/731
f 743/743/743 732/732/732 621/621/621
f 743/743/743 621/621/621 625/625/625
f 742/742/742 629/629/629 631/631/631
f 742/742/742 631/631/631 745/745/745
f 175/175/175 180/180/180 630/630/630
f 175/175/175 630/630/630 625/625/625
f 175/175/175 625/625/625 621/621/621
f 175/175/175 621/621/621 171/171/171
f 175/175/175 47/47/47 59/59/59
f 175/175/175 171/171/171 47/47/47
f 166/166/166 50/50/50 47/47/47
f 166/166/166 47/47/47 164/164/164
f 613/613/613 171/171/171 621/621/621
f 613/613/613 163/163/163 171/171/171
f 616/616/616 732/732/732 735/735/735
f 616/616/616 614/614/614 732/732/732
f 615/615/615 622/622/622 172/172/172
f 615/615/615 172/172/172 165/165/165
f 616/616/616 166/166/166 164/164/164
f 616/616/616 164/164/164 614/614/614
f 187/187/187 69/69/69 195/195/195
f 656/656/656 650/650/650 768/768/768
f 200/200/200 206/206/206 84/84/84
f 765/765/765 649/649/649 654/654/654
f 199/199/199 81/81/81 204/204/204
f 189/189/189 196/196/196 71/71/71
f 637/637/637 645/645/645 754/754/754
f 639/639/639 755/755/755 646/646/646
f 80/80/80 70/70/70 73/73/73
f 80/80/80 73/73/73 83/83/83
f 205/205/205 79/79/79 82/82/82
f 205/205/205 203/203/203 79/79/79
f 655/655/655 203/203/203 205/205/205
f 655/655/655 653/653/653 203/203/203
f 200/200/200 84/84/84 71/71/71
f 200/200/200 71/71/71 196/196/196
f 200/200/200 196/196/196 646/646/646
f 200/200/200 646/646/646 650/650/650
f 200/200/200 656/656/656 206/206/206
f 200/200/200 650/650/650 656/656/656
f 755/755/755 650/650/650 646/646/646
f 755/755/755 768/768/768 650/650/650
f 763/763/763 766/766/766 756/756/756
f 763/763/763 756/756/756 753/753/753
f 765/765/765 754/754/754 645/645/645
f 765/765/765 645/645/645 649/649/649
f 764/764/764 653/653/653 655/655/655
f 764/764/764 655/655/655 767/767/767
f 199/199/199 204/204/204 654/654/654
f 199/199/199 654/654/654 649/649/649
f 199/199/199 649/649/649 645/645/645
f 199/199/199 645/645/645 195/195/195
f 199/199/199 69/69/69 81/81/81
f 199/199/199 195/195/195 69/69/69
f 190/190/190 72/72/72 69/69/69
f 190/190/190 69/69/69 188/188/188
f 637/637/637 195/195/195 645/645/645
f 637/637/637 187/187/187 195/195/195
f 640/640/640 754/754/754 757/757/757
f 640/640/640 638/638/638 754/754/754
f 639/639/639 646/646/646 196/196/196
f 639/639/639 196/196/196 189/189/189
f 640/640/640 190/190/190 188/188/188
f 640/640/640 188/188/188 638/638/638
f 143/143/143 30/30/30 149/149/149
f 612/612/612 604/604/604 730/730/730
f 154/154/154 162/162/162 46/46/46
f 727/727/727 603/603/603 610/610/610
f 153/153/153 43/43/43 160/160/160
f 145/145/145 150/150/150 32/32/32
f 593/593/593 599/599/599 715/715/715
f 595/595/595 716/716/716 600/600/600
f 42/42/42 31/31/31 34/34/34
f 42/42/42 34/34/34 45/45/45
f 161/161/161 41/41/41 44/44/44
f 161/161/161 159/159/159 41/41/41
f 611/611/611 159/159/159 161/161/161
f 611/611/611 609/609/609 159/159/159
f 154/154/154 46/46/46 32/32/32
f 154/154/154 32/32/32 150/150/150
f 154/154/154 150/150/150 600/600/600
f 154/154/154 600/600/600 604/604/604
f 154/154/154 612/612/612 162/162/162
f 154/154/154 604/604/604 612/612/612
f 716/716/716 604/604/604 600/600/600
f 716/716/716 730/730/730 604/604/604
f 725/725/725 728/728/728 717/717/717
f 725/725/725 717/717/717 714/714/714
f 727/727/727 715/715/715 599/599/599
f 727/727/727 599/599/599 603/603/603
f 726/726/726 609/609/609 611/611/611
f 726/726/726 611/611/611 729/729/729
f 153/153/153 160/160/160 610/610/610
f 153/153/153 610/610/610 603/603/603
f 153/153/153 603/603/603 599/599/599
f 153/153/153 599/599/599 149/149/149
f 153/153/153 30/30/30 43/43/43
f 153/153/153 149/149/149 30/30/30
f 146/146/146 33/33/33 30/30/30
f 146/146/146 30/30/30 144/144/144
f 593/593/593 149/149/149 599/599/599
f 593/593/593 143/143/143 149/149/149
f 596/596/596 715/715/715 718/718/718
f 596/596/596 594/594/594 715/715/715
f 595/595/595 600/600/600 150/150/150
f 595/595/595 150/150/150 145/145/145
f 596/596/596 146/146/146 144/144/144
f 596/596/596 144/144/144 594/594/594
f 167/167/167 52/52/52 173/173/173
f 636/636/636 628/628/628 752/752/752
f 178/178/178 186/186/186 68/68/68
f 749/749/749 627/627/627 634/634/634
f 177/177/177 65/65/65 184/184/184
f 169/169/169 174/174/174 54/54/54
f 617/617/617 623/623/623 737/737/737
f 619/619/619 738/738/738 624/624/624
f 64/64/64 53/53/53 56/56/56
f 64/64/64 56/56/56 67/67/67
f 185/185/185 63/63/63 66/66/66
f 185/185/185 183/183/183 63/63/63
f 635/635/635 183/183/183 185/185/185
f 635/635/635 633/633/633 183/183/183
f 178/178/178 68/68/68 54/54/54
f 178/178/178 54/54/54 174/174/174
f 178/178/178 174/174/174 624/624/624
f 178/178/178 624/624/624 628/628/628
f 178/178/178 636/636/636 186/186/186
f 178/178/178 628/628/628 636/636/636
f 738/738/738 628/628/628 624/624/624
f 738/738/738 752/752/752 628/628/628
f 747/747/747 750/750/750 739/739/739
f 747/747/747 739/739/739 736/736/736
f 749/749/749 737/737/737 623/623/623
f 749/749/749 623/623/623 627/627/627
f 748/748/748 633/633/633 635/635/635
f 748/748/748 635/635/635 751/751/751
f 177/177/177 184/184/184 634/634/634
f 177/177/177 634/634/634 627/627/627
f 177/177/177 627/627/627 623/623/623
f 177/177/177 623/623/623 173/173/173
f 177/177/177 52/52/52 65/65/65
f 177/177/177 173/173/173 52/52/52
f 170/170/170 55/55/55 52/52/52
f 170/170/170 52/52/52 168/168/168
f 617/617/617 173/173/173 623/623/623
f 617/617/617 167/167/167 173/173/173
f 620/620/620 737/737/737 740/740/740
f 620/620/620 618/618/618 737/737/737
f 619/619/619 624/624/624 174/174/174
f 619/619/619 174/174/174 169/169/169
f 620/620/620 170/170/170 168/168/168
f 620/620/620 168/168/168 618/618/618
f 191/191/191 74/74/74 197/197/197
f 660/660/660 652/652/652 774/774/774
f 202/202/202 210/210/210 90/90/90
f 771/771/771 651/651/651 658/658/658
f 201/201/201 87/87/87 208/208/208
f 193/193/193 198/198/198 76/76/76
f 641/641/641 647/647/647 759/759/759
f 643/643/643 760/760/760 648/648/648
f 86/86/86 75/75/75 78/78/78
f 86/86/86 78/78/78 89/89/89
f 209/209/209 85/85/85 88/88/88
f 209/209/209 207/207/207 85/85/85
f 659/659/659 207/207/207 209/209/209
f 659/659/659 657/657/657 207/207/207
f 202/202/202 90/90/90 76/76/76
f 202/202/202 76/76/76 198/198/198
f 202/202/202 198/198/198 648/648/648
f 202/202/202 648/648/648 652/652/652
f 202/202/202 660/660/660 210/210/210
f 202/202/202 652/652/652 660/660/660
f 760/760/760 652/652/652 648/648/648
f 760/760/760 774/774/774 652/652/652
f 769/769/769 772/772/772 761/761/761
f 769/769/769 761/761/761 758/758/758
f 771/771/771 759/759/759 647/647/647
f 771/771/771 647/647/647 651/651/651
f 770/770/770 657/657/657 659/659/659
f 770/770/770 659/659/659 773/773/773
f 201/201/201 208/208/208 658/658/658
f 201/201/201 658/658/658 651/651/651
f 201/201/201 651/651/651 647/647/647
f 201/201/201 647/647/647 197/197/197
f 201/201/201 74/74/74 87/87/87
f 201/201/201 197/197/197 74/74/74
f 194/194/194 77/77/77 74/74/74
f 194/194/194 74/74/74 192/192/192
f 641/641/641 197/197/197 647/647/647
f 641/641/641 191/191/191 197/197/197
f 644/644/644 759/759/759 762/762/762
f 644/644/644 642/642/642 759/759/759
f 643/643/643 648/648/648 198/198/198
f 643/643/643 198/198/198 193/193/193
f 644/644/644 194/194/194 192/192/192
f 644/644/644 192/192/192 642/642/642
f 100/100/100 104/104/104 7/7/7
f 92/92/92 1/1/1 97/97/97
f 288/288/288 291/291/291 332/332/332
f 281/281/281 286/286/286 329/329/329
f 293/293/293 289/289/289 334/334/334
f 99/99/99 5/5/5 102/102/102
f 95/95/95 98/98/98 3/3/3
f 284/284/284 331/331/331 287/287/287
f 330/330/330 328/328/328 333/333/333
f 330/330/330 333/333/333 335/335/335
f 6/6/6 2/2/2 4/4/4
f 6/6/6 4/4/4 8/8/8
f 106/106/106 6/6/6 8/8/8
f 106/106/106 103/103/103 6/6/6
f 100/100/100 3/3/3 98/98/98
f 100/100/100 7/7/7 3/3/3
f 289/289/289 331/331/331 334/334/334
f 289/289/289 287/287/287 331/331/331
f 289/289/289 100/100/100 98/98/98
f 289/289/289 98/98/98 287/287/287
f 288/288/288 332/332/332 329/329/329
f 288/288/288 329/329/329 286/286/286
f 281/281/281 97/97/97 286/286/286
f 281/281/281 92/92/92 97/97/97
f 293/293/293 100/100/100 289/289/289
f 293/293/293 104/104/104 100/100/100
f 295/295/295 335/335/335 333/333/333
f 295/295/295 333/333/333 292/292/292
f 294/294/294 101/101/101 105/105/105
f 294/294/294 290/290/290 101/101/101
f 99/99/99 102/102/102 291/291/291
f 99/99/99 291/291/291 288/288/288
f 99/99/99 1/1/1 5/5/5
f 99/99/99 97/97/97 1/1/1
f 99/99/99 288/288/288 286/286/286
f 99/99/99 286/286/286 97/97/97
f 94/94/94 4/4/4 2/2/2
f 94/94/94 2/2/2 91/91/91
f 284/284/284 287/287/287 98/98/98
f 284/284/284 98/98/98 95/95/95
f 283/283/283 328/328/328 330/330/330
f 283/283/283 280/280/280 328/328/328
f 285/285/285 93/93/93 282/282/282
f 285/285/285 96/96/96 93/93/93
f 116/116/116 120/120/120 15/15/15
f 108/108/108 9/9/9 113/113/113
f 304/304/304 307/307/307 340/340/340
f 297/297/297 302/302/302 337/337/337
f 309/309/309 305/305/305 342/342/342
f 115/115/115 13/13/13 118/118/118
f 111/111/111 114/114/114 11/11/11
f 300/300/300 339/339/339 303/303/303
f 338/338/338 336/336/336 341/341/341
f 338/338/338 341/341/341 343/343/343
f 14/14/14 10/10/10 12/12/12
f 14/14/14 12/12/12 16/16/16
f 122/122/122 14/14/14 16/16/16
f 122/122/122 119/119/119 14/14/14
f 116/116/116 11/11/11 114/114/114
f 116/116/116 15/15/15 11/11/11
f 305/305/305 339/339/339 342/342/342
f 305/305/305 303/303/303 339/339/339
f 305/305/305 116/116/116 114/114/114
f 305/305/305 114/114/114 303/303/303
f 304/304/304 340/340/340 337/337/337
f 304/304/304 337/337/337 302/302/302
f 297/297/297 113/113/113 302/302/302
f 297/297/297 108/108/108 113/113/113
f 309/309/309 116/116/116 305/305/305
f 309/309/309 120/120/120 116/116/116
f 311/311/311 343/343/343 341/341/341
f 311/311/311 341/341/341 308/308/308
f 310/310/310 117/117/117 121/121/121
f 310/310/310 306/306/306 117/117/117
f 115/115/115 118/118/118 307/307/307
f 115/115/115 307/307/307 304/304/304
f 115/115/115 9/9/9 13/13/13
f 115/115/115 113/113/113 9/9/9
f 115/115/115 304/304/304 302/302/302
f 115/115/115 302/302/302 113/113/113
f 110/110/110 12/12/12 10/10/10
f 110/110/110 10/10/10 107/107/107
f 300/300/300 303/303/303 114/114/114
f 300/300/300 114/114/114 111/111/111
f 299/299/299 336/336/336 338/338/338
f 299/299/299 296/296/296 336/336/336
f 301/301/301 109/109/109 298/298/298
f 301/301/301 112/112/112 109/109/109
f 132/132/132 136/136/136 23/23/23
f 124/124/124 17/17/17 129/129/129
f 320/320/320 323/323/323 348/348/348
f 313/313/313 318/318/318 345/345/345
f 325/325/325 321/321/321 350/350/350
f 131/131/131 21/21/21 134/134/134
f 127/127/127 130/130/130 19/19/19
f 316/316/316 347/347/347 319/319/319
f 346/346/346 344/344/344 349/349/349
f 346/346/346 349/349/349 351/351/351
f 22/22/22 18/18/18 20/20/20
f 22/22/22 20/20/20 24/24/24
f 138/138/138 22/22/22 24/24/24
f 138/138/138 135/135/135 22/22/22
f 132/132/132 19/19/19 130/130/130
f 132/132/132 23/23/23 19/19/19
f 321/321/321 347/347/347 350/350/350
f 321/321/321 319/319/319 347/347/347
f 321/321/321 132/132/132 130/130/130
f 321/321/321 130/130/130 319/319/319
f 320/320/320 348/348/348 345/345/345
f 320/320/320 345/345/345 318/318/318
f 313/313/313 129/129/129 318/318/318
f 313/313/313 124/124/124 129/129/129
f 325/325/325 132/132/132 321/321/321
f 325/325/325 136/136/136 132/132/132
f 327/327/327 351/351/351 349/349/349
f 327/327/327 349/349/349 324/324/324
f 326/326/326 133/133/133 137/137/137
f 326/326/326 322/322/322 133/133/133
f 131/131/131 134/134/134 323/323/323
f 131/131/131 323/323/323 320/320/320
f 131/131/131 17/17/17 21/21/21
f 131/131/131 129/129/129 17/17/17
f 131/131/131 320/320/320 318/318/318
f 131/131/131 318/318/318 129/129/129
f 126/126/126 20/20/20 18/18/18
f 126/126/126 18/18/18 123/123/123
f 316/316/316 319/319/319 130/130/130
f 316/316/316 130/130/130 127/127/127
f 315/315/315 344/344/344 346/346/346
f 315/315/315 312/312/312 344/344/344
f 317/317/317 125/125/125 314/314/314
f 317/317/317 128/128/128 125/125/125
f 481/481/481 485/485/485 454/454/454
f 473/473/473 448/448/448 478/478/478
f 669/669/669 672/672/672 779/779/779
f 662/662/662 667/667/667 776/776/776
f 674/674/674 670/670/670 781/781/781
f 480/480/480 452/452/452 483/483/483
f 476/476/476 479/479/479 450/450/450
f 665/665/665 778/778/778 668/668/668
f 777/777/777 775/775/775 780/780/780
f 777/777/777 780/780/780 782/782/782
f 453/453/453 449/449/449 451/451/451
f 453/453/453 451/451/451 455/455/455
f 487/487/487 453/453/453 455/455/455
f 487/487/487 484/484/484 453/453/453
f 481/481/481 450/450/450 479/479/479
f 481/481/481 454/454/454 450/450/450
f 670/670/670 778/778/778 781/781/781
f 670/670/670 668/668/668 778/778/778
f 670/670/670 481/481/481 479/479/479
f 670/670/670 479/479/479 668/668/668
f 669/669/669 779/779/779 776/776/776
f 669/669/669 776/776/776 667/667/667
f 662/662/662 478/478/478 667/667/667
f 662/662/662 473/473/473 478/478/478
f 674/674/674 481/481/481 670/670/670
f 674/674/674 485/485/485 481/481/481
f 676/676/676 782/782/782 780/780/780
f 676/676/676 780/780/780 673/673/673
f 675/675/675 482/482/482 486/486/486
f 675/675/675 671/671/671 482/482/482
f 480/480/480 483/483/483 672/672/672
f 480/480/480 672/672/672 669/669/669
f 480/480/480 448/448/448 452/452/452
f 480/480/480 478/478/478 448/448/448
f 480/480/480 669/669/669 667/667/667
f 480/480/480 667/667/667 478/478/478
f 475/475/475 451/451/451 449/449/449
f 475/475/475 449/449/449 472/472/472
f 665/665/665 668/668/668 479/479/479
f 665/665/665 479/479/479 476/476/476
f 664/664/664 775/775/775 777/777/777
f 664/664/664 661/661/661 775/775/775
f 666/666/666 474/474/474 663/663/663
f 666/666/666 477/477/477 474/474/474
f 497/497/497 501/501/501 462/462/462
f 489/489/489 456/456/456 494/494/494
f 685/685/685 688/688/688 787/787/787
f 678/678/678 683/683/683 784/784/784
f 690/690/690 686/686/686 789/789/789
f 496/496/496 460/460/460 499/499/499
f 492/492/492 495/495/495 458/458/458
f 681/681/681 786/786/786 684/684/684
f 785/785/785 783/783/783 788/788/788
f 785/785/785 788/788/788 790/790/790
f 461/461/461 457/457/457 459/459/459
f 461/461/461 459/459/459 463/463/463
f 503/503/503 461/461/461 463/463/463
f 503/503/503 500/500/500 461/461/461
f 497/497/497 458/458/458 495/495/495
f 497/497/497 462/462/462 458/458/458
f 686/686/686 786/786/786 789/789/789
f 686/686/686 684/684/684 786/786/786
f 686/686/686 497/497/497 495/495/495
f 686/686/686 495/495/495 684/684/684
f 685/685/685 787/787/787 784/784/784
f 685/685/685 784/784/784 683/683/683
f 678/678/678 494/494/494 683/683/683
f 678/678/678 489/489/489 494/494/494
f 690/690/690 497/497/497 686/686/686
f 690/690/690 501/501/501 497/497/497
f 692/692/692 790/790/790 788/788/788
f 692/692/692 788/788/788 689/689/689
f 691/691/691 498/498/498 502/502/502
f 691/691/691 687/687/687 498/498/498
f 496/496/496 499/499/499 688/688/688
f 496/496/496 688/688/688 685/685/685
f 496/496/496 456/456/456 460/460/460
f 496/496/496 494/494/494 456/456/456
f 496/496/496 685/685/685 683/683/683
f 496/496/496 683/683/683 494/494/494
f 491/491/491 459/459/459 457/457/457
f 491/491/491 457/457/457 488/488/488
f 681/681/681 684/684/684 495/495/495
f 681/681/681 495/495/495 492/492/492
f 680/680/680 783/783/783 785/785/785
f 680/680/680 677/677/677 783/783/783
f 682/682/682 490/490/490 679/679/679
f 682/682/682 493/493/493 490/490/490
f 513/513/513 517/517/517 470/470/470
f 505/505/505 464/464/464 510/510/510
f 701/701/701 704/704/704 795/795/795
f 694/694/694 699/699/699 792/792/792
f 706/706/706 702/702/702 797/797/797
f 512/512/512 468/468/468 515/515/515
f 508/508/508 511/511/511 466/466/466
f 697/697/697 794/794/794 700/700/700
f 793/793/793 791/791/791 796/796/796
f 793/793/793 796/796/796 798/798/798
f 469/469/469 465/465/465 467/467/467
f 469/469/469 467/467/467 471/471/471
f 519/519/519 469/469/469 471/471/471
f 519/519/519 516/516/516 469/469/469
f 513/513/513 466/466/466 511/511/511
f 513/513/513 470/470/470 466/466/466
f 702/702/702 794/794/794 797/797/797
f 702/702/702 700/700/700 794/794/794
f 702/702/702 513/513/513 511/511/511
f 702/702/702 511/511/511 700/700/700
f 701/701/701 795/795/795 792/792/792
f 701/701/701 792/792/792 699/699/699
f 694/694/694 510/510/510 699/699/699
f 694/694/694 505/505/505 510/510/510
f 706/706/706 513/513/513 702/702/702
f 706/706/706 517/517/517 513/513/513
f 708/708/708 798/798/798 796/796/796
f 708/708/708 796/796/796 705/705/705
f 707/707/707 514/514/514 518/518/518
f 707/707/707 703/703/703 514/514/514
f 512/512/512 515/515/515 704/704/704
f 512/512/512 704/704/704 701/701/701
f 512/512/512 464/464/464 468/468/468
f 512/512/512 510/510/510 464/464/464
f 512/512/512 701/701/701 699/699/699
f 512/512/512 699/699/699 510/510/510
f 507/507/507 467/467/467 465/465/465
f 507/507/507 465/465/465 504/504/504
f 697/697/697 700/700/700 511/511/511
f 697/697/697 511/511/511 508/508/508
f 696/696/696 791/791/791 793/793/793
f 696/696/696 693/693/693 791/791/791
f 698/698/698 506/506/506 695/695/695
f 698/698/698 509/509/509 506/506/506
f 244/244/244 211/211/211 250/250/250
f 265/265/265 275/275/275 231/231/231
f 571/571/571 538/538/538 550/550/550
f 262/262/262 226/226/226 274/274/274
f 541/541/541 576/576/576 551/551/551
f 245/245/245 253/253/253 215/215/215
f 520/520/520 526/526/526 557/557/557
f 521/521/521 560/560/560 529/529/529
f 228/228/228 212/212/212 214/214/214
f 228/228/228 214/214/214 230/230/230
f 275/275/275 551/551/551 550/550/550
f 275/275/275 550/550/550 274/274/274
f 275/275/275 226/226/226 231/231/231
f 275/275/275 274/274/274 226/226/226
f 264/264/264 229/229/229 213/213/213
f 264/264/264 213/213/213 252/252/252
f 573/573/573 527/527/527 539/539/539
f 573/573/573 557/557/557 527/527/527
f 571/571/571 550/550/550 551/551/551
f 571/571/571 551/551/551 576/576/576
f 262/262/262 274/274/274 550/550/550
f 262/262/262 550/550/550 538/538/538
f 263/263/263 539/539/539 527/527/527
f 263/263/263 527/527/527 251/251/251
f 263/263/263 211/211/211 227/227/227
f 263/263/263 251/251/251 211/211/211
f 558/558/558 556/556/556 572/572/572
f 558/558/558 572/572/572 574/574/574
f 540/540/540 559/559/559 575/575/575
f 540/540/540 528/528/528 559/559/559
f 541/541/541 551/551/551 275/275/275
f 541/541/541 275/275/275 265/265/265
f 540/540/540 264/264/264 252/252/252
f 540/540/540 252/252/252 528/528/528
f 245/245/245 215/215/215 211/211/211
f 245/245/245 211/211/211 244/244/244
f 520/520/520 250/250/250 526/526/526
f 520/520/520 244/244/244 250/250/250
f 521/521/521 557/557/557 560/560/560
f 521/521/521 520/520/520 557/557/557
f 521/521/521 529/529/529 253/253/253
f 521/521/521 253/253/253 245/245/245
f 521/521/521 245/245/245 244/244/244
f 521/521/521 244/244/244 520/520/520
f 246/246/246 216/216/216 254/254/254
f 269/269/269 277/277/277 237/237/237
f 577/577/577 542/542/542 552/552/552
f 266/266/266 232/232/232 276/276/276
f 545/545/545 582/582/582 553/553/553
f 247/247/247 257/257/257 220/220/220
f 522/522/522 530/530/530 562/562/562
f 523/523/523 565/565/565 533/533/533
f 234/234/234 217/217/217 219/219/219
f 234/234/234 219/219/219 236/236/236
f 277/277/277 553/553/553 552/552/552
f 277/277/277 552/552/552 276/276/276
f 277/277/277 232/232/232 237/237/237
f 277/277/277 276/276/276 232/232/232
f 268/268/268 235/235/235 218/218/218
f 268/268/268 218/218/218 256/256/256
f 579/579/579 531/531/531 543/543/543
f 579/579/579 562/562/562 531/531/531
f 577/577/577 552/552/552 553/553/553
f 577/577/577 553/553/553 582/582/582
f 266/266/266 276/276/276 552/552/552
f 266/266/266 552/552/552 542/542/542
f 267/267/267 543/543/543 531/531/531
f 267/267/267 531/531/531 255/255/255
f 267/267/267 216/216/216 233/233/233
f 267/267/267 255/255/255 216/216/216
f 563/563/563 561/561/561 578/578/578
f 563/563/563 578/578/578 580/580/580
f 544/544/544 564/564/564 581/581/581
f 544/544/544 532/532/532 564/564/564
f 545/545/545 553/553/553 277/277/277
f 545/545/545 277/277/277 269/269/269
f 544/544/544 268/268/268 256/256/256
f 544/544/544 256/256/256 532/532/532
f 247/247/247 220/220/220 216/216/216
f 247/247/247 216/216/216 246/246/246
f 522/522/522 254/254/254 530/530/530
f 522/522/522 246/246/246 254/254/254
f 523/523/523 562/562/562 565/565/565
f 523/523/523 522/522/522 562/562/562
f 523/523/523 533/533/533 257/257/257
f 523/523/523 257/257/257 247/247/247
f 523/523/523 247/247/247 246/246/246
f 523/523/523 246/246/246 522/522/522
f 248/248/248 221/221/221 258/258/258
f 273/273/273 279/279/279 243/243/243
f 583/583/583 546/546/546 554/554/554
f 270/270/270 238/238/238 278/278/278
f 549/549/549 588/588/588 555/555/555
f 249/249/249 261/261/261 225/225/225
f 524/524/524 534/534/534 567/567/567
f 525/525/525 570/570/570 537/537/537
f 240/240/240 222/222/222 224/224/224
f 240/240/240 224/224/224 242/242/242
f 279/279/279 555/555/555 554/554/554
f 279/279/279 554/554/554 278/278/278
f 279/279/279 238/238/238 243/243/243
f 279/279/279 278/278/278 238/238/238
f 272/272/272 241/241/241 223/223/223
f 272/272/272 223/223/223 260/260/260
f 585/585/585 535/535/535 547/547/547
f 585/585/585 567/567/567 535/535/535
f 583/583/583 554/554/554 555/555/555
f 583/583/583 555/555/555 588/588/588
f 270/270/270 278/278/278 554/554/554
f 270/270/270 554/554/554 546/546/546
f 271/271/271 547/547/547 535/535/535
f 271/271/271 535/535/535 259/259/259
f 271/271/271 221/221/221 239/239/239
f 271/271/271 259/259/259 221/221/221
f 568/568/568 566/566/566 584/584/584
f 568/568/568 584/584/584 586/586/586
f 548/548/548 569/569/569 587/587/587
f 548/548/548 536/536/536 569/569/569
f 549/549/549 555/555/555 279/279/279
f 549/549/549 279/279/279 273/273/273
f 548/548/548 272/272/272 260/260/260
f 548/548/548 260/260/260 536/536/536
f 249/249/249 225/225/225 221/221/221
f 249/249/249 221/221/221 248/248/248
f 524/524/524 258/258/258 534/534/534
f 524/524/524 248/248/248 258/258/258
f 525/525/525 567/567/567 570/570/570
f 525/525/525 524/524/524 567/567/567
f 525/525/525 537/537/537 261/261/261
f 525/525/525 261/261/261 249/249/249
f 525/525/525 249/249/249 248/248/248
f 525/525/525 248/248/248 524/524/524
f 397/397/397 386/386/386 383/383/383
f 364/364/364 353/353/353 368/368/368
f 371/371/371 375/375/375 362/362/362
f 395/395/395 382/382/382 384/384/384
f 370/370/370 359/359/359 373/373/373
f 366/366/366 369/369/369 356/356/356
f 376/376/376 380/380/380 389/389/389
f 378/378/378 391/391/391 381/381/381
f 360/360/360 354/354/354 357/357/357
f 360/360/360 357/357/357 363/363/363
f 374/374/374 387/387/387 385/385/385
f 374/374/374 385/385/385 372/372/372
f 374/374/374 358/358/358 361/361/361
f 374/374/374 372/372/372 358/358/358
f 371/371/371 362/362/362 356/356/356
f 371/371/371 356/356/356 369/369/369
f 371/371/371 386/386/386 375/375/375
f 371/371/371 383/383/383 386/386/386
f 395/395/395 380/380/380 382/382/382
f 395/395/395 389/389/389 380/380/380
f 394/394/394 392/392/392 388/388/388
f 394/394/394 398/398/398 392/392/392
f 396/396/396 385/385/385 387/387/387
f 396/396/396 387/387/387 399/399/399
f 370/370/370 373/373/373 384/384/384
f 370/370/370 384/384/384 382/382/382
f 370/370/370 382/382/382 380/380/380
f 370/370/370 380/380/380 368/368/368
f 370/370/370 353/353/353 359/359/359
f 370/370/370 368/368/368 353/353/353
f 381/381/381 371/371/371 369/369/369
f 381/381/381 383/383/383 371/371/371
f 381/381/381 391/391/391 397/397/397
f 381/381/381 397/397/397 383/383/383
f 367/367/367 355/355/355 352/352/352
f 367/367/367 352/352/352 365/365/365
f 376/376/376 368/368/368 380/380/380
f 376/376/376 364/364/364 368/368/368
f 378/378/378 381/381/381 369/369/369
f 378/378/378 369/369/369 366/366/366
f 379/379/379 390/390/390 393/393/393
f 379/379/379 377/377/377 390/390/390
f 379/379/379 367/367/367 365/365/365
f 379/379/379 365/365/365 377/377/377
f 445/445/445 434/434/434 431/431/431
f 412/412/412 401/401/401 416/416/416
f 419/419/419 423/423/423 410/410/410
f 443/443/443 430/430/430 432/432/432
f 418/418/418 407/407/407 421/421/421
f 414/414/414 417/417/417 404/404/404
f 424/424/424 428/428/428 437/437/437
f 426/426/426 439/439/439 429/429/429
f 408/408/408 402/402/402 405/405/405
f 408/408/408 405/405/405 411/411/411
f 422/422/422 435/435/435 433/433/433
f 422/422/422 433/433/433 420/420/420
f 422/422/422 406/406/406 409/409/409
f 422/422/422 420/420/420 406/406/406
f 419/419/419 410/410/410 404/404/404
f 419/419/419 404/404/404 417/417/417
f 419/419/419 434/434/434 423/423/423
f 419/419/419 431/431/431 434/434/434
f 443/443/443 428/428/428 430/430/430
f 443/443/443 437/437/437 428/428/428
f 442/442/442 440/440/440 436/436/436
f 442/442/442 446/446/446 440/440/440
f 444/444/444 433/433/433 435/435/435
f 444/444/444 435/435/435 447/447/447
f 418/418/418 421/421/421 432/432/432
f 418/418/418 432/432/432 430/430/430
f 418/418/418 430/430/430 428/428/428
f 418/418/418 428/428/428 416/416/416
f 418/418/418 401/401/401 407/407/407
f 418/418/418 416/416/416 401/401/401
f 429/429/429 419/419/419 417/417/417
f 429/429/429 431/431/431 419/419/419
f 429/429/429 439/439/439 445/445/445
f 429/429/429 445/445/445 431/431/431
f 415/415/415 403/403/403 400/400/400
f 415/415/415 400/400/400 413/413/413
f 424/424/424 416/416/416 428/428/428
f 424/424/424 412/412/412 416/416/416
f 426/426/426 429/429/429 417/417/417
f 426/426/426 417/417/417 414/414/414
f 427/427/427 438/438/438 441/441/441
f 427/427/427 425/425/425 438/438/438
f 427/427/427 415/415/415 413/413/413
f 427/427/427 413/413/413 425/425/425
