o Bridge_Collision
v -4.0000000 0.2000000 -1.2600000
v -4.0000000 0.2000000 1.2600000
v -4.0000000 0.0000000 -1.2600000
v -4.0000000 0.0000000 1.2600000
v -3.6000000 0.3292000 -1.2600000
v -3.6000000 0.3292000 1.2600000
v -3.6000000 0.1292000 -1.2600000
v -3.6000000 0.1292000 1.2600000
v -3.2000000 0.4448000 -1.2600000
v -3.2000000 0.4448000 1.2600000
v -3.2000000 0.2448000 -1.2600000
v -3.2000000 0.2448000 1.2600000
v -2.8000000 0.5468000 -1.2600000
v -2.8000000 0.5468000 1.2600000
v -2.8000000 0.3468000 -1.2600000
v -2.8000000 0.3468000 1.2600000
v -2.4000000 0.6352000 -1.2600000
v -2.4000000 0.6352000 1.2600000
v -2.4000000 0.4352000 -1.2600000
v -2.4000000 0.4352000 1.2600000
v -2.0000000 0.7100000 -1.2600000
v -2.0000000 0.7100000 1.2600000
v -2.0000000 0.5100000 -1.2600000
v -2.0000000 0.5100000 1.2600000
v -1.6000000 0.7712000 -1.2600000
v -1.6000000 0.7712000 1.2600000
v -1.6000000 0.5712000 -1.2600000
v -1.6000000 0.5712000 1.2600000
v -1.2000000 0.8188000 -1.2600000
v -1.2000000 0.8188000 1.2600000
v -1.2000000 0.6188000 -1.2600000
v -1.2000000 0.6188000 1.2600000
v -0.8000000 0.8528000 -1.2600000
v -0.8000000 0.8528000 1.2600000
v -0.8000000 0.6528000 -1.2600000
v -0.8000000 0.6528000 1.2600000
v -0.4000000 0.8732000 -1.2600000
v -0.4000000 0.8732000 1.2600000
v -0.4000000 0.6732000 -1.2600000
v -0.4000000 0.6732000 1.2600000
v 0.0000000 0.8800000 -1.2600000
v 0.0000000 0.8800000 1.2600000
v 0.0000000 0.6800000 -1.2600000
v 0.0000000 0.6800000 1.2600000
v 0.4000000 0.8732000 -1.2600000
v 0.4000000 0.8732000 1.2600000
v 0.4000000 0.6732000 -1.2600000
v 0.4000000 0.6732000 1.2600000
v 0.8000000 0.8528000 -1.2600000
v 0.8000000 0.8528000 1.2600000
v 0.8000000 0.6528000 -1.2600000
v 0.8000000 0.6528000 1.2600000
v 1.2000000 0.8188000 -1.2600000
v 1.2000000 0.8188000 1.2600000
v 1.2000000 0.6188000 -1.2600000
v 1.2000000 0.6188000 1.2600000
v 1.6000000 0.7712000 -1.2600000
v 1.6000000 0.7712000 1.2600000
v 1.6000000 0.5712000 -1.2600000
v 1.6000000 0.5712000 1.2600000
v 2.0000000 0.7100000 -1.2600000
v 2.0000000 0.7100000 1.2600000
v 2.0000000 0.5100000 -1.2600000
v 2.0000000 0.5100000 1.2600000
v 2.4000000 0.6352000 -1.2600000
v 2.4000000 0.6352000 1.2600000
v 2.4000000 0.4352000 -1.2600000
v 2.4000000 0.4352000 1.2600000
v 2.8000000 0.5468000 -1.2600000
v 2.8000000 0.5468000 1.2600000
v 2.8000000 0.3468000 -1.2600000
v 2.8000000 0.3468000 1.2600000
v 3.2000000 0.4448000 -1.2600000
v 3.2000000 0.4448000 1.2600000
v 3.2000000 0.2448000 -1.2600000
v 3.2000000 0.2448000 1.2600000
v 3.6000000 0.3292000 -1.2600000
v 3.6000000 0.3292000 1.2600000
v 3.6000000 0.1292000 -1.2600000
v 3.6000000 0.1292000 1.2600000
v 4.0000000 0.2000000 -1.2600000
v 4.0000000 0.2000000 1.2600000
v 4.0000000 0.0000000 -1.2600000
v 4.0000000 0.0000000 1.2600000
f 6 5 1
f 2 6 1
f 8 4 3
f 7 8 3
f 7 3 1
f 5 7 1
f 8 6 2
f 4 8 2
f 10 9 5
f 6 10 5
f 12 8 7
f 11 12 7
f 11 7 5
f 9 11 5
f 12 10 6
f 8 12 6
f 14 13 9
f 10 14 9
f 16 12 11
f 15 16 11
f 15 11 9
f 13 15 9
f 16 14 10
f 12 16 10
f 18 17 13
f 14 18 13
f 20 16 15
f 19 20 15
f 19 15 13
f 17 19 13
f 20 18 14
f 16 20 14
f 22 21 17
f 18 22 17
f 24 20 19
f 23 24 19
f 23 19 17
f 21 23 17
f 24 22 18
f 20 24 18
f 26 25 21
f 22 26 21
f 28 24 23
f 27 28 23
f 27 23 21
f 25 27 21
f 28 26 22
f 24 28 22
f 30 29 25
f 26 30 25
f 32 28 27
f 31 32 27
f 31 27 25
f 29 31 25
f 32 30 26
f 28 32 26
f 34 33 29
f 30 34 29
f 36 32 31
f 35 36 31
f 35 31 29
f 33 35 29
f 36 34 30
f 32 36 30
f 38 37 33
f 34 38 33
f 40 36 35
f 39 40 35
f 39 35 33
f 37 39 33
f 40 38 34
f 36 40 34
f 42 41 37
f 38 42 37
f 44 40 39
f 43 44 39
f 43 39 37
f 41 43 37
f 44 42 38
f 40 44 38
f 46 45 41
f 42 46 41
f 48 44 43
f 47 48 43
f 47 43 41
f 45 47 41
f 48 46 42
f 44 48 42
f 50 49 45
f 46 50 45
f 52 48 47
f 51 52 47
f 51 47 45
f 49 51 45
f 52 50 46
f 48 52 46
f 54 53 49
f 50 54 49
f 56 52 51
f 55 56 51
f 55 51 49
f 53 55 49
f 56 54 50
f 52 56 50
f 58 57 53
f 54 58 53
f 60 56 55
f 59 60 55
f 59 55 53
f 57 59 53
f 60 58 54
f 56 60 54
f 62 61 57
f 58 62 57
f 64 60 59
f 63 64 59
f 63 59 57
f 61 63 57
f 64 62 58
f 60 64 58
f 66 65 61
f 62 66 61
f 68 64 63
f 67 68 63
f 67 63 61
f 65 67 61
f 68 66 62
f 64 68 62
f 70 69 65
f 66 70 65
f 72 68 67
f 71 72 67
f 71 67 65
f 69 71 65
f 72 70 66
f 68 72 66
f 74 73 69
f 70 74 69
f 76 72 71
f 75 76 71
f 75 71 69
f 73 75 69
f 76 74 70
f 72 76 70
f 78 77 73
f 74 78 73
f 80 76 75
f 79 80 75
f 79 75 73
f 77 79 73
f 80 78 74
f 76 80 74
f 82 81 77
f 78 82 77
f 84 80 79
f 83 84 79
f 83 79 77
f 81 83 77
f 84 82 78
f 80 84 78
f 4 2 1
f 3 4 1
f 84 83 81
f 82 84 81
